G04*
G04 #@! TF.GenerationSoftware,Altium Limited,Altium Designer,24.1.2 (44)*
G04*
G04 Layer_Physical_Order=10*
G04 Layer_Color=65535*
%FSLAX44Y44*%
%MOMM*%
G71*
G04*
G04 #@! TF.SameCoordinates,140FFB89-E29E-458A-976C-A302E020C20F*
G04*
G04*
G04 #@! TF.FilePolarity,Positive*
G04*
G01*
G75*
%ADD10C,0.1270*%
%ADD12C,0.2540*%
%ADD16C,0.1524*%
%ADD18C,0.5080*%
%ADD24C,0.3048*%
%ADD149C,0.4572*%
%ADD256C,0.1513*%
%ADD258C,0.2258*%
%ADD289C,0.2258*%
%ADD293C,0.2032*%
%ADD296C,5.0800*%
%ADD297C,1.6510*%
G04:AMPARAMS|DCode=300|XSize=1.651mm|YSize=1.651mm|CornerRadius=0.2724mm|HoleSize=0mm|Usage=FLASHONLY|Rotation=0.000|XOffset=0mm|YOffset=0mm|HoleType=Round|Shape=RoundedRectangle|*
%AMROUNDEDRECTD300*
21,1,1.6510,1.1062,0,0,0.0*
21,1,1.1062,1.6510,0,0,0.0*
1,1,0.5448,0.5531,-0.5531*
1,1,0.5448,-0.5531,-0.5531*
1,1,0.5448,-0.5531,0.5531*
1,1,0.5448,0.5531,0.5531*
%
%ADD300ROUNDEDRECTD300*%
%ADD325C,0.0934*%
%ADD326C,0.0786*%
%ADD327C,0.1462*%
%ADD329C,0.0934*%
G36*
X849630Y185451D02*
X849114Y185238D01*
X848542Y184666D01*
X848233Y183919D01*
Y183111D01*
X848542Y182364D01*
X849114Y181792D01*
X849630Y181579D01*
Y116175D01*
X848368Y115641D01*
X847621Y115950D01*
X846813D01*
X846066Y115641D01*
X845494Y115069D01*
X845185Y114323D01*
Y113514D01*
X845494Y112767D01*
X846066Y112196D01*
X846813Y111886D01*
X847621D01*
X848368Y112196D01*
X849630Y111662D01*
Y6474D01*
X776688D01*
Y217722D01*
X849630D01*
Y185451D01*
D02*
G37*
G36*
X680412Y217722D02*
X680938Y216452D01*
X680902Y216416D01*
X680593Y215669D01*
Y214861D01*
X680902Y214114D01*
X681474Y213542D01*
X682221Y213233D01*
X683029D01*
X683776Y213542D01*
X684348Y214114D01*
X684657Y214861D01*
Y215669D01*
X684348Y216416D01*
X684312Y216452D01*
X684838Y217722D01*
X742232D01*
Y6474D01*
X652952D01*
X652952Y6474D01*
Y21654D01*
Y24386D01*
X653956Y25212D01*
X654660Y25124D01*
X654905Y24847D01*
X655372Y23857D01*
X655193Y23424D01*
Y22616D01*
X655502Y21869D01*
X656074Y21297D01*
X656821Y20988D01*
X657629D01*
X658376Y21297D01*
X658948Y21869D01*
X659257Y22616D01*
Y23424D01*
X658948Y24171D01*
X658376Y24743D01*
X657993Y24901D01*
X657629Y25052D01*
X657628Y25052D01*
X656821Y25052D01*
X656784Y25038D01*
X656784Y25038D01*
Y25038D01*
X656244Y25847D01*
X656244Y25847D01*
X656065Y26114D01*
X656281Y26329D01*
X656590Y27076D01*
Y27884D01*
X656281Y28631D01*
X655709Y29203D01*
X654962Y29512D01*
X654154D01*
X652952Y30389D01*
X652952Y117911D01*
Y180705D01*
X654222Y181231D01*
X654296Y181157D01*
X655043Y180848D01*
X655851D01*
X656598Y181157D01*
X657170Y181729D01*
X657479Y182476D01*
Y183284D01*
X657170Y184031D01*
X656598Y184603D01*
X655851Y184912D01*
X655043D01*
X654296Y184603D01*
X654222Y184529D01*
X652952Y185055D01*
Y208934D01*
X654222Y209186D01*
X654232Y209161D01*
X654804Y208589D01*
X655551Y208280D01*
X656359D01*
X657106Y208589D01*
X657678Y209161D01*
X657987Y209908D01*
Y210716D01*
X657678Y211463D01*
X657106Y212035D01*
X656359Y212344D01*
X655551D01*
X654804Y212035D01*
X654232Y211463D01*
X654222Y211438D01*
X652952Y211691D01*
Y217722D01*
X680412D01*
D02*
G37*
G36*
X2982650Y25350D02*
Y12650D01*
X2969950D01*
Y25350D01*
X2982650D01*
D02*
G37*
%LPC*%
G36*
X830984Y215392D02*
X830176D01*
X829429Y215083D01*
X828857Y214511D01*
X828548Y213764D01*
Y212956D01*
X828857Y212209D01*
X829429Y211637D01*
X830176Y211328D01*
X830984D01*
X831731Y211637D01*
X832303Y212209D01*
X832612Y212956D01*
Y213764D01*
X832303Y214511D01*
X831731Y215083D01*
X830984Y215392D01*
D02*
G37*
G36*
X820824D02*
X820016D01*
X819269Y215083D01*
X818697Y214511D01*
X818388Y213764D01*
Y212956D01*
X818697Y212209D01*
X819269Y211637D01*
X820016Y211328D01*
X820824D01*
X821571Y211637D01*
X822143Y212209D01*
X822452Y212956D01*
Y213764D01*
X822143Y214511D01*
X821571Y215083D01*
X820824Y215392D01*
D02*
G37*
G36*
X810664D02*
X809856D01*
X809109Y215083D01*
X808537Y214511D01*
X808228Y213764D01*
Y212956D01*
X808537Y212209D01*
X809109Y211637D01*
X809856Y211328D01*
X810664D01*
X811411Y211637D01*
X811983Y212209D01*
X812292Y212956D01*
Y213764D01*
X811983Y214511D01*
X811411Y215083D01*
X810664Y215392D01*
D02*
G37*
G36*
X797364Y209717D02*
X796556D01*
X795809Y209408D01*
X795237Y208836D01*
X794928Y208089D01*
Y207281D01*
X795237Y206534D01*
X795809Y205962D01*
X796556Y205653D01*
X797364D01*
X798111Y205962D01*
X798683Y206534D01*
X798992Y207281D01*
Y208089D01*
X798683Y208836D01*
X798111Y209408D01*
X797364Y209717D01*
D02*
G37*
G36*
X836699Y209677D02*
X835891D01*
X835144Y209368D01*
X834572Y208796D01*
X834263Y208049D01*
Y207241D01*
X834572Y206494D01*
X835144Y205922D01*
X835891Y205613D01*
X836699D01*
X837446Y205922D01*
X838018Y206494D01*
X838327Y207241D01*
Y208049D01*
X838018Y208796D01*
X837446Y209368D01*
X836699Y209677D01*
D02*
G37*
G36*
X791614Y209677D02*
X790806D01*
X790059Y209368D01*
X789487Y208796D01*
X789178Y208049D01*
Y207241D01*
X789487Y206494D01*
X790059Y205922D01*
X790806Y205613D01*
X791614D01*
X792361Y205922D01*
X792933Y206494D01*
X793242Y207241D01*
Y208049D01*
X792933Y208796D01*
X792361Y209368D01*
X791614Y209677D01*
D02*
G37*
G36*
X825904Y195072D02*
X825096D01*
X824349Y194763D01*
X823777Y194191D01*
X823468Y193444D01*
Y192636D01*
X823777Y191889D01*
X824349Y191317D01*
X825096Y191008D01*
X825904D01*
X826651Y191317D01*
X827223Y191889D01*
X827532Y192636D01*
Y193444D01*
X827223Y194191D01*
X826651Y194763D01*
X825904Y195072D01*
D02*
G37*
G36*
X814174Y194625D02*
X813366D01*
X812619Y194315D01*
X812047Y193743D01*
X811738Y192997D01*
Y192188D01*
X812047Y191441D01*
X812619Y190870D01*
X813366Y190560D01*
X814174D01*
X814921Y190870D01*
X815493Y191441D01*
X815802Y192188D01*
Y192997D01*
X815493Y193743D01*
X814921Y194315D01*
X814174Y194625D01*
D02*
G37*
G36*
X784585Y193721D02*
X783776D01*
X783029Y193412D01*
X782458Y192840D01*
X782148Y192093D01*
Y191285D01*
X782458Y190538D01*
X783029Y189967D01*
X783776Y189657D01*
X784585D01*
X785331Y189967D01*
X785903Y190538D01*
X786212Y191285D01*
Y192093D01*
X785903Y192840D01*
X785331Y193412D01*
X784585Y193721D01*
D02*
G37*
G36*
X836699Y190627D02*
X835891D01*
X835144Y190318D01*
X834572Y189746D01*
X834263Y188999D01*
Y188191D01*
X834572Y187444D01*
X835144Y186872D01*
X835891Y186563D01*
X836699D01*
X837446Y186872D01*
X838018Y187444D01*
X838327Y188191D01*
Y188999D01*
X838018Y189746D01*
X837446Y190318D01*
X836699Y190627D01*
D02*
G37*
G36*
X830984Y176022D02*
X830176D01*
X829429Y175713D01*
X828857Y175141D01*
X828548Y174394D01*
Y173586D01*
X828857Y172839D01*
X829429Y172267D01*
X830176Y171958D01*
X830984D01*
X831731Y172267D01*
X832303Y172839D01*
X832612Y173586D01*
Y174394D01*
X832303Y175141D01*
X831731Y175713D01*
X830984Y176022D01*
D02*
G37*
G36*
X820824D02*
X820016D01*
X819269Y175713D01*
X818697Y175141D01*
X818388Y174394D01*
Y173586D01*
X818697Y172839D01*
X819269Y172267D01*
X820016Y171958D01*
X820824D01*
X821571Y172267D01*
X822143Y172839D01*
X822452Y173586D01*
Y174394D01*
X822143Y175141D01*
X821571Y175713D01*
X820824Y176022D01*
D02*
G37*
G36*
X787169Y164987D02*
X786361D01*
X785614Y164677D01*
X785042Y164106D01*
X784733Y163359D01*
Y162551D01*
X785042Y161804D01*
X785614Y161232D01*
X786361Y160923D01*
X787169D01*
X787916Y161232D01*
X788488Y161804D01*
X788797Y162551D01*
Y163359D01*
X788488Y164106D01*
X787916Y164677D01*
X787169Y164987D01*
D02*
G37*
G36*
Y152002D02*
X786361D01*
X785614Y151692D01*
X785042Y151121D01*
X784733Y150374D01*
Y149566D01*
X785042Y148819D01*
X785614Y148247D01*
X786361Y147938D01*
X787169D01*
X787916Y148247D01*
X788488Y148819D01*
X788797Y149566D01*
Y150374D01*
X788488Y151121D01*
X787916Y151692D01*
X787169Y152002D01*
D02*
G37*
G36*
X810029Y147447D02*
X809221D01*
X808474Y147138D01*
X807902Y146566D01*
X807593Y145819D01*
Y145011D01*
X807902Y144264D01*
X808474Y143692D01*
X809221Y143383D01*
X810029D01*
X810776Y143692D01*
X811348Y144264D01*
X811657Y145011D01*
Y145819D01*
X811348Y146566D01*
X810776Y147138D01*
X810029Y147447D01*
D02*
G37*
G36*
X820824Y146812D02*
X820016D01*
X819269Y146503D01*
X818697Y145931D01*
X818388Y145184D01*
Y144376D01*
X818697Y143629D01*
X819269Y143057D01*
X820016Y142748D01*
X820824D01*
X821571Y143057D01*
X822143Y143629D01*
X822452Y144376D01*
Y145184D01*
X822143Y145931D01*
X821571Y146503D01*
X820824Y146812D01*
D02*
G37*
G36*
X836699Y141097D02*
X835891D01*
X835144Y140788D01*
X834572Y140216D01*
X834263Y139469D01*
Y138661D01*
X834572Y137914D01*
X835144Y137342D01*
X835891Y137033D01*
X836699D01*
X837446Y137342D01*
X838018Y137914D01*
X838327Y138661D01*
Y139469D01*
X838018Y140216D01*
X837446Y140788D01*
X836699Y141097D01*
D02*
G37*
G36*
X792884Y136007D02*
X792076D01*
X791329Y135698D01*
X790757Y135126D01*
X790448Y134380D01*
Y133571D01*
X790757Y132824D01*
X791329Y132253D01*
X792076Y131943D01*
X792884D01*
X793631Y132253D01*
X794203Y132824D01*
X794512Y133571D01*
Y134380D01*
X794203Y135126D01*
X793631Y135698D01*
X792884Y136007D01*
D02*
G37*
G36*
X830984Y126492D02*
X830176D01*
X829429Y126183D01*
X828857Y125611D01*
X828548Y124864D01*
Y124056D01*
X828857Y123309D01*
X829429Y122737D01*
X830176Y122428D01*
X830984D01*
X831731Y122737D01*
X832303Y123309D01*
X832612Y124056D01*
Y124864D01*
X832303Y125611D01*
X831731Y126183D01*
X830984Y126492D01*
D02*
G37*
G36*
X820824D02*
X820016D01*
X819269Y126183D01*
X818697Y125611D01*
X818388Y124864D01*
Y124056D01*
X818697Y123309D01*
X819269Y122737D01*
X820016Y122428D01*
X820824D01*
X821571Y122737D01*
X822143Y123309D01*
X822452Y124056D01*
Y124864D01*
X822143Y125611D01*
X821571Y126183D01*
X820824Y126492D01*
D02*
G37*
G36*
X810664D02*
X809856D01*
X809109Y126183D01*
X808537Y125611D01*
X808228Y124864D01*
Y124056D01*
X808537Y123309D01*
X809109Y122737D01*
X809856Y122428D01*
X810664D01*
X811411Y122737D01*
X811983Y123309D01*
X812292Y124056D01*
Y124864D01*
X811983Y125611D01*
X811411Y126183D01*
X810664Y126492D01*
D02*
G37*
G36*
X804949Y121665D02*
X804141D01*
X803394Y121356D01*
X802822Y120784D01*
X802513Y120038D01*
Y119229D01*
X802822Y118482D01*
X803394Y117911D01*
X804141Y117601D01*
X804949D01*
X805696Y117911D01*
X806268Y118482D01*
X806577Y119229D01*
Y120038D01*
X806268Y120784D01*
X805696Y121356D01*
X804949Y121665D01*
D02*
G37*
G36*
X793244Y115950D02*
X792436D01*
X791689Y115641D01*
X791117Y115069D01*
X790808Y114323D01*
Y113514D01*
X791117Y112767D01*
X791689Y112196D01*
X792436Y111886D01*
X793244D01*
X793991Y112196D01*
X794563Y112767D01*
X794872Y113514D01*
Y114323D01*
X794563Y115069D01*
X793991Y115641D01*
X793244Y115950D01*
D02*
G37*
G36*
X804949Y103174D02*
X804141D01*
X803394Y102864D01*
X802822Y102293D01*
X802513Y101546D01*
Y100737D01*
X802822Y99991D01*
X803394Y99419D01*
X804141Y99110D01*
X804949D01*
X805696Y99419D01*
X806268Y99991D01*
X806577Y100737D01*
Y101546D01*
X806268Y102293D01*
X805696Y102864D01*
X804949Y103174D01*
D02*
G37*
G36*
Y94742D02*
X804141D01*
X803394Y94433D01*
X802822Y93861D01*
X802513Y93114D01*
Y92306D01*
X802822Y91559D01*
X803394Y90987D01*
X804141Y90678D01*
X804949D01*
X805696Y90987D01*
X806268Y91559D01*
X806577Y92306D01*
Y93114D01*
X806268Y93861D01*
X805696Y94433D01*
X804949Y94742D01*
D02*
G37*
G36*
X792884Y65659D02*
X792076D01*
X791329Y65350D01*
X790757Y64778D01*
X790448Y64031D01*
Y63223D01*
X790757Y62476D01*
X791329Y61904D01*
X792076Y61595D01*
X792884D01*
X793631Y61904D01*
X794203Y62476D01*
X794512Y63223D01*
Y64031D01*
X794203Y64778D01*
X793631Y65350D01*
X792884Y65659D01*
D02*
G37*
G36*
X722364Y209905D02*
X721556D01*
X720809Y209596D01*
X720237Y209025D01*
X719928Y208278D01*
Y207469D01*
X720237Y206723D01*
X720809Y206151D01*
X721556Y205842D01*
X722364D01*
X723111Y206151D01*
X723683Y206723D01*
X723992Y207469D01*
Y208278D01*
X723683Y209025D01*
X723111Y209596D01*
X722364Y209905D01*
D02*
G37*
G36*
X734464Y204002D02*
X733656D01*
X732909Y203693D01*
X732337Y203121D01*
X732028Y202374D01*
Y201566D01*
X732337Y200819D01*
X732909Y200247D01*
X733656Y199938D01*
X734464D01*
X735211Y200247D01*
X735783Y200819D01*
X736092Y201566D01*
Y202374D01*
X735783Y203121D01*
X735211Y203693D01*
X734464Y204002D01*
D02*
G37*
G36*
X683029Y200787D02*
X682221D01*
X681474Y200478D01*
X680902Y199906D01*
X680593Y199159D01*
Y198351D01*
X680902Y197604D01*
X681474Y197032D01*
X682221Y196723D01*
X683029D01*
X683776Y197032D01*
X684348Y197604D01*
X684657Y198351D01*
Y199159D01*
X684348Y199906D01*
X683776Y200478D01*
X683029Y200787D01*
D02*
G37*
G36*
X734464Y197502D02*
X733656D01*
X732909Y197193D01*
X732337Y196621D01*
X732028Y195874D01*
Y195066D01*
X732337Y194319D01*
X732909Y193747D01*
X733656Y193438D01*
X734464D01*
X735211Y193747D01*
X735783Y194319D01*
X736092Y195066D01*
Y195874D01*
X735783Y196621D01*
X735211Y197193D01*
X734464Y197502D01*
D02*
G37*
G36*
Y190814D02*
X733656D01*
X732909Y190505D01*
X732337Y189933D01*
X732028Y189187D01*
Y188378D01*
X732337Y187631D01*
X732909Y187060D01*
X733656Y186751D01*
X734464D01*
X735211Y187060D01*
X735783Y187631D01*
X736092Y188378D01*
Y189187D01*
X735783Y189933D01*
X735211Y190505D01*
X734464Y190814D01*
D02*
G37*
G36*
X683029Y190627D02*
X682221D01*
X681474Y190318D01*
X680902Y189746D01*
X680593Y188999D01*
Y188191D01*
X680902Y187444D01*
X681474Y186872D01*
X682221Y186563D01*
X683029D01*
X683776Y186872D01*
X684348Y187444D01*
X684657Y188191D01*
Y188999D01*
X684348Y189746D01*
X683776Y190318D01*
X683029Y190627D01*
D02*
G37*
G36*
Y181737D02*
X682221D01*
X681474Y181428D01*
X680902Y180856D01*
X680593Y180109D01*
Y179301D01*
X680902Y178554D01*
X681474Y177982D01*
X682221Y177673D01*
X683029D01*
X683776Y177982D01*
X684348Y178554D01*
X684657Y179301D01*
Y180109D01*
X684348Y180856D01*
X683776Y181428D01*
X683029Y181737D01*
D02*
G37*
G36*
X678815Y165631D02*
X678007D01*
X677260Y165322D01*
X676689Y164750D01*
X676379Y164003D01*
Y163195D01*
X676689Y162448D01*
X677260Y161876D01*
X678007Y161567D01*
X678815D01*
X679562Y161876D01*
X680134Y162448D01*
X680443Y163195D01*
Y164003D01*
X680134Y164750D01*
X679562Y165322D01*
X678815Y165631D01*
D02*
G37*
G36*
X670075D02*
X669267D01*
X668520Y165322D01*
X667948Y164750D01*
X667639Y164003D01*
Y163195D01*
X667948Y162448D01*
X668520Y161876D01*
X669267Y161567D01*
X670075D01*
X670822Y161876D01*
X671394Y162448D01*
X671703Y163195D01*
Y164003D01*
X671394Y164750D01*
X670822Y165322D01*
X670075Y165631D01*
D02*
G37*
G36*
X734464Y164987D02*
X733656D01*
X732909Y164677D01*
X732337Y164106D01*
X732028Y163359D01*
Y162551D01*
X732337Y161804D01*
X732909Y161232D01*
X733656Y160923D01*
X734464D01*
X735211Y161232D01*
X735783Y161804D01*
X736092Y162551D01*
Y163359D01*
X735783Y164106D01*
X735211Y164677D01*
X734464Y164987D01*
D02*
G37*
G36*
X667949Y158357D02*
X667140D01*
X666393Y158048D01*
X665822Y157477D01*
X665512Y156730D01*
Y155921D01*
X665822Y155175D01*
X666393Y154603D01*
X667140Y154293D01*
X667949D01*
X668695Y154603D01*
X669267Y155175D01*
X669576Y155921D01*
Y156730D01*
X669267Y157477D01*
X668695Y158048D01*
X667949Y158357D01*
D02*
G37*
G36*
X674774Y155067D02*
X673966D01*
X673219Y154758D01*
X672647Y154186D01*
X672338Y153439D01*
Y152631D01*
X672647Y151884D01*
X673219Y151312D01*
X673966Y151003D01*
X674774D01*
X675521Y151312D01*
X676093Y151884D01*
X676402Y152631D01*
Y153439D01*
X676093Y154186D01*
X675521Y154758D01*
X674774Y155067D01*
D02*
G37*
G36*
X693675Y152654D02*
X692866D01*
X692120Y152345D01*
X691548Y151773D01*
X691239Y151026D01*
Y150218D01*
X691548Y149471D01*
X692120Y148899D01*
X692866Y148590D01*
X693675D01*
X694422Y148899D01*
X694993Y149471D01*
X695303Y150218D01*
Y151026D01*
X694993Y151773D01*
X694422Y152345D01*
X693675Y152654D01*
D02*
G37*
G36*
X704022Y152557D02*
X703214D01*
X702467Y152247D01*
X701895Y151676D01*
X701586Y150929D01*
Y150121D01*
X701895Y149374D01*
X702467Y148802D01*
X703214Y148493D01*
X704022D01*
X704769Y148802D01*
X705341Y149374D01*
X705650Y150121D01*
Y150929D01*
X705341Y151676D01*
X704769Y152247D01*
X704022Y152557D01*
D02*
G37*
G36*
X734464Y152002D02*
X733656D01*
X732909Y151692D01*
X732337Y151121D01*
X732028Y150374D01*
Y149566D01*
X732337Y148819D01*
X732909Y148247D01*
X733656Y147938D01*
X734464D01*
X735211Y148247D01*
X735783Y148819D01*
X736092Y149566D01*
Y150374D01*
X735783Y151121D01*
X735211Y151692D01*
X734464Y152002D01*
D02*
G37*
G36*
Y145502D02*
X733656D01*
X732909Y145193D01*
X732337Y144621D01*
X732028Y143874D01*
Y143066D01*
X732337Y142319D01*
X732909Y141747D01*
X733656Y141438D01*
X734464D01*
X735211Y141747D01*
X735783Y142319D01*
X736092Y143066D01*
Y143874D01*
X735783Y144621D01*
X735211Y145193D01*
X734464Y145502D01*
D02*
G37*
G36*
X677850Y144740D02*
X677041D01*
X676295Y144431D01*
X675723Y143859D01*
X675414Y143112D01*
Y142304D01*
X675723Y141557D01*
X675824Y141455D01*
X675282Y140202D01*
X674976D01*
X674229Y139893D01*
X673657Y139321D01*
X673348Y138574D01*
Y137766D01*
X673657Y137019D01*
X674229Y136447D01*
X674976Y136138D01*
X675784D01*
X676531Y136447D01*
X677103Y137019D01*
X677412Y137766D01*
Y138574D01*
X677103Y139321D01*
X677001Y139423D01*
X677544Y140676D01*
X677850D01*
X678597Y140985D01*
X679168Y141557D01*
X679478Y142304D01*
Y143112D01*
X679168Y143859D01*
X678597Y144431D01*
X677850Y144740D01*
D02*
G37*
G36*
X722364Y139787D02*
X721556D01*
X720809Y139478D01*
X720237Y138906D01*
X719928Y138159D01*
Y137351D01*
X720237Y136604D01*
X720809Y136032D01*
X721556Y135723D01*
X722364D01*
X723111Y136032D01*
X723683Y136604D01*
X723992Y137351D01*
Y138159D01*
X723683Y138906D01*
X723111Y139478D01*
X722364Y139787D01*
D02*
G37*
G36*
X667152Y136652D02*
X666344D01*
X665597Y136343D01*
X665025Y135771D01*
X664716Y135024D01*
Y134216D01*
X665025Y133469D01*
X665597Y132897D01*
X666344Y132588D01*
X667152D01*
X667899Y132897D01*
X668471Y133469D01*
X668780Y134216D01*
Y135024D01*
X668471Y135771D01*
X667899Y136343D01*
X667152Y136652D01*
D02*
G37*
G36*
X679277Y135073D02*
X678468D01*
X677721Y134764D01*
X677150Y134192D01*
X676841Y133446D01*
Y132637D01*
X677150Y131890D01*
X677721Y131319D01*
X678468Y131010D01*
X679277D01*
X679421Y131069D01*
X679789Y130915D01*
X680593Y130229D01*
Y129771D01*
X680902Y129024D01*
X681474Y128452D01*
X682221Y128143D01*
X683029D01*
X683776Y128452D01*
X684348Y129024D01*
X684657Y129771D01*
Y130579D01*
X684348Y131326D01*
X683776Y131898D01*
X683029Y132207D01*
X682221D01*
X682076Y132147D01*
X681708Y132301D01*
X680904Y132987D01*
Y133446D01*
X680595Y134192D01*
X680024Y134764D01*
X679277Y135073D01*
D02*
G37*
G36*
X739025Y127127D02*
X738217D01*
X737470Y126818D01*
X736898Y126246D01*
X736589Y125499D01*
Y124691D01*
X736898Y123944D01*
X737470Y123372D01*
X738217Y123063D01*
X739025D01*
X739772Y123372D01*
X740344Y123944D01*
X740653Y124691D01*
Y125499D01*
X740344Y126246D01*
X739772Y126818D01*
X739025Y127127D01*
D02*
G37*
G36*
X714779Y121665D02*
X713971D01*
X713224Y121356D01*
X712652Y120784D01*
X712343Y120038D01*
Y119229D01*
X712652Y118482D01*
X713224Y117911D01*
X713971Y117601D01*
X714779D01*
X715526Y117911D01*
X716098Y118482D01*
X716407Y119229D01*
Y120038D01*
X716098Y120784D01*
X715526Y121356D01*
X714779Y121665D01*
D02*
G37*
G36*
X726484Y115950D02*
X725676D01*
X724929Y115641D01*
X724357Y115069D01*
X724048Y114323D01*
Y113514D01*
X724357Y112767D01*
X724929Y112196D01*
X725676Y111886D01*
X726484D01*
X727231Y112196D01*
X727803Y112767D01*
X728112Y113514D01*
Y114323D01*
X727803Y115069D01*
X727231Y115641D01*
X726484Y115950D01*
D02*
G37*
G36*
X714779Y103174D02*
X713971D01*
X713224Y102864D01*
X712652Y102293D01*
X712343Y101546D01*
Y100737D01*
X712652Y99991D01*
X713224Y99419D01*
X713971Y99110D01*
X714779D01*
X715526Y99419D01*
X716098Y99991D01*
X716407Y100737D01*
Y101546D01*
X716098Y102293D01*
X715526Y102864D01*
X714779Y103174D01*
D02*
G37*
G36*
Y94742D02*
X713971D01*
X713224Y94433D01*
X712652Y93861D01*
X712343Y93114D01*
Y92306D01*
X712652Y91559D01*
X713224Y90987D01*
X713971Y90678D01*
X714779D01*
X715526Y90987D01*
X716098Y91559D01*
X716407Y92306D01*
Y93114D01*
X716098Y93861D01*
X715526Y94433D01*
X714779Y94742D01*
D02*
G37*
G36*
X726844Y65839D02*
X726036D01*
X725289Y65529D01*
X724717Y64958D01*
X724408Y64211D01*
Y63403D01*
X724717Y62656D01*
X725289Y62084D01*
X726036Y61775D01*
X726844D01*
X727591Y62084D01*
X728163Y62656D01*
X728472Y63403D01*
Y64211D01*
X728163Y64958D01*
X727591Y65529D01*
X726844Y65839D01*
D02*
G37*
G36*
X657629Y50546D02*
X656821D01*
X656074Y50237D01*
X655502Y49665D01*
X655193Y48918D01*
Y48110D01*
X655502Y47363D01*
X656074Y46791D01*
X656821Y46482D01*
X657629D01*
X658376Y46791D01*
X658948Y47363D01*
X659257Y48110D01*
Y48918D01*
X658948Y49665D01*
X658376Y50237D01*
X657629Y50546D01*
D02*
G37*
G36*
X721129Y38900D02*
X720321D01*
X719574Y38591D01*
X719002Y38019D01*
X718693Y37272D01*
Y36464D01*
X719002Y35717D01*
X719574Y35145D01*
X720321Y34836D01*
X721129D01*
X721876Y35145D01*
X722448Y35717D01*
X722757Y36464D01*
Y37272D01*
X722448Y38019D01*
X721876Y38591D01*
X721129Y38900D01*
D02*
G37*
G36*
Y24090D02*
X720321D01*
X719574Y23781D01*
X719002Y23209D01*
X718693Y22462D01*
Y21654D01*
X719002Y20907D01*
X719574Y20335D01*
X720321Y20026D01*
X721129D01*
X721876Y20335D01*
X722448Y20907D01*
X722757Y21654D01*
Y22462D01*
X722448Y23209D01*
X721876Y23781D01*
X721129Y24090D01*
D02*
G37*
G36*
X2974282Y23156D02*
X2970712D01*
X2973012D01*
X2972960Y23015D01*
X2972898Y22882D01*
X2972748Y22636D01*
X2972589Y22415D01*
X2972422Y22221D01*
X2972343Y22133D01*
X2972272Y22063D01*
X2972210Y21992D01*
X2972149Y21939D01*
X2972104Y21895D01*
X2972069Y21869D01*
X2972043Y21851D01*
X2972034Y21843D01*
X2971770Y21648D01*
X2971523Y21490D01*
X2971302Y21358D01*
X2971109Y21261D01*
X2971021Y21217D01*
X2970941Y21181D01*
X2970880Y21155D01*
X2970818Y21128D01*
X2970774Y21111D01*
X2970739Y21102D01*
X2970721Y21093D01*
X2970712D01*
Y14994D01*
Y19674D01*
X2970923Y19754D01*
X2971126Y19833D01*
X2971329Y19921D01*
X2971514Y20018D01*
X2971690Y20115D01*
X2971858Y20212D01*
X2972008Y20309D01*
X2972149Y20406D01*
X2972281Y20494D01*
X2972387Y20582D01*
X2972492Y20661D01*
X2972572Y20723D01*
X2972633Y20776D01*
X2972686Y20820D01*
X2972713Y20847D01*
X2972722Y20855D01*
Y14994D01*
X2974282D01*
Y23156D01*
D02*
G37*
G36*
X2981888D02*
X2976609D01*
X2979244D01*
X2979032Y23147D01*
X2978830Y23121D01*
X2978636Y23076D01*
X2978459Y23024D01*
X2978292Y22962D01*
X2978142Y22891D01*
X2978001Y22812D01*
X2977878Y22741D01*
X2977772Y22662D01*
X2977675Y22583D01*
X2977596Y22512D01*
X2977525Y22451D01*
X2977472Y22398D01*
X2977437Y22354D01*
X2977411Y22327D01*
X2977402Y22318D01*
X2977261Y22116D01*
X2977137Y21886D01*
X2977032Y21640D01*
X2976943Y21375D01*
X2976864Y21102D01*
X2976802Y20829D01*
X2976750Y20556D01*
X2976706Y20282D01*
X2976679Y20027D01*
X2976653Y19789D01*
X2976635Y19577D01*
X2976617Y19383D01*
Y19304D01*
Y19234D01*
X2976609Y19172D01*
Y19013D01*
X2976617Y18590D01*
X2976644Y18202D01*
X2976679Y17841D01*
X2976723Y17515D01*
X2976776Y17215D01*
X2976838Y16951D01*
X2976899Y16713D01*
X2976970Y16501D01*
X2977040Y16325D01*
X2977102Y16166D01*
X2977164Y16034D01*
X2977217Y15928D01*
X2977261Y15849D01*
X2977305Y15796D01*
X2977322Y15761D01*
X2977331Y15752D01*
X2977472Y15594D01*
X2977622Y15452D01*
X2977781Y15329D01*
X2977939Y15223D01*
X2978098Y15144D01*
X2978257Y15065D01*
X2978406Y15003D01*
X2978556Y14959D01*
X2978698Y14924D01*
X2978830Y14888D01*
X2978944Y14871D01*
X2979050Y14862D01*
X2979129Y14853D01*
X2979191Y14844D01*
X2979244D01*
X2979455Y14853D01*
X2979658Y14879D01*
X2979852Y14924D01*
X2980028Y14977D01*
X2980196Y15038D01*
X2980345Y15109D01*
X2980486Y15179D01*
X2980610Y15259D01*
X2980716Y15338D01*
X2980813Y15408D01*
X2980901Y15479D01*
X2980963Y15541D01*
X2981015Y15594D01*
X2981060Y15638D01*
X2981077Y15664D01*
X2981086Y15673D01*
X2981227Y15876D01*
X2981350Y16105D01*
X2981456Y16360D01*
X2981553Y16616D01*
X2981624Y16889D01*
X2981694Y17171D01*
X2981747Y17444D01*
X2981791Y17718D01*
X2981818Y17973D01*
X2981844Y18211D01*
X2981862Y18432D01*
X2981879Y18617D01*
Y18705D01*
Y18775D01*
X2981888Y18837D01*
Y18996D01*
X2981879Y19410D01*
X2981853Y19798D01*
X2981818Y20159D01*
X2981765Y20485D01*
X2981703Y20785D01*
X2981641Y21058D01*
X2981562Y21305D01*
X2981491Y21516D01*
X2981421Y21710D01*
X2981350Y21869D01*
X2981280Y22010D01*
X2981218Y22116D01*
X2981165Y22204D01*
X2981130Y22266D01*
X2981104Y22301D01*
X2981095Y22310D01*
X2980963Y22459D01*
X2980822Y22592D01*
X2980672Y22706D01*
X2980522Y22803D01*
X2980372Y22882D01*
X2980213Y22953D01*
X2980063Y23006D01*
X2979922Y23050D01*
X2979781Y23085D01*
X2979649Y23112D01*
X2979535Y23129D01*
X2979438Y23147D01*
X2979359D01*
X2979297Y23156D01*
X2981888D01*
D02*
G37*
G36*
X2979191Y14844D02*
X2976609D01*
X2979191D01*
D01*
D02*
G37*
%LPD*%
G36*
X2979350Y21851D02*
X2979438Y21834D01*
X2979526Y21798D01*
X2979605Y21772D01*
X2979658Y21737D01*
X2979711Y21701D01*
X2979738Y21684D01*
X2979746Y21675D01*
X2979825Y21596D01*
X2979896Y21490D01*
X2979958Y21375D01*
X2980011Y21252D01*
X2980055Y21137D01*
X2980081Y21049D01*
X2980090Y21014D01*
X2980099Y20988D01*
X2980108Y20970D01*
Y20961D01*
X2980134Y20847D01*
X2980161Y20723D01*
X2980178Y20582D01*
X2980196Y20423D01*
X2980222Y20106D01*
X2980240Y19780D01*
X2980249Y19621D01*
Y19480D01*
X2980257Y19339D01*
Y19225D01*
Y19128D01*
Y19057D01*
Y19013D01*
Y18996D01*
Y18740D01*
X2980249Y18493D01*
X2980240Y18273D01*
X2980231Y18070D01*
X2980222Y17885D01*
X2980204Y17718D01*
X2980187Y17568D01*
X2980178Y17436D01*
X2980161Y17321D01*
X2980143Y17224D01*
X2980125Y17145D01*
X2980116Y17074D01*
X2980108Y17021D01*
X2980099Y16986D01*
X2980090Y16968D01*
Y16960D01*
X2980037Y16801D01*
X2979984Y16660D01*
X2979931Y16554D01*
X2979870Y16466D01*
X2979825Y16395D01*
X2979781Y16351D01*
X2979755Y16325D01*
X2979746Y16316D01*
X2979658Y16255D01*
X2979579Y16210D01*
X2979491Y16184D01*
X2979411Y16166D01*
X2979341Y16149D01*
X2979288Y16140D01*
X2979244D01*
X2979138Y16149D01*
X2979050Y16166D01*
X2978962Y16193D01*
X2978891Y16228D01*
X2978830Y16263D01*
X2978777Y16290D01*
X2978750Y16307D01*
X2978741Y16316D01*
X2978662Y16395D01*
X2978592Y16501D01*
X2978530Y16616D01*
X2978477Y16739D01*
X2978433Y16845D01*
X2978406Y16933D01*
X2978398Y16968D01*
X2978389Y16995D01*
X2978380Y17012D01*
Y17021D01*
X2978354Y17136D01*
X2978336Y17259D01*
X2978318Y17400D01*
X2978301Y17559D01*
X2978274Y17885D01*
X2978257Y18211D01*
X2978248Y18370D01*
Y18511D01*
Y18643D01*
X2978239Y18766D01*
Y18863D01*
Y18934D01*
Y18978D01*
Y18996D01*
Y19251D01*
X2978248Y19489D01*
X2978257Y19718D01*
X2978265Y19912D01*
X2978274Y20097D01*
X2978292Y20265D01*
X2978301Y20415D01*
X2978318Y20547D01*
X2978336Y20661D01*
X2978345Y20767D01*
X2978362Y20847D01*
X2978371Y20917D01*
X2978380Y20970D01*
X2978389Y21005D01*
X2978398Y21023D01*
Y21032D01*
X2978451Y21190D01*
X2978503Y21331D01*
X2978565Y21437D01*
X2978618Y21525D01*
X2978662Y21596D01*
X2978706Y21640D01*
X2978733Y21666D01*
X2978741Y21675D01*
X2978830Y21737D01*
X2978909Y21781D01*
X2978997Y21816D01*
X2979077Y21834D01*
X2979147Y21851D01*
X2979200Y21860D01*
X2979244D01*
X2979350Y21851D01*
D02*
G37*
D10*
X1146906Y592225D02*
X1150818D01*
X1142210Y596921D02*
X1146906Y592225D01*
X1089790Y596921D02*
X1142210D01*
X990056Y592225D02*
X1012130D01*
X1013841Y593971D02*
X1015608Y595738D01*
X1012130Y592225D02*
X1013841Y593936D01*
Y593971D01*
X1088607Y595738D02*
X1089790Y596921D01*
X1015608Y595738D02*
X1088607D01*
X1150818Y592225D02*
X1179043Y564000D01*
X1020666Y589958D02*
X1141328D01*
X1013638Y582930D02*
X1020666Y589958D01*
X854710Y582930D02*
X1013638D01*
X843280Y571500D02*
X854710Y582930D01*
X445770Y571500D02*
X843280D01*
X1141328Y589958D02*
X1144143Y587143D01*
X1153026D01*
X984250Y610870D02*
X994041Y601079D01*
X1147711D01*
X992885Y599047D02*
X1146869D01*
X987288Y593450D02*
X992885Y599047D01*
X1146869D02*
X1178655Y567262D01*
X1178560Y570230D02*
X1207230D01*
X1147711Y601079D02*
X1178560Y570230D01*
X788457Y595738D02*
X854602D01*
X863981Y586359D01*
X984190D01*
X990056Y592225D01*
X771559Y578840D02*
X788457Y595738D01*
X492487Y578840D02*
X771559D01*
X484863Y586463D02*
X492487Y578840D01*
X1153026Y587143D02*
X1181369Y558800D01*
X1195800D01*
X1201000Y564000D01*
X1179043Y564000D02*
X1181000D01*
X870860Y593450D02*
X987288D01*
X994896Y612924D02*
X1004570Y603250D01*
X1016337D01*
X1021389Y608302D01*
X855472Y608838D02*
X870860Y593450D01*
X680212Y608838D02*
X855472D01*
X519439Y645391D02*
X643659D01*
X680212Y608838D01*
X510317Y636270D02*
X519439Y645391D01*
X1204388Y567262D02*
X1211000Y560650D01*
X1178655Y567262D02*
X1204388D01*
X1211000Y554000D02*
Y560650D01*
X1174750Y587750D02*
Y594381D01*
X1171000Y584000D02*
X1174750Y587750D01*
X1168079Y601052D02*
X1174750Y594381D01*
X1160828Y608302D02*
X1160967Y608163D01*
X1160967D01*
X1168079Y601052D01*
X1021389Y608302D02*
X1160828D01*
X1184960Y580040D02*
X1191000Y574000D01*
X1184960Y580040D02*
Y595746D01*
X1160665Y628466D02*
X1188079Y601052D01*
Y582301D02*
Y601052D01*
X1117600Y618490D02*
X1162216D01*
X1184960Y595746D01*
X1196380Y574000D02*
X1201000D01*
X1188079Y582301D02*
X1196380Y574000D01*
X1052967Y628466D02*
X1160665D01*
X494030Y643890D02*
X503151Y653011D01*
X293370Y666750D02*
X316230Y643890D01*
X494030D01*
X503151Y653011D02*
X651279D01*
X679450Y624840D01*
X851599D01*
X865569Y610870D01*
X984250D01*
X859790Y631190D02*
X878056Y612924D01*
X655089Y660631D02*
X684530Y631190D01*
X859790D01*
X878056Y612924D02*
X994896D01*
X1111250Y612140D02*
X1117600Y618490D01*
X1023620Y612140D02*
X1111250D01*
X1018095Y617664D02*
X1023620Y612140D01*
X1033780Y628650D02*
X1035852Y626578D01*
X1051079D01*
X1052967Y628466D01*
X1162050Y638810D02*
X1196340Y604520D01*
Y589340D02*
Y604520D01*
X1047750Y638810D02*
X1162050D01*
X1041400Y645160D02*
X1047750Y638810D01*
X499975Y660631D02*
X655089D01*
X700345Y640775D02*
X983555D01*
X663520Y677600D02*
X700345Y640775D01*
X755650Y645160D02*
X1041400D01*
X692106Y708704D02*
X755650Y645160D01*
X690261Y636889D02*
X960771D01*
X979995Y617664D01*
X1018095D01*
X983555Y640775D02*
X995680Y628650D01*
X1033780D01*
X1191000Y584000D02*
X1196340Y589340D01*
X488313Y648970D02*
X499975Y660631D01*
X321796Y648970D02*
X488313D01*
X311327Y659438D02*
X321796Y648970D01*
X311327Y659438D02*
Y666907D01*
X294920Y683314D02*
X311327Y666907D01*
X294920Y683314D02*
Y687070D01*
X293370Y666750D02*
Y681990D01*
X289920Y685440D02*
X293370Y681990D01*
X289560Y660400D02*
Y682430D01*
Y660400D02*
X313690Y636270D01*
X284920Y687070D02*
X289560Y682430D01*
X313690Y636270D02*
X510317D01*
X289920Y685440D02*
Y687070D01*
X629718Y669045D02*
X658105D01*
X626815D02*
X626846Y669013D01*
X629687D01*
X629718Y669045D01*
X658105D02*
X690261Y636889D01*
X614478Y669045D02*
X626815D01*
X581126Y669013D02*
X614447D01*
X614478Y669045D01*
X581095D02*
X581126Y669013D01*
X468385Y669045D02*
X581095D01*
X331251Y772873D02*
X372604Y731520D01*
X316546Y772873D02*
X331251D01*
X298548Y790871D02*
X316546Y772873D01*
X284995Y790871D02*
X298548D01*
X372604Y731520D02*
X405910D01*
X468385Y669045D01*
X414020Y736600D02*
X473019Y677600D01*
X663520D01*
X435607Y774494D02*
X482010Y728091D01*
X371045Y774494D02*
X435607D01*
X1207230Y570230D02*
X1211000Y574000D01*
X347120Y798420D02*
X371045Y774494D01*
X295848Y798420D02*
X347120D01*
X294856Y799412D02*
X295848Y798420D01*
X482010Y728091D02*
X567630D01*
X587017Y708704D02*
X692106D01*
X567630Y728091D02*
X587017Y708704D01*
X674370Y369570D02*
X683260Y378460D01*
X693420D01*
X528320Y382270D02*
X701040D01*
X506139Y360089D02*
X528320Y382270D01*
X703997Y392013D02*
X708660Y387350D01*
X510123Y392013D02*
X703997D01*
X500380Y382270D02*
X510123Y392013D01*
X350520Y382270D02*
X500380D01*
X325120Y356870D02*
X350520Y382270D01*
X516890Y387350D02*
X693420D01*
X492760Y363220D02*
X516890Y387350D01*
X341630Y363220D02*
X492760D01*
X346212Y360089D02*
X506139D01*
X331884Y345760D02*
X346212Y360089D01*
X577850Y369570D02*
X674370D01*
X570230Y377190D02*
X577850Y369570D01*
X536667Y377190D02*
X570230D01*
X515839Y356362D02*
X536667Y377190D01*
X353822Y356362D02*
X515839D01*
X341262Y343802D02*
X353822Y356362D01*
X336540Y343802D02*
X341262D01*
X540639Y372999D02*
X565531D01*
X534358Y352748D02*
Y366718D01*
X540639Y372999D01*
X364545Y344551D02*
X526161D01*
X534358Y352748D01*
X679450Y363220D02*
X689610Y373380D01*
X575310Y363220D02*
X679450D01*
X565531Y372999D02*
X575310Y363220D01*
X329711Y343802D02*
X332817Y340696D01*
X360691D01*
X364545Y344551D01*
X321540Y343802D02*
X329711D01*
X681101Y357251D02*
X694690Y370840D01*
X520700Y331470D02*
X546481Y357251D01*
X681101D01*
X430863Y331470D02*
X520700D01*
X305875Y337010D02*
X425323D01*
X430863Y331470D01*
X614680Y342900D02*
X633730Y323850D01*
X521081Y320421D02*
X543560Y342900D01*
X614680D01*
X433599Y320421D02*
X521081D01*
X283210Y337820D02*
X304079Y316951D01*
X430129D01*
X283210Y337820D02*
Y382270D01*
X430129Y316951D02*
X433599Y320421D01*
X886460Y459740D02*
X894080Y467360D01*
X847090Y425450D02*
X881380Y459740D01*
X886460D01*
X894080Y467360D02*
Y472761D01*
X938209Y516890D02*
X948690D01*
X894080Y472761D02*
X938209Y516890D01*
X948690D02*
X1001141Y569341D01*
X835094Y425450D02*
X847090D01*
X1019175Y567690D02*
X1022096Y570611D01*
X1007678Y569341D02*
X1009329Y567690D01*
X1019175D01*
X1001141Y569341D02*
X1007678D01*
X1125133Y580477D02*
X1127477Y578133D01*
X1101608Y580477D02*
X1125133D01*
X1091742Y570611D02*
X1101608Y580477D01*
X1127477Y570477D02*
Y578133D01*
X1022096Y570611D02*
X1091742D01*
X1111000Y554000D02*
X1127477Y570477D01*
X751717Y342073D02*
X835094Y425450D01*
X1063105Y564769D02*
X1066795Y561079D01*
X1031300Y564769D02*
X1063105D01*
X1028875Y567194D02*
X1031300Y564769D01*
X1066795Y561079D02*
X1093079D01*
X1110445Y578445D01*
X1122841D01*
X1021854Y567194D02*
X1028875D01*
X1017143Y562483D02*
X1021854Y567194D01*
X1122841Y578445D02*
X1125445Y575841D01*
X1121365Y568079D02*
X1125445Y572159D01*
Y575841D01*
X1115079Y568079D02*
X1121365D01*
X1111000Y564000D02*
X1115079Y568079D01*
X997772Y562483D02*
X1017143D01*
X912876Y477587D02*
X997772Y562483D01*
X912876Y474405D02*
Y477587D01*
X857220Y418749D02*
X912876Y474405D01*
X756040Y335670D02*
X839119Y418749D01*
X857220D01*
X1062390Y562610D02*
X1064549Y560451D01*
X1032516Y562616D02*
X1041394D01*
X1041400Y562610D01*
X1030351Y560451D02*
X1032516Y562616D01*
X1041400Y562610D02*
X1062390D01*
X1064549Y560451D02*
X1064549D01*
X1071000Y554000D01*
X1004657Y560451D02*
X1030351D01*
X817586Y373380D02*
X1004657Y560451D01*
X801370Y373380D02*
X817586D01*
X756285Y328295D02*
X801370Y373380D01*
X710012Y342073D02*
X751717D01*
X693945Y326006D02*
X710012Y342073D01*
X693945Y322734D02*
Y326006D01*
X683438Y312227D02*
X693945Y322734D01*
X631311Y312227D02*
X683438D01*
X609405Y290321D02*
X631311Y312227D01*
X582167Y290321D02*
X609405D01*
X729096Y335670D02*
X756040D01*
X723880Y330454D02*
X729096Y335670D01*
X674430Y299974D02*
X704910Y330454D01*
X723880D01*
X655830Y299974D02*
X674430D01*
X650115Y294259D02*
X655830Y299974D01*
X638108Y294259D02*
X650115D01*
X633409Y289560D02*
X638108Y294259D01*
X612775Y289560D02*
X633409D01*
X655982Y297072D02*
X680112D01*
X649740Y290830D02*
X655982Y297072D01*
X680112D02*
X711335Y328295D01*
X756285D01*
X638810Y290830D02*
X649740D01*
X985520Y720090D02*
X989330Y716280D01*
X913130Y720090D02*
X985520D01*
X902589Y709549D02*
X913130Y720090D01*
X783209Y709549D02*
X902589D01*
X750570Y676910D02*
X783209Y709549D01*
X797560Y703580D02*
X824230D01*
X826770Y701040D02*
X985824D01*
X824230Y703580D02*
X826770Y701040D01*
X997254Y712470D02*
X1012190D01*
X985824Y701040D02*
X997254Y712470D01*
X770890Y676910D02*
X797560Y703580D01*
X824230Y688340D02*
X1056660D01*
X812800Y676910D02*
X824230Y688340D01*
X1056660D02*
X1061000Y684000D01*
X293370Y805180D02*
X346710D01*
X281940Y684530D02*
Y793750D01*
X293370Y805180D01*
X277859Y796019D02*
X307340Y825500D01*
X277859Y787610D02*
Y796019D01*
X277118Y501908D02*
Y786869D01*
X277859Y787610D01*
X307340Y825500D02*
X340360D01*
X281940Y684530D02*
X284480Y681990D01*
Y662940D02*
Y681990D01*
X279654Y658114D02*
X284480Y662940D01*
X279654Y385826D02*
Y658114D01*
X1870710Y284480D02*
X1878330Y276860D01*
X1870710Y284480D02*
Y300990D01*
X1915795Y281305D02*
X1950720Y316230D01*
X1883410Y281305D02*
X1915795D01*
X1919554Y276860D02*
X1954530Y311836D01*
X1878330Y276860D02*
X1919554D01*
X1861820Y271780D02*
X1938020D01*
X1953260Y287020D01*
X1852930Y256540D02*
Y273050D01*
X1858010Y265430D02*
X2039700D01*
X2065020Y290750D01*
X1832610Y264160D02*
X1883490Y213280D01*
X2072720D01*
X1852930Y256540D02*
X1883844Y225627D01*
X1985010Y339090D02*
X2009140Y363220D01*
X2065020D01*
X1960880Y339090D02*
X1985010D01*
X1913890Y292100D02*
X1960880Y339090D01*
X1885950Y292100D02*
X1913890D01*
X1950720Y316230D02*
X2018440D01*
X2059080Y356870D01*
X1954530Y311836D02*
X2026336D01*
X2065020Y350520D01*
X1998980Y295910D02*
X2065020D01*
X1990090Y287020D02*
X1998980Y295910D01*
X1953260Y287020D02*
X1990090D01*
X2042160Y260350D02*
X2065020Y283210D01*
X1866900Y260350D02*
X2042160D01*
X1866900Y254000D02*
X2040970D01*
X2065020Y278050D01*
X1883844Y225627D02*
X2036090D01*
X2038174Y227711D01*
X2066230D01*
X2067961Y225980D01*
X2072720D01*
X1255130Y674000D02*
X1272209Y656921D01*
X1272210D02*
X1273921Y655210D01*
Y655209D02*
Y655210D01*
X1241000Y674000D02*
X1255130D01*
X1283921Y606030D02*
Y645209D01*
X1273921Y655209D02*
X1283921Y645209D01*
X1272209Y656921D02*
X1272210D01*
X1281430Y603540D02*
X1283921Y606030D01*
X1281430Y594360D02*
Y603540D01*
X1391920Y863095D02*
Y929640D01*
X1343660Y814835D02*
X1391920Y863095D01*
X1343660Y756920D02*
Y814835D01*
X1303921Y717181D02*
X1343660Y756920D01*
X1303921Y709916D02*
Y717181D01*
X1291228Y697223D02*
X1303921Y709916D01*
X1287937Y697223D02*
X1291228D01*
X1279054Y688340D02*
X1287937Y697223D01*
X1240790Y688340D02*
X1279054D01*
X1203529Y651079D02*
X1240790Y688340D01*
X1198512Y651079D02*
X1203529D01*
X1181000Y664000D02*
X1185591D01*
X1198512Y651079D01*
X1352169Y962660D02*
X1356360Y958469D01*
X1329690Y962660D02*
X1352169D01*
X1277620Y910590D02*
X1329690Y962660D01*
X1330960Y955040D02*
X1339850D01*
X1286510Y910590D02*
X1330960Y955040D01*
X1333500Y948690D02*
X1353820D01*
X1295400Y910590D02*
X1333500Y948690D01*
X1336040Y942340D02*
X1352550D01*
X1306703Y913003D02*
X1336040Y942340D01*
X1337310Y935990D02*
X1343660D01*
X1322197Y920877D02*
X1337310Y935990D01*
X1333881Y916051D02*
X1350391D01*
X1357630Y923290D01*
X1343262Y913130D02*
X1353820D01*
X1329690Y863921D02*
Y899558D01*
X1330960Y814070D02*
Y862651D01*
X1329690Y863921D02*
X1330960Y862651D01*
X1329690Y899558D02*
X1343262Y913130D01*
X1319530Y802640D02*
X1330960Y814070D01*
X1319530Y738816D02*
Y802640D01*
X1226671Y686921D02*
X1235561D01*
X1239719Y691079D01*
X1277819D01*
X1215770Y670940D02*
Y676021D01*
X1226671Y686921D01*
X1203960Y659130D02*
X1215770Y670940D01*
X1191000Y665740D02*
X1197610Y659130D01*
X1203960D01*
X1191000Y665740D02*
Y674000D01*
X1287819Y701079D02*
X1292210D01*
X1277819Y691079D02*
X1287819Y701079D01*
X1298079Y717365D02*
X1319530Y738816D01*
X1298079Y706948D02*
Y717365D01*
X1292210Y701079D02*
X1298079Y706948D01*
X1314450Y737572D02*
Y836930D01*
X1287272Y710394D02*
X1314450Y737572D01*
X1287272Y705612D02*
Y710394D01*
X1231369Y698500D02*
X1280160D01*
X1287272Y705612D01*
X1305953Y731948D02*
Y836668D01*
X1322197Y852912D01*
X1293052Y719047D02*
X1305953Y731948D01*
X1223948Y701079D02*
X1272579D01*
X1290547Y719047D01*
X1293052D01*
X1303921Y732790D02*
Y736684D01*
X1288316Y721079D02*
X1292210D01*
X1303921Y732790D01*
X1221529Y708660D02*
X1275897D01*
X1288316Y721079D01*
X1298079Y742526D02*
X1303921Y736684D01*
X1324229Y906399D02*
X1333881Y916051D01*
X1324229Y846709D02*
Y906399D01*
X1314450Y836930D02*
X1324229Y846709D01*
X1208079Y675210D02*
X1231369Y698500D01*
X1208079Y671079D02*
Y675210D01*
X1201000Y664000D02*
X1208079Y671079D01*
X1295400Y734060D02*
Y910590D01*
X1248681Y717550D02*
X1278890D01*
X1295400Y734060D01*
X1286510D02*
Y910590D01*
X1242210Y721079D02*
X1273529D01*
X1286510Y734060D01*
X1208079Y685210D02*
X1223948Y701079D01*
X1212342Y710692D02*
X1241823D01*
X1201000Y699350D02*
X1212342Y710692D01*
X1201000Y694000D02*
Y699350D01*
X1241823Y710692D02*
X1243921Y712790D01*
X1205804Y692934D02*
X1221529Y708660D01*
X1243921Y712790D02*
Y712790D01*
X1248681Y717550D01*
X1214523Y717523D02*
X1238654D01*
X1201000Y704000D02*
X1214523Y717523D01*
X1238654D02*
X1242210Y721079D01*
X1236316Y721873D02*
Y724506D01*
X1238731Y726921D02*
X1271751D01*
X1236316Y724506D02*
X1238731Y726921D01*
X1233998Y719555D02*
X1236316Y721873D01*
X1206555Y719555D02*
X1233998D01*
X1201000Y714000D02*
X1206555Y719555D01*
X1277620Y732790D02*
Y910590D01*
X1271751Y726921D02*
X1277620Y732790D01*
X1322197Y852912D02*
Y920877D01*
X1208079Y681079D02*
Y685210D01*
X1201000Y674000D02*
X1208079Y681079D01*
X1298079Y831668D02*
X1306703Y840292D01*
X1298079Y742526D02*
Y831668D01*
X1306703Y840292D02*
Y913003D01*
X1201000Y684000D02*
X1205804Y688804D01*
Y692934D01*
X763661Y288591D02*
X807142Y245110D01*
X855031D02*
X873760Y226381D01*
X807142Y245110D02*
X855031D01*
X808990Y250190D02*
X815340D01*
X756920Y302260D02*
X808990Y250190D01*
X804666Y241300D02*
X848360D01*
X756928Y289928D02*
Y290822D01*
Y289928D02*
X759216Y287640D01*
Y286750D02*
X804666Y241300D01*
X759216Y286750D02*
Y287640D01*
X745490Y288290D02*
Y300990D01*
Y288290D02*
X796290Y237490D01*
X845820D01*
X728980Y300990D02*
X797560Y232410D01*
X845145D01*
X666247Y801624D02*
X677423Y812800D01*
X677423D01*
X369316Y801624D02*
X666247D01*
X366268Y799592D02*
X675132D01*
X703580Y828040D01*
X684530Y797560D02*
X715010Y828040D01*
X354330Y797560D02*
X684530D01*
X346710Y805180D02*
X354330Y797560D01*
X340360Y825500D02*
X366268Y799592D01*
X342900Y828040D02*
X369316Y801624D01*
X303530Y828040D02*
X342900D01*
X298450Y831850D02*
X350520D01*
X377190Y805180D02*
X659130D01*
X350520Y831850D02*
X377190Y805180D01*
X271399Y795909D02*
X303530Y828040D01*
X271399Y758566D02*
Y795909D01*
X269240Y759460D02*
Y802640D01*
X298450Y831850D01*
X677423Y812800D02*
X695579Y830956D01*
X266573Y304927D02*
X287954Y283546D01*
X373044D01*
X266573Y304927D02*
Y482727D01*
X274574Y499364D02*
X277118Y501908D01*
X274574Y321056D02*
Y499364D01*
X279654Y385826D02*
X283210Y382270D01*
X715010Y828040D02*
Y840740D01*
X703580Y828040D02*
Y844550D01*
X659130Y805180D02*
X680720Y826770D01*
X274574Y321056D02*
X288791Y306839D01*
X398279D01*
X255270Y494030D02*
Y745490D01*
Y494030D02*
X266573Y482727D01*
X260608Y505716D02*
X268732Y497591D01*
X260608Y505716D02*
Y652717D01*
Y684593D02*
X263271Y681930D01*
X260608Y684593D02*
Y704892D01*
Y652717D02*
X263271Y655380D01*
Y681930D01*
X260608Y704892D02*
X264876Y709160D01*
Y752043D01*
X271399Y758566D01*
X268732Y317500D02*
Y497591D01*
Y317500D02*
X287782Y298450D01*
X400939Y309499D02*
X520319D01*
X398279Y306839D02*
X400939Y309499D01*
X520319D02*
X547370Y336550D01*
X255270Y745490D02*
X269240Y759460D01*
X547370Y336550D02*
X604456D01*
X619696Y321310D01*
X626110D01*
X549127Y315446D02*
X577890D01*
X533019Y299339D02*
X549127Y315446D01*
X577890D02*
X588198Y325755D01*
X469519Y299339D02*
X533019D01*
X287782Y298450D02*
X369570D01*
X375031Y292989D01*
X463169D01*
X680720Y826770D02*
Y838200D01*
X695579Y830956D02*
Y849249D01*
X695960Y849630D01*
X463169Y292989D02*
X469519Y299339D01*
X588198Y325755D02*
X608965D01*
X613410Y321310D01*
X295402Y260350D02*
X303911Y251841D01*
X240030Y260350D02*
X295402D01*
X303911Y251841D02*
X416292D01*
X223520Y276860D02*
X240030Y260350D01*
X377382Y279208D02*
X528842D01*
X373044Y283546D02*
X377382Y279208D01*
X531692Y282058D02*
X562728D01*
X528842Y279208D02*
X531692Y282058D01*
X562728D02*
X601980Y321310D01*
X835731Y248920D02*
X845820D01*
X786059Y298591D02*
X835731Y248920D01*
X791718Y286512D02*
X825500Y252730D01*
X785740Y286512D02*
X791718D01*
X763661Y308591D02*
X785740Y286512D01*
X798830Y224790D02*
X838200D01*
X740029Y283591D02*
X798830Y224790D01*
X728059Y283591D02*
X740029D01*
X223520Y509270D02*
X236220Y521970D01*
X223520Y276860D02*
Y509270D01*
X416292Y251841D02*
X420102Y255651D01*
X693801D01*
X709930Y271780D01*
Y294322D01*
X705661Y298591D02*
X709930Y294322D01*
X1547749Y138049D02*
Y310769D01*
X1563257Y326278D01*
X1528656Y118956D02*
X1547749Y138049D01*
X1395096Y118956D02*
X1528656D01*
X1294692Y116840D02*
X1303127Y125274D01*
X1388779D01*
X1395096Y118956D01*
X1303020Y110490D02*
X1308100Y115570D01*
X906780Y110490D02*
X1303020D01*
X908050Y116840D02*
X1294692D01*
X873760Y151130D02*
X908050Y116840D01*
X873760Y151130D02*
Y226381D01*
X869950Y147320D02*
X906780Y110490D01*
X869950Y147320D02*
Y219710D01*
X848360Y241300D02*
X869950Y219710D01*
X737889Y308591D02*
X745490Y300990D01*
X728059Y308591D02*
X737889D01*
X1230630Y105410D02*
X1301115Y34925D01*
X902970Y105410D02*
X1230630D01*
X862330Y146050D02*
X902970Y105410D01*
X1219200Y99060D02*
X1251335Y66925D01*
X900430Y99060D02*
X1219200D01*
X858646Y140844D02*
X900430Y99060D01*
X1251335Y34925D02*
Y66925D01*
X845820Y237490D02*
X862330Y220980D01*
Y146050D02*
Y220980D01*
X858646Y140844D02*
Y218910D01*
X845145Y232410D02*
X858646Y218910D01*
D12*
X1741660Y981220D02*
X1748155Y974725D01*
X1741660Y981220D02*
Y1035615D01*
X1066800Y935990D02*
X1104900Y974090D01*
X1066800Y867410D02*
Y935990D01*
X1038860Y890270D02*
X1043940Y895350D01*
Y963930D01*
X1023620Y924560D02*
Y1005840D01*
X995680Y896620D02*
X1023620Y924560D01*
X982980Y896620D02*
X995680D01*
X976630Y1007110D02*
X995680Y988060D01*
Y955040D02*
Y988060D01*
X963111Y922471D02*
X995680Y955040D01*
X945331Y922471D02*
X963111D01*
X941070Y918210D02*
X945331Y922471D01*
X948055Y1007110D02*
X976630D01*
X1043940Y963930D02*
X1054100Y974090D01*
X2174596Y323850D02*
X2203450D01*
X2147955Y350491D02*
X2174596Y323850D01*
D16*
X916940Y528320D02*
X967994Y579374D01*
X1016254D01*
X1023928Y587048D01*
X916940Y520700D02*
Y528320D01*
X1125220Y675320D02*
Y689780D01*
X1121000Y694000D02*
X1125220Y689780D01*
X1100653Y679428D02*
X1116428D01*
X1121000Y684000D01*
X1065310Y724000D02*
X1071000D01*
X1043820Y745490D02*
X1065310Y724000D01*
X1033018Y741172D02*
X1043940Y730250D01*
X766445Y745490D02*
X1043820D01*
X761365Y740410D02*
X766445Y745490D01*
X737870Y740410D02*
X761365D01*
X720090Y722630D02*
X737870Y740410D01*
X784606Y735076D02*
X790702Y741172D01*
X1033018D01*
X749046Y735076D02*
X784606D01*
X735330Y721360D02*
X749046Y735076D01*
X726440Y721360D02*
X735330D01*
X1081303Y688697D02*
X1091384D01*
X1072952Y697048D02*
X1081303Y688697D01*
X1091384D02*
X1100653Y679428D01*
X1068252Y697048D02*
X1072952D01*
X1036828Y728472D02*
X1068252Y697048D01*
X909828Y728472D02*
X1036828D01*
X899414Y738886D02*
X909828Y728472D01*
X783590Y726440D02*
X796036Y738886D01*
X899414D01*
X751840Y726440D02*
X783590D01*
X1102299Y670952D02*
X1120853D01*
X1125220Y675320D01*
X1034350Y725170D02*
X1080832Y678688D01*
X1094563D01*
X904240Y725170D02*
X1034350D01*
X1094563Y678688D02*
X1102299Y670952D01*
X892810Y736600D02*
X904240Y725170D01*
X802640Y736600D02*
X892810D01*
X773430Y707390D02*
X802640Y736600D01*
X734060Y707390D02*
X773430D01*
X796290Y676910D02*
Y680720D01*
X807720Y692150D01*
X949960Y661670D02*
X958089Y669799D01*
X981970D01*
X982988Y668782D01*
X1050092D01*
X1055311Y674000D01*
X1061000D01*
X949960Y651510D02*
Y661670D01*
X762000Y377190D02*
X810940Y426130D01*
X822370D02*
X916940Y520700D01*
X810940Y426130D02*
X822370D01*
X1023928Y587048D02*
X1107952D01*
X1111000Y584000D01*
X714240Y377190D02*
X762000D01*
X797903Y396240D02*
X874103Y472440D01*
X788720Y396240D02*
X797903D01*
X763550Y371070D02*
X788720Y396240D01*
X874103Y472440D02*
X886825D01*
X925451Y511065D01*
Y513988D02*
X946036Y534573D01*
Y550056D01*
X973068Y577088D01*
X1018032D01*
X1068476Y579120D02*
X1096120D01*
X1063396Y574040D02*
X1068476Y579120D01*
X1096120D02*
X1101000Y584000D01*
X1021080Y574040D02*
X1063396D01*
X1018032Y577088D02*
X1021080Y574040D01*
X925451Y511065D02*
Y513988D01*
X630236Y338774D02*
X675825D01*
X714240Y377190D01*
X695211Y340502D02*
Y353191D01*
X686179Y331470D02*
X695211Y340502D01*
X635000Y331470D02*
X686179D01*
X713090Y371070D02*
X763550D01*
X695211Y353191D02*
X713090Y371070D01*
X1007618Y714629D02*
X1008380Y715391D01*
X996360Y714629D02*
X1007618D01*
X994335Y712604D02*
X996360Y714629D01*
X971550Y707390D02*
X976764Y712604D01*
X994335D01*
X793750Y707390D02*
X971550D01*
X763270Y676910D02*
X793750Y707390D01*
X803819Y695960D02*
X993140D01*
X784860Y677001D02*
X803819Y695960D01*
X993140D02*
X1004570Y707390D01*
X807720Y692150D02*
X1059150D01*
X1061000Y694000D01*
X822686Y680446D02*
X1067691D01*
X819150Y676910D02*
X822686Y680446D01*
X825500Y676910D02*
X1048090D01*
X1051000Y674000D01*
X1067691Y680446D02*
X1071227Y683983D01*
X231140Y605790D02*
Y654050D01*
X199263Y685927D02*
X231140Y654050D01*
X199263Y685927D02*
Y760672D01*
X267970Y829379D01*
Y871220D01*
X222250Y586740D02*
Y650741D01*
X162560Y710431D02*
X222250Y650741D01*
X162560Y710431D02*
Y819150D01*
X200660Y857250D01*
X1004764Y554000D02*
X1051000D01*
X944118Y493354D02*
X1004764Y554000D01*
X1018130Y549000D02*
X1048929D01*
X963288Y494157D02*
X1018130Y549000D01*
X1022657Y538480D02*
X1065480D01*
X1071000Y544000D01*
X944118Y490228D02*
Y493354D01*
X907887Y453997D02*
X944118Y490228D01*
X902503Y453997D02*
X907887D01*
X786059Y348591D02*
X797097D01*
X902503Y453997D01*
X955167Y494157D02*
X963288D01*
X862330Y401320D02*
X955167Y494157D01*
X862330Y392430D02*
Y401320D01*
X820420Y350520D02*
X862330Y392430D01*
X802259Y350520D02*
X820420D01*
X795330Y343591D02*
X802259Y350520D01*
X786059Y343591D02*
X795330D01*
X855980Y381000D02*
X1018980Y544000D01*
X1051000D01*
X855980Y366530D02*
Y381000D01*
X822706Y340868D02*
X824357Y339217D01*
X828668D01*
X855980Y366530D01*
X793579Y340868D02*
X822706D01*
X791302Y338591D02*
X793579Y340868D01*
X786059Y338591D02*
X791302D01*
X964653Y471893D02*
Y480476D01*
X913769Y421009D02*
X964653Y471893D01*
X902339Y421009D02*
X913769D01*
X964653Y480476D02*
X1022657Y538480D01*
X866140Y384810D02*
X902339Y421009D01*
X866140Y365760D02*
Y384810D01*
X834390Y334010D02*
X866140Y365760D01*
X800100Y334010D02*
X834390D01*
X1358742Y825342D02*
X1405890Y872490D01*
X1358742Y768949D02*
Y825342D01*
X1317944Y728151D02*
X1358742Y768949D01*
X1317944Y684619D02*
Y728151D01*
Y684619D02*
X1328388Y674175D01*
Y631730D02*
Y674175D01*
Y631730D02*
X1332230Y627888D01*
Y614680D02*
Y627888D01*
X244693Y759043D02*
X247904D01*
X248487Y759626D01*
X229235Y743585D02*
X244693Y759043D01*
X203835Y720725D02*
X208280Y716280D01*
X232955D01*
X251624Y734949D01*
Y750039D01*
X261955Y760370D01*
X173101Y744909D02*
X191970Y763778D01*
X173101Y723900D02*
Y744909D01*
D18*
X991160Y841598D02*
D03*
X998598Y834160D02*
D03*
X1001320Y824000D02*
D03*
X998598Y813840D02*
D03*
X991160Y806402D02*
D03*
X981000Y803680D02*
D03*
X970840Y806402D02*
D03*
X963402Y813840D02*
D03*
X960680Y824000D02*
D03*
X963466Y834188D02*
D03*
X970840Y841598D02*
D03*
X981000Y844320D02*
D03*
X1391160Y441598D02*
D03*
X1398598Y434160D02*
D03*
X1401320Y424000D02*
D03*
X1398598Y413840D02*
D03*
X1391160Y406402D02*
D03*
X1381000Y403680D02*
D03*
X1370840Y406402D02*
D03*
X1363402Y413840D02*
D03*
X1360680Y424000D02*
D03*
X1363466Y434188D02*
D03*
X1370840Y441598D02*
D03*
X1381000Y444320D02*
D03*
D24*
X1099693Y1001903D02*
X1104900Y1007110D01*
X1099693Y994283D02*
Y1001903D01*
X1079500Y974090D02*
X1099693Y994283D01*
D149*
X614680Y334010D02*
D03*
X630236Y338774D02*
D03*
X635000Y331470D02*
D03*
X518668Y548524D02*
D03*
X505839Y548534D02*
D03*
X287020Y532384D02*
D03*
Y526288D02*
D03*
X590754Y778306D02*
D03*
X595066Y773993D02*
D03*
X1788590Y928800D02*
D03*
X1784279Y924489D02*
D03*
X1870710Y300990D02*
D03*
X1883410Y281305D02*
D03*
X1861820Y271780D02*
D03*
X1852930Y273050D02*
D03*
X1858010Y265430D02*
D03*
X1832610Y264160D02*
D03*
X1885950Y292100D02*
D03*
X1866900Y260350D02*
D03*
Y254000D02*
D03*
X2065020Y278050D02*
D03*
Y290750D02*
D03*
Y283210D02*
D03*
Y295910D02*
D03*
X2065020Y350520D02*
D03*
Y363220D02*
D03*
X2059080Y356870D02*
D03*
X2072720Y225980D02*
D03*
Y213280D02*
D03*
X1066800Y867410D02*
D03*
X1405890Y872490D02*
D03*
X1332230Y614680D02*
D03*
X1322516Y725170D02*
D03*
X1281430Y594360D02*
D03*
X1241000Y674000D02*
D03*
X1374140Y721360D02*
D03*
X1391920Y929640D02*
D03*
X1380490Y836930D02*
D03*
X1291000Y684000D02*
D03*
X1281000Y684000D02*
D03*
X1379220Y918210D02*
D03*
X1325880Y759460D02*
D03*
X1181000Y664000D02*
D03*
X1356360Y958469D02*
D03*
X1339850Y955040D02*
D03*
X1353820Y948690D02*
D03*
X1352550Y942340D02*
D03*
X1343660Y935990D02*
D03*
X1357630Y923290D02*
D03*
X1353820Y913130D02*
D03*
X1201000Y714000D02*
D03*
Y704000D02*
D03*
X1005840Y958850D02*
D03*
X1121410Y952500D02*
D03*
X1181000Y684000D02*
D03*
X1012190Y969010D02*
D03*
X1127760Y958850D02*
D03*
X1134110Y952500D02*
D03*
X1151890Y961390D02*
D03*
X1038860Y890270D02*
D03*
X1023620Y1005840D02*
D03*
X982980Y896620D02*
D03*
X1267460Y257810D02*
D03*
X756920Y302260D02*
D03*
X756928Y290822D02*
D03*
X728980Y300990D02*
D03*
X633730Y323850D02*
D03*
X248487Y759626D02*
D03*
X543640Y910590D02*
D03*
X549736D02*
D03*
X710955Y948065D02*
D03*
X709178Y953897D02*
D03*
X735330Y999490D02*
D03*
X1239520Y952500D02*
D03*
X1271000Y734000D02*
D03*
X1153160Y923290D02*
D03*
X1146810Y955040D02*
D03*
X1143000Y944880D02*
D03*
X1182370Y910590D02*
D03*
X1187450Y838962D02*
D03*
X814705Y929005D02*
D03*
X845820Y248920D02*
D03*
X838200Y224790D02*
D03*
X815340Y250190D02*
D03*
X825500Y252730D02*
D03*
X1176020Y896620D02*
D03*
X1170940Y900430D02*
D03*
X1155700Y1016000D02*
D03*
X800100Y334010D02*
D03*
X742950Y895350D02*
D03*
X732790D02*
D03*
X772160Y806450D02*
D03*
X777240Y810260D02*
D03*
X236220Y521970D02*
D03*
X1563370Y326390D02*
D03*
X825500Y202565D02*
D03*
X815340D02*
D03*
X830580Y146050D02*
D03*
X229235Y743585D02*
D03*
X203835Y720725D02*
D03*
X261955Y760370D02*
D03*
X763661Y308591D02*
D03*
Y288591D02*
D03*
X1229360Y831850D02*
D03*
X1416685Y278765D02*
D03*
X1409700Y285750D02*
D03*
X1403350Y292100D02*
D03*
X1397000Y298450D02*
D03*
X703580Y844550D02*
D03*
X1361440Y713740D02*
D03*
X1372870Y731520D02*
D03*
X1081000Y724000D02*
D03*
X1338580Y705104D02*
D03*
X1356360Y673100D02*
D03*
X1344930D02*
D03*
X1338580Y513080D02*
D03*
X1239520Y279400D02*
D03*
X1250890Y277050D02*
D03*
X1250890Y301050D02*
D03*
X1258890Y269050D02*
D03*
X680720Y838200D02*
D03*
X715010Y840740D02*
D03*
X695960Y849630D02*
D03*
X626110Y321310D02*
D03*
X613410D02*
D03*
X601980D02*
D03*
X494030Y814781D02*
D03*
X519430D02*
D03*
X582930D02*
D03*
X557530D02*
D03*
X494030Y859790D02*
D03*
X519430D02*
D03*
X728059Y308591D02*
D03*
X705661Y298591D02*
D03*
X728059Y283591D02*
D03*
X786059Y348591D02*
D03*
Y343591D02*
D03*
Y338591D02*
D03*
Y298591D02*
D03*
X1308100Y115570D02*
D03*
X671078Y200787D02*
D03*
X662940Y200787D02*
D03*
X784778Y200270D02*
D03*
X786765Y156489D02*
D03*
X734060Y156332D02*
D03*
X1290890Y277050D02*
D03*
X1274890Y277050D02*
D03*
X1266890D02*
D03*
X1313815Y298510D02*
D03*
X1306890Y293050D02*
D03*
X1290890Y285050D02*
D03*
X1282890Y301050D02*
D03*
X1274890Y293050D02*
D03*
X1266890D02*
D03*
X1250890Y293050D02*
D03*
X1246890Y310707D02*
D03*
X1302890D02*
D03*
X1258890Y293050D02*
D03*
X836295Y198755D02*
D03*
X191970Y763778D02*
D03*
X173101Y723900D02*
D03*
X657352Y923290D02*
D03*
X710237Y964532D02*
D03*
X700654Y962660D02*
D03*
X729550Y929650D02*
D03*
X739550Y993050D02*
D03*
X1201000Y724000D02*
D03*
X1171000Y704000D02*
D03*
X1191000D02*
D03*
Y714000D02*
D03*
X1231000Y724000D02*
D03*
X1201000Y734000D02*
D03*
X1181000Y694000D02*
D03*
X728980Y1003300D02*
D03*
X948055Y1007110D02*
D03*
X1301115Y34925D02*
D03*
X1251335D02*
D03*
X2203450Y323850D02*
D03*
X2147955Y350491D02*
D03*
X1048929Y549000D02*
D03*
X1051000Y544000D02*
D03*
X1141730Y565150D02*
D03*
X1129061Y554000D02*
D03*
X1051000D02*
D03*
X1211000Y734000D02*
D03*
X1231000D02*
D03*
X1241000D02*
D03*
X1251000D02*
D03*
X1311000Y664000D02*
D03*
X1301000D02*
D03*
X1201000Y694000D02*
D03*
Y684000D02*
D03*
Y674000D02*
D03*
X1191000D02*
D03*
X1201000Y664000D02*
D03*
X1251000Y654000D02*
D03*
X1241000Y644000D02*
D03*
X1241000Y654000D02*
D03*
X1221000Y644000D02*
D03*
X1281000Y584000D02*
D03*
X1301000D02*
D03*
X1291000Y574000D02*
D03*
X1301000Y554000D02*
D03*
X1291000D02*
D03*
X1016000Y146000D02*
D03*
X1024000Y178000D02*
D03*
X1040000Y178000D02*
D03*
X1151000Y554000D02*
D03*
Y564000D02*
D03*
X1036000Y174000D02*
D03*
X1040000Y186000D02*
D03*
X1032000Y210000D02*
D03*
X1111000Y684000D02*
D03*
X1101000Y694000D02*
D03*
X1071000Y544000D02*
D03*
X1016000Y154000D02*
D03*
X1024000Y162000D02*
D03*
X1016000D02*
D03*
X1024000Y170000D02*
D03*
X1016000Y178000D02*
D03*
Y186000D02*
D03*
Y194000D02*
D03*
X1024000Y202000D02*
D03*
X1141000Y584000D02*
D03*
X1131000D02*
D03*
X1151000Y574000D02*
D03*
X1121000Y574000D02*
D03*
X1151000Y544000D02*
D03*
X1131000Y544000D02*
D03*
X1091000Y524000D02*
D03*
X1061000Y514000D02*
D03*
X1071000Y494000D02*
D03*
X1101000Y524000D02*
D03*
X1141000Y524000D02*
D03*
X1032000Y258000D02*
D03*
D256*
X1374140Y918210D02*
X1379220D01*
X1356360Y900430D02*
X1374140Y918210D01*
X1356360Y861838D02*
Y900430D01*
X1345698Y851175D02*
X1356360Y861838D01*
X1325880Y800100D02*
X1345698Y819918D01*
Y851175D01*
X1325880Y759460D02*
Y800100D01*
D258*
X1029970Y889353D02*
X1034655Y894038D01*
X1029970Y863600D02*
Y889353D01*
Y863600D02*
X1076085Y817485D01*
X1034655Y894038D02*
Y976235D01*
X1047750Y989330D01*
X1061720D01*
X1079500Y1007110D01*
X1135380Y1023620D02*
X1323340D01*
X1116330Y1004570D02*
X1135380Y1023620D01*
X1116330Y689330D02*
Y1004570D01*
X1323340Y1023620D02*
X1339850Y1007110D01*
X1111000Y684000D02*
X1116330Y689330D01*
X1229360Y831850D02*
Y895350D01*
X1196340Y928370D02*
X1229360Y895350D01*
X1460500Y336550D02*
Y464820D01*
X1409700Y285750D02*
X1460500Y336550D01*
X1454150Y471170D02*
X1460500Y464820D01*
X1454150Y471170D02*
Y650240D01*
X1372870Y731520D02*
X1454150Y650240D01*
X1397000Y298450D02*
X1432800Y334250D01*
Y627775D01*
X1361440Y699135D02*
Y713740D01*
Y699135D02*
X1432800Y627775D01*
X1079500Y895350D02*
X1096010Y878840D01*
Y704160D02*
Y878840D01*
Y704160D02*
X1101000Y699170D01*
Y694000D02*
Y699170D01*
X1076085Y728915D02*
Y817485D01*
Y728915D02*
X1081000Y724000D01*
D289*
X1406741Y691048D02*
X1442720Y655070D01*
X1374140Y721360D02*
X1404452Y691048D01*
X1442720Y331470D02*
Y655070D01*
X1404452Y691048D02*
X1406741D01*
X1380490Y836930D02*
X1397000Y820420D01*
Y734060D02*
Y820420D01*
Y734060D02*
X1473200Y657860D01*
Y335280D02*
Y657860D01*
X1416685Y278765D02*
X1473200Y335280D01*
X1403350Y292100D02*
X1442720Y331470D01*
D293*
X721836Y1017269D02*
X735330Y1003775D01*
Y999490D02*
Y1003775D01*
X689609Y1017269D02*
X721836D01*
X671068Y972664D02*
Y998728D01*
X689609Y1017269D01*
X657352Y958948D02*
X671068Y972664D01*
X726629Y996048D02*
X728980Y998399D01*
Y1003300D01*
X726629Y932571D02*
X729550Y929650D01*
X726629Y932571D02*
Y996048D01*
X657352Y923290D02*
Y958948D01*
D296*
X981000Y824000D02*
D03*
X1381000Y424000D02*
D03*
D297*
X1196340Y928370D02*
D03*
X1339850Y1007110D02*
D03*
X1079500Y895350D02*
D03*
X1054100Y974090D02*
D03*
X1079500D02*
D03*
Y1007110D02*
D03*
D300*
X941070Y918210D02*
D03*
X1104900Y974090D02*
D03*
Y1007110D02*
D03*
D325*
X1181174Y901526D02*
G03*
X1183546Y899151I2372J-3D01*
G01*
X1191296Y894407D02*
G03*
X1191296Y899151I0J2372D01*
G01*
X1182228Y894407D02*
G03*
X1182228Y889663I0J-2372D01*
G01*
X1204714Y884920D02*
G03*
X1204714Y889663I0J2372D01*
G01*
X1181489Y884920D02*
G03*
X1181489Y880176I0J-2372D01*
G01*
X1204714Y875432D02*
G03*
X1204714Y880176I0J2372D01*
G01*
X1181489Y875432D02*
G03*
X1181489Y870688I0J-2372D01*
G01*
X1204714Y865944D02*
G03*
X1204714Y870688I0J2372D01*
G01*
X1181489Y865944D02*
G03*
X1181489Y861200I0J-2372D01*
G01*
X1204714Y856457D02*
G03*
X1204714Y861200I0J2372D01*
G01*
X1181489Y856457D02*
G03*
X1181489Y851713I0J-2372D01*
G01*
X1204714Y846969D02*
G03*
X1204714Y851713I0J2372D01*
G01*
X1183479Y846969D02*
G03*
X1181107Y844600I0J-2372D01*
G01*
X845596Y1025357D02*
G03*
X848603Y1022350I3007J0D01*
G01*
X845596Y1025357D02*
G03*
X839583Y1025357I-3007J0D01*
G01*
X833569Y1018098D02*
G03*
X839583Y1018098I3007J0D01*
G01*
X833569Y1029503D02*
G03*
X827555Y1029503I-3007J0D01*
G01*
X821541Y1020490D02*
G03*
X827555Y1020490I3007J0D01*
G01*
X821541Y1029503D02*
G03*
X815527Y1029503I-3007J0D01*
G01*
X809513Y1015197D02*
G03*
X815527Y1015197I3007J0D01*
G01*
X809513Y1029503D02*
G03*
X803499Y1029503I-3007J0D01*
G01*
X797486Y1015197D02*
G03*
X803499Y1015197I3007J0D01*
G01*
X797486Y1029503D02*
G03*
X791472Y1029503I-3007J0D01*
G01*
X785458Y1015197D02*
G03*
X791472Y1015197I3007J0D01*
G01*
X785458Y1029503D02*
G03*
X779444Y1029503I-3007J0D01*
G01*
X776437Y1022350D02*
G03*
X779444Y1025357I0J3007D01*
G01*
X730418Y881278D02*
G03*
X732790Y883650I0J2372D01*
G01*
X701803Y881278D02*
G03*
X701803Y876534I0J-2372D01*
G01*
X735269Y871790D02*
G03*
X735269Y876534I0J2372D01*
G01*
X696226Y871790D02*
G03*
X696226Y867046I0J-2372D01*
G01*
X735269Y862302D02*
G03*
X735269Y867046I0J2372D01*
G01*
X696226Y862302D02*
G03*
X696226Y857558I0J-2372D01*
G01*
X735270Y852815D02*
G03*
X735270Y857558I0J2372D01*
G01*
X708480Y852815D02*
G03*
X708480Y848071I0J-2372D01*
G01*
X737370Y843327D02*
G03*
X737370Y848071I0J2372D01*
G01*
X721659Y843327D02*
G03*
X721659Y838583I0J-2372D01*
G01*
X741213Y837397D02*
G03*
X738350Y838583I-2863J-2863D01*
G01*
X742950Y888203D02*
G03*
X745957Y885196I3007J0D01*
G01*
X794289Y879182D02*
G03*
X794289Y885196I0J3007D01*
G01*
X742344Y879182D02*
G03*
X742344Y873168I0J-3007D01*
G01*
X802592Y867154D02*
G03*
X802592Y873168I0J3007D01*
G01*
X742344Y867154D02*
G03*
X742344Y861140I0J-3007D01*
G01*
X773540Y855127D02*
G03*
X773540Y861140I0J3007D01*
G01*
X742344Y855127D02*
G03*
X742344Y849113I0J-3007D01*
G01*
X753700Y843099D02*
G03*
X753700Y849113I0J3007D01*
G01*
X751661Y843099D02*
G03*
X749534Y837966I0J-3007D01*
G01*
X1182919Y782803D02*
G03*
X1184910Y784794I0J1991D01*
G01*
X1179707Y782803D02*
G03*
X1179707Y778821I0J-1991D01*
G01*
X1183633Y774840D02*
G03*
X1183633Y778821I0J1991D01*
G01*
X1179707Y774840D02*
G03*
X1179707Y770858I0J-1991D01*
G01*
X1183633Y766876D02*
G03*
X1183633Y770858I0J1991D01*
G01*
X1179707Y766876D02*
G03*
X1179707Y762894I0J-1991D01*
G01*
X1183633Y758912D02*
G03*
X1183633Y762894I0J1991D01*
G01*
X1179707Y758912D02*
G03*
X1179707Y754930I0J-1991D01*
G01*
X1184910Y752940D02*
G03*
X1182919Y754930I-1991J0D01*
G01*
Y727057D02*
G03*
X1184910Y729048I0J1991D01*
G01*
X1179707Y727057D02*
G03*
X1179707Y723075I0J-1991D01*
G01*
X1183633Y719094D02*
G03*
X1183633Y723075I0J1991D01*
G01*
X1179707Y719094D02*
G03*
X1179707Y715112I0J-1991D01*
G01*
X1184732Y711130D02*
G03*
X1184732Y715112I0J1991D01*
G01*
X1179707Y711130D02*
G03*
X1179707Y707148I0J-1991D01*
G01*
X1188848Y706152D02*
G03*
X1186444Y707148I-2403J-2403D01*
G01*
X1322070Y517627D02*
G03*
X1320079Y519618I-1991J0D01*
G01*
X1320079Y523600D02*
G03*
X1320079Y519618I0J-1991D01*
G01*
X1322070Y523600D02*
G03*
X1322070Y527582I0J1991D01*
G01*
X1318867Y531564D02*
G03*
X1318867Y527582I0J-1991D01*
G01*
X1322710Y531564D02*
G03*
X1322710Y535546I0J1991D01*
G01*
X1317440Y539527D02*
G03*
X1317440Y535546I0J-1991D01*
G01*
X1322710Y539527D02*
G03*
X1322710Y543509I0J1991D01*
G01*
X1317440Y547491D02*
G03*
X1317440Y543509I0J-1991D01*
G01*
X1322710Y547491D02*
G03*
X1322710Y551473I0J1991D01*
G01*
X1317440Y555455D02*
G03*
X1317440Y551473I0J-1991D01*
G01*
X1322710Y555455D02*
G03*
X1322710Y559437I0J1991D01*
G01*
X1317440Y563419D02*
G03*
X1317440Y559437I0J-1991D01*
G01*
X1322710Y563419D02*
G03*
X1322710Y567400I0J1991D01*
G01*
X1317440Y571382D02*
G03*
X1317440Y567400I0J-1991D01*
G01*
X1322710Y571382D02*
G03*
X1322710Y575364I0J1991D01*
G01*
X1317440Y579346D02*
G03*
X1317440Y575364I0J-1991D01*
G01*
X1322710Y579346D02*
G03*
X1322710Y583328I0J1991D01*
G01*
X1317440Y587310D02*
G03*
X1317440Y583328I0J-1991D01*
G01*
X1322710Y587310D02*
G03*
X1322710Y591292I0J1991D01*
G01*
X1317440Y595273D02*
G03*
X1317440Y591292I0J-1991D01*
G01*
X1322710Y595273D02*
G03*
X1322710Y599255I0J1991D01*
G01*
X1317440Y603237D02*
G03*
X1317440Y599255I0J-1991D01*
G01*
X1322710Y603237D02*
G03*
X1322710Y607219I0J1991D01*
G01*
X1317440Y611201D02*
G03*
X1317440Y607219I0J-1991D01*
G01*
X1322710Y611201D02*
G03*
X1322710Y615183I0J1991D01*
G01*
X1317440Y619165D02*
G03*
X1317440Y615183I0J-1991D01*
G01*
X1322710Y619165D02*
G03*
X1322710Y623146I0J1991D01*
G01*
X1317440Y627128D02*
G03*
X1317440Y623146I0J-1991D01*
G01*
X1322710Y627128D02*
G03*
X1322710Y631110I0J1991D01*
G01*
X1317440Y635092D02*
G03*
X1317440Y631110I0J-1991D01*
G01*
X1322710Y635092D02*
G03*
X1322710Y639074I0J1991D01*
G01*
X1317440Y643056D02*
G03*
X1317440Y639074I0J-1991D01*
G01*
X1322710Y643056D02*
G03*
X1322710Y647038I0J1991D01*
G01*
X1317440Y651019D02*
G03*
X1317440Y647038I0J-1991D01*
G01*
X1322710Y651019D02*
G03*
X1322710Y655001I0J1991D01*
G01*
X1319282Y658983D02*
G03*
X1319282Y655001I0J-1991D01*
G01*
X1320079Y658983D02*
G03*
X1322070Y660974I0J1991D01*
G01*
X1308247Y351973D02*
G03*
X1306256Y353964I-1991J0D01*
G01*
X1299624Y357946D02*
G03*
X1299624Y353964I0J-1991D01*
G01*
X1311762Y357946D02*
G03*
X1311762Y361927I0J1991D01*
G01*
X1297798Y365909D02*
G03*
X1297798Y361927I0J-1991D01*
G01*
X1312479Y365909D02*
G03*
X1312479Y369891I0J1991D01*
G01*
X1297798Y373873D02*
G03*
X1297798Y369891I0J-1991D01*
G01*
X1316895Y373873D02*
G03*
X1316895Y377855I0J1991D01*
G01*
X1301896Y381837D02*
G03*
X1301896Y377855I0J-1991D01*
G01*
X1316895Y381837D02*
G03*
X1316895Y385819I0J1991D01*
G01*
X1313753Y387809D02*
G03*
X1315744Y385819I1991J0D01*
G01*
Y397764D02*
G03*
X1313753Y395773I0J-1991D01*
G01*
X1316895Y397764D02*
G03*
X1316895Y401746I0J1991D01*
G01*
X1313057Y405728D02*
G03*
X1313057Y401746I0J-1991D01*
G01*
X1316895Y405728D02*
G03*
X1316895Y409710I0J1991D01*
G01*
X1313057Y413692D02*
G03*
X1313057Y409710I0J-1991D01*
G01*
X1316895Y413692D02*
G03*
X1316895Y417673I0J1991D01*
G01*
X1313057Y421655D02*
G03*
X1313057Y417673I0J-1991D01*
G01*
X1316895Y421655D02*
G03*
X1316895Y425637I0J1991D01*
G01*
X1313057Y429619D02*
G03*
X1313057Y425637I0J-1991D01*
G01*
X1316895Y429619D02*
G03*
X1316895Y433601I0J1991D01*
G01*
X1313057Y437583D02*
G03*
X1313057Y433601I0J-1991D01*
G01*
X1316895Y437583D02*
G03*
X1316895Y441564I0J1991D01*
G01*
X1313057Y445546D02*
G03*
X1313057Y441564I0J-1991D01*
G01*
X1316895Y445546D02*
G03*
X1316895Y449528I0J1991D01*
G01*
X1313057Y453510D02*
G03*
X1313057Y449528I0J-1991D01*
G01*
X1316895Y453510D02*
G03*
X1316895Y457492I0J1991D01*
G01*
X1313057Y461474D02*
G03*
X1313057Y457492I0J-1991D01*
G01*
X1316895Y461474D02*
G03*
X1316895Y465456I0J1991D01*
G01*
X1313057Y469437D02*
G03*
X1313057Y465456I0J-1991D01*
G01*
X1316895Y469437D02*
G03*
X1316895Y473419I0J1991D01*
G01*
X1313057Y477401D02*
G03*
X1313057Y473419I0J-1991D01*
G01*
X1316895Y477401D02*
G03*
X1316895Y481383I0J1991D01*
G01*
X1313057Y485365D02*
G03*
X1313057Y481383I0J-1991D01*
G01*
X1316895Y485365D02*
G03*
X1316895Y489347I0J1991D01*
G01*
X1315744Y493329D02*
G03*
X1315744Y489347I0J-1991D01*
G01*
X1316895Y493329D02*
G03*
X1316895Y497310I0J1991D01*
G01*
X1310517Y501292D02*
G03*
X1310517Y497310I0J-1991D01*
G01*
X1316895Y501292D02*
G03*
X1316895Y505274I0J1991D01*
G01*
X1310517Y509256D02*
G03*
X1310517Y505274I0J-1991D01*
G01*
X1316895Y509256D02*
G03*
X1316895Y513238I0J1991D01*
G01*
X1313753Y515229D02*
G03*
X1315744Y513238I1991J0D01*
G01*
X1243203Y452046D02*
G03*
X1245194Y454037I0J1991D01*
G01*
X1243203Y452046D02*
G03*
X1243203Y448064I0J-1991D01*
G01*
X1250210Y444082D02*
G03*
X1250210Y448064I0J1991D01*
G01*
X1241937Y444082D02*
G03*
X1241937Y440100I0J-1991D01*
G01*
X1250972Y436118D02*
G03*
X1250972Y440100I0J1991D01*
G01*
X1241937Y436118D02*
G03*
X1241937Y432136I0J-1991D01*
G01*
X1250972Y428155D02*
G03*
X1250972Y432136I0J1991D01*
G01*
X1240667Y428155D02*
G03*
X1240667Y424173I0J-1991D01*
G01*
X1250972Y420191D02*
G03*
X1250972Y424173I0J1991D01*
G01*
X1245534Y420191D02*
G03*
X1245534Y416209I0J-1991D01*
G01*
X1253363Y412227D02*
G03*
X1253363Y416209I0J1991D01*
G01*
X1237036Y412227D02*
G03*
X1237036Y408245I0J-1991D01*
G01*
X1250972Y404263D02*
G03*
X1250972Y408245I0J1991D01*
G01*
X1237025Y404263D02*
G03*
X1237025Y400282I0J-1991D01*
G01*
X1253363Y396300D02*
G03*
X1253363Y400282I0J1991D01*
G01*
X1242994Y396300D02*
G03*
X1242994Y392318I0J-1991D01*
G01*
X1253363Y388336D02*
G03*
X1253363Y392318I0J1991D01*
G01*
X1242994Y388336D02*
G03*
X1242994Y384354I0J-1991D01*
G01*
X1253363Y380372D02*
G03*
X1253363Y384354I0J1991D01*
G01*
X1237025Y380372D02*
G03*
X1237025Y376390I0J-1991D01*
G01*
X1245886Y372409D02*
G03*
X1245886Y376390I0J1991D01*
G01*
X1237025Y372409D02*
G03*
X1237025Y368427I0J-1991D01*
G01*
X1243203Y364445D02*
G03*
X1243203Y368427I0J1991D01*
G01*
X1237025Y364445D02*
G03*
X1237025Y360463I0J-1991D01*
G01*
X1245194Y358472D02*
G03*
X1243203Y360463I-1991J0D01*
G01*
X1238441Y306708D02*
G03*
X1240432Y304717I1991J0D01*
G01*
X1243773Y300735D02*
G03*
X1243773Y304717I0J1991D01*
G01*
X1240432Y300735D02*
G03*
X1238441Y298744I0J-1991D01*
G01*
X1247140Y542914D02*
G03*
X1249131Y540923I1991J0D01*
G01*
X1249131Y536941D02*
G03*
X1249131Y540923I0J1991D01*
G01*
X1246083Y536941D02*
G03*
X1246083Y532959I0J-1991D01*
G01*
X1253430Y528977D02*
G03*
X1253430Y532959I0J1991D01*
G01*
X1245744Y528977D02*
G03*
X1245744Y524995I0J-1991D01*
G01*
X1253430Y521013D02*
G03*
X1253430Y524995I0J1991D01*
G01*
X1235442Y521013D02*
G03*
X1235442Y517032I0J-1991D01*
G01*
X1253430Y513050D02*
G03*
X1253430Y517032I0J1991D01*
G01*
X1235744Y513050D02*
G03*
X1235744Y509068I0J-1991D01*
G01*
X1246256Y505086D02*
G03*
X1246256Y509068I0J1991D01*
G01*
X1245744Y505086D02*
G03*
X1245744Y501104I0J-1991D01*
G01*
X1253430Y497122D02*
G03*
X1253430Y501104I0J1991D01*
G01*
X1235442Y497122D02*
G03*
X1235442Y493140I0J-1991D01*
G01*
X1253430Y489159D02*
G03*
X1253430Y493140I0J1991D01*
G01*
X1235442Y489159D02*
G03*
X1235442Y485177I0J-1991D01*
G01*
X1253430Y481195D02*
G03*
X1253430Y485177I0J1991D01*
G01*
X1235442Y481195D02*
G03*
X1235442Y477213I0J-1991D01*
G01*
X1247861Y473231D02*
G03*
X1247861Y477213I0J1991D01*
G01*
X1235442Y473231D02*
G03*
X1235442Y469249I0J-1991D01*
G01*
X1244003Y465851D02*
G03*
X1242595Y469249I-1408J1408D01*
G01*
X1315449Y335991D02*
G03*
X1317440Y334000I1991J0D01*
G01*
X1317440Y330018D02*
G03*
X1317440Y334000I0J1991D01*
G01*
X1312110Y330018D02*
G03*
X1312110Y326036I0J-1991D01*
G01*
X1316824Y322054D02*
G03*
X1316824Y326036I0J1991D01*
G01*
X1311934Y322054D02*
G03*
X1311934Y318072I0J-1991D01*
G01*
X1316824Y314091D02*
G03*
X1316824Y318072I0J1991D01*
G01*
X1310663Y314091D02*
G03*
X1310663Y310109I0J-1991D01*
G01*
X1316824Y306127D02*
G03*
X1316824Y310109I0J1991D01*
G01*
X1307280Y306127D02*
G03*
X1307280Y302145I0J-1991D01*
G01*
X1315449Y300154D02*
G03*
X1313458Y302145I-1991J0D01*
G01*
X1261938Y567753D02*
G03*
X1264753Y567753I1408J1408D01*
G01*
X1261719Y567973D02*
G03*
X1258903Y567973I-1408J-1408D01*
G01*
X1258903Y567973D02*
G03*
X1258903Y565157I1408J-1408D01*
G01*
X1263084Y558161D02*
G03*
X1263084Y560976I-1408J1408D01*
G01*
X1260268Y558161D02*
G03*
X1263084Y558161I1408J1408D01*
G01*
X1256069Y562360D02*
G03*
X1253253Y562360I-1408J-1408D01*
G01*
D02*
G03*
X1253253Y559544I1408J-1408D01*
G01*
X1256839Y553143D02*
G03*
X1256839Y555959I-1408J1408D01*
G01*
X1254024Y553143D02*
G03*
X1256839Y553143I1408J1408D01*
G01*
X1246307Y560860D02*
G03*
X1243491Y560860I-1408J-1408D01*
G01*
D02*
G03*
X1243491Y558044I1408J-1408D01*
G01*
X1247860Y550860D02*
G03*
X1247860Y553675I-1408J1408D01*
G01*
X1234989Y454467D02*
G03*
X1236980Y456458I0J1991D01*
G01*
X1230796Y454467D02*
G03*
X1230796Y450485I0J-1991D01*
G01*
X1236259Y446503D02*
G03*
X1236259Y450485I0J1991D01*
G01*
X1230796Y446503D02*
G03*
X1230796Y442521I0J-1991D01*
G01*
X1236259Y438539D02*
G03*
X1236259Y442521I0J1991D01*
G01*
X1230796Y438539D02*
G03*
X1230796Y434558I0J-1991D01*
G01*
X1236259Y430576D02*
G03*
X1236259Y434558I0J1991D01*
G01*
X1230796Y430576D02*
G03*
X1230796Y426594I0J-1991D01*
G01*
X1236980Y424603D02*
G03*
X1234989Y426594I-1991J0D01*
G01*
X1263928Y523062D02*
G03*
X1265919Y521071I1991J0D01*
G01*
X1267360Y517089D02*
G03*
X1267360Y521071I0J1991D01*
G01*
X1259717Y517089D02*
G03*
X1259717Y513107I0J-1991D01*
G01*
X1270123Y509126D02*
G03*
X1270123Y513107I0J1991D01*
G01*
X1265740Y509126D02*
G03*
X1265740Y505144I0J-1991D01*
G01*
X1266256Y501162D02*
G03*
X1266256Y505144I0J1991D01*
G01*
X1259717Y501162D02*
G03*
X1259717Y497180I0J-1991D01*
G01*
X1266141Y493198D02*
G03*
X1266141Y497180I0J1991D01*
G01*
X1259717Y493198D02*
G03*
X1259717Y489216I0J-1991D01*
G01*
X1262919Y485234D02*
G03*
X1262919Y489216I0J1991D01*
G01*
X1259717Y485234D02*
G03*
X1259717Y481253I0J-1991D01*
G01*
X1263928Y479262D02*
G03*
X1261937Y481253I-1991J0D01*
G01*
X1271819Y496996D02*
G03*
X1273810Y498987I0J1991D01*
G01*
X1271819Y496996D02*
G03*
X1271819Y493014I0J-1991D01*
G01*
X1273810Y489033D02*
G03*
X1273810Y493014I0J1991D01*
G01*
X1268596Y489033D02*
G03*
X1268596Y485051I0J-1991D01*
G01*
X1275717Y481069D02*
G03*
X1275717Y485051I0J1991D01*
G01*
X1267615Y481069D02*
G03*
X1267615Y477087I0J-1991D01*
G01*
X1275717Y473105D02*
G03*
X1275717Y477087I0J1991D01*
G01*
X1265919Y473105D02*
G03*
X1265919Y469123I0J-1991D01*
G01*
X1275717Y465141D02*
G03*
X1275717Y469123I0J1991D01*
G01*
X1256649Y465141D02*
G03*
X1256649Y461160I0J-1991D01*
G01*
X1275717Y457178D02*
G03*
X1275717Y461160I0J1991D01*
G01*
X1256649Y457178D02*
G03*
X1256649Y453196I0J-1991D01*
G01*
X1275717Y449214D02*
G03*
X1275717Y453196I0J1991D01*
G01*
X1256649Y449214D02*
G03*
X1256649Y445232I0J-1991D01*
G01*
X1275717Y441250D02*
G03*
X1275717Y445232I0J1991D01*
G01*
X1256649Y441250D02*
G03*
X1256649Y437268I0J-1991D01*
G01*
X1275717Y433287D02*
G03*
X1275717Y437268I0J1991D01*
G01*
X1256649Y433287D02*
G03*
X1256649Y429305I0J-1991D01*
G01*
X1275717Y425323D02*
G03*
X1275717Y429305I0J1991D01*
G01*
X1256649Y425323D02*
G03*
X1256649Y421341I0J-1991D01*
G01*
X1279861Y417359D02*
G03*
X1279861Y421341I0J1991D01*
G01*
X1269664Y417359D02*
G03*
X1269664Y413377I0J-1991D01*
G01*
X1275717Y409395D02*
G03*
X1275717Y413377I0J1991D01*
G01*
X1256649Y409395D02*
G03*
X1256649Y405414I0J-1991D01*
G01*
X1264262Y402015D02*
G03*
X1262854Y405414I-1408J1408D01*
G01*
X1244899Y351882D02*
G03*
X1246890Y353873I0J1991D01*
G01*
X1244432Y351882D02*
G03*
X1244432Y347901I0J-1991D01*
G01*
X1247480Y343919D02*
G03*
X1247480Y347901I0J1991D01*
G01*
X1242128Y343919D02*
G03*
X1242128Y339937I0J-1991D01*
G01*
X1247480Y335955D02*
G03*
X1247480Y339937I0J1991D01*
G01*
X1242128Y335955D02*
G03*
X1242128Y331973I0J-1991D01*
G01*
X1247480Y327991D02*
G03*
X1247480Y331973I0J1991D01*
G01*
X1242128Y327991D02*
G03*
X1242128Y324009I0J-1991D01*
G01*
X1247480Y320028D02*
G03*
X1247480Y324009I0J1991D01*
G01*
X1242128Y320028D02*
G03*
X1242128Y316046I0J-1991D01*
G01*
X1246890Y314055D02*
G03*
X1244899Y316046I-1991J0D01*
G01*
X1309009Y658533D02*
G03*
X1311000Y660524I0J1991D01*
G01*
X1308208Y658533D02*
G03*
X1308208Y654551I0J-1991D01*
G01*
X1310066Y650569D02*
G03*
X1310066Y654551I0J1991D01*
G01*
X1288822Y650569D02*
G03*
X1288822Y646587I0J-1991D01*
G01*
X1310066Y642606D02*
G03*
X1310066Y646587I0J1991D01*
G01*
X1288822Y642606D02*
G03*
X1288822Y638624I0J-1991D01*
G01*
X1310066Y634642D02*
G03*
X1310066Y638624I0J1991D01*
G01*
X1305744Y634642D02*
G03*
X1305744Y630660I0J-1991D01*
G01*
X1310066Y626678D02*
G03*
X1310066Y630660I0J1991D01*
G01*
X1305744Y626678D02*
G03*
X1305744Y622696I0J-1991D01*
G01*
X1310066Y618714D02*
G03*
X1310066Y622696I0J1991D01*
G01*
X1305744Y618714D02*
G03*
X1305744Y614733I0J-1991D01*
G01*
X1310066Y610751D02*
G03*
X1310066Y614733I0J1991D01*
G01*
X1288822Y610751D02*
G03*
X1288822Y606769I0J-1991D01*
G01*
X1310066Y602787D02*
G03*
X1310066Y606769I0J1991D01*
G01*
X1305671Y602787D02*
G03*
X1305671Y598805I0J-1991D01*
G01*
X1310066Y594823D02*
G03*
X1310066Y598805I0J1991D01*
G01*
X1288822Y594823D02*
G03*
X1288822Y590841I0J-1991D01*
G01*
X1310066Y586860D02*
G03*
X1310066Y590841I0J1991D01*
G01*
X1305744Y586860D02*
G03*
X1305744Y582878I0J-1991D01*
G01*
X1310066Y578896D02*
G03*
X1310066Y582878I0J1991D01*
G01*
X1297268Y578896D02*
G03*
X1297268Y574914I0J-1991D01*
G01*
X1310066Y570932D02*
G03*
X1310066Y574914I0J1991D01*
G01*
X1297440Y570932D02*
G03*
X1297440Y566950I0J-1991D01*
G01*
X1310066Y562968D02*
G03*
X1310066Y566950I0J1991D01*
G01*
X1305744Y562968D02*
G03*
X1305744Y558987I0J-1991D01*
G01*
X1310066Y555005D02*
G03*
X1310066Y558987I0J1991D01*
G01*
X1305744Y555005D02*
G03*
X1305744Y551023I0J-1991D01*
G01*
X1311000Y549032D02*
G03*
X1309009Y551023I-1991J0D01*
G01*
X1296844Y402764D02*
G03*
X1296844Y399949I1408J-1408D01*
G01*
X1296844Y397133D02*
G03*
X1296844Y399949I-1408J1408D01*
G01*
X1294029Y397133D02*
G03*
X1296844Y397133I1408J1408D01*
G01*
X1292621Y398541D02*
G03*
X1289805Y398541I-1408J-1408D01*
G01*
X1289805Y398541D02*
G03*
X1289805Y395726I1408J-1408D01*
G01*
X1297710Y385005D02*
G03*
X1297710Y387821I-1408J1408D01*
G01*
X1294894Y385005D02*
G03*
X1297710Y385005I1408J1408D01*
G01*
X1286422Y393478D02*
G03*
X1283606Y393478I-1408J-1408D01*
G01*
D02*
G03*
X1283606Y390662I1408J-1408D01*
G01*
X1292362Y379091D02*
G03*
X1292362Y381906I-1408J1408D01*
G01*
X1289547Y379091D02*
G03*
X1292362Y379090I1408J1408D01*
G01*
X1280791Y387847D02*
G03*
X1277975Y387847I-1408J-1408D01*
G01*
D02*
G03*
X1277975Y385031I1408J-1408D01*
G01*
X1286973Y373218D02*
G03*
X1286973Y376034I-1408J1408D01*
G01*
X1284157Y373218D02*
G03*
X1286973Y373218I1408J1408D01*
G01*
X1275159Y382215D02*
G03*
X1272344Y382215I-1408J-1408D01*
G01*
D02*
G03*
X1272344Y379400I1408J-1408D01*
G01*
X1281341Y367587D02*
G03*
X1281341Y370402I-1408J1408D01*
G01*
X1278526Y367587D02*
G03*
X1281341Y367587I1408J1408D01*
G01*
X1269528Y376584D02*
G03*
X1266712Y376584I-1408J-1408D01*
G01*
D02*
G03*
X1266713Y373769I1408J-1408D01*
G01*
X1275710Y361955D02*
G03*
X1275710Y364771I-1408J1408D01*
G01*
X1272895Y361956D02*
G03*
X1275710Y361955I1408J1408D01*
G01*
X1263897Y370953D02*
G03*
X1261081Y370953I-1408J-1408D01*
G01*
X1261081Y370953D02*
G03*
X1261081Y368138I1408J-1408D01*
G01*
X1270079Y356324D02*
G03*
X1270079Y359140I-1408J1408D01*
G01*
X1267263Y356324D02*
G03*
X1270079Y356324I1408J1408D01*
G01*
X1258266Y365322D02*
G03*
X1255450Y365322I-1408J-1408D01*
G01*
X1255450Y365322D02*
G03*
X1255450Y362506I1408J-1408D01*
G01*
X1264448Y350693D02*
G03*
X1264448Y353509I-1408J1408D01*
G01*
X1261632Y350693D02*
G03*
X1264448Y350693I1408J1408D01*
G01*
X1261632D02*
G03*
X1258570Y348124I236J-3390D01*
G01*
X1299009Y548433D02*
G03*
X1301000Y550424I0J1991D01*
G01*
X1297440Y548433D02*
G03*
X1297440Y544451I0J-1991D01*
G01*
X1307313Y540469D02*
G03*
X1307313Y544451I0J1991D01*
G01*
X1297440Y540469D02*
G03*
X1297440Y536487I0J-1991D01*
G01*
X1307313Y532505D02*
G03*
X1307313Y536487I0J1991D01*
G01*
X1297440Y532505D02*
G03*
X1297440Y528523I0J-1991D01*
G01*
X1307313Y524542D02*
G03*
X1307313Y528523I0J1991D01*
G01*
X1300058Y524542D02*
G03*
X1300058Y520560I0J-1991D01*
G01*
X1303143Y516578D02*
G03*
X1303143Y520560I0J1991D01*
G01*
X1300786Y516578D02*
G03*
X1300786Y512596I0J-1991D01*
G01*
X1303143Y508614D02*
G03*
X1303143Y512596I0J1991D01*
G01*
X1300786Y508614D02*
G03*
X1300786Y504632I0J-1991D01*
G01*
X1303143Y500650D02*
G03*
X1303143Y504632I0J1991D01*
G01*
X1300786Y500650D02*
G03*
X1300786Y496669I0J-1991D01*
G01*
X1303143Y492687D02*
G03*
X1303143Y496669I0J1991D01*
G01*
X1300786Y492687D02*
G03*
X1300786Y488705I0J-1991D01*
G01*
X1305683Y484723D02*
G03*
X1305683Y488705I0J1991D01*
G01*
X1300786Y484723D02*
G03*
X1300786Y480741I0J-1991D01*
G01*
X1305683Y476759D02*
G03*
X1305683Y480741I0J1991D01*
G01*
X1300786Y476759D02*
G03*
X1300786Y472777I0J-1991D01*
G01*
X1305683Y468796D02*
G03*
X1305683Y472777I0J1991D01*
G01*
X1300786Y468796D02*
G03*
X1300786Y464814I0J-1991D01*
G01*
X1305683Y460832D02*
G03*
X1305683Y464814I0J1991D01*
G01*
X1300786Y460832D02*
G03*
X1300786Y456850I0J-1991D01*
G01*
X1305683Y452868D02*
G03*
X1305683Y456850I0J1991D01*
G01*
X1300786Y452868D02*
G03*
X1300786Y448886I0J-1991D01*
G01*
X1305683Y444904D02*
G03*
X1305683Y448886I0J1991D01*
G01*
X1300786Y444904D02*
G03*
X1300786Y440923I0J-1991D01*
G01*
X1305683Y436941D02*
G03*
X1305683Y440923I0J1991D01*
G01*
X1300786Y436941D02*
G03*
X1300786Y432959I0J-1991D01*
G01*
X1305683Y428977D02*
G03*
X1305683Y432959I0J1991D01*
G01*
X1300786Y428977D02*
G03*
X1300786Y424995I0J-1991D01*
G01*
X1305683Y421013D02*
G03*
X1305683Y424995I0J1991D01*
G01*
X1300786Y421013D02*
G03*
X1300786Y417031I0J-1991D01*
G01*
X1305683Y413050D02*
G03*
X1305683Y417031I0J1991D01*
G01*
X1302991Y413050D02*
G03*
X1301000Y411059I0J-1991D01*
G01*
X1291762Y524110D02*
G03*
X1293753Y526101I0J1991D01*
G01*
X1287357Y524110D02*
G03*
X1287357Y520128I0J-1991D01*
G01*
X1295275Y516147D02*
G03*
X1295275Y520128I0J1991D01*
G01*
X1285744Y516147D02*
G03*
X1285744Y512165I0J-1991D01*
G01*
X1295275Y508183D02*
G03*
X1295275Y512165I0J1991D01*
G01*
X1281395Y508183D02*
G03*
X1281395Y504201I0J-1991D01*
G01*
X1295275Y500219D02*
G03*
X1295275Y504201I0J1991D01*
G01*
X1281395Y500219D02*
G03*
X1281395Y496237I0J-1991D01*
G01*
X1295275Y492255D02*
G03*
X1295275Y496237I0J1991D01*
G01*
X1281395Y492255D02*
G03*
X1281395Y488274I0J-1991D01*
G01*
X1295275Y484292D02*
G03*
X1295275Y488274I0J1991D01*
G01*
X1281395Y484292D02*
G03*
X1281395Y480310I0J-1991D01*
G01*
X1295275Y476328D02*
G03*
X1295275Y480310I0J1991D01*
G01*
X1281395Y476328D02*
G03*
X1281395Y472346I0J-1991D01*
G01*
X1295275Y468364D02*
G03*
X1295275Y472346I0J1991D01*
G01*
X1281395Y468364D02*
G03*
X1281395Y464382I0J-1991D01*
G01*
X1295275Y460401D02*
G03*
X1295275Y464382I0J1991D01*
G01*
X1281395Y460401D02*
G03*
X1281395Y456419I0J-1991D01*
G01*
X1295275Y452437D02*
G03*
X1295275Y456419I0J1991D01*
G01*
X1281395Y452437D02*
G03*
X1281395Y448455I0J-1991D01*
G01*
X1295275Y444473D02*
G03*
X1295275Y448455I0J1991D01*
G01*
X1281395Y444473D02*
G03*
X1281395Y440491I0J-1991D01*
G01*
X1295275Y436509D02*
G03*
X1295275Y440491I0J1991D01*
G01*
X1281395Y436509D02*
G03*
X1281395Y432528I0J-1991D01*
G01*
X1295275Y428546D02*
G03*
X1295275Y432528I0J1991D01*
G01*
X1281395Y428546D02*
G03*
X1281395Y424564I0J-1991D01*
G01*
X1295275Y420582D02*
G03*
X1295275Y424564I0J1991D01*
G01*
X1289349Y420582D02*
G03*
X1289349Y416600I0J-1991D01*
G01*
X1295275Y412618D02*
G03*
X1295275Y416600I0J1991D01*
G01*
X1281395Y412618D02*
G03*
X1281395Y408636I0J-1991D01*
G01*
X1293753Y406645D02*
G03*
X1291762Y408636I-1991J0D01*
G01*
X1246890Y366780D02*
X1261323Y381213D01*
X1246890Y358451D02*
Y366780D01*
X1261323Y381213D02*
Y399076D01*
X1181183Y908937D02*
X1181184Y909404D01*
X1181174Y901526D02*
X1181183Y908937D01*
X1183546Y899151D02*
X1191296D01*
X1182228Y894407D02*
X1191296D01*
X1182228Y889663D02*
X1204714D01*
X1181489Y884920D02*
X1204714D01*
X1181489Y880176D02*
X1204714D01*
X1181489Y875432D02*
X1204714D01*
X1181489Y870688D02*
X1204714D01*
X1181489Y865944D02*
X1204714D01*
X1181489Y861200D02*
X1204714D01*
X1181489Y856457D02*
X1204714D01*
X1181489Y851713D02*
X1204714D01*
X1183479Y846969D02*
X1204714D01*
X1181100Y838667D02*
X1181107Y844600D01*
X1181100Y838200D02*
X1181100Y838667D01*
X1189777Y753323D02*
X1193753Y749347D01*
Y725140D02*
Y749347D01*
X1189777Y753323D02*
Y792693D01*
X1193753Y716753D02*
Y725140D01*
X1191000Y714000D02*
X1193753Y716753D01*
X1193753Y725140D02*
X1193753Y725140D01*
X1146810Y835660D02*
X1189777Y792693D01*
X1176020Y834390D02*
Y896620D01*
X1233753Y740947D02*
Y776657D01*
X1176020Y834390D02*
X1233753Y776657D01*
X1170940Y833120D02*
Y900430D01*
X1223010Y752117D02*
Y781050D01*
X1170940Y833120D02*
X1223010Y781050D01*
X1163742Y831428D02*
Y918756D01*
X1216660Y754560D02*
Y778510D01*
X1163742Y831428D02*
X1216660Y778510D01*
X1171000Y704000D02*
X1174750Y707750D01*
X1139190Y826770D02*
X1174750Y791210D01*
Y707750D02*
Y791210D01*
X848603Y1022350D02*
X878840D01*
X845596Y1025357D02*
Y1025357D01*
X839583Y1018098D02*
Y1025357D01*
X833569Y1018098D02*
Y1029503D01*
X827555Y1020490D02*
Y1029503D01*
X821541Y1020490D02*
Y1029503D01*
X815527Y1015197D02*
Y1029503D01*
X809513Y1015197D02*
Y1029503D01*
X803499Y1015197D02*
Y1029503D01*
X797486Y1015197D02*
Y1029503D01*
X791472Y1015197D02*
Y1029503D01*
X785458Y1015197D02*
Y1029503D01*
X779444Y1025357D02*
Y1029503D01*
X775970Y1022350D02*
X776437D01*
X878840D02*
X982980D01*
X768850D02*
X775970D01*
X1181184Y909404D02*
X1182370Y910590D01*
X1181100Y834248D02*
Y838200D01*
X732790Y883650D02*
Y894349D01*
X701803Y881278D02*
X730418D01*
X701803Y876534D02*
X735269D01*
X696226Y871790D02*
X735269D01*
X696226Y867046D02*
X735269D01*
X696226Y862302D02*
X735269D01*
X696226Y857558D02*
X735270D01*
X708480Y852815D02*
X735270D01*
X708480Y848071D02*
X737370D01*
X721659Y843327D02*
X737370D01*
X721659Y838583D02*
X738350D01*
X741213Y837397D02*
X741680Y836930D01*
X732790Y894349D02*
Y895350D01*
X741680Y836930D02*
X772160Y806450D01*
X742950Y888203D02*
Y894249D01*
X745957Y885196D02*
X794289D01*
X742344Y879182D02*
X794289D01*
X742344Y873168D02*
X802592D01*
X742344Y867154D02*
X802592D01*
X742344Y861140D02*
X773540D01*
X742344Y855127D02*
X773540D01*
X742344Y849113D02*
X753700D01*
X751661Y843099D02*
X753700D01*
X749534Y837966D02*
X764413Y823087D01*
X777240Y810260D01*
X742950Y894249D02*
Y895350D01*
X1178831Y794749D02*
X1184910Y788670D01*
Y784794D02*
Y788670D01*
X1179707Y782803D02*
X1182919D01*
X1179707Y778821D02*
X1183633D01*
X1179707Y774840D02*
X1183633D01*
X1179707Y770858D02*
X1183633D01*
X1179707Y766876D02*
X1183633D01*
X1179707Y762894D02*
X1183633D01*
X1179707Y758912D02*
X1183633D01*
X1179707Y754930D02*
X1182919D01*
X1184910Y729048D02*
Y752940D01*
X1179707Y727057D02*
X1182919D01*
X1179707Y723075D02*
X1183633D01*
X1179707Y719094D02*
X1183633D01*
X1179707Y715112D02*
X1184732D01*
X1179707Y711130D02*
X1184732D01*
X1179707Y707148D02*
X1186444D01*
X1188848Y706152D02*
X1189314Y705686D01*
X1191000Y704000D01*
X1143000Y830580D02*
X1178831Y794749D01*
X1322070Y496570D02*
Y517627D01*
X1320079Y519618D02*
X1320079D01*
X1320079Y523600D02*
X1322070D01*
X1318867Y527582D02*
X1322070D01*
X1318867Y531564D02*
X1322710D01*
X1317440Y535546D02*
X1322710D01*
X1317440Y539527D02*
X1322710D01*
X1317440Y543509D02*
X1322710D01*
X1317440Y547491D02*
X1322710D01*
X1317440Y551473D02*
X1322710D01*
X1317440Y555455D02*
X1322710D01*
X1317440Y559437D02*
X1322710D01*
X1317440Y563419D02*
X1322710D01*
X1317440Y567400D02*
X1322710D01*
X1317440Y571382D02*
X1322710D01*
X1317440Y575364D02*
X1322710D01*
X1317440Y579346D02*
X1322710D01*
X1317440Y583328D02*
X1322710D01*
X1317440Y587310D02*
X1322710D01*
X1317440Y591292D02*
X1322710D01*
X1317440Y595273D02*
X1322710D01*
X1317440Y599255D02*
X1322710D01*
X1317440Y603237D02*
X1322710D01*
X1317440Y607219D02*
X1322710D01*
X1317440Y611201D02*
X1322710D01*
X1317440Y615183D02*
X1322710D01*
X1317440Y619165D02*
X1322710D01*
X1317440Y623146D02*
X1322710D01*
X1317440Y627128D02*
X1322710D01*
X1317440Y631110D02*
X1322710D01*
X1317440Y635092D02*
X1322710D01*
X1317440Y639074D02*
X1322710D01*
X1317440Y643056D02*
X1322710D01*
X1317440Y647038D02*
X1322710D01*
X1317440Y651019D02*
X1322710D01*
X1319282Y655001D02*
X1322710D01*
X1319282Y658983D02*
X1320079D01*
X1322070Y660974D02*
Y661123D01*
X1319631Y663562D02*
X1322070Y661123D01*
X1319631Y663562D02*
Y665423D01*
Y666649D01*
X1315230Y671050D02*
X1319631Y666649D01*
X1308247Y342902D02*
Y351973D01*
X1299624Y353964D02*
X1306256D01*
X1299624Y357946D02*
X1311762D01*
X1297798Y361927D02*
X1311762D01*
X1297798Y365909D02*
X1312479D01*
X1297798Y369891D02*
X1312479D01*
X1297798Y373873D02*
X1316895D01*
X1301896Y377855D02*
X1316895D01*
X1301896Y381837D02*
X1316895D01*
X1315744Y385819D02*
X1316895D01*
X1313753Y387809D02*
Y395773D01*
X1315744Y397764D02*
X1316895D01*
X1313057Y401746D02*
X1316895D01*
X1313057Y405728D02*
X1316895D01*
X1313057Y409710D02*
X1316895D01*
X1313057Y413692D02*
X1316895D01*
X1313057Y417673D02*
X1316895D01*
X1313057Y421655D02*
X1316895D01*
X1313057Y425637D02*
X1316895D01*
X1313057Y429619D02*
X1316895D01*
X1313057Y433601D02*
X1316895D01*
X1313057Y437583D02*
X1316895D01*
X1313057Y441564D02*
X1316895D01*
X1313057Y445546D02*
X1316895D01*
X1313057Y449528D02*
X1316895D01*
X1313057Y453510D02*
X1316895D01*
X1313057Y457492D02*
X1316895D01*
X1313057Y461474D02*
X1316895D01*
X1313057Y465456D02*
X1316895D01*
X1313057Y469437D02*
X1316895D01*
X1313057Y473419D02*
X1316895D01*
X1313057Y477401D02*
X1316895D01*
X1313057Y481383D02*
X1316895D01*
X1313057Y485365D02*
X1316895D01*
X1315744Y489347D02*
X1316895D01*
X1315744Y493329D02*
X1316895D01*
X1310517Y497310D02*
X1316895D01*
X1310517Y501292D02*
X1316895D01*
X1310517Y505274D02*
X1316895D01*
X1310517Y509256D02*
X1316895D01*
X1315744Y513238D02*
X1316895D01*
X1313753Y515229D02*
Y515696D01*
X1308247Y316064D02*
Y342902D01*
X1313753Y515696D02*
Y657654D01*
X1299649Y659303D02*
X1302351D01*
X1295462Y663489D02*
X1299649Y659303D01*
X1295462Y663489D02*
Y673431D01*
X1291000Y677893D02*
X1295462Y673431D01*
X1291000Y677893D02*
Y684000D01*
X1302351Y659303D02*
X1306000Y662952D01*
Y665049D02*
X1309228Y668277D01*
X1312771D01*
X1315720Y665329D01*
Y659621D02*
Y665329D01*
X1306000Y662952D02*
Y665049D01*
X1313753Y657654D02*
X1315720Y659621D01*
X1308050Y671050D02*
X1315230D01*
X1301000Y664000D02*
X1308050Y671050D01*
X1257300Y733807D02*
Y934720D01*
X1239520Y952500D02*
X1257300Y934720D01*
Y733807D02*
X1260857Y730250D01*
X814705Y929005D02*
X847090Y896620D01*
X943610D01*
X1005840Y958850D01*
X1121410Y828040D02*
Y952500D01*
Y828040D02*
X1156970Y792480D01*
Y704137D02*
Y792480D01*
Y704137D02*
X1177107Y684000D01*
X1181000D01*
X982980Y1022350D02*
X1012190Y993140D01*
X739550Y993050D02*
X768850Y1022350D01*
X1012190Y969010D02*
Y993140D01*
X1127760Y919480D02*
Y958850D01*
Y919480D02*
X1134110Y913130D01*
Y824230D02*
Y913130D01*
Y824230D02*
X1165860Y792480D01*
Y701040D02*
Y792480D01*
Y701040D02*
X1172900Y694000D01*
X1181000D01*
X1134110Y923290D02*
Y952500D01*
Y923290D02*
X1139190Y918210D01*
X1151890Y930609D02*
X1163742Y918756D01*
X1151890Y930609D02*
Y961390D01*
X1241409Y295291D02*
X1247927Y288773D01*
X1245194Y458348D02*
X1249126Y462280D01*
X1245194Y454037D02*
Y458348D01*
X1243203Y452046D02*
X1243203D01*
X1243203Y448064D02*
X1250210D01*
X1241937Y444082D02*
X1250210D01*
X1241937Y440100D02*
X1250972D01*
X1241937Y436118D02*
X1250972D01*
X1241937Y432136D02*
X1250972D01*
X1240667Y428155D02*
X1250972D01*
X1240667Y424173D02*
X1250972D01*
X1245534Y420191D02*
X1250972D01*
X1245534Y416209D02*
X1253363D01*
X1237036Y412227D02*
X1253363D01*
X1237036Y408245D02*
X1250972D01*
X1237025Y404263D02*
X1250972D01*
X1237025Y400282D02*
X1253363D01*
X1242994Y396300D02*
X1253363D01*
X1242994Y392318D02*
X1253363D01*
X1242994Y388336D02*
X1253363D01*
X1242994Y384354D02*
X1253363D01*
X1237025Y380372D02*
X1253363D01*
X1237025Y376390D02*
X1245886D01*
X1237025Y372409D02*
X1245886D01*
X1237025Y368427D02*
X1243203D01*
X1237025Y364445D02*
X1243203D01*
X1237025Y360463D02*
X1243203D01*
X1245194Y357034D02*
Y358472D01*
X1238441Y350281D02*
X1245194Y357034D01*
X1238441Y306708D02*
Y350281D01*
X1240432Y304717D02*
X1243773D01*
X1240432Y300735D02*
X1243773D01*
X1238441Y298259D02*
Y298744D01*
Y298259D02*
X1241409Y295291D01*
X1247140Y542914D02*
Y548640D01*
X1249131Y540923D02*
X1249131D01*
X1246083Y536941D02*
X1249131D01*
X1246083Y532959D02*
X1253430D01*
X1245744Y528977D02*
X1253430D01*
X1245744Y524995D02*
X1253430D01*
X1235442Y521013D02*
X1253430D01*
X1235442Y517032D02*
X1253430D01*
X1235744Y513050D02*
X1253430D01*
X1235744Y509068D02*
X1246256D01*
X1245744Y505086D02*
X1246256D01*
X1245744Y501104D02*
X1253430D01*
X1235442Y497122D02*
X1253430D01*
X1235442Y493140D02*
X1253430D01*
X1235442Y489159D02*
X1253430D01*
X1235442Y485177D02*
X1253430D01*
X1235442Y481195D02*
X1253430D01*
X1235442Y477213D02*
X1247861D01*
X1235442Y473231D02*
X1247861D01*
X1235442Y469249D02*
X1242595D01*
X1242952Y464800D02*
X1244003Y465851D01*
X1239198Y461046D02*
X1242952Y464800D01*
X1262613Y288773D02*
X1266890Y293050D01*
X1247927Y288773D02*
X1262613D01*
X1268875Y287035D02*
X1274890Y293050D01*
X1244585Y287035D02*
X1268875D01*
X1233170Y298450D02*
X1244585Y287035D01*
X1260857Y730250D02*
X1267250D01*
X1271000Y734000D01*
X1153160Y923290D02*
X1158240Y918210D01*
Y833120D02*
Y918210D01*
Y833120D02*
X1197610Y793750D01*
Y727390D02*
Y793750D01*
Y727390D02*
X1201000Y724000D01*
X1181100Y834248D02*
X1235710Y779638D01*
Y734817D02*
Y779638D01*
X1231000Y724000D02*
Y730107D01*
X1235710Y734817D01*
X1187450Y838962D02*
X1212088D01*
X1242215Y808835D01*
X1201000Y738900D02*
X1216660Y754560D01*
X1201000Y734000D02*
Y738900D01*
X1143000Y830580D02*
Y944880D01*
X1139190Y826770D02*
Y918210D01*
X1146810Y835660D02*
Y955040D01*
X1211000Y734000D02*
Y740107D01*
X1223010Y752117D01*
X1231000Y738194D02*
X1233753Y740947D01*
X1231000Y734000D02*
Y738194D01*
X1242215Y749178D02*
Y808835D01*
X1241000Y747963D02*
X1242215Y749178D01*
X1155700Y1016000D02*
X1167130D01*
X1248753Y934377D01*
Y753253D02*
Y934377D01*
X1248247Y752747D02*
X1248753Y753253D01*
X1248247Y742860D02*
Y752747D01*
Y742860D02*
X1251000Y740107D01*
Y734000D02*
Y740107D01*
X1241000Y734000D02*
Y747963D01*
X1322283Y371324D02*
Y496357D01*
X1315449Y335991D02*
Y343070D01*
X1317440Y334000D02*
X1317440D01*
X1312110Y330018D02*
X1317440D01*
X1312110Y326036D02*
X1316824D01*
X1311934Y322054D02*
X1316824D01*
X1311934Y318072D02*
X1316824D01*
X1310663Y314091D02*
X1316824D01*
X1310663Y310109D02*
X1316824D01*
X1307280Y306127D02*
X1316824D01*
X1307280Y302145D02*
X1313458D01*
X1315449Y300144D02*
Y300154D01*
X1314992Y299687D02*
X1315449Y300144D01*
Y343070D02*
Y364490D01*
X1322283Y371324D01*
X1313815Y298510D02*
X1314992Y299687D01*
X1322070Y496570D02*
X1322283Y496357D01*
X1264753Y567753D02*
X1277505Y580505D01*
X1261938Y567753D02*
X1261938Y567753D01*
X1261719Y567973D02*
X1261938Y567753D01*
X1258903Y567973D02*
X1258903Y567973D01*
X1258903Y565157D02*
X1263084Y560976D01*
X1263084Y560976D02*
X1263084Y560976D01*
X1260268Y558161D02*
X1260268Y558161D01*
X1256069Y562360D02*
X1260268Y558161D01*
X1256069Y562360D02*
X1256069Y562360D01*
X1253253Y559544D02*
X1253253Y559544D01*
X1256839Y555959D01*
X1256839Y555959D02*
X1256839Y555959D01*
X1256839Y553143D02*
X1256839Y553143D01*
X1254024Y553143D02*
X1254024Y553143D01*
X1246307Y560860D02*
X1254024Y553143D01*
X1246307Y560860D02*
X1246307Y560860D01*
X1243491Y558044D02*
X1243491Y558044D01*
X1247860Y553675D01*
X1247530Y550530D02*
X1247860Y550860D01*
X1277505Y580505D02*
X1281000Y584000D01*
X1247140Y550140D02*
X1247530Y550530D01*
X1247140Y548640D02*
Y550140D01*
X1233170Y412750D02*
X1236592Y416172D01*
X1236980Y458828D02*
X1239198Y461046D01*
X1236980Y456458D02*
Y458828D01*
X1230796Y454467D02*
X1234989D01*
X1230796Y450485D02*
X1236259D01*
X1230796Y446503D02*
X1236259D01*
X1230796Y442521D02*
X1236259D01*
X1230796Y438539D02*
X1236259D01*
X1230796Y434558D02*
X1236259D01*
X1230796Y430576D02*
X1236259D01*
X1230796Y426594D02*
X1234989D01*
X1236980Y416560D02*
Y424603D01*
X1236592Y416172D02*
X1236980Y416560D01*
X1233170Y298450D02*
Y412750D01*
X1263928Y552976D02*
X1266005Y555054D01*
X1263928Y523062D02*
Y552976D01*
X1265919Y521071D02*
X1267360D01*
X1259717Y517089D02*
X1267360D01*
X1259717Y513107D02*
X1270123D01*
X1265740Y509126D02*
X1270123D01*
X1265740Y505144D02*
X1266256D01*
X1259717Y501162D02*
X1266256D01*
X1259717Y497180D02*
X1266141D01*
X1259717Y493198D02*
X1266141D01*
X1259717Y489216D02*
X1262919D01*
X1259717Y485234D02*
X1262919D01*
X1259717Y481253D02*
X1261937D01*
X1263928Y478795D02*
Y479262D01*
X1266005Y555054D02*
X1294951Y584000D01*
X1263928Y477082D02*
Y478795D01*
X1249126Y462280D02*
X1263928Y477082D01*
X1273810Y519430D02*
X1283909Y529529D01*
X1273810Y498987D02*
Y519430D01*
X1271819Y496996D02*
X1271819D01*
X1271819Y493014D02*
X1273810D01*
X1268596Y489033D02*
X1273810D01*
X1268596Y485051D02*
X1275717D01*
X1267615Y481069D02*
X1275717D01*
X1267615Y477087D02*
X1275717D01*
X1265919Y473105D02*
X1275717D01*
X1265919Y469123D02*
X1275717D01*
X1256649Y465141D02*
X1275717D01*
X1256649Y461160D02*
X1275717D01*
X1256649Y457178D02*
X1275717D01*
X1256649Y453196D02*
X1275717D01*
X1256649Y449214D02*
X1275717D01*
X1256649Y445232D02*
X1275717D01*
X1256649Y441250D02*
X1275717D01*
X1256649Y437268D02*
X1275717D01*
X1256649Y433287D02*
X1275717D01*
X1256649Y429305D02*
X1275717D01*
X1256649Y425323D02*
X1275717D01*
X1256649Y421341D02*
X1279861D01*
X1269664Y417359D02*
X1279861D01*
X1269664Y413377D02*
X1275717D01*
X1256649Y409395D02*
X1275717D01*
X1256649Y405414D02*
X1262854D01*
X1263212Y400965D02*
X1264262Y402015D01*
X1283909Y529529D02*
X1285240Y530860D01*
Y568240D01*
X1291000Y574000D01*
X1246890Y353873D02*
Y358451D01*
X1244432Y351882D02*
X1244899D01*
X1244432Y347901D02*
X1247480D01*
X1242128Y343919D02*
X1247480D01*
X1242128Y339937D02*
X1247480D01*
X1242128Y335955D02*
X1247480D01*
X1242128Y331973D02*
X1247480D01*
X1242128Y327991D02*
X1247480D01*
X1242128Y324009D02*
X1247480D01*
X1242128Y320028D02*
X1247480D01*
X1242128Y316046D02*
X1244899D01*
X1246890Y313588D02*
Y314055D01*
Y310707D02*
Y313588D01*
X1261323Y399076D02*
X1263212Y400965D01*
X1290552Y333649D02*
Y372110D01*
Y374882D01*
X1311000Y660524D02*
Y663378D01*
X1308208Y658533D02*
X1309009D01*
X1308208Y654551D02*
X1310066D01*
X1288822Y650569D02*
X1310066D01*
X1288822Y646587D02*
X1310066D01*
X1288822Y642606D02*
X1310066D01*
X1288822Y638624D02*
X1310066D01*
X1305744Y634642D02*
X1310066D01*
X1305744Y630660D02*
X1310066D01*
X1305744Y626678D02*
X1310066D01*
X1305744Y622696D02*
X1310066D01*
X1305744Y618714D02*
X1310066D01*
X1305744Y614733D02*
X1310066D01*
X1288822Y610751D02*
X1310066D01*
X1288822Y606769D02*
X1310066D01*
X1305671Y602787D02*
X1310066D01*
X1305671Y598805D02*
X1310066D01*
X1288822Y594823D02*
X1310066D01*
X1288822Y590841D02*
X1310066D01*
X1305744Y586860D02*
X1310066D01*
X1305744Y582878D02*
X1310066D01*
X1297268Y578896D02*
X1310066D01*
X1297268Y574914D02*
X1310066D01*
X1297440Y570932D02*
X1310066D01*
X1297440Y566950D02*
X1310066D01*
X1305744Y562968D02*
X1310066D01*
X1305744Y558987D02*
X1310066D01*
X1305744Y555005D02*
X1310066D01*
X1305744Y551023D02*
X1309009D01*
X1311000Y548565D02*
Y549032D01*
Y521060D02*
Y548565D01*
Y663378D02*
Y664000D01*
X1296844Y402764D02*
X1300690Y406610D01*
X1296844Y399949D02*
X1296844Y399949D01*
X1296844Y399949D01*
X1292621Y398541D02*
X1294029Y397133D01*
X1289805Y398541D02*
X1289805Y398541D01*
X1289805Y395726D02*
X1297710Y387821D01*
X1286422Y393478D02*
X1294894Y385005D01*
X1283606Y390662D02*
X1292362Y381906D01*
X1292362Y379090D02*
X1292362Y379091D01*
X1280791Y387847D02*
X1289547Y379090D01*
X1277975Y385031D02*
X1286973Y376034D01*
X1275159Y382215D02*
X1284157Y373218D01*
X1272344Y379400D02*
X1281341Y370402D01*
X1281341Y367587D02*
X1281341Y367587D01*
X1269528Y376584D02*
X1278526Y367587D01*
X1266712Y373769D02*
X1275710Y364771D01*
X1263897Y370953D02*
X1272895Y361955D01*
X1261081Y370953D02*
X1261081Y370953D01*
X1261081Y368138D02*
X1270079Y359140D01*
X1258266Y365322D02*
X1267263Y356324D01*
X1255450Y365322D02*
Y365322D01*
X1255450Y365322D02*
X1255450D01*
Y362506D02*
X1264448Y353509D01*
X1258570Y346056D02*
Y348124D01*
Y306248D02*
Y346056D01*
X1301000Y550424D02*
Y554000D01*
X1297440Y548433D02*
X1299009D01*
X1297440Y544451D02*
X1307313D01*
X1297440Y540469D02*
X1307313D01*
X1297440Y536487D02*
X1307313D01*
X1297440Y532505D02*
X1307313D01*
X1297440Y528523D02*
X1307313D01*
X1300058Y524542D02*
X1307313D01*
X1300058Y520560D02*
X1303143D01*
X1300786Y516578D02*
X1303143D01*
X1300786Y512596D02*
X1303143D01*
X1300786Y508614D02*
X1303143D01*
X1300786Y504632D02*
X1303143D01*
X1300786Y500650D02*
X1303143D01*
X1300786Y496669D02*
X1303143D01*
X1300786Y492687D02*
X1303143D01*
X1300786Y488705D02*
X1305683D01*
X1300786Y484723D02*
X1305683D01*
X1300786Y480741D02*
X1305683D01*
X1300786Y476759D02*
X1305683D01*
X1300786Y472777D02*
X1305683D01*
X1300786Y468796D02*
X1305683D01*
X1300786Y464814D02*
X1305683D01*
X1300786Y460832D02*
X1305683D01*
X1300786Y456850D02*
X1305683D01*
X1300786Y452868D02*
X1305683D01*
X1300786Y448886D02*
X1305683D01*
X1300786Y444904D02*
X1305683D01*
X1300786Y440923D02*
X1305683D01*
X1300786Y436941D02*
X1305683D01*
X1300786Y432959D02*
X1305683D01*
X1300786Y428977D02*
X1305683D01*
X1300786Y424995D02*
X1305683D01*
X1300786Y421013D02*
X1305683D01*
X1300786Y417031D02*
X1305683D01*
X1302991Y413050D02*
X1305683D01*
X1301000Y406920D02*
Y411059D01*
X1300690Y406610D02*
X1301000Y406920D01*
X1291000Y549806D02*
Y550845D01*
Y549806D02*
X1293753Y547053D01*
Y526101D02*
Y547053D01*
X1287357Y524110D02*
X1291762D01*
X1287357Y520128D02*
X1295275D01*
X1285744Y516147D02*
X1295275D01*
X1285744Y512165D02*
X1295275D01*
X1281395Y508183D02*
X1295275D01*
X1281395Y504201D02*
X1295275D01*
X1281395Y500219D02*
X1295275D01*
X1281395Y496237D02*
X1295275D01*
X1281395Y492255D02*
X1295275D01*
X1281395Y488274D02*
X1295275D01*
X1281395Y484292D02*
X1295275D01*
X1281395Y480310D02*
X1295275D01*
X1281395Y476328D02*
X1295275D01*
X1281395Y472346D02*
X1295275D01*
X1281395Y468364D02*
X1295275D01*
X1281395Y464382D02*
X1295275D01*
X1281395Y460401D02*
X1295275D01*
X1281395Y456419D02*
X1295275D01*
X1281395Y452437D02*
X1295275D01*
X1281395Y448455D02*
X1295275D01*
X1281395Y444473D02*
X1295275D01*
X1281395Y440491D02*
X1295275D01*
X1281395Y436509D02*
X1295275D01*
X1281395Y432528D02*
X1295275D01*
X1281395Y428546D02*
X1295275D01*
X1281395Y424564D02*
X1295275D01*
X1289349Y420582D02*
X1295275D01*
X1289349Y416600D02*
X1295275D01*
X1281395Y412618D02*
X1295275D01*
X1281395Y408636D02*
X1291762D01*
X1293753Y406023D02*
Y406645D01*
X1291918Y404188D02*
X1293753Y406023D01*
X1251167Y363437D02*
X1291918Y404188D01*
X1291000Y550845D02*
Y554000D01*
X1306830Y492760D02*
X1309370Y490220D01*
Y393700D02*
Y490220D01*
X1290552Y374882D02*
X1309370Y393700D01*
X1306830Y492760D02*
Y516890D01*
X1311000Y521060D01*
X1302890Y310707D02*
X1308247Y316064D01*
X1255535Y303213D02*
X1258570Y306248D01*
X1251167Y308068D02*
Y363437D01*
X1247460Y304361D02*
X1251167Y308068D01*
X1247460Y296480D02*
Y304361D01*
X1253053Y303213D02*
X1255535D01*
X1250890Y301050D02*
X1253053Y303213D01*
X1294951Y584000D02*
X1301000D01*
X1282890Y325987D02*
X1290552Y333649D01*
X1282890Y301050D02*
Y325987D01*
X1247460Y296480D02*
X1250890Y293050D01*
D326*
X547843Y908236D02*
X549736Y910129D01*
X547135Y900152D02*
Y904823D01*
X544825Y905780D02*
X545533Y906488D01*
X544825Y901108D02*
Y905780D01*
X507885Y860902D02*
X547135Y900152D01*
X543640Y910129D02*
Y910590D01*
X547843Y905531D02*
Y908236D01*
X547135Y904823D02*
X547843Y905531D01*
X543640Y910129D02*
X545533Y908236D01*
Y906488D02*
Y908236D01*
X549736Y910129D02*
Y910590D01*
X505575Y860250D02*
Y861858D01*
X507885Y860250D02*
Y860902D01*
X505575Y861858D02*
X544825Y901108D01*
X709178Y953403D02*
Y953897D01*
X709931Y948065D02*
X710955D01*
X672604Y833351D02*
Y917596D01*
X707301Y951525D02*
X709178Y953403D01*
X674914Y832394D02*
Y916639D01*
X708781Y949215D02*
X709931Y948065D01*
X674914Y916639D02*
X707490Y949215D01*
X708781D01*
X672604Y917596D02*
X706534Y951525D01*
X707301D01*
X709320Y964532D02*
X710237D01*
X660400Y915476D02*
X699699Y954775D01*
X706988Y962199D02*
X709320Y964532D01*
X704217Y962660D02*
X704678Y962199D01*
X706988Y960592D02*
Y962199D01*
X700214Y957085D02*
X704678Y961548D01*
Y962199D01*
X699699Y954775D02*
X701171D01*
X698742Y957085D02*
X700214D01*
X700654Y962660D02*
X704217D01*
X701171Y954775D02*
X706988Y960592D01*
X658090Y916433D02*
X698742Y957085D01*
X643011Y820130D02*
X660400Y837519D01*
X515402Y815892D02*
X519640Y820130D01*
X643011D01*
X515402Y815241D02*
Y815892D01*
Y815241D02*
X515863Y814781D01*
X518683Y822440D02*
X642054D01*
X658090Y838476D01*
Y916433D01*
X513092Y813976D02*
Y816849D01*
X494030Y814781D02*
X496404Y812407D01*
X511523D01*
X515863Y814781D02*
X519430D01*
X513092Y816849D02*
X518683Y822440D01*
X511523Y812407D02*
X513092Y813976D01*
X660400Y837519D02*
Y915476D01*
X649513Y810260D02*
X672604Y833351D01*
X650470Y807950D02*
X674914Y832394D01*
X572420Y810260D02*
X649513D01*
X571464Y807950D02*
X650470D01*
X571845Y812407D02*
X580556D01*
X582930Y814781D01*
X571385Y811295D02*
Y811946D01*
Y811295D02*
X572420Y810260D01*
X571385Y811946D02*
X571845Y812407D01*
X569075Y810339D02*
X571464Y807950D01*
X569075Y810339D02*
Y811946D01*
X566241Y814781D02*
X569075Y811946D01*
X557530Y814781D02*
X566241D01*
X494030Y859790D02*
X505115D01*
X505575Y860250D01*
X508345Y859790D02*
X519430D01*
X507885Y860250D02*
X508345Y859790D01*
D327*
X1197610Y442340D02*
G03*
X1201770Y438180I4160J0D01*
G01*
X1203486Y429861D02*
G03*
X1203486Y438180I0J4160D01*
G01*
X1196092Y429861D02*
G03*
X1196092Y421541I0J-4160D01*
G01*
X1203610Y413221D02*
G03*
X1203610Y421541I0J4160D01*
G01*
X1196092Y413221D02*
G03*
X1196092Y404902I0J-4160D01*
G01*
X1203610Y396582D02*
G03*
X1203610Y404902I0J4160D01*
G01*
X1196092Y396582D02*
G03*
X1196092Y388262I0J-4160D01*
G01*
X1203610Y379943D02*
G03*
X1203610Y388262I0J4160D01*
G01*
X1196092Y379943D02*
G03*
X1196092Y371623I0J-4160D01*
G01*
X1203610Y363303D02*
G03*
X1203610Y371623I0J4160D01*
G01*
X1196092Y363303D02*
G03*
X1196092Y354984I0J-4160D01*
G01*
X1203610Y346664D02*
G03*
X1203610Y354984I0J4160D01*
G01*
X1196092Y346664D02*
G03*
X1196092Y338344I0J-4160D01*
G01*
X1203610Y330025D02*
G03*
X1203610Y338344I0J4160D01*
G01*
X1196092Y330025D02*
G03*
X1196092Y321705I0J-4160D01*
G01*
X1203610Y313385D02*
G03*
X1203610Y321705I0J4160D01*
G01*
X1201770Y313385D02*
G03*
X1197610Y309225I0J-4160D01*
G01*
X1106569Y499073D02*
G03*
X1106590Y499560I-5562J486D01*
G01*
X1106288Y495861D02*
G03*
X1106976Y492651I5562J-486D01*
G01*
X1106976Y488025D02*
G03*
X1106976Y492651I-2313J2313D01*
G01*
X1102350Y488025D02*
G03*
X1106976Y488025I2313J2313D01*
G01*
X1096030Y494345D02*
G03*
X1091404Y494345I-2313J-2313D01*
G01*
D02*
G03*
X1091404Y489720I2313J-2313D01*
G01*
X1097867Y478632D02*
G03*
X1097867Y483257I-2313J2313D01*
G01*
X1093241Y478632D02*
G03*
X1097867Y478632I2313J2313D01*
G01*
X1086779Y485094D02*
G03*
X1082153Y485094I-2313J-2313D01*
G01*
X1082153Y485094D02*
G03*
X1082153Y480468I2313J-2313D01*
G01*
X1088615Y469380D02*
G03*
X1088615Y474006I-2313J2313D01*
G01*
X1083990Y469380D02*
G03*
X1088615Y469380I2313J2313D01*
G01*
X1077527Y475843D02*
G03*
X1072902Y475843I-2313J-2313D01*
G01*
X1072902Y475843D02*
G03*
X1072902Y471217I2313J-2313D01*
G01*
X1079364Y460129D02*
G03*
X1079364Y464755I-2313J2313D01*
G01*
X1074739Y460129D02*
G03*
X1079364Y460129I2313J2313D01*
G01*
X1068276Y466591D02*
G03*
X1063650Y466591I-2313J-2313D01*
G01*
X1063650Y466591D02*
G03*
X1063650Y461966I2313J-2313D01*
G01*
X1065167Y455824D02*
G03*
X1065167Y460449I-2313J2313D01*
G01*
X1094384Y351870D02*
G03*
X1094384Y347244I2313J-2313D01*
G01*
X1094384Y342618D02*
G03*
X1094384Y347244I-2313J2313D01*
G01*
X1089759Y342618D02*
G03*
X1094384Y342618I2313J2313D01*
G01*
X1083358Y349019D02*
G03*
X1078733Y349019I-2313J-2313D01*
G01*
D02*
G03*
X1078733Y344393I2313J-2313D01*
G01*
X1087691Y330809D02*
G03*
X1087691Y335434I-2313J2313D01*
G01*
X1083066Y330809D02*
G03*
X1087691Y330809I2313J2313D01*
G01*
X1073323Y340552D02*
G03*
X1068697Y340552I-2313J-2313D01*
G01*
D02*
G03*
X1068697Y335926I2313J-2313D01*
G01*
X1078440Y321558D02*
G03*
X1078440Y326183I-2313J2313D01*
G01*
X1073814Y321558D02*
G03*
X1078440Y321558I2313J2313D01*
G01*
X1064072Y331300D02*
G03*
X1059446Y331300I-2313J-2313D01*
G01*
D02*
G03*
X1059446Y326675I2313J-2313D01*
G01*
X1069189Y312306D02*
G03*
X1069189Y316932I-2313J2313D01*
G01*
X1064563Y312306D02*
G03*
X1069189Y312306I2313J2313D01*
G01*
X1054820Y322049D02*
G03*
X1050195Y322049I-2313J-2313D01*
G01*
D02*
G03*
X1050195Y317423I2313J-2313D01*
G01*
X1059938Y303055D02*
G03*
X1059938Y307680I-2313J2313D01*
G01*
X1055312Y303055D02*
G03*
X1059937Y303055I2313J2313D01*
G01*
X1045569Y312798D02*
G03*
X1040943Y312798I-2313J-2313D01*
G01*
D02*
G03*
X1040943Y308172I2313J-2313D01*
G01*
X1045722Y301081D02*
G03*
X1044076Y305040I-5584J0D01*
G01*
X1066058Y356469D02*
G03*
X1071042Y356469I2492J2492D01*
G01*
X1061257Y361270D02*
G03*
X1056272Y361270I-2492J-2492D01*
G01*
X1056272Y361270D02*
G03*
X1056272Y356285I2492J-2492D01*
G01*
X1062778Y344794D02*
G03*
X1062778Y349779I-2492J2492D01*
G01*
X1057793Y344794D02*
G03*
X1062778Y344794I2492J2492D01*
G01*
X1050053Y352534D02*
G03*
X1045069Y352534I-2492J-2492D01*
G01*
D02*
G03*
X1045069Y347549I2492J-2492D01*
G01*
X1052808Y334825D02*
G03*
X1052808Y339809I-2492J2492D01*
G01*
X1047823Y334825D02*
G03*
X1052808Y334825I2492J2492D01*
G01*
X1040084Y342564D02*
G03*
X1035099Y342564I-2492J-2492D01*
G01*
X1035099Y342564D02*
G03*
X1035099Y337579I2492J-2492D01*
G01*
X1041133Y326560D02*
G03*
X1041133Y331545I-2492J2492D01*
G01*
X1181165Y310184D02*
G03*
X1185791Y310184I2313J2313D01*
G01*
X1175136Y316213D02*
G03*
X1170510Y316213I-2313J-2313D01*
G01*
D02*
G03*
X1170510Y311588I2313J-2313D01*
G01*
X1183417Y294055D02*
G03*
X1183417Y298681I-2313J2313D01*
G01*
X1178791Y294055D02*
G03*
X1183417Y294055I2313J2313D01*
G01*
X1165194Y307652D02*
G03*
X1160568Y307652I-2313J-2313D01*
G01*
D02*
G03*
X1160568Y303027I2313J-2313D01*
G01*
X1174165Y284804D02*
G03*
X1174165Y289430I-2313J2313D01*
G01*
X1169540Y284804D02*
G03*
X1174165Y284804I2313J2313D01*
G01*
X1156830Y297513D02*
G03*
X1152205Y297513I-2313J-2313D01*
G01*
D02*
G03*
X1152205Y292888I2313J-2313D01*
G01*
X1164914Y275553D02*
G03*
X1164914Y280178I-2313J2313D01*
G01*
X1160288Y275553D02*
G03*
X1164914Y275553I2313J2313D01*
G01*
X1158037Y277804D02*
G03*
X1153411Y277804I-2313J-2313D01*
G01*
X1116406Y245425D02*
G03*
X1121031Y245425I2313J2313D01*
G01*
X1109686Y252144D02*
G03*
X1105061Y252144I-2313J-2313D01*
G01*
X1105061Y252144D02*
G03*
X1105061Y247519I2313J-2313D01*
G01*
X1118657Y229296D02*
G03*
X1118657Y233922I-2313J2313D01*
G01*
X1114032Y229296D02*
G03*
X1118657Y229296I2313J2313D01*
G01*
X1100435Y242893D02*
G03*
X1095809Y242893I-2313J-2313D01*
G01*
X1095809Y242893D02*
G03*
X1095809Y238267I2313J-2313D01*
G01*
X1103867Y225584D02*
G03*
X1103867Y230210I-2313J2313D01*
G01*
X1099241Y225584D02*
G03*
X1103867Y225584I2313J2313D01*
G01*
X1091516Y233310D02*
G03*
X1086890Y233310I-2313J-2313D01*
G01*
X1086890Y233310D02*
G03*
X1086890Y228684I2313J-2313D01*
G01*
X1093278Y217671D02*
G03*
X1093278Y222296I-2313J2313D01*
G01*
X1191500Y247890D02*
G03*
X1191500Y242007I2941J-2941D01*
G01*
X1191500Y236124D02*
G03*
X1191500Y242007I-2941J2941D01*
G01*
X1185617Y236124D02*
G03*
X1191500Y236124I2941J2941D01*
G01*
X1177299Y244443D02*
G03*
X1171416Y244443I-2941J-2941D01*
G01*
D02*
G03*
X1171416Y238560I2941J-2941D01*
G01*
X1179796Y224297D02*
G03*
X1179796Y230180I-2941J2941D01*
G01*
X1173913Y224297D02*
G03*
X1179796Y224297I2941J2941D01*
G01*
X1158613Y239597D02*
G03*
X1152730Y239596I-2941J-2941D01*
G01*
D02*
G03*
X1152730Y233714I2941J-2941D01*
G01*
X1162955Y217605D02*
G03*
X1162955Y223488I-2941J2941D01*
G01*
X1157073Y217605D02*
G03*
X1162955Y217605I2941J2941D01*
G01*
X1146847Y227831D02*
G03*
X1140965Y227831I-2941J-2941D01*
G01*
D02*
G03*
X1140965Y221948I2941J-2941D01*
G01*
X1156264Y200765D02*
G03*
X1156264Y206648I-2941J2941D01*
G01*
X1150381Y200765D02*
G03*
X1156264Y200765I2941J2941D01*
G01*
X1150320Y200827D02*
G03*
X1144437Y200827I-2941J-2941D01*
G01*
X954425Y137775D02*
G03*
X951236Y137775I-1594J-1594D01*
G01*
X947309Y137036D02*
G03*
X950497Y137036I1594J1594D01*
G01*
X947309Y140225D02*
G03*
X947309Y137036I1594J-1594D01*
G01*
X948047Y140964D02*
G03*
X948047Y144153I-1594J1594D01*
G01*
X978820Y297306D02*
G03*
X982980Y301466I0J4160D01*
G01*
X978820Y297306D02*
G03*
X978820Y288986I0J-4160D01*
G01*
X987374Y280667D02*
G03*
X987374Y288986I0J4160D01*
G01*
X976516Y280667D02*
G03*
X976516Y272347I0J-4160D01*
G01*
X988980Y264027D02*
G03*
X988980Y272347I0J4160D01*
G01*
X976516Y264027D02*
G03*
X976516Y255708I0J-4160D01*
G01*
X988980Y247388D02*
G03*
X988980Y255708I0J4160D01*
G01*
X976516Y247388D02*
G03*
X976516Y239068I0J-4160D01*
G01*
X988980Y230749D02*
G03*
X988980Y239068I0J4160D01*
G01*
X976516Y230749D02*
G03*
X976516Y222429I0J-4160D01*
G01*
X988980Y214109D02*
G03*
X988980Y222429I0J4160D01*
G01*
X976516Y214109D02*
G03*
X976516Y205790I0J-4160D01*
G01*
X988980Y197470D02*
G03*
X988980Y205790I0J4160D01*
G01*
X977398Y197470D02*
G03*
X977398Y189150I0J-4160D01*
G01*
X987939Y187070D02*
G03*
X982918Y189150I-5021J-5021D01*
G01*
X1018343Y491516D02*
G03*
X1024765Y491516I3211J3211D01*
G01*
X1018106Y491753D02*
G03*
X1011684Y491752I-3211J-3211D01*
G01*
X1011684Y491753D02*
G03*
X1011684Y485331I3211J-3211D01*
G01*
X1019106Y471488D02*
G03*
X1019106Y477910I-3211J3211D01*
G01*
X1012684Y471488D02*
G03*
X1019106Y471488I3211J3211D01*
G01*
X1004737Y479435D02*
G03*
X998315Y479435I-3211J-3211D01*
G01*
X998315Y479435D02*
G03*
X998315Y473013I3211J-3211D01*
G01*
X1006262Y458645D02*
G03*
X1006262Y465066I-3211J3211D01*
G01*
X999840Y458645D02*
G03*
X1006262Y458645I3211J3211D01*
G01*
X991894Y466591D02*
G03*
X985472Y466591I-3211J-3211D01*
G01*
X985472Y466591D02*
G03*
X985472Y460170I3211J-3211D01*
G01*
X986235Y452985D02*
G03*
X986235Y459407I-3211J3211D01*
G01*
X930560Y308478D02*
G03*
X934720Y312638I0J4160D01*
G01*
X930560Y308478D02*
G03*
X930560Y300159I0J-4160D01*
G01*
X936255Y291839D02*
G03*
X936255Y300159I0J4160D01*
G01*
X928720Y291839D02*
G03*
X928720Y283519I0J-4160D01*
G01*
X940720Y275200D02*
G03*
X940720Y283519I0J4160D01*
G01*
X928720Y275200D02*
G03*
X928720Y266880I0J-4160D01*
G01*
X940720Y258560D02*
G03*
X940720Y266880I0J4160D01*
G01*
X928720Y258560D02*
G03*
X928720Y250240I0J-4160D01*
G01*
X940720Y241921D02*
G03*
X940720Y250240I0J4160D01*
G01*
X928720Y241921D02*
G03*
X928720Y233601I0J-4160D01*
G01*
X940720Y225282D02*
G03*
X940720Y233601I0J4160D01*
G01*
X928720Y225282D02*
G03*
X928720Y216962I0J-4160D01*
G01*
X940720Y208642D02*
G03*
X940720Y216962I0J4160D01*
G01*
X928720Y208642D02*
G03*
X928720Y200322I0J-4160D01*
G01*
X935666Y198242D02*
G03*
X930645Y200322I-5021J-5021D01*
G01*
X1044621Y461508D02*
G03*
X1049247Y461508I2313J2313D01*
G01*
X1044621Y461508D02*
G03*
X1039995Y461508I-2313J-2313D01*
G01*
D02*
G03*
X1039995Y456883I2313J-2313D01*
G01*
X1045163Y447089D02*
G03*
X1045163Y451715I-2313J2313D01*
G01*
X1040537Y447089D02*
G03*
X1045163Y447089I2313J2313D01*
G01*
X1035006Y452620D02*
G03*
X1030381Y452620I-2313J-2313D01*
G01*
D02*
G03*
X1030381Y447994I2313J-2313D01*
G01*
X1035912Y437837D02*
G03*
X1035912Y442463I-2313J2313D01*
G01*
X1031286Y437837D02*
G03*
X1035912Y437837I2313J2313D01*
G01*
X1025755Y443368D02*
G03*
X1021129Y443368I-2313J-2313D01*
G01*
D02*
G03*
X1021129Y438743I2313J-2313D01*
G01*
X1026660Y428586D02*
G03*
X1026660Y433212I-2313J2313D01*
G01*
X1022035Y428586D02*
G03*
X1026660Y428586I2313J2313D01*
G01*
X1016504Y434117D02*
G03*
X1011878Y434117I-2313J-2313D01*
G01*
D02*
G03*
X1011878Y429492I2313J-2313D01*
G01*
X1017409Y419335D02*
G03*
X1017409Y423960I-2313J2313D01*
G01*
X1012784Y419335D02*
G03*
X1017409Y419335I2313J2313D01*
G01*
X1007252Y424866D02*
G03*
X1002627Y424866I-2313J-2313D01*
G01*
D02*
G03*
X1002627Y420240I2313J-2313D01*
G01*
X1008158Y410084D02*
G03*
X1008158Y414709I-2313J2313D01*
G01*
X1003532Y410084D02*
G03*
X1008158Y410084I2313J2313D01*
G01*
X998001Y415615D02*
G03*
X993375Y415615I-2313J-2313D01*
G01*
X993375Y415615D02*
G03*
X993375Y410989I2313J-2313D01*
G01*
X998906Y400832D02*
G03*
X998906Y405458I-2313J2313D01*
G01*
X994281Y400832D02*
G03*
X998906Y400832I2313J2313D01*
G01*
X988750Y406363D02*
G03*
X984124Y406363I-2313J-2313D01*
G01*
X984124Y406363D02*
G03*
X984124Y401738I2313J-2313D01*
G01*
X989655Y391581D02*
G03*
X989655Y396207I-2313J2313D01*
G01*
X985030Y391581D02*
G03*
X989655Y391581I2313J2313D01*
G01*
X979499Y397112D02*
G03*
X974873Y397112I-2313J-2313D01*
G01*
X974873Y397112D02*
G03*
X974873Y392486I2313J-2313D01*
G01*
X980404Y382330D02*
G03*
X980404Y386955I-2313J2313D01*
G01*
X975778Y382330D02*
G03*
X980404Y382330I2313J2313D01*
G01*
X970247Y387861D02*
G03*
X965621Y387861I-2313J-2313D01*
G01*
X965621Y387861D02*
G03*
X965621Y383235I2313J-2313D01*
G01*
X971152Y373078D02*
G03*
X971152Y377704I-2313J2313D01*
G01*
X966527Y373078D02*
G03*
X971152Y373078I2313J2313D01*
G01*
X960996Y378609D02*
G03*
X956370Y378609I-2313J-2313D01*
G01*
X956370Y378609D02*
G03*
X956370Y373984I2313J-2313D01*
G01*
X956733Y368995D02*
G03*
X956733Y373620I-2313J2313D01*
G01*
X962660Y349758D02*
G03*
X965931Y346487I3271J0D01*
G01*
X965931Y339945D02*
G03*
X965931Y346487I0J3271D01*
G01*
X960192Y339945D02*
G03*
X960192Y333404I0J-3271D01*
G01*
X969549Y326862D02*
G03*
X969549Y333404I0J3271D01*
G01*
X959873Y326862D02*
G03*
X959873Y320321I0J-3271D01*
G01*
X969549Y313779D02*
G03*
X969549Y320321I0J3271D01*
G01*
X959873Y313779D02*
G03*
X959873Y307237I0J-3271D01*
G01*
X969549Y300695D02*
G03*
X969549Y307237I0J3271D01*
G01*
X965931Y300695D02*
G03*
X962660Y297425I0J-3271D01*
G01*
X1117620Y470271D02*
G03*
X1118504Y468137I3017J0D01*
G01*
X1118504Y463871D02*
G03*
X1118504Y468137I-2133J2133D01*
G01*
X1114238Y463871D02*
G03*
X1118504Y463871I2133J2133D01*
G01*
X1110959Y467149D02*
G03*
X1106693Y467149I-2133J-2133D01*
G01*
D02*
G03*
X1106693Y462882I2133J-2133D01*
G01*
X1114449Y450860D02*
G03*
X1114449Y455126I-2133J2133D01*
G01*
X1110182Y450860D02*
G03*
X1114449Y450860I2133J2133D01*
G01*
X1100708Y460335D02*
G03*
X1096441Y460335I-2133J-2133D01*
G01*
D02*
G03*
X1096441Y456068I2133J-2133D01*
G01*
X1105916Y442327D02*
G03*
X1105916Y446594I-2133J2133D01*
G01*
X1101650Y442327D02*
G03*
X1105916Y442327I2133J2133D01*
G01*
X1092175Y451802D02*
G03*
X1087908Y451802I-2133J-2133D01*
G01*
X1087908Y451802D02*
G03*
X1087908Y447535I2133J-2133D01*
G01*
X1088169Y443009D02*
G03*
X1088169Y447275I-2133J2133D01*
G01*
X1099039Y431283D02*
G03*
X1103306Y431283I2133J2133D01*
G01*
X1095702Y434621D02*
G03*
X1091436Y434621I-2133J-2133D01*
G01*
X1091436Y434621D02*
G03*
X1091436Y430354I2133J-2133D01*
G01*
X1099761Y417762D02*
G03*
X1099761Y422029I-2133J2133D01*
G01*
X1095495Y417762D02*
G03*
X1099761Y417762I2133J2133D01*
G01*
X1085915Y427341D02*
G03*
X1081649Y427341I-2133J-2133D01*
G01*
D02*
G03*
X1081649Y423075I2133J-2133D01*
G01*
X1091228Y409229D02*
G03*
X1091228Y413496I-2133J2133D01*
G01*
X1086962Y409229D02*
G03*
X1091228Y409229I2133J2133D01*
G01*
X1077383Y418809D02*
G03*
X1073116Y418809I-2133J-2133D01*
G01*
D02*
G03*
X1073116Y414542I2133J-2133D01*
G01*
X1082695Y400696D02*
G03*
X1082695Y404963I-2133J2133D01*
G01*
X1078429Y400696D02*
G03*
X1082695Y400696I2133J2133D01*
G01*
X1068850Y410276D02*
G03*
X1064583Y410276I-2133J-2133D01*
G01*
D02*
G03*
X1064583Y406009I2133J-2133D01*
G01*
X1074162Y392164D02*
G03*
X1074162Y396430I-2133J2133D01*
G01*
X1069896Y392164D02*
G03*
X1074162Y392164I2133J2133D01*
G01*
X1060317Y401743D02*
G03*
X1056050Y401743I-2133J-2133D01*
G01*
X1056050Y401743D02*
G03*
X1056050Y397476I2133J-2133D01*
G01*
X1065629Y383631D02*
G03*
X1065629Y387897I-2133J2133D01*
G01*
X1061363Y383631D02*
G03*
X1065629Y383631I2133J2133D01*
G01*
X1051784Y393210D02*
G03*
X1047517Y393210I-2133J-2133D01*
G01*
X1047517Y393210D02*
G03*
X1047517Y388943I2133J-2133D01*
G01*
X1057096Y375098D02*
G03*
X1057096Y379364I-2133J2133D01*
G01*
X1052830Y375098D02*
G03*
X1057096Y375098I2133J2133D01*
G01*
X1043251Y384677D02*
G03*
X1038985Y384677I-2133J-2133D01*
G01*
D02*
G03*
X1038985Y380410I2133J-2133D01*
G01*
X1048564Y366565D02*
G03*
X1048564Y370831I-2133J2133D01*
G01*
X1044297Y366565D02*
G03*
X1048564Y366565I2133J2133D01*
G01*
X1034718Y376144D02*
G03*
X1030452Y376144I-2133J-2133D01*
G01*
D02*
G03*
X1030452Y371878I2133J-2133D01*
G01*
X1040031Y358032D02*
G03*
X1040031Y362298I-2133J2133D01*
G01*
X1035764Y358032D02*
G03*
X1040031Y358032I2133J2133D01*
G01*
X1026185Y367611D02*
G03*
X1021919Y367611I-2133J-2133D01*
G01*
X1021919Y367611D02*
G03*
X1021919Y363345I2133J-2133D01*
G01*
X1028060Y355070D02*
G03*
X1026555Y358709I-5150J0D01*
G01*
X1121198Y411250D02*
G03*
X1125824Y411250I2313J2313D01*
G01*
X1116818Y415630D02*
G03*
X1112193Y415630I-2313J-2313D01*
G01*
X1112193Y415630D02*
G03*
X1112193Y411005I2313J-2313D01*
G01*
X1125325Y393246D02*
G03*
X1125325Y397872I-2313J2313D01*
G01*
X1120700Y393246D02*
G03*
X1125325Y393246I2313J2313D01*
G01*
X1105101Y408845D02*
G03*
X1100475Y408845I-2313J-2313D01*
G01*
X1100475Y408845D02*
G03*
X1100475Y404220I2313J-2313D01*
G01*
X1116074Y383995D02*
G03*
X1116074Y388620I-2313J2313D01*
G01*
X1111449Y383995D02*
G03*
X1116074Y383995I2313J2313D01*
G01*
X1095849Y399594D02*
G03*
X1091224Y399594I-2313J-2313D01*
G01*
X1091224Y399594D02*
G03*
X1091224Y394968I2313J-2313D01*
G01*
X1106823Y374743D02*
G03*
X1106823Y379369I-2313J2313D01*
G01*
X1102197Y374743D02*
G03*
X1106823Y374743I2313J2313D01*
G01*
X1086598Y390342D02*
G03*
X1081972Y390342I-2313J-2313D01*
G01*
X1081972Y390342D02*
G03*
X1081972Y385717I2313J-2313D01*
G01*
X1097572Y365492D02*
G03*
X1097572Y370118I-2313J2313D01*
G01*
X1092946Y365492D02*
G03*
X1097572Y365492I2313J2313D01*
G01*
X1077347Y381091D02*
G03*
X1072721Y381091I-2313J-2313D01*
G01*
X1072721Y381091D02*
G03*
X1072721Y376465I2313J-2313D01*
G01*
X1079567Y364994D02*
G03*
X1079567Y369619I-2313J2313D01*
G01*
X1143188Y488578D02*
G03*
X1146459Y491849I0J3271D01*
G01*
X1139085Y488578D02*
G03*
X1139085Y482037I0J-3271D01*
G01*
X1145606Y475495D02*
G03*
X1145606Y482037I0J3271D01*
G01*
X1137105Y475495D02*
G03*
X1137105Y468953I0J-3271D01*
G01*
X1145606Y462412D02*
G03*
X1145606Y468953I0J3271D01*
G01*
X1137105Y462412D02*
G03*
X1137105Y455870I0J-3271D01*
G01*
X1145606Y449328D02*
G03*
X1145606Y455870I0J3271D01*
G01*
X1137105Y449328D02*
G03*
X1137105Y442787I0J-3271D01*
G01*
X1145606Y436245D02*
G03*
X1145606Y442787I0J3271D01*
G01*
X1137105Y436245D02*
G03*
X1137105Y429703I0J-3271D01*
G01*
X1145606Y423162D02*
G03*
X1145606Y429703I0J3271D01*
G01*
X1137105Y423162D02*
G03*
X1137105Y416620I0J-3271D01*
G01*
X1146459Y413349D02*
G03*
X1143188Y416620I-3271J0D01*
G01*
X1148899Y362527D02*
G03*
X1156000Y365468I2941J2941D01*
G01*
X1148899Y362527D02*
G03*
X1143016Y362527I-2941J-2941D01*
G01*
D02*
G03*
X1143016Y356644I2941J-2941D01*
G01*
X1155870Y337907D02*
G03*
X1155870Y343790I-2941J2941D01*
G01*
X1149987Y337907D02*
G03*
X1155870Y337907I2941J2941D01*
G01*
X1132868Y355026D02*
G03*
X1126985Y355026I-2941J-2941D01*
G01*
D02*
G03*
X1126985Y349143I2941J-2941D01*
G01*
X1147962Y322284D02*
G03*
X1147962Y328167I-2941J2941D01*
G01*
X1142079Y322284D02*
G03*
X1147962Y322284I2941J2941D01*
G01*
X1121102Y343261D02*
G03*
X1115219Y343261I-2941J-2941D01*
G01*
D02*
G03*
X1115219Y337378I2941J-2941D01*
G01*
X1136196Y310518D02*
G03*
X1136196Y316401I-2941J2941D01*
G01*
X1130313Y310518D02*
G03*
X1136196Y310518I2941J2941D01*
G01*
X1109336Y331495D02*
G03*
X1103453Y331495I-2941J-2941D01*
G01*
D02*
G03*
X1103453Y325612I2941J-2941D01*
G01*
X1124430Y298752D02*
G03*
X1124430Y304635I-2941J2941D01*
G01*
X1118547Y298752D02*
G03*
X1124430Y298752I2941J2941D01*
G01*
X1097570Y319729D02*
G03*
X1091687Y319729I-2941J-2941D01*
G01*
D02*
G03*
X1091687Y313846I2941J-2941D01*
G01*
X1112664Y286986D02*
G03*
X1112664Y292869I-2941J2941D01*
G01*
X1106781Y286986D02*
G03*
X1112664Y286986I2941J2941D01*
G01*
X1085805Y307963D02*
G03*
X1079922Y307963I-2941J-2941D01*
G01*
D02*
G03*
X1079922Y302080I2941J-2941D01*
G01*
X1100899Y275221D02*
G03*
X1100899Y281103I-2941J2941D01*
G01*
X1095016Y275221D02*
G03*
X1100899Y275221I2941J2941D01*
G01*
X1088745Y281492D02*
G03*
X1082862Y281492I-2941J-2941D01*
G01*
X1170940Y489871D02*
G03*
X1174211Y486600I3271J0D01*
G01*
X1174211Y480058D02*
G03*
X1174211Y486600I0J3271D01*
G01*
X1166705Y480058D02*
G03*
X1166705Y473517I0J-3271D01*
G01*
X1177829Y466975D02*
G03*
X1177829Y473517I0J3271D01*
G01*
X1165635Y466975D02*
G03*
X1165635Y460433I0J-3271D01*
G01*
X1177829Y453891D02*
G03*
X1177829Y460433I0J3271D01*
G01*
X1165635Y453891D02*
G03*
X1165635Y447350I0J-3271D01*
G01*
X1177829Y440808D02*
G03*
X1177829Y447350I0J3271D01*
G01*
X1165635Y440808D02*
G03*
X1165635Y434267I0J-3271D01*
G01*
X1177829Y427725D02*
G03*
X1177829Y434267I0J3271D01*
G01*
X1165635Y427725D02*
G03*
X1165635Y421183I0J-3271D01*
G01*
X1177829Y414641D02*
G03*
X1177829Y421183I0J3271D01*
G01*
X1165635Y414641D02*
G03*
X1165635Y408100I0J-3271D01*
G01*
X1177829Y401558D02*
G03*
X1177829Y408100I0J3271D01*
G01*
X1165635Y401558D02*
G03*
X1165635Y395017I0J-3271D01*
G01*
X1177829Y388475D02*
G03*
X1177829Y395017I0J3271D01*
G01*
X1165635Y388475D02*
G03*
X1165635Y381933I0J-3271D01*
G01*
X1177829Y375392D02*
G03*
X1177829Y381933I0J3271D01*
G01*
X1165635Y375392D02*
G03*
X1165635Y368850I0J-3271D01*
G01*
X1170940Y365579D02*
G03*
X1167669Y368850I-3271J0D01*
G01*
X1005331Y359981D02*
G03*
X1008602Y363252I0J3271D01*
G01*
X1005331Y359981D02*
G03*
X1005331Y353440I0J-3271D01*
G01*
X1016007Y346898D02*
G03*
X1016007Y353440I0J3271D01*
G01*
X1001794Y346898D02*
G03*
X1001794Y340356I0J-3271D01*
G01*
X1017309Y333815D02*
G03*
X1017309Y340356I0J3271D01*
G01*
X1001794Y333815D02*
G03*
X1001794Y327273I0J-3271D01*
G01*
X1017309Y320731D02*
G03*
X1017309Y327273I0J3271D01*
G01*
X1001794Y320731D02*
G03*
X1001794Y314190I0J-3271D01*
G01*
X1017309Y307648D02*
G03*
X1017309Y314190I0J3271D01*
G01*
X1001794Y307648D02*
G03*
X1001794Y301106I0J-3271D01*
G01*
X1017309Y294565D02*
G03*
X1017309Y301106I0J3271D01*
G01*
X1001794Y294565D02*
G03*
X1001794Y288023I0J-3271D01*
G01*
X1004764Y282439D02*
G03*
X1002451Y288023I-2313J2313D01*
G01*
X1197610Y442340D02*
Y485480D01*
X1201770Y438180D02*
X1203486D01*
X1196092Y429861D02*
X1203486D01*
X1196092Y421541D02*
X1203610D01*
X1196092Y413221D02*
X1203610D01*
X1196092Y404902D02*
X1203610D01*
X1196092Y396582D02*
X1203610D01*
X1196092Y388262D02*
X1203610D01*
X1196092Y379943D02*
X1203610D01*
X1196092Y371623D02*
X1203610D01*
X1196092Y363303D02*
X1203610D01*
X1196092Y354984D02*
X1203610D01*
X1196092Y346664D02*
X1203610D01*
X1196092Y338344D02*
X1203610D01*
X1196092Y330025D02*
X1203610D01*
X1196092Y321705D02*
X1203610D01*
X1201770Y313385D02*
X1203610D01*
X1197610Y300029D02*
Y309225D01*
X1193596Y296015D02*
X1197610Y300029D01*
X1103413Y205831D02*
X1193596Y296015D01*
X1106590Y499560D02*
Y509385D01*
X1106288Y495861D02*
X1106569Y499073D01*
X1106976Y492651D02*
X1106976Y492651D01*
X1096030Y494345D02*
X1102350Y488025D01*
X1096030Y494345D02*
X1096030Y494345D01*
X1091404Y489720D02*
X1091404Y489720D01*
X1097867Y483257D01*
X1086779Y485094D02*
X1093241Y478632D01*
X1082153Y485094D02*
X1082153Y485094D01*
X1082153Y480468D02*
X1088615Y474006D01*
X1077527Y475843D02*
X1083990Y469380D01*
X1072902Y475843D02*
X1072902Y475843D01*
X1072902Y471217D02*
X1079364Y464755D01*
X1068276Y466591D02*
X1074738Y460129D01*
X1063650Y466591D02*
X1063650Y466591D01*
X1063650Y461966D02*
X1065167Y460449D01*
X1065167Y460449D02*
X1065167Y460449D01*
X1064650Y455307D02*
X1065167Y455824D01*
X971564Y362221D02*
X1064650Y455307D01*
X1132280Y389766D02*
X1146459Y403945D01*
X1094384Y351870D02*
X1132280Y389766D01*
X1094384Y347244D02*
X1094384Y347244D01*
X1094384Y342618D02*
X1094384Y342618D01*
X1083358Y349019D02*
X1089759Y342618D01*
X1078733Y344393D02*
X1087691Y335434D01*
X1087691Y330809D02*
X1087691Y330809D01*
X1073323Y340552D02*
X1083066Y330809D01*
X1068697Y335926D02*
X1078440Y326183D01*
X1078440Y321558D02*
X1078440Y321558D01*
X1064072Y331300D02*
X1073814Y321558D01*
X1059446Y326675D02*
X1069189Y316932D01*
X1069189Y312306D02*
X1069189Y312306D01*
X1054820Y322049D02*
X1064563Y312306D01*
X1050195Y317423D02*
X1059938Y307680D01*
X1059937Y303055D02*
X1059938Y303055D01*
X1045569Y312798D02*
X1055312Y303055D01*
X1040943Y308172D02*
X1044076Y305040D01*
X1045722Y300047D02*
Y301081D01*
X1075588Y361014D02*
X1079050Y364477D01*
X1071042Y356469D02*
X1075588Y361014D01*
X1061257Y361270D02*
X1066058Y356469D01*
X1056272Y361270D02*
X1056272Y361270D01*
X1056272Y356285D02*
X1062778Y349779D01*
X1062778Y344794D02*
X1062778Y344794D01*
X1050053Y352534D02*
X1057793Y344794D01*
X1045069Y347549D02*
X1052808Y339809D01*
X1052808Y334825D02*
X1052808Y334825D01*
X1040084Y342564D02*
X1047823Y334825D01*
X1035099Y342564D02*
X1035099Y342564D01*
X1035099Y337579D02*
X1041133Y331545D01*
X1041133Y331545D02*
X1041133Y331545D01*
X1040617Y326043D02*
X1041133Y326560D01*
X1187450Y311843D02*
Y322644D01*
X1185791Y310184D02*
X1187450Y311843D01*
X1175136Y316213D02*
X1181165Y310184D01*
X1170510Y311588D02*
X1183417Y298681D01*
X1183417Y294055D02*
X1183417Y294055D01*
X1165194Y307652D02*
X1178791Y294055D01*
X1160568Y303027D02*
X1174165Y289430D01*
X1174165Y284804D02*
X1174165Y284804D01*
X1156830Y297513D02*
X1169540Y284804D01*
X1152205Y292888D02*
X1164914Y280178D01*
X1164914Y275553D02*
X1164914Y275553D01*
X1158037Y277804D02*
X1160288Y275553D01*
X1158037Y277804D02*
X1158037Y277804D01*
X1121031Y245425D02*
X1153411Y277804D01*
X1109686Y252144D02*
X1116406Y245425D01*
X1105061Y252144D02*
X1105061Y252144D01*
X1105061Y247519D02*
X1118657Y233922D01*
X1100435Y242893D02*
X1114032Y229296D01*
X1095809Y242893D02*
X1095809Y242893D01*
X1095809Y238267D02*
X1103867Y230210D01*
X1091516Y233310D02*
X1099241Y225584D01*
X1086890Y233310D02*
X1086890Y233310D01*
X1086890Y228684D02*
X1093278Y222296D01*
X1093278Y222296D02*
X1093278Y222296D01*
X1092761Y217154D02*
X1093278Y217671D01*
X1089758Y214151D02*
X1092761Y217154D01*
X1187450Y322644D02*
Y496653D01*
X1027017Y265283D02*
X1030750Y269017D01*
X1024000Y202000D02*
Y221734D01*
X1027017Y224750D01*
Y265283D01*
X1033557Y269017D02*
X1045722Y281182D01*
X1030750Y269017D02*
X1033557D01*
X1045722Y281182D02*
Y300047D01*
X1031240Y316666D02*
X1040617Y326043D01*
X1031240Y289240D02*
Y316666D01*
X1027017Y285017D02*
X1031240Y289240D01*
X1191500Y247890D02*
X1211022Y267412D01*
X1191500Y242007D02*
X1191500Y242007D01*
X1177299Y244443D02*
X1185617Y236124D01*
X1171416Y238560D02*
X1179796Y230180D01*
X1158613Y239596D02*
X1173913Y224297D01*
X1152730Y233714D02*
X1162955Y223488D01*
X1146847Y227831D02*
X1157073Y217605D01*
X1140965Y221948D02*
X1156264Y206648D01*
X1150320Y200827D02*
X1150381Y200765D01*
X1150320Y200827D02*
X1150320Y200827D01*
X1140999Y197389D02*
X1144437Y200827D01*
X1129192Y197389D02*
X1140999D01*
X1211022Y267412D02*
X1215390Y271780D01*
Y514350D01*
X1155541Y574199D02*
X1215390Y514350D01*
X1152881Y578541D02*
X1155541Y575881D01*
Y574199D02*
Y575881D01*
X1146459Y578541D02*
X1152881D01*
X1151000Y574000D02*
X1157983Y567017D01*
Y561283D02*
Y567017D01*
X1189750Y510983D02*
X1189750D01*
X1197610Y503124D01*
Y485480D02*
Y503124D01*
X1186940Y513794D02*
X1189750Y510983D01*
X1186940Y513794D02*
Y523967D01*
X1178224Y532684D02*
X1186940Y523967D01*
X1178224Y532684D02*
Y541043D01*
X1157983Y561283D02*
X1178224Y541043D01*
X1112250Y570983D02*
X1114017Y572750D01*
X1114873Y574000D02*
X1121000D01*
X1114017Y572750D02*
Y573144D01*
X1106590Y509385D02*
Y566840D01*
X1110733Y570983D01*
X1112250D01*
X1114017Y573144D02*
X1114873Y574000D01*
X968493Y123707D02*
X969010Y123190D01*
X954425Y137775D02*
X968493Y123707D01*
X954425Y137775D02*
X954425Y137775D01*
X950497Y137036D02*
X951236Y137775D01*
X947309Y140225D02*
X948047Y140964D01*
X948047Y144153D02*
X948047Y144153D01*
X944880Y147320D02*
X948047Y144153D01*
X944880Y147320D02*
Y151586D01*
Y156210D01*
X969010Y123190D02*
X1028700D01*
X886460Y214630D02*
X944880Y156210D01*
X886460Y214630D02*
Y305683D01*
X923290Y342513D01*
Y421386D02*
X1031494Y529590D01*
X923290Y342513D02*
Y421386D01*
X1031494Y529590D02*
X1085110D01*
X1135541Y552119D02*
Y558961D01*
X1141730Y565150D01*
X1121650Y550983D02*
X1125744D01*
X1128761Y554000D01*
X1129061D01*
X928720Y395471D02*
X985718Y452468D01*
X928720Y326481D02*
Y395471D01*
X914320Y312081D02*
X928720Y326481D01*
X914320Y192300D02*
Y312081D01*
Y192300D02*
X977080Y129540D01*
X1028700Y123190D02*
X1050290Y144780D01*
X982980Y301466D02*
Y314790D01*
X978820Y297306D02*
X978820D01*
X978820Y288986D02*
X987374D01*
X976516Y280667D02*
X987374D01*
X976516Y272347D02*
X988980D01*
X976516Y264027D02*
X988980D01*
X976516Y255708D02*
X988980D01*
X976516Y247388D02*
X988980D01*
X976516Y239068D02*
X988980D01*
X976516Y230749D02*
X988980D01*
X976516Y222429D02*
X988980D01*
X976516Y214109D02*
X988980D01*
X976516Y205790D02*
X988980D01*
X977398Y197470D02*
X988980D01*
X977398Y189150D02*
X982918D01*
X987939Y187070D02*
X988670Y186339D01*
X1012800Y162210D01*
X982980Y314790D02*
Y355633D01*
X1024765Y491516D02*
X1043642Y510393D01*
X1018343Y491516D02*
X1018343Y491516D01*
X1018106Y491753D02*
X1018343Y491516D01*
X1011684Y491753D02*
X1011684Y491752D01*
X1011684Y491753D02*
X1011684Y491753D01*
Y491753D02*
Y491753D01*
Y485331D02*
X1019106Y477910D01*
Y471488D02*
X1019106Y471488D01*
X1004737Y479435D02*
X1012684Y471488D01*
X998315Y479435D02*
X998315Y479435D01*
Y473013D02*
X1006262Y465066D01*
Y458645D02*
X1006262Y458645D01*
X991894Y466591D02*
X999840Y458645D01*
X985472Y466591D02*
X985472Y466591D01*
Y460170D02*
X986235Y459407D01*
X985718Y452468D02*
X986235Y452985D01*
X1043642Y510393D02*
X1052708Y519459D01*
X934720Y312638D02*
Y362826D01*
X930560Y308478D02*
X930560D01*
X930560Y300159D02*
X936255D01*
X928720Y291839D02*
X936255D01*
X928720Y283519D02*
X940720D01*
X928720Y275200D02*
X940720D01*
X928720Y266880D02*
X940720D01*
X928720Y258560D02*
X940720D01*
X928720Y250240D02*
X940720D01*
X928720Y241921D02*
X940720D01*
X928720Y233601D02*
X940720D01*
X928720Y225282D02*
X940720D01*
X928720Y216962D02*
X940720D01*
X928720Y208642D02*
X940720D01*
X928720Y200322D02*
X930645D01*
X935666Y198242D02*
X936397Y197512D01*
X934720Y362826D02*
Y368530D01*
X1049247Y461508D02*
X1063596Y475857D01*
X1044621Y461508D02*
X1044621Y461508D01*
X1039995Y456882D02*
X1045163Y451715D01*
X1045163Y447089D02*
X1045163Y447089D01*
X1035006Y452620D02*
X1040537Y447089D01*
X1030381Y447994D02*
X1035912Y442463D01*
X1035912Y437837D02*
X1035912Y437837D01*
X1025755Y443368D02*
X1031286Y437837D01*
X1021129Y438743D02*
X1026660Y433212D01*
X1026660Y428586D02*
X1026660Y428586D01*
X1016504Y434117D02*
X1022035Y428586D01*
X1011878Y429492D02*
X1017409Y423960D01*
X1017409Y419335D02*
X1017409Y419335D01*
X1007252Y424866D02*
X1012783Y419335D01*
X1002627Y420240D02*
X1008158Y414709D01*
X1008158Y410084D02*
X1008158Y410084D01*
X998001Y415615D02*
X1003532Y410084D01*
X993375Y415615D02*
X993375Y415615D01*
X993375Y410989D02*
X998906Y405458D01*
X988750Y406363D02*
X994281Y400832D01*
X984124Y406363D02*
X984124Y406363D01*
X984124Y401738D02*
X989655Y396207D01*
X979499Y397112D02*
X985030Y391581D01*
X974873Y397112D02*
X974873Y397112D01*
X974873Y392486D02*
X980404Y386955D01*
X970247Y387861D02*
X975778Y382330D01*
X965621Y387861D02*
X965621Y387861D01*
X965621Y383235D02*
X971152Y377704D01*
X960996Y378609D02*
X966527Y373078D01*
X956370Y378609D02*
X956370Y378609D01*
X956370Y373984D02*
X956733Y373620D01*
X956733Y373620D02*
X956733Y373620D01*
X956217Y368478D02*
X956733Y368995D01*
X1063596Y475857D02*
X1076960Y489221D01*
X962660Y353317D02*
X971564Y362221D01*
X962660Y349758D02*
Y353317D01*
X965931Y346487D02*
X965931D01*
X960192Y339945D02*
X965931D01*
X960192Y333404D02*
X969549D01*
X959873Y326862D02*
X969549D01*
X959873Y320321D02*
X969549D01*
X959873Y313779D02*
X969549D01*
X959873Y307237D02*
X969549D01*
X965931Y300695D02*
X969549D01*
X962660Y290152D02*
Y297425D01*
Y196584D02*
Y290152D01*
X1117620Y470271D02*
Y481943D01*
X1118504Y468137D02*
X1118504Y468137D01*
X1118504Y468137D01*
X1118504Y463871D02*
X1118504Y463871D01*
X1110959Y467149D02*
X1114237Y463871D01*
X1106693Y462882D02*
X1114449Y455126D01*
X1114449Y450860D02*
X1114449Y450860D01*
X1100708Y460335D02*
X1110182Y450860D01*
X1096441Y456068D02*
X1105916Y446594D01*
X1092175Y451802D02*
X1101650Y442327D01*
X1087908Y451802D02*
X1087908Y451802D01*
X1087908Y447535D02*
X1088169Y447275D01*
X1087652Y442492D02*
X1088169Y443009D01*
X1012779Y367619D02*
X1087652Y442492D01*
X1124284Y452261D02*
Y457963D01*
X1103306Y431283D02*
X1124284Y452261D01*
X1099039Y431283D02*
X1099039Y431283D01*
X1095702Y434621D02*
X1099039Y431283D01*
X1091436Y434621D02*
X1091436Y434621D01*
X1091436Y430354D02*
X1099761Y422029D01*
X1085915Y427341D02*
X1095495Y417762D01*
X1081649Y423075D02*
X1091228Y413496D01*
X1091228Y409229D02*
X1091228Y409229D01*
X1077383Y418809D02*
X1086962Y409229D01*
X1073116Y414542D02*
X1082695Y404963D01*
X1082695Y400696D02*
X1082695Y400696D01*
X1068850Y410276D02*
X1078429Y400696D01*
X1064583Y406009D02*
X1074162Y396430D01*
X1060317Y401743D02*
X1069896Y392164D01*
X1056050Y401743D02*
X1056050Y401743D01*
X1056050Y397476D02*
X1065629Y387897D01*
X1051784Y393210D02*
X1061363Y383631D01*
X1047517Y393210D02*
X1047517Y393210D01*
X1047517Y388943D02*
X1057096Y379364D01*
X1043251Y384677D02*
X1052830Y375098D01*
X1038985Y380410D02*
X1048564Y370831D01*
X1048564Y366565D02*
X1048564Y366565D01*
X1034718Y376144D02*
X1044297Y366565D01*
X1030452Y371878D02*
X1040031Y362298D01*
X1026185Y367611D02*
X1035764Y358032D01*
X1021919Y367611D02*
X1021919Y367611D01*
X1021919Y363345D02*
X1026555Y358709D01*
X1028060Y354037D02*
Y355070D01*
X1124284Y457963D02*
Y544394D01*
X1127983Y413410D02*
Y423508D01*
X1125824Y411250D02*
X1127983Y413410D01*
X1116818Y415630D02*
X1121198Y411250D01*
X1112193Y415630D02*
X1112193Y415630D01*
X1112193Y411005D02*
X1125325Y397872D01*
X1105101Y408845D02*
X1120700Y393246D01*
X1100475Y408845D02*
X1100475Y408845D01*
X1100475Y404220D02*
X1116074Y388620D01*
X1095849Y399594D02*
X1111449Y383995D01*
X1091224Y399594D02*
X1091224Y399594D01*
X1091224Y394968D02*
X1106823Y379369D01*
X1086598Y390342D02*
X1102197Y374743D01*
X1081972Y390342D02*
X1081972Y390342D01*
X1081972Y385717D02*
X1097572Y370118D01*
X1077347Y381091D02*
X1092946Y365492D01*
X1072721Y381091D02*
X1072721Y381091D01*
X1072721Y376465D02*
X1079567Y369619D01*
X1079567Y369619D02*
X1079567Y369619D01*
X1079050Y364477D02*
X1079567Y364994D01*
X1127983Y423508D02*
Y540983D01*
X1146459Y491849D02*
Y501671D01*
X1139085Y488578D02*
X1143188D01*
X1139085Y482037D02*
X1145606D01*
X1137105Y475495D02*
X1145606D01*
X1137105Y468953D02*
X1145606D01*
X1137105Y462412D02*
X1145606D01*
X1137105Y455870D02*
X1145606D01*
X1137105Y449328D02*
X1145606D01*
X1137105Y442787D02*
X1145606D01*
X1137105Y436245D02*
X1145606D01*
X1137105Y429703D02*
X1145606D01*
X1137105Y423162D02*
X1145606D01*
X1137105Y416620D02*
X1143188D01*
X1146459Y412618D02*
Y413349D01*
Y403945D02*
Y412618D01*
X1156000Y375151D02*
Y509000D01*
Y365468D02*
Y375151D01*
X1148898Y362527D02*
X1148899Y362527D01*
X1143016Y356644D02*
X1155870Y343790D01*
X1132868Y355026D02*
X1149987Y337907D01*
X1126985Y349143D02*
X1147962Y328167D01*
X1121102Y343261D02*
X1142079Y322284D01*
X1115219Y337378D02*
X1136196Y316401D01*
X1109336Y331495D02*
X1130313Y310518D01*
X1103453Y325612D02*
X1124430Y304635D01*
X1097570Y319729D02*
X1118547Y298752D01*
X1091687Y313846D02*
X1112664Y292869D01*
X1085805Y307963D02*
X1106781Y286986D01*
X1079922Y302080D02*
X1100899Y281103D01*
X1088745Y281492D02*
X1095016Y275221D01*
X1088745Y281492D02*
X1088745Y281492D01*
X1078387Y277017D02*
X1082862Y281492D01*
X1068654Y277017D02*
X1078387D01*
X1170940Y323929D02*
Y364848D01*
X1165860Y501650D02*
Y503029D01*
Y501650D02*
X1170940Y496570D01*
Y489871D02*
Y496570D01*
X1174211Y486600D02*
X1174211D01*
X1166705Y480058D02*
X1174211D01*
X1166705Y473517D02*
X1177829D01*
X1165635Y466975D02*
X1177829D01*
X1165635Y460433D02*
X1177829D01*
X1165635Y453891D02*
X1177829D01*
X1165635Y447350D02*
X1177829D01*
X1165635Y440808D02*
X1177829D01*
X1165635Y434267D02*
X1177829D01*
X1165635Y427725D02*
X1177829D01*
X1165635Y421183D02*
X1177829D01*
X1165635Y414641D02*
X1177829D01*
X1165635Y408100D02*
X1177829D01*
X1165635Y401558D02*
X1177829D01*
X1165635Y395017D02*
X1177829D01*
X1165635Y388475D02*
X1177829D01*
X1165635Y381933D02*
X1177829D01*
X1165635Y375392D02*
X1177829D01*
X1165635Y368850D02*
X1167669D01*
X1170940Y364848D02*
Y365579D01*
X1165860Y503029D02*
Y514874D01*
X1039123Y197389D02*
X1129192D01*
X1176000Y508103D02*
X1187450Y496653D01*
X1028000Y199103D02*
X1043048Y214151D01*
X1089758D01*
X1030866Y195317D02*
X1041380Y205831D01*
X1103413D01*
X1034000Y192266D02*
X1039123Y197389D01*
X1050290Y144780D02*
Y175710D01*
X1040000Y186000D02*
X1050290Y175710D01*
X936397Y197512D02*
X998018Y135890D01*
X949960Y362221D02*
X956217Y368478D01*
X982980Y355633D02*
X1114748Y487401D01*
X962660Y196584D02*
X1012917Y146327D01*
X949960Y195020D02*
X1005280Y139700D01*
X949960Y195020D02*
Y362221D01*
X977080Y129540D02*
X1026160D01*
X1008602Y363442D02*
X1012779Y367619D01*
X1008602Y363252D02*
Y363442D01*
X1005331Y359981D02*
X1005331D01*
X1005331Y353440D02*
X1016007D01*
X1001794Y346898D02*
X1016007D01*
X1001794Y340356D02*
X1017309D01*
X1001794Y333815D02*
X1017309D01*
X1001794Y327273D02*
X1017309D01*
X1001794Y320731D02*
X1017309D01*
X1001794Y314190D02*
X1017309D01*
X1001794Y307648D02*
X1017309D01*
X1001794Y301106D02*
X1017309D01*
X1001794Y294565D02*
X1017309D01*
X1001794Y288023D02*
X1002451D01*
X1003075Y280750D02*
X1004764Y282439D01*
X1002030Y279705D02*
X1003075Y280750D01*
X1117620Y481943D02*
Y546954D01*
X1028060Y292730D02*
Y354037D01*
X1011017Y275687D02*
X1028060Y292730D01*
X1114748Y487401D02*
Y553481D01*
X1076960Y489221D02*
Y507650D01*
X1146459Y501671D02*
Y503271D01*
X1051017Y277017D02*
X1068654D01*
X1064570Y242570D02*
X1089581D01*
X1170940Y323929D01*
X1032000Y210000D02*
X1064570Y242570D01*
X999490Y191263D02*
Y207460D01*
Y191263D02*
X1012671Y178081D01*
X1015919D02*
X1016000Y178000D01*
X1012671Y178081D02*
X1015919D01*
X999490Y207460D02*
X1002030Y210000D01*
Y279705D01*
X1136459Y513271D02*
Y545025D01*
Y513271D02*
X1146459Y503271D01*
X1136459Y545025D02*
X1140894Y549459D01*
X1143412D01*
X1141000Y524000D02*
X1156000Y509000D01*
X1146459Y534274D02*
X1165860Y514874D01*
X1176000Y508103D02*
Y533266D01*
X1174017Y535249D02*
X1176000Y533266D01*
X1174017Y535249D02*
Y535250D01*
X1165266Y544000D02*
X1174017Y535250D01*
X1151000Y544000D02*
X1165266D01*
X1155541Y549397D02*
Y559459D01*
X1149119Y548541D02*
X1154685D01*
X1146459Y534274D02*
Y545881D01*
X1149119Y548541D01*
X1154685D02*
X1155541Y549397D01*
X1059682Y493492D02*
X1070492D01*
X934720Y368530D02*
X1059682Y493492D01*
X1032000Y258000D02*
X1051017Y277017D01*
X1052708Y519459D02*
X1096459D01*
X1012800Y162210D02*
X1015790D01*
X1016000Y162000D01*
X1011017Y198983D02*
Y275687D01*
Y198983D02*
X1016000Y194000D01*
X1005280Y139700D02*
X1019810D01*
X1027430Y147320D01*
X1015673Y146327D02*
X1016000Y146000D01*
X1012917Y146327D02*
X1015673D01*
X1028000Y182000D02*
Y199103D01*
X1024000Y178000D02*
X1028000Y182000D01*
X1026152Y171259D02*
X1030866Y175973D01*
Y195317D01*
X1034000Y176411D02*
Y192266D01*
Y176411D02*
X1036000Y174411D01*
Y174000D02*
Y174411D01*
X1040000Y178000D02*
X1045282Y172718D01*
Y148662D02*
Y172718D01*
X1023620Y135890D02*
X1036924Y149194D01*
X1032000Y162000D02*
X1036924Y157076D01*
Y149194D02*
Y157076D01*
X1147459Y553506D02*
X1150506D01*
X1143412Y549459D02*
X1147459Y553506D01*
X1150506D02*
X1151000Y554000D01*
Y564000D02*
X1155541Y559459D01*
X1151000Y564000D02*
Y564000D01*
X1024000Y170000D02*
X1024842D01*
X1026100Y171259D01*
X1026152D01*
X1114748Y553481D02*
X1135541Y574274D01*
X1117620Y546954D02*
X1121650Y550983D01*
X1124284Y544394D02*
X1128431Y548541D01*
X1127983Y540983D02*
X1131000Y544000D01*
X1070559Y514051D02*
X1076960Y507650D01*
X1061051Y514051D02*
X1070559D01*
X1061000Y514000D02*
X1061051Y514051D01*
X998018Y135890D02*
X1023620D01*
X1026160Y129540D02*
X1045282Y148662D01*
X1027430Y147320D02*
Y151130D01*
X1024019Y154541D02*
X1027430Y151130D01*
X1016541Y154541D02*
X1024019D01*
X1024000Y162000D02*
X1032000D01*
X1070492Y493492D02*
X1071000Y494000D01*
X1016000Y154000D02*
X1016541Y154541D01*
X1128431Y548541D02*
X1131963D01*
X1135541Y552119D01*
X1131000Y584000D02*
X1135541Y579459D01*
Y574274D02*
Y579459D01*
X1096459Y519459D02*
X1101000Y524000D01*
X1141000Y584000D02*
X1146459Y578541D01*
X1019459Y198471D02*
Y277459D01*
X1027017Y280750D02*
Y285017D01*
X1019459Y277459D02*
X1020983Y278983D01*
X1025250D01*
X1027017Y280750D01*
X1019459Y198471D02*
X1020541Y197389D01*
Y190541D02*
Y197389D01*
X1016000Y186000D02*
X1020541Y190541D01*
X1085110Y529590D02*
X1090700Y524000D01*
X1091000D01*
D329*
X1214886Y252709D02*
G03*
X1217639Y255462I0J2753D01*
G01*
X1208934Y252709D02*
G03*
X1208934Y247203I0J-2753D01*
G01*
X1219299Y241697D02*
G03*
X1219299Y247203I0J2753D01*
G01*
X1205826Y241697D02*
G03*
X1205826Y236191I0J-2753D01*
G01*
X1219299Y230685D02*
G03*
X1219299Y236191I0J2753D01*
G01*
X1205826Y230685D02*
G03*
X1205826Y225179I0J-2753D01*
G01*
X1225046Y219673D02*
G03*
X1225046Y225179I0J2753D01*
G01*
X1205826Y219673D02*
G03*
X1205826Y214167I0J-2753D01*
G01*
X1227390Y212791D02*
G03*
X1224066Y214167I-3323J-3323D01*
G01*
X1226208Y272759D02*
G03*
X1228580Y270387I2372J0D01*
G01*
X1231996Y265643D02*
G03*
X1231996Y270387I0J2372D01*
G01*
X1225831Y265643D02*
G03*
X1225831Y260899I0J-2372D01*
G01*
X1233996Y256155D02*
G03*
X1233996Y260899I0J2372D01*
G01*
X1221707Y256155D02*
G03*
X1221707Y251411I0J-2372D01*
G01*
X1233996Y246667D02*
G03*
X1233996Y251411I0J2372D01*
G01*
X1226120Y246667D02*
G03*
X1226120Y241924I0J-2372D01*
G01*
X1233996Y237180D02*
G03*
X1233996Y241924I0J2372D01*
G01*
X1226120Y237180D02*
G03*
X1226120Y232436I0J-2372D01*
G01*
X1233996Y227692D02*
G03*
X1233996Y232436I0J2372D01*
G01*
X1233455Y227692D02*
G03*
X1231778Y223642I0J-2372D01*
G01*
X1331296Y483719D02*
G03*
X1334303Y486726I0J3007D01*
G01*
X1331100Y483719D02*
G03*
X1331100Y477705I0J-3007D01*
G01*
X1333877Y471691D02*
G03*
X1333877Y477705I0J3007D01*
G01*
X1331100Y471691D02*
G03*
X1331100Y465677I0J-3007D01*
G01*
X1333527Y459663D02*
G03*
X1333527Y465677I0J3007D01*
G01*
X1331100Y459663D02*
G03*
X1331100Y453649I0J-3007D01*
G01*
X1333877Y447635D02*
G03*
X1333877Y453649I0J3007D01*
G01*
X1331100Y447635D02*
G03*
X1331100Y441622I0J-3007D01*
G01*
X1333877Y435608D02*
G03*
X1333877Y441622I0J3007D01*
G01*
X1331100Y435608D02*
G03*
X1331100Y429594I0J-3007D01*
G01*
X1333877Y423580D02*
G03*
X1333877Y429594I0J3007D01*
G01*
X1331100Y423580D02*
G03*
X1331100Y417566I0J-3007D01*
G01*
X1333505Y411552D02*
G03*
X1333505Y417566I0J3007D01*
G01*
X1331100Y411552D02*
G03*
X1331100Y405538I0J-3007D01*
G01*
X1333877Y399524D02*
G03*
X1333877Y405538I0J3007D01*
G01*
X1331100Y399524D02*
G03*
X1331100Y393510I0J-3007D01*
G01*
X1333877Y387496D02*
G03*
X1333877Y393510I0J3007D01*
G01*
X1331100Y387496D02*
G03*
X1331100Y381482I0J-3007D01*
G01*
X1333505Y375468D02*
G03*
X1333505Y381482I0J3007D01*
G01*
X1331100Y375468D02*
G03*
X1331100Y369454I0J-3007D01*
G01*
X1333877Y363440D02*
G03*
X1333877Y369454I0J3007D01*
G01*
X1331173Y363440D02*
G03*
X1331173Y357426I0J-3007D01*
G01*
X1333877Y351412D02*
G03*
X1333877Y357426I0J3007D01*
G01*
X1331100Y351412D02*
G03*
X1331100Y345398I0J-3007D01*
G01*
X1333877Y339384D02*
G03*
X1333877Y345398I0J3007D01*
G01*
X1331524Y339384D02*
G03*
X1331524Y333370I0J-3007D01*
G01*
X1333452Y327356D02*
G03*
X1333452Y333370I0J3007D01*
G01*
X1329034Y327356D02*
G03*
X1329034Y321342I0J-3007D01*
G01*
X1333877Y315329D02*
G03*
X1333877Y321342I0J3007D01*
G01*
X1329034Y315329D02*
G03*
X1329034Y309314I0J-3007D01*
G01*
X1334303Y306308D02*
G03*
X1331296Y309314I-3007J0D01*
G01*
X1324335Y331863D02*
G03*
X1322928Y335261I-1408J1408D01*
G01*
X1321389Y339243D02*
G03*
X1321389Y335261I0J-1991D01*
G01*
X1325324Y339243D02*
G03*
X1325324Y343225I0J1991D01*
G01*
X1319136Y347207D02*
G03*
X1319136Y343225I0J-1991D01*
G01*
X1324406Y347207D02*
G03*
X1324406Y351189I0J1991D01*
G01*
X1319136Y355171D02*
G03*
X1319136Y351189I0J-1991D01*
G01*
X1324479Y355171D02*
G03*
X1324479Y359153I0J1991D01*
G01*
X1319136Y363135D02*
G03*
X1319136Y359153I0J-1991D01*
G01*
X1324406Y363135D02*
G03*
X1326397Y365126I0J1991D01*
G01*
X1338580Y496235D02*
G03*
X1340952Y493863I2372J0D01*
G01*
X1341086Y489119D02*
G03*
X1341086Y493863I0J2372D01*
G01*
X1338371Y489119D02*
G03*
X1338371Y484375I0J-2372D01*
G01*
X1349387Y479631D02*
G03*
X1349387Y484375I0J2372D01*
G01*
X1340952Y479631D02*
G03*
X1340952Y474887I0J-2372D01*
G01*
X1349387Y470143D02*
G03*
X1349387Y474887I0J2372D01*
G01*
X1340171Y470143D02*
G03*
X1340171Y465399I0J-2372D01*
G01*
X1349387Y460655D02*
G03*
X1349387Y465399I0J2372D01*
G01*
X1340767Y460655D02*
G03*
X1340767Y455911I0J-2372D01*
G01*
X1349387Y451167D02*
G03*
X1349387Y455911I0J2372D01*
G01*
X1340952Y451167D02*
G03*
X1340952Y446423I0J-2372D01*
G01*
X1349387Y441679D02*
G03*
X1349387Y446423I0J2372D01*
G01*
X1340952Y441679D02*
G03*
X1340952Y436935I0J-2372D01*
G01*
X1349387Y432191D02*
G03*
X1349387Y436935I0J2372D01*
G01*
X1340952Y432191D02*
G03*
X1340952Y427447I0J-2372D01*
G01*
X1349387Y422704D02*
G03*
X1349387Y427447I0J2372D01*
G01*
X1339499Y422704D02*
G03*
X1339499Y417960I0J-2372D01*
G01*
X1349387Y413216D02*
G03*
X1349387Y417960I0J2372D01*
G01*
X1340941Y413216D02*
G03*
X1340941Y408472I0J-2372D01*
G01*
X1349387Y403728D02*
G03*
X1349387Y408472I0J2372D01*
G01*
X1340952Y403728D02*
G03*
X1340952Y398984I0J-2372D01*
G01*
X1346410Y394240D02*
G03*
X1346410Y398984I0J2372D01*
G01*
X1340952Y394240D02*
G03*
X1340952Y389496I0J-2372D01*
G01*
X1344684Y384752D02*
G03*
X1344684Y389496I0J2372D01*
G01*
X1340927Y384752D02*
G03*
X1340927Y380008I0J-2372D01*
G01*
X1342132Y375264D02*
G03*
X1342132Y380008I0J2372D01*
G01*
X1339689Y375264D02*
G03*
X1339689Y370520I0J-2372D01*
G01*
X1342132Y365776D02*
G03*
X1342132Y370520I0J2372D01*
G01*
X1340952Y365776D02*
G03*
X1340952Y361032I0J-2372D01*
G01*
X1342132Y356288D02*
G03*
X1342132Y361032I0J2372D01*
G01*
X1340952Y356288D02*
G03*
X1340952Y351544I0J-2372D01*
G01*
X1342757Y346800D02*
G03*
X1342757Y351544I0J2372D01*
G01*
X1340952Y346800D02*
G03*
X1340952Y342056I0J-2372D01*
G01*
X1342618Y337312D02*
G03*
X1342618Y342056I0J2372D01*
G01*
X1340655Y337312D02*
G03*
X1340655Y332568I0J-2372D01*
G01*
X1342132Y327824D02*
G03*
X1342132Y332568I0J2372D01*
G01*
X1340254Y327824D02*
G03*
X1340254Y323080I0J-2372D01*
G01*
X1342132Y318336D02*
G03*
X1342132Y323080I0J2372D01*
G01*
X1340952Y318336D02*
G03*
X1340952Y313592I0J-2372D01*
G01*
X1349387Y308848D02*
G03*
X1349387Y313592I0J2372D01*
G01*
X1338371Y308848D02*
G03*
X1338371Y304104I0J-2372D01*
G01*
X1346150Y299361D02*
G03*
X1346150Y304104I0J2372D01*
G01*
X1340952Y299361D02*
G03*
X1338580Y296989I0J-2372D01*
G01*
X1353353Y395345D02*
G03*
X1356360Y398353I0J3007D01*
G01*
X1353353Y395345D02*
G03*
X1353353Y389332I0J-3007D01*
G01*
X1360159Y383318D02*
G03*
X1360159Y389332I0J3007D01*
G01*
X1349207Y383318D02*
G03*
X1349207Y377304I0J-3007D01*
G01*
X1363513Y371290D02*
G03*
X1363513Y377304I0J3007D01*
G01*
X1349207Y371290D02*
G03*
X1349207Y365276I0J-3007D01*
G01*
X1363513Y359262D02*
G03*
X1363513Y365276I0J3007D01*
G01*
X1349207Y359262D02*
G03*
X1349207Y353248I0J-3007D01*
G01*
X1363513Y347234D02*
G03*
X1363513Y353248I0J3007D01*
G01*
X1349207Y347234D02*
G03*
X1349207Y341220I0J-3007D01*
G01*
X1363513Y335206D02*
G03*
X1363513Y341220I0J3007D01*
G01*
X1349207Y335206D02*
G03*
X1349207Y329192I0J-3007D01*
G01*
X1363513Y323178D02*
G03*
X1363513Y329192I0J3007D01*
G01*
X1349207Y323178D02*
G03*
X1349207Y317164I0J-3007D01*
G01*
X1356360Y314157D02*
G03*
X1353353Y317164I-3007J0D01*
G01*
X1405168Y342621D02*
G03*
X1409420Y342621I2126J2126D01*
G01*
X1404851Y342938D02*
G03*
X1400598Y342938I-2126J-2126D01*
G01*
D02*
G03*
X1400598Y338685I2126J-2126D01*
G01*
X1404161Y330870D02*
G03*
X1404161Y335122I-2126J2126D01*
G01*
X1399909Y330870D02*
G03*
X1404161Y330870I2126J2126D01*
G01*
X1393731Y337047D02*
G03*
X1389479Y337047I-2126J-2126D01*
G01*
D02*
G03*
X1389479Y332795I2126J-2126D01*
G01*
X1395656Y322365D02*
G03*
X1395656Y326617I-2126J2126D01*
G01*
X1391404Y322365D02*
G03*
X1395656Y322365I2126J2126D01*
G01*
X1385226Y328542D02*
G03*
X1380974Y328542I-2126J-2126D01*
G01*
X1380974Y328542D02*
G03*
X1380974Y324290I2126J-2126D01*
G01*
X1387151Y313860D02*
G03*
X1387151Y318112I-2126J2126D01*
G01*
X1382899Y313860D02*
G03*
X1387151Y313860I2126J2126D01*
G01*
X1376721Y320037D02*
G03*
X1372469Y320037I-2126J-2126D01*
G01*
D02*
G03*
X1372469Y315785I2126J-2126D01*
G01*
X1378646Y305355D02*
G03*
X1378646Y309607I-2126J2126D01*
G01*
X1374394Y305355D02*
G03*
X1378646Y305355I2126J2126D01*
G01*
X1368216Y311532D02*
G03*
X1363964Y311532I-2126J-2126D01*
G01*
D02*
G03*
X1363964Y307280I2126J-2126D01*
G01*
X1366895Y300095D02*
G03*
X1366895Y304348I-2126J2126D01*
G01*
X1330798Y255109D02*
G03*
X1330798Y250856I2126J-2126D01*
G01*
X1334837Y242565D02*
G03*
X1334837Y246818I-2126J2126D01*
G01*
X1330584Y242565D02*
G03*
X1334837Y242565I2126J2126D01*
G01*
X1326546Y246604D02*
G03*
X1322294Y246604I-2126J-2126D01*
G01*
X1221763Y264183D02*
Y277787D01*
X1217639Y260059D02*
X1221763Y264183D01*
X1217639Y255462D02*
Y260059D01*
X1208934Y252709D02*
X1214886D01*
X1208934Y247203D02*
X1219299D01*
X1205826Y241697D02*
X1219299D01*
X1205826Y236191D02*
X1219299D01*
X1205826Y230685D02*
X1219299D01*
X1205826Y225179D02*
X1225046D01*
X1205826Y219673D02*
X1225046D01*
X1205826Y214167D02*
X1224066D01*
X1227390Y212791D02*
X1227857Y212323D01*
X1221763Y277787D02*
Y288730D01*
X1221740Y292878D02*
Y295729D01*
Y292878D02*
X1226208Y288409D01*
Y272759D02*
Y288409D01*
X1228580Y270387D02*
X1231996D01*
X1225831Y265643D02*
X1231996D01*
X1225831Y260899D02*
X1233996D01*
X1221707Y256155D02*
X1233996D01*
X1221707Y251411D02*
X1233996D01*
X1226120Y246667D02*
X1233996D01*
X1226120Y241924D02*
X1233996D01*
X1226120Y237180D02*
X1233996D01*
X1226120Y232436D02*
X1233996D01*
X1233455Y227692D02*
X1233996D01*
X1231778Y223642D02*
X1231778Y223642D01*
X1234126Y221294D01*
X1236980Y218440D01*
X1207958Y645348D02*
X1223857Y661247D01*
X1243753D01*
X1251000Y654000D01*
X1224138Y659130D02*
X1241918D01*
X1213753Y648745D02*
X1224138Y659130D01*
X1245277Y648277D02*
Y655772D01*
X1241000Y644000D02*
X1245277Y648277D01*
X1241918Y659130D02*
X1245277Y655772D01*
X1207958Y632272D02*
Y645348D01*
Y632272D02*
X1217639Y622591D01*
Y292854D02*
Y622591D01*
X1213753Y632827D02*
X1225550Y621030D01*
X1213753Y632827D02*
Y648745D01*
X1225550Y550958D02*
Y621030D01*
X1222850Y548257D02*
X1225550Y550958D01*
X1229360Y548640D02*
Y564729D01*
X1224546Y543825D02*
X1229360Y548640D01*
X1224546Y297508D02*
Y543825D01*
X1222850Y296838D02*
Y548257D01*
X1221740Y295729D02*
X1222850Y296838D01*
X1216723Y645772D02*
X1224951Y654000D01*
X1216723Y642228D02*
Y645772D01*
X1224951Y654000D02*
X1241000D01*
X1216723Y642228D02*
X1221952Y637000D01*
X1233000D01*
X1236551Y633449D01*
Y571921D02*
Y633449D01*
X1229360Y564729D02*
X1236551Y571921D01*
X1238247Y532860D02*
Y635140D01*
X1238250Y635143D02*
Y638810D01*
X1233060Y644000D02*
X1238250Y638810D01*
X1228247Y517042D02*
X1238250Y527045D01*
X1238247Y532860D02*
X1238250Y532857D01*
Y527045D02*
Y532857D01*
X1238247Y635140D02*
X1238250Y635143D01*
X1221000Y644000D02*
X1233060D01*
X1233207Y424898D02*
X1233754Y424351D01*
X1231916Y456163D02*
X1235284Y459530D01*
X1229782Y299440D02*
X1235710Y293512D01*
X1229782Y299440D02*
Y419605D01*
X1233754Y423577D01*
Y424351D01*
X1229269Y424898D02*
X1233207D01*
X1227109Y427058D02*
Y454003D01*
X1229269Y456163D02*
X1231916D01*
X1235284Y459530D02*
Y466184D01*
X1231755Y469713D02*
X1235284Y466184D01*
X1231755Y469713D02*
Y496659D01*
X1235710Y500614D01*
Y505397D01*
X1228247Y512860D02*
X1235710Y505397D01*
X1228247Y512860D02*
Y517042D01*
X1235710Y289560D02*
Y293512D01*
X1227109Y427058D02*
X1229269Y424898D01*
X1227109Y454003D02*
X1229269Y456163D01*
X1235710Y289560D02*
X1240220Y285050D01*
X1290890D01*
X1338432Y262742D02*
X1344782D01*
X1427480Y345440D02*
Y453390D01*
X1344782Y262742D02*
X1427480Y345440D01*
X1334303Y597703D02*
X1340653Y604053D01*
Y691430D01*
X1334303Y559291D02*
Y597703D01*
Y697780D02*
Y713383D01*
X1322516Y725170D02*
X1334303Y713383D01*
Y486726D02*
Y559291D01*
X1331100Y483719D02*
X1331296D01*
X1331100Y477705D02*
X1333877D01*
X1331100Y471691D02*
X1333877D01*
X1331100Y465677D02*
X1333527D01*
X1331100Y459663D02*
X1333527D01*
X1331100Y453649D02*
X1333877D01*
X1331100Y447635D02*
X1333877D01*
X1331100Y441622D02*
X1333877D01*
X1331100Y435608D02*
X1333877D01*
X1331100Y429594D02*
X1333877D01*
X1331100Y423580D02*
X1333877D01*
X1331100Y417566D02*
X1333505D01*
X1331100Y411552D02*
X1333505D01*
X1331100Y405538D02*
X1333877D01*
X1331100Y399524D02*
X1333877D01*
X1331100Y393510D02*
X1333877D01*
X1331100Y387496D02*
X1333877D01*
X1331100Y381482D02*
X1333505D01*
X1331100Y375468D02*
X1333505D01*
X1331100Y369454D02*
X1333877D01*
X1331173Y363440D02*
X1333877D01*
X1331173Y357426D02*
X1333877D01*
X1331100Y351412D02*
X1333877D01*
X1331100Y345398D02*
X1333877D01*
X1331524Y339384D02*
X1333877D01*
X1331524Y333370D02*
X1333452D01*
X1329034Y327356D02*
X1333452D01*
X1329034Y321342D02*
X1333877D01*
X1329034Y315329D02*
X1333877D01*
X1329034Y309314D02*
X1331296D01*
X1334303Y305840D02*
Y306308D01*
Y697780D02*
X1340653Y691430D01*
X1326397Y369575D02*
Y667503D01*
X1305560Y688340D02*
X1326397Y667503D01*
X1322778Y330305D02*
X1324335Y331863D01*
X1321389Y335261D02*
X1322928D01*
X1321389Y339243D02*
X1325324D01*
X1319136Y343225D02*
X1325324D01*
X1319136Y347207D02*
X1324406D01*
X1319136Y351189D02*
X1324406D01*
X1319136Y355171D02*
X1324479D01*
X1319136Y359153D02*
X1324479D01*
X1319136Y363135D02*
X1324406D01*
X1326397Y365126D02*
Y369575D01*
X1320800Y328327D02*
X1322778Y330305D01*
X1283970Y688340D02*
X1305560D01*
X1281988Y686358D02*
X1283970Y688340D01*
X1281430Y685415D02*
X1281988Y685973D01*
X1281430Y683115D02*
Y685415D01*
X1281988Y685973D02*
Y686358D01*
X1338580Y496235D02*
Y509270D01*
X1340952Y493863D02*
X1341086D01*
X1338371Y489119D02*
X1341086D01*
X1338371Y484375D02*
X1349387D01*
X1340952Y479631D02*
X1349387D01*
X1340952Y474887D02*
X1349387D01*
X1340171Y470143D02*
X1349387D01*
X1340171Y465399D02*
X1349387D01*
X1340767Y460655D02*
X1349387D01*
X1340767Y455911D02*
X1349387D01*
X1340952Y451167D02*
X1349387D01*
X1340952Y446423D02*
X1349387D01*
X1340952Y441679D02*
X1349387D01*
X1340952Y436935D02*
X1349387D01*
X1340952Y432191D02*
X1349387D01*
X1340952Y427447D02*
X1349387D01*
X1339499Y422704D02*
X1349387D01*
X1339499Y417960D02*
X1349387D01*
X1340941Y413216D02*
X1349387D01*
X1340941Y408472D02*
X1349387D01*
X1340952Y403728D02*
X1349387D01*
X1340952Y398984D02*
X1346410D01*
X1340952Y394240D02*
X1346410D01*
X1340952Y389496D02*
X1344684D01*
X1340927Y384752D02*
X1344684D01*
X1340927Y380008D02*
X1342132D01*
X1339689Y375264D02*
X1342132D01*
X1339689Y370520D02*
X1342132D01*
X1340952Y365776D02*
X1342132D01*
X1340952Y361032D02*
X1342132D01*
X1340952Y356288D02*
X1342132D01*
X1340952Y351544D02*
X1342757D01*
X1340952Y346800D02*
X1342757D01*
X1340952Y342056D02*
X1342618D01*
X1340655Y337312D02*
X1342618D01*
X1340655Y332568D02*
X1342132D01*
X1340254Y327824D02*
X1342132D01*
X1340254Y323080D02*
X1342132D01*
X1340952Y318336D02*
X1342132D01*
X1340952Y313592D02*
X1349387D01*
X1338371Y308848D02*
X1349387D01*
X1338371Y304104D02*
X1346150D01*
X1340952Y299361D02*
X1346150D01*
X1338580Y296688D02*
Y296989D01*
X1331298Y289405D02*
X1338580Y296688D01*
X1323900Y282008D02*
X1331298Y289405D01*
X1356360Y398353D02*
Y408940D01*
X1353353Y395345D02*
X1353353D01*
X1353353Y389332D02*
X1360159D01*
X1349207Y383318D02*
X1360159D01*
X1349207Y377304D02*
X1363513D01*
X1349207Y371290D02*
X1363513D01*
X1349207Y365276D02*
X1363513D01*
X1349207Y359262D02*
X1363513D01*
X1349207Y353248D02*
X1363513D01*
X1349207Y347234D02*
X1363513D01*
X1349207Y341220D02*
X1363513D01*
X1349207Y335206D02*
X1363513D01*
X1349207Y329192D02*
X1363513D01*
X1349207Y323178D02*
X1363513D01*
X1349207Y317164D02*
X1353353D01*
X1356360Y313690D02*
Y314157D01*
Y408940D02*
Y639588D01*
Y304800D02*
Y313690D01*
X1334303Y302470D02*
Y305840D01*
X1227857Y212323D02*
X1230630Y209550D01*
X1262380D01*
X1217639Y292854D02*
X1221763Y288730D01*
X1410970Y344170D02*
Y358140D01*
X1409420Y342621D02*
X1410970Y344170D01*
X1404851Y342938D02*
X1405168Y342621D01*
X1400598Y338685D02*
X1404161Y335122D01*
Y330870D02*
X1404161Y330870D01*
X1393731Y337047D02*
X1399909Y330870D01*
X1389479Y332795D02*
X1395656Y326617D01*
X1385226Y328542D02*
X1391404Y322365D01*
X1380974Y328542D02*
X1380974Y328542D01*
Y324290D02*
X1387151Y318112D01*
X1376721Y320037D02*
X1382899Y313860D01*
X1372469Y315785D02*
X1378646Y309607D01*
Y305355D02*
X1378646Y305355D01*
X1368216Y311532D02*
X1374394Y305355D01*
X1363964Y307280D02*
X1366895Y304348D01*
X1366895Y304348D02*
X1366895Y304348D01*
X1366565Y299765D02*
X1366895Y300095D01*
X1322192Y255392D02*
X1366565Y299765D01*
X1410970Y358140D02*
Y440369D01*
X1330798Y255109D02*
X1338432Y262742D01*
X1330798Y250856D02*
X1334837Y246818D01*
X1326546Y246604D02*
X1330584Y242565D01*
X1326546Y246604D02*
X1326546Y246604D01*
X1322070Y246380D02*
X1322294Y246604D01*
X1309099Y246380D02*
X1322070D01*
X1282700D02*
X1309099D01*
X1262380Y209550D02*
X1270000Y217170D01*
Y247650D01*
X1272540Y256540D02*
Y264160D01*
X1259650Y277050D02*
X1272540Y264160D01*
X1250890Y277050D02*
X1259650D01*
X1267460Y250190D02*
Y257810D01*
Y250190D02*
X1270000Y247650D01*
X1346200Y294640D02*
X1356360Y304800D01*
X1285240Y292100D02*
X1294130D01*
X1297457Y288773D02*
X1318485D01*
X1294130Y292100D02*
X1297457Y288773D01*
X1280013Y297327D02*
X1285240Y292100D01*
X1263167Y297327D02*
X1280013D01*
X1258890Y293050D02*
X1263167Y297327D01*
X1318485Y288773D02*
X1324074Y294362D01*
X1326195D02*
X1334303Y302470D01*
X1324074Y294362D02*
X1326195D01*
X1320800Y298450D02*
Y328327D01*
X1307874Y293050D02*
X1309057Y294233D01*
X1316583D01*
X1306890Y293050D02*
X1307874D01*
X1316583Y294233D02*
X1320800Y298450D01*
X1374140Y506730D02*
X1427480Y453390D01*
X1329690Y278130D02*
X1346200Y294640D01*
X1259517Y223180D02*
Y245175D01*
X1254778Y218440D02*
X1259517Y223180D01*
X1236980Y218440D02*
X1254778D01*
X1258890Y269050D02*
X1259517Y268423D01*
Y245175D02*
X1259517Y245175D01*
X1259517Y245175D02*
Y268423D01*
X1338580Y509270D02*
Y513080D01*
X1344930Y673100D02*
X1356360Y661670D01*
X1353953Y641995D02*
X1356360Y639588D01*
X1353953Y641995D02*
Y644515D01*
X1356360Y646922D02*
Y661670D01*
X1353953Y644515D02*
X1356360Y646922D01*
X1374140Y506730D02*
Y670560D01*
X1371866Y479473D02*
Y657595D01*
Y479473D02*
X1410970Y440369D01*
X1356360Y673100D02*
X1371866Y657595D01*
X1339596Y705104D02*
X1374140Y670560D01*
X1338580Y705104D02*
X1339596D01*
X1272540Y256540D02*
X1282700Y246380D01*
X1224546Y297508D02*
X1224550Y297504D01*
Y295640D02*
X1237414Y282776D01*
X1224550Y295640D02*
Y297504D01*
X1282700Y257810D02*
Y261240D01*
Y257810D02*
X1285118Y255392D01*
X1322192D01*
X1266890Y277050D02*
X1282700Y261240D01*
X1300341Y266008D02*
X1303573Y269240D01*
X1313053D02*
X1321942Y278130D01*
X1303573Y269240D02*
X1313053D01*
X1285932Y266008D02*
X1300341D01*
X1274890Y277050D02*
X1285932Y266008D01*
X1321942Y278130D02*
X1329690D01*
X1239520Y279400D02*
X1240212Y280092D01*
X1276928D01*
X1305572Y282008D02*
X1323900D01*
X1296614Y273050D02*
X1305572Y282008D01*
X1282588Y273050D02*
X1296614D01*
X1279279Y276359D02*
Y277741D01*
X1276928Y280092D02*
X1279279Y277741D01*
Y276359D02*
X1282588Y273050D01*
X1237414Y282776D02*
X1281467D01*
X1287192Y277050D01*
X1290890D01*
M02*
