M48
;Layer_Color=9474304
;FILE_FORMAT=4:4
METRIC,LZ
;TYPE=PLATED
T01F00S00C0.1524
T02F00S00C0.2000
T03F00S00C0.2540
T04F00S00C0.2540
T05F00S00C0.3000
T06F00S00C0.3048
T07F00S00C0.3500
T08F00S00C0.4064
T09F00S00C0.5080
T11F00S00C0.8890
T12F00S00C1.0000
T13F00S00C1.0160
T14F00S00C1.1176
T15F00S00C1.3000
T16F00S00C1.5748
T17F00S00C1.6500
T18F00S00C1.7780
T19F00S00C1.8034
T20F00S00C1.8500
T21F00S00C2.1336
T22F00S00C3.2512
T23F00S00C3.4290
T24F00S00C5.8420
;TYPE=NON_PLATED
T25F00S00C0.6604
T26F00S00C1.2700
T27F00S00C2.9972
%
T01
X004565Y-00065405
X0046228Y-0006536
X004665Y-00065405
X0047117Y-0006985
X004765Y-00065405
X004865
X0051663
X00526104
X005365
X005465
X005865
X00596392
X00600075Y00018796
X00590423Y00018796
X00560197Y00018796
X00539115
X00518033
X00510667
X00478155
X004765Y-00018082
X0048641Y-00017785
X004665
X0039443Y0002494
X0061595Y0001905
X0063166Y00017305
X00649401Y00017248
X00650875Y0002302
X00657225
X0064643Y-00015875
X00635038Y-0001631
X00628942
X006265Y-00065405
X006165
X00629768Y-0007366
X0064665Y-00065405
X00720725Y00022058
X0203872Y00020955
X02665095Y00085645
X0277368Y0005588
X0278384
Y000381
X0277368
X0274193Y0023495
X0271399Y0023471
Y0026821
X0274193Y0026797
X0270637Y0031115
Y003175
X0270872Y0032366
X02709445Y0033016
Y0034316
Y0034966
X0270637Y003556
Y0036195
Y0040132
Y0041148
X0272161Y00401955
X02753893Y00400787
X02758036Y00388851
X0277114Y00386514
Y0039624
X02747104Y0036322
Y0034671
X0277114Y0033274
X0277114Y0032258
X02613387Y00328231
X0260731Y0032893
X0259715
X0260731Y00316997
X0261493Y0033401
Y0034036
X02613501Y0034966
Y0036916
Y0037566
X0261366Y0038227
X02613501Y0038866
X0260731Y00389935
X02603269Y00367942
X02623185Y00363855
X0265793Y0026797
Y0023495
X0262999Y0023471
X02594832Y0027686
X02565941
X0257175Y0029464
X0255905
X02553335Y00309245
X02565876Y00332994
X02563654Y00338582
X02536985Y00332994
X02491265
X0250571Y0031496
X02592545Y00311658
X02591406Y00343535
X02591181Y00354965
X02591435Y00363855
X0256921Y00367411
Y0037211
X02553175Y0037084
X0255524Y0041402
X0258699Y00389935
X02596896
X0241554Y00255905
X0240792
X024003
X0239268
X0238506
X0237744
X0236982
X0226084Y0026416
X022606Y002921
X0222758
X0222734Y0026416
X0220345Y0032385
Y00328374
X0222734Y0034816
X0222758Y003761
X0222734Y0039155
X0224409Y0039155
X022606Y003761
X0226084Y0034816
X0223166Y0015367
X0223774Y0010668
X022479
X0225806
Y0008636
X022479
X0223774
X02235835Y0007747
X02124445
Y0006477
X02124075Y0005207
X02123175Y0003937
X02091921Y00049934
Y00066906
X0206756Y0006858
X02071467Y00077373
X02053359Y00066906
Y00049934
X0206756Y0004826
X02063204Y00043815
Y00034925
X02023449Y00060706
X02013955Y00057658
X02025015Y00080645
Y00089535
X01966595Y00111125
X01971725Y00130165
X01968235Y0014523
X0195678Y0015061
X0195712Y0016509
Y0017525
X0197104Y001778
X0197231Y0018542
X0197485Y0017018
X0197993Y0019558
X0199136Y0019431
X01995805Y00201295
X0198882Y0020447
X02009244Y00210158
Y00228547
X01995805Y00236855
X0199937Y00288163
X02032879Y00291846
X0206502Y0029075
Y0029591
Y0028321
Y0027805
X0208026Y00262095
X0208788
X0208374Y00244395
X0207272Y0022598
X0206502Y0022479
X02054675
X0207272Y0021328
X0206502Y0020447
X02042968Y00204415
X0208374Y00194865
X0213774
X0214757Y0020812
X02160905Y00215265
Y00224155
X0214757Y0023098
X0213774Y00244395
X0213426Y00262095
X02150229Y00262255
X0214757Y0027559
X02147955Y00283181
Y00290407
X0214757Y0029845
Y00313055
X021336Y00311785
X0213774Y00329565
X02147955Y00350491
Y00357717
X02160905Y00358775
Y00349885
X0213774Y00379095
X0208374
X02065655Y0036957
X0206502Y0036322
X0205908Y0035687
X0206502Y0035052
X02065655Y0034417
X0208374Y00329565
X0208722Y00311785
X020796
X02032879Y00342646
X0199937Y00338963
Y00389763
X02032879Y00393446
X01870075Y0036957
Y0034925
Y003302
X0187071Y0030099
X0186182Y0030607
X0185801Y0029718
Y0028702
X0186309Y0027813
X0186182Y0027178
X0185293Y0027305
X0185801Y0026543
X018669Y0026035
Y00254
X01880762Y00243886
X0190246Y0024892
X0188341Y00281305
X0188595Y002921
X0188849Y0030099
X0184531Y0026162
X0183261Y0026416
X0185166Y0023749
X01837425Y0019341
X01875525
X01913625
X01951725
X019368Y0017525
Y00165089
X01941565Y00158565
X0194183Y0012446
X01910765Y00118735
X0188214Y0011176
X01847215Y00109474
X01837817Y00086106
X0184277Y0007366
Y000635
X01857375Y0005667
Y00034828
X0191934Y0003302
Y0005667
X02124075Y0009017
X02121535Y0015367
X01825625Y0033147
Y0034925
Y0036957
X01779524Y0036449
X01766623
X0174371
X01718945Y00381635
X01709155Y0040513
X0173736Y0040005
X01737995Y00409575
X01755775Y0041275
X01792835
X01802384Y00333248
X0177546
X0178689Y00295275
X0175768
X0176276Y00252095
X0177038Y00225425
X0177817Y0022606
Y0019304
X0177038Y00193675
X01743075Y002142
Y00218645
X01732915
X0173355Y00210855
X01713865Y002142
X01720596Y00233715
X01737995Y00240997
X0168275Y00233715
X01684655Y0022436
X0167386Y00226695
X01661795Y00205503
X01680845Y00187325
X01689608Y00194345
X0170942Y0016256
X0171577
X01727835Y00179656
X0172339Y00140335
X01750314
X0170942Y0011176
X01674495Y00109474
X01665097Y00086106
X0167005Y0007366
Y0006333
X01685925Y0005715
Y0004572
Y0003429
X01749425Y0003302
Y0004445
Y0005461
X01793875Y00111125
X0165989Y00140335
X0165354
X01627217Y00120419
X01620289Y00126964
X01614149Y00132679
X01589859Y00119624
X01585369Y00115134
X0157226Y0012446
X0156972Y0012827
X01572133Y00168056
X01556385Y0016323
Y00174533
X01555783Y00196045
X01544828Y00217805
X015373Y0021547
X015178
X015113Y00215835
X0149225Y00217375
X01490521Y00196045
Y00189545
Y00183045
X01486535Y00177835
Y00167675
X01447165
X0144783Y00150182
X0144145
X0143129
X014224
X0141608
X014224Y0016256
Y0016764
X0141351Y0018669
X0140843Y0019177
X01447165Y0020066
X01462405Y0020006
X01471295
Y0021149
X0145744Y00217375
Y0028321
X01496236
X0142113Y0027559
X01416685Y00278765
X0141351Y0028321
X014097Y0028575
X0140843Y0029083
X0144653Y0034544
X0146685
X0146558Y0035194
Y0035844
X01447484Y00365036
X014478Y0037084
X0145669Y00382382
X0147718Y00381635
X01539748Y00382382
X01561973
X01549351Y0035844
Y0035194
X01550068Y0034544
X01549351Y0033894
Y0033244
X0156337Y0032639
X0157944Y00306705
X0159004Y0030734
X01590675Y0029083
X015854Y00242505
X01573148
X01582079Y0022733
X01591115Y00217805
X01597753Y0022352
X01604133Y00223872
X016108Y0022817
X0162433
X01625653Y0024822
X01594485Y00233885
X0160399Y00205775
Y0020066
X01593834Y00168945
X0157734Y00184185
X01567561Y00217205
X01561973Y00226695
X01544828Y0023943
X0154178Y00144815
X0153162
X0152146
X015113
X0145796Y0013462
X01436902Y00127383
X0143809Y00105085
X0143129Y00104775
X014224Y00105085
X0141354Y00097985
Y00087825
X01413413Y00122115
X01412935Y00132115
X0144783Y00104614
X0146053Y001037
X0148971Y0006985
Y0005969
Y0004953
X01504315Y00054423
X01504315Y0006477
X01504315Y00075565
X01504315Y00043441
X01615004Y00085499
X01619494Y00089989
X01638935Y00384175
X01682115Y0037973
X01675765Y00405765
X0172466Y0032639
X0140335Y002921
X0139827Y0029337
X01397Y0029845
X0139065
X01382425Y0028905
Y0028067
X013803Y0025838
Y0024822
X0135998
Y0025838
X01325055Y00264095
Y00272985
X01308547Y00272985
Y00264095
X0129089Y0026905
Y0027705
X0129089Y0028505
Y0030105
X0129889
X0129489Y00310707
X0128689
X0128289Y0030105
X0127489Y0030105
X0127489Y0029305
X0126689
X0125889Y0029305
X0125089Y0029305
X0125089Y0030105
X0124689Y00310707
X0125489
X0126289
X0127089
X01274255Y00330135
X01283145
X01289175Y00326922
X01302195Y00330135
X0130289Y00310707
X0130689Y0029305
Y0028505
X01313815Y0029851
X01325055Y00297115
Y00306005
X01326515Y00288925
X0133701Y0029019
Y00280827
X0128289Y0027705
X0127489
X0126689
X0125889Y0026905
X0125089Y0026905
X0125089Y0027705
X01241233Y0027305
X0123952Y002794
X0124689Y00259393
X0125489
X0126746Y0025781
X0127889Y00259393
X0128689
X01287145Y00228529
X01278255
X01265365Y00228535
X01256475
Y00215835
X01236329Y00160285
X01209377Y00160756
X01184893Y00160886
X011684Y0017399
X01178687Y00196331
X01165089Y00215472
X01153795Y00227233
X01165225Y00244475
X0116967Y0025781
X01147434Y00256417
X01146459Y0026854
X01134477Y00279965
X01132559Y00254946
X01131314Y00246579
X01122063Y00237328
X01105689Y00223139
X01089095Y0021844
X0108Y00218
Y00226
X01072
Y00218
Y0021
X01064
X01056Y0021
X01056541Y00202541
X01064Y00202
X01064Y00194
X01072Y00194
Y00202
X0108Y00202
X0108331Y0019166
Y0018034
Y0017566
Y0016434
Y0015966
X01072Y00162
Y00154
X01060471Y00151304
X01056Y00148343
X01064Y00162
Y00178
X01056
Y00186
Y0017
X0104013Y001651
X01032Y0017
X01036Y00174
X0104Y00178
Y00186
X01024Y00186
Y00178
X01016
Y00186
Y00194
Y00202
Y0021
X01032
Y00218
X01024Y00226
X01016Y00234
Y0025
X01024
Y00258
X01016
Y00266
Y00274
X01024
Y00282
X01017905Y00286385
X01012Y00283657
X01032Y00285734
Y00274921
Y00266
X01032Y00258
X01024Y00266
X01056Y00266
X01064
X01072Y00266
X0108Y00266
X0108712Y0025908
X01072Y00258
Y0025
X0108
X01087314Y00238
X01064Y00234
X01056Y0025
X01064Y00258
X01064Y00274
X01056
Y00282
X01068Y00283657
X01073594Y00285341
X01120371Y00266296
X01146875Y00295597
X01182322Y00274582
X01198894Y00284364
X0121901Y0028759
Y0026727
X01253935Y00330135
X01262825
X01293305Y00341565
X01311939Y00342713
X01311Y00388543
X0131953
X01284605Y00418465
X0126492Y00415925
X0124079
X01232535Y00418465
X0123825Y0039497
Y00384596
X0125857
Y0039497
X01295845Y0015988
X0132207Y00160285
X01323878Y0014688
Y00122115
X013081Y0011557
X01313815Y00100965
X01292225
X01358295Y0009735
X01360835Y00113225
X01360835Y00122115
X01350802Y00122115
X01360835Y00132275
X01362509Y00145206
X01350075Y0014688
X01371346Y0015494
X01392585Y001545
X01381125Y0016764
Y0020066
X0135512Y00185615
X0137922Y001064
X01394894Y00102027
Y00083784
X0138049Y00079375
X01392585Y00061665
X01310005Y00034925
X01301115
X01251335
X01242445
X0113284Y0004699
X0112776Y0004572
X0112268Y0004699
Y0005588
X0113284
X0111252
X0110236
X010922
X0108204
X0107188
X0106172
X0104648
X0103632Y0005715
X0103124Y0005588
X0102616Y0005715
X01016Y0005588
X0102108Y0007493
X0102616
X0103632
X010414
X0105156
X0105664
X010668
X0107696
X0108712
X0109728
X0110744
X011176
X0112776
X0113792
X01112557Y000934
X01110142Y00138797
X01118235Y00144145
X0112776Y0013716
Y0015748
X01124217Y00161059
X01113875Y00159154
X01136583Y00161554
X01136191Y00181206
X01124427
X01126148Y0019166
X01121198Y00190905
X01104926Y001923
X01095779Y00176126
X01072Y00178
Y00186
X01024035Y00194035
X01024Y00202
Y0017
Y00162
X01016
X01016Y0017
X01016Y00154
X01016Y00146
X01032Y00154
X01095779Y00140104
X01134227Y00210949
X0101092Y0007493
X0100076
X009906
X0098044
X0097028
X0096012
X0094996
X009398
X0092964
X0091948
X0089789
X00898525Y00079375
Y00070485
X0092456Y0005588
X0093472
X0094488
X0095504
X009652
X0097536
X0098552
X0099568
X0100584
X01006343Y00147134
X0100469Y0015966
Y0016434
Y0017566
Y0018034
Y0019166
X0100488Y0020027
X00996473Y002032
X01008Y0021
X01006343Y00222
X01008Y00234
X00995914Y00233057
X00995045Y00253365
X00993371Y00258214
X00995045Y00272415
Y00281305
X01009015Y00286385
X00996747Y0030195
Y0032227
X00943823Y0031839
X00939261Y00322434
X0092964Y003175
X0094234Y0030861
X00935355Y00271278
X00936255Y002544
X009525Y0025654
X00954174Y00242041
X00967105Y00243715
X00980573Y00242202
X00968779Y00275186
X00972185Y00202565
Y00184785
X0097326Y00178081
X00983256Y00169824
X00993775Y00175895
X0098806Y0015113
X00972185Y00156845
X0094996Y00151765
X00939165Y00154305
Y00173355
X00948055
X00939165Y00203297
X00916516Y00198337
X0089733
X00890042Y00194082
X0089916Y0018161
X0090043Y0017145
X00894355Y00171959
X0088773Y0017272
X0089662Y0016637
X00865716Y00190573
X00855725
X00850265Y00183515
X00836295Y00188595
Y00198755
Y00207645
X0083058Y0021336
X0082042
X0081026
X0081534Y00202565
X008255
Y0019304
X0081377Y00192593
X0082042Y0017399
X0083058
Y0014605
X0082042Y0014478
X00809625Y00145415
X0081026Y0012446
X0082042
X0083058
X00836295Y00139065
X00847217Y00113918
X00853698
X00804545Y00119633
X0079284Y00113918
X0079248Y00133975
X00786765Y0014997
Y00156489
Y00162955
X0078418Y00191689
X00784778Y0020027
X0079121Y00207645
X0079696Y00207685
X007874Y0022606
X008382Y0022479
X0084328Y002286
X0084582Y0024892
Y00254
X0085294Y00254769
X0085598Y0024892
Y0024003
X00862465Y00243974
X00866775Y00248285
X008763Y0024384
X0087503Y0026289
X0088011Y0026543
Y0027051
Y0027686
X00880027Y00282134
X0086995Y0028321
X0087072Y00267201
X008636Y002667
X0085852Y0026797
X0085217Y0026543
X00857873Y00258945
X0089027Y0025781
X0089067Y00224709
X0089733Y00224075
X00916516Y00224155
X0092075Y0022352
X00935355Y00229348
X00865716Y002177
X00855725
X008255Y0025273
X0081534Y0025527
Y0025019
X00824865Y0027178
X00832485
X0083185Y0028194
X00824865Y00282
X00834638Y00290195
X0081635Y0029171
X0080264Y00302895
X00796925Y003175
X00786059Y00318591
X00786765Y0032893
X00786059Y00333591
Y00338591
Y00343591
Y00348591
X00786765Y0035306
X0079756Y0033782
X008001Y0033401
X0080518Y0032385
X0081788Y00321945
X008382Y00316405
X00827405Y00342265
X0082677Y0034925
X00812165Y00354965
X0080518Y0034417
X00804545Y00368
X00832225Y00367307
X0081924Y003937
X0078994Y0038989
X0076393Y00389226
X007366Y0038862
X0070866Y0038735
X0070104Y0038227
X0069342Y0037846
Y0038735
X0068961Y0037338
X0069469Y0037084
X0069342Y0036449
X00691515Y00358775
Y00349885
X00689997Y00339598
X00704922Y00343591
Y0034856
X00705661Y00353591
X00704922Y00358591
X00705661Y00333591
X00704469Y00325882
X0070358Y0031623
X0070612Y0031115
X00705661Y00298591
Y00293591
X00704469Y00288591
Y00278591
X00728059Y00283591
X00727528Y00289123
X0072898Y0030099
X00728059Y00308591
X00741045Y0032258
X00762395Y00321945
X00763661Y00308591
X00758814Y00308478
X0075692Y0030226
X00756928Y00290822
X00763661Y00288591
X00762395Y00278591
X00786059Y00283591
Y00298591
X0076327Y0036068
X00728059Y00338591
X0068839Y0032131
X0067805Y00309306
X00662305Y00302895
X006477Y0029718
X00653415Y00290195
X0063881Y0029083
X00630555Y00283845
X00639445Y00272415
X00644169Y00262229
X00653415Y00266065
X00681482
Y00290021
X00666115Y00321945
X00644525
X0063373Y0032385
X00635Y0033147
X00630236Y00338774
X0061468Y0033401
X0061341Y0032131
X0062611
X0062103Y00311785
X00612775Y0028956
X0062357Y0018923
X00634365Y00186055
X00643255
X00655447Y0018288
X0066294Y00200787
X00671078Y00200787
X00682625Y00198755
Y00188595
Y00179705
X00678411Y00163599
X00669671
X00667544Y00156326
X0067437Y00153035
X00677446Y00142708
X0067538Y0013817
X00678873Y00133041
X00682625Y00130175
X00666748Y0013462
X00693271Y00150622
X00703618Y00150525
X0073406Y0014997
Y00156332
Y00162955
Y0014347
X0072196Y00137755
X00714375Y00119633
X0072608Y00113918
X00738621Y00125095
X00714375Y00101142
Y0009271
X0072644Y00063807
X00720725Y00036868
X00657225Y00048514
X0064516Y00038735
X00637856Y00037456
X0063166Y00038735
X00630316Y00045036
X0061722Y000508
X00654558Y0002748
X00619912Y00131268
X00619125Y00143528
X00612775Y00166878
X0064389Y0020795
X00655955Y00210312
X00682625Y00215265
X0072196Y00207873
X0073406Y0020197
Y0019547
Y00188783
X00804545Y00101142
Y0009271
X0079248Y00063627
X0088138Y002921
X00790493Y00419335
X00764805Y004191
X00758836Y00420635
X00758328Y00415025
X0071374Y0040259
X0068199Y0039497
X00666115Y00415925
X00657225
X006604Y0035433
X0060198Y0032131
X005969Y00311785
X00597535Y00283845
X00593725Y0027215
X0058801Y0026195
X0058293Y0027813
X00582167Y00290321
X0054483Y0030226
X0052963Y00284306
X0051054Y00282575
X0049063Y00283845
X00496974Y00291061
X00473807Y00292003
X0046355Y0028702
X0046101Y0029591
X00460375Y00273685
X00465415Y0027245
X00478155Y0025273
X00480695Y002159
X0047113Y00186055
X0049063
X00502285Y00177165
Y0016947
X00502158Y00165379
X00511175Y00177165
X0052313Y00165379
X00523257Y00161287
X0052959Y00186055
X00521335Y0021463
Y0025273
X0041813Y0025781
X00404252Y00266686
X00398726Y0026926
X00396305Y00263665
X0038862Y00266063
Y00259967
X00383Y0026924
Y00282256
Y00289673
X00384974Y00296528
X0037959Y00299387
X00388674Y00286216
X0040132Y0028575
X00417212Y00303791
X00422513Y00300782
X0041656Y0031242
X0042164Y0033147
X00429095Y00329106
X00430064Y00323088
X0043688Y003175
X0044196Y0031242
X0043815Y0033909
X0043688Y0035052
X0040132Y0035052
X00388775
X00382679
X00385588Y0034163
X0037465
X0037084Y0034798
X00356503Y00347345
X00355275Y00353441
X0034163Y0036322
X003429Y0036957
X00349885Y00375285
X00357505
X0037465Y0037719
X0037542Y00371341
X0037973Y0036703
X0032512Y0035687
X0032893Y0034925
X00331884Y0034576
X0033654Y00343802
X0032154Y00343802
X0031659Y00344805
X0031877Y0034925
X0031369
Y0035941
Y0036957
Y0037973
X00299085Y00385445
X0029337Y0036957
Y0035941
Y0034925
X00299085Y00343535
X00307975
X00305875Y0033701
X00298625Y0032976
X00298625Y0031476
X00298625Y0030976
Y0029476
X00298625Y0028976
X00298625Y0027476
X00307975Y00259715
X00318135
X0033159Y00261795
X0034659
X00352933Y00259458
X00358768Y00261222
X0035433Y0024892
X0036068Y0022606
Y0021082
X00350289Y00211224
X0034036Y00201295
X0032258
Y0022315
X0034036
X00327025Y00238125
X00318135
X0031369Y0023368
X0029337
Y0022352
X0030353Y00213995
X0030861
X00276098Y00213995
Y00237973
X0029337Y0024384
Y00254
X00271145Y002794
X00263525Y00288925
Y00297815
Y00307975
Y00316865
X002413Y0030734
Y0029718
X0021971Y0036703
X00277495Y00379095
X0028702Y0037592
Y0039624
X00282575Y003937
Y0040005
Y004064
X0028321Y0041275
X00282575Y004191
X00290195Y00407035
X00299085
X00332105Y0042037
Y00385445
X0041619Y00404973
X0045466Y0039497
X0046482
X0047498
X0048514
X004953
X0050546
X0051562
X0052578
X0055118Y00401955
X00567307
X00582547
X00471805Y00315595
X0038989Y0020955
X0040259Y0014859
X0041275
X00421005Y0014605
Y0012954
Y00105922
Y00099314
X0040259Y0009017
Y0011049
X0036322Y00127635
X00335875Y0011557
X00323215Y00093345
Y00084455
Y00071755
Y00062865
X003429Y00059055
X00342265Y0005334
X00335875Y00039878
X00371587Y00046355
X0038481Y00037465
X0039751
X00423545Y00038735
X00432435
X0044069Y00038025
X00468757Y00042164
X00487553
X00498983
X00508635Y00042164
X00541147Y00042164
X00548513
X00569595Y00042164
X0057023Y0007366
X0059436
X00595592Y00079223
X00607098
X0060833Y0007366
X00602107Y00070521
Y00042164
X0058293Y00106857
Y00127052
X00557657
X00541147
Y00106857
X00557657
X005165
X00501015
Y00127127
X005165Y00127052
X00474472
Y00106857
X0048387Y0007366
X0052705
X00565912Y00155351
X0059182Y0017272
X00588645Y00186055
X00597535
X00607346Y00192532
X00612678Y00173014
X0058801Y0020795
X00417662Y00056388
X00253365Y00058674
Y00098044
X00205475Y00110479
Y00071138
X00161544Y00081457
X0012319Y00080645
X0011684
X00116205Y00075565
X00116205Y0006477
X00116205Y00054423
X00116205Y00043441
X0011684Y00038735
X0012319
X0013081Y0004953
Y0005969
Y0006985
X00161544Y00037921
X00199898Y00227965
X0021463Y0023622
Y0027432
X00191135Y00274955
X00182245
X0016637Y00269875
X0015946Y0027178
X001524
X00150495Y00257175
X0013996
X00131943Y002794
Y00287528
X0012954Y0032004
X0011938Y0032004
Y0034036
X0012954
X00140335Y00343405
X00155575Y00342265
X00164465
X0017526Y0034163
X00181536Y003302
Y0032258
X00191135Y0032893
X0021463
X00198755Y00300355
X00198755Y00291465
X00177165Y00300355
X0017526Y0036195
X00196215Y0036703
X00203835Y003937
Y0040005
Y004064
X0019939Y0040513
X00201295Y00413258
X0017272Y0040005
X00113665Y003937
X0014605Y0035801
X00113665Y0025273
X0017272Y0042545
X0019635Y00489451
X0020066Y0048514
X0020828Y0048387
X0019304Y0049784
X001778Y00648335
X0016764Y0070104
X0015748
Y0072136
Y0072517
X0016764
Y0072136
X00173101Y007239
X00203835Y00720725
X0021209Y00721995
X0020574Y00743833
X0019558Y0074803
X0019177
Y0075819
X0019558
X0019197Y00763778
Y0077216
X00203835Y00786765
X0021209Y00781685
X0020574Y0081026
X00172774Y00805996
X0016764Y0080645
X0015748
Y0078613
Y0078232
X0016764
Y0078613
X0013335Y0075819
X0012954
Y0074803
X0013335
X0010922
Y0075819
X00106045Y0077343
X000762Y00765175
X00107315Y0073152
X00107061Y0070525
X00100965Y0068549
X0010668Y0065278
X00080645Y00635
Y0062865
Y00593852
Y00587502
X00075565Y00586105
X0006477Y00586105
X00054423Y00586105
X00043441Y00586105
X00038735Y00587502
Y00593852
X00049501Y0060071
X0005969
X00069821
X00038735Y0062865
Y00635
X0020574Y00694055
X00122682Y0081026
X00100965Y00809625
X00259715Y00813435
X0026035Y0080518
X00259715Y008001
X0026035Y0079502
X00274937Y0078882
X00284995Y00790871
X002998Y0079375
X00305896
X00305816Y0080137
X00311912
X0031877Y0079375
X00324781Y00792738
X00330881Y00794917
X00336949Y00795499
X0033992Y00790176
X00344936Y00794189
X0035052Y0078994
X0036576
Y0081026
X00356235Y00804545
X00329565Y0080899
X003297Y00814839
X0033401Y0081915
X0038481Y00812165
X00379639Y00769457
X00375116Y0076537
X00362999Y00761029
X00363138Y00754935
X00362885Y0075037
Y0074537
X00385445Y00743585
Y00752475
X0039624Y0075565
X0040259Y0075946
X0040767Y0075184
X0040259Y0074549
X0041402Y007366
X004191Y0073914
X00418322Y0069723
X00418338Y00657202
X00418322Y0062992
X00418338Y00596242
X00412623Y0057277
Y00561292
Y0054864
X004064Y00530225
X004191Y0052705
Y0050673
X00431165Y00504825
X00423845Y0049517
X0042672Y00490855
X0044577Y00500888
X0045466
X0047371Y00503555
X0048006Y0050673
X0049022Y0050673
X0050038Y00504825
X00508635Y0051689
X0050038Y0052705
X0049022Y0052705
X00487297Y00534012
X00484229Y0054102
X00478155
X0048006Y0052705
X00462529Y0053594
X0043688
X0044577Y005715
X00467995Y0056769
Y0055626
X00465072Y0059309
X00484257Y0059944
X00484863Y00586463
X00497006Y00588946
X0049911Y00583866
X0050419Y00581761
X00508397Y00585073
X00511374Y0058928
X0050927Y0059436
X0050419Y00596464
Y0058928
X0049911Y00594193
X00527937Y0059944
Y00626722
Y00666124
X00531495Y00694152
X0054737Y0072136
X0056642Y0072517
Y0076073
X00558546Y00761746
X005588Y0075565
X0054229
X00503555Y00752475
Y00761365
X0050673Y00773209
X00512445Y0076835
X0050927Y0073279
X00483733Y0069512
X00464127Y0069501
X00465072Y0066351
X0048387Y00664822
Y00626722
X00465072
X00377952Y00616585
X0035433Y00603862
Y0058547
X00341757Y0062992
X00340233Y0064008
X00340739Y0065659
X0033726Y00659557
X00340808Y00664736
X0034671Y0066421
X0034544Y0067056
X00337202Y0067183
Y00678565
X00327638Y00678592
Y00672214
X00327797Y00665143
X00323845Y00667442
X00323797Y00657867
X0032512Y00653392
X0033401Y0065405
X00317705Y00657655
X00314248Y00660648
X0031242Y0067056
Y0068072
X0030492Y00687812
X0029972Y006858
X0029492Y0068707
X0028992
X0028492
X0028067Y0068072
Y0067056
X0026035
Y0068072
X0026517Y00689405
X00252349Y00691072
X00261955Y0071537
X0026162Y0072263
X00260985Y0073025
Y0073525
X0026035Y0074168
X00261955Y0076037
Y0077037
Y0077537
X00254Y00774065
X00248487Y00759626
X0023495Y0076835
X002159Y0075819
Y0074803
X00229235Y00743585
X0023749Y0073914
X00239014Y00732531
X0023876Y0072644
X0023368Y0072898
Y0073406
X0024257Y0072009
X0026035Y0065659
X002667Y006477
X00248285Y00635
X0023114Y0060579
X0022606Y005969
X0022225Y0058674
X0022606Y0054229
X0023622
Y0052197
X0024257
X0028702Y00526288
Y00532384
X0029337Y0053594
X0029464Y0052324
X00300355Y00546364
Y00568275
X00304038Y00616585
X0028448
X00300958Y00667417
X0034544Y0068072
X0036576
Y0067056
X0035814Y00694055
X0036703Y0070231
X00369248Y00707988
X00371562Y00720558
X00378372Y0071501
X00388432Y00719619
X00389088Y0072568
X0044323Y007874
X0048768Y0081661
X0049403Y00814781
X0049657Y0081915
X00510413Y00815086
X0051943Y00814781
X0052324Y0081534
X0055245
X0055753Y00814781
X00572135Y00815086
X0058293Y00814781
X0058928Y0081534
X0059182Y0078613
X00590754Y00778306
X00595066Y00773993
X0060198Y0077216
X00610235Y0076327
Y0073025
X0057023Y00773209
X0057277Y00542925
X00554607
X0056261Y0052324
Y0051435
X00580007Y00509882
X00571521Y00499954
X0056642Y00478155
X0055118
X00542138Y00475361
X0053721Y00471785
X00537845Y0046609
X00554607Y00465709
X00575562
X00584452Y00446391
X00610487Y00443208
X006096Y0046355
X0061087Y0046863
X00610487Y00488292
X00609852Y00499087
Y00503532
X00603502Y00525503
X00605407Y00542925
X00518668Y00548524
X00513715Y00541655
Y00532765
X00505839Y00548534
X00508635Y005588
X00519199Y00562841
X0052451Y00502285
X00518787Y00490197
X00513502Y00495482
X00542275Y00497602
X005461Y00446391
X00533631Y00442999
X00501287Y00437515
X00440372Y00440818
X00443277Y00428022
X0042037Y00427981
X0041813Y00437515
X0041163Y00438877
X0040513Y00437515
X0042672Y00452628
X004064Y00504825
X00396875Y0051309
Y00521335
X0033274Y00517039
Y0050688
Y0049657
Y0048641
Y0047625
Y0046609
Y0045593
Y00445919
X00370205Y00426085
X00282575Y0042672
Y0043307
X0025146Y0045593
X00321692Y00499954
X00320875Y00527685
X00476072Y00495482
X00474828Y00488523
X00294856Y00799412
X00272646Y00815109
X00621665Y007874
X00626745Y00784225
X0064262Y0078994
X00648936Y00788266
X00668251
X0068453Y0078994
X0070231Y0075946
X00716915Y00743585
X0072009Y0072263
X0071374Y0072136
X0072644
X0073406Y0070739
X0074168Y0071501
Y0073533
X0075184Y0072644
X00752602Y00746125
X00777113Y00738124
X00777875Y00729615
Y00720725
X00762Y00704215
X0076327Y0067691
X0077089
X0077724
X0078486Y00677001
X0079629Y0067691
X0080518
X008128
X0081915
X008255
X0081915Y00699135
X0080899
X0083185Y0071247
X008382
X0083439Y00717202
Y00723298
X0083058Y0072771
X0085725Y0072898
X0086106Y0072517
Y0072009
Y0071501
X0085598Y0071247
X00862885Y00732536
Y00774069
X00859155Y0081601
X00888365Y0082067
X00906715Y007986
X00930275Y00784225
Y00775335
X0092825Y00769239
X00918965Y0076837
X0094869Y00769239
X0094488Y0073152
X0095631Y00704215
X00931069
X00918965Y00669
X00901Y0065501
X0090551Y00632968
X0089154Y0062611
X00875665Y00631825
X00866775
X00856078Y00625309
X0084963Y0061976
X0083375Y0061401
X00847725Y00592455
Y00583565
Y00568325
Y00559435
Y00549275
Y00540385
Y00530225
Y00521335
Y00511175
Y00502285
X00845185Y00492125
Y00483235
X00858289Y00480291
X0087122Y0048133
X00874799Y00496166
X00873506Y0050673
X00870285Y0051614
Y0052114
Y0053114
Y0053614
Y0054614
Y0055114
Y0055614
Y0056114
Y0057114
Y0057614
X009017Y00600075
X0090825Y00598537
X0093091Y0060579
X0093825Y00599105
X0094325
X0094825
X0095325
X0097663Y00600075
X0098298Y0058928
X00978764Y0057404
X0098425Y0057023
X00984592Y00563792
X0097282Y0056261
X00973648Y00569607
X00993381Y00569485
X00998997Y00571857
X010033Y0056642
X0098933Y0057404
X010033Y0058801
X0099568Y006223
Y0063373
X0100534Y00631822
X00994664Y0065151
X0098425
Y0067183
X00994664
X0099949Y0066548
X01005291Y00664753
X0097409Y0066548
X00967314Y00666751
X00968068Y00660702
X0096012Y0066421
X0095631Y0064897
X0094996Y0065151
X0094436Y0062773
X00962025Y006223
X0096774Y00621665
X00970915Y00631063
Y0063627
X00925195Y00621665
X00916305
X0090825Y00498175
X0090325
X00920877Y00492604
X0091694Y0047752
X00909955Y00475615
X00901065
X00887095Y00465455
X00878205
X0090416Y00450949
X00906603Y00438156
X0093599Y0042799
X009398Y0045847
X00947477Y00481387
X0094107Y0049149
X0093825Y00498175
X0095325
X0095825
X00962025Y00497205
X00974375Y00464055
X01009419Y00520931
X0100457Y0070739
X0099822Y0070866
X00988921Y00708267
X00980694
X0098933Y0071628
X0100838Y00715391
X0099568Y00767715
X0077724Y0080264
Y0081026
X0077216Y0080645
X0075057Y0067691
X00739775Y00676275
X00735838Y0061468
X0069977Y0059436
X0070104Y0058928
X0069977Y005842
X0069469Y00582096
X0068961Y005842
X0068834Y0058928
X0068961Y0059436
X0069469Y00596464
Y0058928
X00691836Y00553925
X00708025Y00553847
X00725043Y00539115
X0074586
X0074422Y005334
X0075057Y0053213
X0075565Y0052959
X0076327Y0052705
X0076962Y005207
X0076581Y0051562
X00762471Y00494642
X0074549Y00495912
X00728345Y00494642
X0071247Y00509247
X006865
X00688975Y00518795
X00653415Y00514985
X00640484Y00513311
X00633095Y00499034
X00634365Y00484505
X00645674Y004905
Y0045307
X0062865Y0045085
X00622935Y00465455
Y00475615
X00620647Y00536933
X00638175Y00536575
X006477Y00534647
X00653415Y00538086
X0066294Y005334
X00643507Y00542925
X006731Y00553925
X00666115Y00437515
X00657225
X0065151Y004318
X00714883Y0043307
X0076327Y0045085
X00768985Y00457839
X00769145Y00471874
X0078613Y0050038
X0081915Y0048641
Y0047625
Y0046609
X00833755Y0047117
X0083947Y004699
X00833755Y00492125
X0082042Y0054483
Y0055499
X00813435Y00581025
X00804545
X0078867Y0058928
X0077724Y0058039
X0081915Y0043307
X00693674Y00711625
X00688594
X00678815Y00719455
X0066548Y00737235
X00659675Y0073533
X00631825Y0073025
Y00763016
X0065659Y0076581
X00652977Y0076962
X00667385Y0069977
Y0069215
X01015073Y00704215
X0101219Y0071247
X01037533Y00704215
X0104394Y0073025
X01051Y00744
Y00754
X01061Y00734
X01061Y00724
X01071Y00724
X01081
Y00714
X01101
X01101Y00724
Y00704
X01111
X01111Y00714
X01121Y00724
X01141
Y00734
X01131
Y00744
X01141
X01111
X01101
X01091
X01081
X010795Y00762
X01086
X01106
X01112073
X01121Y00694
Y00684
X01111
Y00674
Y00664
X01101
Y00654
X01091Y00654
X01083848Y00654055
X01077752Y00654
X01071
X01071Y00664
X01061
X01061Y00674
X01051
X01061Y00684
X01061Y00694
X01071Y00694
X01081Y00694
X01091Y00694
X01101
Y00684
X01091Y00684
X0108331Y00684289
X01071227Y00683983
X01071Y00674
X01081201Y00673531
X0109093Y0067564
X0108839Y00665524
X01091Y00644
X01101
X01101Y00634
Y00624
X01091
Y00634
X01081Y00634
X01081Y00644
Y00624
X01071
X01069759Y00618666
X01061Y00624
Y00634
X01071
X0105029Y0062992
X01044428Y00629499
X0104394Y00635
X0104775Y0062357
X0103632Y0061976
X01030539Y00621462
X0102362Y006223
X01017786Y0062407
X01011725Y00623416
X0101219Y0061341
Y0060706
X01017524Y00610011
X0102616Y0061722
X01019683Y00635508
X01010914Y00634289
X0101473Y0065659
X01009719Y00660563
X0101981Y0067183
X01016817Y00592817
X0101092Y00595146
X0100965Y0058674
Y005715
X01026523Y00564273
X0102489Y0055753
X01039959Y00558629
X01051Y00554
X01048929Y00549
X01051Y00544
X01061Y00554
X01071
Y00564
X01081
X01081Y00554
X01091
Y00564
Y00574
X01101
Y00564
X01111
X01111Y00574
Y00584
X01121
X01131
Y00574
X01121Y00574
X01129061Y00563445
Y00554
X01121
X01111
X01101
X01101Y00544
X01091
X01081Y00544
X0107569Y0054356
X01071Y00544
Y00534
X01071Y00524
X01061
Y00514
X01043973Y00523748
X0103561Y0052578
X01015874
X01024425Y0049948
X01051Y00494
X01071
X01066296Y00489
X01081Y00504
X01091Y00514
X01091Y00524
X01082833Y00523748
X01081Y00534
X01091Y00534
X01101
X01101Y00524
X01111Y00524
X01111Y00514
X01121Y00524
Y00534
Y00544
X01131
X01141Y00544
X01151
Y00534
Y00524
X01141Y00524
X01131
Y00534
Y00514
X01141Y00514
Y00504
X01141Y00494
X01131
X01166Y00491929
X01176
X01171Y00504
X01161Y00504
Y00514
Y00534
X01171
Y00524
X01181Y00524
X01191
X01191Y00514
X01201
X01201Y00524
X01201Y00534
X01191Y00544
Y00554
X01181
Y00564
X01191
X01191Y00574
Y00584
X01181
X01171
X01171Y00594
X0116332Y0059436
X01161Y00604
X0117094
X01171Y00614
X01181
X01191Y00614
X01191Y00624
Y00634
X01201
Y00624
X01211
Y00614
X01211Y00604
Y00594
X01201
Y00604
X01191
X01191Y00594
X01181Y00574
X01161
Y00564
X01151Y00564
Y00574
X01151Y00584
X01141
X01141Y00574
X0114173Y0056515
X01141531Y00554
X01151
X01161Y00554
X01181823Y00541636
X01181Y00514
X01191Y00504
X01201Y00500752
X01201Y00494
X01164052Y00482652
X01252605Y00478346
X01261175Y00478327
X01261175Y00469365
X01252318
X01251Y00504
X01261
X01271
X01281Y00514
X01281Y00544
X01291
Y00554
Y00564
Y00574
Y00584
X01281
X01271
X01261
Y00594
X01271
Y00604
X01271Y00614
X01261
X01251
X01241
Y00624
Y00634
X01231
X01221Y00634
X01221Y00644
X01211
X01201
Y00654
X01211
X01191
X01191Y00644
X01181Y00644
X01181Y00634
X01170849Y0063627
X01171Y00644
X01161Y00644
Y00634
Y00624
X01161Y00614
X01151
Y00634
Y00644
X01151Y00654
X01141
Y00644
X01131Y00644
X01121Y00644
X01121Y00634
X01131Y00634
Y00624
X01121
Y00614
X01131Y00614
X01131Y00604
X01121
X01101
X01101Y00594
X01091
Y00584
X01101
X01081
X0108077Y0057404
X01071Y00574
Y00604
X01037934Y00578008
X01032645Y00581041
X0102616Y0058039
X0103251Y0056769
X01111Y00534
X01141Y00594
X01111Y00634
X01111Y00644
X01121Y00664
X01131Y00664
X01141Y00674
Y00684
Y00694
X01151Y00704
X01161
Y00694
X01171Y00704
X01191
X01201
Y00714
Y00724
X01191
Y00714
X01191Y00744
X01181Y00744
X01171Y00734
X01201Y00734
Y00744
X01211
Y00734
X01221
Y00724
X01231
X01241
X01251
Y00734
Y00744
X01261
X01271
Y00734
Y00724
Y00714
Y00704
X01281
X01291Y00704
X01301Y00694
Y00674
Y00664
Y00654
Y00634
X01291
Y00624
X01291Y00614
X01301
Y00624
X01301Y00604
X01291
X0128143Y0059436
X01281Y00614
X01271Y00624
Y00634
X01261Y00644
X01251
Y00654
X01241
X01241Y00644
X01241Y00674
X01251Y00664
Y00684
X01251Y00694
X01241Y00694
Y00704
Y00714
X01251
X01261Y00704
Y00684
X01271Y00684
X01281
X01281Y00674
X01291
Y00684
X01311Y00664
X01332865Y00664845
X0134493Y006731
X0135001
X0135636
X01356995Y00643255
X01348105
X01332865Y00640715
X0133223Y0061468
X01362585Y00613445
Y006223
X01362137Y00631952
X01383385Y00657225
X01383665Y00695325
X0137414Y0072136
X0137287Y0073152
X0137541Y007366
X0136398Y0071882
X0136144Y0071374
X0135382Y0072517
X0133858Y007112
Y00705104
X01332865Y00695325
X01322516Y0072517
X01311Y00714
X01301
X01291Y00724
X01301Y00744
X01311
Y00754
X01301
X0128143Y0075311
X01271706Y00762
X01266
X01261Y00754
X01246Y00762
X01239462
X0125222Y0076835
Y007747
X0121158Y0077851
X012065Y00778095
X0119253Y0076073
X01231Y00744
Y00734
X01241
X01231Y00704
X01221
X01211
Y00694
X01201
Y00684
Y00674
X01211
Y00684
X01221Y00674
X01231Y00664
X01201Y00664
X01191Y00674
Y00684
X01181
Y00694
X01181Y00664
X01171
X01271Y00654
X01281Y00654
X01251Y00604
Y00594
X01241Y00594
X01231
Y00584
Y00574
X01221
Y00584
X01211Y00574
X01201Y00574
Y00564
X01201Y00554
X01211Y00554
X01221
Y00564
X01241
X01251
X01271Y00564
X01261Y00554
X01241Y00544
Y00534
X01231
Y00544
Y00524
X01241
X01231Y00514
X01241Y00504
X01211Y00544
X01231Y00614
X01301Y00584
Y00554
X01311Y00514
Y00494
X0133858Y0051308
X0134366
X0133858Y0052324
X01365125Y00549
Y0058383
X0140208Y0053467
X01406391Y00530359
X0133096Y0075946
X0132588
X01332865Y00794385
X0135255
X0141605
X01438402
X01457325Y0070866
Y0070104
X01459865Y00678815
Y00657225
X01429385
X014224Y0069411
X0141986Y0070358
X0141351Y0070231
X01527175Y00701675
X0151892Y0074168
X0152019Y0074676
X0153543Y0075311
X01553845Y00780415
X01562735
X01590206
Y0078867
Y0079756
Y0080645
Y0081534
X0155321Y008128
X0156591Y0071882
X0157861
X01593984Y0070866
X0159512Y0070231
X01593984Y00695325
X01541145Y00663575
X01527175Y00629285
X0153035Y006096
X01515745Y00615315
X0151003Y006096
Y0059944
Y0058928
X01541145Y00581025
X01530985Y00550545
X01540821Y0053975
X0155575Y0052705
X0156337
X0157099
X0157861
X0151511Y0054483
X01458595Y0053975
Y00550545
X01429385
Y00581025
X0141224Y0053467
X01451725Y00461374
X01482852Y00492125
X01501648Y0048895
X0159004Y0045085
X0164465Y00472044
X0165481
X0164973Y00503555
X0168783Y00483235
X0169672
X01708785
Y0048895
Y00476197
Y00469854
Y0046355
X01709155Y0044323
X01733497Y00446405
X0174371Y00497205
X0176276
X01773809Y0051158
Y0054483
X0176022Y00573088
X0174625
X0172974Y0054483
X01728622Y0051158
X0180213Y0046101
Y0044069
X0176022Y00631825
X0174625
Y0065786
X0176022
X0175387Y00744079
X0177012
X0173609Y0073152
X0172085
X01798955Y00780415
Y0078867
Y0079756
Y0080645
Y0081534
X0149225Y0065532
Y0063754
X0149606
X0148844
X0148463
X0148082
Y0061341
Y006096
X0148463
X0148844
X0148482Y00613397
X0180848Y0070358
Y0070866
Y0071501
Y0072136
Y0072771
Y0073279
X0184785Y0074041
X0185293Y0074422
X01827022Y0077343
X0193929Y0073787
X0195707Y0074168
X0199937Y00643763
X02022738Y00637305
X02031506Y0064262
X02031746Y0062611
X02031506Y0059817
X02022738Y00586506
X0199618Y00593902
X01996209Y00576984
X0199937Y00542163
X02022738Y00535705
X02021205Y00507365
X02030165Y00506095
X02032879Y00495046
X02011449Y00494434
X0199937Y00491363
Y00440563
X02032879Y00444246
X0204183Y0054991
X02107565Y00544195
Y00537845
Y00531495
Y00525145
Y00518795
X02107485Y00507365
Y00498475
X02031746Y0067056
X0225552Y0066675
X0226822
X0228092
X0229362
X0230632
X0231902
X0233172
X0234442
X0235712
X0236982
X0238252
X0239522
X0240792
X0242062
X0243332
X0244602
X0245872
X0247142
X0248412
X0249682
X0250952
Y0064643
X0249682
X0248412
X0247142
X0245872
X0244602
X0243332
X0242062
X0240792
X0239522
X0238252
X0236982
X0235712
X0234442
X0233172
X0231902
X0230632
X0229362
X0228092
X0226822
X0225552
Y006223
X0226822
X0228092
X0229362
X0230632
X0231902
X0233172
X0234442
X0235712
X0236982
X0238252
X0239522
X0240792
X0242062
X0243332
X0244602
X0245872
X0247142
X0248412
X0249682
X0250952
Y0060198
X0249682
X0248412
X0247142
X0245872
X0244602
X0243332
X0242062
X0240792
X0239522
X0238252
X0236982
X0235712
X0234442
X0233172
X0231902
X0230632
X0229362
X0228092
X0226822
X0225552
X02361565Y00525145
X02375866Y00516255
X02351405Y00504825
X02346325Y00481965
Y00459425
X02340841Y00455064
X02331085Y00467995
X0236982Y00465455
X0237744
X0238506
X0239268
X024003
X0240792
X0241554
X02402919Y0050306
X0240411Y0052832
X02418715Y00522605
X02451735Y00502285
X02463165Y00493395
X02565941Y0044196
X02594832
X02587105Y0072994
X02558215
X02542105
X02513215
X02489675Y00776478
X02460785
X0257683Y0081153
X02620772Y00765335
X0265811Y00767218
X02723625Y00750525
X02732205Y0072994
X02761095
X02763949Y0075825
X02785905Y00715518
X02814796
X0269748Y006731
X026416Y0066167
X0262763Y0068961
X02598707Y0070866
X0261366Y0064643
X0271145Y00607314
X0273939Y00607554
Y00532906
X0271145Y00533146
X0271399Y0048411
X0274193Y0048387
Y0045085
X0273177Y0044323
X0271399Y0045061
X02656371Y0045085
X0265793Y0048387
X0262999Y0048411
X02846757Y00484341
X02861202Y0054102
X02816065Y0054065
X0303022Y00614205
Y00643095
X0302514Y00648495
X0303936Y0067183
X0302514Y00695165
X02524375Y01004624
X02223135Y00977265
X02138045
X01994535Y0088773
X01921002Y00960915
X01894078
X01882869Y0097028
X0185166Y0096901
X01857312Y00987298
X01851533Y00995426
X01832737
X01842135Y01018794
X01863725Y01011555
X01812831Y0097028
X0180721Y0093853
X0179451Y009271
X0178859Y009288
X01784279Y00924489
X0178689Y0091821
X0177419Y0096012
X0176403
X0175514Y0094996
X0174879
X0174244Y0096012
X01748155Y00974725
X0175133Y0098806
Y00998335
X0175266Y01006725
X0176366
X0176911Y0100965
X0177466Y01006725
X0173066
X0173101Y00998335
Y0098806
X0172593Y0098171
X0172974Y0097663
X0171831Y0096012
X0170815
X0169799
X0169291Y0094615
X0168656
X0168021Y0093599
X0167386
X017145Y0094742
X0172085
X0172974
X0171966Y01006725
X017145Y0100965
X0170866Y01006725
X0170307Y0100711
X0169766Y01006725
X01727708Y01043145
X0174166Y01035615
X01754632Y01043145
X0175266Y00879475
X0176784
X01798955Y0082296
X01590206
X01536224Y00827881
X0155321Y0085217
X0154469Y0089408
X0156501
Y0090424
Y009144
X01503017Y00908685
X0147955
X0141732
X0141351Y0087376
X01448435Y0098806
Y0099949
Y0100711
X0149733Y01020445
X0150368
Y00978535
X0149733
X01509303Y00972213
X01517069Y00964447
X01524385Y00957131
X01532018Y00949498
X0151765Y00943212
X01510466Y00950396
X01503017Y00957844
X0139192Y0092964
X01396124Y00921678
X01397Y00908685
X0137922Y0091821
X013589
X0135763Y0092329
X0135382Y0091313
X0135255Y0089535
Y0086233
X0132715
X01298575Y00836295
X0127381Y00833045
X01251555
X0123444Y0083185
X0122936
X0118872Y00833045
X0118745Y00838962
X01166495Y00833045
X0115189Y0086487
Y0087249
X0117094Y0090043
X0117602Y0089662
X0118237Y0091059
X0117094Y0094107
X011557Y0094488
X01143
X0114681Y0095504
X0113968Y00957652
X0113538Y0096139
X0112776Y0095885
X0112141Y009525
X0113411
X0115189Y0096139
X0117348Y0096393
X01171876Y00969946
X01176187Y00974257
X01180497Y00978567
X01184808Y00982878
X0119253Y0098298
X011684Y0098806
X0116332
Y0101981
X011557Y01016
X010922Y0100711
X010668
Y0097409
X010922
Y0089535
X010922Y0086233
X010668Y0086741
X0105664Y0087376
X0103886Y0089027
X0103124Y0089916
X0102616
X0102108Y0090424
X0101092Y0096266
X0101219Y0096901
X0102362Y0100584
Y0101219
X0113919Y0092329
X0115316
X0123063Y0094488
X0123952Y009525
X0122682Y0103505
X0132715Y0100711
X0135255
Y0097409
X0135636Y00958469
X0134493Y0095885
X0133985Y0095504
X0135382Y0094869
X0135255Y0094234
X0135001Y0093853
X0134366Y0093599
X0136144Y0094488
X0132715Y0097409
X0140589Y0087249
X0138049Y0083693
X0098298Y0089662
X0097282
X0100584Y0095885
X00948055Y0096901
X0094996Y0097536
Y0098806
X00948055Y0099441
X0094996Y0100076
X00948055Y0100711
X00921385
X0092075Y0100076
X00921385Y0099441
X0092075Y0098806
X00921385Y0098171
X00908685Y01001395
Y01010285
X00923059Y01025121
X0093599Y0096012
X00887095Y00927735
X0084963Y0095631
X0084201Y0095758
X0084074Y0094996
X0082423Y0095123
X0079883Y0094742
Y00927735
X0078867
X0077851
X00772795Y00932815
X00770591Y00939809
X0077216Y0092075
X00772795Y00913765
X0078359
X0079375
X0080518Y00914082
X0081026Y0090424
X00818515Y00901065
X0083058Y0089408
X00837565Y00901065
X00814705Y00929005
X0083439Y0097155
X0083058Y0097663
X008509Y0097155
X0084963Y0096647
X00854979Y00980709
X0085471Y0098552
X00859289Y0098502
X00849797Y0103124
X0082423Y0101473
X0080518Y00997803
X0076835Y0099695
X00762Y0099441
X00754974Y00997077
X00749054Y0099562
X0073955Y0099305
X00730232Y00994392
X0072453Y0099808
X0072898Y010033
X0073533Y0099949
X00744855Y01009015
X0070612Y0099187
X0069596
X006858
X00680085Y00977265
X0067437Y009779
X00678815Y00965835
X00680085Y00958215
X0067945Y0094615
X0066548Y0094742
X00666425Y00963351
X00700654Y0096266
X00700809Y00952096
X00709178Y00953897
X00710955Y00948065
X0070993Y0094361
X0070485Y0093345
X0072955Y0092965
X0072517Y0092456
X0072554Y00917942
X0073787Y0090551
X0074295Y0089535
X0073279
X0072263
X0071247
X006858
X00669925Y00917575
X00657352Y0092329
X0073955Y0092965
X00710237Y00964532
X0071215Y0098171
X0069596Y0102616
X0066548Y01018032
Y01008888
X0077597Y00979973
X00774635Y00974025
X00776605Y00968168
X0075946Y0084582
Y0083566
X0079375Y00833755
X0083439
X00862153Y0084074
X00906715
X0072263Y0083439
X0071501Y0084074
X0070358Y0084455
X006985Y0084582
X0069596Y0084963
X0068961
X0068072Y0084328
Y008382
X0068453Y0082677
X0066675Y00841375
X00598606Y0087503
Y0089281
X0058293Y0085979
X0055753
X0051943
X0049403
X00471606Y0089662
X00512534Y00926465
X0052848Y00910986
X0053348
X0053848
X0054364Y0091059
X00549736
X00572135Y00930186
X00597676Y009525
X00597916Y0098044
X0040513Y0097536
Y009652
X0038481
Y0097536
X00389166Y0099187
X0037846Y0101092
X00401955Y01027775
X00407035Y0094399
X00394335
X00375374Y0092456
X0036957Y00880745
X00376555Y0087249
X0038862Y00868426
X0040132Y00868045
X00401637Y00837565
X00410845Y0083947
X00373305Y00837468
X0031242Y008382
X0030026Y0084238
X00283845Y0082677
X0027559Y0086233
X0026797Y0087122
X00279804Y00876531
X00234823Y0086741
Y0085217
X00236093Y0083439
X0022614Y00923525
X0021844Y00923836
X0023614Y00948544
X00245322Y0094742
X00230863Y00968225
X0026035Y0097282
X00280162Y00988088
X00283279Y01008477
X00253931Y01008283
X00270607Y01040199
X00280767
X0031242Y00959574
X003048Y00937984
X0034417Y00880745
X00338265Y0087122
X0032639Y0082169
X0020447Y0084582
X0020066Y0085725
X00171657Y0084836
X0016129Y00861836
X0013335Y00862076
X00100965Y0083662
X00100076Y00924687
X0011303Y0094742
X00123444Y00945515
X0013335Y00937895
X0016129Y00938135
X0015621Y0093091
X0018796
X0019664Y00956845
X0020214
X00206822Y00958469
X00166107Y00964184
X0014351Y0096139
X00081033Y00945455
T02
X02656Y0031541
Y0032641
Y0033741
Y0034841
Y0035941
Y0037041
Y0038141
Y0039241
Y0040341
X02667
X02678
Y0039241
X02667
Y0038141
X02678
Y0037041
X02667
Y0035941
X02678
Y0034841
X02667
Y0033741
Y0032641
X02678
Y0033741
Y0031541
X02667
X0139322Y00131615
X0139897Y00122115
X0138747
X0139322Y00112615
X0036109Y0028026
X0036109Y0029126
X0035009
Y0028026
X0033909
Y0029126
Y0030226
Y0031326
Y0032426
X0035009Y0032426
Y0031326
X0036109
X0036109Y0032426
Y0030226
X0035009
X0032809
X0031709
Y0031326
X0032809
Y0032426
X0031709Y0032426
Y0029126
X0032809
Y0028026
X0031709
X0016806Y0074761
X0015706Y0074761
Y0075861
X0016806
X0029042Y0075987
X0030142Y0075987
Y0074887
X0029042
X0029042Y0073787
X0030142
X0031242
X0032342
X0032342Y0074887
Y0075987
X0031242Y0075987
Y0074887
Y0072687
X0032342Y0072687
X0033442
X0033442Y0073787
X0033442Y0074887
X0033442Y0075987
Y0071587
X0032342Y0071587
X0031242Y0071587
X0030142Y0071587
Y0072687
X0029042
X0029042Y0071587
X0089875Y0057064
X0090975
X0092075
X0093175
X0094275
Y0055964
X0093175
Y0054864
X0094275
Y0053764
Y0052664
X0093175
Y0053764
X0092075
Y0054864
Y0055964
X0090975
Y0054864
Y0053764
Y0052664
X0092075
X0089875
Y0053764
Y0054864
Y0055964
T03
X0303984Y00042402
X0305Y0003968
X0306016Y00042402
X03067598Y0004984
X0307032Y0006
X03067598Y0007016
X0306016Y00077598
X0305Y0008032
X0303984Y00077598
X03032466Y00070188
X0302968Y0006
X03032402Y0004984
X02834597Y0019925
X0283732Y0020941
X02834597Y0021957
X0282716Y00227008
X02817Y0022973
X0280684Y00227008
X02799466Y00219598
X0279668Y0020941
X02799402Y0019925
X0280684Y00191812
X02817Y0018909
X0282716Y00191812
X01577598Y0007016
X0158032Y0006
X01577598Y0004984
X0157016Y00042402
X0156Y0003968
X0154984Y00042402
X01542402Y0004984
X0153968Y0006
X01542466Y00070188
X0154984Y00077598
X0156Y0008032
X0157016Y00077598
X01211598Y0007816
X0121432Y00068
X01211598Y0005784
X0120416Y00050402
X01194Y0004768
X0118384Y00050402
X01176402Y0005784
X0117368Y00068
X01176466Y00078188
X0118384Y00085598
X01194Y0008832
X0120416Y00085598
X0137084Y00406402
X01381Y0040368
X0139116Y00406402
X01398598Y0041384
X01363402
X00911598Y0037816
X0091432Y00368
X00911598Y0035784
X0090416Y00350402
X00894Y0034768
X0088384Y00350402
X00876402Y0035784
X0087368Y00368
X00876466Y00378188
X0088384Y00385598
X00894Y0038832
X0090416Y00385598
X0007016Y00077598
X0006Y0008032
X0004984Y00077598
X00042466Y00070188
X0003968Y0006
X00042402Y0004984
X0004984Y00042402
X0006Y0003968
X0007016Y00042402
X00077598Y0004984
X0008032Y0006
X00077598Y0007016
X0007016Y00512402
X0006Y0050968
X0004984Y00512402
X00042402Y0051984
X0003968Y0053
X00042466Y00540188
X0004984Y00547598
X0006Y0055032
X0007016Y00547598
X00077598Y0054016
X0008032Y0053
X00077598Y0051984
X0097084Y00806402
X00981Y0080368
X0099116Y00806402
X00998598Y0081384
X00963402
X0137084Y00441598
X01381Y0044432
X0139116Y00441598
X01398598Y0043416
X0140132Y00424
X0136068
X01363466Y00434188
X0250684Y00491812
X02517Y0048909
X0252716Y00491812
X02534598Y0049925
X0253732Y0050941
X02534598Y0051957
X0252716Y00527008
X02517Y0052973
X0250684Y00527008
X02499466Y00519598
X0249668Y0050941
X02499402Y0049925
X03032402Y0051984
X0302968Y0053
X03032466Y00540188
X0303984Y00547598
X0305Y0055032
X0306016Y00547598
X03067598Y0054016
X0307032Y0053
X03067598Y0051984
X0306016Y00512402
X0305Y0050968
X0303984Y00512402
Y00982402
X0305Y0097968
X0306016Y00982402
X03067598Y0098984
X0307032Y01
X03067598Y0101016
X0306016Y01017598
X0305Y0102032
X0303984Y01017598
X03032466Y01010188
X0302968Y01
X03032402Y0098984
X01577598
X0158032Y01
X01577598Y0101016
X0157016Y01017598
X0156Y0102032
X0154984Y01017598
X01542466Y01010188
X0153968Y01
X01542402Y0098984
X0154984Y00982402
X0156Y0097968
X0157016Y00982402
X0099116Y00841598
X00981Y0084432
X0097084Y00841598
X00963466Y00834188
X0096068Y00824
X0100132
X00998598Y0083416
X00077598Y0098984
X0008032Y01
X00077598Y0101016
X0007016Y01017598
X0006Y0102032
X0004984Y01017598
X00042466Y01010188
X0003968Y01
X00042402Y0098984
X0004984Y00982402
X0006Y0097968
X0007016Y00982402
T04
X0180975Y0038989
X0182499
X0183261Y0039751
Y0041275
X0182499Y0042037
X0184023
X0185547
X0187071
X0188595
X0187833Y0041275
X0188595Y0040513
X0187071
X0186309Y0041275
X0185547Y0040513
X0186309Y0039751
X0187833
X0188595Y0038989
X0187071
X0185547
X0184785Y0039751
Y0041275
X0184023Y0040513
Y0038989
X0182499Y0040513
X0181737Y0041275
X0180975Y0042037
Y0040513
X0181737Y0039751
X0170561Y00363425
X0169037
X0168275Y00355805
X0169799
X0169037Y00348185
X0170561
Y00332945
X0169799Y00340565
X0169037Y00332945
X0169799Y00325325
X0168275
Y00340565
X0167513Y00348185
Y00363425
X0166751Y00355805
X0165989Y00363425
Y00348185
X0166751Y00340565
X0167513Y00332945
X0166751Y00325325
X0165989Y00317705
Y00332945
X0167513Y00317705
X0169037
X0170561
X0169799Y00310085
X0169037Y00302465
X0170561
X0169799Y00294845
X0169037Y00287225
X0168275Y00294845
Y00310085
X0167513Y00302465
Y00287225
X0166751Y00294845
Y00310085
X0165989Y00302465
Y00287225
X0170561
X01518236Y0032344
X01507236
Y0033444
X01496236
Y0032344
Y0034544
Y0035644
X01507236
Y0036744
X01496236
X01518236
Y0035644
Y0034544
X0150749
X01518236Y0033444
X00254282Y00391258
X00243282
Y00402258
X00254282
Y00413258
X00243028
X00232282
Y00402258
Y00391258
Y00424258
X00243282
Y00435258
X00254282
Y00424258
X00232282Y00435258
X00582547Y00596242
X00597787
Y00611482
X00605407Y00619102
Y00634342
Y00649582
Y00664822
X00597787Y00657202
Y00641962
X00590167Y00649582
Y00664822
X00597787Y00672442
X00582547
Y00657202
Y00641962
X00590167Y00634342
X00597787Y00626722
X00590167Y00619102
X00582547Y00626722
Y00611482
X00590167Y00603862
X00605407
X00613027Y00611482
Y00626722
X00628267
Y00641962
Y00657202
Y00672442
X00613027
X00620647Y00664822
Y00649582
Y00634342
X00613027Y00641962
Y00657202
X00620647Y00619102
X00628267Y00611482
Y00596242
X00620647Y00603862
X00613027Y00596242
X0160147Y0059182
X0160909Y0059944
X0162433
X0163195Y0060706
X0164719
X0166243
X0167767
X0167005Y0059944
X0165481
X0166243Y0059182
X0167767
Y0057658
X0167005Y005842
Y0056896
X0167767Y0056134
X0166243
Y0057658
X0165481Y005842
Y0056896
X0164719Y0057658
Y0059182
X0163957Y0059944
X0163195Y0059182
X0161671
Y0060706
X0160147
Y0063754
X0161671
X0162433Y0064516
X0163195Y0065278
X0163957Y006604
X0164719Y0066802
X0165481Y0067564
X0166243Y0068326
X0167767
Y0066802
Y0065278
X0167005Y0064516
Y006604
Y0067564
X0166243Y0066802
Y0065278
X0165481Y006604
Y0064516
X0164719Y0063754
Y0065278
X0163957Y0064516
X0163195Y0063754
Y0066802
X0163957Y0067564
X0164719Y0068326
X0163195
X0161671
X0162433Y0067564
X0160909
X0161671Y0066802
X0160147
Y0068326
X0160909Y006604
X0162433
X0161671Y0065278
X0160909Y0064516
X0160147Y0065278
X0166243Y0063754
X0167767
X0163957Y005842
X0162433
X0160909
X0161671Y0057658
X0163195
X0162433Y0056896
X0163957
X0163195Y0056134
X0161671
X0160909Y0056896
X0160147Y0057658
Y0056134
X0164719
X0180975Y0043561
X0182499
X0184023
X0185547
X0187071
X0188595
X0187833Y0042799
X0186309
X0184785
X0183261
X0181737
T05
X00659675Y00461785
Y00471785
Y00481785
X00669675
X00679675
Y00471785
X00669675
Y00461785
X00679675
T06
X0230341Y0002032
X0262117Y0033412
X0262636Y0033401
Y0033931
X0262117Y0033942
Y0037962
Y0038492
X0262636Y0038481
Y0037951
X0292354Y0020708
X0292989
Y001893
X0292354
X0231521Y0005842
X0230341Y0006985
X0231521Y0003175
X015343Y00173045
Y00183045
Y00193045
X015243
Y00183045
X015143
Y00193045
Y00173045
X015243
X00504787Y00461482
Y00471482
Y00481483
X00494787
X00484787
Y00471482
X00494787
Y00461482
X00484787
X0041513Y0046117
Y0047117
Y0048117
X0040513
X0039513
Y0047117
X0040513
Y0046117
X0039513
X0079756Y0072517
X0080645
X0081534
X0179451Y0048387
Y0047752
Y0047117
X0292227Y0049403
X0292862
Y0051181
X0292227
X0282586Y0075825
X0282056
T07
X0073135Y0095065
Y0096135
X0074205
Y0095065
X0075275
X0075275Y0096135
Y0097205
X0074205Y0097205
X0073135
T08
X00229822Y00975284
X00223322Y00982284
X00215322
X00207322
X00203322Y00975284
X00195322
X00187322
X00191322Y00982284
X00183322
X00175322
X00168822Y00975284
X00211322
T09
X0251333Y0023622
X0252857
X0254381
Y0025146
Y002667
Y0028194
X0252857
X0251333
Y002667
X0252857
Y0025146
X0251333
X02073984Y0015748
Y0014224
X02058744
X02043504
Y0015748
X02058744
Y00127
X02043504
Y0011176
X02058744
X02073984
Y00127
X0278511Y0064135
Y0065659
X0280035
X0281559
Y0067183
X0280035
Y0068707
X0278511
Y0067183
X0280035Y0064135
X0281559
Y0068707
X0281559Y0082804
Y0084328
X0280035
X0278511
Y0082804
X0280035
Y0085852
Y0087376
X0278511
Y0085852
X0281559
Y0087376
T11
X0046482Y009144
X0048768
X00508Y0096266
X0052832Y0096266
X0054864Y0096266
X0056896
X005588Y0098044
X0053848
X0051816
X0049784
X0057912Y009144
X0060198
T12
X00925181Y0095631
X00945501
X00935341Y0103251
T13
X0208026Y000254
X0274066Y000762
X0281686
X0298577Y0021209
Y0027432
Y0032385
Y0037686
X0217932Y0036449
X0175006Y00328965
X0163322Y0040259
X015303Y00270255
X0143129Y00233715
X0147701Y00148625
X0141732Y00059725
X01622Y0006
X0134874Y0007874
X0089916Y0029486
X0062738Y0040132
X0055118Y0036576
X0043053Y0039624
X00383Y00102112
X0024765Y0011811
Y000381
X0007016Y00125
X0005969Y0029083
Y0043053
X0002413Y0047371
X0003429Y0075311
X00127Y0067818
X0019939Y0065278
X00267847Y00521335
X0051816Y0042672
X0047444Y00725424
X0145669Y0072898
X0151003Y0077216
X0152527Y0047498
X0192151Y0070993
X0251587Y0068453
X0259334Y0051943
X0277749Y0050419
X0298577Y0042686
X027051Y0095504
Y0100584
X0251587Y0089535
X0192151Y0091313
X01622Y01
X0133985Y0103505
Y0092329
X010795
Y0103505
X0078359Y0085217
X0045974Y0087757
X00127Y0084074
Y0102362
T14
X0274066Y0004699
X0276606
X0279146
X0281686
X0288925Y0007366
X0291465
X0197739Y0027559
Y0030099
Y0032639
Y0035179
Y0037719
Y0040259
X0056134Y0032639
Y0030099
X0197739Y0042799
Y0045339
Y0047879
Y0050419
Y0052959
Y0055499
Y0058039
Y0060579
Y0063119
Y0065659
X0197104Y010033
X0194564
X0192024
X0189484
X0136525Y0100711
X0133985
X0131445
Y0097409
X0133985
X0136525
Y0089535
X0133985
X0131445
Y0086233
X0133985
X0136525
X0119634Y0092837
X0117094
X011049Y0089535
X010795
X010541
Y0086233
X010795
X011049
Y0097409
X010795
X010541
Y0100711
X010795
X011049
X0094107Y0091821
X0091567
X0085217Y009144
Y00889
T15
X03051665Y0027425
Y0032425
Y0037425
Y0042425
T16
X0214249Y0046355
X0218059
X0189611Y0077343
Y0081153
X0240411
Y0073533
X0221869Y0046355
X0225679Y0097155
X0240411Y0088773
X0218059Y0097155
X0210439
X0189611Y0084963
T17
X000346Y002146
X0006Y0024
X000854Y002146
Y002654
X000346
Y003546
X0006Y0038
X000346Y004054
X000854
Y003546
Y006546
Y007054
X000346
X0006Y0068
X000346Y006546
Y008046
X000854
Y008554
X000346
X0006Y0083
T18
X02884932Y0067564
X02918968
Y007747
X02884932
T19
X0286Y00865369
X02902
X02944
Y00920369
X02902
X0286
T20
X02785108Y0093356
Y0098056
Y0102756
X0245111Y0100838
X0240411
X0235711
T21
X0210439Y0046355
X0189611Y0073533
X0225679Y0046355
X0189611Y0088773
T22
X004699Y0100584
X005969
T23
X0305Y0006
X02817Y0020941
X0156Y0006
X01194Y00068
X00894Y00368
X0006Y0006
Y0053
X01381Y00424
X02517Y0050941
X0305Y0053
Y01
X0156
X00981Y00824
X0006Y01
T24
X0304038Y0076669
Y0087669
T25
X00236572Y00982284
X00162072
T26
X0194564Y010249
T27
X0286Y00993369
X02944
M30
