G04*
G04 #@! TF.GenerationSoftware,Altium Limited,Altium Designer,24.1.2 (44)*
G04*
G04 Layer_Color=8388736*
%FSLAX44Y44*%
%MOMM*%
G71*
G04*
G04 #@! TF.SameCoordinates,140FFB89-E29E-458A-976C-A302E020C20F*
G04*
G04*
G04 #@! TF.FilePolarity,Negative*
G04*
G01*
G75*
%ADD30R,3.1000X5.1600*%
%ADD54C,0.3556*%
%ADD122C,2.1590*%
G04:AMPARAMS|DCode=123|XSize=0.608mm|YSize=0.608mm|CornerRadius=0.2024mm|HoleSize=0mm|Usage=FLASHONLY|Rotation=90.000|XOffset=0mm|YOffset=0mm|HoleType=Round|Shape=RoundedRectangle|*
%AMROUNDEDRECTD123*
21,1,0.6080,0.2032,0,0,90.0*
21,1,0.2032,0.6080,0,0,90.0*
1,1,0.4048,0.1016,0.1016*
1,1,0.4048,0.1016,-0.1016*
1,1,0.4048,-0.1016,-0.1016*
1,1,0.4048,-0.1016,0.1016*
%
%ADD123ROUNDEDRECTD123*%
G04:AMPARAMS|DCode=124|XSize=0.608mm|YSize=0.608mm|CornerRadius=0.2024mm|HoleSize=0mm|Usage=FLASHONLY|Rotation=180.000|XOffset=0mm|YOffset=0mm|HoleType=Round|Shape=RoundedRectangle|*
%AMROUNDEDRECTD124*
21,1,0.6080,0.2032,0,0,180.0*
21,1,0.2032,0.6080,0,0,180.0*
1,1,0.4048,-0.1016,0.1016*
1,1,0.4048,0.1016,0.1016*
1,1,0.4048,0.1016,-0.1016*
1,1,0.4048,-0.1016,-0.1016*
%
%ADD124ROUNDEDRECTD124*%
G04:AMPARAMS|DCode=125|XSize=1.7272mm|YSize=1.2192mm|CornerRadius=0.1905mm|HoleSize=0mm|Usage=FLASHONLY|Rotation=90.000|XOffset=0mm|YOffset=0mm|HoleType=Round|Shape=RoundedRectangle|*
%AMROUNDEDRECTD125*
21,1,1.7272,0.8382,0,0,90.0*
21,1,1.3462,1.2192,0,0,90.0*
1,1,0.3810,0.4191,0.6731*
1,1,0.3810,0.4191,-0.6731*
1,1,0.3810,-0.4191,-0.6731*
1,1,0.3810,-0.4191,0.6731*
%
%ADD125ROUNDEDRECTD125*%
G04:AMPARAMS|DCode=126|XSize=1.2446mm|YSize=5.5626mm|CornerRadius=0.3366mm|HoleSize=0mm|Usage=FLASHONLY|Rotation=0.000|XOffset=0mm|YOffset=0mm|HoleType=Round|Shape=RoundedRectangle|*
%AMROUNDEDRECTD126*
21,1,1.2446,4.8895,0,0,0.0*
21,1,0.5715,5.5626,0,0,0.0*
1,1,0.6731,0.2858,-2.4448*
1,1,0.6731,-0.2858,-2.4448*
1,1,0.6731,-0.2858,2.4448*
1,1,0.6731,0.2858,2.4448*
%
%ADD126ROUNDEDRECTD126*%
%ADD127C,0.8636*%
G04:AMPARAMS|DCode=128|XSize=7.9016mm|YSize=9.7016mm|CornerRadius=2.0008mm|HoleSize=0mm|Usage=FLASHONLY|Rotation=0.000|XOffset=0mm|YOffset=0mm|HoleType=Round|Shape=RoundedRectangle|*
%AMROUNDEDRECTD128*
21,1,7.9016,5.7000,0,0,0.0*
21,1,3.9000,9.7016,0,0,0.0*
1,1,4.0016,1.9500,-2.8500*
1,1,4.0016,-1.9500,-2.8500*
1,1,4.0016,-1.9500,2.8500*
1,1,4.0016,1.9500,2.8500*
%
%ADD128ROUNDEDRECTD128*%
%ADD129R,1.6764X3.1496*%
%ADD130R,5.9436X6.4516*%
G04:AMPARAMS|DCode=131|XSize=1.6256mm|YSize=0.508mm|CornerRadius=0.1422mm|HoleSize=0mm|Usage=FLASHONLY|Rotation=180.000|XOffset=0mm|YOffset=0mm|HoleType=Round|Shape=RoundedRectangle|*
%AMROUNDEDRECTD131*
21,1,1.6256,0.2235,0,0,180.0*
21,1,1.3411,0.5080,0,0,180.0*
1,1,0.2845,-0.6706,0.1118*
1,1,0.2845,0.6706,0.1118*
1,1,0.2845,0.6706,-0.1118*
1,1,0.2845,-0.6706,-0.1118*
%
%ADD131ROUNDEDRECTD131*%
G04:AMPARAMS|DCode=132|XSize=1.6256mm|YSize=0.508mm|CornerRadius=0.0813mm|HoleSize=0mm|Usage=FLASHONLY|Rotation=0.000|XOffset=0mm|YOffset=0mm|HoleType=Round|Shape=RoundedRectangle|*
%AMROUNDEDRECTD132*
21,1,1.6256,0.3454,0,0,0.0*
21,1,1.4630,0.5080,0,0,0.0*
1,1,0.1626,0.7315,-0.1727*
1,1,0.1626,-0.7315,-0.1727*
1,1,0.1626,-0.7315,0.1727*
1,1,0.1626,0.7315,0.1727*
%
%ADD132ROUNDEDRECTD132*%
%ADD133C,0.6096*%
%ADD134C,1.3716*%
G04:AMPARAMS|DCode=135|XSize=0.38mm|YSize=0.74mm|CornerRadius=0.1192mm|HoleSize=0mm|Usage=FLASHONLY|Rotation=90.000|XOffset=0mm|YOffset=0mm|HoleType=Round|Shape=RoundedRectangle|*
%AMROUNDEDRECTD135*
21,1,0.3800,0.5016,0,0,90.0*
21,1,0.1416,0.7400,0,0,90.0*
1,1,0.2384,0.2508,0.0708*
1,1,0.2384,0.2508,-0.0708*
1,1,0.2384,-0.2508,-0.0708*
1,1,0.2384,-0.2508,0.0708*
%
%ADD135ROUNDEDRECTD135*%
G04:AMPARAMS|DCode=136|XSize=2.54mm|YSize=1.79mm|CornerRadius=0.1113mm|HoleSize=0mm|Usage=FLASHONLY|Rotation=90.000|XOffset=0mm|YOffset=0mm|HoleType=Round|Shape=RoundedRectangle|*
%AMROUNDEDRECTD136*
21,1,2.5400,1.5675,0,0,90.0*
21,1,2.3175,1.7900,0,0,90.0*
1,1,0.2225,0.7838,1.1588*
1,1,0.2225,0.7838,-1.1588*
1,1,0.2225,-0.7838,-1.1588*
1,1,0.2225,-0.7838,1.1588*
%
%ADD136ROUNDEDRECTD136*%
%ADD137R,0.8128X1.1176*%
G04:AMPARAMS|DCode=138|XSize=0.9016mm|YSize=1.6016mm|CornerRadius=0.1508mm|HoleSize=0mm|Usage=FLASHONLY|Rotation=0.000|XOffset=0mm|YOffset=0mm|HoleType=Round|Shape=RoundedRectangle|*
%AMROUNDEDRECTD138*
21,1,0.9016,1.3000,0,0,0.0*
21,1,0.6000,1.6016,0,0,0.0*
1,1,0.3016,0.3000,-0.6500*
1,1,0.3016,-0.3000,-0.6500*
1,1,0.3016,-0.3000,0.6500*
1,1,0.3016,0.3000,0.6500*
%
%ADD138ROUNDEDRECTD138*%
G04:AMPARAMS|DCode=139|XSize=0.608mm|YSize=0.608mm|CornerRadius=0.177mm|HoleSize=0mm|Usage=FLASHONLY|Rotation=180.000|XOffset=0mm|YOffset=0mm|HoleType=Round|Shape=RoundedRectangle|*
%AMROUNDEDRECTD139*
21,1,0.6080,0.2540,0,0,180.0*
21,1,0.2540,0.6080,0,0,180.0*
1,1,0.3540,-0.1270,0.1270*
1,1,0.3540,0.1270,0.1270*
1,1,0.3540,0.1270,-0.1270*
1,1,0.3540,-0.1270,-0.1270*
%
%ADD139ROUNDEDRECTD139*%
G04:AMPARAMS|DCode=140|XSize=4.5016mm|YSize=2.6016mm|CornerRadius=0.6758mm|HoleSize=0mm|Usage=FLASHONLY|Rotation=270.000|XOffset=0mm|YOffset=0mm|HoleType=Round|Shape=RoundedRectangle|*
%AMROUNDEDRECTD140*
21,1,4.5016,1.2500,0,0,270.0*
21,1,3.1500,2.6016,0,0,270.0*
1,1,1.3516,-0.6250,-1.5750*
1,1,1.3516,-0.6250,1.5750*
1,1,1.3516,0.6250,1.5750*
1,1,1.3516,0.6250,-1.5750*
%
%ADD140ROUNDEDRECTD140*%
G04:AMPARAMS|DCode=141|XSize=1.0516mm|YSize=1.0516mm|CornerRadius=0.2266mm|HoleSize=0mm|Usage=FLASHONLY|Rotation=270.000|XOffset=0mm|YOffset=0mm|HoleType=Round|Shape=RoundedRectangle|*
%AMROUNDEDRECTD141*
21,1,1.0516,0.5985,0,0,270.0*
21,1,0.5985,1.0516,0,0,270.0*
1,1,0.4531,-0.2993,-0.2993*
1,1,0.4531,-0.2993,0.2993*
1,1,0.4531,0.2993,0.2993*
1,1,0.4531,0.2993,-0.2993*
%
%ADD141ROUNDEDRECTD141*%
G04:AMPARAMS|DCode=142|XSize=1.7272mm|YSize=1.2192mm|CornerRadius=0.1905mm|HoleSize=0mm|Usage=FLASHONLY|Rotation=180.000|XOffset=0mm|YOffset=0mm|HoleType=Round|Shape=RoundedRectangle|*
%AMROUNDEDRECTD142*
21,1,1.7272,0.8382,0,0,180.0*
21,1,1.3462,1.2192,0,0,180.0*
1,1,0.3810,-0.6731,0.4191*
1,1,0.3810,0.6731,0.4191*
1,1,0.3810,0.6731,-0.4191*
1,1,0.3810,-0.6731,-0.4191*
%
%ADD142ROUNDEDRECTD142*%
%ADD143C,0.5500*%
G04:AMPARAMS|DCode=144|XSize=2.1336mm|YSize=0.7366mm|CornerRadius=0.1302mm|HoleSize=0mm|Usage=FLASHONLY|Rotation=180.000|XOffset=0mm|YOffset=0mm|HoleType=Round|Shape=RoundedRectangle|*
%AMROUNDEDRECTD144*
21,1,2.1336,0.4763,0,0,180.0*
21,1,1.8733,0.7366,0,0,180.0*
1,1,0.2604,-0.9366,0.2381*
1,1,0.2604,0.9366,0.2381*
1,1,0.2604,0.9366,-0.2381*
1,1,0.2604,-0.9366,-0.2381*
%
%ADD144ROUNDEDRECTD144*%
G04:AMPARAMS|DCode=145|XSize=1.4986mm|YSize=3.6576mm|CornerRadius=0.2254mm|HoleSize=0mm|Usage=FLASHONLY|Rotation=270.000|XOffset=0mm|YOffset=0mm|HoleType=Round|Shape=RoundedRectangle|*
%AMROUNDEDRECTD145*
21,1,1.4986,3.2068,0,0,270.0*
21,1,1.0478,3.6576,0,0,270.0*
1,1,0.4509,-1.6034,-0.5239*
1,1,0.4509,-1.6034,0.5239*
1,1,0.4509,1.6034,0.5239*
1,1,0.4509,1.6034,-0.5239*
%
%ADD145ROUNDEDRECTD145*%
%ADD146O,1.6900X0.7400*%
G04:AMPARAMS|DCode=147|XSize=3.556mm|YSize=1.6764mm|CornerRadius=0.3106mm|HoleSize=0mm|Usage=FLASHONLY|Rotation=90.000|XOffset=0mm|YOffset=0mm|HoleType=Round|Shape=RoundedRectangle|*
%AMROUNDEDRECTD147*
21,1,3.5560,1.0551,0,0,90.0*
21,1,2.9347,1.6764,0,0,90.0*
1,1,0.6213,0.5276,1.4674*
1,1,0.6213,0.5276,-1.4674*
1,1,0.6213,-0.5276,-1.4674*
1,1,0.6213,-0.5276,1.4674*
%
%ADD147ROUNDEDRECTD147*%
G04:AMPARAMS|DCode=148|XSize=0.608mm|YSize=0.608mm|CornerRadius=0.177mm|HoleSize=0mm|Usage=FLASHONLY|Rotation=270.000|XOffset=0mm|YOffset=0mm|HoleType=Round|Shape=RoundedRectangle|*
%AMROUNDEDRECTD148*
21,1,0.6080,0.2540,0,0,270.0*
21,1,0.2540,0.6080,0,0,270.0*
1,1,0.3540,-0.1270,-0.1270*
1,1,0.3540,-0.1270,0.1270*
1,1,0.3540,0.1270,0.1270*
1,1,0.3540,0.1270,-0.1270*
%
%ADD148ROUNDEDRECTD148*%
%ADD149C,0.4572*%
%ADD150C,0.9016*%
G04:AMPARAMS|DCode=151|XSize=1.3716mm|YSize=1.1176mm|CornerRadius=0.1778mm|HoleSize=0mm|Usage=FLASHONLY|Rotation=180.000|XOffset=0mm|YOffset=0mm|HoleType=Round|Shape=RoundedRectangle|*
%AMROUNDEDRECTD151*
21,1,1.3716,0.7620,0,0,180.0*
21,1,1.0160,1.1176,0,0,180.0*
1,1,0.3556,-0.5080,0.3810*
1,1,0.3556,0.5080,0.3810*
1,1,0.3556,0.5080,-0.3810*
1,1,0.3556,-0.5080,-0.3810*
%
%ADD151ROUNDEDRECTD151*%
%ADD152R,0.7112X1.1176*%
%ADD153O,0.3700X0.9400*%
%ADD154O,0.9400X0.3700*%
G04:AMPARAMS|DCode=155|XSize=1.6256mm|YSize=0.381mm|CornerRadius=0.0969mm|HoleSize=0mm|Usage=FLASHONLY|Rotation=0.000|XOffset=0mm|YOffset=0mm|HoleType=Round|Shape=RoundedRectangle|*
%AMROUNDEDRECTD155*
21,1,1.6256,0.1872,0,0,0.0*
21,1,1.4318,0.3810,0,0,0.0*
1,1,0.1938,0.7159,-0.0936*
1,1,0.1938,-0.7159,-0.0936*
1,1,0.1938,-0.7159,0.0936*
1,1,0.1938,0.7159,0.0936*
%
%ADD155ROUNDEDRECTD155*%
G04:AMPARAMS|DCode=156|XSize=0.51mm|YSize=1.7mm|CornerRadius=0.091mm|HoleSize=0mm|Usage=FLASHONLY|Rotation=180.000|XOffset=0mm|YOffset=0mm|HoleType=Round|Shape=RoundedRectangle|*
%AMROUNDEDRECTD156*
21,1,0.5100,1.5180,0,0,180.0*
21,1,0.3280,1.7000,0,0,180.0*
1,1,0.1820,-0.1640,0.7590*
1,1,0.1820,0.1640,0.7590*
1,1,0.1820,0.1640,-0.7590*
1,1,0.1820,-0.1640,-0.7590*
%
%ADD156ROUNDEDRECTD156*%
G04:AMPARAMS|DCode=157|XSize=1.6256mm|YSize=0.508mm|CornerRadius=0.1422mm|HoleSize=0mm|Usage=FLASHONLY|Rotation=270.000|XOffset=0mm|YOffset=0mm|HoleType=Round|Shape=RoundedRectangle|*
%AMROUNDEDRECTD157*
21,1,1.6256,0.2235,0,0,270.0*
21,1,1.3411,0.5080,0,0,270.0*
1,1,0.2845,-0.1118,-0.6706*
1,1,0.2845,-0.1118,0.6706*
1,1,0.2845,0.1118,0.6706*
1,1,0.2845,0.1118,-0.6706*
%
%ADD157ROUNDEDRECTD157*%
%ADD158R,0.9016X0.3516*%
%ADD159R,0.3516X0.9016*%
G04:AMPARAMS|DCode=160|XSize=1.0668mm|YSize=1.0668mm|CornerRadius=0.2294mm|HoleSize=0mm|Usage=FLASHONLY|Rotation=90.000|XOffset=0mm|YOffset=0mm|HoleType=Round|Shape=RoundedRectangle|*
%AMROUNDEDRECTD160*
21,1,1.0668,0.6081,0,0,90.0*
21,1,0.6081,1.0668,0,0,90.0*
1,1,0.4587,0.3040,0.3040*
1,1,0.4587,0.3040,-0.3040*
1,1,0.4587,-0.3040,-0.3040*
1,1,0.4587,-0.3040,0.3040*
%
%ADD160ROUNDEDRECTD160*%
G04:AMPARAMS|DCode=161|XSize=0.608mm|YSize=0.608mm|CornerRadius=0.2024mm|HoleSize=0mm|Usage=FLASHONLY|Rotation=315.000|XOffset=0mm|YOffset=0mm|HoleType=Round|Shape=RoundedRectangle|*
%AMROUNDEDRECTD161*
21,1,0.6080,0.2032,0,0,315.0*
21,1,0.2032,0.6080,0,0,315.0*
1,1,0.4048,0.0000,-0.1437*
1,1,0.4048,-0.1437,0.0000*
1,1,0.4048,0.0000,0.1437*
1,1,0.4048,0.1437,0.0000*
%
%ADD161ROUNDEDRECTD161*%
%ADD162R,8.6800X5.4900*%
G04:AMPARAMS|DCode=163|XSize=3.2mm|YSize=1.03mm|CornerRadius=0.2925mm|HoleSize=0mm|Usage=FLASHONLY|Rotation=0.000|XOffset=0mm|YOffset=0mm|HoleType=Round|Shape=RoundedRectangle|*
%AMROUNDEDRECTD163*
21,1,3.2000,0.4450,0,0,0.0*
21,1,2.6150,1.0300,0,0,0.0*
1,1,0.5850,1.3075,-0.2225*
1,1,0.5850,-1.3075,-0.2225*
1,1,0.5850,-1.3075,0.2225*
1,1,0.5850,1.3075,0.2225*
%
%ADD163ROUNDEDRECTD163*%
G04:AMPARAMS|DCode=164|XSize=4.5016mm|YSize=2.6016mm|CornerRadius=0.6758mm|HoleSize=0mm|Usage=FLASHONLY|Rotation=180.000|XOffset=0mm|YOffset=0mm|HoleType=Round|Shape=RoundedRectangle|*
%AMROUNDEDRECTD164*
21,1,4.5016,1.2500,0,0,180.0*
21,1,3.1500,2.6016,0,0,180.0*
1,1,1.3516,-1.5750,0.6250*
1,1,1.3516,1.5750,0.6250*
1,1,1.3516,1.5750,-0.6250*
1,1,1.3516,-1.5750,-0.6250*
%
%ADD164ROUNDEDRECTD164*%
G04:AMPARAMS|DCode=165|XSize=1.2446mm|YSize=5.5626mm|CornerRadius=0.3366mm|HoleSize=0mm|Usage=FLASHONLY|Rotation=90.000|XOffset=0mm|YOffset=0mm|HoleType=Round|Shape=RoundedRectangle|*
%AMROUNDEDRECTD165*
21,1,1.2446,4.8895,0,0,90.0*
21,1,0.5715,5.5626,0,0,90.0*
1,1,0.6731,2.4448,0.2858*
1,1,0.6731,2.4448,-0.2858*
1,1,0.6731,-2.4448,-0.2858*
1,1,0.6731,-2.4448,0.2858*
%
%ADD165ROUNDEDRECTD165*%
G04:AMPARAMS|DCode=166|XSize=1.0668mm|YSize=1.0668mm|CornerRadius=0.2294mm|HoleSize=0mm|Usage=FLASHONLY|Rotation=0.000|XOffset=0mm|YOffset=0mm|HoleType=Round|Shape=RoundedRectangle|*
%AMROUNDEDRECTD166*
21,1,1.0668,0.6081,0,0,0.0*
21,1,0.6081,1.0668,0,0,0.0*
1,1,0.4587,0.3040,-0.3040*
1,1,0.4587,-0.3040,-0.3040*
1,1,0.4587,-0.3040,0.3040*
1,1,0.4587,0.3040,0.3040*
%
%ADD166ROUNDEDRECTD166*%
G04:AMPARAMS|DCode=167|XSize=3.15mm|YSize=3.15mm|CornerRadius=0.1575mm|HoleSize=0mm|Usage=FLASHONLY|Rotation=0.000|XOffset=0mm|YOffset=0mm|HoleType=Round|Shape=RoundedRectangle|*
%AMROUNDEDRECTD167*
21,1,3.1500,2.8350,0,0,0.0*
21,1,2.8350,3.1500,0,0,0.0*
1,1,0.3150,1.4175,-1.4175*
1,1,0.3150,-1.4175,-1.4175*
1,1,0.3150,-1.4175,1.4175*
1,1,0.3150,1.4175,1.4175*
%
%ADD167ROUNDEDRECTD167*%
G04:AMPARAMS|DCode=168|XSize=0.49mm|YSize=1.14mm|CornerRadius=0.1575mm|HoleSize=0mm|Usage=FLASHONLY|Rotation=0.000|XOffset=0mm|YOffset=0mm|HoleType=Round|Shape=RoundedRectangle|*
%AMROUNDEDRECTD168*
21,1,0.4900,0.8250,0,0,0.0*
21,1,0.1750,1.1400,0,0,0.0*
1,1,0.3150,0.0875,-0.4125*
1,1,0.3150,-0.0875,-0.4125*
1,1,0.3150,-0.0875,0.4125*
1,1,0.3150,0.0875,0.4125*
%
%ADD168ROUNDEDRECTD168*%
G04:AMPARAMS|DCode=169|XSize=1.4986mm|YSize=3.6576mm|CornerRadius=0.2254mm|HoleSize=0mm|Usage=FLASHONLY|Rotation=45.000|XOffset=0mm|YOffset=0mm|HoleType=Round|Shape=RoundedRectangle|*
%AMROUNDEDRECTD169*
21,1,1.4986,3.2068,0,0,45.0*
21,1,1.0478,3.6576,0,0,45.0*
1,1,0.4509,1.5042,-0.7633*
1,1,0.4509,0.7633,-1.5042*
1,1,0.4509,-1.5042,0.7633*
1,1,0.4509,-0.7633,1.5042*
%
%ADD169ROUNDEDRECTD169*%
%ADD170C,0.5016*%
G04:AMPARAMS|DCode=171|XSize=3.5016mm|YSize=3.5016mm|CornerRadius=0mm|HoleSize=0mm|Usage=FLASHONLY|Rotation=0.000|XOffset=0mm|YOffset=0mm|HoleType=Round|Shape=RoundedRectangle|*
%AMROUNDEDRECTD171*
21,1,3.5016,3.5016,0,0,0.0*
21,1,3.5016,3.5016,0,0,0.0*
1,1,0.0000,1.7508,-1.7508*
1,1,0.0000,-1.7508,-1.7508*
1,1,0.0000,-1.7508,1.7508*
1,1,0.0000,1.7508,1.7508*
%
%ADD171ROUNDEDRECTD171*%
G04:AMPARAMS|DCode=172|XSize=1.0516mm|YSize=1.0516mm|CornerRadius=0.2266mm|HoleSize=0mm|Usage=FLASHONLY|Rotation=0.000|XOffset=0mm|YOffset=0mm|HoleType=Round|Shape=RoundedRectangle|*
%AMROUNDEDRECTD172*
21,1,1.0516,0.5985,0,0,0.0*
21,1,0.5985,1.0516,0,0,0.0*
1,1,0.4531,0.2993,-0.2993*
1,1,0.4531,-0.2993,-0.2993*
1,1,0.4531,-0.2993,0.2993*
1,1,0.4531,0.2993,0.2993*
%
%ADD172ROUNDEDRECTD172*%
%ADD173R,7.5400X7.5400*%
G04:AMPARAMS|DCode=174|XSize=1.09mm|YSize=0.44mm|CornerRadius=0.145mm|HoleSize=0mm|Usage=FLASHONLY|Rotation=0.000|XOffset=0mm|YOffset=0mm|HoleType=Round|Shape=RoundedRectangle|*
%AMROUNDEDRECTD174*
21,1,1.0900,0.1500,0,0,0.0*
21,1,0.8000,0.4400,0,0,0.0*
1,1,0.2900,0.4000,-0.0750*
1,1,0.2900,-0.4000,-0.0750*
1,1,0.2900,-0.4000,0.0750*
1,1,0.2900,0.4000,0.0750*
%
%ADD174ROUNDEDRECTD174*%
%ADD175R,0.6990X2.4390*%
G04:AMPARAMS|DCode=176|XSize=0.5mm|YSize=0.8mm|CornerRadius=0.1mm|HoleSize=0mm|Usage=FLASHONLY|Rotation=90.000|XOffset=0mm|YOffset=0mm|HoleType=Round|Shape=RoundedRectangle|*
%AMROUNDEDRECTD176*
21,1,0.5000,0.6000,0,0,90.0*
21,1,0.3000,0.8000,0,0,90.0*
1,1,0.2000,0.3000,0.1500*
1,1,0.2000,0.3000,-0.1500*
1,1,0.2000,-0.3000,-0.1500*
1,1,0.2000,-0.3000,0.1500*
%
%ADD176ROUNDEDRECTD176*%
%ADD177R,3.1500X3.1500*%
%ADD178R,5.7400X5.7400*%
G04:AMPARAMS|DCode=179|XSize=1.6256mm|YSize=0.508mm|CornerRadius=0.0813mm|HoleSize=0mm|Usage=FLASHONLY|Rotation=270.000|XOffset=0mm|YOffset=0mm|HoleType=Round|Shape=RoundedRectangle|*
%AMROUNDEDRECTD179*
21,1,1.6256,0.3454,0,0,270.0*
21,1,1.4630,0.5080,0,0,270.0*
1,1,0.1626,-0.1727,-0.7315*
1,1,0.1626,-0.1727,0.7315*
1,1,0.1626,0.1727,0.7315*
1,1,0.1626,0.1727,-0.7315*
%
%ADD179ROUNDEDRECTD179*%
%ADD180O,0.4200X0.9900*%
%ADD181O,0.9900X0.4200*%
%ADD182O,0.8636X3.0226*%
G04:AMPARAMS|DCode=183|XSize=2.2606mm|YSize=2.5654mm|CornerRadius=0.407mm|HoleSize=0mm|Usage=FLASHONLY|Rotation=90.000|XOffset=0mm|YOffset=0mm|HoleType=Round|Shape=RoundedRectangle|*
%AMROUNDEDRECTD183*
21,1,2.2606,1.7513,0,0,90.0*
21,1,1.4465,2.5654,0,0,90.0*
1,1,0.8141,0.8757,0.7233*
1,1,0.8141,0.8757,-0.7233*
1,1,0.8141,-0.8757,-0.7233*
1,1,0.8141,-0.8757,0.7233*
%
%ADD183ROUNDEDRECTD183*%
%ADD184R,2.5654X2.2606*%
%ADD185R,1.0668X1.0668*%
G04:AMPARAMS|DCode=186|XSize=3.5306mm|YSize=5.1816mm|CornerRadius=0.1365mm|HoleSize=0mm|Usage=FLASHONLY|Rotation=0.000|XOffset=0mm|YOffset=0mm|HoleType=Round|Shape=RoundedRectangle|*
%AMROUNDEDRECTD186*
21,1,3.5306,4.9086,0,0,0.0*
21,1,3.2576,5.1816,0,0,0.0*
1,1,0.2731,1.6288,-2.4543*
1,1,0.2731,-1.6288,-2.4543*
1,1,0.2731,-1.6288,2.4543*
1,1,0.2731,1.6288,2.4543*
%
%ADD186ROUNDEDRECTD186*%
G04:AMPARAMS|DCode=187|XSize=0.5016mm|YSize=0.5016mm|CornerRadius=0.2008mm|HoleSize=0mm|Usage=FLASHONLY|Rotation=0.000|XOffset=0mm|YOffset=0mm|HoleType=Round|Shape=RoundedRectangle|*
%AMROUNDEDRECTD187*
21,1,0.5016,0.1000,0,0,0.0*
21,1,0.1000,0.5016,0,0,0.0*
1,1,0.4016,0.0500,-0.0500*
1,1,0.4016,-0.0500,-0.0500*
1,1,0.4016,-0.0500,0.0500*
1,1,0.4016,0.0500,0.0500*
%
%ADD187ROUNDEDRECTD187*%
G04:AMPARAMS|DCode=188|XSize=1.6256mm|YSize=0.381mm|CornerRadius=0.0648mm|HoleSize=0mm|Usage=FLASHONLY|Rotation=0.000|XOffset=0mm|YOffset=0mm|HoleType=Round|Shape=RoundedRectangle|*
%AMROUNDEDRECTD188*
21,1,1.6256,0.2515,0,0,0.0*
21,1,1.4961,0.3810,0,0,0.0*
1,1,0.1295,0.7480,-0.1257*
1,1,0.1295,-0.7480,-0.1257*
1,1,0.1295,-0.7480,0.1257*
1,1,0.1295,0.7480,0.1257*
%
%ADD188ROUNDEDRECTD188*%
%ADD189R,1.0668X1.0668*%
%ADD190R,2.8900X1.5400*%
G04:AMPARAMS|DCode=191|XSize=1.6016mm|YSize=1.2516mm|CornerRadius=0.1946mm|HoleSize=0mm|Usage=FLASHONLY|Rotation=0.000|XOffset=0mm|YOffset=0mm|HoleType=Round|Shape=RoundedRectangle|*
%AMROUNDEDRECTD191*
21,1,1.6016,0.8625,0,0,0.0*
21,1,1.2125,1.2516,0,0,0.0*
1,1,0.3891,0.6063,-0.4313*
1,1,0.3891,-0.6063,-0.4313*
1,1,0.3891,-0.6063,0.4313*
1,1,0.3891,0.6063,0.4313*
%
%ADD191ROUNDEDRECTD191*%
G04:AMPARAMS|DCode=192|XSize=1.2516mm|YSize=1.6016mm|CornerRadius=0.1946mm|HoleSize=0mm|Usage=FLASHONLY|Rotation=0.000|XOffset=0mm|YOffset=0mm|HoleType=Round|Shape=RoundedRectangle|*
%AMROUNDEDRECTD192*
21,1,1.2516,1.2125,0,0,0.0*
21,1,0.8625,1.6016,0,0,0.0*
1,1,0.3891,0.4313,-0.6063*
1,1,0.3891,-0.4313,-0.6063*
1,1,0.3891,-0.4313,0.6063*
1,1,0.3891,0.4313,0.6063*
%
%ADD192ROUNDEDRECTD192*%
G04:AMPARAMS|DCode=193|XSize=1.5016mm|YSize=1.8016mm|CornerRadius=0.2258mm|HoleSize=0mm|Usage=FLASHONLY|Rotation=0.000|XOffset=0mm|YOffset=0mm|HoleType=Round|Shape=RoundedRectangle|*
%AMROUNDEDRECTD193*
21,1,1.5016,1.3500,0,0,0.0*
21,1,1.0500,1.8016,0,0,0.0*
1,1,0.4516,0.5250,-0.6750*
1,1,0.4516,-0.5250,-0.6750*
1,1,0.4516,-0.5250,0.6750*
1,1,0.4516,0.5250,0.6750*
%
%ADD193ROUNDEDRECTD193*%
G04:AMPARAMS|DCode=194|XSize=0.9016mm|YSize=1.6016mm|CornerRadius=0.0908mm|HoleSize=0mm|Usage=FLASHONLY|Rotation=0.000|XOffset=0mm|YOffset=0mm|HoleType=Round|Shape=RoundedRectangle|*
%AMROUNDEDRECTD194*
21,1,0.9016,1.4200,0,0,0.0*
21,1,0.7200,1.6016,0,0,0.0*
1,1,0.1816,0.3600,-0.7100*
1,1,0.1816,-0.3600,-0.7100*
1,1,0.1816,-0.3600,0.7100*
1,1,0.1816,0.3600,0.7100*
%
%ADD194ROUNDEDRECTD194*%
G04:AMPARAMS|DCode=195|XSize=0.8128mm|YSize=0.4064mm|CornerRadius=0.066mm|HoleSize=0mm|Usage=FLASHONLY|Rotation=0.000|XOffset=0mm|YOffset=0mm|HoleType=Round|Shape=RoundedRectangle|*
%AMROUNDEDRECTD195*
21,1,0.8128,0.2743,0,0,0.0*
21,1,0.6807,0.4064,0,0,0.0*
1,1,0.1321,0.3404,-0.1372*
1,1,0.1321,-0.3404,-0.1372*
1,1,0.1321,-0.3404,0.1372*
1,1,0.1321,0.3404,0.1372*
%
%ADD195ROUNDEDRECTD195*%
G04:AMPARAMS|DCode=196|XSize=0.8128mm|YSize=0.4064mm|CornerRadius=0.0889mm|HoleSize=0mm|Usage=FLASHONLY|Rotation=0.000|XOffset=0mm|YOffset=0mm|HoleType=Round|Shape=RoundedRectangle|*
%AMROUNDEDRECTD196*
21,1,0.8128,0.2286,0,0,0.0*
21,1,0.6350,0.4064,0,0,0.0*
1,1,0.1778,0.3175,-0.1143*
1,1,0.1778,-0.3175,-0.1143*
1,1,0.1778,-0.3175,0.1143*
1,1,0.1778,0.3175,0.1143*
%
%ADD196ROUNDEDRECTD196*%
%ADD197O,0.5400X1.9400*%
%ADD198R,2.2500X2.2500*%
%ADD199O,0.3500X0.9500*%
%ADD200O,0.9500X0.3500*%
%ADD201R,2.1336X0.7366*%
G04:AMPARAMS|DCode=202|XSize=1.2954mm|YSize=0.4953mm|CornerRadius=0.0705mm|HoleSize=0mm|Usage=FLASHONLY|Rotation=270.000|XOffset=0mm|YOffset=0mm|HoleType=Round|Shape=RoundedRectangle|*
%AMROUNDEDRECTD202*
21,1,1.2954,0.3543,0,0,270.0*
21,1,1.1544,0.4953,0,0,270.0*
1,1,0.1410,-0.1772,-0.5772*
1,1,0.1410,-0.1772,0.5772*
1,1,0.1410,0.1772,0.5772*
1,1,0.1410,0.1772,-0.5772*
%
%ADD202ROUNDEDRECTD202*%
G04:AMPARAMS|DCode=203|XSize=1.2954mm|YSize=0.4953mm|CornerRadius=0.1158mm|HoleSize=0mm|Usage=FLASHONLY|Rotation=270.000|XOffset=0mm|YOffset=0mm|HoleType=Round|Shape=RoundedRectangle|*
%AMROUNDEDRECTD203*
21,1,1.2954,0.2638,0,0,270.0*
21,1,1.0639,0.4953,0,0,270.0*
1,1,0.2315,-0.1319,-0.5319*
1,1,0.2315,-0.1319,0.5319*
1,1,0.2315,0.1319,0.5319*
1,1,0.2315,0.1319,-0.5319*
%
%ADD203ROUNDEDRECTD203*%
G04:AMPARAMS|DCode=204|XSize=0.4mm|YSize=0.55mm|CornerRadius=0.125mm|HoleSize=0mm|Usage=FLASHONLY|Rotation=180.000|XOffset=0mm|YOffset=0mm|HoleType=Round|Shape=RoundedRectangle|*
%AMROUNDEDRECTD204*
21,1,0.4000,0.3000,0,0,180.0*
21,1,0.1500,0.5500,0,0,180.0*
1,1,0.2500,-0.0750,0.1500*
1,1,0.2500,0.0750,0.1500*
1,1,0.2500,0.0750,-0.1500*
1,1,0.2500,-0.0750,-0.1500*
%
%ADD204ROUNDEDRECTD204*%
G04:AMPARAMS|DCode=205|XSize=0.8128mm|YSize=0.4064mm|CornerRadius=0.066mm|HoleSize=0mm|Usage=FLASHONLY|Rotation=270.000|XOffset=0mm|YOffset=0mm|HoleType=Round|Shape=RoundedRectangle|*
%AMROUNDEDRECTD205*
21,1,0.8128,0.2743,0,0,270.0*
21,1,0.6807,0.4064,0,0,270.0*
1,1,0.1321,-0.1372,-0.3404*
1,1,0.1321,-0.1372,0.3404*
1,1,0.1321,0.1372,0.3404*
1,1,0.1321,0.1372,-0.3404*
%
%ADD205ROUNDEDRECTD205*%
G04:AMPARAMS|DCode=206|XSize=0.8128mm|YSize=0.4064mm|CornerRadius=0.0889mm|HoleSize=0mm|Usage=FLASHONLY|Rotation=270.000|XOffset=0mm|YOffset=0mm|HoleType=Round|Shape=RoundedRectangle|*
%AMROUNDEDRECTD206*
21,1,0.8128,0.2286,0,0,270.0*
21,1,0.6350,0.4064,0,0,270.0*
1,1,0.1778,-0.1143,-0.3175*
1,1,0.1778,-0.1143,0.3175*
1,1,0.1778,0.1143,0.3175*
1,1,0.1778,0.1143,-0.3175*
%
%ADD206ROUNDEDRECTD206*%
%ADD207R,0.4516X0.8016*%
G04:AMPARAMS|DCode=208|XSize=0.94mm|YSize=1.04mm|CornerRadius=0.15mm|HoleSize=0mm|Usage=FLASHONLY|Rotation=180.000|XOffset=0mm|YOffset=0mm|HoleType=Round|Shape=RoundedRectangle|*
%AMROUNDEDRECTD208*
21,1,0.9400,0.7400,0,0,180.0*
21,1,0.6400,1.0400,0,0,180.0*
1,1,0.3000,-0.3200,0.3700*
1,1,0.3000,0.3200,0.3700*
1,1,0.3000,0.3200,-0.3700*
1,1,0.3000,-0.3200,-0.3700*
%
%ADD208ROUNDEDRECTD208*%
%ADD209R,0.4000X0.6500*%
%ADD210R,0.5000X0.6500*%
G04:AMPARAMS|DCode=211|XSize=0.94mm|YSize=1.04mm|CornerRadius=0.15mm|HoleSize=0mm|Usage=FLASHONLY|Rotation=270.000|XOffset=0mm|YOffset=0mm|HoleType=Round|Shape=RoundedRectangle|*
%AMROUNDEDRECTD211*
21,1,0.9400,0.7400,0,0,270.0*
21,1,0.6400,1.0400,0,0,270.0*
1,1,0.3000,-0.3700,-0.3200*
1,1,0.3000,-0.3700,0.3200*
1,1,0.3000,0.3700,0.3200*
1,1,0.3000,0.3700,-0.3200*
%
%ADD211ROUNDEDRECTD211*%
%ADD212R,2.2606X2.5654*%
G04:AMPARAMS|DCode=213|XSize=2.2606mm|YSize=2.5654mm|CornerRadius=0.407mm|HoleSize=0mm|Usage=FLASHONLY|Rotation=180.000|XOffset=0mm|YOffset=0mm|HoleType=Round|Shape=RoundedRectangle|*
%AMROUNDEDRECTD213*
21,1,2.2606,1.7513,0,0,180.0*
21,1,1.4465,2.5654,0,0,180.0*
1,1,0.8141,-0.7233,0.8757*
1,1,0.8141,0.7233,0.8757*
1,1,0.8141,0.7233,-0.8757*
1,1,0.8141,-0.7233,-0.8757*
%
%ADD213ROUNDEDRECTD213*%
%ADD214O,1.7016X0.4016*%
G04:AMPARAMS|DCode=215|XSize=3.556mm|YSize=1.6764mm|CornerRadius=0.3106mm|HoleSize=0mm|Usage=FLASHONLY|Rotation=0.000|XOffset=0mm|YOffset=0mm|HoleType=Round|Shape=RoundedRectangle|*
%AMROUNDEDRECTD215*
21,1,3.5560,1.0551,0,0,0.0*
21,1,2.9347,1.6764,0,0,0.0*
1,1,0.6213,1.4674,-0.5276*
1,1,0.6213,-1.4674,-0.5276*
1,1,0.6213,-1.4674,0.5276*
1,1,0.6213,1.4674,0.5276*
%
%ADD215ROUNDEDRECTD215*%
G04:AMPARAMS|DCode=216|XSize=1.4986mm|YSize=5.5626mm|CornerRadius=0.2254mm|HoleSize=0mm|Usage=FLASHONLY|Rotation=0.000|XOffset=0mm|YOffset=0mm|HoleType=Round|Shape=RoundedRectangle|*
%AMROUNDEDRECTD216*
21,1,1.4986,5.1118,0,0,0.0*
21,1,1.0478,5.5626,0,0,0.0*
1,1,0.4509,0.5239,-2.5559*
1,1,0.4509,-0.5239,-2.5559*
1,1,0.4509,-0.5239,2.5559*
1,1,0.4509,0.5239,2.5559*
%
%ADD216ROUNDEDRECTD216*%
%ADD217R,2.1400X4.1400*%
G04:AMPARAMS|DCode=218|XSize=1.4986mm|YSize=3.6576mm|CornerRadius=0.2254mm|HoleSize=0mm|Usage=FLASHONLY|Rotation=0.000|XOffset=0mm|YOffset=0mm|HoleType=Round|Shape=RoundedRectangle|*
%AMROUNDEDRECTD218*
21,1,1.4986,3.2068,0,0,0.0*
21,1,1.0478,3.6576,0,0,0.0*
1,1,0.4509,0.5239,-1.6034*
1,1,0.4509,-0.5239,-1.6034*
1,1,0.4509,-0.5239,1.6034*
1,1,0.4509,0.5239,1.6034*
%
%ADD218ROUNDEDRECTD218*%
G04:AMPARAMS|DCode=219|XSize=0.49mm|YSize=1.14mm|CornerRadius=0.1575mm|HoleSize=0mm|Usage=FLASHONLY|Rotation=90.000|XOffset=0mm|YOffset=0mm|HoleType=Round|Shape=RoundedRectangle|*
%AMROUNDEDRECTD219*
21,1,0.4900,0.8250,0,0,90.0*
21,1,0.1750,1.1400,0,0,90.0*
1,1,0.3150,0.4125,0.0875*
1,1,0.3150,0.4125,-0.0875*
1,1,0.3150,-0.4125,-0.0875*
1,1,0.3150,-0.4125,0.0875*
%
%ADD219ROUNDEDRECTD219*%
%ADD220C,3.0480*%
G04:AMPARAMS|DCode=221|XSize=0.8016mm|YSize=4.3016mm|CornerRadius=0.1383mm|HoleSize=0mm|Usage=FLASHONLY|Rotation=0.000|XOffset=0mm|YOffset=0mm|HoleType=Round|Shape=RoundedRectangle|*
%AMROUNDEDRECTD221*
21,1,0.8016,4.0250,0,0,0.0*
21,1,0.5250,4.3016,0,0,0.0*
1,1,0.2766,0.2625,-2.0125*
1,1,0.2766,-0.2625,-2.0125*
1,1,0.2766,-0.2625,2.0125*
1,1,0.2766,0.2625,2.0125*
%
%ADD221ROUNDEDRECTD221*%
G04:AMPARAMS|DCode=222|XSize=0.8016mm|YSize=3.3016mm|CornerRadius=0.1383mm|HoleSize=0mm|Usage=FLASHONLY|Rotation=0.000|XOffset=0mm|YOffset=0mm|HoleType=Round|Shape=RoundedRectangle|*
%AMROUNDEDRECTD222*
21,1,0.8016,3.0250,0,0,0.0*
21,1,0.5250,3.3016,0,0,0.0*
1,1,0.2766,0.2625,-1.5125*
1,1,0.2766,-0.2625,-1.5125*
1,1,0.2766,-0.2625,1.5125*
1,1,0.2766,0.2625,1.5125*
%
%ADD222ROUNDEDRECTD222*%
G04:AMPARAMS|DCode=223|XSize=0.8016mm|YSize=4.3016mm|CornerRadius=0.0858mm|HoleSize=0mm|Usage=FLASHONLY|Rotation=0.000|XOffset=0mm|YOffset=0mm|HoleType=Round|Shape=RoundedRectangle|*
%AMROUNDEDRECTD223*
21,1,0.8016,4.1300,0,0,0.0*
21,1,0.6300,4.3016,0,0,0.0*
1,1,0.1716,0.3150,-2.0650*
1,1,0.1716,-0.3150,-2.0650*
1,1,0.1716,-0.3150,2.0650*
1,1,0.1716,0.3150,2.0650*
%
%ADD223ROUNDEDRECTD223*%
%ADD224C,5.1816*%
%ADD225C,1.7526*%
%ADD226C,2.0066*%
%ADD227C,1.6256*%
G04:AMPARAMS|DCode=228|XSize=1.7526mm|YSize=1.7526mm|CornerRadius=0.3232mm|HoleSize=0mm|Usage=FLASHONLY|Rotation=0.000|XOffset=0mm|YOffset=0mm|HoleType=Round|Shape=RoundedRectangle|*
%AMROUNDEDRECTD228*
21,1,1.7526,1.1062,0,0,0.0*
21,1,1.1062,1.7526,0,0,0.0*
1,1,0.6464,0.5531,-0.5531*
1,1,0.6464,-0.5531,-0.5531*
1,1,0.6464,-0.5531,0.5531*
1,1,0.6464,0.5531,0.5531*
%
%ADD228ROUNDEDRECTD228*%
%ADD229C,3.2766*%
G04:AMPARAMS|DCode=230|XSize=1.7526mm|YSize=1.7526mm|CornerRadius=0.3232mm|HoleSize=0mm|Usage=FLASHONLY|Rotation=90.000|XOffset=0mm|YOffset=0mm|HoleType=Round|Shape=RoundedRectangle|*
%AMROUNDEDRECTD230*
21,1,1.7526,1.1062,0,0,90.0*
21,1,1.1062,1.7526,0,0,90.0*
1,1,0.6464,0.5531,0.5531*
1,1,0.6464,0.5531,-0.5531*
1,1,0.6464,-0.5531,-0.5531*
1,1,0.6464,-0.5531,0.5531*
%
%ADD230ROUNDEDRECTD230*%
%ADD231C,0.7016*%
%ADD232C,2.3016*%
G04:AMPARAMS|DCode=233|XSize=3.2766mm|YSize=3.2766mm|CornerRadius=1.2414mm|HoleSize=0mm|Usage=FLASHONLY|Rotation=270.000|XOffset=0mm|YOffset=0mm|HoleType=Round|Shape=RoundedRectangle|*
%AMROUNDEDRECTD233*
21,1,3.2766,0.7938,0,0,270.0*
21,1,0.7938,3.2766,0,0,270.0*
1,1,2.4829,-0.3969,-0.3969*
1,1,2.4829,-0.3969,0.3969*
1,1,2.4829,0.3969,0.3969*
1,1,2.4829,0.3969,-0.3969*
%
%ADD233ROUNDEDRECTD233*%
G04:AMPARAMS|DCode=234|XSize=1.6256mm|YSize=1.6256mm|CornerRadius=0mm|HoleSize=0mm|Usage=FLASHONLY|Rotation=180.000|XOffset=0mm|YOffset=0mm|HoleType=Round|Shape=Octagon|*
%AMOCTAGOND234*
4,1,8,-0.8128,0.4064,-0.8128,-0.4064,-0.4064,-0.8128,0.4064,-0.8128,0.8128,-0.4064,0.8128,0.4064,0.4064,0.8128,-0.4064,0.8128,-0.8128,0.4064,0.0*
%
%ADD234OCTAGOND234*%

%ADD235C,3.9116*%
%ADD236R,2.8766X2.8766*%
%ADD237C,2.8766*%
%ADD238C,0.7620*%
%ADD239O,1.1176X2.1336*%
%ADD240R,2.1450X2.1450*%
%ADD241C,2.1450*%
G04:AMPARAMS|DCode=242|XSize=3.2766mm|YSize=3.2766mm|CornerRadius=1.2414mm|HoleSize=0mm|Usage=FLASHONLY|Rotation=180.000|XOffset=0mm|YOffset=0mm|HoleType=Round|Shape=RoundedRectangle|*
%AMROUNDEDRECTD242*
21,1,3.2766,0.7938,0,0,180.0*
21,1,0.7938,3.2766,0,0,180.0*
1,1,2.4829,-0.3969,0.3969*
1,1,2.4829,0.3969,0.3969*
1,1,2.4829,0.3969,-0.3969*
1,1,2.4829,-0.3969,-0.3969*
%
%ADD242ROUNDEDRECTD242*%
%ADD243C,7.0866*%
%ADD244R,7.0866X7.0866*%
%ADD245R,2.8766X2.8766*%
%ADD246C,3.1372*%
%ADD247C,3.1400*%
%ADD248R,3.1400X3.1400*%
G04:AMPARAMS|DCode=249|XSize=2.7686mm|YSize=2.7686mm|CornerRadius=0.1842mm|HoleSize=0mm|Usage=FLASHONLY|Rotation=270.000|XOffset=0mm|YOffset=0mm|HoleType=Round|Shape=RoundedRectangle|*
%AMROUNDEDRECTD249*
21,1,2.7686,2.4003,0,0,270.0*
21,1,2.4003,2.7686,0,0,270.0*
1,1,0.3683,-1.2002,-1.2002*
1,1,0.3683,-1.2002,1.2002*
1,1,0.3683,1.2002,1.2002*
1,1,0.3683,1.2002,-1.2002*
%
%ADD249ROUNDEDRECTD249*%
%ADD250C,2.7686*%
%ADD251C,0.1778*%
%ADD252C,1.1176*%
%ADD253C,0.6604*%
%ADD254C,0.6016*%
%ADD255C,0.3000*%
G36*
X1396597Y139815D02*
X1396625D01*
X1396652Y139811D01*
X1396679Y139809D01*
X1396706Y139803D01*
X1396733Y139798D01*
X1396760Y139790D01*
X1396786Y139783D01*
X1396812Y139773D01*
X1396838Y139764D01*
X1397022Y139688D01*
X1397047Y139675D01*
X1397072Y139665D01*
X1397095Y139651D01*
X1397120Y139638D01*
X1397143Y139622D01*
X1397166Y139607D01*
X1397187Y139590D01*
X1397209Y139573D01*
X1397229Y139554D01*
X1397250Y139536D01*
X1397390Y139395D01*
X1397408Y139374D01*
X1397428Y139355D01*
X1397444Y139332D01*
X1397462Y139311D01*
X1397476Y139288D01*
X1397493Y139265D01*
X1397505Y139241D01*
X1397520Y139217D01*
X1397530Y139192D01*
X1397543Y139167D01*
X1397619Y138984D01*
X1397627Y138957D01*
X1397638Y138932D01*
X1397644Y138905D01*
X1397653Y138879D01*
X1397657Y138852D01*
X1397664Y138825D01*
X1397666Y138797D01*
X1397670Y138770D01*
Y138743D01*
X1397672Y138715D01*
Y138615D01*
Y105615D01*
Y105516D01*
X1397670Y105489D01*
Y105461D01*
X1397666Y105434D01*
X1397664Y105406D01*
X1397657Y105379D01*
X1397653Y105352D01*
X1397644Y105326D01*
X1397638Y105299D01*
X1397627Y105274D01*
X1397619Y105247D01*
X1397543Y105063D01*
X1397530Y105039D01*
X1397520Y105013D01*
X1397505Y104990D01*
X1397493Y104965D01*
X1397476Y104943D01*
X1397462Y104919D01*
X1397444Y104899D01*
X1397428Y104876D01*
X1397408Y104857D01*
X1397390Y104836D01*
X1397250Y104695D01*
X1397229Y104677D01*
X1397209Y104657D01*
X1397187Y104641D01*
X1397166Y104623D01*
X1397142Y104609D01*
X1397120Y104593D01*
X1397095Y104580D01*
X1397072Y104566D01*
X1397047Y104555D01*
X1397022Y104543D01*
X1396838Y104467D01*
X1396812Y104458D01*
X1396786Y104448D01*
X1396760Y104441D01*
X1396733Y104433D01*
X1396706Y104428D01*
X1396679Y104422D01*
X1396652Y104420D01*
X1396624Y104415D01*
X1396597D01*
X1396569Y104413D01*
X1394870D01*
X1394843Y104415D01*
X1394816D01*
X1394788Y104420D01*
X1394761Y104422D01*
X1394734Y104428D01*
X1394707Y104433D01*
X1394680Y104441D01*
X1394654Y104448D01*
X1394628Y104458D01*
X1394602Y104467D01*
X1394418Y104543D01*
X1394393Y104555D01*
X1394368Y104566D01*
X1394345Y104580D01*
X1394320Y104593D01*
X1394297Y104609D01*
X1394274Y104623D01*
X1394253Y104641D01*
X1394231Y104657D01*
X1394211Y104677D01*
X1394190Y104695D01*
X1394050Y104836D01*
X1394032Y104857D01*
X1394012Y104876D01*
X1393996Y104899D01*
X1393978Y104919D01*
X1393964Y104943D01*
X1393947Y104965D01*
X1393935Y104990D01*
X1393920Y105013D01*
X1393910Y105039D01*
X1393897Y105063D01*
X1393821Y105247D01*
X1393813Y105274D01*
X1393802Y105299D01*
X1393796Y105326D01*
X1393787Y105352D01*
X1393783Y105379D01*
X1393777Y105406D01*
X1393774Y105434D01*
X1393770Y105461D01*
Y105489D01*
X1393768Y105516D01*
Y105615D01*
Y138615D01*
Y138715D01*
X1393770Y138742D01*
Y138770D01*
X1393774Y138797D01*
X1393777Y138825D01*
X1393783Y138851D01*
X1393787Y138879D01*
X1393796Y138905D01*
X1393802Y138932D01*
X1393813Y138957D01*
X1393821Y138983D01*
X1393897Y139167D01*
X1393910Y139192D01*
X1393920Y139217D01*
X1393935Y139241D01*
X1393947Y139265D01*
X1393964Y139288D01*
X1393978Y139311D01*
X1393996Y139332D01*
X1394012Y139355D01*
X1394032Y139374D01*
X1394050Y139395D01*
X1394190Y139536D01*
X1394211Y139554D01*
X1394231Y139573D01*
X1394253Y139589D01*
X1394274Y139607D01*
X1394297Y139622D01*
X1394320Y139638D01*
X1394345Y139651D01*
X1394368Y139665D01*
X1394393Y139675D01*
X1394418Y139688D01*
X1394602Y139764D01*
X1394628Y139773D01*
X1394654Y139783D01*
X1394680Y139790D01*
X1394707Y139798D01*
X1394734Y139803D01*
X1394761Y139809D01*
X1394788Y139811D01*
X1394815Y139815D01*
X1394843D01*
X1394870Y139818D01*
X1396569D01*
X1396597Y139815D01*
D02*
G37*
G36*
X1391597D02*
X1391624D01*
X1391652Y139811D01*
X1391679Y139809D01*
X1391706Y139803D01*
X1391733Y139798D01*
X1391760Y139790D01*
X1391786Y139783D01*
X1391812Y139773D01*
X1391838Y139764D01*
X1392022Y139688D01*
X1392047Y139675D01*
X1392072Y139665D01*
X1392095Y139651D01*
X1392120Y139638D01*
X1392143Y139622D01*
X1392166Y139607D01*
X1392187Y139590D01*
X1392209Y139573D01*
X1392229Y139554D01*
X1392250Y139536D01*
X1392390Y139395D01*
X1392408Y139374D01*
X1392428Y139355D01*
X1392444Y139332D01*
X1392462Y139311D01*
X1392476Y139288D01*
X1392493Y139265D01*
X1392505Y139241D01*
X1392520Y139217D01*
X1392530Y139192D01*
X1392543Y139167D01*
X1392619Y138984D01*
X1392627Y138957D01*
X1392638Y138932D01*
X1392644Y138905D01*
X1392653Y138879D01*
X1392657Y138852D01*
X1392664Y138825D01*
X1392666Y138797D01*
X1392670Y138770D01*
Y138743D01*
X1392672Y138715D01*
Y138615D01*
Y105615D01*
Y105516D01*
X1392670Y105489D01*
Y105461D01*
X1392666Y105434D01*
X1392664Y105406D01*
X1392657Y105379D01*
X1392653Y105352D01*
X1392644Y105326D01*
X1392638Y105299D01*
X1392627Y105274D01*
X1392619Y105247D01*
X1392543Y105063D01*
X1392530Y105039D01*
X1392520Y105013D01*
X1392505Y104990D01*
X1392493Y104965D01*
X1392476Y104943D01*
X1392462Y104919D01*
X1392444Y104899D01*
X1392428Y104876D01*
X1392408Y104857D01*
X1392390Y104836D01*
X1392250Y104695D01*
X1392229Y104677D01*
X1392209Y104657D01*
X1392187Y104641D01*
X1392166Y104623D01*
X1392142Y104609D01*
X1392120Y104593D01*
X1392095Y104580D01*
X1392072Y104566D01*
X1392047Y104555D01*
X1392022Y104543D01*
X1391838Y104467D01*
X1391812Y104458D01*
X1391786Y104448D01*
X1391760Y104441D01*
X1391733Y104433D01*
X1391706Y104428D01*
X1391679Y104422D01*
X1391652Y104420D01*
X1391624Y104415D01*
X1391597D01*
X1391569Y104413D01*
X1389870D01*
X1389843Y104415D01*
X1389816D01*
X1389788Y104420D01*
X1389761Y104422D01*
X1389734Y104428D01*
X1389707Y104433D01*
X1389680Y104441D01*
X1389654Y104448D01*
X1389628Y104458D01*
X1389602Y104467D01*
X1389418Y104543D01*
X1389393Y104555D01*
X1389368Y104566D01*
X1389345Y104580D01*
X1389320Y104593D01*
X1389297Y104609D01*
X1389274Y104623D01*
X1389253Y104641D01*
X1389231Y104657D01*
X1389211Y104677D01*
X1389190Y104695D01*
X1389050Y104836D01*
X1389032Y104857D01*
X1389012Y104876D01*
X1388996Y104899D01*
X1388978Y104919D01*
X1388964Y104943D01*
X1388947Y104965D01*
X1388935Y104990D01*
X1388920Y105013D01*
X1388910Y105039D01*
X1388897Y105063D01*
X1388821Y105247D01*
X1388813Y105274D01*
X1388802Y105299D01*
X1388796Y105326D01*
X1388787Y105352D01*
X1388783Y105379D01*
X1388777Y105406D01*
X1388774Y105434D01*
X1388770Y105461D01*
Y105489D01*
X1388768Y105516D01*
Y105615D01*
Y138615D01*
Y138715D01*
X1388770Y138742D01*
Y138770D01*
X1388774Y138797D01*
X1388777Y138825D01*
X1388783Y138851D01*
X1388787Y138879D01*
X1388796Y138905D01*
X1388802Y138932D01*
X1388813Y138957D01*
X1388821Y138983D01*
X1388897Y139167D01*
X1388910Y139192D01*
X1388920Y139217D01*
X1388935Y139241D01*
X1388947Y139265D01*
X1388964Y139288D01*
X1388978Y139311D01*
X1388996Y139332D01*
X1389012Y139355D01*
X1389032Y139374D01*
X1389050Y139395D01*
X1389190Y139536D01*
X1389211Y139554D01*
X1389231Y139573D01*
X1389253Y139589D01*
X1389274Y139607D01*
X1389297Y139622D01*
X1389320Y139638D01*
X1389345Y139651D01*
X1389368Y139665D01*
X1389393Y139675D01*
X1389418Y139688D01*
X1389602Y139764D01*
X1389628Y139773D01*
X1389654Y139783D01*
X1389680Y139790D01*
X1389707Y139798D01*
X1389734Y139803D01*
X1389761Y139809D01*
X1389788Y139811D01*
X1389815Y139815D01*
X1389843D01*
X1389870Y139818D01*
X1391569D01*
X1391597Y139815D01*
D02*
G37*
D30*
X2667000Y359410D02*
D03*
D54*
X806450Y725170D02*
D03*
X815340D02*
D03*
X797560D02*
D03*
X1794510Y471170D02*
D03*
Y483870D02*
D03*
Y477520D02*
D03*
X2820560Y758250D02*
D03*
X2825860D02*
D03*
X2315210Y31750D02*
D03*
X2303410Y20320D02*
D03*
Y69850D02*
D03*
X2315210Y58420D02*
D03*
X2929890Y189300D02*
D03*
Y207080D02*
D03*
X2923540D02*
D03*
X2923540Y189300D02*
D03*
X2928620Y511810D02*
D03*
Y494030D02*
D03*
X2922270D02*
D03*
Y511810D02*
D03*
X2621170Y384920D02*
D03*
Y379620D02*
D03*
X2626360Y379510D02*
D03*
Y384810D02*
D03*
Y339310D02*
D03*
Y334010D02*
D03*
X2621170Y334120D02*
D03*
Y339420D02*
D03*
D122*
X504190Y589280D02*
D03*
X694690Y652780D02*
D03*
Y684530D02*
D03*
X504190D02*
D03*
X694690Y589280D02*
D03*
D123*
X833755Y466090D02*
D03*
X824865D02*
D03*
X833755Y476250D02*
D03*
X824865D02*
D03*
X833755Y486410D02*
D03*
X824865D02*
D03*
X1559295Y894080D02*
D03*
X1332865Y701040D02*
D03*
Y659130D02*
D03*
X1848485Y63500D02*
D03*
X1332865Y523240D02*
D03*
X1675765Y63330D02*
D03*
X469265Y297180D02*
D03*
X818515Y1014730D02*
D03*
Y981710D02*
D03*
X809625Y1014730D02*
D03*
X1559295Y904240D02*
D03*
X1553845Y774700D02*
D03*
X1527175Y707390D02*
D03*
X1332865Y711200D02*
D03*
X1459865Y662940D02*
D03*
X1332865Y648970D02*
D03*
X1524635Y609600D02*
D03*
X1298575Y830580D02*
D03*
X1966595Y105410D02*
D03*
X1793875D02*
D03*
X1374585Y258380D02*
D03*
Y248220D02*
D03*
X1256475Y210120D02*
D03*
X1495425Y69850D02*
D03*
Y59690D02*
D03*
Y49530D02*
D03*
X708025Y759460D02*
D03*
X541655Y721360D02*
D03*
X426085Y427981D02*
D03*
X247015Y297180D02*
D03*
X125095Y69850D02*
D03*
Y49530D02*
D03*
Y59690D02*
D03*
X809625Y981710D02*
D03*
Y951230D02*
D03*
Y971550D02*
D03*
Y961390D02*
D03*
X1550405Y894080D02*
D03*
Y904240D02*
D03*
X2762885Y384810D02*
D03*
X2753995D02*
D03*
X716915Y759460D02*
D03*
X708025Y749300D02*
D03*
X716915D02*
D03*
X2753995Y394970D02*
D03*
X2762885D02*
D03*
X784225Y389890D02*
D03*
X775335D02*
D03*
X1307465Y830580D02*
D03*
X1323975Y659130D02*
D03*
Y648970D02*
D03*
Y711200D02*
D03*
Y701040D02*
D03*
Y523240D02*
D03*
X1562735Y774700D02*
D03*
X1515745Y609600D02*
D03*
X1310005Y29210D02*
D03*
X1301115D02*
D03*
X1242445D02*
D03*
X1251335D02*
D03*
X1536065Y707390D02*
D03*
X1468755Y662940D02*
D03*
X1459865Y673100D02*
D03*
X1468755D02*
D03*
X1487805D02*
D03*
X1478915D02*
D03*
X1497965Y655320D02*
D03*
X1506855D02*
D03*
X1525905D02*
D03*
X1517015D02*
D03*
X1536065Y645160D02*
D03*
X1527175D02*
D03*
X1929765Y887730D02*
D03*
X1938655D02*
D03*
X719455Y402590D02*
D03*
X728345D02*
D03*
X729488Y433070D02*
D03*
X720598D02*
D03*
X116205Y49530D02*
D03*
Y59690D02*
D03*
Y69850D02*
D03*
X1504315Y49530D02*
D03*
Y59690D02*
D03*
Y69850D02*
D03*
X1784985Y105410D02*
D03*
X1957705D02*
D03*
X1857375Y63500D02*
D03*
X1684655Y63330D02*
D03*
X676275Y797560D02*
D03*
X667385D02*
D03*
X818515Y971550D02*
D03*
Y961390D02*
D03*
Y951230D02*
D03*
X277495Y384810D02*
D03*
X286385D02*
D03*
X255905Y297180D02*
D03*
X187325Y342900D02*
D03*
X196215D02*
D03*
X187325Y353060D02*
D03*
X196215D02*
D03*
X224155D02*
D03*
X215265D02*
D03*
X187325Y260350D02*
D03*
X196215D02*
D03*
X187325Y250190D02*
D03*
X196215D02*
D03*
X224155D02*
D03*
X215265D02*
D03*
X224155Y260350D02*
D03*
X215265D02*
D03*
X224155Y342900D02*
D03*
X215265D02*
D03*
X194945Y792480D02*
D03*
X203835D02*
D03*
X220345Y768350D02*
D03*
X229235D02*
D03*
X194945Y715010D02*
D03*
X203835D02*
D03*
X220345Y737870D02*
D03*
X229235D02*
D03*
X186055Y715010D02*
D03*
X177165D02*
D03*
X210185Y737870D02*
D03*
X201295D02*
D03*
X186055Y792480D02*
D03*
X177165D02*
D03*
X210185Y768350D02*
D03*
X201295D02*
D03*
X434975Y427981D02*
D03*
X532765Y721360D02*
D03*
X158115Y673100D02*
D03*
X167005D02*
D03*
X158115Y683260D02*
D03*
X167005D02*
D03*
X147955Y798830D02*
D03*
X139065D02*
D03*
X147955Y788670D02*
D03*
X139065D02*
D03*
X1857375Y979170D02*
D03*
X1866265D02*
D03*
X1857375Y969010D02*
D03*
X1866265D02*
D03*
X1365695Y258380D02*
D03*
Y248220D02*
D03*
X1265365Y210120D02*
D03*
X2355215Y466090D02*
D03*
X2346325D02*
D03*
Y476250D02*
D03*
X2355215D02*
D03*
X358775Y819150D02*
D03*
X367665D02*
D03*
X358775Y831850D02*
D03*
X367665D02*
D03*
X478155Y297180D02*
D03*
X603885Y56388D02*
D03*
X612775D02*
D03*
X247650Y98044D02*
D03*
X238760D02*
D03*
X247650Y58674D02*
D03*
X238760D02*
D03*
X1942465Y811530D02*
D03*
X1933575D02*
D03*
X1460530Y97985D02*
D03*
X1451640D02*
D03*
X1563243Y173771D02*
D03*
X1572133D02*
D03*
X2668270Y120062D02*
D03*
X2659380D02*
D03*
X2896870Y52070D02*
D03*
X2905760D02*
D03*
D124*
X819150Y713740D02*
D03*
Y704850D02*
D03*
X808990Y713740D02*
D03*
Y704850D02*
D03*
X1869440Y1011555D02*
D03*
X1807210Y944245D02*
D03*
X1553210Y846455D02*
D03*
X1724660Y381635D02*
D03*
X1278890Y418465D02*
D03*
X1633220Y384175D02*
D03*
X1447830Y136720D02*
D03*
X1226820Y418465D02*
D03*
X821690Y342265D02*
D03*
X722630Y901065D02*
D03*
X1535430Y663575D02*
D03*
X1802130Y455295D02*
D03*
X1724660Y332105D02*
D03*
X1355120Y179900D02*
D03*
X1112520Y61595D02*
D03*
X984250Y666115D02*
D03*
X684530Y821055D02*
D03*
X683260Y518795D02*
D03*
X106680Y809625D02*
D03*
X500380Y521335D02*
D03*
X226060Y536575D02*
D03*
X106680Y658495D02*
D03*
X49501Y594995D02*
D03*
X69821D02*
D03*
X59690D02*
D03*
X935990Y433705D02*
D03*
X975360Y61595D02*
D03*
X477520Y315595D02*
D03*
X722630Y909955D02*
D03*
X732790D02*
D03*
X763270D02*
D03*
X753110D02*
D03*
X742950D02*
D03*
X2597150Y354965D02*
D03*
Y363855D02*
D03*
X2607056Y363810D02*
D03*
Y354920D02*
D03*
X683260Y527685D02*
D03*
X673100Y518795D02*
D03*
Y527685D02*
D03*
X935990Y442595D02*
D03*
X984250Y657225D02*
D03*
X994664Y666115D02*
D03*
Y657225D02*
D03*
X1553210Y837565D02*
D03*
X1724660Y372745D02*
D03*
Y340995D02*
D03*
X1633220Y375285D02*
D03*
X1535430Y747395D02*
D03*
Y738505D02*
D03*
X1802130Y446405D02*
D03*
X1535430Y654685D02*
D03*
X821690Y333375D02*
D03*
X226060Y527685D02*
D03*
X236220Y536575D02*
D03*
Y527685D02*
D03*
X49501Y586105D02*
D03*
X69821D02*
D03*
X59690D02*
D03*
X1226820Y409575D02*
D03*
X1278890D02*
D03*
X1901190Y231775D02*
D03*
Y222885D02*
D03*
X1939290Y231775D02*
D03*
Y222885D02*
D03*
X1863090Y231775D02*
D03*
Y222885D02*
D03*
X1824990Y231775D02*
D03*
Y222885D02*
D03*
X1807210Y953135D02*
D03*
X831850Y909955D02*
D03*
Y901065D02*
D03*
X684530Y812165D02*
D03*
X732790Y901065D02*
D03*
X742950D02*
D03*
X753110D02*
D03*
X763270D02*
D03*
X106680Y373707D02*
D03*
Y364817D02*
D03*
X106950Y233045D02*
D03*
Y224155D02*
D03*
X1112520Y70485D02*
D03*
X406525Y521360D02*
D03*
Y512470D02*
D03*
X490220Y521335D02*
D03*
Y512445D02*
D03*
X500380D02*
D03*
X127000Y738505D02*
D03*
Y729615D02*
D03*
X116840Y738505D02*
D03*
Y729615D02*
D03*
Y776605D02*
D03*
Y767715D02*
D03*
X127000Y776605D02*
D03*
Y767715D02*
D03*
X106680Y667385D02*
D03*
Y818515D02*
D03*
X1869440Y1002665D02*
D03*
X2801620Y493395D02*
D03*
Y502285D02*
D03*
X2846757Y493465D02*
D03*
Y502355D02*
D03*
X2514600Y946785D02*
D03*
Y955675D02*
D03*
X363220Y973703D02*
D03*
Y964813D02*
D03*
X350520Y973455D02*
D03*
Y964565D02*
D03*
X113030Y941705D02*
D03*
Y932815D02*
D03*
X2597150Y788035D02*
D03*
Y779145D02*
D03*
Y807085D02*
D03*
Y798195D02*
D03*
X477520Y306705D02*
D03*
X402590Y154305D02*
D03*
Y163195D02*
D03*
X412750D02*
D03*
Y154305D02*
D03*
X842010Y174269D02*
D03*
Y165379D02*
D03*
X2527460Y379730D02*
D03*
Y370840D02*
D03*
X2537460Y379730D02*
D03*
Y370840D02*
D03*
X2547460D02*
D03*
Y379730D02*
D03*
X2404110Y777875D02*
D03*
Y768985D02*
D03*
Y853475D02*
D03*
Y844585D02*
D03*
X1447830Y127830D02*
D03*
X1355120Y171010D02*
D03*
Y151960D02*
D03*
Y160850D02*
D03*
X975360Y70485D02*
D03*
X1102360Y88265D02*
D03*
Y79375D02*
D03*
X1092200Y88265D02*
D03*
Y79375D02*
D03*
X1082040Y88265D02*
D03*
Y79375D02*
D03*
X1071880Y88265D02*
D03*
Y79375D02*
D03*
X1061720Y88265D02*
D03*
Y79375D02*
D03*
X1016000Y88265D02*
D03*
Y79375D02*
D03*
X995680Y88265D02*
D03*
Y79375D02*
D03*
X985520Y88265D02*
D03*
Y79375D02*
D03*
X1005840Y88265D02*
D03*
Y79375D02*
D03*
X2777490Y747395D02*
D03*
Y738505D02*
D03*
X2823210Y747395D02*
D03*
Y738505D02*
D03*
X2659380Y76755D02*
D03*
Y85645D02*
D03*
D125*
X1544828Y228635D02*
D03*
X1571752D02*
D03*
X1242568Y773430D02*
D03*
X1346518Y285050D02*
D03*
X1082548Y773430D02*
D03*
X681482Y278130D02*
D03*
X814578Y1032510D02*
D03*
X1269492Y773430D02*
D03*
X1109472D02*
D03*
X1269492Y474980D02*
D03*
X1594612Y201965D02*
D03*
X1373442Y285050D02*
D03*
X1172972Y243840D02*
D03*
X1169162Y196850D02*
D03*
X1323878Y134815D02*
D03*
X1176782Y151130D02*
D03*
X841502Y1032510D02*
D03*
X979297Y633730D02*
D03*
X690372Y723900D02*
D03*
X748538Y614680D02*
D03*
X351028Y635000D02*
D03*
X330962D02*
D03*
X257048D02*
D03*
X654558Y278130D02*
D03*
X1242568Y474980D02*
D03*
X952373Y633730D02*
D03*
X663448Y723900D02*
D03*
X377952Y635000D02*
D03*
X304038D02*
D03*
X283972D02*
D03*
X775462Y614680D02*
D03*
X1350802Y134815D02*
D03*
X1567688Y201965D02*
D03*
X1149858Y151130D02*
D03*
X1142238Y196850D02*
D03*
X1146048Y243840D02*
D03*
D126*
X1815592Y351790D02*
D03*
X1880108D02*
D03*
X1719072Y532130D02*
D03*
X1720342Y422910D02*
D03*
X1438402Y678180D02*
D03*
X1783588Y532130D02*
D03*
X1438402Y568960D02*
D03*
X1784858Y422910D02*
D03*
X409702Y676910D02*
D03*
Y615950D02*
D03*
X462529Y471482D02*
D03*
X437388Y471170D02*
D03*
X1373886Y678180D02*
D03*
Y568960D02*
D03*
X527045Y471482D02*
D03*
X372872Y471170D02*
D03*
X474218Y615950D02*
D03*
Y676910D02*
D03*
D127*
X1941830Y124460D02*
D03*
X1968235Y145230D02*
D03*
X394430Y24940D02*
D03*
X873760Y674370D02*
D03*
X786130Y500380D02*
D03*
X788670Y551180D02*
D03*
Y570230D02*
D03*
Y589280D02*
D03*
X763270Y450850D02*
D03*
X1563370Y364490D02*
D03*
Y326390D02*
D03*
X251460Y455930D02*
D03*
X1724660Y358140D02*
D03*
X1432560Y326390D02*
D03*
Y359410D02*
D03*
X1295400Y110490D02*
D03*
X1289050Y29210D02*
D03*
X1263650D02*
D03*
X819150Y433070D02*
D03*
X819240Y393700D02*
D03*
X835660Y750570D02*
D03*
X210820Y528320D02*
D03*
X302260Y450850D02*
D03*
Y473710D02*
D03*
X1264920Y410210D02*
D03*
X1240790D02*
D03*
X2018030Y255270D02*
D03*
Y228600D02*
D03*
X548640Y753110D02*
D03*
X443230Y787400D02*
D03*
X214630Y236220D02*
D03*
Y328930D02*
D03*
X219710Y367030D02*
D03*
X214630Y274320D02*
D03*
X273050Y556260D02*
D03*
Y577850D02*
D03*
Y599440D02*
D03*
X222250Y781050D02*
D03*
Y825500D02*
D03*
Y676910D02*
D03*
Y723900D02*
D03*
X638810Y302260D02*
D03*
X612140D02*
D03*
X585470D02*
D03*
X1404650Y160215D02*
D03*
D128*
X1756410Y803910D02*
D03*
X1631410D02*
D03*
D129*
X2081604Y60706D02*
D03*
X2035884D02*
D03*
X2823210Y776986D02*
D03*
X2777490D02*
D03*
D130*
X2058744Y133350D02*
D03*
X2800350Y849630D02*
D03*
D131*
X796960Y201970D02*
D03*
Y195470D02*
D03*
Y188970D02*
D03*
Y182470D02*
D03*
Y175970D02*
D03*
Y169470D02*
D03*
X721960Y143470D02*
D03*
Y149970D02*
D03*
Y156470D02*
D03*
Y195470D02*
D03*
Y188970D02*
D03*
Y182470D02*
D03*
Y175970D02*
D03*
Y169470D02*
D03*
Y162970D02*
D03*
X796960Y156470D02*
D03*
Y149970D02*
D03*
Y143470D02*
D03*
Y162970D02*
D03*
X1478490Y345440D02*
D03*
X1536490D02*
D03*
X1536490Y364940D02*
D03*
X1536490Y325940D02*
D03*
X1536490Y332440D02*
D03*
X1536490Y338940D02*
D03*
X1536490Y351940D02*
D03*
X1536490Y358440D02*
D03*
X1478490Y325940D02*
D03*
X1478490Y332440D02*
D03*
X1478490Y338940D02*
D03*
X1478490Y351940D02*
D03*
X1478490Y358440D02*
D03*
D132*
X721960Y201970D02*
D03*
X1478490Y364940D02*
D03*
D133*
X704850Y38100D02*
D03*
X675640Y46990D02*
D03*
X678940Y895350D02*
D03*
X702310D02*
D03*
X1003300Y566420D02*
D03*
Y588010D02*
D03*
X360680Y226060D02*
D03*
Y210820D02*
D03*
X402590Y745490D02*
D03*
Y759460D02*
D03*
X261658Y943458D02*
D03*
Y929488D02*
D03*
X594360Y73660D02*
D03*
X624840D02*
D03*
X608330D02*
D03*
X636270Y111760D02*
D03*
X1507236Y323440D02*
D03*
Y334440D02*
D03*
X1507490Y345440D02*
D03*
X1507236Y356440D02*
D03*
Y367440D02*
D03*
X1496236Y323440D02*
D03*
Y334440D02*
D03*
Y345440D02*
D03*
Y356440D02*
D03*
Y367440D02*
D03*
X1518236Y323440D02*
D03*
Y334440D02*
D03*
Y345440D02*
D03*
Y356440D02*
D03*
Y367440D02*
D03*
X243282Y391258D02*
D03*
Y402258D02*
D03*
X243028Y413258D02*
D03*
X243282Y424258D02*
D03*
Y435258D02*
D03*
X254282Y391258D02*
D03*
Y402258D02*
D03*
Y413258D02*
D03*
Y424258D02*
D03*
Y435258D02*
D03*
X232282Y391258D02*
D03*
Y402258D02*
D03*
Y413258D02*
D03*
Y424258D02*
D03*
Y435258D02*
D03*
X991160Y841598D02*
D03*
X998598Y834160D02*
D03*
X1001320Y824000D02*
D03*
X998598Y813840D02*
D03*
X991160Y806402D02*
D03*
X981000Y803680D02*
D03*
X970840Y806402D02*
D03*
X963402Y813840D02*
D03*
X960680Y824000D02*
D03*
X963466Y834188D02*
D03*
X970840Y841598D02*
D03*
X981000Y844320D02*
D03*
X1391160Y441598D02*
D03*
X1398598Y434160D02*
D03*
X1401320Y424000D02*
D03*
X1398598Y413840D02*
D03*
X1391160Y406402D02*
D03*
X1381000Y403680D02*
D03*
X1370840Y406402D02*
D03*
X1363402Y413840D02*
D03*
X1360680Y424000D02*
D03*
X1363466Y434188D02*
D03*
X1370840Y441598D02*
D03*
X1381000Y444320D02*
D03*
X1677670Y683260D02*
D03*
Y668020D02*
D03*
Y652780D02*
D03*
X1670050Y645160D02*
D03*
X1662430Y683260D02*
D03*
X1670050Y675640D02*
D03*
X1654810D02*
D03*
X1662430Y668020D02*
D03*
X1647190D02*
D03*
Y683260D02*
D03*
X1639570Y675640D02*
D03*
X1631950Y683260D02*
D03*
X1639570Y660400D02*
D03*
X1631950Y668020D02*
D03*
X1670050Y660400D02*
D03*
X1662430Y652780D02*
D03*
X1654810Y660400D02*
D03*
Y645160D02*
D03*
X1647190Y637540D02*
D03*
Y652780D02*
D03*
X1631950D02*
D03*
X1639570Y645160D02*
D03*
X1624330D02*
D03*
X1616710Y683260D02*
D03*
X1624330Y675640D02*
D03*
X1609090D02*
D03*
X1616710Y668020D02*
D03*
X1601470D02*
D03*
Y683260D02*
D03*
X1624330Y660400D02*
D03*
X1616710Y652780D02*
D03*
X1609090Y660400D02*
D03*
X1616710Y637540D02*
D03*
X1609090Y645160D02*
D03*
X1601470Y637540D02*
D03*
Y652780D02*
D03*
X1677670Y637540D02*
D03*
Y607060D02*
D03*
X1662430Y637540D02*
D03*
Y607060D02*
D03*
X1654810Y599440D02*
D03*
X1670050D02*
D03*
X1662430Y591820D02*
D03*
X1677670D02*
D03*
Y576580D02*
D03*
X1670050Y584200D02*
D03*
X1677670Y561340D02*
D03*
X1670050Y568960D02*
D03*
X1662430Y576580D02*
D03*
X1654810Y584200D02*
D03*
X1662430Y561340D02*
D03*
X1654810Y568960D02*
D03*
X1885950Y435610D02*
D03*
X1809750D02*
D03*
X1855470D02*
D03*
X1870710D02*
D03*
X1847850Y427990D02*
D03*
X1878330D02*
D03*
X1863090D02*
D03*
X1840230Y435610D02*
D03*
X1824990D02*
D03*
X1832610Y427990D02*
D03*
X1817370D02*
D03*
X1631950Y607060D02*
D03*
X1647190D02*
D03*
X1631950Y637540D02*
D03*
X1639570Y599440D02*
D03*
X1624330D02*
D03*
X1616710Y607060D02*
D03*
X1609090Y599440D02*
D03*
X1601470Y607060D02*
D03*
X1616710Y591820D02*
D03*
X1601470D02*
D03*
X1631950D02*
D03*
X1647190D02*
D03*
X1609090Y584200D02*
D03*
X1639570D02*
D03*
X1624330D02*
D03*
X1631950Y576580D02*
D03*
X1647190D02*
D03*
X1624330Y568960D02*
D03*
X1639570D02*
D03*
X1616710Y561340D02*
D03*
Y576580D02*
D03*
X1609090Y568960D02*
D03*
X1601470Y576580D02*
D03*
Y561340D02*
D03*
X1631950D02*
D03*
X1647190D02*
D03*
X1885950Y420370D02*
D03*
X1878330Y412750D02*
D03*
X1885950Y405130D02*
D03*
X1870710D02*
D03*
Y420370D02*
D03*
X1863090Y412750D02*
D03*
X1855470Y420370D02*
D03*
Y405130D02*
D03*
X1885950Y389890D02*
D03*
X1878330Y397510D02*
D03*
X1863090D02*
D03*
X1870710Y389890D02*
D03*
X1855470D02*
D03*
X1824990Y420370D02*
D03*
X1840230D02*
D03*
X1817370Y412750D02*
D03*
X1847850D02*
D03*
X1832610D02*
D03*
X1809750Y420370D02*
D03*
X1840230Y405130D02*
D03*
X1847850Y397510D02*
D03*
X1832610D02*
D03*
X1840230Y389890D02*
D03*
X1824990D02*
D03*
Y405130D02*
D03*
X1809750D02*
D03*
X1817370Y397510D02*
D03*
X1809750Y389890D02*
D03*
X1690370Y363425D02*
D03*
X1705610D02*
D03*
X1682750Y355805D02*
D03*
X1697990D02*
D03*
X1690370Y348185D02*
D03*
X1705610Y332945D02*
D03*
Y348185D02*
D03*
X1697990Y340565D02*
D03*
X1690370Y332945D02*
D03*
X1697990Y325325D02*
D03*
X1682750D02*
D03*
X1675130Y363425D02*
D03*
Y348185D02*
D03*
X1667510Y355805D02*
D03*
X1659890Y363425D02*
D03*
Y348185D02*
D03*
X1682750Y340565D02*
D03*
X1675130Y332945D02*
D03*
X1667510Y340565D02*
D03*
Y325325D02*
D03*
X1659890Y317705D02*
D03*
Y332945D02*
D03*
X1705610Y317705D02*
D03*
X1697990Y310085D02*
D03*
X1690370Y302465D02*
D03*
X1705610D02*
D03*
X1690370Y317705D02*
D03*
X1682750Y310085D02*
D03*
X1675130Y317705D02*
D03*
Y302465D02*
D03*
X1697990Y294845D02*
D03*
X1690370Y287225D02*
D03*
X1682750Y294845D02*
D03*
X1705610Y287225D02*
D03*
X1675130D02*
D03*
X1667510Y310085D02*
D03*
X1659890Y302465D02*
D03*
X1667510Y294845D02*
D03*
X1659890Y287225D02*
D03*
X1194000Y88320D02*
D03*
X1204160Y85598D02*
D03*
X1183840D02*
D03*
X1214320Y68000D02*
D03*
X1211598Y78160D02*
D03*
Y57840D02*
D03*
X1204160Y50402D02*
D03*
X1176466Y78188D02*
D03*
X1176402Y57840D02*
D03*
X1194000Y47680D02*
D03*
X1183840Y50402D02*
D03*
X1173680Y68000D02*
D03*
X628267Y672442D02*
D03*
X613027D02*
D03*
X628267Y657202D02*
D03*
Y641962D02*
D03*
X620647Y649582D02*
D03*
X628267Y626722D02*
D03*
X620647Y634342D02*
D03*
Y664822D02*
D03*
X613027Y657202D02*
D03*
Y626722D02*
D03*
Y641962D02*
D03*
X628267Y596242D02*
D03*
X620647Y619102D02*
D03*
X628267Y611482D02*
D03*
X613027D02*
D03*
X620647Y603862D02*
D03*
X613027Y596242D02*
D03*
X605407Y664822D02*
D03*
Y649582D02*
D03*
X597787Y657202D02*
D03*
X605407Y634342D02*
D03*
X597787Y641962D02*
D03*
Y672442D02*
D03*
X590167Y649582D02*
D03*
Y664822D02*
D03*
Y634342D02*
D03*
X582547Y641962D02*
D03*
X605407Y619102D02*
D03*
X597787Y611482D02*
D03*
Y626722D02*
D03*
X605407Y603862D02*
D03*
X597787Y596242D02*
D03*
X590167Y619102D02*
D03*
X582547Y626722D02*
D03*
X590167Y603862D02*
D03*
X582547Y611482D02*
D03*
Y672442D02*
D03*
Y657202D02*
D03*
Y596242D02*
D03*
X894000Y388320D02*
D03*
X883840Y385598D02*
D03*
X914320Y368000D02*
D03*
X911598Y357840D02*
D03*
Y378160D02*
D03*
X904160Y350402D02*
D03*
Y385598D02*
D03*
X883840Y350402D02*
D03*
X894000Y347680D02*
D03*
X876466Y378188D02*
D03*
X876402Y357840D02*
D03*
X873680Y368000D02*
D03*
X2527160Y527008D02*
D03*
X2534598Y519570D02*
D03*
X2537320Y509410D02*
D03*
X2534598Y499250D02*
D03*
X2527160Y491812D02*
D03*
X2517000Y489090D02*
D03*
X2506840Y491812D02*
D03*
X2499402Y499250D02*
D03*
X2496680Y509410D02*
D03*
X2499466Y519598D02*
D03*
X2506840Y527008D02*
D03*
X2517000Y529730D02*
D03*
X2827160Y227008D02*
D03*
X2834597Y219570D02*
D03*
X2837320Y209410D02*
D03*
X2834597Y199250D02*
D03*
X2827160Y191812D02*
D03*
X2817000Y189090D02*
D03*
X2806840Y191812D02*
D03*
X2799402Y199250D02*
D03*
X2796680Y209410D02*
D03*
X2799466Y219598D02*
D03*
X2806840Y227008D02*
D03*
X2817000Y229730D02*
D03*
X70160Y1017598D02*
D03*
X77598Y1010160D02*
D03*
X80320Y1000000D02*
D03*
X77598Y989840D02*
D03*
X70160Y982402D02*
D03*
X60000Y979680D02*
D03*
X49840Y982402D02*
D03*
X42402Y989840D02*
D03*
X39680Y1000000D02*
D03*
X42466Y1010188D02*
D03*
X49840Y1017598D02*
D03*
X60000Y1020320D02*
D03*
Y550320D02*
D03*
X49840Y547598D02*
D03*
X42466Y540188D02*
D03*
X39680Y530000D02*
D03*
X42402Y519840D02*
D03*
X49840Y512402D02*
D03*
X60000Y509680D02*
D03*
X70160Y512402D02*
D03*
X77598Y519840D02*
D03*
X80320Y530000D02*
D03*
X77598Y540160D02*
D03*
X70160Y547598D02*
D03*
X1570160Y1017598D02*
D03*
X1577598Y1010160D02*
D03*
X1580320Y1000000D02*
D03*
X1577598Y989840D02*
D03*
X1570160Y982402D02*
D03*
X1560000Y979680D02*
D03*
X1549840Y982402D02*
D03*
X1542402Y989840D02*
D03*
X1539680Y1000000D02*
D03*
X1542466Y1010188D02*
D03*
X1549840Y1017598D02*
D03*
X1560000Y1020320D02*
D03*
Y80320D02*
D03*
X1549840Y77598D02*
D03*
X1542466Y70188D02*
D03*
X1539680Y60000D02*
D03*
X1542402Y49840D02*
D03*
X1549840Y42402D02*
D03*
X1560000Y39680D02*
D03*
X1570160Y42402D02*
D03*
X1577598Y49840D02*
D03*
X1580320Y60000D02*
D03*
X1577598Y70160D02*
D03*
X1570160Y77598D02*
D03*
X70160D02*
D03*
X77598Y70160D02*
D03*
X80320Y60000D02*
D03*
X77598Y49840D02*
D03*
X70160Y42402D02*
D03*
X60000Y39680D02*
D03*
X49840Y42402D02*
D03*
X42402Y49840D02*
D03*
X39680Y60000D02*
D03*
X42466Y70188D02*
D03*
X49840Y77598D02*
D03*
X60000Y80320D02*
D03*
X3050000Y550320D02*
D03*
X3039840Y547598D02*
D03*
X3032466Y540188D02*
D03*
X3029680Y530000D02*
D03*
X3032402Y519840D02*
D03*
X3039840Y512402D02*
D03*
X3050000Y509680D02*
D03*
X3060160Y512402D02*
D03*
X3067598Y519840D02*
D03*
X3070320Y530000D02*
D03*
X3067598Y540160D02*
D03*
X3060160Y547598D02*
D03*
Y77598D02*
D03*
X3067598Y70160D02*
D03*
X3070320Y60000D02*
D03*
X3067598Y49840D02*
D03*
X3060160Y42402D02*
D03*
X3050000Y39680D02*
D03*
X3039840Y42402D02*
D03*
X3032402Y49840D02*
D03*
X3029680Y60000D02*
D03*
X3032466Y70188D02*
D03*
X3039840Y77598D02*
D03*
X3050000Y80320D02*
D03*
Y1020320D02*
D03*
X3039840Y1017598D02*
D03*
X3032466Y1010188D02*
D03*
X3029680Y1000000D02*
D03*
X3032402Y989840D02*
D03*
X3039840Y982402D02*
D03*
X3050000Y979680D02*
D03*
X3060160Y982402D02*
D03*
X3067598Y989840D02*
D03*
X3070320Y1000000D02*
D03*
X3067598Y1010160D02*
D03*
X3060160Y1017598D02*
D03*
D134*
X591820Y172720D02*
D03*
X570230Y73660D02*
D03*
X527050D02*
D03*
X483870D02*
D03*
X440690D02*
D03*
X695960Y1035050D02*
D03*
X665480Y947420D02*
D03*
X814070Y998220D02*
D03*
X722630Y1012190D02*
D03*
X1226820Y1035050D02*
D03*
X944880Y731520D02*
D03*
X665480Y977900D02*
D03*
X566420Y725170D02*
D03*
X715645Y458785D02*
D03*
X787400Y226060D02*
D03*
X1549400Y932180D02*
D03*
X1308100Y814070D02*
D03*
X2597150Y930910D02*
D03*
X2613660Y646430D02*
D03*
X982980Y589280D02*
D03*
X1536065Y828040D02*
D03*
X826770Y318770D02*
D03*
X805180Y344170D02*
D03*
Y323850D02*
D03*
X643890Y367030D02*
D03*
X1882140Y111760D02*
D03*
X1709420D02*
D03*
X1224280Y928370D02*
D03*
X1339850Y836930D02*
D03*
X1393190Y974090D02*
D03*
X1079500Y836930D02*
D03*
Y948690D02*
D03*
X970280Y951230D02*
D03*
Y1037590D02*
D03*
X753110Y695960D02*
D03*
X663175Y746642D02*
D03*
X269240Y425450D02*
D03*
Y400050D02*
D03*
X172720Y425450D02*
D03*
Y400050D02*
D03*
X251460Y838200D02*
D03*
X200660Y857250D02*
D03*
X267970Y871220D02*
D03*
X288290D02*
D03*
X387350Y826770D02*
D03*
X548640Y73660D02*
D03*
X505460D02*
D03*
X2363470Y495300D02*
D03*
X346710Y1018540D02*
D03*
X156210Y927100D02*
D03*
X532130Y302260D02*
D03*
X508000D02*
D03*
X792480Y53340D02*
D03*
X726440D02*
D03*
X419100Y73660D02*
D03*
X462280D02*
D03*
X2688590Y679450D02*
D03*
X2686050Y900430D02*
D03*
X3060700Y671830D02*
D03*
X2791460Y73660D02*
D03*
X2766060D02*
D03*
X1945640Y1024900D02*
D03*
D135*
X1379220Y132115D02*
D03*
Y127115D02*
D03*
Y122115D02*
D03*
Y117115D02*
D03*
Y112115D02*
D03*
X1407220Y132115D02*
D03*
Y127115D02*
D03*
Y122115D02*
D03*
Y117115D02*
D03*
Y112115D02*
D03*
D136*
X1393220Y122115D02*
D03*
D137*
X1847850Y1018794D02*
D03*
X1852930Y109474D02*
D03*
X1680210D02*
D03*
X1838452Y995426D02*
D03*
X1548892Y763524D02*
D03*
X1482852Y481584D02*
D03*
X1843532Y86106D02*
D03*
X1670812D02*
D03*
X676148Y786384D02*
D03*
X1567688Y763524D02*
D03*
X1558290Y740156D02*
D03*
X1501648Y481584D02*
D03*
X1492250Y458216D02*
D03*
X1862328Y86106D02*
D03*
X1689608D02*
D03*
X666750Y763016D02*
D03*
X657352Y786384D02*
D03*
X1857248Y995426D02*
D03*
X493268Y42164D02*
D03*
X483870Y18796D02*
D03*
X474472Y42164D02*
D03*
X565912Y18796D02*
D03*
X575310Y42164D02*
D03*
X584708Y18796D02*
D03*
X554228Y42164D02*
D03*
X544830Y18796D02*
D03*
X535432Y42164D02*
D03*
X504952Y18796D02*
D03*
X514350Y42164D02*
D03*
X523748Y18796D02*
D03*
D138*
X1730660Y1021170D02*
D03*
X1752660D02*
D03*
X1774660D02*
D03*
X1763660D02*
D03*
X1741660D02*
D03*
X1719660D02*
D03*
X1708660D02*
D03*
D139*
X2000250Y581025D02*
D03*
X2015490Y498475D02*
D03*
X1330770Y297115D02*
D03*
Y272985D02*
D03*
X788670Y913765D02*
D03*
X798830D02*
D03*
X778510D02*
D03*
X741680Y729615D02*
D03*
X1219010Y272985D02*
D03*
X863600Y583565D02*
D03*
Y559435D02*
D03*
Y540385D02*
D03*
X853440Y583565D02*
D03*
Y540385D02*
D03*
Y559435D02*
D03*
X863600Y521335D02*
D03*
Y511175D02*
D03*
X853440D02*
D03*
Y521335D02*
D03*
X830580Y207645D02*
D03*
X820420Y207645D02*
D03*
X810260Y207645D02*
D03*
X706120Y977265D02*
D03*
X695960D02*
D03*
X685800D02*
D03*
X695960Y967105D02*
D03*
X685800D02*
D03*
X778510Y941705D02*
D03*
X788670D02*
D03*
X798830D02*
D03*
X1553210Y818515D02*
D03*
X2000250Y589915D02*
D03*
X2015490Y507365D02*
D03*
X2108200Y89535D02*
D03*
X2098040D02*
D03*
X2019300D02*
D03*
X1330770Y306005D02*
D03*
Y264095D02*
D03*
X1219010Y281875D02*
D03*
X1188720Y277495D02*
D03*
X1140460Y278765D02*
D03*
X1082040Y307975D02*
D03*
X1071880D02*
D03*
X1120140Y226695D02*
D03*
X1130300D02*
D03*
X1109980D02*
D03*
X1099820D02*
D03*
X1386870Y154500D02*
D03*
X1376710D02*
D03*
X1366550Y141165D02*
D03*
Y113225D02*
D03*
X1109833Y163195D02*
D03*
X1127760Y142875D02*
D03*
X1110142Y144512D02*
D03*
X1099820Y163195D02*
D03*
Y144145D02*
D03*
X1092200Y61595D02*
D03*
X1102360D02*
D03*
X1071880D02*
D03*
X1082040D02*
D03*
X1061720D02*
D03*
X798830Y932815D02*
D03*
Y922655D02*
D03*
X778510Y932815D02*
D03*
X788670D02*
D03*
Y922655D02*
D03*
X778510D02*
D03*
X741680Y720725D02*
D03*
X706120Y986155D02*
D03*
X695960D02*
D03*
Y958215D02*
D03*
X685800Y986155D02*
D03*
Y958215D02*
D03*
X863600Y592455D02*
D03*
Y549275D02*
D03*
Y530225D02*
D03*
Y568325D02*
D03*
X853440Y592455D02*
D03*
Y568325D02*
D03*
Y530225D02*
D03*
Y549275D02*
D03*
X662940Y527685D02*
D03*
X863600Y502285D02*
D03*
X853440D02*
D03*
X365760Y804545D02*
D03*
X350520D02*
D03*
X369570Y752475D02*
D03*
X379730D02*
D03*
X167640Y800735D02*
D03*
X157480D02*
D03*
X254000Y757555D02*
D03*
X519430Y532765D02*
D03*
X419100Y521335D02*
D03*
X480060Y521335D02*
D03*
X167640Y706755D02*
D03*
X157480D02*
D03*
X1024890Y316865D02*
D03*
X1010920Y321945D02*
D03*
X996747Y316555D02*
D03*
X989330Y253365D02*
D03*
X942340Y267335D02*
D03*
X697230Y358775D02*
D03*
X988060Y202565D02*
D03*
X977900D02*
D03*
X988060Y175895D02*
D03*
X977900D02*
D03*
X988060Y156845D02*
D03*
X977900D02*
D03*
X1005840Y61595D02*
D03*
X1016000D02*
D03*
X995680D02*
D03*
X985520D02*
D03*
X942340Y211455D02*
D03*
X830580Y198755D02*
D03*
Y179705D02*
D03*
X820420Y198755D02*
D03*
X810260Y198755D02*
D03*
X820420Y179705D02*
D03*
X810260D02*
D03*
X830580Y130175D02*
D03*
X820420D02*
D03*
X810260D02*
D03*
X628650Y475615D02*
D03*
Y465455D02*
D03*
X146050Y352295D02*
D03*
X193040Y300355D02*
D03*
X182880D02*
D03*
X454660Y273685D02*
D03*
X289560Y307975D02*
D03*
X279400D02*
D03*
X289560Y297815D02*
D03*
X279400D02*
D03*
X269240Y307975D02*
D03*
Y297815D02*
D03*
X119380Y335915D02*
D03*
X129540D02*
D03*
X2155190Y291465D02*
D03*
Y282575D02*
D03*
Y224155D02*
D03*
Y215265D02*
D03*
X1553210Y827405D02*
D03*
X985520Y70485D02*
D03*
X378460Y1005205D02*
D03*
Y996315D02*
D03*
X519430Y541655D02*
D03*
X1188720Y286385D02*
D03*
X942340Y258445D02*
D03*
X1140460Y287655D02*
D03*
X1024890Y307975D02*
D03*
X1127760Y151765D02*
D03*
X942340Y220345D02*
D03*
X996747Y307665D02*
D03*
X697230Y349885D02*
D03*
X454660Y264795D02*
D03*
X289560Y288925D02*
D03*
X279400D02*
D03*
X269240D02*
D03*
Y316865D02*
D03*
X279400D02*
D03*
X289560D02*
D03*
X205740Y343535D02*
D03*
Y352425D02*
D03*
Y259715D02*
D03*
Y250825D02*
D03*
X129540Y327025D02*
D03*
X119380D02*
D03*
X193040Y291465D02*
D03*
X182880Y291465D02*
D03*
X146050Y343405D02*
D03*
X254000Y748665D02*
D03*
X236220Y807720D02*
D03*
Y798830D02*
D03*
Y788035D02*
D03*
Y779145D02*
D03*
Y720725D02*
D03*
Y711835D02*
D03*
X236140Y701675D02*
D03*
Y692785D02*
D03*
X379730Y743585D02*
D03*
X369570D02*
D03*
X1127760Y51435D02*
D03*
Y60325D02*
D03*
X1031240Y61595D02*
D03*
Y70485D02*
D03*
X365760Y795655D02*
D03*
X350520D02*
D03*
X419100Y512445D02*
D03*
X628650Y456565D02*
D03*
Y484505D02*
D03*
X480060Y512445D02*
D03*
X662940Y518795D02*
D03*
X157480Y715645D02*
D03*
X167640D02*
D03*
Y791845D02*
D03*
X157480D02*
D03*
X2559050Y309245D02*
D03*
Y300355D02*
D03*
X2505710Y309245D02*
D03*
Y300355D02*
D03*
X2457450Y493395D02*
D03*
Y502285D02*
D03*
X2336800Y467995D02*
D03*
Y459105D02*
D03*
X810260Y139065D02*
D03*
X820420D02*
D03*
X830580D02*
D03*
X820420Y188595D02*
D03*
X830580D02*
D03*
X810260D02*
D03*
X708660Y139065D02*
D03*
Y130175D02*
D03*
X698500Y188595D02*
D03*
Y179705D02*
D03*
X708660Y188595D02*
D03*
Y179705D02*
D03*
X688340Y188595D02*
D03*
Y179705D02*
D03*
Y139065D02*
D03*
Y130175D02*
D03*
X698500Y139065D02*
D03*
Y130175D02*
D03*
X708660Y207645D02*
D03*
Y198755D02*
D03*
X698500Y207645D02*
D03*
Y198755D02*
D03*
X688340Y207645D02*
D03*
Y198755D02*
D03*
X328930Y93345D02*
D03*
Y84455D02*
D03*
Y62865D02*
D03*
Y71755D02*
D03*
X402590Y95885D02*
D03*
Y104775D02*
D03*
X636270Y125095D02*
D03*
Y133985D02*
D03*
X627380Y88265D02*
D03*
Y97155D02*
D03*
X2713990Y401955D02*
D03*
Y410845D02*
D03*
Y316865D02*
D03*
Y307975D02*
D03*
X2607310Y343535D02*
D03*
Y334645D02*
D03*
X2597150Y343535D02*
D03*
Y334645D02*
D03*
X2617470Y363855D02*
D03*
Y354965D02*
D03*
X2493010Y794385D02*
D03*
Y785495D02*
D03*
X1366550Y122115D02*
D03*
Y132275D02*
D03*
X1386870Y145610D02*
D03*
X1376710D02*
D03*
X988060Y211455D02*
D03*
X977900D02*
D03*
X988060Y184785D02*
D03*
X977900D02*
D03*
X988060Y165735D02*
D03*
X977900D02*
D03*
X1099820Y172085D02*
D03*
X1109833D02*
D03*
X1099820Y153035D02*
D03*
X1110142Y153402D02*
D03*
X1130300Y217805D02*
D03*
X1120140D02*
D03*
X1099820D02*
D03*
X1109980D02*
D03*
X1082040Y299085D02*
D03*
X1071880D02*
D03*
X1010920Y313055D02*
D03*
X989330Y262255D02*
D03*
X1102360Y70485D02*
D03*
X1092200D02*
D03*
X1082040D02*
D03*
X1071880D02*
D03*
X1061720D02*
D03*
X1016000D02*
D03*
X995680D02*
D03*
X1005840D02*
D03*
X2019300Y80645D02*
D03*
X2108200D02*
D03*
X2098040D02*
D03*
D140*
X1753870Y597990D02*
D03*
X1649730Y445590D02*
D03*
X1753870Y681990D02*
D03*
X1649730Y529590D02*
D03*
X337820Y513080D02*
D03*
Y597080D02*
D03*
D141*
X1343290Y725170D02*
D03*
X76570Y774700D02*
D03*
X177430Y658876D02*
D03*
X1328790Y725170D02*
D03*
X1568080Y270510D02*
D03*
X1553580D02*
D03*
X408570Y293370D02*
D03*
X394070D02*
D03*
X408570Y309880D02*
D03*
X394070D02*
D03*
X408570Y326390D02*
D03*
X394070D02*
D03*
X408570Y342900D02*
D03*
X394070D02*
D03*
X440320Y264160D02*
D03*
X425820D02*
D03*
X91070Y774700D02*
D03*
X119750Y709930D02*
D03*
X134250D02*
D03*
X162930Y658876D02*
D03*
D142*
X1329690Y605028D02*
D03*
X1031240Y635508D02*
D03*
X905510Y641858D02*
D03*
X861060Y207772D02*
D03*
X665480Y999998D02*
D03*
X1840230Y773938D02*
D03*
X1329690Y631952D02*
D03*
X2001520Y84582D02*
D03*
X1315530Y378522D02*
D03*
X1164590Y265938D02*
D03*
X1427510Y113733D02*
D03*
X1380520Y61663D02*
D03*
X1031240Y662432D02*
D03*
X905510Y668782D02*
D03*
X665480Y1026922D02*
D03*
X621030Y527812D02*
D03*
X462280Y544322D02*
D03*
X436880D02*
D03*
X918210Y439166D02*
D03*
X678050Y367053D02*
D03*
X919480Y207019D02*
D03*
X894080D02*
D03*
X861060Y180848D02*
D03*
X792480Y97028D02*
D03*
X610870Y479552D02*
D03*
X918210Y466090D02*
D03*
X678050Y340129D02*
D03*
X436880Y517398D02*
D03*
X462280D02*
D03*
X610870Y452628D02*
D03*
X621030Y500888D02*
D03*
X1315530Y351598D02*
D03*
X402590Y1018793D02*
D03*
Y991869D02*
D03*
X266700Y1011682D02*
D03*
Y984758D02*
D03*
X2620772Y779780D02*
D03*
Y806704D02*
D03*
X792480Y123952D02*
D03*
X726440Y97028D02*
D03*
Y123952D02*
D03*
X668020Y183388D02*
D03*
Y210312D02*
D03*
X347980Y66802D02*
D03*
Y39878D02*
D03*
X348000Y88646D02*
D03*
Y115570D02*
D03*
X2733040Y433832D02*
D03*
Y406908D02*
D03*
X2578100Y311658D02*
D03*
Y338582D02*
D03*
X2475230Y776478D02*
D03*
Y803402D02*
D03*
X1840230Y800862D02*
D03*
X2654808Y806704D02*
D03*
Y779780D02*
D03*
X2800350Y715518D02*
D03*
Y742442D02*
D03*
X1380520Y88587D02*
D03*
X1427510Y140657D02*
D03*
X894080Y233943D02*
D03*
X919480D02*
D03*
X1164590Y292862D02*
D03*
X2001520Y57658D02*
D03*
D143*
X1286000Y739000D02*
D03*
X1266000Y719000D02*
D03*
X1296000Y689000D02*
D03*
X1256000Y699000D02*
D03*
X1276000D02*
D03*
Y669000D02*
D03*
X1246000Y739000D02*
D03*
Y679000D02*
D03*
X1296000Y649000D02*
D03*
Y609000D02*
D03*
Y569000D02*
D03*
X1276000Y589000D02*
D03*
X1256000Y649000D02*
D03*
X1266000Y629000D02*
D03*
X1246000Y659000D02*
D03*
Y609000D02*
D03*
X1256000Y549000D02*
D03*
Y589000D02*
D03*
X1206000Y739000D02*
D03*
X1166000D02*
D03*
X1236000Y719000D02*
D03*
X1186000D02*
D03*
X1156000Y709000D02*
D03*
X1226000Y699000D02*
D03*
X1126000Y739000D02*
D03*
X1146000Y719000D02*
D03*
X1136000Y699000D02*
D03*
X1106000Y719000D02*
D03*
Y699000D02*
D03*
X1166000Y689000D02*
D03*
X1216000Y669000D02*
D03*
Y629000D02*
D03*
X1166000Y659000D02*
D03*
X1146000Y619000D02*
D03*
X1136000Y669000D02*
D03*
X1116000D02*
D03*
Y639000D02*
D03*
X1126000Y629000D02*
D03*
X1086000Y739000D02*
D03*
X1076000Y709000D02*
D03*
X1086000Y659000D02*
D03*
X1096000Y619000D02*
D03*
X1066000Y679000D02*
D03*
Y639000D02*
D03*
X1176000Y589000D02*
D03*
X1116000Y609000D02*
D03*
Y589000D02*
D03*
X1226000Y579000D02*
D03*
X1136000D02*
D03*
X1066000Y599000D02*
D03*
X1086000Y579000D02*
D03*
X1216000Y549000D02*
D03*
X1066000Y559000D02*
D03*
X1106000Y549000D02*
D03*
X1156000Y539000D02*
D03*
X1066000Y519000D02*
D03*
X1166000Y679000D02*
D03*
X1156000Y669000D02*
D03*
X1306000Y749000D02*
D03*
Y499000D02*
D03*
X1266000Y739000D02*
D03*
X1296000Y709000D02*
D03*
X1266000Y689000D02*
D03*
X1246000Y719000D02*
D03*
X1186000Y739000D02*
D03*
X1226000D02*
D03*
X1236000Y689000D02*
D03*
X1206000Y699000D02*
D03*
X1296000Y669000D02*
D03*
X1266000Y649000D02*
D03*
X1236000Y639000D02*
D03*
X1296000Y629000D02*
D03*
X1206000Y649000D02*
D03*
X1186000Y679000D02*
D03*
Y649000D02*
D03*
X1206000Y629000D02*
D03*
X1196000Y639000D02*
D03*
X1186000Y629000D02*
D03*
X1146000Y739000D02*
D03*
X1166000Y709000D02*
D03*
X1126000Y719000D02*
D03*
X1106000Y739000D02*
D03*
X1096000Y709000D02*
D03*
X1066000Y699000D02*
D03*
X1166000Y649000D02*
D03*
X1146000D02*
D03*
X1176000Y639000D02*
D03*
X1166000Y629000D02*
D03*
X1156000Y639000D02*
D03*
X1136000Y679000D02*
D03*
X1106000D02*
D03*
X1066000Y659000D02*
D03*
X1096000Y639000D02*
D03*
X1266000Y609000D02*
D03*
X1296000Y589000D02*
D03*
X1276000Y569000D02*
D03*
X1206000Y609000D02*
D03*
X1196000Y619000D02*
D03*
X1186000Y609000D02*
D03*
X1216000Y599000D02*
D03*
X1246000D02*
D03*
X1196000D02*
D03*
Y569000D02*
D03*
X1296000Y549000D02*
D03*
X1246000Y559000D02*
D03*
X1266000Y509000D02*
D03*
X1246000Y529000D02*
D03*
X1206000Y539000D02*
D03*
X1226000Y509000D02*
D03*
X1186000D02*
D03*
X1176000Y619000D02*
D03*
X1166000Y609000D02*
D03*
X1176000Y599000D02*
D03*
X1156000Y619000D02*
D03*
X1066000D02*
D03*
X1126000Y599000D02*
D03*
X1156000D02*
D03*
X1096000D02*
D03*
X1066000Y579000D02*
D03*
X1166000Y539000D02*
D03*
X1136000Y569000D02*
D03*
X1126000Y529000D02*
D03*
X1146000Y509000D02*
D03*
X1096000Y559000D02*
D03*
X1066000Y539000D02*
D03*
X1106000Y509000D02*
D03*
X1086000Y529000D02*
D03*
X1056000Y749000D02*
D03*
Y499000D02*
D03*
X1196000Y739000D02*
D03*
X1186000Y749000D02*
D03*
Y729000D02*
D03*
X1196000Y719000D02*
D03*
X1166000Y699000D02*
D03*
X1186000D02*
D03*
Y709000D02*
D03*
X1226000Y719000D02*
D03*
X1196000Y729000D02*
D03*
X1176000Y689000D02*
D03*
X1296000Y749000D02*
D03*
X1286000D02*
D03*
X1276000D02*
D03*
X1266000D02*
D03*
X1256000D02*
D03*
X1246000D02*
D03*
X1236000D02*
D03*
X1226000D02*
D03*
X1216000D02*
D03*
X1206000D02*
D03*
X1196000D02*
D03*
X1176000D02*
D03*
X1166000D02*
D03*
X1156000D02*
D03*
X1146000D02*
D03*
X1136000D02*
D03*
X1126000D02*
D03*
X1116000D02*
D03*
X1106000D02*
D03*
X1096000D02*
D03*
X1086000D02*
D03*
X1076000D02*
D03*
X1066000D02*
D03*
X1306000Y739000D02*
D03*
X1296000D02*
D03*
X1276000D02*
D03*
X1256000D02*
D03*
X1236000D02*
D03*
X1216000D02*
D03*
X1176000D02*
D03*
X1156000D02*
D03*
X1136000D02*
D03*
X1116000D02*
D03*
X1096000D02*
D03*
X1076000D02*
D03*
X1066000D02*
D03*
X1056000D02*
D03*
X1306000Y729000D02*
D03*
X1296000D02*
D03*
X1286000D02*
D03*
X1276000D02*
D03*
X1266000D02*
D03*
X1256000D02*
D03*
X1246000D02*
D03*
X1236000D02*
D03*
X1226000D02*
D03*
X1216000D02*
D03*
X1206000D02*
D03*
X1176000D02*
D03*
X1166000D02*
D03*
X1156000D02*
D03*
X1146000D02*
D03*
X1136000D02*
D03*
X1126000D02*
D03*
X1116000D02*
D03*
X1106000D02*
D03*
X1096000D02*
D03*
X1086000D02*
D03*
X1076000D02*
D03*
X1066000D02*
D03*
X1056000D02*
D03*
X1306000Y719000D02*
D03*
X1296000D02*
D03*
X1286000D02*
D03*
X1276000D02*
D03*
X1256000D02*
D03*
X1216000D02*
D03*
X1206000D02*
D03*
X1176000D02*
D03*
X1166000D02*
D03*
X1156000D02*
D03*
X1136000D02*
D03*
X1116000D02*
D03*
X1096000D02*
D03*
X1086000D02*
D03*
X1076000D02*
D03*
X1066000D02*
D03*
X1056000D02*
D03*
X1306000Y709000D02*
D03*
X1286000D02*
D03*
X1276000D02*
D03*
X1266000D02*
D03*
X1256000D02*
D03*
X1246000D02*
D03*
X1236000D02*
D03*
X1226000D02*
D03*
X1216000D02*
D03*
X1206000D02*
D03*
X1196000D02*
D03*
X1176000D02*
D03*
X1146000D02*
D03*
X1136000D02*
D03*
X1126000D02*
D03*
X1116000D02*
D03*
X1106000D02*
D03*
X1086000D02*
D03*
X1066000D02*
D03*
X1056000D02*
D03*
X1306000Y699000D02*
D03*
X1296000D02*
D03*
X1286000D02*
D03*
X1266000D02*
D03*
X1246000D02*
D03*
X1236000D02*
D03*
X1216000D02*
D03*
X1196000D02*
D03*
X1176000D02*
D03*
X1156000D02*
D03*
X1146000D02*
D03*
X1126000D02*
D03*
X1116000D02*
D03*
X1096000D02*
D03*
X1086000D02*
D03*
X1076000D02*
D03*
X1056000D02*
D03*
X1306000Y689000D02*
D03*
X1286000D02*
D03*
X1276000D02*
D03*
X1256000D02*
D03*
X1246000D02*
D03*
X1226000D02*
D03*
X1216000D02*
D03*
X1206000D02*
D03*
X1196000D02*
D03*
X1186000D02*
D03*
X1156000D02*
D03*
X1146000D02*
D03*
X1136000D02*
D03*
X1126000D02*
D03*
X1116000D02*
D03*
X1106000D02*
D03*
X1096000D02*
D03*
X1086000D02*
D03*
X1076000D02*
D03*
X1066000D02*
D03*
X1056000D02*
D03*
X1306000Y679000D02*
D03*
X1296000D02*
D03*
X1286000D02*
D03*
X1276000D02*
D03*
X1266000D02*
D03*
X1256000D02*
D03*
X1236000D02*
D03*
X1226000D02*
D03*
X1216000D02*
D03*
X1206000D02*
D03*
X1196000D02*
D03*
X1176000D02*
D03*
X1156000D02*
D03*
X1146000D02*
D03*
X1126000D02*
D03*
X1116000D02*
D03*
X1096000D02*
D03*
X1086000D02*
D03*
X1076000D02*
D03*
X1056000D02*
D03*
X1306000Y669000D02*
D03*
X1286000D02*
D03*
X1266000D02*
D03*
X1256000D02*
D03*
X1246000D02*
D03*
X1236000D02*
D03*
X1226000D02*
D03*
X1206000D02*
D03*
X1196000D02*
D03*
X1186000D02*
D03*
X1176000D02*
D03*
X1166000D02*
D03*
X1146000D02*
D03*
X1126000D02*
D03*
X1106000D02*
D03*
X1096000D02*
D03*
X1086000D02*
D03*
X1076000D02*
D03*
X1066000D02*
D03*
X1056000D02*
D03*
X1306000Y659000D02*
D03*
X1296000D02*
D03*
X1286000D02*
D03*
X1276000D02*
D03*
X1266000D02*
D03*
X1256000D02*
D03*
X1236000D02*
D03*
X1226000D02*
D03*
X1216000D02*
D03*
X1206000D02*
D03*
X1196000D02*
D03*
X1186000D02*
D03*
X1176000D02*
D03*
X1156000D02*
D03*
X1146000D02*
D03*
X1136000D02*
D03*
X1126000D02*
D03*
X1116000D02*
D03*
X1106000D02*
D03*
X1096000D02*
D03*
X1076000D02*
D03*
X1056000D02*
D03*
X1306000Y649000D02*
D03*
X1286000D02*
D03*
X1276000D02*
D03*
X1246000D02*
D03*
X1236000D02*
D03*
X1226000D02*
D03*
X1216000D02*
D03*
X1196000D02*
D03*
X1176000D02*
D03*
X1156000D02*
D03*
X1136000D02*
D03*
X1126000D02*
D03*
X1116000D02*
D03*
X1106000D02*
D03*
X1096000D02*
D03*
X1086000D02*
D03*
X1076000D02*
D03*
X1066000D02*
D03*
X1056000D02*
D03*
X1306000Y639000D02*
D03*
X1296000D02*
D03*
X1286000D02*
D03*
X1276000D02*
D03*
X1266000D02*
D03*
X1256000D02*
D03*
X1246000D02*
D03*
X1226000D02*
D03*
X1216000D02*
D03*
X1206000D02*
D03*
X1186000D02*
D03*
X1166000D02*
D03*
X1146000D02*
D03*
X1136000D02*
D03*
X1126000D02*
D03*
X1106000D02*
D03*
X1086000D02*
D03*
X1076000D02*
D03*
X1056000D02*
D03*
X1306000Y629000D02*
D03*
X1286000D02*
D03*
X1276000D02*
D03*
X1256000D02*
D03*
X1246000D02*
D03*
X1236000D02*
D03*
X1226000D02*
D03*
X1196000D02*
D03*
X1176000D02*
D03*
X1156000D02*
D03*
X1146000D02*
D03*
X1136000D02*
D03*
X1116000D02*
D03*
X1106000D02*
D03*
X1096000D02*
D03*
X1086000D02*
D03*
X1076000D02*
D03*
X1066000D02*
D03*
X1056000D02*
D03*
X1306000Y619000D02*
D03*
X1296000D02*
D03*
X1286000D02*
D03*
X1276000D02*
D03*
X1266000D02*
D03*
X1256000D02*
D03*
X1246000D02*
D03*
X1236000D02*
D03*
X1226000D02*
D03*
X1216000D02*
D03*
X1206000D02*
D03*
X1186000D02*
D03*
X1166000D02*
D03*
X1136000D02*
D03*
X1126000D02*
D03*
X1116000D02*
D03*
X1106000D02*
D03*
X1086000D02*
D03*
X1076000D02*
D03*
X1056000D02*
D03*
X1306000Y609000D02*
D03*
X1286000D02*
D03*
X1276000D02*
D03*
X1256000D02*
D03*
X1236000D02*
D03*
X1226000D02*
D03*
X1216000D02*
D03*
X1196000D02*
D03*
X1176000D02*
D03*
X1156000D02*
D03*
X1146000D02*
D03*
X1136000D02*
D03*
X1126000D02*
D03*
X1106000D02*
D03*
X1096000D02*
D03*
X1086000D02*
D03*
X1076000D02*
D03*
X1066000D02*
D03*
X1056000D02*
D03*
X1306000Y599000D02*
D03*
X1296000D02*
D03*
X1286000D02*
D03*
X1276000D02*
D03*
X1266000D02*
D03*
X1256000D02*
D03*
X1236000D02*
D03*
X1226000D02*
D03*
X1206000D02*
D03*
X1186000D02*
D03*
X1166000D02*
D03*
X1146000D02*
D03*
X1136000D02*
D03*
X1116000D02*
D03*
X1106000D02*
D03*
X1086000D02*
D03*
X1076000D02*
D03*
X1056000D02*
D03*
X1306000Y589000D02*
D03*
X1286000D02*
D03*
X1266000D02*
D03*
X1246000D02*
D03*
X1236000D02*
D03*
X1226000D02*
D03*
X1216000D02*
D03*
X1206000D02*
D03*
X1196000D02*
D03*
X1186000D02*
D03*
X1166000D02*
D03*
X1156000D02*
D03*
X1146000D02*
D03*
X1136000D02*
D03*
X1126000D02*
D03*
X1106000D02*
D03*
X1096000D02*
D03*
X1086000D02*
D03*
X1076000D02*
D03*
X1066000D02*
D03*
X1056000D02*
D03*
X1306000Y579000D02*
D03*
X1296000D02*
D03*
X1286000D02*
D03*
X1276000D02*
D03*
X1266000D02*
D03*
X1256000D02*
D03*
X1246000D02*
D03*
X1236000D02*
D03*
X1216000D02*
D03*
X1206000D02*
D03*
X1196000D02*
D03*
X1186000D02*
D03*
X1176000D02*
D03*
X1166000D02*
D03*
X1156000D02*
D03*
X1146000D02*
D03*
X1126000D02*
D03*
X1116000D02*
D03*
X1106000D02*
D03*
X1096000D02*
D03*
X1076000D02*
D03*
X1056000D02*
D03*
X1306000Y569000D02*
D03*
X1286000D02*
D03*
X1266000D02*
D03*
X1256000D02*
D03*
X1246000D02*
D03*
X1236000D02*
D03*
X1226000D02*
D03*
X1216000D02*
D03*
X1206000D02*
D03*
X1186000D02*
D03*
X1176000D02*
D03*
X1166000D02*
D03*
X1156000D02*
D03*
X1146000D02*
D03*
X1126000D02*
D03*
X1116000D02*
D03*
X1106000D02*
D03*
X1096000D02*
D03*
X1086000D02*
D03*
X1076000D02*
D03*
X1066000D02*
D03*
X1056000D02*
D03*
X1306000Y559000D02*
D03*
X1296000D02*
D03*
X1286000D02*
D03*
X1276000D02*
D03*
X1266000D02*
D03*
X1256000D02*
D03*
X1236000D02*
D03*
X1226000D02*
D03*
X1216000D02*
D03*
X1206000D02*
D03*
X1196000D02*
D03*
X1186000D02*
D03*
X1176000D02*
D03*
X1166000D02*
D03*
X1156000D02*
D03*
X1146000D02*
D03*
X1136000D02*
D03*
X1126000D02*
D03*
X1116000D02*
D03*
X1106000D02*
D03*
X1086000D02*
D03*
X1076000D02*
D03*
X1056000D02*
D03*
X1306000Y549000D02*
D03*
X1286000D02*
D03*
X1276000D02*
D03*
X1266000D02*
D03*
X1246000D02*
D03*
X1236000D02*
D03*
X1226000D02*
D03*
X1206000D02*
D03*
X1196000D02*
D03*
X1186000D02*
D03*
X1176000D02*
D03*
X1166000D02*
D03*
X1156000D02*
D03*
X1146000D02*
D03*
X1136000D02*
D03*
X1126000D02*
D03*
X1116000D02*
D03*
X1096000D02*
D03*
X1086000D02*
D03*
X1076000D02*
D03*
X1066000D02*
D03*
X1056000D02*
D03*
X1306000Y539000D02*
D03*
X1296000D02*
D03*
X1286000D02*
D03*
X1276000D02*
D03*
X1266000D02*
D03*
X1256000D02*
D03*
X1246000D02*
D03*
X1236000D02*
D03*
X1226000D02*
D03*
X1216000D02*
D03*
X1196000D02*
D03*
X1186000D02*
D03*
X1176000D02*
D03*
X1146000D02*
D03*
X1136000D02*
D03*
X1126000D02*
D03*
X1116000D02*
D03*
X1106000D02*
D03*
X1096000D02*
D03*
X1086000D02*
D03*
X1076000D02*
D03*
X1056000D02*
D03*
X1306000Y529000D02*
D03*
X1296000D02*
D03*
X1286000D02*
D03*
X1276000D02*
D03*
X1266000D02*
D03*
X1256000D02*
D03*
X1236000D02*
D03*
X1226000D02*
D03*
X1216000D02*
D03*
X1206000D02*
D03*
X1196000D02*
D03*
X1186000D02*
D03*
X1176000D02*
D03*
X1166000D02*
D03*
X1156000D02*
D03*
X1146000D02*
D03*
X1136000D02*
D03*
X1116000D02*
D03*
X1106000D02*
D03*
X1096000D02*
D03*
X1076000D02*
D03*
X1066000D02*
D03*
X1056000D02*
D03*
X1306000Y519000D02*
D03*
X1296000D02*
D03*
X1286000D02*
D03*
X1276000D02*
D03*
X1266000D02*
D03*
X1256000D02*
D03*
X1246000D02*
D03*
X1236000D02*
D03*
X1226000D02*
D03*
X1216000D02*
D03*
X1206000D02*
D03*
X1196000D02*
D03*
X1186000D02*
D03*
X1176000D02*
D03*
X1166000D02*
D03*
X1156000D02*
D03*
X1146000D02*
D03*
X1136000D02*
D03*
X1126000D02*
D03*
X1116000D02*
D03*
X1106000D02*
D03*
X1096000D02*
D03*
X1086000D02*
D03*
X1076000D02*
D03*
X1056000D02*
D03*
X1306000Y509000D02*
D03*
X1296000D02*
D03*
X1286000D02*
D03*
X1276000D02*
D03*
X1256000D02*
D03*
X1246000D02*
D03*
X1236000D02*
D03*
X1216000D02*
D03*
X1206000D02*
D03*
X1196000D02*
D03*
X1176000D02*
D03*
X1166000D02*
D03*
X1156000D02*
D03*
X1136000D02*
D03*
X1126000D02*
D03*
X1116000D02*
D03*
X1096000D02*
D03*
X1086000D02*
D03*
X1076000D02*
D03*
X1066000D02*
D03*
X1056000D02*
D03*
X1296000Y499000D02*
D03*
X1246000D02*
D03*
X1256000D02*
D03*
X1266000D02*
D03*
X1286000D02*
D03*
X1276000D02*
D03*
X1236000D02*
D03*
X1216000D02*
D03*
X1226000D02*
D03*
X1206000D02*
D03*
X1196000D02*
D03*
X1186000D02*
D03*
X1176000D02*
D03*
X1116000D02*
D03*
X1156000D02*
D03*
X1166000D02*
D03*
X1146000D02*
D03*
X1136000D02*
D03*
X1126000D02*
D03*
X1106000D02*
D03*
X1096000D02*
D03*
X1076000D02*
D03*
X1086000D02*
D03*
X1066000D02*
D03*
D144*
X2079625Y344170D02*
D03*
Y369570D02*
D03*
X2389201Y515760D02*
D03*
Y503060D02*
D03*
Y490360D02*
D03*
X2438731D02*
D03*
Y503060D02*
D03*
Y515760D02*
D03*
Y528460D02*
D03*
X2079625Y356870D02*
D03*
X2141855Y369570D02*
D03*
D145*
X2018030Y321564D02*
D03*
X883920Y773684D02*
D03*
X2018030Y280416D02*
D03*
X883920Y840994D02*
D03*
Y732536D02*
D03*
Y799846D02*
D03*
X2725420Y549656D02*
D03*
Y590804D02*
D03*
D146*
X2083740Y305990D02*
D03*
Y238680D02*
D03*
Y267890D02*
D03*
Y200580D02*
D03*
X2137740D02*
D03*
Y213280D02*
D03*
Y225980D02*
D03*
Y238680D02*
D03*
X2083740Y213280D02*
D03*
Y225980D02*
D03*
X2137740Y267890D02*
D03*
Y280590D02*
D03*
Y293290D02*
D03*
Y305990D02*
D03*
X2083740Y280590D02*
D03*
Y293290D02*
D03*
D147*
X1720596Y477520D02*
D03*
X1779524D02*
D03*
X1374140Y623570D02*
D03*
X1433068D02*
D03*
X741426Y651510D02*
D03*
X800354D02*
D03*
X2639314Y276860D02*
D03*
X2580386D02*
D03*
X2639314Y441960D02*
D03*
X2580386D02*
D03*
D148*
X1461135Y345440D02*
D03*
X1274255Y335850D02*
D03*
X1262825D02*
D03*
X925195Y615950D02*
D03*
X906145Y626110D02*
D03*
Y615950D02*
D03*
X925195Y605790D02*
D03*
X906145D02*
D03*
X662305Y297180D02*
D03*
X509905Y287020D02*
D03*
X588645Y278130D02*
D03*
X478155Y287020D02*
D03*
X1559295Y914400D02*
D03*
X1527175Y635000D02*
D03*
X1348105Y637540D02*
D03*
X1571625Y184185D02*
D03*
X1848485Y73660D02*
D03*
X1675765D02*
D03*
X1452245Y345440D02*
D03*
X1293305Y335850D02*
D03*
X1283145D02*
D03*
X1253935D02*
D03*
X1462405Y205775D02*
D03*
X1287145Y234244D02*
D03*
X1256475Y234250D02*
D03*
X1158875Y219710D02*
D03*
X1398935Y87825D02*
D03*
Y97985D02*
D03*
X1358295Y103065D02*
D03*
X1162685Y173990D02*
D03*
X1109345Y200660D02*
D03*
X897255Y626110D02*
D03*
X866775D02*
D03*
X669925Y911860D02*
D03*
X976630Y615950D02*
D03*
Y605790D02*
D03*
X956310Y615950D02*
D03*
Y605790D02*
D03*
X916305Y615950D02*
D03*
Y605790D02*
D03*
X897255Y615950D02*
D03*
Y605790D02*
D03*
X962025Y491490D02*
D03*
Y481330D02*
D03*
X935355Y491490D02*
D03*
Y481330D02*
D03*
X901065Y491490D02*
D03*
Y481330D02*
D03*
X866775Y605790D02*
D03*
Y615950D02*
D03*
X878205Y491490D02*
D03*
Y481330D02*
D03*
X644525Y509270D02*
D03*
X410845Y831850D02*
D03*
Y821690D02*
D03*
X266065Y805180D02*
D03*
Y795020D02*
D03*
X259715Y819150D02*
D03*
X210185Y758190D02*
D03*
Y748030D02*
D03*
X114935Y758190D02*
D03*
Y748030D02*
D03*
X360045Y680720D02*
D03*
Y670560D02*
D03*
X523240Y558800D02*
D03*
X306705Y680720D02*
D03*
Y670560D02*
D03*
X266065D02*
D03*
Y680720D02*
D03*
Y656590D02*
D03*
X980573Y236487D02*
D03*
X878205Y471170D02*
D03*
X939165Y179070D02*
D03*
Y160020D02*
D03*
X666115Y431800D02*
D03*
X432435Y339090D02*
D03*
X370205Y420370D02*
D03*
X307975Y379730D02*
D03*
X357505Y369570D02*
D03*
Y359410D02*
D03*
X307975Y369570D02*
D03*
Y359410D02*
D03*
Y349250D02*
D03*
X653415Y297180D02*
D03*
X431165Y307340D02*
D03*
X597535Y278130D02*
D03*
X501015Y287020D02*
D03*
X469265D02*
D03*
X357505Y254000D02*
D03*
Y243840D02*
D03*
X247015Y307340D02*
D03*
X191135Y280670D02*
D03*
X307975Y254000D02*
D03*
Y243840D02*
D03*
Y223520D02*
D03*
Y233680D02*
D03*
X678815Y911860D02*
D03*
X1550405Y914400D02*
D03*
X379095Y420370D02*
D03*
X1278255Y234244D02*
D03*
X1536065Y635000D02*
D03*
X1356995Y637540D02*
D03*
X1471295Y205775D02*
D03*
X268605Y819150D02*
D03*
X274955Y656590D02*
D03*
X1149985Y219710D02*
D03*
X948055Y160020D02*
D03*
X1153795Y173990D02*
D03*
X1118235Y200660D02*
D03*
X948055Y179070D02*
D03*
X926465Y491490D02*
D03*
Y481330D02*
D03*
X909955Y491490D02*
D03*
Y481330D02*
D03*
X953135Y491490D02*
D03*
Y481330D02*
D03*
X887095Y491490D02*
D03*
Y481330D02*
D03*
Y471170D02*
D03*
X947420Y605790D02*
D03*
X967740D02*
D03*
Y615950D02*
D03*
X947420D02*
D03*
X875665Y626110D02*
D03*
Y615950D02*
D03*
Y605790D02*
D03*
X1857375Y73660D02*
D03*
X1684655D02*
D03*
X423545Y339090D02*
D03*
X422275Y307340D02*
D03*
X348615Y369570D02*
D03*
Y359410D02*
D03*
Y254000D02*
D03*
Y243840D02*
D03*
X299085Y379730D02*
D03*
Y223520D02*
D03*
Y233680D02*
D03*
Y243840D02*
D03*
Y254000D02*
D03*
Y369570D02*
D03*
Y359410D02*
D03*
Y349250D02*
D03*
X255905Y307340D02*
D03*
X182245Y280670D02*
D03*
X351155Y670560D02*
D03*
Y680720D02*
D03*
X297815D02*
D03*
Y670560D02*
D03*
X274955Y680720D02*
D03*
Y670560D02*
D03*
Y805180D02*
D03*
Y795020D02*
D03*
X666115Y421640D02*
D03*
X657225D02*
D03*
Y431800D02*
D03*
X514350Y558800D02*
D03*
X653415Y509270D02*
D03*
X201295Y758190D02*
D03*
Y748030D02*
D03*
X123825Y758190D02*
D03*
Y748030D02*
D03*
X1265365Y234250D02*
D03*
X1302195Y335850D02*
D03*
X401955Y821690D02*
D03*
Y831850D02*
D03*
X399415Y975360D02*
D03*
X390525D02*
D03*
X399415Y965200D02*
D03*
X390525D02*
D03*
X597535Y191770D02*
D03*
X588645D02*
D03*
X502285Y182880D02*
D03*
X511175D02*
D03*
X432435Y44450D02*
D03*
X423545D02*
D03*
X1367185Y103065D02*
D03*
X1407825Y97985D02*
D03*
Y87825D02*
D03*
X1562735Y184185D02*
D03*
X989463Y236487D02*
D03*
D149*
X1270890Y305050D02*
D03*
X1262890D02*
D03*
X1302890Y273050D02*
D03*
X1294890Y297050D02*
D03*
X1254890Y273050D02*
D03*
X1286890Y297050D02*
D03*
Y305050D02*
D03*
X1254890D02*
D03*
X1302890Y265050D02*
D03*
X1286890D02*
D03*
X1246890Y273050D02*
D03*
Y265050D02*
D03*
X1302890Y305050D02*
D03*
Y297050D02*
D03*
Y289050D02*
D03*
Y281050D02*
D03*
X1294890Y305050D02*
D03*
Y289050D02*
D03*
Y281050D02*
D03*
Y273050D02*
D03*
Y265050D02*
D03*
X1286890Y289050D02*
D03*
Y281050D02*
D03*
Y273050D02*
D03*
X1278890Y305050D02*
D03*
Y297050D02*
D03*
Y289050D02*
D03*
Y281050D02*
D03*
Y273050D02*
D03*
Y265050D02*
D03*
X1270890Y297050D02*
D03*
Y289050D02*
D03*
Y281050D02*
D03*
Y273050D02*
D03*
Y265050D02*
D03*
X1262890Y297050D02*
D03*
Y289050D02*
D03*
Y281050D02*
D03*
Y273050D02*
D03*
Y265050D02*
D03*
X1254890Y297050D02*
D03*
Y289050D02*
D03*
Y281050D02*
D03*
Y265050D02*
D03*
X1246890Y305050D02*
D03*
Y297050D02*
D03*
Y289050D02*
D03*
Y281050D02*
D03*
D150*
X928991Y1019810D02*
D03*
Y994410D02*
D03*
X941691Y969010D02*
D03*
X928991D02*
D03*
X941691Y1007110D02*
D03*
X928991D02*
D03*
Y981710D02*
D03*
X941691D02*
D03*
Y994410D02*
D03*
Y1019810D02*
D03*
D151*
X814070Y916940D02*
D03*
X678180Y300990D02*
D03*
X814070Y937260D02*
D03*
X678180Y321310D02*
D03*
D152*
X752602Y738124D02*
D03*
X762000Y712216D02*
D03*
X752602D02*
D03*
X771398D02*
D03*
Y738124D02*
D03*
D153*
X908250Y593390D02*
D03*
X923250D02*
D03*
X898250Y503890D02*
D03*
X304920Y693120D02*
D03*
X349920D02*
D03*
X344920D02*
D03*
X339920D02*
D03*
X334920D02*
D03*
X329920D02*
D03*
X324920D02*
D03*
X319920D02*
D03*
X314920D02*
D03*
X309920D02*
D03*
X299920D02*
D03*
X294920D02*
D03*
X289920D02*
D03*
X284920D02*
D03*
X279920D02*
D03*
X274920D02*
D03*
Y782620D02*
D03*
X279920D02*
D03*
X284920D02*
D03*
X289920D02*
D03*
X294920D02*
D03*
X299920D02*
D03*
X304920D02*
D03*
X309920D02*
D03*
X314920D02*
D03*
X319920D02*
D03*
X324920D02*
D03*
X329920D02*
D03*
X334920D02*
D03*
X339920D02*
D03*
X344920D02*
D03*
X349920D02*
D03*
X958250Y503890D02*
D03*
X953250D02*
D03*
X948250D02*
D03*
X943250D02*
D03*
X938250D02*
D03*
X933250D02*
D03*
X928250D02*
D03*
X923250D02*
D03*
X918250D02*
D03*
X913250D02*
D03*
X908250D02*
D03*
X903250D02*
D03*
X893250D02*
D03*
X888250D02*
D03*
X883250D02*
D03*
Y593390D02*
D03*
X888250D02*
D03*
X893250D02*
D03*
X898250D02*
D03*
X903250D02*
D03*
X913250D02*
D03*
X918250D02*
D03*
X928250D02*
D03*
X933250D02*
D03*
X938250D02*
D03*
X943250D02*
D03*
X948250D02*
D03*
X953250D02*
D03*
X958250D02*
D03*
D154*
X876000Y581140D02*
D03*
Y566140D02*
D03*
Y541140D02*
D03*
Y526140D02*
D03*
Y511140D02*
D03*
X267670Y770370D02*
D03*
X357170Y750370D02*
D03*
X267670Y755370D02*
D03*
Y740370D02*
D03*
Y725370D02*
D03*
Y775370D02*
D03*
X357170Y700370D02*
D03*
X267670Y720370D02*
D03*
Y700370D02*
D03*
Y705370D02*
D03*
X357170Y775370D02*
D03*
Y770370D02*
D03*
Y765370D02*
D03*
Y760370D02*
D03*
Y755370D02*
D03*
Y745370D02*
D03*
Y740370D02*
D03*
Y735370D02*
D03*
Y730370D02*
D03*
Y725370D02*
D03*
Y720370D02*
D03*
Y715370D02*
D03*
Y710370D02*
D03*
Y705370D02*
D03*
X267670Y710370D02*
D03*
Y715370D02*
D03*
Y730370D02*
D03*
Y735370D02*
D03*
Y745370D02*
D03*
Y750370D02*
D03*
Y760370D02*
D03*
Y765370D02*
D03*
X965500Y586140D02*
D03*
Y581140D02*
D03*
Y576140D02*
D03*
Y571140D02*
D03*
Y566140D02*
D03*
Y561140D02*
D03*
Y556140D02*
D03*
Y551140D02*
D03*
Y546140D02*
D03*
Y541140D02*
D03*
Y536140D02*
D03*
Y531140D02*
D03*
Y526140D02*
D03*
Y521140D02*
D03*
Y516140D02*
D03*
Y511140D02*
D03*
X876000Y516140D02*
D03*
Y521140D02*
D03*
Y531140D02*
D03*
Y536140D02*
D03*
Y546140D02*
D03*
Y551140D02*
D03*
Y556140D02*
D03*
Y561140D02*
D03*
Y571140D02*
D03*
Y576140D02*
D03*
Y586140D02*
D03*
D155*
X774860Y358591D02*
D03*
X716860Y358591D02*
D03*
X774860Y353591D02*
D03*
Y328591D02*
D03*
Y278591D02*
D03*
X716860Y343591D02*
D03*
Y328591D02*
D03*
Y278591D02*
D03*
Y323591D02*
D03*
Y363591D02*
D03*
Y353591D02*
D03*
Y348591D02*
D03*
Y338591D02*
D03*
Y333591D02*
D03*
Y318591D02*
D03*
Y313591D02*
D03*
Y308591D02*
D03*
Y303591D02*
D03*
Y298591D02*
D03*
Y293591D02*
D03*
Y288591D02*
D03*
Y283591D02*
D03*
X774860Y283591D02*
D03*
Y288591D02*
D03*
Y293591D02*
D03*
Y298591D02*
D03*
Y303591D02*
D03*
Y308591D02*
D03*
Y313591D02*
D03*
Y318591D02*
D03*
Y323591D02*
D03*
Y333591D02*
D03*
Y338591D02*
D03*
Y343591D02*
D03*
Y348591D02*
D03*
Y363591D02*
D03*
Y368591D02*
D03*
D156*
X631825Y261950D02*
D03*
X593725D02*
D03*
X638175D02*
D03*
X600075D02*
D03*
X593725Y207950D02*
D03*
X600075D02*
D03*
X606425D02*
D03*
X612775D02*
D03*
X619125D02*
D03*
X625475D02*
D03*
X631825D02*
D03*
X638175D02*
D03*
X606425Y261950D02*
D03*
X612775D02*
D03*
X619125D02*
D03*
X625475D02*
D03*
D157*
X510130Y272450D02*
D03*
X477630D02*
D03*
X471130D02*
D03*
X503630D02*
D03*
X490630Y272450D02*
D03*
Y197450D02*
D03*
X471130Y197450D02*
D03*
X477630D02*
D03*
X484130Y197450D02*
D03*
X497130Y272450D02*
D03*
X516630D02*
D03*
X523130D02*
D03*
X484130Y272450D02*
D03*
X497130Y197450D02*
D03*
X503630D02*
D03*
X510130D02*
D03*
X516630D02*
D03*
X523130D02*
D03*
X529630D02*
D03*
D158*
X717550Y973850D02*
D03*
X717550Y968850D02*
D03*
X766550Y943850D02*
D03*
X717550Y978850D02*
D03*
X766550Y963850D02*
D03*
X717550Y948850D02*
D03*
X717550Y953850D02*
D03*
Y958850D02*
D03*
Y963850D02*
D03*
X766550Y968850D02*
D03*
Y978850D02*
D03*
Y973850D02*
D03*
X766550Y948850D02*
D03*
X766550Y958850D02*
D03*
X717550Y943850D02*
D03*
X766550Y953850D02*
D03*
D159*
X724550Y985850D02*
D03*
X734550Y985850D02*
D03*
X744550D02*
D03*
X739550D02*
D03*
X739550Y936850D02*
D03*
X734550D02*
D03*
X759550Y985850D02*
D03*
X754550D02*
D03*
X749550D02*
D03*
X729550Y985850D02*
D03*
X744550Y936850D02*
D03*
X724550Y936850D02*
D03*
X759550Y936850D02*
D03*
X754550D02*
D03*
X749550D02*
D03*
X729550Y936850D02*
D03*
D160*
X1982100Y887730D02*
D03*
X1669680Y379730D02*
D03*
X1578240Y290830D02*
D03*
X2038720Y26670D02*
D03*
X758836Y433070D02*
D03*
X758328Y402590D02*
D03*
X1550300Y723900D02*
D03*
X1566280Y450850D02*
D03*
X81033Y933020D02*
D03*
X205475Y98044D02*
D03*
Y58703D02*
D03*
X2702175Y120062D02*
D03*
D161*
X1514507Y954437D02*
D03*
X1507058Y961886D02*
D03*
X1521691Y947253D02*
D03*
X1527977Y953539D02*
D03*
X1520793Y960723D02*
D03*
X1513344Y968172D02*
D03*
D162*
X1639570Y660400D02*
D03*
D163*
X1566520D02*
D03*
Y698500D02*
D03*
Y685800D02*
D03*
Y673100D02*
D03*
Y647700D02*
D03*
Y635000D02*
D03*
Y622300D02*
D03*
D164*
X1567180Y544830D02*
D03*
X1771650Y209755D02*
D03*
X1483180Y544830D02*
D03*
X1687650Y209755D02*
D03*
D165*
X1626870Y302973D02*
D03*
X1477010Y292643D02*
D03*
X745490Y484632D02*
D03*
X567307Y552300D02*
D03*
Y392534D02*
D03*
Y457051D02*
D03*
Y487784D02*
D03*
X745490Y549148D02*
D03*
X1626870Y238457D02*
D03*
X1477010Y228127D02*
D03*
D166*
X1939290Y193410D02*
D03*
X1901190D02*
D03*
X1863090D02*
D03*
X1824990D02*
D03*
X666750Y828940D02*
D03*
X2801620Y540650D02*
D03*
X2846757Y541020D02*
D03*
X2514160Y994410D02*
D03*
D167*
X1524300Y183045D02*
D03*
D168*
X1517800Y159045D02*
D03*
X676175Y495784D02*
D03*
X682675D02*
D03*
Y447784D02*
D03*
X676175D02*
D03*
X663175D02*
D03*
X656675D02*
D03*
X669675D02*
D03*
Y495784D02*
D03*
X663175D02*
D03*
X656675D02*
D03*
X1511300Y207045D02*
D03*
Y159045D02*
D03*
X1524300D02*
D03*
X1530800D02*
D03*
X1537300D02*
D03*
Y207045D02*
D03*
X1530800D02*
D03*
X1524300D02*
D03*
X1517800D02*
D03*
D169*
X1631258Y131388D02*
D03*
X1602162Y102292D02*
D03*
D170*
X1076000Y278000D02*
D03*
Y270000D02*
D03*
X1068000Y254000D02*
D03*
Y246000D02*
D03*
X1076000Y238000D02*
D03*
X1068000Y230000D02*
D03*
X1076000D02*
D03*
X1068000Y214000D02*
D03*
X1076000Y190000D02*
D03*
Y174000D02*
D03*
Y158000D02*
D03*
X1028000Y270000D02*
D03*
X1012000D02*
D03*
Y254000D02*
D03*
Y246000D02*
D03*
X1020000D02*
D03*
X1012000Y230000D02*
D03*
X1020000Y214000D02*
D03*
X1012000Y190000D02*
D03*
Y174000D02*
D03*
Y158000D02*
D03*
X1020000Y278000D02*
D03*
X1028000D02*
D03*
X1060000D02*
D03*
X1068000D02*
D03*
X1020000Y270000D02*
D03*
X1060000D02*
D03*
X1068000D02*
D03*
X1012000Y262000D02*
D03*
X1020000D02*
D03*
X1028000D02*
D03*
X1060000D02*
D03*
X1068000D02*
D03*
X1076000D02*
D03*
X1020000Y254000D02*
D03*
X1028000D02*
D03*
X1060000D02*
D03*
X1076000D02*
D03*
X1028000Y246000D02*
D03*
X1060000D02*
D03*
X1076000D02*
D03*
X1012000Y238000D02*
D03*
X1020000D02*
D03*
X1028000D02*
D03*
X1060000D02*
D03*
X1068000D02*
D03*
X1020000Y230000D02*
D03*
X1028000D02*
D03*
X1060000D02*
D03*
X1012000Y222000D02*
D03*
X1020000D02*
D03*
X1028000D02*
D03*
X1060000D02*
D03*
X1068000D02*
D03*
X1076000D02*
D03*
X1012000Y214000D02*
D03*
X1028000D02*
D03*
X1060000D02*
D03*
X1076000D02*
D03*
X1012000Y206000D02*
D03*
X1020000D02*
D03*
X1028000D02*
D03*
X1060000D02*
D03*
X1068000D02*
D03*
X1076000D02*
D03*
X1012000Y198000D02*
D03*
X1020000D02*
D03*
X1028000D02*
D03*
X1060000D02*
D03*
X1068000D02*
D03*
X1076000D02*
D03*
X1020000Y190000D02*
D03*
X1028000D02*
D03*
X1060000D02*
D03*
X1068000D02*
D03*
X1012000Y182000D02*
D03*
X1020000D02*
D03*
X1028000D02*
D03*
X1060000D02*
D03*
X1068000D02*
D03*
X1076000D02*
D03*
X1020000Y174000D02*
D03*
X1028000D02*
D03*
X1060000D02*
D03*
X1068000D02*
D03*
X1012000Y166000D02*
D03*
X1020000D02*
D03*
X1028000D02*
D03*
X1060000D02*
D03*
X1068000D02*
D03*
X1076000D02*
D03*
X1020000Y158000D02*
D03*
X1028000D02*
D03*
X1060000D02*
D03*
X1068000D02*
D03*
D171*
X742050Y961350D02*
D03*
D172*
X613410Y787770D02*
D03*
X1016000Y499480D02*
D03*
X340360Y208650D02*
D03*
X322580D02*
D03*
X392430Y406030D02*
D03*
Y391530D02*
D03*
X374650Y406030D02*
D03*
Y391530D02*
D03*
X1016000Y513980D02*
D03*
X407670Y239130D02*
D03*
Y253630D02*
D03*
X340360Y223150D02*
D03*
X322580D02*
D03*
X148590Y842380D02*
D03*
Y856880D02*
D03*
X613410Y802270D02*
D03*
Y877940D02*
D03*
Y892440D02*
D03*
X2717800Y369189D02*
D03*
Y354711D02*
D03*
D173*
X920750Y548640D02*
D03*
X312420Y737870D02*
D03*
D174*
X693674Y484785D02*
D03*
Y465285D02*
D03*
Y478285D02*
D03*
Y471785D02*
D03*
Y458785D02*
D03*
X645674Y478285D02*
D03*
Y471785D02*
D03*
Y465285D02*
D03*
Y484785D02*
D03*
Y458785D02*
D03*
D175*
X388620Y853440D02*
D03*
X312420D02*
D03*
X363220D02*
D03*
X375920D02*
D03*
X401320D02*
D03*
X350520D02*
D03*
X337820D02*
D03*
X325120D02*
D03*
X312420Y943990D02*
D03*
X325120D02*
D03*
X337820D02*
D03*
X350520D02*
D03*
X401320D02*
D03*
X388620D02*
D03*
X375920D02*
D03*
X363220D02*
D03*
D176*
X106680Y836620D02*
D03*
Y685490D02*
D03*
Y393082D02*
D03*
X106950Y252420D02*
D03*
X106680Y386080D02*
D03*
X106950Y245418D02*
D03*
X106680Y678488D02*
D03*
Y829618D02*
D03*
D177*
X669675Y471785D02*
D03*
D178*
X339090Y302260D02*
D03*
D179*
X529630Y272450D02*
D03*
D180*
X331590Y267510D02*
D03*
X311590Y337010D02*
D03*
X316590D02*
D03*
X321590Y337010D02*
D03*
X326590D02*
D03*
X331590Y337010D02*
D03*
X336590D02*
D03*
X341590D02*
D03*
X346590D02*
D03*
X351590Y337010D02*
D03*
X356590Y337010D02*
D03*
X361590D02*
D03*
X366590D02*
D03*
Y267510D02*
D03*
X361590D02*
D03*
X356590D02*
D03*
X351590Y267510D02*
D03*
X346590Y267510D02*
D03*
X341590D02*
D03*
X336590D02*
D03*
X326590Y267510D02*
D03*
X321590D02*
D03*
X316590Y267510D02*
D03*
X311590D02*
D03*
D181*
X304340Y309760D02*
D03*
Y294760D02*
D03*
Y274760D02*
D03*
Y279760D02*
D03*
X304340Y284760D02*
D03*
Y289760D02*
D03*
X304340Y299760D02*
D03*
Y304760D02*
D03*
X304340Y314760D02*
D03*
X304340Y319760D02*
D03*
Y324760D02*
D03*
Y329760D02*
D03*
X373840D02*
D03*
Y324760D02*
D03*
Y319760D02*
D03*
X373840Y314760D02*
D03*
X373840Y309760D02*
D03*
Y304760D02*
D03*
Y299760D02*
D03*
Y294760D02*
D03*
X373840Y289760D02*
D03*
Y284760D02*
D03*
X373840Y279760D02*
D03*
Y274760D02*
D03*
D182*
X557530Y793995D02*
D03*
X582930D02*
D03*
X494030D02*
D03*
X519430D02*
D03*
X582930Y885435D02*
D03*
X570230D02*
D03*
X557530D02*
D03*
X544830D02*
D03*
X532130D02*
D03*
X519430D02*
D03*
X506730D02*
D03*
X494030D02*
D03*
X570230Y793995D02*
D03*
X544830D02*
D03*
X532130D02*
D03*
X506730D02*
D03*
D183*
X3030220Y628650D02*
D03*
D184*
X2987040D02*
D03*
D185*
X1563740Y290830D02*
D03*
X1655180Y379730D02*
D03*
X1535800Y723900D02*
D03*
X1580780Y450850D02*
D03*
X1967600Y887730D02*
D03*
X743828Y402590D02*
D03*
X744336Y433070D02*
D03*
X95534Y933020D02*
D03*
X219975Y98044D02*
D03*
Y58703D02*
D03*
X2053220Y26670D02*
D03*
X2687675Y120062D02*
D03*
D186*
X1507490Y345440D02*
D03*
D187*
X1012000Y278000D02*
D03*
D188*
X716860Y368591D02*
D03*
D189*
X1939290Y207910D02*
D03*
X1901190D02*
D03*
X1824990D02*
D03*
X1863090D02*
D03*
X666750Y814440D02*
D03*
X2801620Y526150D02*
D03*
X2846757Y526520D02*
D03*
X2514160Y979910D02*
D03*
D190*
X1957800Y46040D02*
D03*
X1890300Y86040D02*
D03*
X1957800D02*
D03*
X1890300Y46040D02*
D03*
X1785080D02*
D03*
X1717580Y86040D02*
D03*
X1785080D02*
D03*
X1717580Y46040D02*
D03*
X719360Y821370D02*
D03*
X786860Y781370D02*
D03*
X719360D02*
D03*
X786860Y821370D02*
D03*
D191*
X1784660Y905420D02*
D03*
X1718660D02*
D03*
X1695660D02*
D03*
D192*
X1790410Y952670D02*
D03*
D193*
X1789160Y1050170D02*
D03*
X1660160D02*
D03*
D194*
X1697660Y1021170D02*
D03*
D195*
X840840Y722840D02*
D03*
D196*
Y717340D02*
D03*
X853340D02*
D03*
Y722840D02*
D03*
D197*
X146460Y284050D02*
D03*
X152960D02*
D03*
X159460D02*
D03*
X165960D02*
D03*
X146460Y325550D02*
D03*
X152960D02*
D03*
X159460D02*
D03*
X165960D02*
D03*
D198*
X162560Y753110D02*
D03*
D199*
X150060Y773610D02*
D03*
X155060D02*
D03*
X160060D02*
D03*
X165060D02*
D03*
X170060D02*
D03*
X175060D02*
D03*
X175060Y732610D02*
D03*
X170060D02*
D03*
X165060D02*
D03*
X160060D02*
D03*
X155060D02*
D03*
X150060D02*
D03*
D200*
X183060Y765610D02*
D03*
Y760610D02*
D03*
Y755610D02*
D03*
Y750610D02*
D03*
Y745610D02*
D03*
Y740610D02*
D03*
X142060Y740610D02*
D03*
Y745610D02*
D03*
Y750610D02*
D03*
Y755610D02*
D03*
Y760610D02*
D03*
Y765610D02*
D03*
D201*
X2389201Y528460D02*
D03*
X2141855Y344170D02*
D03*
D202*
X2355378Y445464D02*
D03*
D203*
X2348878D02*
D03*
X2342378D02*
D03*
Y426264D02*
D03*
X2348878D02*
D03*
X2355378D02*
D03*
D204*
X226140Y929240D02*
D03*
X231140D02*
D03*
X236140D02*
D03*
Y942740D02*
D03*
X226140D02*
D03*
D205*
X202140Y951130D02*
D03*
D206*
X196640D02*
D03*
Y938630D02*
D03*
X202140D02*
D03*
D207*
X226822Y964184D02*
D03*
X221822D02*
D03*
X216822D02*
D03*
X211822D02*
D03*
X206822D02*
D03*
X201822D02*
D03*
X196822D02*
D03*
X191822D02*
D03*
X186822D02*
D03*
X181822D02*
D03*
X176822D02*
D03*
X171822D02*
D03*
D208*
X2693060Y76280D02*
D03*
X2712060D02*
D03*
X2702560Y96280D02*
D03*
D209*
X606030Y26590D02*
D03*
X611030D02*
D03*
X621030D02*
D03*
X626030D02*
D03*
X606030Y34290D02*
D03*
X611030D02*
D03*
X621030D02*
D03*
X626030D02*
D03*
D210*
X616030Y26590D02*
D03*
Y34290D02*
D03*
D211*
X2547460Y395630D02*
D03*
Y414630D02*
D03*
X2527460Y405130D02*
D03*
D212*
X2950210Y198120D02*
D03*
X2901950Y241300D02*
D03*
X2950210Y459810D02*
D03*
X2901950Y502990D02*
D03*
D213*
X2950210Y241300D02*
D03*
X2901950Y198120D02*
D03*
X2950210Y502990D02*
D03*
X2901950Y459810D02*
D03*
D214*
X2639000Y401660D02*
D03*
Y395160D02*
D03*
Y388660D02*
D03*
Y382160D02*
D03*
Y375660D02*
D03*
Y369160D02*
D03*
Y362660D02*
D03*
Y356160D02*
D03*
Y349660D02*
D03*
Y343160D02*
D03*
Y336660D02*
D03*
Y330160D02*
D03*
Y323660D02*
D03*
Y317160D02*
D03*
X2695000Y401660D02*
D03*
Y395160D02*
D03*
Y388660D02*
D03*
Y382160D02*
D03*
Y375660D02*
D03*
Y369160D02*
D03*
Y362660D02*
D03*
Y356160D02*
D03*
Y349660D02*
D03*
Y343160D02*
D03*
Y336660D02*
D03*
Y330160D02*
D03*
Y323660D02*
D03*
Y317160D02*
D03*
D215*
X1840230Y839216D02*
D03*
Y898144D02*
D03*
D216*
X2613152Y708660D02*
D03*
X2654808D02*
D03*
X2613152Y875030D02*
D03*
X2654808D02*
D03*
D217*
X2572660Y849940D02*
D03*
X2527660D02*
D03*
Y729940D02*
D03*
X2572660D02*
D03*
X2746650Y849940D02*
D03*
X2701650D02*
D03*
Y729940D02*
D03*
X2746650D02*
D03*
D218*
X3024915Y671830D02*
D03*
X2983767D02*
D03*
D219*
X1500300Y196045D02*
D03*
Y189545D02*
D03*
Y183045D02*
D03*
Y176545D02*
D03*
Y170045D02*
D03*
X1548300Y189545D02*
D03*
Y196045D02*
D03*
Y170045D02*
D03*
Y176545D02*
D03*
Y183045D02*
D03*
D220*
X42000Y935111D02*
D03*
Y125000D02*
D03*
X3068490Y125000D02*
D03*
D221*
X646500Y-41000D02*
D03*
X626500D02*
D03*
X616500D02*
D03*
X606500D02*
D03*
X596500D02*
D03*
X586500D02*
D03*
X556500D02*
D03*
X546500D02*
D03*
X536500D02*
D03*
X526500D02*
D03*
X516500D02*
D03*
X506500D02*
D03*
X496500D02*
D03*
X486500D02*
D03*
X476500D02*
D03*
X466500D02*
D03*
D222*
X636500Y-36000D02*
D03*
D223*
X456500Y-41000D02*
D03*
D224*
X981000Y824000D02*
D03*
X1381000Y424000D02*
D03*
X1194000Y68000D02*
D03*
X894000Y368000D02*
D03*
X2517000Y509410D02*
D03*
X2817000Y209410D02*
D03*
X60000Y1000000D02*
D03*
Y530000D02*
D03*
X1560000Y1000000D02*
D03*
Y60000D02*
D03*
X60000D02*
D03*
X3050000Y530000D02*
D03*
Y60000D02*
D03*
Y1000000D02*
D03*
D225*
X1977390Y580390D02*
D03*
Y326390D02*
D03*
Y631190D02*
D03*
Y529590D02*
D03*
Y478790D02*
D03*
Y427990D02*
D03*
Y377190D02*
D03*
Y300990D02*
D03*
Y351790D02*
D03*
Y605790D02*
D03*
Y554990D02*
D03*
Y402590D02*
D03*
Y453390D02*
D03*
Y504190D02*
D03*
Y656590D02*
D03*
X915670Y918210D02*
D03*
X561340Y326390D02*
D03*
X1314450Y862330D02*
D03*
X1339850D02*
D03*
X1314450Y895350D02*
D03*
X1339850D02*
D03*
X1196340Y928370D02*
D03*
X1314450Y974090D02*
D03*
X1339850D02*
D03*
X1314450Y1007110D02*
D03*
X1339850D02*
D03*
X1054100Y862330D02*
D03*
X1079500D02*
D03*
X1054100Y895350D02*
D03*
X1079500D02*
D03*
X1054100Y974090D02*
D03*
X1079500D02*
D03*
X1054100Y1007110D02*
D03*
X1079500D02*
D03*
X852170Y914400D02*
D03*
X2889250Y73660D02*
D03*
X2740660Y46990D02*
D03*
X2766060D02*
D03*
X2791460D02*
D03*
X1971040Y1003300D02*
D03*
X1945640D02*
D03*
X1920240D02*
D03*
D226*
X1633220Y402590D02*
D03*
X1921510Y709930D02*
D03*
X1622000Y1000000D02*
D03*
X1510030Y772160D02*
D03*
X1750060Y328965D02*
D03*
X1622000Y60000D02*
D03*
X1431290Y233715D02*
D03*
X34290Y753110D02*
D03*
X899160Y294860D02*
D03*
X551180Y365760D02*
D03*
X24130Y473710D02*
D03*
X70160Y125000D02*
D03*
X2985770Y323850D02*
D03*
X2777490Y504190D02*
D03*
X1525270Y474980D02*
D03*
X1456690Y728980D02*
D03*
X1339850Y923290D02*
D03*
Y1035050D02*
D03*
X1079500Y923290D02*
D03*
Y1035050D02*
D03*
X783590Y852170D02*
D03*
X59690Y290830D02*
D03*
Y430530D02*
D03*
X199390Y652780D02*
D03*
X430530Y396240D02*
D03*
X518160Y426720D02*
D03*
X627380Y401320D02*
D03*
X474440Y725424D02*
D03*
X127000Y840740D02*
D03*
Y678180D02*
D03*
X267847Y521335D02*
D03*
X459740Y877570D02*
D03*
X2593340Y519430D02*
D03*
X2179320Y364490D02*
D03*
X127000Y1023620D02*
D03*
X383000Y102112D02*
D03*
X247650Y118110D02*
D03*
Y38100D02*
D03*
X2985770Y274320D02*
D03*
Y212090D02*
D03*
Y426860D02*
D03*
Y376860D02*
D03*
X1921510Y913130D02*
D03*
X2515870Y895350D02*
D03*
Y684530D02*
D03*
X2705100Y955040D02*
D03*
X1477010Y148625D02*
D03*
X1530300Y270255D02*
D03*
X1417320Y59725D02*
D03*
X1348740Y78740D02*
D03*
X2705100Y1005840D02*
D03*
X2080260Y25400D02*
D03*
X2816860Y76200D02*
D03*
X2740660D02*
D03*
D227*
X601980Y914400D02*
D03*
X487680D02*
D03*
X579120D02*
D03*
X464820D02*
D03*
X568960Y962660D02*
D03*
X548640D02*
D03*
X528320Y962660D02*
D03*
X508000Y962660D02*
D03*
X558800Y980440D02*
D03*
X538480D02*
D03*
X518160D02*
D03*
D228*
X1894840Y1003300D02*
D03*
X941070Y918210D02*
D03*
X1365250Y862330D02*
D03*
Y895350D02*
D03*
X1170940Y928370D02*
D03*
X1365250Y974090D02*
D03*
Y1007110D02*
D03*
X1104900Y862330D02*
D03*
Y895350D02*
D03*
Y974090D02*
D03*
Y1007110D02*
D03*
X2914650Y73660D02*
D03*
X2816860Y46990D02*
D03*
D229*
X1896110Y735330D02*
D03*
Y773430D02*
D03*
X2104390Y463550D02*
D03*
X2180590Y971550D02*
D03*
X2104390D02*
D03*
X2142490Y463550D02*
D03*
X2180590D02*
D03*
X2218690D02*
D03*
X2256790D02*
D03*
X2404110Y811530D02*
D03*
Y735330D02*
D03*
X1896110Y811530D02*
D03*
Y849630D02*
D03*
Y887730D02*
D03*
D230*
X1977390Y275590D02*
D03*
X561340Y300990D02*
D03*
X852170Y889000D02*
D03*
D231*
X752750Y950650D02*
D03*
X752750Y972050D02*
D03*
X742050Y972050D02*
D03*
X752750Y961350D02*
D03*
X742050D02*
D03*
X731350Y972050D02*
D03*
Y961350D02*
D03*
X742050Y950650D02*
D03*
X731350D02*
D03*
D232*
X85400Y855400D02*
D03*
X34600D02*
D03*
Y804600D02*
D03*
X85400D02*
D03*
Y705400D02*
D03*
X34600D02*
D03*
X85400Y654600D02*
D03*
X34600D02*
D03*
Y405400D02*
D03*
X85400D02*
D03*
Y354600D02*
D03*
X34600D02*
D03*
X85400Y214600D02*
D03*
Y265400D02*
D03*
X34600D02*
D03*
Y214600D02*
D03*
X60000Y380000D02*
D03*
Y240000D02*
D03*
Y680000D02*
D03*
Y830000D02*
D03*
D233*
X2256790Y971550D02*
D03*
D234*
X497840Y980440D02*
D03*
D235*
X596900Y1005840D02*
D03*
X469900D02*
D03*
D236*
X2357110Y1008380D02*
D03*
D237*
X2404110D02*
D03*
X2451110D02*
D03*
X2785108Y980560D02*
D03*
Y933560D02*
D03*
D238*
X236572Y982284D02*
D03*
X162072D02*
D03*
X203322Y975284D02*
D03*
X211322D02*
D03*
X229822D02*
D03*
X168822D02*
D03*
X187322D02*
D03*
X195322D02*
D03*
X207322Y982284D02*
D03*
X215322D02*
D03*
X223322D02*
D03*
X191322D02*
D03*
X183322D02*
D03*
X175322D02*
D03*
D239*
X244322Y967284D02*
D03*
Y1023284D02*
D03*
X154322Y967284D02*
D03*
Y1023284D02*
D03*
D240*
X3051665Y274250D02*
D03*
D241*
Y324250D02*
D03*
Y374250D02*
D03*
Y424250D02*
D03*
D242*
X2404110Y887730D02*
D03*
D243*
X3040380Y766690D02*
D03*
D244*
Y876690D02*
D03*
D245*
X2785108Y1027560D02*
D03*
D246*
X2860000Y993369D02*
D03*
X2944000D02*
D03*
D247*
Y865369D02*
D03*
X2902000D02*
D03*
X2860000D02*
D03*
X2944000Y920369D02*
D03*
X2902000D02*
D03*
D248*
X2860000D02*
D03*
D249*
X2918968Y774700D02*
D03*
D250*
X2884932D02*
D03*
Y675640D02*
D03*
X2918968D02*
D03*
D251*
X1032000Y274921D02*
D03*
Y285734D02*
D03*
X685800Y895350D02*
D03*
X1164052Y482652D02*
D03*
X2150229Y262255D02*
D03*
X2147570Y313055D02*
D03*
X363220Y127635D02*
D03*
X397510Y37465D02*
D03*
X384810D02*
D03*
X371587Y46355D02*
D03*
X342900Y59055D02*
D03*
X342265Y53340D02*
D03*
X1515745Y615315D02*
D03*
X1371346Y154940D02*
D03*
X666115Y415925D02*
D03*
X651510Y431800D02*
D03*
X617220Y50800D02*
D03*
X615950Y19050D02*
D03*
X80645Y628650D02*
D03*
Y635000D02*
D03*
X38735Y628650D02*
D03*
Y635000D02*
D03*
X419100Y739140D02*
D03*
X414020Y736600D02*
D03*
X1191000Y574000D02*
D03*
X1181000Y564000D02*
D03*
X1211000Y554000D02*
D03*
X1201000Y564000D02*
D03*
X1211000Y574000D02*
D03*
X1201000Y574000D02*
D03*
X1191000Y584000D02*
D03*
X1171000D02*
D03*
X831850Y281940D02*
D03*
X869950Y283210D02*
D03*
X727528Y289123D02*
D03*
X741045Y322580D02*
D03*
X693420Y378460D02*
D03*
X701040Y382270D02*
D03*
X736600Y388620D02*
D03*
X708660Y387350D02*
D03*
X681990Y394970D02*
D03*
X693420Y387350D02*
D03*
X689610Y373380D02*
D03*
X693420Y364490D02*
D03*
X694690Y370840D02*
D03*
X863600Y266700D02*
D03*
X890270Y257810D02*
D03*
X870720Y267201D02*
D03*
X875030Y262890D02*
D03*
X880110Y265430D02*
D03*
Y270510D02*
D03*
X920750Y223520D02*
D03*
X880027Y282134D02*
D03*
X880110Y276860D02*
D03*
X881380Y292100D02*
D03*
X1211000Y544000D02*
D03*
X1181000Y554000D02*
D03*
X1191000D02*
D03*
X1181823Y541636D02*
D03*
X1191000Y544000D02*
D03*
X445770Y571500D02*
D03*
X484863Y586463D02*
D03*
X623570Y189230D02*
D03*
X1198894Y284364D02*
D03*
X1169670Y257810D02*
D03*
X1488440Y609600D02*
D03*
X1496060Y637540D02*
D03*
X1492250D02*
D03*
X1488440D02*
D03*
X1484630D02*
D03*
X1480820D02*
D03*
Y609600D02*
D03*
X1484630D02*
D03*
X1480820Y613410D02*
D03*
X1484820Y613397D02*
D03*
X1192530Y760730D02*
D03*
X1043940Y730250D02*
D03*
X1121000Y694000D02*
D03*
Y684000D02*
D03*
X1071000Y724000D02*
D03*
X751840Y726440D02*
D03*
X734060Y707390D02*
D03*
X713740Y721360D02*
D03*
X726440D02*
D03*
X720090Y722630D02*
D03*
X796290Y676910D02*
D03*
X956310Y648970D02*
D03*
X949960Y651510D02*
D03*
X1014730Y656590D02*
D03*
X614680Y334010D02*
D03*
X630236Y338774D02*
D03*
X635000Y331470D02*
D03*
X1111000Y554000D02*
D03*
X1111000Y564000D02*
D03*
X989330Y716280D02*
D03*
X1008380Y715391D02*
D03*
X1012190Y712470D02*
D03*
X1004570Y707390D02*
D03*
X784860Y677001D02*
D03*
X777240Y676910D02*
D03*
X750570D02*
D03*
X739775Y676275D02*
D03*
X763270Y676910D02*
D03*
X770890D02*
D03*
X777240Y580390D02*
D03*
X1071227Y683983D02*
D03*
X825500Y676910D02*
D03*
X819150D02*
D03*
X805180D02*
D03*
X812800D02*
D03*
X1019810Y671830D02*
D03*
X765810Y515620D02*
D03*
X744220Y533400D02*
D03*
X562610Y523240D02*
D03*
Y514350D02*
D03*
X769620Y520700D02*
D03*
X609600Y463550D02*
D03*
X610870Y468630D02*
D03*
X750570Y532130D02*
D03*
X755650Y529590D02*
D03*
X763270Y527050D02*
D03*
X1081000Y714000D02*
D03*
X1957070Y741680D02*
D03*
X1939290Y737870D02*
D03*
X294856Y799412D02*
D03*
X284995Y790871D02*
D03*
X275590Y862330D02*
D03*
X226060Y596900D02*
D03*
X231140Y605790D02*
D03*
X204470Y845820D02*
D03*
X222250Y586740D02*
D03*
X518668Y548524D02*
D03*
X505839Y548534D02*
D03*
X293370Y535940D02*
D03*
X294640Y523240D02*
D03*
X591820Y786130D02*
D03*
X601980Y772160D02*
D03*
X287020Y532384D02*
D03*
Y526288D02*
D03*
X590754Y778306D02*
D03*
X595066Y773993D02*
D03*
X1794510Y927100D02*
D03*
X1786890Y918210D02*
D03*
X1788590Y928800D02*
D03*
X1784279Y924489D02*
D03*
X1858010Y297180D02*
D03*
X1870710Y300990D02*
D03*
X1858010Y287020D02*
D03*
X1883410Y281305D02*
D03*
X1861820Y271780D02*
D03*
X1852930Y273050D02*
D03*
X1858010Y265430D02*
D03*
X1832610Y264160D02*
D03*
X1845310Y261620D02*
D03*
X1863090Y278130D02*
D03*
X1902460Y248920D02*
D03*
X1888490Y300990D02*
D03*
X1861820Y306070D02*
D03*
X1880762Y243886D02*
D03*
X1851660Y237490D02*
D03*
X1885950Y292100D02*
D03*
X1866900Y260350D02*
D03*
Y254000D02*
D03*
X2065020Y278050D02*
D03*
Y290750D02*
D03*
Y283210D02*
D03*
Y295910D02*
D03*
X2065020Y350520D02*
D03*
Y363220D02*
D03*
X2059080Y356870D02*
D03*
X2072720Y225980D02*
D03*
Y213280D02*
D03*
X1241000Y594000D02*
D03*
X1231000Y574000D02*
D03*
X1241000Y544000D02*
D03*
X1201000Y594000D02*
D03*
X1231000D02*
D03*
X1221000Y584000D02*
D03*
Y574000D02*
D03*
Y564000D02*
D03*
X830580Y894080D02*
D03*
X1066800Y867410D02*
D03*
X1151890Y872490D02*
D03*
Y864870D02*
D03*
X1413510Y873760D02*
D03*
X1405890Y872490D02*
D03*
X1332230Y614680D02*
D03*
X1322516Y725170D02*
D03*
X1518920Y741680D02*
D03*
X1520190Y746760D02*
D03*
X1419860Y703580D02*
D03*
X1413510Y702310D02*
D03*
X1988820Y204470D02*
D03*
X1974850Y170180D02*
D03*
X1852930Y744220D02*
D03*
X1847850Y740410D02*
D03*
X1429385Y657225D02*
D03*
X1422400Y694110D02*
D03*
X1736090Y731520D02*
D03*
X1720850D02*
D03*
X1281430Y594360D02*
D03*
X1241000Y674000D02*
D03*
X1991360Y194310D02*
D03*
X1979930Y195580D02*
D03*
X1972310Y185420D02*
D03*
X1971040Y177800D02*
D03*
X1231000Y664000D02*
D03*
X1374140Y721360D02*
D03*
X1808480Y732790D02*
D03*
Y703580D02*
D03*
Y727710D02*
D03*
Y721360D02*
D03*
Y715010D02*
D03*
Y708660D02*
D03*
X1725930Y981710D02*
D03*
X1729740Y976630D02*
D03*
X1769110Y1009650D02*
D03*
X1714500D02*
D03*
X1703070Y1007110D02*
D03*
X1692910Y946150D02*
D03*
X1686560D02*
D03*
X1748790Y949960D02*
D03*
X1720850Y947420D02*
D03*
X1755140Y949960D02*
D03*
X1714500Y947420D02*
D03*
X1729740D02*
D03*
X1680210Y935990D02*
D03*
X1673860D02*
D03*
X1391920Y929640D02*
D03*
X1396124Y921678D02*
D03*
X1380490Y836930D02*
D03*
X1291000Y684000D02*
D03*
X1281000Y684000D02*
D03*
X1379220Y918210D02*
D03*
X1330960Y759460D02*
D03*
X1325880D02*
D03*
X1252220Y774700D02*
D03*
Y768350D02*
D03*
X1181000Y664000D02*
D03*
X1221000Y734000D02*
D03*
X890042Y194082D02*
D03*
X1857312Y987298D02*
D03*
X1356360Y958469D02*
D03*
X1344930Y958850D02*
D03*
X1339850Y955040D02*
D03*
X1358900Y918210D02*
D03*
X1361440Y944880D02*
D03*
X1353820Y948690D02*
D03*
X1350010Y938530D02*
D03*
X1352550Y942340D02*
D03*
X1343660Y935990D02*
D03*
X1357630Y923290D02*
D03*
X1353820Y913130D02*
D03*
X1201000Y714000D02*
D03*
Y704000D02*
D03*
X1230630Y944880D02*
D03*
X1163320Y1019810D02*
D03*
X1010920Y962660D02*
D03*
X1155700Y944880D02*
D03*
X1135380Y961390D02*
D03*
X1139680Y957652D02*
D03*
X1005840Y958850D02*
D03*
X1121410Y952500D02*
D03*
X1181000Y684000D02*
D03*
X1012190Y969010D02*
D03*
X1127760Y958850D02*
D03*
X1134110Y952500D02*
D03*
X1151890Y961390D02*
D03*
X1038860Y890270D02*
D03*
X972820Y896620D02*
D03*
X1023620Y1012190D02*
D03*
Y1005840D02*
D03*
X982980Y896620D02*
D03*
X558800Y755650D02*
D03*
X1267460Y257810D02*
D03*
X756920Y302260D02*
D03*
X756928Y290822D02*
D03*
X728980Y300990D02*
D03*
X633730Y323850D02*
D03*
X248487Y759626D02*
D03*
X543640Y910590D02*
D03*
X549736D02*
D03*
X710955Y948065D02*
D03*
X709178Y953897D02*
D03*
X774635Y974025D02*
D03*
X776605Y968168D02*
D03*
X775970Y979973D02*
D03*
X762000Y994410D02*
D03*
X749054Y995620D02*
D03*
X754974Y997077D02*
D03*
X730232Y994392D02*
D03*
X735330Y999490D02*
D03*
X331884Y345760D02*
D03*
X325120Y356870D02*
D03*
X252349Y691072D02*
D03*
X238760Y726440D02*
D03*
X239014Y732531D02*
D03*
X337202Y671830D02*
D03*
X337260Y659557D02*
D03*
X323845Y667442D02*
D03*
X327638Y672214D02*
D03*
X317705Y657655D02*
D03*
X323797Y657867D02*
D03*
X367030Y702310D02*
D03*
X369248Y707988D02*
D03*
X378372Y715010D02*
D03*
X371562Y720558D02*
D03*
X388432Y719619D02*
D03*
X389088Y725680D02*
D03*
X363138Y754935D02*
D03*
X362999Y761029D02*
D03*
X375116Y765370D02*
D03*
X379639Y769457D02*
D03*
X339920Y790176D02*
D03*
X344936Y794189D02*
D03*
X350520Y789940D02*
D03*
X336949Y795499D02*
D03*
X330881Y794917D02*
D03*
X318770Y793750D02*
D03*
X324781Y792738D02*
D03*
X311912Y801370D02*
D03*
X305816D02*
D03*
X299800Y793750D02*
D03*
X305896D02*
D03*
X1090930Y675640D02*
D03*
X1083310Y684289D02*
D03*
X1081201Y673531D02*
D03*
X1088390Y665524D02*
D03*
X1026160Y899160D02*
D03*
X772160Y920750D02*
D03*
X1239520Y952500D02*
D03*
X1271000Y734000D02*
D03*
X725540Y917942D02*
D03*
X1153160Y923290D02*
D03*
X810260Y904240D02*
D03*
X1146810Y955040D02*
D03*
X1143000Y944880D02*
D03*
X441960Y312420D02*
D03*
X416560D02*
D03*
X280767Y1040199D02*
D03*
X270607D02*
D03*
X253931Y1008283D02*
D03*
X283279Y1008477D02*
D03*
X187960Y930910D02*
D03*
X1182370Y910590D02*
D03*
X1187450Y838962D02*
D03*
X814705Y929005D02*
D03*
X1061000Y724000D02*
D03*
X777113Y738124D02*
D03*
X1447800Y370840D02*
D03*
X1447484Y365036D02*
D03*
X1413510Y186690D02*
D03*
X1408430Y191770D02*
D03*
X845820Y248920D02*
D03*
X1715770Y162560D02*
D03*
X1709420D02*
D03*
X1590040Y307340D02*
D03*
X1572260Y124460D02*
D03*
X1569720Y128270D02*
D03*
X1422400Y162560D02*
D03*
Y167640D02*
D03*
X843280Y228600D02*
D03*
X838200Y224790D02*
D03*
X815340Y255270D02*
D03*
Y250190D02*
D03*
X825500Y252730D02*
D03*
X703580Y316230D02*
D03*
X706120Y311150D02*
D03*
X544830Y302260D02*
D03*
X1457960Y134620D02*
D03*
X1436902Y127383D02*
D03*
X1031240Y899160D02*
D03*
X1021080Y904240D02*
D03*
X1176020Y896620D02*
D03*
X1170940Y900430D02*
D03*
X850900Y971550D02*
D03*
X849630Y956310D02*
D03*
X840740Y949960D02*
D03*
X842010Y957580D02*
D03*
X849630Y966470D02*
D03*
X759460Y845820D02*
D03*
Y835660D02*
D03*
D03*
X1155700Y1016000D02*
D03*
X2627630Y689610D02*
D03*
X2658110Y767218D02*
D03*
X2723625Y750525D02*
D03*
X2697480Y673100D02*
D03*
X2641600Y661670D02*
D03*
X797560Y337820D02*
D03*
X800100Y334010D02*
D03*
X1051000Y744000D02*
D03*
X712470Y895350D02*
D03*
X742950D02*
D03*
X732790D02*
D03*
X737870Y905510D02*
D03*
X725170Y924560D02*
D03*
X768350Y996950D02*
D03*
X1168400Y988060D02*
D03*
X777240Y802640D02*
D03*
X772160Y806450D02*
D03*
X777240Y810260D02*
D03*
X1211580Y778510D02*
D03*
X1206500Y778095D02*
D03*
X1163320Y988060D02*
D03*
X830580Y976630D02*
D03*
X854710Y985520D02*
D03*
X854979Y980709D02*
D03*
X859289Y985020D02*
D03*
X834390Y971550D02*
D03*
X824230Y951230D02*
D03*
X1192530Y982980D02*
D03*
X1173480Y963930D02*
D03*
X1184808Y982878D02*
D03*
X1180497Y978567D02*
D03*
X1171876Y969946D02*
D03*
X1176187Y974257D02*
D03*
X1191000Y744000D02*
D03*
X1281430Y753110D02*
D03*
X242570Y521970D02*
D03*
X236220D02*
D03*
X1770380Y225425D02*
D03*
X1778170Y226060D02*
D03*
X1770380Y193675D02*
D03*
X1778170Y193040D02*
D03*
X1563370Y326390D02*
D03*
X1379220Y106400D02*
D03*
X1380490Y79375D02*
D03*
X1412240Y534670D02*
D03*
X1406391Y530359D02*
D03*
X1402080Y534670D02*
D03*
X193040Y497840D02*
D03*
X208280Y483870D02*
D03*
X196350Y489451D02*
D03*
X200660Y485140D02*
D03*
X638175Y536575D02*
D03*
X825500Y193040D02*
D03*
Y202565D02*
D03*
X815340D02*
D03*
X813770Y192593D02*
D03*
X830580Y146050D02*
D03*
X809625Y145415D02*
D03*
X820420Y144780D02*
D03*
X1882140Y111760D02*
D03*
X1709420D02*
D03*
X1281000Y654000D02*
D03*
X1271000Y654000D02*
D03*
X1241000Y634000D02*
D03*
Y624000D02*
D03*
X1968235Y145230D02*
D03*
X1941830Y124460D02*
D03*
X1718945Y381635D02*
D03*
X1075690Y543560D02*
D03*
X929640Y317500D02*
D03*
X942340Y308610D02*
D03*
X855980Y240030D02*
D03*
X876300Y243840D02*
D03*
X862465Y243974D02*
D03*
X866775Y248285D02*
D03*
X943823Y318390D02*
D03*
X939261Y322434D02*
D03*
X1091000Y544000D02*
D03*
X1081000Y544000D02*
D03*
X899160Y181610D02*
D03*
X887730Y172720D02*
D03*
X896620Y166370D02*
D03*
X900430Y171450D02*
D03*
X894355Y171959D02*
D03*
X236093Y834390D02*
D03*
X234823Y852170D02*
D03*
Y867410D02*
D03*
X402590Y745490D02*
D03*
X998220Y708660D02*
D03*
X995680Y633730D02*
D03*
X980694Y708267D02*
D03*
X988921D02*
D03*
X1005340Y631822D02*
D03*
X1010914Y634289D02*
D03*
X1069759Y618666D02*
D03*
X1091000Y684000D02*
D03*
X1101000Y684000D02*
D03*
X1061000Y694000D02*
D03*
X1083848Y654055D02*
D03*
X1077752Y654000D02*
D03*
X1051000Y674000D02*
D03*
X1061000Y684000D02*
D03*
X820420Y544830D02*
D03*
Y554990D02*
D03*
X1080770Y574040D02*
D03*
X1081000Y564000D02*
D03*
X1091000Y564000D02*
D03*
X1101000Y564000D02*
D03*
X1010920Y595146D02*
D03*
X1016817Y592817D02*
D03*
X999490Y665480D02*
D03*
X1005291Y664753D02*
D03*
X1009719Y660563D02*
D03*
X974090Y665480D02*
D03*
X960120Y664210D02*
D03*
X967314Y666751D02*
D03*
X968068Y660702D02*
D03*
X1131000Y624000D02*
D03*
X1121000D02*
D03*
X340808Y664736D02*
D03*
X326390Y821690D02*
D03*
X542290Y755650D02*
D03*
X229235Y743585D02*
D03*
X203835Y720725D02*
D03*
Y786765D02*
D03*
X234950Y768350D02*
D03*
X261955Y715370D02*
D03*
X259715Y800100D02*
D03*
X260350Y795020D02*
D03*
Y805180D02*
D03*
X254000Y774065D02*
D03*
X261955Y775370D02*
D03*
Y770370D02*
D03*
Y760370D02*
D03*
X1024890Y557530D02*
D03*
X1043940Y635000D02*
D03*
X1050290Y629920D02*
D03*
X1044428Y629499D02*
D03*
X1047750Y623570D02*
D03*
X995680Y622300D02*
D03*
X1017786Y624070D02*
D03*
X1011725Y623416D02*
D03*
X374650Y377190D02*
D03*
X375420Y371341D02*
D03*
X379730Y367030D02*
D03*
X1023620Y622300D02*
D03*
X1036320Y619760D02*
D03*
X1026160Y617220D02*
D03*
X1030539Y621462D02*
D03*
X388775Y350520D02*
D03*
X382679D02*
D03*
X849630Y619760D02*
D03*
X856078Y625309D02*
D03*
X1012190Y613410D02*
D03*
X1017524Y610011D02*
D03*
X1012190Y607060D02*
D03*
X421640Y331470D02*
D03*
X429095Y329106D02*
D03*
X430064Y323088D02*
D03*
X978764Y574040D02*
D03*
X973648Y569607D02*
D03*
X1009650Y586740D02*
D03*
X972820Y562610D02*
D03*
X1039959Y558629D02*
D03*
X1009650Y571500D02*
D03*
X998997Y571857D02*
D03*
X993381Y569485D02*
D03*
X984250Y570230D02*
D03*
X984592Y563792D02*
D03*
X989330Y574040D02*
D03*
X461010Y295910D02*
D03*
X417212Y303791D02*
D03*
X422513Y300782D02*
D03*
X858289Y480291D02*
D03*
X1032510Y567690D02*
D03*
X1026523Y564273D02*
D03*
X1026160Y580390D02*
D03*
X1037934Y578008D02*
D03*
X1032645Y581041D02*
D03*
X763661Y308591D02*
D03*
Y288591D02*
D03*
X404252Y266686D02*
D03*
X398726Y269260D02*
D03*
X116840Y38735D02*
D03*
X1504315Y54423D02*
D03*
X1504315Y64770D02*
D03*
Y43441D02*
D03*
X1504315Y75565D02*
D03*
X116205Y54423D02*
D03*
X116205Y64770D02*
D03*
Y43441D02*
D03*
X116205Y75565D02*
D03*
X54423Y586105D02*
D03*
X64770Y586105D02*
D03*
X43441D02*
D03*
X75565Y586105D02*
D03*
X1619494Y89989D02*
D03*
X1615004Y85499D02*
D03*
X1585369Y115134D02*
D03*
X1589859Y119624D02*
D03*
X123190Y38735D02*
D03*
Y80645D02*
D03*
X116840D02*
D03*
X38735Y593852D02*
D03*
Y587502D02*
D03*
X80645D02*
D03*
Y593852D02*
D03*
X1503680Y1020445D02*
D03*
X1497330D02*
D03*
Y978535D02*
D03*
X1503680D02*
D03*
X1532018Y949498D02*
D03*
X1509303Y972213D02*
D03*
X1524385Y957131D02*
D03*
X1517069Y964447D02*
D03*
X1544690Y894080D02*
D03*
X1536224Y827881D02*
D03*
X1234440Y831850D02*
D03*
X1229360D02*
D03*
X521335Y214630D02*
D03*
X480695Y215900D02*
D03*
X521335Y252730D02*
D03*
X478155D02*
D03*
X473807Y292003D02*
D03*
X1271000Y594000D02*
D03*
X1261000D02*
D03*
X1578610Y527050D02*
D03*
X1570990D02*
D03*
X1563370D02*
D03*
X1555750D02*
D03*
X1578610Y718820D02*
D03*
X1565910D02*
D03*
X1595120Y702310D02*
D03*
X1381125Y200660D02*
D03*
Y167640D02*
D03*
X1421130Y275590D02*
D03*
X1390650Y298450D02*
D03*
X1398270Y293370D02*
D03*
X1408430Y290830D02*
D03*
X1413510Y283210D02*
D03*
X1416685Y278765D02*
D03*
X1409700Y285750D02*
D03*
X1403350Y292100D02*
D03*
X1397000Y298450D02*
D03*
X703580Y844550D02*
D03*
X1361440Y713740D02*
D03*
X1363980Y718820D02*
D03*
X1375410Y736600D02*
D03*
X1372870Y731520D02*
D03*
X1081000Y724000D02*
D03*
X1338580Y705104D02*
D03*
X1231000Y514000D02*
D03*
X1356360Y673100D02*
D03*
X1350010D02*
D03*
X1344930D02*
D03*
X1291000Y704000D02*
D03*
X1343660Y513080D02*
D03*
X1338580D02*
D03*
X1239520Y279400D02*
D03*
X1250890Y277050D02*
D03*
X1274890Y301050D02*
D03*
X1250890Y301050D02*
D03*
X1258890Y269050D02*
D03*
X2415540Y255905D02*
D03*
X2407920D02*
D03*
X2400300D02*
D03*
X2392680D02*
D03*
X2385060D02*
D03*
X2377440D02*
D03*
X2369820D02*
D03*
X2415540Y465455D02*
D03*
X2407920D02*
D03*
X2400300D02*
D03*
X2392680D02*
D03*
X2385060D02*
D03*
X2377440D02*
D03*
X2369820D02*
D03*
X2361565Y525145D02*
D03*
X2107565Y518795D02*
D03*
Y525145D02*
D03*
Y531495D02*
D03*
X680720Y838200D02*
D03*
X722630Y834390D02*
D03*
X680720Y843280D02*
D03*
X689610Y849630D02*
D03*
X698500Y845820D02*
D03*
X715010Y840740D02*
D03*
X695960Y849630D02*
D03*
X1352550Y862330D02*
D03*
X1327150D02*
D03*
X1352550Y895350D02*
D03*
Y974090D02*
D03*
X1327150D02*
D03*
X1352550Y1007110D02*
D03*
X1327150D02*
D03*
X1170940Y941070D02*
D03*
X1092200Y862330D02*
D03*
X1056640Y873760D02*
D03*
X1092200Y895350D02*
D03*
Y1007110D02*
D03*
X1066800D02*
D03*
X1092200Y974090D02*
D03*
X1066800D02*
D03*
X684530Y826770D02*
D03*
X626110Y321310D02*
D03*
X613410D02*
D03*
X601980D02*
D03*
X638810Y290830D02*
D03*
X679450Y946150D02*
D03*
X709930Y943610D02*
D03*
X589280Y815340D02*
D03*
X552450D02*
D03*
X523240D02*
D03*
X487680Y816610D02*
D03*
X496570Y819150D02*
D03*
X199390Y405130D02*
D03*
X287020Y396240D02*
D03*
X300958Y667417D02*
D03*
X494030Y814781D02*
D03*
X519430D02*
D03*
X582930D02*
D03*
X557530D02*
D03*
X570230Y773209D02*
D03*
X506730D02*
D03*
X582930Y859790D02*
D03*
X557530D02*
D03*
X494030D02*
D03*
X519430D02*
D03*
X533480Y910986D02*
D03*
X528480D02*
D03*
X471606Y896620D02*
D03*
X598606Y892810D02*
D03*
Y875030D02*
D03*
X538480Y910986D02*
D03*
X504190Y581761D02*
D03*
X499110Y583866D02*
D03*
X497006Y588946D02*
D03*
X499110Y594193D02*
D03*
X504190Y596464D02*
D03*
X509270Y594360D02*
D03*
X511374Y589280D02*
D03*
X508397Y585073D02*
D03*
X699770Y584200D02*
D03*
X694690Y582096D02*
D03*
X689610Y584200D02*
D03*
Y594360D02*
D03*
X694690Y596464D02*
D03*
X699770Y594360D02*
D03*
X701040Y589280D02*
D03*
X688340D02*
D03*
X901000Y655010D02*
D03*
X566420Y760730D02*
D03*
X558546Y761746D02*
D03*
X994664Y651510D02*
D03*
X984250D02*
D03*
X931069Y704215D02*
D03*
X956310D02*
D03*
X1037533D02*
D03*
X1015073D02*
D03*
X953250Y599105D02*
D03*
X948250D02*
D03*
X786130Y500380D02*
D03*
X788670Y589280D02*
D03*
X852170Y265430D02*
D03*
X858520Y267970D02*
D03*
X855980Y248920D02*
D03*
X845820Y254000D02*
D03*
X340360Y223150D02*
D03*
X322580D02*
D03*
X852940Y254769D02*
D03*
X857873Y258945D02*
D03*
X939800Y458470D02*
D03*
X819240Y393700D02*
D03*
X819150Y433070D02*
D03*
X763270Y450850D02*
D03*
X903250Y498175D02*
D03*
X1003300Y566420D02*
D03*
Y588010D02*
D03*
X839470Y469900D02*
D03*
X833755Y471170D02*
D03*
Y492125D02*
D03*
X870285Y576140D02*
D03*
Y571140D02*
D03*
Y561140D02*
D03*
Y556140D02*
D03*
Y551140D02*
D03*
Y546140D02*
D03*
Y536140D02*
D03*
Y531140D02*
D03*
Y521140D02*
D03*
Y516140D02*
D03*
X908250Y498175D02*
D03*
X920877Y492604D02*
D03*
X916940Y477520D02*
D03*
X873506Y506730D02*
D03*
X857250Y728980D02*
D03*
X855980Y712470D02*
D03*
X861060Y720090D02*
D03*
Y725170D02*
D03*
Y715010D02*
D03*
X838200Y712470D02*
D03*
X830580Y727710D02*
D03*
X831850Y712470D02*
D03*
X834390Y723298D02*
D03*
Y717202D02*
D03*
X329700Y814839D02*
D03*
X334010Y819150D02*
D03*
X1591115Y217805D02*
D03*
X1567561Y217205D02*
D03*
X1597753Y223520D02*
D03*
X1604133Y223872D02*
D03*
X251460Y455930D02*
D03*
X728059Y338591D02*
D03*
X705661Y333591D02*
D03*
X704922Y343591D02*
D03*
X705661Y353591D02*
D03*
X728059Y308591D02*
D03*
X705661Y298591D02*
D03*
Y293591D02*
D03*
X728059Y283591D02*
D03*
X763270Y360680D02*
D03*
X805180Y323850D02*
D03*
Y344170D02*
D03*
X786059Y348591D02*
D03*
Y343591D02*
D03*
Y338591D02*
D03*
Y333591D02*
D03*
Y318591D02*
D03*
Y298591D02*
D03*
X172720Y425450D02*
D03*
Y400050D02*
D03*
X328930Y349250D02*
D03*
X287020Y375920D02*
D03*
X341630Y363220D02*
D03*
X318770Y349250D02*
D03*
X336540Y343802D02*
D03*
X321540Y343802D02*
D03*
X282575Y433070D02*
D03*
Y426720D02*
D03*
Y419100D02*
D03*
Y406400D02*
D03*
Y400050D02*
D03*
Y393700D02*
D03*
X203835Y406400D02*
D03*
Y400050D02*
D03*
Y393700D02*
D03*
X1561973Y226695D02*
D03*
X1544828Y239430D02*
D03*
Y217805D02*
D03*
X1582079Y227330D02*
D03*
X834390Y833755D02*
D03*
X793750D02*
D03*
X1308100Y115570D02*
D03*
X360680Y210820D02*
D03*
Y226060D02*
D03*
X920750Y1000760D02*
D03*
Y988060D02*
D03*
X935990Y960120D02*
D03*
X949960Y975360D02*
D03*
Y1000760D02*
D03*
Y988060D02*
D03*
X656590Y765810D02*
D03*
X396240Y755650D02*
D03*
X407670Y751840D02*
D03*
X402590Y759460D02*
D03*
X443230Y787400D02*
D03*
X652977Y769620D02*
D03*
X791210Y207645D02*
D03*
X836295Y207645D02*
D03*
X827405Y342265D02*
D03*
X1492250Y655320D02*
D03*
X533631Y442999D02*
D03*
X524510Y502285D02*
D03*
X1870075Y330200D02*
D03*
Y349250D02*
D03*
Y369570D02*
D03*
X1825625D02*
D03*
Y331470D02*
D03*
Y349250D02*
D03*
X1685925Y57150D02*
D03*
Y45720D02*
D03*
Y34290D02*
D03*
X1749425Y54610D02*
D03*
Y44450D02*
D03*
Y33020D02*
D03*
X1064000Y194000D02*
D03*
X621030Y311785D02*
D03*
X596900D02*
D03*
X786765Y353060D02*
D03*
Y328930D02*
D03*
X362885Y750370D02*
D03*
Y745370D02*
D03*
X385445Y743585D02*
D03*
Y752475D02*
D03*
X266700Y647700D02*
D03*
X1910765Y118735D02*
D03*
X1971725Y130165D02*
D03*
X1956780Y150610D02*
D03*
X1941565Y158565D02*
D03*
X1936800Y165089D02*
D03*
X1957120Y165090D02*
D03*
X1936800Y175250D02*
D03*
X1957120Y175250D02*
D03*
X1535430Y753110D02*
D03*
X401320Y868045D02*
D03*
X369570Y880745D02*
D03*
X344170D02*
D03*
X338265Y871220D02*
D03*
X279804Y876531D02*
D03*
X833750Y614010D02*
D03*
X930910Y605790D02*
D03*
X901700Y600075D02*
D03*
X943250Y599105D02*
D03*
X653415Y538086D02*
D03*
X947477Y481387D02*
D03*
X944360Y627730D02*
D03*
X1457325Y701040D02*
D03*
Y708660D02*
D03*
X1471295Y211490D02*
D03*
X1684655Y224360D02*
D03*
X1689608Y194345D02*
D03*
X1661795Y205503D02*
D03*
X1624330Y228170D02*
D03*
X1610800D02*
D03*
X1625653Y248220D02*
D03*
X1112557Y93400D02*
D03*
X1137920Y74930D02*
D03*
X898525Y79375D02*
D03*
Y70485D02*
D03*
X1132840Y46990D02*
D03*
X1122680D02*
D03*
X1127760Y74930D02*
D03*
X1117600D02*
D03*
X1107440D02*
D03*
X1097280D02*
D03*
X1087120D02*
D03*
X1076960D02*
D03*
X1066800D02*
D03*
X1056640D02*
D03*
X1051560D02*
D03*
X1041400D02*
D03*
X1026160Y57150D02*
D03*
X1036320D02*
D03*
Y74930D02*
D03*
X1026160D02*
D03*
X1021080D02*
D03*
X1010920D02*
D03*
X1000760D02*
D03*
X990600D02*
D03*
X980440D02*
D03*
X970280D02*
D03*
X960120D02*
D03*
X949960D02*
D03*
X939800D02*
D03*
X919480D02*
D03*
X929640D02*
D03*
X1549351Y332440D02*
D03*
Y338940D02*
D03*
Y351940D02*
D03*
Y358440D02*
D03*
X1465580D02*
D03*
Y351940D02*
D03*
X1798955Y780415D02*
D03*
Y822960D02*
D03*
Y788670D02*
D03*
Y806450D02*
D03*
Y815340D02*
D03*
Y797560D02*
D03*
X1590206D02*
D03*
Y815340D02*
D03*
Y806450D02*
D03*
Y788670D02*
D03*
Y822960D02*
D03*
Y780415D02*
D03*
X1527175Y701675D02*
D03*
X1541145Y663575D02*
D03*
X1724660Y326390D02*
D03*
X2121535Y153670D02*
D03*
X1919340Y33020D02*
D03*
Y56670D02*
D03*
X1857375D02*
D03*
Y34828D02*
D03*
X1319530Y388543D02*
D03*
X1311000D02*
D03*
X853698Y113918D02*
D03*
X847217D02*
D03*
X713740Y402590D02*
D03*
X714883Y433070D02*
D03*
X768985Y457839D02*
D03*
X769145Y471874D02*
D03*
X762471Y494642D02*
D03*
X745490Y495912D02*
D03*
X728345Y494642D02*
D03*
X686500Y509247D02*
D03*
X712470D02*
D03*
X653415Y514985D02*
D03*
X609852Y503532D02*
D03*
Y499087D02*
D03*
X645674Y490500D02*
D03*
X634365Y484505D02*
D03*
X610487Y443208D02*
D03*
X628650Y450850D02*
D03*
X645674Y453070D02*
D03*
X657225Y415925D02*
D03*
Y437515D02*
D03*
X666115D02*
D03*
X622935Y465455D02*
D03*
Y475615D02*
D03*
X610487Y488292D02*
D03*
X633095Y499034D02*
D03*
X640484Y513311D02*
D03*
X662940Y533400D02*
D03*
X688975Y518795D02*
D03*
X745860Y539115D02*
D03*
X725043D02*
D03*
X708025Y553847D02*
D03*
X691836Y553925D02*
D03*
X673100D02*
D03*
X643507Y542925D02*
D03*
X647700Y534647D02*
D03*
X620647Y536933D02*
D03*
X605407Y542925D02*
D03*
X603502Y525503D02*
D03*
X813435Y581025D02*
D03*
X804545D02*
D03*
X918965Y669000D02*
D03*
X1086000Y762000D02*
D03*
X1079500D02*
D03*
X1112073D02*
D03*
X1106000D02*
D03*
X1271706D02*
D03*
X1266000D02*
D03*
X1246000D02*
D03*
X1239462D02*
D03*
X1141000Y684000D02*
D03*
X1170849Y636270D02*
D03*
X1009419Y520931D02*
D03*
X1015874Y525780D02*
D03*
X1043973Y523748D02*
D03*
X1035610Y525780D02*
D03*
X1024425Y499480D02*
D03*
X1338580Y523240D02*
D03*
X1261175Y469365D02*
D03*
X1261175Y478327D02*
D03*
X1252605Y478346D02*
D03*
X1252318Y469365D02*
D03*
X1264920Y415925D02*
D03*
X1240790D02*
D03*
X1284605Y418465D02*
D03*
X1232535D02*
D03*
X1238250Y394970D02*
D03*
Y384596D02*
D03*
X1258570Y394970D02*
D03*
Y384596D02*
D03*
X1126148Y191660D02*
D03*
X1121198Y190905D02*
D03*
X1104926Y192300D02*
D03*
X1165089Y215472D02*
D03*
X1153795Y227233D02*
D03*
X1122063Y237328D02*
D03*
X1089095Y218440D02*
D03*
X1105689Y223139D02*
D03*
X1131314Y246579D02*
D03*
X1132559Y254946D02*
D03*
X1146459Y268540D02*
D03*
X1134227Y210949D02*
D03*
X1146875Y295597D02*
D03*
X1134477Y279965D02*
D03*
X1120371Y266296D02*
D03*
X1147434Y256417D02*
D03*
X1165225Y244475D02*
D03*
X1182322Y274582D02*
D03*
X1219010Y267270D02*
D03*
Y287590D02*
D03*
X1477180Y381635D02*
D03*
X1456690Y382382D02*
D03*
X1561973D02*
D03*
X1539748D02*
D03*
X1627217Y120419D02*
D03*
X1620289Y126964D02*
D03*
X1614149Y132679D02*
D03*
X1792835Y412750D02*
D03*
X1755775D02*
D03*
X1733497Y446405D02*
D03*
X1737360Y400050D02*
D03*
X1737995Y409575D02*
D03*
X1501648Y488950D02*
D03*
X1482852Y492125D02*
D03*
X669925Y917575D02*
D03*
X716915Y743585D02*
D03*
X702310Y759460D02*
D03*
X693674Y711625D02*
D03*
X688594D02*
D03*
X735838Y614680D02*
D03*
X862885Y774069D02*
D03*
Y732536D02*
D03*
X862153Y840740D02*
D03*
X906715D02*
D03*
Y798600D02*
D03*
X918965Y768370D02*
D03*
X928250Y769239D02*
D03*
X948690D02*
D03*
X995680Y767715D02*
D03*
X1019683Y635508D02*
D03*
X984250Y671830D02*
D03*
X994664D02*
D03*
X976630Y600075D02*
D03*
X970915Y636270D02*
D03*
Y631063D02*
D03*
X967740Y621665D02*
D03*
X962025Y622300D02*
D03*
X938250Y599105D02*
D03*
X925195Y621665D02*
D03*
X916305D02*
D03*
X908250Y598537D02*
D03*
X905510Y632968D02*
D03*
X875665Y631825D02*
D03*
X866775D02*
D03*
X891540Y626110D02*
D03*
X847725Y592455D02*
D03*
Y583565D02*
D03*
X958250Y498175D02*
D03*
X974375Y464055D02*
D03*
X941070Y491490D02*
D03*
X962025Y497205D02*
D03*
X953250Y498175D02*
D03*
X938250D02*
D03*
X909955Y475615D02*
D03*
X901065D02*
D03*
X887095Y465455D02*
D03*
X871220Y481330D02*
D03*
X874799Y496166D02*
D03*
X878205Y465455D02*
D03*
X819150Y486410D02*
D03*
Y466090D02*
D03*
Y476250D02*
D03*
X845185Y483235D02*
D03*
Y492125D02*
D03*
X847725Y502285D02*
D03*
Y511175D02*
D03*
Y521335D02*
D03*
Y530225D02*
D03*
Y540385D02*
D03*
Y549275D02*
D03*
Y559435D02*
D03*
Y568325D02*
D03*
X904160Y450949D02*
D03*
X906603Y438156D02*
D03*
X510413Y815086D02*
D03*
X572135D02*
D03*
X849797Y1031240D02*
D03*
X376555Y872490D02*
D03*
X384810Y812165D02*
D03*
X684530Y789940D02*
D03*
X665480Y737235D02*
D03*
X659675Y735330D02*
D03*
X678815Y719455D02*
D03*
X667385Y692150D02*
D03*
Y699770D02*
D03*
X859155Y816010D02*
D03*
X888365Y820670D02*
D03*
X1188720Y833045D02*
D03*
X1166495D02*
D03*
X1273810D02*
D03*
X1251555D02*
D03*
X1352550Y794385D02*
D03*
X1332865D02*
D03*
X1438402D02*
D03*
X1416050D02*
D03*
X1503017Y908685D02*
D03*
X1479550D02*
D03*
X1417320D02*
D03*
X1397000D02*
D03*
X1448435Y999490D02*
D03*
Y1007110D02*
D03*
Y988060D02*
D03*
X1807210Y938530D02*
D03*
X1851533Y995426D02*
D03*
X1851660Y969010D02*
D03*
X1827022Y773430D02*
D03*
X1767840Y879475D02*
D03*
X1752660D02*
D03*
X1770120Y744079D02*
D03*
X1753870D02*
D03*
X1593984Y708660D02*
D03*
Y695325D02*
D03*
X1383665D02*
D03*
X1383385Y657225D02*
D03*
X1353820Y725170D02*
D03*
X1338580Y711200D02*
D03*
X1332865Y695325D02*
D03*
Y664845D02*
D03*
Y640715D02*
D03*
X1348105Y643255D02*
D03*
X1356995D02*
D03*
X1362137Y631952D02*
D03*
X1362585Y622300D02*
D03*
Y613445D02*
D03*
X1365125Y583830D02*
D03*
Y549000D02*
D03*
X1429385Y581025D02*
D03*
Y550545D02*
D03*
X1458595D02*
D03*
Y539750D02*
D03*
X1540821D02*
D03*
X1654810Y472044D02*
D03*
X1644650D02*
D03*
X1649730Y503555D02*
D03*
X1760220Y657860D02*
D03*
X1746250D02*
D03*
X1760220Y631825D02*
D03*
X1746250D02*
D03*
X1760220Y573088D02*
D03*
X1746250D02*
D03*
X1762760Y497205D02*
D03*
X1743710D02*
D03*
X1709155Y405130D02*
D03*
Y443230D02*
D03*
X1708785Y463550D02*
D03*
Y469854D02*
D03*
Y476197D02*
D03*
Y483235D02*
D03*
Y488950D02*
D03*
X1773809Y511580D02*
D03*
Y544830D02*
D03*
X1729740D02*
D03*
X1728622Y511580D02*
D03*
X1486535Y177835D02*
D03*
Y167675D02*
D03*
X1517800Y215470D02*
D03*
X1490521Y189545D02*
D03*
X1511300Y215835D02*
D03*
X1490521Y183045D02*
D03*
Y196045D02*
D03*
X1471295Y200060D02*
D03*
X1462405D02*
D03*
X1447165Y200660D02*
D03*
Y167675D02*
D03*
X1492250Y217375D02*
D03*
X1457440D02*
D03*
Y283210D02*
D03*
X1496236D02*
D03*
X1579440Y306705D02*
D03*
X1779524Y364490D02*
D03*
X1766623D02*
D03*
X1743710D02*
D03*
X1786890Y295275D02*
D03*
X1757680D02*
D03*
X1802384Y333248D02*
D03*
X1775460D02*
D03*
X1762760Y252095D02*
D03*
X1737995Y240997D02*
D03*
X1682750Y233715D02*
D03*
X1720596D02*
D03*
X1733550Y210855D02*
D03*
X1732915Y218645D02*
D03*
X1743075D02*
D03*
Y214200D02*
D03*
X1750314Y140335D02*
D03*
X1723390D02*
D03*
X1653540D02*
D03*
X1659890D02*
D03*
X1573148Y242505D02*
D03*
X1585400D02*
D03*
X1594485Y233885D02*
D03*
X1537300Y215470D02*
D03*
X1555783Y196045D02*
D03*
X1603990Y205775D02*
D03*
Y200660D02*
D03*
X1577340Y184185D02*
D03*
X1572133Y168056D02*
D03*
X1556385Y174533D02*
D03*
Y163230D02*
D03*
X1541780Y144815D02*
D03*
X1531620D02*
D03*
X1521460D02*
D03*
X1511300D02*
D03*
X612775Y166878D02*
D03*
X612678Y173014D02*
D03*
X565912Y155351D02*
D03*
X516500Y127052D02*
D03*
X541147D02*
D03*
Y106857D02*
D03*
X516500D02*
D03*
X619125Y143528D02*
D03*
X619912Y131268D02*
D03*
X471170Y-69850D02*
D03*
X607346Y192532D02*
D03*
X721960Y207873D02*
D03*
X682625Y215265D02*
D03*
X671078Y200787D02*
D03*
X662940Y200787D02*
D03*
X669671Y163599D02*
D03*
X667544Y156326D02*
D03*
X677446Y142708D02*
D03*
X666748Y134620D02*
D03*
X678873Y133041D02*
D03*
X675380Y138170D02*
D03*
X607098Y79223D02*
D03*
X595592D02*
D03*
X602107Y70521D02*
D03*
X608330Y73660D02*
D03*
X594360D02*
D03*
X787400Y226060D02*
D03*
X784180Y191689D02*
D03*
X784778Y200270D02*
D03*
X850265Y183515D02*
D03*
X786765Y162955D02*
D03*
Y156489D02*
D03*
Y149970D02*
D03*
X792480Y133975D02*
D03*
X836295Y139065D02*
D03*
X810260Y124460D02*
D03*
X820420D02*
D03*
X830580D02*
D03*
X462280Y-65360D02*
D03*
X629768Y-73660D02*
D03*
X646430Y-15875D02*
D03*
X616500Y-65405D02*
D03*
X646650D02*
D03*
X626500D02*
D03*
X586500D02*
D03*
X596392D02*
D03*
X526104D02*
D03*
X546500D02*
D03*
X536500D02*
D03*
X516630D02*
D03*
X486500D02*
D03*
X486410Y-17785D02*
D03*
X476500Y-18082D02*
D03*
X466500Y-17785D02*
D03*
X476500Y-65405D02*
D03*
X466500D02*
D03*
X456500D02*
D03*
X582930Y106857D02*
D03*
X557657D02*
D03*
X501015D02*
D03*
X474472D02*
D03*
X582930Y127052D02*
D03*
X557657D02*
D03*
X474472D02*
D03*
X501015Y127127D02*
D03*
X421005Y146050D02*
D03*
Y129540D02*
D03*
Y105922D02*
D03*
Y99314D02*
D03*
X655447Y182880D02*
D03*
X738621Y125095D02*
D03*
X721960Y137755D02*
D03*
X703618Y150525D02*
D03*
X693271Y150622D02*
D03*
X734060Y156332D02*
D03*
Y162955D02*
D03*
X674370Y153035D02*
D03*
X678411Y163599D02*
D03*
X417662Y56388D02*
D03*
X440690Y38025D02*
D03*
X423545Y38735D02*
D03*
X432435D02*
D03*
X335875Y115570D02*
D03*
Y39878D02*
D03*
X253365Y58674D02*
D03*
Y98044D02*
D03*
X523130Y165379D02*
D03*
X523257Y161287D02*
D03*
X502285Y169470D02*
D03*
X502158Y165379D02*
D03*
X804545Y92710D02*
D03*
Y101142D02*
D03*
Y119633D02*
D03*
X792840Y113918D02*
D03*
X792480Y63627D02*
D03*
X726440Y63807D02*
D03*
X726080Y113918D02*
D03*
X714375Y119633D02*
D03*
Y101142D02*
D03*
Y92710D02*
D03*
X682625Y130175D02*
D03*
X734060Y143470D02*
D03*
Y149970D02*
D03*
X655955Y210312D02*
D03*
X734060Y201970D02*
D03*
Y195470D02*
D03*
Y188783D02*
D03*
X682625Y198755D02*
D03*
Y179705D02*
D03*
Y188595D02*
D03*
X643890Y207950D02*
D03*
X588010D02*
D03*
X643255Y186055D02*
D03*
X634365D02*
D03*
X597535D02*
D03*
X588645D02*
D03*
X529590D02*
D03*
X511175Y177165D02*
D03*
X502285D02*
D03*
X490630Y186055D02*
D03*
X471130D02*
D03*
X412750Y148590D02*
D03*
X402590D02*
D03*
Y110490D02*
D03*
Y90170D02*
D03*
X323215Y62865D02*
D03*
Y93345D02*
D03*
Y84455D02*
D03*
Y71755D02*
D03*
X630316Y45036D02*
D03*
X637856Y37456D02*
D03*
X649401Y17248D02*
D03*
X654558Y27480D02*
D03*
X628942Y-16310D02*
D03*
X635038D02*
D03*
X650875Y23020D02*
D03*
X631660Y38735D02*
D03*
X394430Y24940D02*
D03*
X591820Y172720D02*
D03*
X570230Y73660D02*
D03*
X527050D02*
D03*
X483870D02*
D03*
X602107Y42164D02*
D03*
X590423Y18796D02*
D03*
X541147Y42164D02*
D03*
X518033Y18796D02*
D03*
X487553Y42164D02*
D03*
X468757D02*
D03*
X548513D02*
D03*
X560197Y18796D02*
D03*
X510667D02*
D03*
X498983Y42164D02*
D03*
X720725Y36868D02*
D03*
Y22058D02*
D03*
X657225Y48514D02*
D03*
Y23020D02*
D03*
X645160Y38735D02*
D03*
X631660Y17305D02*
D03*
X600075Y18796D02*
D03*
X569595Y42164D02*
D03*
X539115Y18796D02*
D03*
X508635Y42164D02*
D03*
X478155Y18796D02*
D03*
X1290890Y277050D02*
D03*
X1359980Y248220D02*
D03*
Y258380D02*
D03*
X1311939Y342713D02*
D03*
X1289175Y326922D02*
D03*
X1302195Y330135D02*
D03*
X1293305Y341565D02*
D03*
X1283145Y330135D02*
D03*
X1274255D02*
D03*
X1262825D02*
D03*
X1253935D02*
D03*
X1282890Y277050D02*
D03*
X1274890D02*
D03*
X1266890D02*
D03*
X1313815Y298510D02*
D03*
X1306890Y293050D02*
D03*
X1290890Y285050D02*
D03*
X1306890Y285050D02*
D03*
X1290890Y269050D02*
D03*
X1282890Y301050D02*
D03*
X1274890Y293050D02*
D03*
X1266890D02*
D03*
X1250890Y293050D02*
D03*
X1246890Y310707D02*
D03*
X1302890D02*
D03*
X1298890Y301050D02*
D03*
X1290890D02*
D03*
X1294890Y310707D02*
D03*
X1286890D02*
D03*
X1270890D02*
D03*
X1262890D02*
D03*
X1254890D02*
D03*
X1258890Y293050D02*
D03*
X1250890Y269050D02*
D03*
X1241233Y273050D02*
D03*
X1246890Y259393D02*
D03*
X1254890D02*
D03*
X1308547Y272985D02*
D03*
Y264095D02*
D03*
X1286890Y259393D02*
D03*
X1278890D02*
D03*
X1256475Y215835D02*
D03*
Y228535D02*
D03*
X1265365D02*
D03*
X1287145Y228529D02*
D03*
X1278255D02*
D03*
X1326515Y288925D02*
D03*
X1325055Y306005D02*
D03*
Y297115D02*
D03*
Y264095D02*
D03*
Y272985D02*
D03*
X1337010Y280827D02*
D03*
Y290190D02*
D03*
X1382425Y289050D02*
D03*
Y280670D02*
D03*
X1460530Y103700D02*
D03*
X1447830Y150182D02*
D03*
X1441450D02*
D03*
X1431290D02*
D03*
X1422400D02*
D03*
X1416080D02*
D03*
X1412935Y132115D02*
D03*
X1413413Y122115D02*
D03*
X1447830Y104614D02*
D03*
X1438090Y105085D02*
D03*
X1431290Y104775D02*
D03*
X1422400Y105085D02*
D03*
X1413540Y87825D02*
D03*
Y97985D02*
D03*
X1392585Y61665D02*
D03*
X1313815Y100965D02*
D03*
X1360835Y122115D02*
D03*
Y132275D02*
D03*
X1350075Y146880D02*
D03*
X1350802Y122115D02*
D03*
X1323878Y146880D02*
D03*
Y122115D02*
D03*
X1322070Y160285D02*
D03*
X1295845Y159880D02*
D03*
X1236329Y160285D02*
D03*
X1209377Y160756D02*
D03*
X1168400Y173990D02*
D03*
X1178687Y196331D02*
D03*
X1184893Y160886D02*
D03*
X1136191Y181206D02*
D03*
X1136583Y161554D02*
D03*
X1124217Y161059D02*
D03*
X1124427Y181206D02*
D03*
X1095779Y176126D02*
D03*
X1113875Y159154D02*
D03*
X1127760Y157480D02*
D03*
X1118235Y144145D02*
D03*
X1127760Y137160D02*
D03*
X1110142Y138797D02*
D03*
X1095779Y140104D02*
D03*
X935990Y427990D02*
D03*
X935355Y271278D02*
D03*
X936255Y254400D02*
D03*
X939165Y203297D02*
D03*
X935355Y229348D02*
D03*
X973260Y178081D02*
D03*
X983256Y169824D02*
D03*
X949960Y151765D02*
D03*
X995914Y233057D02*
D03*
X1009015Y286385D02*
D03*
X996747Y322270D02*
D03*
Y301950D02*
D03*
X1017905Y286385D02*
D03*
X968779Y275186D02*
D03*
X993371Y258214D02*
D03*
X995045Y253365D02*
D03*
Y272415D02*
D03*
Y281305D02*
D03*
X952500Y256540D02*
D03*
X954174Y242041D02*
D03*
X967105Y243715D02*
D03*
X980573Y242202D02*
D03*
X996473Y203200D02*
D03*
X972185Y202565D02*
D03*
Y184785D02*
D03*
X993775Y175895D02*
D03*
X988060Y151130D02*
D03*
X972185Y156845D02*
D03*
X948055Y173355D02*
D03*
X939165Y154305D02*
D03*
Y173355D02*
D03*
X916516Y224155D02*
D03*
X897330Y224075D02*
D03*
X890670Y224709D02*
D03*
X916516Y198337D02*
D03*
X897330D02*
D03*
X865716Y190573D02*
D03*
X855725D02*
D03*
X865716Y217700D02*
D03*
X855725D02*
D03*
X820420Y173990D02*
D03*
X830580D02*
D03*
X836295Y188595D02*
D03*
Y198755D02*
D03*
X796960Y207685D02*
D03*
X830580Y213360D02*
D03*
X820420D02*
D03*
X810260D02*
D03*
X320875Y527685D02*
D03*
X321692Y499954D02*
D03*
X300355Y568275D02*
D03*
Y546364D02*
D03*
X354330Y603862D02*
D03*
Y585470D02*
D03*
X464127Y695010D02*
D03*
X465072Y663510D02*
D03*
X483870Y664822D02*
D03*
X483733Y695120D02*
D03*
X531495Y694152D02*
D03*
X527937Y666124D02*
D03*
Y626722D02*
D03*
Y599440D02*
D03*
X484257D02*
D03*
X483870Y626722D02*
D03*
X465072D02*
D03*
Y593090D02*
D03*
X418322Y697230D02*
D03*
X418338Y657202D02*
D03*
X418322Y629920D02*
D03*
X418338Y596242D02*
D03*
X412623Y572770D02*
D03*
Y561292D02*
D03*
Y548640D02*
D03*
X467995Y567690D02*
D03*
Y556260D02*
D03*
X484229Y541020D02*
D03*
X478155D02*
D03*
X396875Y521335D02*
D03*
Y513090D02*
D03*
X445770Y500888D02*
D03*
X454660D02*
D03*
X542275Y497602D02*
D03*
X537210Y471785D02*
D03*
X537845Y466090D02*
D03*
X500380Y504825D02*
D03*
X440372Y440818D02*
D03*
X416190Y404973D02*
D03*
X411630Y438877D02*
D03*
X431165Y504825D02*
D03*
X426720Y490855D02*
D03*
X423845Y495170D02*
D03*
X419100Y506730D02*
D03*
X462529Y535940D02*
D03*
X436880D02*
D03*
X480060Y506730D02*
D03*
X490220Y506730D02*
D03*
Y527050D02*
D03*
X584452Y446391D02*
D03*
X546100D02*
D03*
X501287Y437515D02*
D03*
X518787Y490197D02*
D03*
X513502Y495482D02*
D03*
X473710Y503555D02*
D03*
X476072Y495482D02*
D03*
X474828Y488523D02*
D03*
X426720Y452628D02*
D03*
X406400Y530225D02*
D03*
Y504825D02*
D03*
X443277Y428022D02*
D03*
X418130Y437515D02*
D03*
X405130D02*
D03*
X420370Y427981D02*
D03*
X370205Y426085D02*
D03*
X316590Y344805D02*
D03*
X305875Y337010D02*
D03*
X303530Y213995D02*
D03*
X175260Y361950D02*
D03*
X201295Y413258D02*
D03*
X283210Y412750D02*
D03*
X332105Y420370D02*
D03*
Y385445D02*
D03*
X299085Y407035D02*
D03*
X290195D02*
D03*
X277495Y379095D02*
D03*
X299085Y385445D02*
D03*
X313690Y379730D02*
D03*
X307975Y343535D02*
D03*
X299085D02*
D03*
X293370Y369570D02*
D03*
Y359410D02*
D03*
Y349250D02*
D03*
X313690D02*
D03*
Y359410D02*
D03*
Y369570D02*
D03*
X370840Y347980D02*
D03*
X355275Y353441D02*
D03*
X356503Y347345D02*
D03*
X357505Y375285D02*
D03*
X342900Y369570D02*
D03*
X349885Y375285D02*
D03*
X374650Y341630D02*
D03*
X385588D02*
D03*
X383000Y269240D02*
D03*
X384974Y296528D02*
D03*
X379590Y299387D02*
D03*
X436880Y350520D02*
D03*
X438150Y339090D02*
D03*
X436880Y317500D02*
D03*
X401320Y350520D02*
D03*
Y285750D02*
D03*
X383000Y282256D02*
D03*
X388674Y286216D02*
D03*
X383000Y289673D02*
D03*
X1061000Y664000D02*
D03*
X396305Y263665D02*
D03*
X388620Y266063D02*
D03*
Y259967D02*
D03*
X352933Y259458D02*
D03*
X358768Y261222D02*
D03*
X1111000Y664000D02*
D03*
X612775Y289560D02*
D03*
X582167Y290321D02*
D03*
X763930Y389226D02*
D03*
X789940Y389890D02*
D03*
X762395Y321945D02*
D03*
X832225Y367307D02*
D03*
X790493Y419335D02*
D03*
X804545Y368000D02*
D03*
X796925Y317500D02*
D03*
X812165Y354965D02*
D03*
X826770Y349250D02*
D03*
X817880Y321945D02*
D03*
X838200Y316405D02*
D03*
X834638Y290195D02*
D03*
X802640Y302895D02*
D03*
X816350Y291710D02*
D03*
X824865Y282000D02*
D03*
Y271780D02*
D03*
X832485D02*
D03*
X786059Y283591D02*
D03*
X762395Y278591D02*
D03*
X689997Y339598D02*
D03*
X688390Y321310D02*
D03*
X691515Y358775D02*
D03*
Y349885D02*
D03*
X704922Y348560D02*
D03*
Y358591D02*
D03*
X704469Y325882D02*
D03*
X758814Y308478D02*
D03*
X704469Y278591D02*
D03*
Y288591D02*
D03*
X678050Y309306D02*
D03*
X681482Y290021D02*
D03*
Y266065D02*
D03*
X660400Y354330D02*
D03*
X666115Y321945D02*
D03*
X644525D02*
D03*
X662305Y302895D02*
D03*
X647700Y297180D02*
D03*
X653415Y290195D02*
D03*
Y266065D02*
D03*
X644169Y262229D02*
D03*
X639445Y272415D02*
D03*
X630555Y283845D02*
D03*
X588010Y261950D02*
D03*
X593725Y272150D02*
D03*
X597535Y283845D02*
D03*
X582930Y278130D02*
D03*
X529630Y284306D02*
D03*
X510540Y282575D02*
D03*
X496974Y291061D02*
D03*
X490630Y283845D02*
D03*
X471805Y315595D02*
D03*
X463550Y287020D02*
D03*
X465415Y272450D02*
D03*
X460375Y273685D02*
D03*
X418130Y257810D02*
D03*
X389890Y209550D02*
D03*
X322580Y201295D02*
D03*
X340360D02*
D03*
X350289Y211224D02*
D03*
X346590Y261795D02*
D03*
X354330Y248920D02*
D03*
X331590Y261795D02*
D03*
X327025Y238125D02*
D03*
X293370Y233680D02*
D03*
Y223520D02*
D03*
X308610Y213995D02*
D03*
X313690Y233680D02*
D03*
X318135Y238125D02*
D03*
Y259715D02*
D03*
X307975D02*
D03*
X293370Y243840D02*
D03*
Y254000D02*
D03*
X271145Y279400D02*
D03*
X263525Y316865D02*
D03*
Y288925D02*
D03*
X298625Y274760D02*
D03*
X298625Y289760D02*
D03*
X298625Y329760D02*
D03*
X298625Y314760D02*
D03*
X298625Y309760D02*
D03*
Y294760D02*
D03*
X263525Y297815D02*
D03*
Y307975D02*
D03*
X198755Y300355D02*
D03*
X177165D02*
D03*
X214630Y274320D02*
D03*
Y236220D02*
D03*
X241300Y297180D02*
D03*
Y307340D02*
D03*
X196215Y367030D02*
D03*
X191135Y328930D02*
D03*
X214630D02*
D03*
X219710Y367030D02*
D03*
X175260Y341630D02*
D03*
X164465Y342265D02*
D03*
X155575D02*
D03*
X161544Y37921D02*
D03*
Y81457D02*
D03*
X276098Y237973D02*
D03*
Y213995D02*
D03*
X199898Y227965D02*
D03*
X191135Y274955D02*
D03*
X131943Y287528D02*
D03*
Y279400D02*
D03*
X150495Y257175D02*
D03*
X159460Y271780D02*
D03*
X152400D02*
D03*
X139960Y257175D02*
D03*
X166370Y269875D02*
D03*
X182245Y274955D02*
D03*
X198755Y291465D02*
D03*
X140335Y343405D02*
D03*
X146050Y358010D02*
D03*
X129540Y320040D02*
D03*
X119380Y320040D02*
D03*
X129540Y340360D02*
D03*
X119380D02*
D03*
X181536Y322580D02*
D03*
Y330200D02*
D03*
X332740Y517039D02*
D03*
Y506880D02*
D03*
Y496570D02*
D03*
Y486410D02*
D03*
Y476250D02*
D03*
Y466090D02*
D03*
Y455930D02*
D03*
Y445919D02*
D03*
X525780Y394970D02*
D03*
X515620D02*
D03*
X505460D02*
D03*
X495300D02*
D03*
X485140D02*
D03*
X474980D02*
D03*
X464820D02*
D03*
X454660D02*
D03*
X582547Y401955D02*
D03*
X567307D02*
D03*
X551180D02*
D03*
X554607Y465709D02*
D03*
X575562D02*
D03*
X542138Y475361D02*
D03*
X566420Y478155D02*
D03*
X551180D02*
D03*
X571521Y499954D02*
D03*
X580007Y509882D02*
D03*
X572770Y542925D02*
D03*
X554607D02*
D03*
X519199Y562841D02*
D03*
X508635Y558800D02*
D03*
X513715Y541655D02*
D03*
Y532765D02*
D03*
X508635Y516890D02*
D03*
X487297Y534012D02*
D03*
X500380Y527050D02*
D03*
X480060Y527050D02*
D03*
X419100Y527050D02*
D03*
X304920Y687812D02*
D03*
X299720Y685800D02*
D03*
X327797Y665143D02*
D03*
X327638Y678592D02*
D03*
X346710Y664210D02*
D03*
X340739Y656590D02*
D03*
X334010Y654050D02*
D03*
X325120Y653392D02*
D03*
X314248Y660648D02*
D03*
X337202Y678565D02*
D03*
X377952Y616585D02*
D03*
X341757Y629920D02*
D03*
X340233Y640080D02*
D03*
X304038Y616585D02*
D03*
X284480D02*
D03*
X248285Y635000D02*
D03*
X294920Y687070D02*
D03*
X289920D02*
D03*
X284920D02*
D03*
X260350Y741680D02*
D03*
X261620Y722630D02*
D03*
X242570Y720090D02*
D03*
X237490Y739140D02*
D03*
X233680Y734060D02*
D03*
Y728980D02*
D03*
X260985Y735250D02*
D03*
Y730250D02*
D03*
X107061Y705250D02*
D03*
X122682Y810260D02*
D03*
X100965Y809625D02*
D03*
X171657Y848360D02*
D03*
X283845Y826770D02*
D03*
X274937Y788820D02*
D03*
X272646Y815109D02*
D03*
X259715Y813435D02*
D03*
X329565Y808990D02*
D03*
X365760Y789940D02*
D03*
X356235Y804545D02*
D03*
X365760Y810260D02*
D03*
X373305Y837468D02*
D03*
X410845Y839470D02*
D03*
X401637Y837565D02*
D03*
X388620Y868426D02*
D03*
X312420Y838200D02*
D03*
X300260Y842380D02*
D03*
X267970Y871220D02*
D03*
X200660Y857250D02*
D03*
X205740Y810260D02*
D03*
X191970Y772160D02*
D03*
Y763778D02*
D03*
X172774Y805996D02*
D03*
X205740Y743833D02*
D03*
X173101Y723900D02*
D03*
X76200Y765175D02*
D03*
X212090Y781685D02*
D03*
Y721995D02*
D03*
X107315Y731520D02*
D03*
X106045Y773430D02*
D03*
X205740Y694055D02*
D03*
X265170Y689405D02*
D03*
X358140Y694055D02*
D03*
X365760Y670560D02*
D03*
Y680720D02*
D03*
X345440D02*
D03*
Y670560D02*
D03*
X312420D02*
D03*
Y680720D02*
D03*
X280670Y670560D02*
D03*
Y680720D02*
D03*
X260350D02*
D03*
Y670560D02*
D03*
Y656590D02*
D03*
X177800Y648335D02*
D03*
X215900Y758190D02*
D03*
Y748030D02*
D03*
X109220D02*
D03*
Y758190D02*
D03*
X167640Y806450D02*
D03*
X157480D02*
D03*
Y786130D02*
D03*
X167640D02*
D03*
X195580Y758190D02*
D03*
Y748030D02*
D03*
X129540D02*
D03*
Y758190D02*
D03*
X167640Y782320D02*
D03*
X157480D02*
D03*
X191770Y748030D02*
D03*
Y758190D02*
D03*
X133350D02*
D03*
Y748030D02*
D03*
X167640Y725170D02*
D03*
X157480D02*
D03*
X167640Y721360D02*
D03*
X157480D02*
D03*
X167640Y701040D02*
D03*
X157480D02*
D03*
X106680Y652780D02*
D03*
X69821Y600710D02*
D03*
X59690D02*
D03*
X49501D02*
D03*
X100965Y685490D02*
D03*
Y836620D02*
D03*
X113665Y252730D02*
D03*
Y393700D02*
D03*
X819150Y699135D02*
D03*
X808990D02*
D03*
X236220Y542290D02*
D03*
X226060D02*
D03*
X504190Y589280D02*
D03*
X694690D02*
D03*
X982980D02*
D03*
X944880Y731520D02*
D03*
X930275Y784225D02*
D03*
Y775335D02*
D03*
X777875Y720725D02*
D03*
Y729615D02*
D03*
X752602Y746125D02*
D03*
X762000Y704215D02*
D03*
X741680Y715010D02*
D03*
Y735330D02*
D03*
X547370Y721360D02*
D03*
X566420Y725170D02*
D03*
X509270Y732790D02*
D03*
X512445Y768350D02*
D03*
X503555Y761365D02*
D03*
Y752475D02*
D03*
X610235Y763270D02*
D03*
Y730250D02*
D03*
X631825D02*
D03*
Y763016D02*
D03*
X621665Y787400D02*
D03*
X626745Y784225D02*
D03*
X642620Y789940D02*
D03*
X648936Y788266D02*
D03*
X668251D02*
D03*
X665480Y947420D02*
D03*
X837565Y901065D02*
D03*
X887095Y927735D02*
D03*
X1226820Y1035050D02*
D03*
X1298575Y836295D02*
D03*
X1139190Y923290D02*
D03*
X657352D02*
D03*
X712150Y981710D02*
D03*
X710237Y964532D02*
D03*
X700654Y962660D02*
D03*
X729550Y929650D02*
D03*
X739550Y929650D02*
D03*
X739550Y993050D02*
D03*
X678815Y965835D02*
D03*
X680085Y977265D02*
D03*
X695960Y1026160D02*
D03*
X665480Y1018032D02*
D03*
Y1008888D02*
D03*
X805180Y914082D02*
D03*
X793750Y913765D02*
D03*
X783590D02*
D03*
X1863725Y1011555D02*
D03*
X1842135Y1018794D02*
D03*
X1812831Y970280D02*
D03*
X1774190Y960120D02*
D03*
X1731010Y998335D02*
D03*
X1727708Y1043145D02*
D03*
X1730660Y1006725D02*
D03*
X1731010Y988060D02*
D03*
X1708150Y960120D02*
D03*
X1764030D02*
D03*
X2022738Y637305D02*
D03*
X1718310Y960120D02*
D03*
X1742440D02*
D03*
X2022738Y586506D02*
D03*
X1996209Y576984D02*
D03*
X1697990Y960120D02*
D03*
X1565010Y894080D02*
D03*
X1553210Y852170D02*
D03*
X1301000Y654000D02*
D03*
X1281000Y704000D02*
D03*
X1271000Y724000D02*
D03*
X1301000Y694000D02*
D03*
X1281000Y674000D02*
D03*
X1251000Y744000D02*
D03*
X1241000Y724000D02*
D03*
X1251000Y694000D02*
D03*
X1251000Y664000D02*
D03*
Y684000D02*
D03*
X1241000Y714000D02*
D03*
X1301000Y614000D02*
D03*
X1271000Y634000D02*
D03*
Y624000D02*
D03*
X1291000Y604000D02*
D03*
Y564000D02*
D03*
X1271000Y584000D02*
D03*
X1251000Y644000D02*
D03*
X1261000Y584000D02*
D03*
Y554000D02*
D03*
X1251000Y604000D02*
D03*
X2032879Y393446D02*
D03*
Y495046D02*
D03*
Y444246D02*
D03*
X2083740Y329565D02*
D03*
X2065655Y344170D02*
D03*
X2032879Y342646D02*
D03*
X2022738Y535705D02*
D03*
X2011449Y494434D02*
D03*
X2087220Y311785D02*
D03*
X2087880Y262095D02*
D03*
X2083740Y244395D02*
D03*
X2065020Y204470D02*
D03*
X2042968Y204415D02*
D03*
X2032879Y291846D02*
D03*
X1995805Y236855D02*
D03*
Y201295D02*
D03*
X1696720Y483235D02*
D03*
X1675765Y405765D02*
D03*
X1638935Y384175D02*
D03*
X1466850Y345440D02*
D03*
X1674495Y109474D02*
D03*
X1847215D02*
D03*
X1842770Y63500D02*
D03*
X1670050Y63330D02*
D03*
X1211000Y744000D02*
D03*
X1171000Y734000D02*
D03*
X1191000Y724000D02*
D03*
X1231000Y704000D02*
D03*
X1131000Y744000D02*
D03*
X1141000Y724000D02*
D03*
X1131000Y734000D02*
D03*
X1151000Y704000D02*
D03*
X1111000Y704000D02*
D03*
X1221000Y674000D02*
D03*
X1161000Y694000D02*
D03*
X1141000Y694000D02*
D03*
Y674000D02*
D03*
X1221000Y634000D02*
D03*
X1171000Y664000D02*
D03*
X1121000Y664000D02*
D03*
X1131000Y614000D02*
D03*
X1121000Y634000D02*
D03*
X1111000Y634000D02*
D03*
X1121000Y614000D02*
D03*
X923059Y1025121D02*
D03*
X908685Y1010285D02*
D03*
X1091000Y744000D02*
D03*
X1081000D02*
D03*
X704850Y933450D02*
D03*
X772795Y913765D02*
D03*
X1101000Y704000D02*
D03*
Y724000D02*
D03*
X1071000Y674000D02*
D03*
X1101000Y624000D02*
D03*
X1091000Y654000D02*
D03*
X1091000Y624000D02*
D03*
X1231000Y584000D02*
D03*
X1181000Y584000D02*
D03*
X1121000D02*
D03*
X1131000Y574000D02*
D03*
X1071000Y604000D02*
D03*
X1091000Y574000D02*
D03*
X1221000Y554000D02*
D03*
X1101000Y544000D02*
D03*
X1161000Y534000D02*
D03*
X1061000Y554000D02*
D03*
Y524000D02*
D03*
X824230Y1014730D02*
D03*
X805180Y997803D02*
D03*
X798830Y947420D02*
D03*
X770591Y939809D02*
D03*
X722630Y895350D02*
D03*
X724530Y998080D02*
D03*
X818515Y901065D02*
D03*
X798830Y927735D02*
D03*
X788670D02*
D03*
X778510D02*
D03*
X1882869Y970280D02*
D03*
X1994535Y887730D02*
D03*
X1894078Y960915D02*
D03*
X1754632Y1043145D02*
D03*
X1752660Y1006725D02*
D03*
X1832737Y995426D02*
D03*
X1751330Y988060D02*
D03*
Y998335D02*
D03*
X2031746Y670560D02*
D03*
X2031506Y642620D02*
D03*
X1999370Y643763D02*
D03*
X1565010Y914400D02*
D03*
Y904240D02*
D03*
X1553845Y780415D02*
D03*
X1553210Y812800D02*
D03*
X1510466Y950396D02*
D03*
X1503017Y957844D02*
D03*
X1517650Y943212D02*
D03*
X1311000Y754000D02*
D03*
X1459865Y657225D02*
D03*
X2031746Y626110D02*
D03*
X2031506Y598170D02*
D03*
X1996180Y593902D02*
D03*
X2041830Y549910D02*
D03*
X2021205Y507365D02*
D03*
X2030165Y506095D02*
D03*
X1999370Y542163D02*
D03*
Y491363D02*
D03*
Y440563D02*
D03*
X1802130Y461010D02*
D03*
X1687830Y483235D02*
D03*
X1541145Y581025D02*
D03*
X1527175Y629285D02*
D03*
X1530350Y609600D02*
D03*
X1530985Y550545D02*
D03*
X1311000Y494000D02*
D03*
X1271000Y744000D02*
D03*
X1251000Y724000D02*
D03*
X1301000Y714000D02*
D03*
X1261000Y684000D02*
D03*
X1231000Y744000D02*
D03*
X1251000Y714000D02*
D03*
X1241000Y694000D02*
D03*
X1211000Y704000D02*
D03*
X1191000Y684000D02*
D03*
X1301000Y674000D02*
D03*
X1261000Y644000D02*
D03*
X1301000Y634000D02*
D03*
X1291000D02*
D03*
X1231000Y634000D02*
D03*
X1211000Y654000D02*
D03*
X1191000D02*
D03*
X1201000Y634000D02*
D03*
X1191000Y644000D02*
D03*
X1181000Y744000D02*
D03*
X1141000D02*
D03*
X1161000Y704000D02*
D03*
X1141000Y734000D02*
D03*
X1111000Y744000D02*
D03*
X1121000Y724000D02*
D03*
X1101000Y744000D02*
D03*
X1111000Y714000D02*
D03*
X1101000Y714000D02*
D03*
X1171000Y644000D02*
D03*
X1151000D02*
D03*
X1161000Y644000D02*
D03*
X1181000Y634000D02*
D03*
X1111000Y674000D02*
D03*
X1071000Y694000D02*
D03*
X1141000Y644000D02*
D03*
X1101000Y634000D02*
D03*
X1071000Y654000D02*
D03*
X1091000Y634000D02*
D03*
X1301000Y624000D02*
D03*
X1291000D02*
D03*
X1271000Y604000D02*
D03*
X1291000Y584000D02*
D03*
X1251000Y594000D02*
D03*
X1271000Y564000D02*
D03*
X1251000Y564000D02*
D03*
X1211000Y614000D02*
D03*
X1211000Y604000D02*
D03*
X1201000Y624000D02*
D03*
X1241000Y564000D02*
D03*
X1191000Y594000D02*
D03*
Y564000D02*
D03*
X1291000Y544000D02*
D03*
X1271000Y504000D02*
D03*
X1261000D02*
D03*
X1241000Y534000D02*
D03*
Y524000D02*
D03*
X1201000Y534000D02*
D03*
X1191000Y514000D02*
D03*
Y504000D02*
D03*
X1171000Y614000D02*
D03*
X1171000Y594000D02*
D03*
X1170940Y604000D02*
D03*
X1163320Y594360D02*
D03*
X1161000Y624000D02*
D03*
X1131000Y604000D02*
D03*
X1121000D02*
D03*
X1101000D02*
D03*
X1171000Y534000D02*
D03*
X1141000Y574000D02*
D03*
X1131000Y524000D02*
D03*
X1111000Y514000D02*
D03*
X1101000Y554000D02*
D03*
X1071000Y574000D02*
D03*
X1081000Y534000D02*
D03*
X1071000Y534000D02*
D03*
X1999370Y389763D02*
D03*
X2083740Y379095D02*
D03*
X2079600Y311785D02*
D03*
X2065655Y369570D02*
D03*
X2080260Y262095D02*
D03*
X2065020Y224790D02*
D03*
X2054675D02*
D03*
X1999370Y338963D02*
D03*
Y288163D02*
D03*
X1682115Y379730D02*
D03*
X1550068Y345440D02*
D03*
X1673860Y226695D02*
D03*
X1590675Y290830D02*
D03*
X2083740Y194865D02*
D03*
X2124075Y90170D02*
D03*
X1951725Y193410D02*
D03*
X1913625D02*
D03*
X1875525D02*
D03*
X1966595Y111125D02*
D03*
X2124075Y52070D02*
D03*
X2123175Y39370D02*
D03*
X2091921Y49934D02*
D03*
X2067560Y48260D02*
D03*
X2053359Y49934D02*
D03*
X2025015Y89535D02*
D03*
X2038720Y20955D02*
D03*
X1713865Y214200D02*
D03*
X1837425Y193410D02*
D03*
X1727835Y179656D02*
D03*
X1680845Y187325D02*
D03*
X1793875Y111125D02*
D03*
X1837817Y86106D02*
D03*
X1842770Y73660D02*
D03*
X1665097Y86106D02*
D03*
X1670050Y73660D02*
D03*
X1446530Y345440D02*
D03*
X1380300Y258380D02*
D03*
Y248220D02*
D03*
X1073594Y285341D02*
D03*
X1080000Y266000D02*
D03*
X1072000Y250000D02*
D03*
Y258000D02*
D03*
X1087314Y238000D02*
D03*
X1080000Y226000D02*
D03*
X1072000Y218000D02*
D03*
Y226000D02*
D03*
X1392585Y154500D02*
D03*
X1362509Y145206D02*
D03*
X1355120Y185615D02*
D03*
X1360835Y113225D02*
D03*
X1489710Y69850D02*
D03*
X1394894Y102027D02*
D03*
Y83784D02*
D03*
X1489710Y59690D02*
D03*
Y49530D02*
D03*
X1358295Y97350D02*
D03*
X1292225Y100965D02*
D03*
X1083310Y191660D02*
D03*
Y175660D02*
D03*
X1056541Y202541D02*
D03*
X1064000Y178000D02*
D03*
X1083310Y159660D02*
D03*
X1060471Y151304D02*
D03*
X1132840Y55880D02*
D03*
X1122680D02*
D03*
X1112520D02*
D03*
X1102360D02*
D03*
X1092200D02*
D03*
X1061720D02*
D03*
X1082040D02*
D03*
X1071880D02*
D03*
X921385Y994410D02*
D03*
X908685Y1001395D02*
D03*
X772795Y932815D02*
D03*
X744855Y1009015D02*
D03*
X1051000Y754000D02*
D03*
X695960Y991870D02*
D03*
X706120D02*
D03*
X700809Y952096D02*
D03*
X685800Y991870D02*
D03*
X674370Y977900D02*
D03*
X666425Y963351D02*
D03*
X680085Y958215D02*
D03*
X666750Y841375D02*
D03*
X1051000Y494000D02*
D03*
X161290Y861836D02*
D03*
X133350Y862076D02*
D03*
X1016000Y274000D02*
D03*
Y250000D02*
D03*
X1024000D02*
D03*
X1016000Y258000D02*
D03*
Y234000D02*
D03*
X758836Y420635D02*
D03*
X764805Y419100D02*
D03*
X758328Y415025D02*
D03*
X1032000Y218000D02*
D03*
X1024035Y194035D02*
D03*
X1024000Y186000D02*
D03*
X1016000Y210000D02*
D03*
X1056000Y178000D02*
D03*
X1032000Y170000D02*
D03*
X1016000D02*
D03*
X1040130Y165100D02*
D03*
X1032000Y154000D02*
D03*
X1004690Y191660D02*
D03*
Y175660D02*
D03*
Y159660D02*
D03*
X1006343Y147134D02*
D03*
X1046480Y55880D02*
D03*
X1016000D02*
D03*
X1005840D02*
D03*
X995680D02*
D03*
X985520D02*
D03*
X955040D02*
D03*
X944880D02*
D03*
X975360D02*
D03*
X965200D02*
D03*
X934720D02*
D03*
X924560D02*
D03*
X130810Y59690D02*
D03*
Y69850D02*
D03*
Y49530D02*
D03*
X1201000Y744000D02*
D03*
Y724000D02*
D03*
X1171000Y704000D02*
D03*
X1191000D02*
D03*
Y714000D02*
D03*
X1231000Y724000D02*
D03*
X1201000Y734000D02*
D03*
X1181000Y694000D02*
D03*
X728980Y1003300D02*
D03*
X948055Y1007110D02*
D03*
Y994410D02*
D03*
Y969010D02*
D03*
X921385Y981710D02*
D03*
Y1007110D02*
D03*
X2025015Y80645D02*
D03*
X2063204Y34925D02*
D03*
Y43815D02*
D03*
X389166Y991870D02*
D03*
X401955Y1027775D02*
D03*
X512534Y926465D02*
D03*
X572135Y930186D02*
D03*
X375374Y924560D02*
D03*
X312420Y959574D02*
D03*
X304800Y937984D02*
D03*
X260350Y972820D02*
D03*
X280162Y988088D02*
D03*
X218440Y923836D02*
D03*
X236140Y948544D02*
D03*
X245322Y947420D02*
D03*
X597676Y952500D02*
D03*
X597916Y980440D02*
D03*
X161290Y938135D02*
D03*
X133350Y937895D02*
D03*
X378460Y1010920D02*
D03*
X394335Y943990D02*
D03*
X407035D02*
D03*
X405130Y965200D02*
D03*
Y975360D02*
D03*
X384810D02*
D03*
Y965200D02*
D03*
X156210Y930910D02*
D03*
X206822Y958469D02*
D03*
X143510Y961390D02*
D03*
X100076Y924687D02*
D03*
X123444Y945515D02*
D03*
X113030Y947420D02*
D03*
X226140Y923525D02*
D03*
X230863Y968225D02*
D03*
X166107Y964184D02*
D03*
X202140Y956845D02*
D03*
X196640D02*
D03*
X1515110Y544830D02*
D03*
X1510030Y589280D02*
D03*
Y599440D02*
D03*
Y609600D02*
D03*
X1459865Y678815D02*
D03*
X1562735Y780415D02*
D03*
X1590040Y450850D02*
D03*
X1451725Y461374D02*
D03*
X1802130Y440690D02*
D03*
X1593834Y168945D02*
D03*
X1031240Y55880D02*
D03*
X1127760Y45720D02*
D03*
X897890Y74930D02*
D03*
X81033Y945455D02*
D03*
X205475Y71138D02*
D03*
Y110479D02*
D03*
X1301115Y34925D02*
D03*
X1251335D02*
D03*
X1242445D02*
D03*
X1310005D02*
D03*
X2124445Y77470D02*
D03*
Y64770D02*
D03*
X2071467Y77373D02*
D03*
X2023449Y60706D02*
D03*
X2013955Y57658D02*
D03*
X2091921Y66906D02*
D03*
X2067560Y68580D02*
D03*
X2053359Y66906D02*
D03*
X1748155Y974725D02*
D03*
X1921002Y960915D02*
D03*
X1741660Y1035615D02*
D03*
X1774660Y1006725D02*
D03*
X1763660D02*
D03*
X1719660D02*
D03*
X1708660D02*
D03*
X1697660D02*
D03*
X2433320Y666750D02*
D03*
X2446020D02*
D03*
X2420620D02*
D03*
X2407920D02*
D03*
X2395220D02*
D03*
X2382520D02*
D03*
X2319020D02*
D03*
X2331720D02*
D03*
X2344420D02*
D03*
X2357120D02*
D03*
X2369820D02*
D03*
X2255520D02*
D03*
X2268220D02*
D03*
X2280920D02*
D03*
X2293620D02*
D03*
X2306320D02*
D03*
X2509520D02*
D03*
X2496820D02*
D03*
X2484120D02*
D03*
X2471420D02*
D03*
X2458720D02*
D03*
Y646430D02*
D03*
X2471420D02*
D03*
X2484120D02*
D03*
X2496820D02*
D03*
X2509520D02*
D03*
X2306320D02*
D03*
X2293620D02*
D03*
X2280920D02*
D03*
X2268220D02*
D03*
X2255520D02*
D03*
X2369820D02*
D03*
X2357120D02*
D03*
X2344420D02*
D03*
X2331720D02*
D03*
X2319020D02*
D03*
X2382520D02*
D03*
X2395220D02*
D03*
X2407920D02*
D03*
X2420620D02*
D03*
X2446020D02*
D03*
X2433320D02*
D03*
Y601980D02*
D03*
X2446020D02*
D03*
X2420620D02*
D03*
X2407920D02*
D03*
X2395220D02*
D03*
X2382520D02*
D03*
X2319020D02*
D03*
X2331720D02*
D03*
X2344420D02*
D03*
X2357120D02*
D03*
X2369820D02*
D03*
X2255520D02*
D03*
X2268220D02*
D03*
X2280920D02*
D03*
X2293620D02*
D03*
X2306320D02*
D03*
X2509520D02*
D03*
X2496820D02*
D03*
X2484120D02*
D03*
X2471420D02*
D03*
X2458720D02*
D03*
Y622300D02*
D03*
X2471420D02*
D03*
X2484120D02*
D03*
X2496820D02*
D03*
X2509520D02*
D03*
X2306320D02*
D03*
X2293620D02*
D03*
X2280920D02*
D03*
X2268220D02*
D03*
X2255520D02*
D03*
X2369820D02*
D03*
X2357120D02*
D03*
X2344420D02*
D03*
X2331720D02*
D03*
X2319020D02*
D03*
X2382520D02*
D03*
X2395220D02*
D03*
X2407920D02*
D03*
X2420620D02*
D03*
X2446020D02*
D03*
X2433320D02*
D03*
X2613660Y646430D02*
D03*
X2576830Y811530D02*
D03*
X3025140Y648495D02*
D03*
Y695165D02*
D03*
X3030220Y614205D02*
D03*
Y643095D02*
D03*
X2763949Y758250D02*
D03*
X2489675Y776478D02*
D03*
X2460785D02*
D03*
X2558215Y729940D02*
D03*
X2587105D02*
D03*
X2542105D02*
D03*
X2513215D02*
D03*
X2524375Y1004624D02*
D03*
X2620772Y765335D02*
D03*
X2598707Y708660D02*
D03*
X2732205Y729940D02*
D03*
X2761095D02*
D03*
X3039360Y671830D02*
D03*
X2814796Y715518D02*
D03*
X2785905D02*
D03*
X2223135Y977265D02*
D03*
X2138045D02*
D03*
X2613660Y382270D02*
D03*
X2614930Y340360D02*
D03*
Y334010D02*
D03*
X2706370Y355600D02*
D03*
X2569210Y372110D02*
D03*
X2203450Y328374D02*
D03*
Y323850D02*
D03*
X2569210Y367411D02*
D03*
X2244090Y391550D02*
D03*
X2227340Y391550D02*
D03*
X2260840Y348160D02*
D03*
X2260600Y376100D02*
D03*
X2227580D02*
D03*
X2227340Y348160D02*
D03*
X2260840Y264160D02*
D03*
X2260600Y292100D02*
D03*
X2227580D02*
D03*
X2227340Y264160D02*
D03*
X2665095Y85645D02*
D03*
X2107565Y544195D02*
D03*
Y537845D02*
D03*
X2107485Y498475D02*
D03*
Y507365D02*
D03*
X2231660Y153670D02*
D03*
X2773680Y38100D02*
D03*
X2783840D02*
D03*
Y55880D02*
D03*
X2773680D02*
D03*
X2235835Y77470D02*
D03*
X2258060Y86360D02*
D03*
X2247900D02*
D03*
X2237740D02*
D03*
X2258060Y106680D02*
D03*
X2247900D02*
D03*
X2237740D02*
D03*
X2607310Y316997D02*
D03*
X2147955Y350491D02*
D03*
Y357717D02*
D03*
X2147570Y230980D02*
D03*
Y208120D02*
D03*
X2147955Y290407D02*
D03*
Y283181D02*
D03*
X2147570Y275590D02*
D03*
Y298450D02*
D03*
X2009244Y210158D02*
D03*
Y228547D02*
D03*
X2137740Y194865D02*
D03*
Y244395D02*
D03*
X2160905Y215265D02*
D03*
Y224155D02*
D03*
Y358775D02*
D03*
Y349885D02*
D03*
X2134260Y262095D02*
D03*
X2137740Y329565D02*
D03*
X2133600Y311785D02*
D03*
X2137740Y379095D02*
D03*
X2346325Y459425D02*
D03*
X2340841Y455064D02*
D03*
X2346325Y481965D02*
D03*
X2331085Y467995D02*
D03*
X2404110Y528320D02*
D03*
X2375866Y516255D02*
D03*
X2351405Y504825D02*
D03*
X2402919Y503060D02*
D03*
X2418715Y522605D02*
D03*
X2463165Y493395D02*
D03*
X2451735Y502285D02*
D03*
X2711450Y607314D02*
D03*
X2739390Y607554D02*
D03*
X2711450Y533146D02*
D03*
X2739390Y532906D02*
D03*
X2816065Y540650D02*
D03*
X2861202Y541020D02*
D03*
X2747104Y363220D02*
D03*
Y346710D02*
D03*
X2613501Y388660D02*
D03*
Y375660D02*
D03*
Y369160D02*
D03*
Y349660D02*
D03*
X2613387Y328231D02*
D03*
X2758036Y388851D02*
D03*
X2753893Y400787D02*
D03*
X2491265Y332994D02*
D03*
X2505710Y314960D02*
D03*
X2594832Y441960D02*
D03*
X2565941D02*
D03*
X2555240Y414020D02*
D03*
X2553175Y370840D02*
D03*
X2607310Y389935D02*
D03*
X2596896D02*
D03*
X2586990D02*
D03*
X2603269Y367942D02*
D03*
X2623185Y363855D02*
D03*
X2591181Y354965D02*
D03*
X2591435Y363855D02*
D03*
X2591406Y343535D02*
D03*
X2607310Y328930D02*
D03*
X2597150D02*
D03*
X2563654Y338582D02*
D03*
X2592545Y311658D02*
D03*
X2565876Y332994D02*
D03*
X2536985D02*
D03*
X2553335Y309245D02*
D03*
X2571750Y294640D02*
D03*
X2559050D02*
D03*
X2565941Y276860D02*
D03*
X2594832D02*
D03*
X2706370Y361950D02*
D03*
X2709445Y349660D02*
D03*
Y343160D02*
D03*
X2708720Y323660D02*
D03*
X2709445Y330160D02*
D03*
X2771140Y322580D02*
D03*
X2771140Y332740D02*
D03*
X2771140Y386514D02*
D03*
Y396240D02*
D03*
X2731770Y443230D02*
D03*
X2706370Y411480D02*
D03*
X2721610Y401955D02*
D03*
X2706370Y401320D02*
D03*
X2656371Y450850D02*
D03*
X2713990Y450610D02*
D03*
X2741930Y450850D02*
D03*
X2657930Y267970D02*
D03*
X2713990Y268210D02*
D03*
X2741930Y267970D02*
D03*
X2629990Y484110D02*
D03*
X2657930Y483870D02*
D03*
X2713990Y484110D02*
D03*
X2741930Y483870D02*
D03*
X2629990Y234710D02*
D03*
X2657930Y234950D02*
D03*
X2741930D02*
D03*
X2713990Y234710D02*
D03*
X2706370Y311150D02*
D03*
Y317500D02*
D03*
X2846757Y484341D02*
D03*
X1241000Y504000D02*
D03*
X1251000D02*
D03*
X1201000Y514000D02*
D03*
Y500752D02*
D03*
X1201000Y524000D02*
D03*
X1231000Y524000D02*
D03*
X1081000Y634000D02*
D03*
X1048929Y549000D02*
D03*
X1082833Y523748D02*
D03*
X1051000Y544000D02*
D03*
X1141730Y565150D02*
D03*
X1129061Y554000D02*
D03*
Y563445D02*
D03*
X1261000Y704000D02*
D03*
X1191000Y624000D02*
D03*
X1181000Y614000D02*
D03*
X1151000Y634000D02*
D03*
Y614000D02*
D03*
X1161000Y604000D02*
D03*
X1141000Y594000D02*
D03*
X1151000Y584000D02*
D03*
X1211000Y624000D02*
D03*
X1141000Y654000D02*
D03*
X1201000Y644000D02*
D03*
Y654000D02*
D03*
X1181000Y644000D02*
D03*
X1051000Y554000D02*
D03*
X1071000Y564000D02*
D03*
X1291000Y724000D02*
D03*
X1311000Y744000D02*
D03*
X1301000D02*
D03*
Y754000D02*
D03*
X1261000Y744000D02*
D03*
Y754000D02*
D03*
X1211000Y734000D02*
D03*
X1221000Y724000D02*
D03*
X1231000Y734000D02*
D03*
X1241000D02*
D03*
X1251000D02*
D03*
X1271000Y714000D02*
D03*
X1311000D02*
D03*
X1291000Y614000D02*
D03*
X1311000Y664000D02*
D03*
X1301000D02*
D03*
X1291000Y674000D02*
D03*
X1271000Y684000D02*
D03*
Y704000D02*
D03*
X1241000D02*
D03*
X1221000D02*
D03*
X1211000Y694000D02*
D03*
X1201000D02*
D03*
Y684000D02*
D03*
X1211000D02*
D03*
Y674000D02*
D03*
X1201000D02*
D03*
X1191000D02*
D03*
X1201000Y664000D02*
D03*
X1251000Y654000D02*
D03*
X1241000Y644000D02*
D03*
X1241000Y654000D02*
D03*
X1221000Y644000D02*
D03*
X1301000Y604000D02*
D03*
X1281000Y614000D02*
D03*
X1271000D02*
D03*
X1261000D02*
D03*
X1251000D02*
D03*
X1241000D02*
D03*
X1231000D02*
D03*
X1211000Y594000D02*
D03*
Y644000D02*
D03*
X1161000Y614000D02*
D03*
X1191000Y634000D02*
D03*
Y604000D02*
D03*
X1191000Y614000D02*
D03*
X1201000Y604000D02*
D03*
X1281000Y584000D02*
D03*
X1301000D02*
D03*
X1291000Y574000D02*
D03*
X1301000Y554000D02*
D03*
X1291000D02*
D03*
X1281000Y544000D02*
D03*
X1311000Y514000D02*
D03*
X1281000Y514000D02*
D03*
X1231000Y544000D02*
D03*
Y534000D02*
D03*
X1061000Y734000D02*
D03*
X1056000Y250000D02*
D03*
X1064000Y258000D02*
D03*
X1064000Y266000D02*
D03*
X1121000Y524000D02*
D03*
X1111000Y524000D02*
D03*
X1087120Y259080D02*
D03*
X1006343Y222000D02*
D03*
X1056000Y210000D02*
D03*
X1064000Y210000D02*
D03*
X1072000Y202000D02*
D03*
X1004880Y200270D02*
D03*
X1004690Y164340D02*
D03*
Y180340D02*
D03*
X1083310Y164340D02*
D03*
Y180340D02*
D03*
X1016000Y146000D02*
D03*
X1024000Y178000D02*
D03*
X1040000Y178000D02*
D03*
X1141000Y544000D02*
D03*
X1141531Y554000D02*
D03*
X1151000D02*
D03*
Y564000D02*
D03*
X1161000Y564000D02*
D03*
X1080000Y202000D02*
D03*
X1036000Y174000D02*
D03*
X1040000Y186000D02*
D03*
X1032000Y210000D02*
D03*
X1056000Y148343D02*
D03*
Y186000D02*
D03*
Y170000D02*
D03*
X1072000Y162000D02*
D03*
Y154000D02*
D03*
X1201000Y554000D02*
D03*
X1181000Y574000D02*
D03*
X1161000Y554000D02*
D03*
Y634000D02*
D03*
X1151000Y654000D02*
D03*
X1111000Y684000D02*
D03*
X1131000Y664000D02*
D03*
X1131000Y634000D02*
D03*
X1131000Y644000D02*
D03*
X1101000Y694000D02*
D03*
X1091000D02*
D03*
X1081000Y694000D02*
D03*
X1061000Y674000D02*
D03*
X1071000Y664000D02*
D03*
X1101000D02*
D03*
Y654000D02*
D03*
X1101000Y644000D02*
D03*
X1121000D02*
D03*
X1111000Y644000D02*
D03*
X1091000Y644000D02*
D03*
X1081000D02*
D03*
X1071000Y634000D02*
D03*
X1061000D02*
D03*
X1071000Y624000D02*
D03*
X1061000D02*
D03*
X1081000D02*
D03*
X1101000Y594000D02*
D03*
X1091000D02*
D03*
X1111000Y584000D02*
D03*
X1101000D02*
D03*
X1111000Y574000D02*
D03*
X1101000D02*
D03*
X1091000Y584000D02*
D03*
X1081000D02*
D03*
X1071000Y554000D02*
D03*
X1091000Y554000D02*
D03*
X1081000D02*
D03*
X1071000Y544000D02*
D03*
X1064000Y162000D02*
D03*
X1072000Y178000D02*
D03*
Y186000D02*
D03*
X1064000Y202000D02*
D03*
X1072000Y194000D02*
D03*
Y210000D02*
D03*
X1080000Y218000D02*
D03*
X1016000Y154000D02*
D03*
X1024000Y162000D02*
D03*
X1016000D02*
D03*
X1024000Y170000D02*
D03*
X1016000Y178000D02*
D03*
Y186000D02*
D03*
Y194000D02*
D03*
X1008000Y210000D02*
D03*
X1016000Y202000D02*
D03*
X1024000D02*
D03*
X1141000Y584000D02*
D03*
X1131000D02*
D03*
X1161000Y574000D02*
D03*
X1151000D02*
D03*
X1171000Y504000D02*
D03*
X1181000Y524000D02*
D03*
X1191000D02*
D03*
X1201000Y494000D02*
D03*
X1121000Y574000D02*
D03*
X1151000Y544000D02*
D03*
X1121000Y554000D02*
D03*
X1131000Y544000D02*
D03*
X1121000D02*
D03*
X1131000Y534000D02*
D03*
X1121000D02*
D03*
X1101000D02*
D03*
X1091000D02*
D03*
Y524000D02*
D03*
X1071000Y524000D02*
D03*
X1061000Y514000D02*
D03*
X1066296Y489000D02*
D03*
X1071000Y494000D02*
D03*
X1081000Y504000D02*
D03*
X1091000Y514000D02*
D03*
X1101000Y524000D02*
D03*
X1111000Y534000D02*
D03*
X1141000Y524000D02*
D03*
Y514000D02*
D03*
X1131000Y514000D02*
D03*
X1151000Y534000D02*
D03*
X1161000Y514000D02*
D03*
Y504000D02*
D03*
X1141000Y494000D02*
D03*
X1068000Y283657D02*
D03*
X1072000Y266000D02*
D03*
X1080000Y250000D02*
D03*
X1064000Y234000D02*
D03*
X1024000Y226000D02*
D03*
X1008000Y234000D02*
D03*
X1024000Y258000D02*
D03*
Y274000D02*
D03*
X1016000Y266000D02*
D03*
X1012000Y283657D02*
D03*
X1032000Y258000D02*
D03*
X1141000Y504000D02*
D03*
X1176000Y491929D02*
D03*
X1166000D02*
D03*
X1131000Y494000D02*
D03*
X1056000Y274000D02*
D03*
X1056000Y266000D02*
D03*
X1032000D02*
D03*
X1024000Y266000D02*
D03*
Y282000D02*
D03*
X1064000Y274000D02*
D03*
X1056000Y282000D02*
D03*
X1151000Y524000D02*
D03*
X1171000D02*
D03*
X1181000Y514000D02*
D03*
D252*
X2043504Y111760D02*
D03*
Y157480D02*
D03*
Y127000D02*
D03*
Y142240D02*
D03*
X2058744Y127000D02*
D03*
Y111760D02*
D03*
Y142240D02*
D03*
X2073984D02*
D03*
Y127000D02*
D03*
Y111760D02*
D03*
X2058744Y157480D02*
D03*
X2073984D02*
D03*
X2513330Y236220D02*
D03*
X2543810D02*
D03*
Y266700D02*
D03*
X2513330D02*
D03*
X2543810Y281940D02*
D03*
X2528570D02*
D03*
X2513330D02*
D03*
X2528570Y266700D02*
D03*
Y236220D02*
D03*
Y251460D02*
D03*
X2543810D02*
D03*
X2513330D02*
D03*
X2785110Y656590D02*
D03*
X2815590D02*
D03*
X2800350D02*
D03*
Y641350D02*
D03*
Y671830D02*
D03*
X2785110Y687070D02*
D03*
X2800350D02*
D03*
X2815590D02*
D03*
X2785110Y671830D02*
D03*
X2815590D02*
D03*
Y641350D02*
D03*
X2785110D02*
D03*
X2785110Y873760D02*
D03*
X2815590D02*
D03*
Y843280D02*
D03*
X2785110D02*
D03*
X2815590Y828040D02*
D03*
X2800350D02*
D03*
X2785110D02*
D03*
X2800350Y843280D02*
D03*
Y873760D02*
D03*
Y858520D02*
D03*
X2815590D02*
D03*
X2785110D02*
D03*
D253*
X1524300Y193045D02*
D03*
X1534300D02*
D03*
X1524300Y183045D02*
D03*
X1514300Y193045D02*
D03*
Y183045D02*
D03*
X1534300Y173045D02*
D03*
Y183045D02*
D03*
X1524300Y173045D02*
D03*
X1514300D02*
D03*
X504787Y481483D02*
D03*
X484787D02*
D03*
X494787D02*
D03*
X415130Y481170D02*
D03*
X395130D02*
D03*
X484787Y471482D02*
D03*
X504787D02*
D03*
X494787D02*
D03*
X405130Y471170D02*
D03*
Y481170D02*
D03*
X484787Y461482D02*
D03*
X494787D02*
D03*
X504787D02*
D03*
X415130Y471170D02*
D03*
Y461170D02*
D03*
X405130D02*
D03*
X395130Y471170D02*
D03*
Y461170D02*
D03*
D254*
X942750Y570640D02*
D03*
Y559640D02*
D03*
X931750D02*
D03*
X942750Y548640D02*
D03*
X931750D02*
D03*
Y570640D02*
D03*
X920750D02*
D03*
Y537640D02*
D03*
Y559640D02*
D03*
X909750D02*
D03*
Y548640D02*
D03*
Y570640D02*
D03*
X920750Y548640D02*
D03*
X909750Y537640D02*
D03*
X898750Y570640D02*
D03*
Y548640D02*
D03*
Y559640D02*
D03*
X942750Y526640D02*
D03*
Y537640D02*
D03*
X931750D02*
D03*
X920750Y526640D02*
D03*
X909750D02*
D03*
X931750D02*
D03*
X898750Y537640D02*
D03*
Y526640D02*
D03*
X312420Y759870D02*
D03*
X334420D02*
D03*
X290420D02*
D03*
X323420Y759870D02*
D03*
X301420D02*
D03*
X323420Y748870D02*
D03*
X334420D02*
D03*
X334420Y737870D02*
D03*
X323420D02*
D03*
X334420Y726870D02*
D03*
X323420D02*
D03*
X301420Y748870D02*
D03*
X312420Y748870D02*
D03*
X290420Y748870D02*
D03*
X301420Y737870D02*
D03*
X290420D02*
D03*
X312420D02*
D03*
Y726870D02*
D03*
X301420Y726870D02*
D03*
X290420D02*
D03*
X323420Y715870D02*
D03*
X334420Y715870D02*
D03*
X312420D02*
D03*
X301420Y715870D02*
D03*
X290420Y715870D02*
D03*
X339090Y324260D02*
D03*
X361090D02*
D03*
X317090D02*
D03*
X350090Y324260D02*
D03*
X328090D02*
D03*
X350090Y313260D02*
D03*
X361090D02*
D03*
X339090Y313260D02*
D03*
X328090Y302260D02*
D03*
X328090Y313260D02*
D03*
X350090Y302260D02*
D03*
X339090D02*
D03*
X361090D02*
D03*
X361090Y291260D02*
D03*
X350090D02*
D03*
X361090Y280260D02*
D03*
X350090D02*
D03*
X339090Y291260D02*
D03*
X328090Y291260D02*
D03*
X339090Y280260D02*
D03*
X328090D02*
D03*
X317090Y313260D02*
D03*
Y302260D02*
D03*
Y280260D02*
D03*
Y291260D02*
D03*
X168060Y747610D02*
D03*
X157060Y747610D02*
D03*
X168060Y758610D02*
D03*
X157060D02*
D03*
X2656000Y403410D02*
D03*
X2667000D02*
D03*
X2678000D02*
D03*
X2656000Y392410D02*
D03*
X2667000D02*
D03*
X2678000D02*
D03*
X2656000Y381410D02*
D03*
X2667000D02*
D03*
X2678000D02*
D03*
X2656000Y370410D02*
D03*
X2667000D02*
D03*
X2678000D02*
D03*
X2656000Y359410D02*
D03*
X2667000D02*
D03*
X2678000D02*
D03*
X2656000Y348410D02*
D03*
X2667000D02*
D03*
X2678000D02*
D03*
X2656000Y337410D02*
D03*
X2667000D02*
D03*
X2678000D02*
D03*
X2656000Y326410D02*
D03*
X2667000D02*
D03*
X2678000D02*
D03*
X2656000Y315410D02*
D03*
X2667000D02*
D03*
X2678000D02*
D03*
D255*
X659675Y481785D02*
D03*
X679675D02*
D03*
X669675D02*
D03*
X659675Y471785D02*
D03*
X669675D02*
D03*
X679675D02*
D03*
Y461785D02*
D03*
X669675D02*
D03*
X659675D02*
D03*
M02*
