G04*
G04 #@! TF.GenerationSoftware,Altium Limited,Altium Designer,24.1.2 (44)*
G04*
G04 Layer_Color=16711935*
%FSLAX44Y44*%
%MOMM*%
G71*
G04*
G04 #@! TF.SameCoordinates,140FFB89-E29E-458A-976C-A302E020C20F*
G04*
G04*
G04 #@! TF.FilePolarity,Positive*
G04*
G01*
G75*
G36*
X3110230Y0D02*
X653367D01*
X653311Y11070D01*
X450112D01*
X450163Y900D01*
X449267Y0D01*
X0D01*
X0Y0D01*
Y201930D01*
X97790D01*
Y278130D01*
X0D01*
Y342085D01*
X97635D01*
Y418285D01*
X0D01*
Y641930D01*
X97790D01*
Y718130D01*
X0D01*
Y791930D01*
X97790D01*
Y868130D01*
X0D01*
Y1060450D01*
X148590D01*
Y956310D01*
X250190D01*
Y1060450D01*
X445770D01*
Y977900D01*
X618490D01*
Y1060450D01*
X1648827D01*
X1649725Y1059552D01*
X1649660Y895170D01*
X1799660D01*
X1799595Y1059552D01*
X1800493Y1060450D01*
X2827020D01*
Y993140D01*
X2973070D01*
Y1060450D01*
X3110230D01*
Y0D01*
D02*
G37*
%LPC*%
G36*
X979170Y1046480D02*
X961390D01*
Y1028700D01*
X979170D01*
Y1046480D01*
D02*
G37*
G36*
X1235710Y1043940D02*
X1217930D01*
Y1026160D01*
X1235710D01*
Y1043940D01*
D02*
G37*
G36*
X704850D02*
X687070D01*
Y1026160D01*
X704850D01*
Y1043940D01*
D02*
G37*
G36*
X1340851Y1045210D02*
X1338849D01*
X1336886Y1044820D01*
X1335037Y1044054D01*
X1333373Y1042942D01*
X1331958Y1041527D01*
X1330846Y1039863D01*
X1330080Y1038014D01*
X1329690Y1036051D01*
Y1034049D01*
X1330080Y1032086D01*
X1330846Y1030238D01*
X1331958Y1028573D01*
X1333373Y1027158D01*
X1335037Y1026046D01*
X1336886Y1025281D01*
X1338849Y1024890D01*
X1340851D01*
X1342814Y1025281D01*
X1344663Y1026046D01*
X1346327Y1027158D01*
X1347742Y1028573D01*
X1348854Y1030238D01*
X1349620Y1032086D01*
X1350010Y1034049D01*
Y1036051D01*
X1349620Y1038014D01*
X1348854Y1039863D01*
X1347742Y1041527D01*
X1346327Y1042942D01*
X1344663Y1044054D01*
X1342814Y1044820D01*
X1340851Y1045210D01*
D02*
G37*
G36*
X1080501D02*
X1078499D01*
X1076536Y1044820D01*
X1074687Y1044054D01*
X1073023Y1042942D01*
X1071608Y1041527D01*
X1070496Y1039863D01*
X1069730Y1038014D01*
X1069340Y1036051D01*
Y1034049D01*
X1069730Y1032086D01*
X1070496Y1030238D01*
X1071608Y1028573D01*
X1073023Y1027158D01*
X1074687Y1026046D01*
X1076536Y1025281D01*
X1078499Y1024890D01*
X1080501D01*
X1082464Y1025281D01*
X1084313Y1026046D01*
X1085977Y1027158D01*
X1087392Y1028573D01*
X1088504Y1030238D01*
X1089270Y1032086D01*
X1089660Y1034049D01*
Y1036051D01*
X1089270Y1038014D01*
X1088504Y1039863D01*
X1087392Y1041527D01*
X1085977Y1042942D01*
X1084313Y1044054D01*
X1082464Y1044820D01*
X1080501Y1045210D01*
D02*
G37*
G36*
X128001Y1033780D02*
X125999D01*
X124036Y1033390D01*
X122187Y1032624D01*
X120523Y1031512D01*
X119108Y1030097D01*
X117996Y1028433D01*
X117230Y1026584D01*
X116840Y1024621D01*
Y1022619D01*
X117230Y1020657D01*
X117996Y1018808D01*
X119108Y1017143D01*
X120523Y1015728D01*
X122187Y1014616D01*
X124036Y1013850D01*
X125999Y1013460D01*
X128001D01*
X129964Y1013850D01*
X131813Y1014616D01*
X133477Y1015728D01*
X134892Y1017143D01*
X136004Y1018808D01*
X136770Y1020657D01*
X137160Y1022619D01*
Y1024621D01*
X136770Y1026584D01*
X136004Y1028433D01*
X134892Y1030097D01*
X133477Y1031512D01*
X131813Y1032624D01*
X129964Y1033390D01*
X128001Y1033780D01*
D02*
G37*
G36*
X355600Y1027430D02*
X337820D01*
Y1009650D01*
X355600D01*
Y1027430D01*
D02*
G37*
G36*
X731520Y1021080D02*
X713740D01*
Y1003300D01*
X731520D01*
Y1021080D01*
D02*
G37*
G36*
X2706101Y1016000D02*
X2704099D01*
X2702137Y1015610D01*
X2700287Y1014844D01*
X2698623Y1013732D01*
X2697208Y1012317D01*
X2696096Y1010653D01*
X2695331Y1008804D01*
X2694940Y1006841D01*
Y1004839D01*
X2695331Y1002877D01*
X2696096Y1001028D01*
X2697208Y999363D01*
X2698623Y997948D01*
X2700287Y996836D01*
X2702137Y996070D01*
X2704099Y995680D01*
X2706101D01*
X2708063Y996070D01*
X2709913Y996836D01*
X2711577Y997948D01*
X2712992Y999363D01*
X2714104Y1001028D01*
X2714870Y1002877D01*
X2715260Y1004839D01*
Y1006841D01*
X2714870Y1008804D01*
X2714104Y1010653D01*
X2712992Y1012317D01*
X2711577Y1013732D01*
X2709913Y1014844D01*
X2708063Y1015610D01*
X2706101Y1016000D01*
D02*
G37*
G36*
X1380490Y1022350D02*
X1299210D01*
Y991870D01*
X1380490D01*
Y1022350D01*
D02*
G37*
G36*
X1120140D02*
X1038860D01*
Y991870D01*
X1120140D01*
Y1022350D01*
D02*
G37*
G36*
X1623001Y1010160D02*
X1620999D01*
X1619036Y1009770D01*
X1617187Y1009004D01*
X1615523Y1007892D01*
X1614108Y1006477D01*
X1612996Y1004813D01*
X1612230Y1002964D01*
X1611840Y1001001D01*
Y998999D01*
X1612230Y997037D01*
X1612996Y995188D01*
X1614108Y993523D01*
X1615523Y992108D01*
X1617187Y990996D01*
X1619036Y990230D01*
X1620999Y989840D01*
X1623001D01*
X1624964Y990230D01*
X1626813Y990996D01*
X1628477Y992108D01*
X1629892Y993523D01*
X1631004Y995188D01*
X1631770Y997037D01*
X1632160Y998999D01*
Y1001001D01*
X1631770Y1002964D01*
X1631004Y1004813D01*
X1629892Y1006477D01*
X1628477Y1007892D01*
X1626813Y1009004D01*
X1624964Y1009770D01*
X1623001Y1010160D01*
D02*
G37*
G36*
X822960Y1007110D02*
X805180D01*
Y989330D01*
X822960D01*
Y1007110D01*
D02*
G37*
G36*
X2338110Y1045424D02*
X2338190Y971552D01*
X2470270D01*
Y1045212D01*
X2338110Y1045424D01*
D02*
G37*
G36*
X674370Y986790D02*
X656590D01*
Y969010D01*
X674370D01*
Y986790D01*
D02*
G37*
G36*
X1402080Y982980D02*
X1384300D01*
Y965200D01*
X1402080D01*
Y982980D01*
D02*
G37*
G36*
X3052497Y1038100D02*
X3050000Y1038100D01*
X3050000Y1038100D01*
X3047503D01*
X3042551Y1037448D01*
X3037727Y1036155D01*
X3033112Y1034244D01*
X3028787Y1031747D01*
X3024825Y1028706D01*
X3021293Y1025175D01*
X3018253Y1021212D01*
X3015756Y1016887D01*
X3013845Y1012273D01*
X3012552Y1007449D01*
X3011900Y1002497D01*
X3011900Y1000000D01*
X3011900Y997503D01*
X3012552Y992551D01*
X3013845Y987727D01*
X3015756Y983112D01*
X3018253Y978787D01*
X3021293Y974825D01*
X3024825Y971293D01*
X3028787Y968253D01*
X3033112Y965756D01*
X3037727Y963845D01*
X3042551Y962552D01*
X3047503Y961900D01*
X3050000Y961900D01*
X3050000Y961900D01*
X3050000Y961900D01*
X3052497Y961900D01*
X3057449Y962552D01*
X3062273Y963844D01*
X3066887Y965756D01*
X3071212Y968253D01*
X3075175Y971293D01*
X3078707Y974825D01*
X3081747Y978787D01*
X3084244Y983112D01*
X3086155Y987727D01*
X3087448Y992551D01*
X3088100Y997503D01*
X3088100Y1000000D01*
X3088100D01*
X3088100Y1000000D01*
X3088100Y1002497D01*
X3087448Y1007449D01*
X3086155Y1012273D01*
X3084244Y1016887D01*
X3081747Y1021213D01*
X3078707Y1025175D01*
X3075175Y1028707D01*
X3071213Y1031747D01*
X3066888Y1034244D01*
X3062273Y1036155D01*
X3057449Y1037448D01*
X3052497Y1038100D01*
D02*
G37*
G36*
X1562497D02*
X1560000Y1038100D01*
X1560000Y1038100D01*
X1557503D01*
X1552551Y1037448D01*
X1547727Y1036155D01*
X1543113Y1034244D01*
X1538787Y1031747D01*
X1534825Y1028706D01*
X1531293Y1025175D01*
X1528253Y1021212D01*
X1525756Y1016887D01*
X1523845Y1012273D01*
X1522552Y1007449D01*
X1521900Y1002497D01*
X1521900Y1000000D01*
X1521900Y997503D01*
X1522552Y992551D01*
X1523845Y987727D01*
X1525756Y983112D01*
X1528253Y978787D01*
X1531293Y974825D01*
X1534825Y971293D01*
X1538787Y968253D01*
X1543113Y965756D01*
X1547727Y963845D01*
X1552551Y962552D01*
X1557503Y961900D01*
X1560000Y961900D01*
X1560000Y961900D01*
X1560000Y961900D01*
X1562497Y961900D01*
X1567449Y962552D01*
X1572273Y963844D01*
X1576887Y965756D01*
X1581213Y968253D01*
X1585175Y971293D01*
X1588707Y974825D01*
X1591747Y978787D01*
X1594244Y983112D01*
X1596156Y987727D01*
X1597448Y992551D01*
X1598100Y997503D01*
X1598100Y1000000D01*
X1598100D01*
X1598100Y1000000D01*
X1598100Y1002497D01*
X1597448Y1007449D01*
X1596156Y1012273D01*
X1594244Y1016887D01*
X1591747Y1021213D01*
X1588707Y1025175D01*
X1585175Y1028707D01*
X1581213Y1031747D01*
X1576887Y1034244D01*
X1572273Y1036155D01*
X1567449Y1037448D01*
X1562497Y1038100D01*
D02*
G37*
G36*
X62497D02*
X60000Y1038100D01*
X60000Y1038100D01*
X57503D01*
X52551Y1037448D01*
X47727Y1036155D01*
X43113Y1034244D01*
X38787Y1031747D01*
X34825Y1028706D01*
X31293Y1025175D01*
X28253Y1021212D01*
X25756Y1016887D01*
X23845Y1012273D01*
X22552Y1007449D01*
X21900Y1002497D01*
X21900Y1000000D01*
X21900Y997503D01*
X22552Y992551D01*
X23845Y987727D01*
X25756Y983112D01*
X28253Y978787D01*
X31293Y974825D01*
X34825Y971293D01*
X38787Y968253D01*
X43113Y965756D01*
X47727Y963845D01*
X52551Y962552D01*
X57503Y961900D01*
X60000Y961900D01*
X60000Y961900D01*
X60000Y961900D01*
X62497Y961900D01*
X67449Y962552D01*
X72273Y963844D01*
X76887Y965756D01*
X81213Y968253D01*
X85175Y971293D01*
X88707Y974825D01*
X91747Y978787D01*
X94244Y983112D01*
X96156Y987727D01*
X97448Y992551D01*
X98100Y997503D01*
X98100Y1000000D01*
X98100D01*
X98100Y1000000D01*
X98100Y1002497D01*
X97448Y1007449D01*
X96156Y1012273D01*
X94244Y1016887D01*
X91747Y1021213D01*
X88707Y1025175D01*
X85175Y1028707D01*
X81213Y1031747D01*
X76887Y1034244D01*
X72273Y1036155D01*
X67449Y1037448D01*
X62497Y1038100D01*
D02*
G37*
G36*
X1986280Y1037590D02*
X1879600D01*
Y958850D01*
X1986280Y958850D01*
Y1037590D01*
D02*
G37*
G36*
X1380490Y989330D02*
X1299210D01*
Y958850D01*
X1380490D01*
Y989330D01*
D02*
G37*
G36*
X1120140D02*
X1038860D01*
Y958850D01*
X1120140D01*
Y989330D01*
D02*
G37*
G36*
X2706101Y965200D02*
X2704099D01*
X2702137Y964810D01*
X2700287Y964044D01*
X2698623Y962932D01*
X2697208Y961517D01*
X2696096Y959853D01*
X2695331Y958004D01*
X2694940Y956041D01*
Y954039D01*
X2695331Y952076D01*
X2696096Y950228D01*
X2697208Y948563D01*
X2698623Y947148D01*
X2700287Y946036D01*
X2702137Y945270D01*
X2704099Y944880D01*
X2706101D01*
X2708063Y945270D01*
X2709913Y946036D01*
X2711577Y947148D01*
X2712992Y948563D01*
X2714104Y950228D01*
X2714870Y952076D01*
X2715260Y954039D01*
Y956041D01*
X2714870Y958004D01*
X2714104Y959853D01*
X2712992Y961517D01*
X2711577Y962932D01*
X2709913Y964044D01*
X2708063Y964810D01*
X2706101Y965200D01*
D02*
G37*
G36*
X978753Y960537D02*
X960973D01*
Y942757D01*
X978753D01*
Y960537D01*
D02*
G37*
G36*
X939800Y1047750D02*
X930910D01*
X914400Y1022350D01*
Y942340D01*
X956310D01*
Y1022350D01*
X939800Y1047750D01*
D02*
G37*
G36*
X1088390Y957580D02*
X1070610D01*
Y939800D01*
X1088390D01*
Y957580D01*
D02*
G37*
G36*
X674370Y956310D02*
X656590D01*
Y938530D01*
X674370D01*
Y956310D01*
D02*
G37*
G36*
X1558793Y940567D02*
X1541013D01*
Y922787D01*
X1558793D01*
Y940567D01*
D02*
G37*
G36*
X2606040Y939800D02*
X2588260D01*
Y922020D01*
X2606040D01*
Y939800D01*
D02*
G37*
G36*
X1233170Y937260D02*
X1215390D01*
Y919480D01*
X1233170D01*
Y937260D01*
D02*
G37*
G36*
X165100Y935990D02*
X147320D01*
Y918210D01*
X165100D01*
Y935990D01*
D02*
G37*
G36*
X2822152Y1046560D02*
X2748280Y1046480D01*
Y914400D01*
X2821940D01*
X2822152Y1046560D01*
D02*
G37*
G36*
X1340851Y933450D02*
X1338849D01*
X1336886Y933060D01*
X1335037Y932294D01*
X1333373Y931182D01*
X1331958Y929767D01*
X1330846Y928103D01*
X1330080Y926254D01*
X1329690Y924291D01*
Y922289D01*
X1330080Y920327D01*
X1330846Y918477D01*
X1331958Y916813D01*
X1333373Y915398D01*
X1335037Y914286D01*
X1336886Y913521D01*
X1338849Y913130D01*
X1340851D01*
X1342814Y913521D01*
X1344663Y914286D01*
X1346327Y915398D01*
X1347742Y916813D01*
X1348854Y918477D01*
X1349620Y920327D01*
X1350010Y922289D01*
Y924291D01*
X1349620Y926254D01*
X1348854Y928103D01*
X1347742Y929767D01*
X1346327Y931182D01*
X1344663Y932294D01*
X1342814Y933060D01*
X1340851Y933450D01*
D02*
G37*
G36*
X1080501D02*
X1078499D01*
X1076536Y933060D01*
X1074687Y932294D01*
X1073023Y931182D01*
X1071608Y929767D01*
X1070496Y928103D01*
X1069730Y926254D01*
X1069340Y924291D01*
Y922289D01*
X1069730Y920327D01*
X1070496Y918477D01*
X1071608Y916813D01*
X1073023Y915398D01*
X1074687Y914286D01*
X1076536Y913521D01*
X1078499Y913130D01*
X1080501D01*
X1082464Y913521D01*
X1084313Y914286D01*
X1085977Y915398D01*
X1087392Y916813D01*
X1088504Y918477D01*
X1089270Y920327D01*
X1089660Y922289D01*
Y924291D01*
X1089270Y926254D01*
X1088504Y928103D01*
X1087392Y929767D01*
X1085977Y931182D01*
X1084313Y932294D01*
X1082464Y933060D01*
X1080501Y933450D01*
D02*
G37*
G36*
X1211580Y943610D02*
X1155700D01*
Y913130D01*
X1211580D01*
Y943610D01*
D02*
G37*
G36*
X1922511Y923290D02*
X1920509D01*
X1918546Y922900D01*
X1916697Y922134D01*
X1915033Y921022D01*
X1913618Y919607D01*
X1912506Y917943D01*
X1911740Y916094D01*
X1911350Y914131D01*
Y912129D01*
X1911740Y910166D01*
X1912506Y908317D01*
X1913618Y906653D01*
X1915033Y905238D01*
X1916697Y904126D01*
X1918546Y903361D01*
X1920509Y902970D01*
X1922511D01*
X1924474Y903361D01*
X1926323Y904126D01*
X1927987Y905238D01*
X1929402Y906653D01*
X1930514Y908317D01*
X1931280Y910166D01*
X1931670Y912129D01*
Y914131D01*
X1931280Y916094D01*
X1930514Y917943D01*
X1929402Y919607D01*
X1927987Y921022D01*
X1926323Y922134D01*
X1924474Y922900D01*
X1922511Y923290D01*
D02*
G37*
G36*
X956310Y933450D02*
X900430D01*
Y902970D01*
X956310D01*
Y933450D01*
D02*
G37*
G36*
X2694940Y909320D02*
X2677160D01*
Y891540D01*
X2694940D01*
Y909320D01*
D02*
G37*
G36*
X679888Y900492D02*
X678878D01*
X678877Y900492D01*
X677867D01*
X676000Y899719D01*
X674571Y898290D01*
X673798Y896423D01*
Y894402D01*
X674571Y892535D01*
X676000Y891106D01*
X677867Y890332D01*
X679888D01*
X681755Y891106D01*
X683184Y892535D01*
X683958Y894402D01*
Y896423D01*
X683184Y898290D01*
X681755Y899719D01*
X679888Y900492D01*
D02*
G37*
G36*
X703320Y900430D02*
X702310D01*
X702310Y900430D01*
X701300D01*
X699432Y899657D01*
X698003Y898227D01*
X697230Y896360D01*
Y894340D01*
X698003Y892472D01*
X699432Y891043D01*
X701300Y890270D01*
X703320D01*
X705188Y891043D01*
X706617Y892472D01*
X707390Y894340D01*
Y896360D01*
X706617Y898228D01*
X705188Y899657D01*
X703320Y900430D01*
D02*
G37*
G36*
X2516553Y905828D02*
X2514552D01*
X2512589Y905437D01*
X2510740Y904671D01*
X2509076Y903559D01*
X2507661Y902144D01*
X2506549Y900480D01*
X2505783Y898631D01*
X2505392Y896668D01*
Y894667D01*
X2505783Y892704D01*
X2506549Y890855D01*
X2507661Y889191D01*
X2509076Y887776D01*
X2510740Y886664D01*
X2512589Y885898D01*
X2514552Y885508D01*
X2516553D01*
X2518516Y885898D01*
X2520365Y886664D01*
X2522029Y887776D01*
X2523444Y889191D01*
X2524556Y890855D01*
X2525322Y892704D01*
X2525712Y894667D01*
Y896668D01*
X2525322Y898631D01*
X2524556Y900480D01*
X2523444Y902144D01*
X2522029Y903559D01*
X2520365Y904671D01*
X2518516Y905437D01*
X2516553Y905828D01*
D02*
G37*
G36*
X1380490Y910590D02*
X1299210D01*
Y880110D01*
X1380490D01*
Y910590D01*
D02*
G37*
G36*
X1120140D02*
X1038860D01*
Y880110D01*
X1120140D01*
Y910590D01*
D02*
G37*
G36*
X867410Y929640D02*
X836930D01*
Y873760D01*
X867410D01*
Y929640D01*
D02*
G37*
G36*
X460741Y887730D02*
X458739D01*
X456776Y887340D01*
X454927Y886574D01*
X453263Y885462D01*
X451848Y884047D01*
X450736Y882383D01*
X449970Y880534D01*
X449580Y878571D01*
Y876569D01*
X449970Y874606D01*
X450736Y872757D01*
X451848Y871093D01*
X453263Y869678D01*
X454927Y868566D01*
X456776Y867801D01*
X458739Y867410D01*
X460741D01*
X462704Y867801D01*
X464553Y868566D01*
X466217Y869678D01*
X467632Y871093D01*
X468744Y872757D01*
X469510Y874606D01*
X469900Y876569D01*
Y878571D01*
X469510Y880534D01*
X468744Y882383D01*
X467632Y884047D01*
X466217Y885462D01*
X464553Y886574D01*
X462704Y887340D01*
X460741Y887730D01*
D02*
G37*
G36*
X297180Y880110D02*
X279400D01*
Y862330D01*
X297180D01*
Y880110D01*
D02*
G37*
G36*
X276860D02*
X259080D01*
Y862330D01*
X276860D01*
Y880110D01*
D02*
G37*
G36*
X209550Y866140D02*
X191770D01*
Y848360D01*
X209550D01*
Y866140D01*
D02*
G37*
G36*
X1380490Y877570D02*
X1299210D01*
Y847090D01*
X1380490D01*
Y877570D01*
D02*
G37*
G36*
X1120140D02*
X1038860D01*
Y847090D01*
X1120140D01*
Y877570D01*
D02*
G37*
G36*
X784591Y862330D02*
X782589D01*
X780626Y861940D01*
X778777Y861174D01*
X777113Y860062D01*
X775698Y858647D01*
X774586Y856983D01*
X773820Y855134D01*
X773430Y853171D01*
Y851169D01*
X773820Y849206D01*
X774586Y847357D01*
X775698Y845693D01*
X777113Y844278D01*
X778777Y843166D01*
X780626Y842401D01*
X782589Y842010D01*
X784591D01*
X786553Y842401D01*
X788403Y843166D01*
X790067Y844278D01*
X791482Y845693D01*
X792594Y847357D01*
X793360Y849206D01*
X793750Y851169D01*
Y853171D01*
X793360Y855134D01*
X792594Y856983D01*
X791482Y858647D01*
X790067Y860062D01*
X788403Y861174D01*
X786553Y861940D01*
X784591Y862330D01*
D02*
G37*
G36*
X128001Y850900D02*
X125999D01*
X124036Y850510D01*
X122187Y849744D01*
X120523Y848632D01*
X119108Y847217D01*
X117996Y845553D01*
X117230Y843704D01*
X116840Y841741D01*
Y839739D01*
X117230Y837776D01*
X117996Y835928D01*
X119108Y834263D01*
X120523Y832848D01*
X122187Y831736D01*
X124036Y830971D01*
X125999Y830580D01*
X128001D01*
X129964Y830971D01*
X131813Y831736D01*
X133477Y832848D01*
X134892Y834263D01*
X136004Y835928D01*
X136770Y837776D01*
X137160Y839739D01*
Y841741D01*
X136770Y843704D01*
X136004Y845553D01*
X134892Y847217D01*
X133477Y848632D01*
X131813Y849744D01*
X129964Y850510D01*
X128001Y850900D01*
D02*
G37*
G36*
X260350Y847090D02*
X242570D01*
Y829310D01*
X260350D01*
Y847090D01*
D02*
G37*
G36*
X1348740Y845820D02*
X1330960D01*
Y828040D01*
X1348740D01*
Y845820D01*
D02*
G37*
G36*
X1088390D02*
X1070610D01*
Y828040D01*
X1088390D01*
Y845820D01*
D02*
G37*
G36*
X228600Y831850D02*
X215900D01*
Y819150D01*
X228600D01*
Y831850D01*
D02*
G37*
G36*
X1545273Y836612D02*
X1527493D01*
Y818832D01*
X1545273D01*
Y836612D01*
D02*
G37*
G36*
X396240Y835660D02*
X378460D01*
Y817880D01*
X396240D01*
Y835660D01*
D02*
G37*
G36*
X1316673Y822643D02*
X1298893D01*
Y804863D01*
X1316673D01*
Y822643D01*
D02*
G37*
G36*
X983497Y862100D02*
X981000Y862100D01*
X981000Y862100D01*
X978503D01*
X973551Y861448D01*
X968727Y860155D01*
X964113Y858244D01*
X959787Y855747D01*
X955825Y852706D01*
X952293Y849175D01*
X949253Y845212D01*
X946756Y840887D01*
X944845Y836273D01*
X943552Y831449D01*
X942900Y826497D01*
X942900Y824000D01*
X942900Y821503D01*
X943552Y816551D01*
X944845Y811727D01*
X946756Y807112D01*
X949253Y802787D01*
X952293Y798825D01*
X955825Y795293D01*
X959787Y792253D01*
X964113Y789756D01*
X968727Y787844D01*
X973551Y786552D01*
X978503Y785900D01*
X981000Y785900D01*
X981000Y785900D01*
X981000Y785900D01*
X983497Y785900D01*
X988449Y786552D01*
X993273Y787844D01*
X997887Y789756D01*
X1002213Y792253D01*
X1006175Y795293D01*
X1009707Y798825D01*
X1012747Y802787D01*
X1015244Y807113D01*
X1017156Y811727D01*
X1018448Y816551D01*
X1019100Y821503D01*
X1019100Y824000D01*
X1019100D01*
X1019100Y824000D01*
X1019100Y826497D01*
X1018448Y831449D01*
X1017156Y836273D01*
X1015244Y840887D01*
X1012747Y845213D01*
X1009707Y849175D01*
X1006175Y852707D01*
X1002213Y855747D01*
X997887Y858244D01*
X993273Y860155D01*
X988449Y861448D01*
X983497Y862100D01*
D02*
G37*
G36*
X449580Y793750D02*
X436880D01*
Y781050D01*
X449580D01*
Y793750D01*
D02*
G37*
G36*
X228600Y787400D02*
X215900D01*
Y774700D01*
X228600D01*
Y787400D01*
D02*
G37*
G36*
X806450Y834390D02*
X699770D01*
Y768350D01*
X806450D01*
Y834390D01*
D02*
G37*
G36*
X1511031Y782320D02*
X1509029D01*
X1507066Y781930D01*
X1505217Y781164D01*
X1503553Y780052D01*
X1502138Y778637D01*
X1501026Y776973D01*
X1500260Y775124D01*
X1499870Y773161D01*
Y771159D01*
X1500260Y769196D01*
X1501026Y767347D01*
X1502138Y765683D01*
X1503553Y764268D01*
X1505217Y763156D01*
X1507066Y762391D01*
X1509029Y762000D01*
X1511031D01*
X1512993Y762391D01*
X1514843Y763156D01*
X1516507Y764268D01*
X1517922Y765683D01*
X1519034Y767347D01*
X1519800Y769196D01*
X1520190Y771159D01*
Y773161D01*
X1519800Y775124D01*
X1519034Y776973D01*
X1517922Y778637D01*
X1516507Y780052D01*
X1514843Y781164D01*
X1512993Y781930D01*
X1511031Y782320D01*
D02*
G37*
G36*
X403601Y764540D02*
X402590D01*
X402590Y764540D01*
X401580D01*
X399712Y763767D01*
X398283Y762337D01*
X397510Y760471D01*
Y758449D01*
X398283Y756582D01*
X399712Y755153D01*
X401580Y754380D01*
X403601D01*
X405468Y755153D01*
X406897Y756582D01*
X407670Y758449D01*
Y760471D01*
X406897Y762338D01*
X405468Y763767D01*
X403601Y764540D01*
D02*
G37*
G36*
X555127Y759597D02*
X542427D01*
Y746898D01*
X555127D01*
Y759597D01*
D02*
G37*
G36*
X842010Y756920D02*
X829310D01*
Y744220D01*
X842010D01*
Y756920D01*
D02*
G37*
G36*
X35291Y763270D02*
X33289D01*
X31326Y762880D01*
X29477Y762114D01*
X27813Y761002D01*
X26398Y759587D01*
X25286Y757923D01*
X24520Y756074D01*
X24130Y754111D01*
Y752109D01*
X24520Y750146D01*
X25286Y748298D01*
X26398Y746633D01*
X27813Y745218D01*
X29477Y744106D01*
X31326Y743341D01*
X33289Y742950D01*
X35291D01*
X37253Y743341D01*
X39103Y744106D01*
X40767Y745218D01*
X42182Y746633D01*
X43294Y748298D01*
X44060Y750146D01*
X44450Y752109D01*
Y754111D01*
X44060Y756074D01*
X43294Y757923D01*
X42182Y759587D01*
X40767Y761002D01*
X39103Y762114D01*
X37253Y762880D01*
X35291Y763270D01*
D02*
G37*
G36*
X403601Y750570D02*
X402590D01*
X402590Y750570D01*
X401580D01*
X399712Y749797D01*
X398283Y748367D01*
X397510Y746500D01*
Y744480D01*
X398283Y742612D01*
X399712Y741183D01*
X401580Y740410D01*
X403601D01*
X405468Y741183D01*
X406897Y742612D01*
X407670Y744480D01*
Y746500D01*
X406897Y748368D01*
X405468Y749797D01*
X403601Y750570D01*
D02*
G37*
G36*
X672065Y755532D02*
X654285D01*
Y737752D01*
X672065D01*
Y755532D01*
D02*
G37*
G36*
X953770Y740410D02*
X935990D01*
Y722630D01*
X953770D01*
Y740410D01*
D02*
G37*
G36*
X1457691Y739140D02*
X1455689D01*
X1453726Y738750D01*
X1451877Y737984D01*
X1450213Y736872D01*
X1448798Y735457D01*
X1447686Y733793D01*
X1446920Y731944D01*
X1446530Y729981D01*
Y727979D01*
X1446920Y726016D01*
X1447686Y724167D01*
X1448798Y722503D01*
X1450213Y721088D01*
X1451877Y719976D01*
X1453726Y719211D01*
X1455689Y718820D01*
X1457691D01*
X1459653Y719211D01*
X1461503Y719976D01*
X1463167Y721088D01*
X1464582Y722503D01*
X1465694Y724167D01*
X1466460Y726016D01*
X1466850Y727979D01*
Y729981D01*
X1466460Y731944D01*
X1465694Y733793D01*
X1464582Y735457D01*
X1463167Y736872D01*
X1461503Y737984D01*
X1459653Y738750D01*
X1457691Y739140D01*
D02*
G37*
G36*
X228600Y730250D02*
X215900D01*
Y717550D01*
X228600D01*
Y730250D01*
D02*
G37*
G36*
X575310Y734060D02*
X557530D01*
Y716280D01*
X575310D01*
Y734060D01*
D02*
G37*
G36*
X475330Y735473D02*
X473328D01*
X471365Y735083D01*
X469516Y734317D01*
X467852Y733205D01*
X466437Y731790D01*
X465325Y730126D01*
X464559Y728277D01*
X464169Y726314D01*
Y724312D01*
X464559Y722349D01*
X465325Y720500D01*
X466437Y718836D01*
X467852Y717421D01*
X469516Y716309D01*
X471365Y715544D01*
X473328Y715153D01*
X475330D01*
X477293Y715544D01*
X479142Y716309D01*
X480806Y717421D01*
X482221Y718836D01*
X483333Y720500D01*
X484099Y722349D01*
X484489Y724312D01*
Y726314D01*
X484099Y728277D01*
X483333Y730126D01*
X482221Y731790D01*
X480806Y733205D01*
X479142Y734317D01*
X477293Y735083D01*
X475330Y735473D01*
D02*
G37*
G36*
X3092450Y928370D02*
X2988310D01*
Y740410D01*
X3011170Y715010D01*
X3069590D01*
X3092450Y740410D01*
Y928370D01*
D02*
G37*
G36*
X1922511Y720090D02*
X1920509D01*
X1918546Y719700D01*
X1916697Y718934D01*
X1915033Y717822D01*
X1913618Y716407D01*
X1912506Y714743D01*
X1911740Y712894D01*
X1911350Y710931D01*
Y708929D01*
X1911740Y706966D01*
X1912506Y705117D01*
X1913618Y703453D01*
X1915033Y702038D01*
X1916697Y700926D01*
X1918546Y700161D01*
X1920509Y699770D01*
X1922511D01*
X1924474Y700161D01*
X1926323Y700926D01*
X1927987Y702038D01*
X1929402Y703453D01*
X1930514Y705117D01*
X1931280Y706966D01*
X1931670Y708929D01*
Y710931D01*
X1931280Y712894D01*
X1930514Y714743D01*
X1929402Y716407D01*
X1927987Y717822D01*
X1926323Y718934D01*
X1924474Y719700D01*
X1922511Y720090D01*
D02*
G37*
G36*
X762000Y704850D02*
X744220D01*
Y687070D01*
X762000D01*
Y704850D01*
D02*
G37*
G36*
X2516871Y694690D02*
X2514869D01*
X2512906Y694300D01*
X2511057Y693534D01*
X2509393Y692422D01*
X2507978Y691007D01*
X2506866Y689343D01*
X2506100Y687494D01*
X2505710Y685531D01*
Y683529D01*
X2506100Y681566D01*
X2506866Y679717D01*
X2507978Y678053D01*
X2509393Y676638D01*
X2511057Y675526D01*
X2512906Y674761D01*
X2514869Y674370D01*
X2516871D01*
X2518833Y674761D01*
X2520683Y675526D01*
X2522347Y676638D01*
X2523762Y678053D01*
X2524874Y679717D01*
X2525640Y681566D01*
X2526030Y683529D01*
Y685531D01*
X2525640Y687494D01*
X2524874Y689343D01*
X2523762Y691007D01*
X2522347Y692422D01*
X2520683Y693534D01*
X2518833Y694300D01*
X2516871Y694690D01*
D02*
G37*
G36*
X2697480Y688340D02*
X2679700D01*
Y670560D01*
X2697480D01*
Y688340D01*
D02*
G37*
G36*
X228600Y683260D02*
X215900D01*
Y670560D01*
X228600D01*
Y683260D01*
D02*
G37*
G36*
X128001Y688340D02*
X125999D01*
X124036Y687950D01*
X122187Y687184D01*
X120523Y686072D01*
X119108Y684657D01*
X117996Y682993D01*
X117230Y681144D01*
X116840Y679181D01*
Y677179D01*
X117230Y675217D01*
X117996Y673367D01*
X119108Y671703D01*
X120523Y670288D01*
X122187Y669176D01*
X124036Y668410D01*
X125999Y668020D01*
X128001D01*
X129964Y668410D01*
X131813Y669176D01*
X133477Y670288D01*
X134892Y671703D01*
X136004Y673367D01*
X136770Y675217D01*
X137160Y677179D01*
Y679181D01*
X136770Y681144D01*
X136004Y682993D01*
X134892Y684657D01*
X133477Y686072D01*
X131813Y687184D01*
X129964Y687950D01*
X128001Y688340D01*
D02*
G37*
G36*
X880110Y680720D02*
X867410D01*
Y668020D01*
X880110D01*
Y680720D01*
D02*
G37*
G36*
X3069590D02*
X3051810D01*
Y662940D01*
X3069590D01*
Y680720D01*
D02*
G37*
G36*
X200391Y662940D02*
X198389D01*
X196426Y662550D01*
X194577Y661784D01*
X192913Y660672D01*
X191498Y659257D01*
X190386Y657593D01*
X189620Y655744D01*
X189230Y653781D01*
Y651779D01*
X189620Y649817D01*
X190386Y647968D01*
X191498Y646303D01*
X192913Y644888D01*
X194577Y643776D01*
X196426Y643010D01*
X198389Y642620D01*
X200391D01*
X202353Y643010D01*
X204203Y643776D01*
X205867Y644888D01*
X207282Y646303D01*
X208394Y647968D01*
X209160Y649817D01*
X209550Y651779D01*
Y653781D01*
X209160Y655744D01*
X208394Y657593D01*
X207282Y659257D01*
X205867Y660672D01*
X204203Y661784D01*
X202353Y662550D01*
X200391Y662940D01*
D02*
G37*
G36*
X2938780Y807720D02*
X2865120D01*
Y642620D01*
X2938780D01*
Y807720D01*
D02*
G37*
G36*
X2622550Y655320D02*
X2604770D01*
Y637540D01*
X2622550D01*
Y655320D01*
D02*
G37*
G36*
X279400Y605790D02*
X266700D01*
Y593090D01*
X279400D01*
Y605790D01*
D02*
G37*
G36*
X1004311Y593090D02*
X1003300D01*
X1003300Y593090D01*
X1002290D01*
X1000422Y592317D01*
X998993Y590887D01*
X998220Y589021D01*
Y587000D01*
X998993Y585132D01*
X1000422Y583703D01*
X1002290Y582930D01*
X1004311D01*
X1006178Y583703D01*
X1007607Y585132D01*
X1008380Y587000D01*
Y589021D01*
X1007607Y590888D01*
X1006178Y592317D01*
X1004311Y593090D01*
D02*
G37*
G36*
X795020Y595630D02*
X782320D01*
Y582930D01*
X795020D01*
Y595630D01*
D02*
G37*
G36*
X991870Y598170D02*
X974090D01*
Y580390D01*
X991870D01*
Y598170D01*
D02*
G37*
G36*
X279400Y584200D02*
X266700D01*
Y571500D01*
X279400D01*
Y584200D01*
D02*
G37*
G36*
X795020Y576888D02*
X782320D01*
Y564188D01*
X795020D01*
Y576888D01*
D02*
G37*
G36*
X1004311Y571500D02*
X1003300D01*
X1003300Y571500D01*
X1002290D01*
X1000422Y570727D01*
X998993Y569297D01*
X998220Y567430D01*
Y565410D01*
X998993Y563542D01*
X1000422Y562113D01*
X1002290Y561340D01*
X1004311D01*
X1006178Y562113D01*
X1007607Y563542D01*
X1008380Y565410D01*
Y567430D01*
X1007607Y569298D01*
X1006178Y570727D01*
X1004311Y571500D01*
D02*
G37*
G36*
X279400Y562610D02*
X266700D01*
Y549910D01*
X279400D01*
Y562610D01*
D02*
G37*
G36*
X795020Y557530D02*
X782320D01*
Y544830D01*
X795020D01*
Y557530D01*
D02*
G37*
G36*
X217170Y534670D02*
X204470D01*
Y521970D01*
X217170D01*
Y534670D01*
D02*
G37*
G36*
X268847Y531495D02*
X266846D01*
X264883Y531105D01*
X263034Y530339D01*
X261370Y529227D01*
X259955Y527812D01*
X258843Y526148D01*
X258077Y524299D01*
X257687Y522336D01*
Y520334D01*
X258077Y518371D01*
X258843Y516522D01*
X259955Y514858D01*
X261370Y513443D01*
X263034Y512331D01*
X264883Y511565D01*
X266846Y511175D01*
X268847D01*
X270810Y511565D01*
X272659Y512331D01*
X274323Y513443D01*
X275739Y514858D01*
X276850Y516522D01*
X277616Y518371D01*
X278007Y520334D01*
Y522336D01*
X277616Y524299D01*
X276850Y526148D01*
X275739Y527812D01*
X274323Y529227D01*
X272659Y530339D01*
X270810Y531105D01*
X268847Y531495D01*
D02*
G37*
G36*
X2594341Y529590D02*
X2592339D01*
X2590376Y529200D01*
X2588528Y528434D01*
X2586863Y527322D01*
X2585448Y525907D01*
X2584336Y524243D01*
X2583570Y522394D01*
X2583180Y520431D01*
Y518429D01*
X2583570Y516466D01*
X2584336Y514618D01*
X2585448Y512953D01*
X2586863Y511538D01*
X2588528Y510426D01*
X2590376Y509660D01*
X2592339Y509270D01*
X2594341D01*
X2596303Y509660D01*
X2598152Y510426D01*
X2599817Y511538D01*
X2601232Y512953D01*
X2602344Y514618D01*
X2603110Y516466D01*
X2603500Y518429D01*
Y520431D01*
X2603110Y522394D01*
X2602344Y524243D01*
X2601232Y525907D01*
X2599817Y527322D01*
X2598152Y528434D01*
X2596303Y529200D01*
X2594341Y529590D01*
D02*
G37*
G36*
X2778491Y514350D02*
X2776489D01*
X2774526Y513960D01*
X2772677Y513194D01*
X2771013Y512082D01*
X2769598Y510667D01*
X2768486Y509003D01*
X2767720Y507154D01*
X2767330Y505191D01*
Y503189D01*
X2767720Y501227D01*
X2768486Y499378D01*
X2769598Y497713D01*
X2771013Y496298D01*
X2772677Y495186D01*
X2774526Y494421D01*
X2776489Y494030D01*
X2778491D01*
X2780453Y494421D01*
X2782303Y495186D01*
X2783967Y496298D01*
X2785382Y497713D01*
X2786494Y499378D01*
X2787260Y501227D01*
X2787650Y503189D01*
Y505191D01*
X2787260Y507154D01*
X2786494Y509003D01*
X2785382Y510667D01*
X2783967Y512082D01*
X2782303Y513194D01*
X2780453Y513960D01*
X2778491Y514350D01*
D02*
G37*
G36*
X792480Y506730D02*
X779780D01*
Y494030D01*
X792480D01*
Y506730D01*
D02*
G37*
G36*
X3052497Y568100D02*
X3050000Y568100D01*
X3050000Y568100D01*
X3047503D01*
X3042551Y567448D01*
X3037727Y566155D01*
X3033112Y564244D01*
X3028787Y561747D01*
X3024825Y558706D01*
X3021293Y555175D01*
X3018253Y551213D01*
X3015756Y546887D01*
X3013845Y542273D01*
X3012552Y537449D01*
X3011900Y532497D01*
X3011900Y530000D01*
X3011900Y527503D01*
X3012552Y522551D01*
X3013845Y517727D01*
X3015756Y513112D01*
X3018253Y508787D01*
X3021293Y504825D01*
X3024825Y501293D01*
X3028787Y498253D01*
X3033112Y495756D01*
X3037727Y493844D01*
X3042551Y492552D01*
X3047503Y491900D01*
X3050000Y491900D01*
X3050000Y491900D01*
X3050000Y491900D01*
X3052497Y491900D01*
X3057449Y492552D01*
X3062273Y493844D01*
X3066887Y495756D01*
X3071212Y498253D01*
X3075175Y501293D01*
X3078707Y504825D01*
X3081747Y508787D01*
X3084244Y513112D01*
X3086155Y517727D01*
X3087448Y522551D01*
X3088100Y527503D01*
X3088100Y530000D01*
X3088100D01*
X3088100Y530000D01*
X3088100Y532497D01*
X3087448Y537449D01*
X3086155Y542273D01*
X3084244Y546887D01*
X3081747Y551213D01*
X3078707Y555175D01*
X3075175Y558707D01*
X3071213Y561747D01*
X3066888Y564244D01*
X3062273Y566156D01*
X3057449Y567448D01*
X3052497Y568100D01*
D02*
G37*
G36*
X62497D02*
X60000Y568100D01*
X60000Y568100D01*
X57503D01*
X52551Y567448D01*
X47727Y566155D01*
X43113Y564244D01*
X38787Y561747D01*
X34825Y558706D01*
X31293Y555175D01*
X28253Y551213D01*
X25756Y546887D01*
X23845Y542273D01*
X22552Y537449D01*
X21900Y532497D01*
X21900Y530000D01*
X21900Y527503D01*
X22552Y522551D01*
X23845Y517727D01*
X25756Y513112D01*
X28253Y508787D01*
X31293Y504825D01*
X34825Y501293D01*
X38787Y498253D01*
X43113Y495756D01*
X47727Y493844D01*
X52551Y492552D01*
X57503Y491900D01*
X60000Y491900D01*
X60000Y491900D01*
X60000Y491900D01*
X62497Y491900D01*
X67449Y492552D01*
X72273Y493844D01*
X76887Y495756D01*
X81213Y498253D01*
X85175Y501293D01*
X88707Y504825D01*
X91747Y508787D01*
X94244Y513112D01*
X96156Y517727D01*
X97448Y522551D01*
X98100Y527503D01*
X98100Y530000D01*
X98100D01*
X98100Y530000D01*
X98100Y532497D01*
X97448Y537449D01*
X96156Y542273D01*
X94244Y546887D01*
X91747Y551213D01*
X88707Y555175D01*
X85175Y558707D01*
X81213Y561747D01*
X76887Y564244D01*
X72273Y566156D01*
X67449Y567448D01*
X62497Y568100D01*
D02*
G37*
G36*
X1314450Y758190D02*
X1046480D01*
Y490220D01*
X1314450D01*
Y758190D01*
D02*
G37*
G36*
X2372360Y504190D02*
X2354580D01*
Y486410D01*
X2372360D01*
Y504190D01*
D02*
G37*
G36*
X2519497Y547510D02*
X2517000Y547510D01*
X2517000Y547510D01*
X2514503D01*
X2509551Y546858D01*
X2504727Y545565D01*
X2500113Y543654D01*
X2495787Y541157D01*
X2491825Y538116D01*
X2488293Y534585D01*
X2485253Y530622D01*
X2482756Y526297D01*
X2480845Y521683D01*
X2479552Y516859D01*
X2478900Y511907D01*
X2478900Y509410D01*
X2478900Y506912D01*
X2479552Y501961D01*
X2480845Y497137D01*
X2482756Y492523D01*
X2485253Y488197D01*
X2488293Y484235D01*
X2491825Y480703D01*
X2495787Y477663D01*
X2500112Y475166D01*
X2504727Y473255D01*
X2509551Y471962D01*
X2514503Y471310D01*
X2517000Y471310D01*
X2517000Y471310D01*
X2517000Y471310D01*
X2519497Y471310D01*
X2524449Y471962D01*
X2529273Y473255D01*
X2533887Y475166D01*
X2538213Y477663D01*
X2542175Y480703D01*
X2545706Y484235D01*
X2548747Y488197D01*
X2551244Y492523D01*
X2553155Y497137D01*
X2554448Y501961D01*
X2555100Y506913D01*
X2555100Y509410D01*
X2555100D01*
X2555100Y509410D01*
X2555100Y511907D01*
X2554448Y516859D01*
X2553155Y521683D01*
X2551244Y526297D01*
X2548747Y530623D01*
X2545707Y534585D01*
X2542175Y538117D01*
X2538213Y541157D01*
X2533887Y543654D01*
X2529273Y545565D01*
X2524449Y546858D01*
X2519497Y547510D01*
D02*
G37*
G36*
X308610Y480060D02*
X295910D01*
Y467360D01*
X308610D01*
Y480060D01*
D02*
G37*
G36*
X1526271Y485140D02*
X1524269D01*
X1522306Y484750D01*
X1520457Y483984D01*
X1518793Y482872D01*
X1517378Y481457D01*
X1516266Y479793D01*
X1515500Y477944D01*
X1515110Y475981D01*
Y473979D01*
X1515500Y472016D01*
X1516266Y470168D01*
X1517378Y468503D01*
X1518793Y467088D01*
X1520457Y465976D01*
X1522306Y465210D01*
X1524269Y464820D01*
X1526271D01*
X1528233Y465210D01*
X1530083Y465976D01*
X1531747Y467088D01*
X1533162Y468503D01*
X1534274Y470168D01*
X1535040Y472016D01*
X1535430Y473979D01*
Y475981D01*
X1535040Y477944D01*
X1534274Y479793D01*
X1533162Y481457D01*
X1531747Y482872D01*
X1530083Y483984D01*
X1528233Y484750D01*
X1526271Y485140D01*
D02*
G37*
G36*
X25131Y483870D02*
X23129D01*
X21166Y483480D01*
X19317Y482714D01*
X17653Y481602D01*
X16238Y480187D01*
X15126Y478523D01*
X14360Y476674D01*
X13970Y474711D01*
Y472709D01*
X14360Y470746D01*
X15126Y468898D01*
X16238Y467233D01*
X17653Y465818D01*
X19317Y464706D01*
X21166Y463941D01*
X23129Y463550D01*
X25131D01*
X27094Y463941D01*
X28943Y464706D01*
X30607Y465818D01*
X32022Y467233D01*
X33134Y468898D01*
X33900Y470746D01*
X34290Y472709D01*
Y474711D01*
X33900Y476674D01*
X33134Y478523D01*
X32022Y480187D01*
X30607Y481602D01*
X28943Y482714D01*
X27094Y483480D01*
X25131Y483870D01*
D02*
G37*
G36*
X724535Y467675D02*
X706755D01*
Y449895D01*
X724535D01*
Y467675D01*
D02*
G37*
G36*
X257810Y462280D02*
X245110D01*
Y449580D01*
X257810D01*
Y462280D01*
D02*
G37*
G36*
X769620Y457200D02*
X756920D01*
Y444500D01*
X769620D01*
Y457200D01*
D02*
G37*
G36*
X308610D02*
X295910D01*
Y444500D01*
X308610D01*
Y457200D01*
D02*
G37*
G36*
X825500Y439420D02*
X812800D01*
Y426720D01*
X825500D01*
Y439420D01*
D02*
G37*
G36*
X60846Y440535D02*
X58844D01*
X56881Y440145D01*
X55032Y439379D01*
X53368Y438267D01*
X51953Y436852D01*
X50841Y435188D01*
X50075Y433339D01*
X49685Y431376D01*
Y429374D01*
X50075Y427411D01*
X50841Y425562D01*
X51953Y423898D01*
X53368Y422483D01*
X55032Y421371D01*
X56881Y420606D01*
X58844Y420215D01*
X60846D01*
X62809Y420606D01*
X64658Y421371D01*
X66322Y422483D01*
X67737Y423898D01*
X68849Y425562D01*
X69615Y427411D01*
X70005Y429374D01*
Y431376D01*
X69615Y433339D01*
X68849Y435188D01*
X67737Y436852D01*
X66322Y438267D01*
X64658Y439379D01*
X62809Y440145D01*
X60846Y440535D01*
D02*
G37*
G36*
X2986771Y437020D02*
X2984769D01*
X2982806Y436630D01*
X2980957Y435864D01*
X2979294Y434752D01*
X2977878Y433337D01*
X2976766Y431673D01*
X2976000Y429824D01*
X2975610Y427861D01*
Y425859D01*
X2976000Y423896D01*
X2976766Y422048D01*
X2977878Y420383D01*
X2979294Y418968D01*
X2980957Y417856D01*
X2982806Y417090D01*
X2984769Y416700D01*
X2986771D01*
X2988734Y417090D01*
X2990583Y417856D01*
X2992247Y418968D01*
X2993662Y420383D01*
X2994774Y422048D01*
X2995540Y423896D01*
X2995930Y425859D01*
Y427861D01*
X2995540Y429824D01*
X2994774Y431673D01*
X2993662Y433337D01*
X2992247Y434752D01*
X2990583Y435864D01*
X2988734Y436630D01*
X2986771Y437020D01*
D02*
G37*
G36*
X519161Y436880D02*
X517159D01*
X515196Y436490D01*
X513347Y435724D01*
X511683Y434612D01*
X510268Y433197D01*
X509156Y431533D01*
X508390Y429684D01*
X508000Y427721D01*
Y425719D01*
X508390Y423756D01*
X509156Y421908D01*
X510268Y420243D01*
X511683Y418828D01*
X513347Y417716D01*
X515196Y416950D01*
X517159Y416560D01*
X519161D01*
X521124Y416950D01*
X522973Y417716D01*
X524637Y418828D01*
X526052Y420243D01*
X527164Y421908D01*
X527930Y423756D01*
X528320Y425719D01*
Y427721D01*
X527930Y429684D01*
X527164Y431533D01*
X526052Y433197D01*
X524637Y434612D01*
X522973Y435724D01*
X521124Y436490D01*
X519161Y436880D01*
D02*
G37*
G36*
X278130Y434340D02*
X260350D01*
Y416560D01*
X278130D01*
Y434340D01*
D02*
G37*
G36*
X181610D02*
X163830D01*
Y416560D01*
X181610D01*
Y434340D01*
D02*
G37*
G36*
X1271270Y416560D02*
X1258570D01*
Y403860D01*
X1271270D01*
Y416560D01*
D02*
G37*
G36*
X1247140D02*
X1234440D01*
Y403860D01*
X1247140D01*
Y416560D01*
D02*
G37*
G36*
X1634221Y412750D02*
X1632219D01*
X1630256Y412360D01*
X1628407Y411594D01*
X1626743Y410482D01*
X1625328Y409067D01*
X1624216Y407403D01*
X1623450Y405554D01*
X1623060Y403591D01*
Y401589D01*
X1623450Y399627D01*
X1624216Y397777D01*
X1625328Y396113D01*
X1626743Y394698D01*
X1628407Y393586D01*
X1630256Y392821D01*
X1632219Y392430D01*
X1634221D01*
X1636183Y392821D01*
X1638033Y393586D01*
X1639697Y394698D01*
X1641112Y396113D01*
X1642224Y397777D01*
X1642990Y399627D01*
X1643380Y401589D01*
Y403591D01*
X1642990Y405554D01*
X1642224Y407403D01*
X1641112Y409067D01*
X1639697Y410482D01*
X1638033Y411594D01*
X1636183Y412360D01*
X1634221Y412750D01*
D02*
G37*
G36*
X628381Y411480D02*
X626379D01*
X624416Y411090D01*
X622567Y410324D01*
X620903Y409212D01*
X619488Y407797D01*
X618376Y406133D01*
X617610Y404284D01*
X617220Y402321D01*
Y400319D01*
X617610Y398357D01*
X618376Y396507D01*
X619488Y394843D01*
X620903Y393428D01*
X622567Y392316D01*
X624416Y391550D01*
X626379Y391160D01*
X628381D01*
X630344Y391550D01*
X632193Y392316D01*
X633857Y393428D01*
X635272Y394843D01*
X636384Y396507D01*
X637150Y398357D01*
X637540Y400319D01*
Y402321D01*
X637150Y404284D01*
X636384Y406133D01*
X635272Y407797D01*
X633857Y409212D01*
X632193Y410324D01*
X630344Y411090D01*
X628381Y411480D01*
D02*
G37*
G36*
X278130Y408940D02*
X260350D01*
Y391160D01*
X278130D01*
Y408940D01*
D02*
G37*
G36*
X181610D02*
X163830D01*
Y391160D01*
X181610D01*
Y408940D01*
D02*
G37*
G36*
X825545Y400095D02*
X812845D01*
Y387395D01*
X825545D01*
Y400095D01*
D02*
G37*
G36*
X431531Y406400D02*
X429529D01*
X427566Y406010D01*
X425717Y405244D01*
X424053Y404132D01*
X422638Y402717D01*
X421526Y401053D01*
X420760Y399204D01*
X420370Y397241D01*
Y395239D01*
X420760Y393276D01*
X421526Y391427D01*
X422638Y389763D01*
X424053Y388348D01*
X425717Y387236D01*
X427566Y386470D01*
X429529Y386080D01*
X431531D01*
X433493Y386470D01*
X435343Y387236D01*
X437007Y388348D01*
X438422Y389763D01*
X439534Y391427D01*
X440300Y393276D01*
X440690Y395239D01*
Y397241D01*
X440300Y399204D01*
X439534Y401053D01*
X438422Y402717D01*
X437007Y404132D01*
X435343Y405244D01*
X433493Y406010D01*
X431531Y406400D01*
D02*
G37*
G36*
X1383497Y462100D02*
X1381000Y462100D01*
X1381000Y462100D01*
X1378503D01*
X1373551Y461448D01*
X1368727Y460155D01*
X1364113Y458244D01*
X1359787Y455747D01*
X1355825Y452706D01*
X1352294Y449175D01*
X1349253Y445213D01*
X1346756Y440887D01*
X1344845Y436273D01*
X1343552Y431449D01*
X1342900Y426497D01*
X1342900Y424000D01*
X1342900Y421502D01*
X1343552Y416551D01*
X1344845Y411727D01*
X1346756Y407112D01*
X1349253Y402787D01*
X1352293Y398825D01*
X1355825Y395293D01*
X1359787Y392253D01*
X1364113Y389756D01*
X1368727Y387845D01*
X1373551Y386552D01*
X1378503Y385900D01*
X1381000Y385900D01*
X1381000Y385900D01*
X1381000Y385900D01*
X1383497Y385900D01*
X1388449Y386552D01*
X1393273Y387844D01*
X1397887Y389756D01*
X1402213Y392253D01*
X1406175Y395293D01*
X1409707Y398825D01*
X1412747Y402787D01*
X1415244Y407113D01*
X1417155Y411727D01*
X1418448Y416551D01*
X1419100Y421503D01*
X1419100Y424000D01*
X1419100D01*
X1419100Y424000D01*
X1419100Y426497D01*
X1418448Y431449D01*
X1417155Y436273D01*
X1415244Y440887D01*
X1412747Y445213D01*
X1409707Y449175D01*
X1406175Y452707D01*
X1402213Y455747D01*
X1397888Y458244D01*
X1393273Y460155D01*
X1388449Y461448D01*
X1383497Y462100D01*
D02*
G37*
G36*
X2986771Y387020D02*
X2984769D01*
X2982806Y386630D01*
X2980957Y385864D01*
X2979294Y384752D01*
X2977878Y383337D01*
X2976766Y381673D01*
X2976000Y379824D01*
X2975610Y377861D01*
Y375859D01*
X2976000Y373896D01*
X2976766Y372048D01*
X2977878Y370383D01*
X2979294Y368968D01*
X2980957Y367856D01*
X2982806Y367090D01*
X2984769Y366700D01*
X2986771D01*
X2988734Y367090D01*
X2990583Y367856D01*
X2992247Y368968D01*
X2993662Y370383D01*
X2994774Y372048D01*
X2995540Y373896D01*
X2995930Y375859D01*
Y377861D01*
X2995540Y379824D01*
X2994774Y381673D01*
X2993662Y383337D01*
X2992247Y384752D01*
X2990583Y385864D01*
X2988734Y386630D01*
X2986771Y387020D01*
D02*
G37*
G36*
X226060Y373380D02*
X213360D01*
Y360680D01*
X226060D01*
Y373380D01*
D02*
G37*
G36*
X1569720Y370840D02*
X1557020D01*
Y358140D01*
X1569720D01*
Y370840D01*
D02*
G37*
G36*
X652780Y375920D02*
X635000D01*
Y358140D01*
X652780D01*
Y375920D01*
D02*
G37*
G36*
X552181Y375920D02*
X550179D01*
X548216Y375530D01*
X546367Y374764D01*
X544703Y373652D01*
X543288Y372237D01*
X542176Y370573D01*
X541410Y368724D01*
X541020Y366761D01*
Y364759D01*
X541410Y362797D01*
X542176Y360947D01*
X543288Y359283D01*
X544703Y357868D01*
X546367Y356756D01*
X548216Y355990D01*
X550179Y355600D01*
X552181D01*
X554143Y355990D01*
X555993Y356756D01*
X557657Y357868D01*
X559072Y359283D01*
X560184Y360947D01*
X560950Y362797D01*
X561340Y364759D01*
Y366761D01*
X560950Y368724D01*
X560184Y370573D01*
X559072Y372237D01*
X557657Y373652D01*
X555993Y374764D01*
X554143Y375530D01*
X552181Y375920D01*
D02*
G37*
G36*
X2180321Y374650D02*
X2178319D01*
X2176356Y374260D01*
X2174507Y373494D01*
X2172843Y372382D01*
X2171428Y370967D01*
X2170316Y369303D01*
X2169550Y367454D01*
X2169160Y365491D01*
Y363489D01*
X2169550Y361526D01*
X2170316Y359678D01*
X2171428Y358013D01*
X2172843Y356598D01*
X2174507Y355486D01*
X2176356Y354720D01*
X2178319Y354330D01*
X2180321D01*
X2182283Y354720D01*
X2184133Y355486D01*
X2185797Y356598D01*
X2187212Y358013D01*
X2188324Y359678D01*
X2189090Y361526D01*
X2189480Y363489D01*
Y365491D01*
X2189090Y367454D01*
X2188324Y369303D01*
X2187212Y370967D01*
X2185797Y372382D01*
X2184133Y373494D01*
X2182283Y374260D01*
X2180321Y374650D01*
D02*
G37*
G36*
X1438910Y365760D02*
X1426210D01*
Y353060D01*
X1438910D01*
Y365760D01*
D02*
G37*
G36*
X1731010Y364490D02*
X1718310D01*
Y351790D01*
X1731010D01*
Y364490D01*
D02*
G37*
G36*
X814070Y353060D02*
X796290D01*
Y335280D01*
X814070D01*
Y353060D01*
D02*
G37*
G36*
X896497Y406100D02*
X894000Y406100D01*
X894000Y406100D01*
X891503D01*
X886551Y405448D01*
X881727Y404155D01*
X877113Y402244D01*
X872787Y399747D01*
X868825Y396706D01*
X865294Y393175D01*
X862253Y389212D01*
X859756Y384887D01*
X857845Y380273D01*
X856552Y375449D01*
X855900Y370497D01*
X855900Y368000D01*
X855900Y365503D01*
X856552Y360551D01*
X857845Y355727D01*
X859756Y351112D01*
X862253Y346787D01*
X865293Y342825D01*
X868825Y339293D01*
X872787Y336253D01*
X877113Y333756D01*
X881727Y331844D01*
X886551Y330552D01*
X891503Y329900D01*
X894000Y329900D01*
X894000Y329900D01*
X894000Y329900D01*
X896497Y329900D01*
X901449Y330552D01*
X906273Y331844D01*
X910887Y333756D01*
X915213Y336253D01*
X919175Y339293D01*
X922707Y342825D01*
X925747Y346787D01*
X928244Y351113D01*
X930155Y355727D01*
X931448Y360551D01*
X932100Y365503D01*
X932100Y368000D01*
X932100D01*
X932100Y368000D01*
X932100Y370497D01*
X931448Y375449D01*
X930155Y380273D01*
X928244Y384887D01*
X925747Y389213D01*
X922707Y393175D01*
X919175Y396707D01*
X915213Y399747D01*
X910888Y402244D01*
X906273Y404156D01*
X901449Y405448D01*
X896497Y406100D01*
D02*
G37*
G36*
X220980Y335280D02*
X208280D01*
Y322580D01*
X220980D01*
Y335280D01*
D02*
G37*
G36*
X1569720Y332740D02*
X1557020D01*
Y320040D01*
X1569720D01*
Y332740D01*
D02*
G37*
G36*
X1439135Y332515D02*
X1426435D01*
Y319815D01*
X1439135D01*
Y332515D01*
D02*
G37*
G36*
X1751061Y339126D02*
X1749059D01*
X1747096Y338735D01*
X1745247Y337969D01*
X1743583Y336857D01*
X1742168Y335442D01*
X1741056Y333778D01*
X1740290Y331929D01*
X1739900Y329966D01*
Y327965D01*
X1740290Y326002D01*
X1741056Y324153D01*
X1742168Y322489D01*
X1743583Y321074D01*
X1745247Y319962D01*
X1747096Y319196D01*
X1749059Y318806D01*
X1751061D01*
X1753024Y319196D01*
X1754873Y319962D01*
X1756537Y321074D01*
X1757952Y322489D01*
X1759064Y324153D01*
X1759830Y326002D01*
X1760220Y327965D01*
Y329966D01*
X1759830Y331929D01*
X1759064Y333778D01*
X1757952Y335442D01*
X1756537Y336857D01*
X1754873Y337969D01*
X1753024Y338735D01*
X1751061Y339126D01*
D02*
G37*
G36*
X814070Y332740D02*
X796290D01*
Y314960D01*
X814070D01*
Y332740D01*
D02*
G37*
G36*
X2986771Y334010D02*
X2984769D01*
X2982806Y333620D01*
X2980957Y332854D01*
X2979294Y331742D01*
X2977878Y330327D01*
X2976766Y328663D01*
X2976000Y326814D01*
X2975610Y324851D01*
Y322849D01*
X2976000Y320886D01*
X2976766Y319037D01*
X2977878Y317373D01*
X2979294Y315958D01*
X2980957Y314846D01*
X2982806Y314081D01*
X2984769Y313690D01*
X2986771D01*
X2988734Y314081D01*
X2990583Y314846D01*
X2992247Y315958D01*
X2993662Y317373D01*
X2994774Y319037D01*
X2995540Y320886D01*
X2995930Y322849D01*
Y324851D01*
X2995540Y326814D01*
X2994774Y328663D01*
X2993662Y330327D01*
X2992247Y331742D01*
X2990583Y332854D01*
X2988734Y333620D01*
X2986771Y334010D01*
D02*
G37*
G36*
X2683510Y407670D02*
X2650490D01*
Y311150D01*
X2683510D01*
Y407670D01*
D02*
G37*
G36*
X835660Y327660D02*
X817880D01*
Y309880D01*
X835660D01*
Y327660D01*
D02*
G37*
G36*
X645160Y308610D02*
X632460D01*
Y295910D01*
X645160D01*
Y308610D01*
D02*
G37*
G36*
X618490D02*
X605790D01*
Y295910D01*
X618490D01*
Y308610D01*
D02*
G37*
G36*
X591820D02*
X579120D01*
Y295910D01*
X591820D01*
Y308610D01*
D02*
G37*
G36*
X541020Y311150D02*
X523240D01*
Y293370D01*
X541020D01*
Y311150D01*
D02*
G37*
G36*
X516890D02*
X499110D01*
Y293370D01*
X516890D01*
Y311150D01*
D02*
G37*
G36*
X576580Y341630D02*
X546100D01*
Y285750D01*
X576580D01*
Y341630D01*
D02*
G37*
G36*
X900161Y305020D02*
X898159D01*
X896196Y304630D01*
X894347Y303864D01*
X892683Y302752D01*
X891268Y301337D01*
X890156Y299673D01*
X889390Y297824D01*
X889000Y295861D01*
Y293860D01*
X889390Y291897D01*
X890156Y290048D01*
X891268Y288384D01*
X892683Y286969D01*
X894347Y285857D01*
X896196Y285091D01*
X898159Y284700D01*
X900161D01*
X902123Y285091D01*
X903973Y285857D01*
X905637Y286969D01*
X907052Y288384D01*
X908164Y290048D01*
X908930Y291897D01*
X909320Y293860D01*
Y295861D01*
X908930Y297824D01*
X908164Y299673D01*
X907052Y301337D01*
X905637Y302752D01*
X903973Y303864D01*
X902123Y304630D01*
X900161Y305020D01*
D02*
G37*
G36*
X60846Y300835D02*
X58844D01*
X56881Y300445D01*
X55032Y299679D01*
X53368Y298567D01*
X51953Y297152D01*
X50841Y295488D01*
X50075Y293639D01*
X49685Y291676D01*
Y289674D01*
X50075Y287712D01*
X50841Y285862D01*
X51953Y284198D01*
X53368Y282783D01*
X55032Y281671D01*
X56881Y280905D01*
X58844Y280515D01*
X60846D01*
X62809Y280905D01*
X64658Y281671D01*
X66322Y282783D01*
X67737Y284198D01*
X68849Y285862D01*
X69615Y287712D01*
X70005Y289674D01*
Y291676D01*
X69615Y293639D01*
X68849Y295488D01*
X67737Y297152D01*
X66322Y298567D01*
X64658Y299679D01*
X62809Y300445D01*
X60846Y300835D01*
D02*
G37*
G36*
X220980Y280670D02*
X208280D01*
Y267970D01*
X220980D01*
Y280670D01*
D02*
G37*
G36*
X2986771Y284480D02*
X2984769D01*
X2982806Y284090D01*
X2980957Y283324D01*
X2979294Y282212D01*
X2977878Y280797D01*
X2976766Y279133D01*
X2976000Y277284D01*
X2975610Y275321D01*
Y273319D01*
X2976000Y271357D01*
X2976766Y269508D01*
X2977878Y267843D01*
X2979294Y266428D01*
X2980957Y265316D01*
X2982806Y264550D01*
X2984769Y264160D01*
X2986771D01*
X2988734Y264550D01*
X2990583Y265316D01*
X2992247Y266428D01*
X2993662Y267843D01*
X2994774Y269508D01*
X2995540Y271357D01*
X2995930Y273319D01*
Y275321D01*
X2995540Y277284D01*
X2994774Y279133D01*
X2993662Y280797D01*
X2992247Y282212D01*
X2990583Y283324D01*
X2988734Y284090D01*
X2986771Y284480D01*
D02*
G37*
G36*
X1531428Y280543D02*
X1529427D01*
X1527464Y280152D01*
X1525615Y279386D01*
X1523951Y278275D01*
X1522536Y276859D01*
X1521424Y275195D01*
X1520658Y273346D01*
X1520267Y271383D01*
Y269382D01*
X1520658Y267419D01*
X1521424Y265570D01*
X1522536Y263906D01*
X1523951Y262491D01*
X1525615Y261379D01*
X1527464Y260613D01*
X1529427Y260223D01*
X1531428D01*
X1533391Y260613D01*
X1535240Y261379D01*
X1536904Y262491D01*
X1538319Y263906D01*
X1539431Y265570D01*
X1540197Y267419D01*
X1540587Y269382D01*
Y271383D01*
X1540197Y273346D01*
X1539431Y275195D01*
X1538319Y276859D01*
X1536904Y278275D01*
X1535240Y279386D01*
X1533391Y280152D01*
X1531428Y280543D01*
D02*
G37*
G36*
X2024380Y261620D02*
X2011680D01*
Y248920D01*
X2024380D01*
Y261620D01*
D02*
G37*
G36*
X3092450Y455930D02*
X3001010D01*
Y242570D01*
X3092450D01*
Y455930D01*
D02*
G37*
G36*
X220980Y242570D02*
X208280D01*
Y229870D01*
X220980D01*
Y242570D01*
D02*
G37*
G36*
X1432291Y243876D02*
X1430289D01*
X1428326Y243485D01*
X1426477Y242719D01*
X1424813Y241607D01*
X1423398Y240192D01*
X1422286Y238528D01*
X1421520Y236679D01*
X1421130Y234716D01*
Y232715D01*
X1421520Y230752D01*
X1422286Y228903D01*
X1423398Y227239D01*
X1424813Y225824D01*
X1426477Y224712D01*
X1428326Y223946D01*
X1430289Y223556D01*
X1432291D01*
X1434254Y223946D01*
X1436103Y224712D01*
X1437767Y225824D01*
X1439182Y227239D01*
X1440294Y228903D01*
X1441060Y230752D01*
X1441450Y232715D01*
Y234716D01*
X1441060Y236679D01*
X1440294Y238528D01*
X1439182Y240192D01*
X1437767Y241607D01*
X1436103Y242719D01*
X1434254Y243485D01*
X1432291Y243876D01*
D02*
G37*
G36*
X2024380Y234950D02*
X2011680D01*
Y222250D01*
X2024380D01*
Y234950D01*
D02*
G37*
G36*
X796290D02*
X778510D01*
Y217170D01*
X796290D01*
Y234950D01*
D02*
G37*
G36*
X2986771Y222250D02*
X2984770D01*
X2982807Y221859D01*
X2980958Y221093D01*
X2979294Y219981D01*
X2977879Y218566D01*
X2976767Y216902D01*
X2976001Y215053D01*
X2975610Y213090D01*
Y211089D01*
X2976001Y209126D01*
X2976767Y207277D01*
X2977879Y205613D01*
X2979294Y204198D01*
X2980958Y203086D01*
X2982807Y202320D01*
X2984770Y201930D01*
X2986771D01*
X2988734Y202320D01*
X2990583Y203086D01*
X2992247Y204198D01*
X2993662Y205613D01*
X2994774Y207277D01*
X2995540Y209126D01*
X2995930Y211089D01*
Y213090D01*
X2995540Y215053D01*
X2994774Y216902D01*
X2993662Y218566D01*
X2992247Y219981D01*
X2990583Y221093D01*
X2988734Y221859D01*
X2986771Y222250D01*
D02*
G37*
G36*
X2819497Y247510D02*
X2817000Y247510D01*
X2817000Y247510D01*
X2814503D01*
X2809551Y246858D01*
X2804727Y245565D01*
X2800113Y243654D01*
X2795787Y241157D01*
X2791825Y238116D01*
X2788293Y234585D01*
X2785253Y230623D01*
X2782756Y226297D01*
X2780844Y221683D01*
X2779552Y216859D01*
X2778900Y211907D01*
X2778900Y209410D01*
X2778900Y206912D01*
X2779552Y201961D01*
X2780844Y197137D01*
X2782756Y192522D01*
X2785253Y188197D01*
X2788293Y184235D01*
X2791825Y180703D01*
X2795787Y177663D01*
X2800113Y175166D01*
X2804727Y173255D01*
X2809551Y171962D01*
X2814503Y171310D01*
X2817000Y171310D01*
X2817000Y171310D01*
X2817000Y171310D01*
X2819497Y171310D01*
X2824449Y171962D01*
X2829273Y173254D01*
X2833887Y175166D01*
X2838213Y177663D01*
X2842175Y180703D01*
X2845706Y184235D01*
X2848747Y188197D01*
X2851244Y192523D01*
X2853156Y197137D01*
X2854448Y201961D01*
X2855100Y206913D01*
X2855100Y209410D01*
X2855100D01*
X2855100Y209410D01*
X2855100Y211907D01*
X2854448Y216859D01*
X2853156Y221683D01*
X2851244Y226297D01*
X2848747Y230623D01*
X2845706Y234585D01*
X2842175Y238117D01*
X2838213Y241157D01*
X2833887Y243654D01*
X2829273Y245565D01*
X2824449Y246858D01*
X2819497Y247510D01*
D02*
G37*
G36*
X600710Y181610D02*
X582930D01*
Y163830D01*
X600710D01*
Y181610D01*
D02*
G37*
G36*
X1411000Y166565D02*
X1398300D01*
Y153865D01*
X1411000D01*
Y166565D01*
D02*
G37*
G36*
X1089720Y288866D02*
X998280D01*
Y147134D01*
X1089720D01*
Y288866D01*
D02*
G37*
G36*
X1974585Y151580D02*
X1961885D01*
Y138880D01*
X1974585D01*
Y151580D01*
D02*
G37*
G36*
X1478011Y158785D02*
X1476009D01*
X1474046Y158395D01*
X1472197Y157629D01*
X1470533Y156517D01*
X1469118Y155102D01*
X1468006Y153438D01*
X1467240Y151589D01*
X1466850Y149626D01*
Y147625D01*
X1467240Y145662D01*
X1468006Y143813D01*
X1469118Y142149D01*
X1470533Y140734D01*
X1472197Y139622D01*
X1474046Y138856D01*
X1476009Y138465D01*
X1478011D01*
X1479973Y138856D01*
X1481823Y139622D01*
X1483487Y140734D01*
X1484902Y142149D01*
X1486014Y143813D01*
X1486780Y145662D01*
X1487170Y147625D01*
Y149626D01*
X1486780Y151589D01*
X1486014Y153438D01*
X1484902Y155102D01*
X1483487Y156517D01*
X1481823Y157629D01*
X1479973Y158395D01*
X1478011Y158785D01*
D02*
G37*
G36*
X1948180Y130810D02*
X1935480D01*
Y118110D01*
X1948180D01*
Y130810D01*
D02*
G37*
G36*
X71161Y135160D02*
X69159D01*
X67196Y134770D01*
X65347Y134004D01*
X63683Y132892D01*
X62268Y131477D01*
X61156Y129813D01*
X60390Y127964D01*
X60000Y126001D01*
Y123999D01*
X60390Y122037D01*
X61156Y120187D01*
X62268Y118523D01*
X63683Y117108D01*
X65347Y115996D01*
X67196Y115231D01*
X69159Y114840D01*
X71161D01*
X73124Y115231D01*
X74973Y115996D01*
X76637Y117108D01*
X78052Y118523D01*
X79164Y120187D01*
X79930Y122037D01*
X80320Y123999D01*
Y126001D01*
X79930Y127964D01*
X79164Y129813D01*
X78052Y131477D01*
X76637Y132892D01*
X74973Y134004D01*
X73124Y134770D01*
X71161Y135160D01*
D02*
G37*
G36*
X248651Y128270D02*
X246649D01*
X244686Y127880D01*
X242837Y127114D01*
X241173Y126002D01*
X239758Y124587D01*
X238646Y122923D01*
X237880Y121074D01*
X237490Y119111D01*
Y117109D01*
X237880Y115147D01*
X238646Y113298D01*
X239758Y111633D01*
X241173Y110218D01*
X242837Y109106D01*
X244686Y108341D01*
X246649Y107950D01*
X248651D01*
X250613Y108341D01*
X252463Y109106D01*
X254127Y110218D01*
X255542Y111633D01*
X256654Y113298D01*
X257420Y115147D01*
X257810Y117109D01*
Y119111D01*
X257420Y121074D01*
X256654Y122923D01*
X255542Y124587D01*
X254127Y126002D01*
X252463Y127114D01*
X250613Y127880D01*
X248651Y128270D01*
D02*
G37*
G36*
X637281Y116840D02*
X636270D01*
X636270Y116840D01*
X635260D01*
X633392Y116067D01*
X631963Y114637D01*
X631190Y112771D01*
Y110750D01*
X631963Y108882D01*
X633392Y107453D01*
X635260Y106680D01*
X637281D01*
X639148Y107453D01*
X640577Y108882D01*
X641350Y110750D01*
Y112771D01*
X640577Y114638D01*
X639148Y116067D01*
X637281Y116840D01*
D02*
G37*
G36*
X1301750D02*
X1289050D01*
Y104140D01*
X1301750D01*
Y116840D01*
D02*
G37*
G36*
X1891030Y120650D02*
X1873250D01*
Y102870D01*
X1891030D01*
Y120650D01*
D02*
G37*
G36*
X1718310D02*
X1700530D01*
Y102870D01*
X1718310D01*
Y120650D01*
D02*
G37*
G36*
X384001Y112272D02*
X381999D01*
X380036Y111882D01*
X378187Y111116D01*
X376523Y110004D01*
X375108Y108589D01*
X373996Y106925D01*
X373230Y105076D01*
X372840Y103113D01*
Y101111D01*
X373230Y99149D01*
X373996Y97299D01*
X375108Y95635D01*
X376523Y94220D01*
X378187Y93108D01*
X380036Y92343D01*
X381999Y91952D01*
X384001D01*
X385964Y92343D01*
X387813Y93108D01*
X389477Y94220D01*
X390892Y95635D01*
X392004Y97299D01*
X392770Y99149D01*
X393160Y101111D01*
Y103113D01*
X392770Y105076D01*
X392004Y106925D01*
X390892Y108589D01*
X389477Y110004D01*
X387813Y111116D01*
X385964Y111882D01*
X384001Y112272D01*
D02*
G37*
G36*
X1349741Y88900D02*
X1347739D01*
X1345776Y88510D01*
X1343927Y87744D01*
X1342263Y86632D01*
X1340848Y85217D01*
X1339736Y83553D01*
X1338970Y81704D01*
X1338580Y79741D01*
Y77739D01*
X1338970Y75777D01*
X1339736Y73927D01*
X1340848Y72263D01*
X1342263Y70848D01*
X1343927Y69736D01*
X1345776Y68970D01*
X1347739Y68580D01*
X1349741D01*
X1351703Y68970D01*
X1353553Y69736D01*
X1355217Y70848D01*
X1356632Y72263D01*
X1357744Y73927D01*
X1358510Y75777D01*
X1358900Y77739D01*
Y79741D01*
X1358510Y81704D01*
X1357744Y83553D01*
X1356632Y85217D01*
X1355217Y86632D01*
X1353553Y87744D01*
X1351703Y88510D01*
X1349741Y88900D01*
D02*
G37*
G36*
X625850Y78740D02*
X624840D01*
X624840Y78740D01*
X623829D01*
X621962Y77967D01*
X620533Y76537D01*
X619760Y74671D01*
Y72649D01*
X620533Y70782D01*
X621962Y69353D01*
X623829Y68580D01*
X625850D01*
X627718Y69353D01*
X629147Y70782D01*
X629920Y72649D01*
Y74671D01*
X629147Y76538D01*
X627718Y77967D01*
X625850Y78740D01*
D02*
G37*
G36*
X609341D02*
X608330D01*
X608330Y78740D01*
X607319D01*
X605452Y77967D01*
X604023Y76537D01*
X603250Y74671D01*
Y72649D01*
X604023Y70782D01*
X605452Y69353D01*
X607319Y68580D01*
X609341D01*
X611208Y69353D01*
X612637Y70782D01*
X613410Y72649D01*
Y74671D01*
X612637Y76538D01*
X611208Y77967D01*
X609341Y78740D01*
D02*
G37*
G36*
X595370D02*
X594360D01*
X594360Y78740D01*
X593349D01*
X591482Y77967D01*
X590053Y76537D01*
X589280Y74671D01*
Y72649D01*
X590053Y70782D01*
X591482Y69353D01*
X593349Y68580D01*
X595370D01*
X597238Y69353D01*
X598667Y70782D01*
X599440Y72649D01*
Y74671D01*
X598667Y76538D01*
X597238Y77967D01*
X595370Y78740D01*
D02*
G37*
G36*
X2741621Y86400D02*
X2739619D01*
X2737656Y86010D01*
X2735807Y85244D01*
X2734143Y84132D01*
X2732728Y82717D01*
X2731616Y81053D01*
X2730851Y79204D01*
X2730460Y77241D01*
Y75239D01*
X2730851Y73277D01*
X2731616Y71427D01*
X2732728Y69763D01*
X2734143Y68348D01*
X2735807Y67236D01*
X2737656Y66470D01*
X2739619Y66080D01*
X2741621D01*
X2743583Y66470D01*
X2745433Y67236D01*
X2747097Y68348D01*
X2748512Y69763D01*
X2749624Y71427D01*
X2750389Y73277D01*
X2750780Y75239D01*
Y77241D01*
X2750389Y79204D01*
X2749624Y81053D01*
X2748512Y82717D01*
X2747097Y84132D01*
X2745433Y85244D01*
X2743583Y86010D01*
X2741621Y86400D01*
D02*
G37*
G36*
X2817861Y86360D02*
X2815859D01*
X2813896Y85970D01*
X2812047Y85204D01*
X2810383Y84092D01*
X2808968Y82677D01*
X2807856Y81013D01*
X2807090Y79164D01*
X2806700Y77201D01*
Y75199D01*
X2807090Y73236D01*
X2807856Y71388D01*
X2808968Y69723D01*
X2810383Y68308D01*
X2812047Y67196D01*
X2813896Y66431D01*
X2815859Y66040D01*
X2817861D01*
X2819824Y66431D01*
X2821673Y67196D01*
X2823336Y68308D01*
X2824752Y69723D01*
X2825864Y71388D01*
X2826630Y73236D01*
X2827020Y75199D01*
Y77201D01*
X2826630Y79164D01*
X2825864Y81013D01*
X2824752Y82677D01*
X2823336Y84092D01*
X2821673Y85204D01*
X2819824Y85970D01*
X2817861Y86360D01*
D02*
G37*
G36*
X2800350Y82550D02*
X2782570D01*
Y64770D01*
X2800350D01*
Y82550D01*
D02*
G37*
G36*
X2774950D02*
X2757170D01*
Y64770D01*
X2774950D01*
Y82550D01*
D02*
G37*
G36*
X579120D02*
X561340D01*
Y64770D01*
X579120D01*
Y82550D01*
D02*
G37*
G36*
X557530D02*
X539750D01*
Y64770D01*
X557530D01*
Y82550D01*
D02*
G37*
G36*
X535940D02*
X518160D01*
Y64770D01*
X535940D01*
Y82550D01*
D02*
G37*
G36*
X514350D02*
X496570D01*
Y64770D01*
X514350D01*
Y82550D01*
D02*
G37*
G36*
X492760D02*
X474980D01*
Y64770D01*
X492760D01*
Y82550D01*
D02*
G37*
G36*
X471170D02*
X453390D01*
Y64770D01*
X471170D01*
Y82550D01*
D02*
G37*
G36*
X449580D02*
X431800D01*
Y64770D01*
X449580D01*
Y82550D01*
D02*
G37*
G36*
X427990D02*
X410210D01*
Y64770D01*
X427990D01*
Y82550D01*
D02*
G37*
G36*
X2929890Y88900D02*
X2874010D01*
Y58420D01*
X2929890D01*
Y88900D01*
D02*
G37*
G36*
X1623001Y70160D02*
X1620999D01*
X1619036Y69770D01*
X1617187Y69004D01*
X1615523Y67892D01*
X1614108Y66477D01*
X1612996Y64813D01*
X1612230Y62964D01*
X1611840Y61001D01*
Y58999D01*
X1612230Y57036D01*
X1612996Y55188D01*
X1614108Y53523D01*
X1615523Y52108D01*
X1617187Y50996D01*
X1619036Y50230D01*
X1620999Y49840D01*
X1623001D01*
X1624964Y50230D01*
X1626813Y50996D01*
X1628477Y52108D01*
X1629892Y53523D01*
X1631004Y55188D01*
X1631770Y57036D01*
X1632160Y58999D01*
Y61001D01*
X1631770Y62964D01*
X1631004Y64813D01*
X1629892Y66477D01*
X1628477Y67892D01*
X1626813Y69004D01*
X1624964Y69770D01*
X1623001Y70160D01*
D02*
G37*
G36*
X1418321Y69886D02*
X1416319D01*
X1414356Y69495D01*
X1412507Y68729D01*
X1410843Y67617D01*
X1409428Y66202D01*
X1408316Y64538D01*
X1407550Y62689D01*
X1407160Y60726D01*
Y58725D01*
X1407550Y56762D01*
X1408316Y54913D01*
X1409428Y53249D01*
X1410843Y51834D01*
X1412507Y50722D01*
X1414356Y49956D01*
X1416319Y49566D01*
X1418321D01*
X1420284Y49956D01*
X1422133Y50722D01*
X1423797Y51834D01*
X1425212Y53249D01*
X1426324Y54913D01*
X1427090Y56762D01*
X1427480Y58725D01*
Y60726D01*
X1427090Y62689D01*
X1426324Y64538D01*
X1425212Y66202D01*
X1423797Y67617D01*
X1422133Y68729D01*
X1420284Y69495D01*
X1418321Y69886D01*
D02*
G37*
G36*
X801370Y62230D02*
X783590D01*
Y44450D01*
X801370D01*
Y62230D01*
D02*
G37*
G36*
X735330D02*
X717550D01*
Y44450D01*
X735330D01*
Y62230D01*
D02*
G37*
G36*
X676650Y52070D02*
X675640D01*
X675640Y52070D01*
X674630D01*
X672762Y51297D01*
X671333Y49868D01*
X670560Y48000D01*
Y45979D01*
X671333Y44112D01*
X672762Y42683D01*
X674630Y41910D01*
X676650D01*
X678518Y42683D01*
X679947Y44112D01*
X680720Y45979D01*
Y48000D01*
X679947Y49868D01*
X678518Y51297D01*
X676650Y52070D01*
D02*
G37*
G36*
X1977390Y99060D02*
X1870710D01*
Y33020D01*
X1977390D01*
Y99060D01*
D02*
G37*
G36*
X1804670D02*
X1697990D01*
Y33020D01*
X1804670D01*
Y99060D01*
D02*
G37*
G36*
X705861Y43180D02*
X704850D01*
X704850Y43180D01*
X703839D01*
X701972Y42407D01*
X700543Y40978D01*
X699770Y39111D01*
Y37090D01*
X700543Y35222D01*
X701972Y33793D01*
X703839Y33020D01*
X705861D01*
X707728Y33793D01*
X709157Y35222D01*
X709930Y37090D01*
Y39111D01*
X709157Y40978D01*
X707728Y42407D01*
X705861Y43180D01*
D02*
G37*
G36*
X2832100Y62230D02*
X2725420D01*
Y31750D01*
X2832100D01*
Y62230D01*
D02*
G37*
G36*
X1196497Y106100D02*
X1194000Y106100D01*
X1194000Y106100D01*
X1191503D01*
X1186551Y105448D01*
X1181727Y104155D01*
X1177113Y102244D01*
X1172787Y99747D01*
X1168825Y96706D01*
X1165294Y93175D01*
X1162253Y89213D01*
X1159756Y84887D01*
X1157845Y80273D01*
X1156552Y75449D01*
X1155900Y70497D01*
X1155900Y68000D01*
X1155900Y65503D01*
X1156552Y60551D01*
X1157845Y55727D01*
X1159756Y51112D01*
X1162253Y46787D01*
X1165294Y42825D01*
X1168825Y39293D01*
X1172787Y36253D01*
X1177113Y33756D01*
X1181727Y31844D01*
X1186551Y30552D01*
X1191503Y29900D01*
X1194000Y29900D01*
X1194000Y29900D01*
X1194000Y29900D01*
X1196497Y29900D01*
X1201449Y30552D01*
X1206273Y31844D01*
X1210887Y33756D01*
X1215213Y36253D01*
X1219175Y39293D01*
X1222707Y42825D01*
X1225747Y46787D01*
X1228244Y51112D01*
X1230156Y55727D01*
X1231448Y60551D01*
X1232100Y65503D01*
X1232100Y68000D01*
X1232100D01*
X1232100Y68000D01*
X1232100Y70497D01*
X1231448Y75449D01*
X1230155Y80273D01*
X1228244Y84887D01*
X1225747Y89213D01*
X1222707Y93175D01*
X1219175Y96707D01*
X1215213Y99747D01*
X1210888Y102244D01*
X1206273Y104156D01*
X1201449Y105448D01*
X1196497Y106100D01*
D02*
G37*
G36*
X248651Y48260D02*
X246649D01*
X244686Y47870D01*
X242837Y47104D01*
X241173Y45992D01*
X239758Y44577D01*
X238646Y42913D01*
X237880Y41064D01*
X237490Y39101D01*
Y37099D01*
X237880Y35136D01*
X238646Y33287D01*
X239758Y31623D01*
X241173Y30208D01*
X242837Y29096D01*
X244686Y28331D01*
X246649Y27940D01*
X248651D01*
X250613Y28331D01*
X252463Y29096D01*
X254127Y30208D01*
X255542Y31623D01*
X256654Y33287D01*
X257420Y35136D01*
X257810Y37099D01*
Y39101D01*
X257420Y41064D01*
X256654Y42913D01*
X255542Y44577D01*
X254127Y45992D01*
X252463Y47104D01*
X250613Y47870D01*
X248651Y48260D01*
D02*
G37*
G36*
X1295400Y35560D02*
X1282700D01*
Y22860D01*
X1295400D01*
Y35560D01*
D02*
G37*
G36*
X1270000D02*
X1257300D01*
Y22860D01*
X1270000D01*
Y35560D01*
D02*
G37*
G36*
X3052497Y98100D02*
X3050000Y98100D01*
X3050000Y98100D01*
X3047503D01*
X3042551Y97448D01*
X3037727Y96155D01*
X3033112Y94244D01*
X3028787Y91747D01*
X3024825Y88706D01*
X3021293Y85175D01*
X3018253Y81213D01*
X3015756Y76887D01*
X3013845Y72273D01*
X3012552Y67449D01*
X3011900Y62497D01*
X3011900Y60000D01*
X3011900Y57502D01*
X3012552Y52551D01*
X3013845Y47727D01*
X3015756Y43112D01*
X3018253Y38787D01*
X3021293Y34825D01*
X3024825Y31293D01*
X3028787Y28253D01*
X3033112Y25756D01*
X3037727Y23844D01*
X3042551Y22552D01*
X3047503Y21900D01*
X3050000Y21900D01*
X3050000Y21900D01*
X3050000Y21900D01*
X3052497Y21900D01*
X3057449Y22552D01*
X3062273Y23844D01*
X3066887Y25756D01*
X3071212Y28253D01*
X3075175Y31293D01*
X3078707Y34825D01*
X3081747Y38787D01*
X3084244Y43113D01*
X3086155Y47727D01*
X3087448Y52551D01*
X3088100Y57503D01*
X3088100Y60000D01*
X3088100D01*
X3088100Y60000D01*
X3088100Y62497D01*
X3087448Y67449D01*
X3086155Y72273D01*
X3084244Y76887D01*
X3081747Y81213D01*
X3078707Y85175D01*
X3075175Y88707D01*
X3071213Y91747D01*
X3066888Y94244D01*
X3062273Y96156D01*
X3057449Y97448D01*
X3052497Y98100D01*
D02*
G37*
G36*
X1562497D02*
X1560000Y98100D01*
X1560000Y98100D01*
X1557503D01*
X1552551Y97448D01*
X1547727Y96155D01*
X1543113Y94244D01*
X1538787Y91747D01*
X1534825Y88706D01*
X1531293Y85175D01*
X1528253Y81213D01*
X1525756Y76887D01*
X1523845Y72273D01*
X1522552Y67449D01*
X1521900Y62497D01*
X1521900Y60000D01*
X1521900Y57502D01*
X1522552Y52551D01*
X1523845Y47727D01*
X1525756Y43112D01*
X1528253Y38787D01*
X1531293Y34825D01*
X1534825Y31293D01*
X1538787Y28253D01*
X1543113Y25756D01*
X1547727Y23844D01*
X1552551Y22552D01*
X1557503Y21900D01*
X1560000Y21900D01*
X1560000Y21900D01*
X1560000Y21900D01*
X1562497Y21900D01*
X1567449Y22552D01*
X1572273Y23844D01*
X1576887Y25756D01*
X1581213Y28253D01*
X1585175Y31293D01*
X1588707Y34825D01*
X1591747Y38787D01*
X1594244Y43113D01*
X1596156Y47727D01*
X1597448Y52551D01*
X1598100Y57503D01*
X1598100Y60000D01*
X1598100D01*
X1598100Y60000D01*
X1598100Y62497D01*
X1597448Y67449D01*
X1596156Y72273D01*
X1594244Y76887D01*
X1591747Y81213D01*
X1588707Y85175D01*
X1585175Y88707D01*
X1581213Y91747D01*
X1576887Y94244D01*
X1572273Y96156D01*
X1567449Y97448D01*
X1562497Y98100D01*
D02*
G37*
G36*
X62497D02*
X60000Y98100D01*
X60000Y98100D01*
X57503D01*
X52551Y97448D01*
X47727Y96155D01*
X43113Y94244D01*
X38787Y91747D01*
X34825Y88706D01*
X31293Y85175D01*
X28253Y81213D01*
X25756Y76887D01*
X23845Y72273D01*
X22552Y67449D01*
X21900Y62497D01*
X21900Y60000D01*
X21900Y57502D01*
X22552Y52551D01*
X23845Y47727D01*
X25756Y43112D01*
X28253Y38787D01*
X31293Y34825D01*
X34825Y31293D01*
X38787Y28253D01*
X43113Y25756D01*
X47727Y23844D01*
X52551Y22552D01*
X57503Y21900D01*
X60000Y21900D01*
X60000Y21900D01*
X60000Y21900D01*
X62497Y21900D01*
X67449Y22552D01*
X72273Y23844D01*
X76887Y25756D01*
X81213Y28253D01*
X85175Y31293D01*
X88707Y34825D01*
X91747Y38787D01*
X94244Y43113D01*
X96156Y47727D01*
X97448Y52551D01*
X98100Y57503D01*
X98100Y60000D01*
X98100D01*
X98100Y60000D01*
X98100Y62497D01*
X97448Y67449D01*
X96156Y72273D01*
X94244Y76887D01*
X91747Y81213D01*
X88707Y85175D01*
X85175Y88707D01*
X81213Y91747D01*
X76887Y94244D01*
X72273Y96156D01*
X67449Y97448D01*
X62497Y98100D01*
D02*
G37*
G36*
X400780Y31290D02*
X388080D01*
Y18590D01*
X400780D01*
Y31290D01*
D02*
G37*
G36*
X2081261Y35560D02*
X2079259D01*
X2077296Y35170D01*
X2075447Y34404D01*
X2073783Y33292D01*
X2072368Y31877D01*
X2071256Y30213D01*
X2070490Y28364D01*
X2070100Y26401D01*
Y24399D01*
X2070490Y22436D01*
X2071256Y20587D01*
X2072368Y18923D01*
X2073783Y17508D01*
X2075447Y16396D01*
X2077296Y15631D01*
X2079259Y15240D01*
X2081261D01*
X2083224Y15631D01*
X2085073Y16396D01*
X2086737Y17508D01*
X2088152Y18923D01*
X2089264Y20587D01*
X2090030Y22436D01*
X2090420Y24399D01*
Y26401D01*
X2090030Y28364D01*
X2089264Y30213D01*
X2088152Y31877D01*
X2086737Y33292D01*
X2085073Y34404D01*
X2083224Y35170D01*
X2081261Y35560D01*
D02*
G37*
G36*
X3009320Y26620D02*
X2854380D01*
Y11380D01*
X3009320D01*
Y26620D01*
D02*
G37*
%LPD*%
M02*
