G04*
G04 #@! TF.GenerationSoftware,Altium Limited,Altium Designer,24.1.2 (44)*
G04*
G04 Layer_Color=8388736*
%FSLAX44Y44*%
%MOMM*%
G71*
G04*
G04 #@! TF.SameCoordinates,140FFB89-E29E-458A-976C-A302E020C20F*
G04*
G04*
G04 #@! TF.FilePolarity,Positive*
G04*
G01*
G75*
%ADD10C,0.1270*%
%ADD12C,0.2540*%
D10*
X58510Y935111D02*
G03*
X58510Y935111I-16510J0D01*
G01*
Y125000D02*
G03*
X58510Y125000I-16510J0D01*
G01*
X3085000Y125000D02*
G03*
X3085000Y125000I-16510J0D01*
G01*
X1114298Y145796D02*
X1131062D01*
X1114298Y153924D02*
X1131062D01*
X1114298Y145796D02*
Y153924D01*
X1131062Y145796D02*
Y153924D01*
X1120648Y149860D02*
X1124712D01*
X1122680Y147828D02*
Y151892D01*
X1568450Y227399D02*
X1649730D01*
X1568450Y186505D02*
X1649730D01*
Y227399D01*
X1568450Y186505D02*
Y227399D01*
X1607058Y206825D02*
X1611122D01*
X1609090Y204793D02*
Y208857D01*
X1907082Y128514D02*
X1923338D01*
X1907082Y120386D02*
X1923338D01*
Y128514D01*
X1907082Y120386D02*
Y128514D01*
X1915210Y122418D02*
Y126482D01*
X1913178Y124450D02*
X1917242D01*
X1959152Y120386D02*
X1975408Y120386D01*
X1959152Y128514D02*
X1975408Y128514D01*
X1959152Y120386D02*
Y128514D01*
X1975408Y120386D02*
Y128514D01*
X1967280Y122418D02*
Y126482D01*
X1965248Y124450D02*
X1969312D01*
X1946960Y163058D02*
Y167122D01*
X1944928Y165090D02*
X1948992D01*
X1955342Y161026D02*
X1955342Y169153D01*
X1938578Y161026D02*
Y169154D01*
X1955342Y169153D01*
X1938578Y161026D02*
X1955342Y161026D01*
X1946960Y173218D02*
Y177282D01*
X1944928Y175250D02*
X1948992D01*
X1955342Y171186D02*
Y179314D01*
X1938578Y171186D02*
Y179314D01*
X1955342Y179314D01*
X1938578Y171186D02*
X1955342D01*
X528320Y114808D02*
Y118872D01*
X526288Y116840D02*
X530352D01*
X545820Y92840D02*
Y140840D01*
X510820Y92840D02*
Y140840D01*
Y92840D02*
X545820D01*
X510820Y140840D02*
X545820D01*
X570230Y115062D02*
Y119126D01*
X568198Y117094D02*
X572262D01*
X587730Y93094D02*
Y141094D01*
X552730Y93094D02*
Y141094D01*
Y93094D02*
X587730D01*
X552730Y141094D02*
X587730D01*
X409448Y52070D02*
X413512D01*
X411480Y50038D02*
Y54102D01*
X371348Y32258D02*
X449072D01*
X371348Y71882D02*
X449072D01*
X371348Y32258D02*
Y71882D01*
X449072Y32258D02*
Y71882D01*
X828040Y274828D02*
Y278892D01*
X826008Y276860D02*
X830072D01*
X805688Y265430D02*
Y288290D01*
X850392Y265430D02*
Y288290D01*
X805688Y265430D02*
X850392D01*
X805688Y288290D02*
X850392D01*
X626618Y274066D02*
X643382D01*
X626618Y282194D02*
X643382D01*
X626618Y274066D02*
Y282194D01*
X643382Y274066D02*
Y282194D01*
X632968Y278130D02*
X637032D01*
X635000Y276098D02*
Y280162D01*
X584200Y374650D02*
X642620D01*
X584200Y293370D02*
X642620D01*
X584200D02*
Y374650D01*
X642620Y293370D02*
Y374650D01*
X611378Y334010D02*
X615442D01*
X613410Y331978D02*
Y336042D01*
X506730Y919988D02*
Y924052D01*
X504698Y922020D02*
X508762D01*
X502666Y930148D02*
X510794D01*
X502666Y913892D02*
X510794D01*
X502666D02*
Y930148D01*
X510794Y913892D02*
Y930148D01*
X2756408Y334010D02*
X2760472D01*
X2758440Y331978D02*
Y336042D01*
X2766568Y329946D02*
Y338074D01*
X2750312Y329946D02*
Y338074D01*
X2766568D01*
X2750312Y329946D02*
X2766568D01*
X2756408Y323850D02*
X2760472D01*
X2758440Y321818D02*
Y325882D01*
X2750312Y319786D02*
Y327914D01*
X2766568Y319786D02*
Y327914D01*
X2750312Y319786D02*
X2766568D01*
X2750312Y327914D02*
X2766568D01*
X2950210Y479368D02*
Y483432D01*
X2948178Y481400D02*
X2952242D01*
X2930398Y443808D02*
Y521532D01*
X2970022Y443808D02*
Y521532D01*
X2930398D02*
X2970022D01*
X2930398Y443808D02*
X2970022D01*
X2066798Y612140D02*
X2070862D01*
X2068830Y610108D02*
Y614172D01*
X2044830Y629640D02*
X2092830D01*
X2044830Y594640D02*
X2092830D01*
Y629640D01*
X2044830Y594640D02*
Y629640D01*
X1313942Y279146D02*
X1330198D01*
X1313942Y287274D02*
X1330198D01*
X1313942Y279146D02*
Y287274D01*
X1330198Y279146D02*
Y287274D01*
X1322070Y281178D02*
Y285242D01*
X1320038Y283210D02*
X1324102D01*
X664210Y777748D02*
Y781812D01*
X662178Y779780D02*
X666242D01*
X660146Y771652D02*
X668274D01*
X660146Y787908D02*
X668274D01*
Y771652D02*
Y787908D01*
X660146Y771652D02*
Y787908D01*
X653542Y425704D02*
X669798D01*
X653542Y417576D02*
X669798D01*
Y425704D01*
X653542Y417576D02*
Y425704D01*
X661670Y419608D02*
Y423672D01*
X659638Y421640D02*
X663702D01*
X805688Y899414D02*
X822452D01*
X805688Y891286D02*
X822452D01*
Y899414D01*
X805688Y891286D02*
Y899414D01*
X812038Y895350D02*
X816102D01*
X814070Y893318D02*
Y897382D01*
X770636Y318008D02*
Y334772D01*
X778764Y318008D02*
Y334772D01*
X770636D02*
X778764D01*
X770636Y318008D02*
X778764D01*
X774700Y324358D02*
Y328422D01*
X772668Y326390D02*
X776732D01*
X653542Y427736D02*
X669798D01*
X653542Y435864D02*
X669798D01*
X653542Y427736D02*
Y435864D01*
X669798Y427736D02*
Y435864D01*
X661670Y429768D02*
Y433832D01*
X659638Y431800D02*
X663702D01*
X670306Y155067D02*
Y171323D01*
X678434Y155067D02*
Y171323D01*
X670306D02*
X678434D01*
X670306Y155067D02*
X678434D01*
X672338Y163195D02*
X676402D01*
X674370Y161163D02*
Y165227D01*
X196850Y359410D02*
X227330D01*
X196850Y374650D02*
X227330D01*
X196850Y359410D02*
Y374650D01*
X227330Y359410D02*
Y374650D01*
X210058Y367030D02*
X214122D01*
X212090Y364998D02*
Y369062D01*
X191770Y321310D02*
X222250D01*
X191770Y336550D02*
X222250D01*
X191770Y321310D02*
Y336550D01*
X222250Y321310D02*
Y336550D01*
X204978Y328930D02*
X209042D01*
X207010Y326898D02*
Y330962D01*
X191770Y266700D02*
X222250D01*
X191770Y281940D02*
X222250D01*
X191770Y266700D02*
Y281940D01*
X222250Y266700D02*
Y281940D01*
X204978Y274320D02*
X209042D01*
X207010Y272288D02*
Y276352D01*
X191770Y228600D02*
X222250D01*
X191770Y243840D02*
X222250D01*
X191770Y228600D02*
Y243840D01*
X222250Y228600D02*
Y243840D01*
X204978Y236220D02*
X209042D01*
X207010Y234188D02*
Y238252D01*
X271780Y267208D02*
Y311912D01*
X294640Y267208D02*
Y311912D01*
X271780D02*
X294640D01*
X271780Y267208D02*
X294640D01*
X283210Y287528D02*
Y291592D01*
X281178Y289560D02*
X285242D01*
X2151126Y278638D02*
Y295402D01*
X2159254Y278638D02*
Y295402D01*
X2151126D02*
X2159254D01*
X2151126Y278638D02*
X2159254D01*
X2155190Y284988D02*
Y289052D01*
X2153158Y287020D02*
X2157222D01*
X2151126Y362712D02*
X2151126Y345948D01*
X2159254D02*
X2159254Y362712D01*
X2151126D02*
X2159254D01*
X2151126Y345948D02*
X2159254D01*
X2155190Y352298D02*
Y356362D01*
X2153158Y354330D02*
X2157222D01*
X1683893Y473456D02*
X1700657Y473456D01*
X1683893Y481584D02*
X1700657Y481584D01*
X1683893Y473456D02*
Y481584D01*
X1700657Y473456D02*
Y481584D01*
X1690243Y477520D02*
X1694307D01*
X1692275Y475488D02*
Y479552D01*
X912622Y601726D02*
X928878D01*
X912622Y609854D02*
X928878D01*
X912622Y601726D02*
Y609854D01*
X928878Y601726D02*
Y609854D01*
X920750Y603758D02*
Y607822D01*
X918718Y605790D02*
X922782D01*
X922528Y495554D02*
X939292D01*
X922528Y487426D02*
X939292D01*
Y495554D01*
X922528Y487426D02*
Y495554D01*
X928878Y491490D02*
X932942D01*
X930910Y489458D02*
Y493522D01*
X922528Y485394D02*
X939292D01*
X922528Y477266D02*
X939292D01*
Y485394D01*
X922528Y477266D02*
Y485394D01*
X928878Y481330D02*
X932942D01*
X930910Y479298D02*
Y483362D01*
X922147Y475234D02*
X938403D01*
X922147Y467106D02*
X938403D01*
Y475234D01*
X922147Y467106D02*
Y475234D01*
X930275Y469138D02*
Y473202D01*
X928243Y471170D02*
X932307D01*
X1326388Y711200D02*
X1330452D01*
X1328420Y709168D02*
Y713232D01*
X1320292Y707136D02*
Y715264D01*
X1336548Y707136D02*
Y715264D01*
X1320292Y707136D02*
X1336548D01*
X1320292Y715264D02*
X1336548D01*
X1326388Y701040D02*
X1330452D01*
X1328420Y699008D02*
Y703072D01*
X1336548Y696976D02*
Y705104D01*
X1320292Y696976D02*
Y705104D01*
X1336548D01*
X1320292Y696976D02*
X1336548D01*
X1130064Y600618D02*
Y617382D01*
X1121936Y600618D02*
Y617382D01*
Y600618D02*
X1130064D01*
X1121936Y617382D02*
X1130064D01*
X1126000Y606968D02*
Y611032D01*
X1123968Y609000D02*
X1128032D01*
X1138648Y635430D02*
X1183352D01*
X1138648Y612570D02*
X1183352D01*
Y635430D01*
X1138648Y612570D02*
Y635430D01*
X1158968Y624000D02*
X1163032D01*
X1161000Y621968D02*
Y626032D01*
X1162558Y644936D02*
X1179322Y644936D01*
X1162558Y653064D02*
X1179322Y653064D01*
X1162558Y644936D02*
Y653064D01*
X1179322Y644936D02*
Y653064D01*
X1168908Y649000D02*
X1172972D01*
X1170940Y646968D02*
Y651032D01*
X1143648Y610430D02*
X1188352D01*
X1143648Y587570D02*
X1188352D01*
Y610430D01*
X1143648Y587570D02*
Y610430D01*
X1163968Y599000D02*
X1168032D01*
X1166000Y596968D02*
Y601032D01*
X1187618Y504936D02*
X1204382D01*
X1187618Y513064D02*
X1204382D01*
X1187618Y504936D02*
Y513064D01*
X1204382Y504936D02*
Y513064D01*
X1193968Y509000D02*
X1198032D01*
X1196000Y506968D02*
Y511032D01*
X1131936Y550618D02*
Y567382D01*
X1140064Y550618D02*
Y567382D01*
X1131936D02*
X1140064D01*
X1131936Y550618D02*
X1140064D01*
X1136000Y556968D02*
Y561032D01*
X1133968Y559000D02*
X1138032D01*
X1152618Y543064D02*
X1169382D01*
X1152618Y534936D02*
X1169382D01*
Y543064D01*
X1152618Y534936D02*
Y543064D01*
X1158968Y539000D02*
X1163032D01*
X1161000Y536968D02*
Y541032D01*
X1107618Y504936D02*
X1124382D01*
X1107618Y513064D02*
X1124382D01*
X1107618Y504936D02*
Y513064D01*
X1124382Y504936D02*
Y513064D01*
X1113968Y509000D02*
X1118032D01*
X1116000Y506968D02*
Y511032D01*
X1025398Y490220D02*
X1070102D01*
X1025398Y513080D02*
X1070102D01*
X1025398Y490220D02*
Y513080D01*
X1070102Y490220D02*
Y513080D01*
X1045718Y501650D02*
X1049782D01*
X1047750Y499618D02*
Y503682D01*
X1016508Y515620D02*
X1061212D01*
X1016508Y538480D02*
X1061212D01*
X1016508Y515620D02*
Y538480D01*
X1061212Y515620D02*
Y538480D01*
X1036828Y527050D02*
X1040892D01*
X1038860Y525018D02*
Y529082D01*
X1069594Y535178D02*
Y551942D01*
X1061466Y535178D02*
Y551942D01*
Y535178D02*
X1069594D01*
X1061466Y551942D02*
X1069594D01*
X1065530Y541528D02*
Y545592D01*
X1063498Y543560D02*
X1067562D01*
X1072388Y575056D02*
X1089152D01*
X1072388Y583184D02*
X1089152D01*
X1072388Y575056D02*
Y583184D01*
X1089152Y575056D02*
Y583184D01*
X1078738Y579120D02*
X1082802D01*
X1080770Y577088D02*
Y581152D01*
X1091936Y620618D02*
Y637382D01*
X1100064Y620618D02*
Y637382D01*
X1091936D02*
X1100064D01*
X1091936Y620618D02*
X1100064D01*
X1096000Y626968D02*
Y631032D01*
X1093968Y629000D02*
X1098032D01*
X1187618Y644936D02*
X1204382D01*
X1187618Y653064D02*
X1204382D01*
X1187618Y644936D02*
Y653064D01*
X1204382Y644936D02*
Y653064D01*
X1193968Y649000D02*
X1198032D01*
X1196000Y646968D02*
Y651032D01*
X1187618Y633064D02*
X1204382D01*
X1187618Y624936D02*
X1204382D01*
Y633064D01*
X1187618Y624936D02*
Y633064D01*
X1193968Y629000D02*
X1198032D01*
X1196000Y626968D02*
Y631032D01*
X1217618Y633064D02*
X1234382D01*
X1217618Y624936D02*
X1234382D01*
Y633064D01*
X1217618Y624936D02*
Y633064D01*
X1223968Y629000D02*
X1228032D01*
X1226000Y626968D02*
Y631032D01*
X1114570Y666648D02*
Y711352D01*
X1137430Y666648D02*
Y711352D01*
X1114570D02*
X1137430D01*
X1114570Y666648D02*
X1137430D01*
X1126000Y686968D02*
Y691032D01*
X1123968Y689000D02*
X1128032D01*
X1101936Y700618D02*
Y717382D01*
X1110064Y700618D02*
Y717382D01*
X1101936D02*
X1110064D01*
X1101936Y700618D02*
X1110064D01*
X1106000Y706968D02*
Y711032D01*
X1103968Y709000D02*
X1108032D01*
X1127618Y743064D02*
X1144382D01*
X1127618Y734936D02*
X1144382D01*
Y743064D01*
X1127618Y734936D02*
Y743064D01*
X1133968Y739000D02*
X1138032D01*
X1136000Y736968D02*
Y741032D01*
X1212088Y743204D02*
X1228852D01*
X1212088Y735076D02*
X1228852D01*
Y743204D01*
X1212088Y735076D02*
Y743204D01*
X1218438Y739140D02*
X1222502D01*
X1220470Y737108D02*
Y741172D01*
X1272618Y739936D02*
X1289382D01*
X1272618Y748064D02*
X1289382D01*
X1272618Y739936D02*
Y748064D01*
X1289382Y739936D02*
Y748064D01*
X1278968Y744000D02*
X1283032D01*
X1281000Y741968D02*
Y746032D01*
X1237618Y723064D02*
X1254382D01*
X1237618Y714936D02*
X1254382D01*
Y723064D01*
X1237618Y714936D02*
Y723064D01*
X1243968Y719000D02*
X1248032D01*
X1246000Y716968D02*
Y721032D01*
X1247618Y693064D02*
X1264382D01*
X1247618Y684936D02*
X1264382D01*
Y693064D01*
X1247618Y684936D02*
Y693064D01*
X1253968Y689000D02*
X1258032D01*
X1256000Y686968D02*
Y691032D01*
X1247618Y643064D02*
X1264382D01*
X1247618Y634936D02*
X1264382D01*
Y643064D01*
X1247618Y634936D02*
Y643064D01*
X1253968Y639000D02*
X1258032D01*
X1256000Y636968D02*
Y641032D01*
X1272618Y633064D02*
X1289382D01*
X1272618Y624936D02*
X1289382D01*
Y633064D01*
X1272618Y624936D02*
Y633064D01*
X1278968Y629000D02*
X1283032D01*
X1281000Y626968D02*
Y631032D01*
X1272618Y599936D02*
X1289382D01*
X1272618Y608064D02*
X1289382D01*
X1272618Y599936D02*
Y608064D01*
X1289382Y599936D02*
Y608064D01*
X1278968Y604000D02*
X1283032D01*
X1281000Y601968D02*
Y606032D01*
X1252430Y546648D02*
Y591352D01*
X1229570Y546648D02*
Y591352D01*
Y546648D02*
X1252430D01*
X1229570Y591352D02*
X1252430D01*
X1241000Y566968D02*
Y571032D01*
X1238968Y569000D02*
X1243032D01*
X1277618Y543064D02*
X1294382D01*
X1277618Y534936D02*
X1294382D01*
Y543064D01*
X1277618Y534936D02*
Y543064D01*
X1283968Y539000D02*
X1288032D01*
X1286000Y536968D02*
Y541032D01*
X896874Y915162D02*
Y931418D01*
X888746Y915162D02*
Y931418D01*
Y915162D02*
X896874D01*
X888746Y931418D02*
X896874D01*
X890778Y923290D02*
X894842D01*
X892810Y921258D02*
Y925322D01*
X542544Y323342D02*
Y339598D01*
X534416Y323342D02*
Y339598D01*
Y323342D02*
X542544D01*
X534416Y339598D02*
X542544D01*
X536448Y331470D02*
X540512D01*
X538480Y329438D02*
Y333502D01*
X1293876Y97282D02*
Y113538D01*
X1302004Y97282D02*
Y113538D01*
X1293876D02*
X1302004D01*
X1293876Y97282D02*
X1302004D01*
X1295908Y105410D02*
X1299972D01*
X1297940Y103378D02*
Y107442D01*
X1304036Y97282D02*
Y113538D01*
X1312164Y97282D02*
Y113538D01*
X1304036D02*
X1312164D01*
X1304036Y97282D02*
X1312164D01*
X1306068Y105410D02*
X1310132D01*
X1308100Y103378D02*
Y107442D01*
X973328Y66040D02*
X977392D01*
X975360Y64008D02*
Y68072D01*
X971296Y74422D02*
X979424D01*
X971296Y57658D02*
X979424D01*
X971296D02*
Y74422D01*
X979424Y57658D02*
Y74422D01*
X1461504Y448801D02*
Y465057D01*
X1453376Y448801D02*
Y465057D01*
Y448801D02*
X1461504D01*
X1453376Y465057D02*
X1461504D01*
X1455408Y456929D02*
X1459472D01*
X1457440Y454897D02*
Y458961D01*
X1739646Y366522D02*
Y382778D01*
X1747774Y366522D02*
Y382778D01*
X1739646D02*
X1747774D01*
X1739646Y366522D02*
X1747774D01*
X1741678Y374650D02*
X1745742D01*
X1743710Y372618D02*
Y376682D01*
X1719072Y385826D02*
X1735328D01*
X1719072Y393954D02*
X1735328D01*
X1719072Y385826D02*
Y393954D01*
X1735328Y385826D02*
Y393954D01*
X1727200Y387858D02*
Y391922D01*
X1725168Y389890D02*
X1729232D01*
X1719072Y404114D02*
X1735328D01*
X1719072Y395986D02*
X1735328D01*
Y404114D01*
X1719072Y395986D02*
Y404114D01*
X1727200Y398018D02*
Y402082D01*
X1725168Y400050D02*
X1729232D01*
X1677416Y402082D02*
X1677416Y418338D01*
X1685544D02*
X1685544Y402082D01*
X1677416Y418338D02*
X1685544D01*
X1677416Y402082D02*
X1685544D01*
X1679448Y410210D02*
X1683512D01*
X1681480Y408178D02*
Y412242D01*
X1736344Y405892D02*
Y422148D01*
X1728216Y405892D02*
Y422148D01*
Y405892D02*
X1736344D01*
X1728216Y422148D02*
X1736344D01*
X1730248Y414020D02*
X1734312D01*
X1732280Y411988D02*
Y416052D01*
X1720342Y423926D02*
X1736598D01*
X1720342Y432054D02*
X1736598D01*
X1720342Y423926D02*
Y432054D01*
X1736598Y423926D02*
Y432054D01*
X1728470Y425958D02*
Y430022D01*
X1726438Y427990D02*
X1730502D01*
X1728470Y436118D02*
Y440182D01*
X1726438Y438150D02*
X1730502D01*
X1736852Y434086D02*
Y442214D01*
X1720088Y434086D02*
Y442214D01*
X1736852D01*
X1720088Y434086D02*
X1736852D01*
X1766570Y356870D02*
X1811274D01*
X1766570Y334010D02*
X1811274D01*
Y356870D01*
X1766570Y334010D02*
Y356870D01*
X1786890Y345440D02*
X1790954D01*
X1788922Y343408D02*
Y347472D01*
X1529334Y546862D02*
Y563118D01*
X1521206Y546862D02*
Y563118D01*
Y546862D02*
X1529334D01*
X1521206Y563118D02*
X1529334D01*
X1523238Y554990D02*
X1527302D01*
X1525270Y552958D02*
Y557022D01*
X1511046Y546862D02*
Y563118D01*
X1519174Y546862D02*
Y563118D01*
X1511046D02*
X1519174D01*
X1511046Y546862D02*
X1519174D01*
X1513078Y554990D02*
X1517142D01*
X1515110Y552958D02*
Y557022D01*
X1512062Y583184D02*
X1528318D01*
X1512062Y575056D02*
X1528318D01*
Y583184D01*
X1512062Y575056D02*
Y583184D01*
X1520190Y577088D02*
Y581152D01*
X1518158Y579120D02*
X1522222D01*
X1512062Y564896D02*
X1528318D01*
X1512062Y573024D02*
X1528318D01*
X1512062Y564896D02*
Y573024D01*
X1528318Y564896D02*
Y573024D01*
X1520190Y566928D02*
Y570992D01*
X1518158Y568960D02*
X1522222D01*
X1512062Y585216D02*
X1528318D01*
X1512062Y593344D02*
X1528318D01*
X1512062Y585216D02*
Y593344D01*
X1528318Y585216D02*
Y593344D01*
X1520190Y587248D02*
Y591312D01*
X1518158Y589280D02*
X1522222D01*
X1539494Y577342D02*
Y593598D01*
X1531366Y577342D02*
Y593598D01*
Y577342D02*
X1539494D01*
X1531366Y593598D02*
X1539494D01*
X1533398Y585470D02*
X1537462D01*
X1535430Y583438D02*
Y587502D01*
X1512062Y595376D02*
X1528318D01*
X1512062Y603504D02*
X1528318D01*
X1512062Y595376D02*
Y603504D01*
X1528318Y595376D02*
Y603504D01*
X1520190Y597408D02*
Y601472D01*
X1518158Y599440D02*
X1522222D01*
X1520190Y607568D02*
Y611632D01*
X1518158Y609600D02*
X1522222D01*
X1528572Y605536D02*
Y613664D01*
X1511808Y605536D02*
Y613664D01*
X1528572D01*
X1511808Y605536D02*
X1528572D01*
X1403858Y678180D02*
X1407922D01*
X1405890Y676148D02*
Y680212D01*
X1365250Y707390D02*
X1446530D01*
X1365250Y648970D02*
X1446530D01*
Y707390D01*
X1365250Y648970D02*
Y707390D01*
X1362964Y644144D02*
X1444244D01*
X1362964Y603250D02*
X1444244D01*
Y644144D01*
X1362964Y603250D02*
Y644144D01*
X1401572Y623570D02*
X1405636D01*
X1403604Y621538D02*
Y625602D01*
X1344168Y633476D02*
X1360932D01*
X1344168Y641604D02*
X1360932D01*
X1344168Y633476D02*
Y641604D01*
X1360932Y633476D02*
Y641604D01*
X1350518Y637540D02*
X1354582D01*
X1352550Y635508D02*
Y639572D01*
X1404112Y568960D02*
X1408176D01*
X1406144Y566928D02*
Y570992D01*
X1365504Y598170D02*
X1446784D01*
X1365504Y539750D02*
X1446784D01*
Y598170D01*
X1365504Y539750D02*
Y598170D01*
X1236000Y526968D02*
Y531032D01*
X1233968Y529000D02*
X1238032D01*
X1227618Y524936D02*
Y533064D01*
X1244382Y524936D02*
Y533064D01*
X1227618Y524936D02*
X1244382D01*
X1227618Y533064D02*
X1244382D01*
X1073968Y529000D02*
X1078032D01*
X1076000Y526968D02*
Y531032D01*
X1071936Y520618D02*
X1080064D01*
X1071936Y537382D02*
X1080064D01*
Y520618D02*
Y537382D01*
X1071936Y520618D02*
Y537382D01*
X1143968Y649000D02*
X1148032D01*
X1146000Y646968D02*
Y651032D01*
X1141936Y657382D02*
X1150064D01*
X1141936Y640618D02*
X1150064D01*
X1141936D02*
Y657382D01*
X1150064Y640618D02*
Y657382D01*
X808990Y584708D02*
Y588772D01*
X806958Y586740D02*
X811022D01*
X817372Y582676D02*
Y590804D01*
X800608Y582676D02*
Y590804D01*
X817372D01*
X800608Y582676D02*
X817372D01*
X1670050Y216613D02*
Y220677D01*
X1668018Y218645D02*
X1672082D01*
X1661668Y214581D02*
Y222709D01*
X1678432Y214581D02*
Y222709D01*
X1661668Y214581D02*
X1678432D01*
X1661668Y222709D02*
X1678432D01*
X577975Y520042D02*
X582039D01*
X580007Y518010D02*
Y522074D01*
X575943Y528424D02*
X584071D01*
X575943Y511660D02*
X584071D01*
X575943D02*
Y528424D01*
X584071Y511660D02*
Y528424D01*
X536065Y484482D02*
X540129D01*
X538097Y482450D02*
Y486514D01*
X534033Y476100D02*
X542161D01*
X534033Y492864D02*
X542161D01*
Y476100D02*
Y492864D01*
X534033Y476100D02*
Y492864D01*
X433117Y425990D02*
Y430054D01*
X431085Y428022D02*
X435149D01*
X441499Y423958D02*
Y432086D01*
X424735Y423958D02*
Y432086D01*
X441499D01*
X424735Y423958D02*
X441499D01*
X1139698Y248920D02*
X1143762D01*
X1141730Y246888D02*
Y250952D01*
X1137666Y257302D02*
X1145794D01*
X1137666Y240538D02*
X1145794D01*
X1137666D02*
Y257302D01*
X1145794Y240538D02*
Y257302D01*
X970788Y266700D02*
X974852D01*
X972820Y264668D02*
Y268732D01*
X968756Y275082D02*
X976884D01*
X968756Y258318D02*
X976884D01*
X968756D02*
Y275082D01*
X976884Y258318D02*
Y275082D01*
X962660Y235968D02*
Y240032D01*
X960628Y238000D02*
X964692D01*
X971042Y233936D02*
Y242064D01*
X954278Y233936D02*
Y242064D01*
X971042D01*
X954278Y233936D02*
X971042D01*
X950468Y266700D02*
X954532D01*
X952500Y264668D02*
Y268732D01*
X948436Y275082D02*
X956564D01*
X948436Y258318D02*
X956564D01*
X948436D02*
Y275082D01*
X956564Y258318D02*
Y275082D01*
X1109980Y236728D02*
Y240792D01*
X1107948Y238760D02*
X1112012D01*
X1118362Y234696D02*
Y242824D01*
X1101598Y234696D02*
Y242824D01*
X1118362D01*
X1101598Y234696D02*
X1118362D01*
X2092830Y639090D02*
Y674090D01*
X2044830Y639090D02*
Y674090D01*
X2092830D01*
X2044830Y639090D02*
X2092830D01*
X2068830Y654558D02*
Y658622D01*
X2066798Y656590D02*
X2070862D01*
X1708150Y968248D02*
Y972312D01*
X1706118Y970280D02*
X1710182D01*
X1704086Y962152D02*
X1712214D01*
X1704086Y978408D02*
X1712214D01*
Y962152D02*
Y978408D01*
X1704086Y962152D02*
Y978408D01*
X1742440Y968248D02*
Y972312D01*
X1740408Y970280D02*
X1744472D01*
X1738376Y962152D02*
X1746504D01*
X1738376Y978408D02*
X1746504D01*
Y962152D02*
Y978408D01*
X1738376Y962152D02*
Y978408D01*
X1718310Y968248D02*
Y972312D01*
X1716278Y970280D02*
X1720342D01*
X1714246Y962152D02*
X1722374D01*
X1714246Y978408D02*
X1722374D01*
Y962152D02*
Y978408D01*
X1714246Y962152D02*
Y978408D01*
X1697990Y968248D02*
Y972312D01*
X1695958Y970280D02*
X1700022D01*
X1693926Y962152D02*
X1702054D01*
X1693926Y978408D02*
X1702054D01*
Y962152D02*
Y978408D01*
X1693926Y962152D02*
Y978408D01*
X1774190Y968248D02*
Y972312D01*
X1772158Y970280D02*
X1776222D01*
X1770126Y962152D02*
X1778254D01*
X1770126Y978408D02*
X1778254D01*
Y962152D02*
Y978408D01*
X1770126Y962152D02*
Y978408D01*
X1764030Y968248D02*
Y972312D01*
X1761998Y970280D02*
X1766062D01*
X1759966Y962152D02*
X1768094D01*
X1759966Y978408D02*
X1768094D01*
Y962152D02*
Y978408D01*
X1759966Y962152D02*
Y978408D01*
X798576Y304673D02*
Y321437D01*
X806704Y304673D02*
Y321437D01*
X798576D02*
X806704D01*
X798576Y304673D02*
X806704D01*
X802640Y311023D02*
Y315087D01*
X800608Y313055D02*
X804672D01*
X807720Y290830D02*
Y323850D01*
X825500Y290830D02*
Y323850D01*
X807720D02*
X825500D01*
X807720Y290830D02*
X825500D01*
X816610Y305308D02*
Y309372D01*
X814578Y307340D02*
X818642D01*
X808228Y345186D02*
X824992D01*
X808228Y353314D02*
X824992D01*
X808228Y345186D02*
Y353314D01*
X824992Y345186D02*
Y353314D01*
X814578Y349250D02*
X818642D01*
X816610Y347218D02*
Y351282D01*
X808228Y335026D02*
X824992D01*
X808228Y343154D02*
X824992D01*
X808228Y335026D02*
Y343154D01*
X824992Y335026D02*
Y343154D01*
X814578Y339090D02*
X818642D01*
X816610Y337058D02*
Y341122D01*
X808228Y324866D02*
X824992D01*
X808228Y332994D02*
X824992D01*
X808228Y324866D02*
Y332994D01*
X824992Y324866D02*
Y332994D01*
X814578Y328930D02*
X818642D01*
X816610Y326898D02*
Y330962D01*
X849630Y290068D02*
Y334772D01*
X826770Y290068D02*
Y334772D01*
Y290068D02*
X849630D01*
X826770Y334772D02*
X849630D01*
X838200Y310388D02*
Y314452D01*
X836168Y312420D02*
X840232D01*
X942848Y623570D02*
X987552D01*
X942848Y600710D02*
X987552D01*
Y623570D01*
X942848Y600710D02*
Y623570D01*
X963168Y612140D02*
X967232D01*
X965200Y610108D02*
Y614172D01*
X974090Y451358D02*
Y496062D01*
X951230Y451358D02*
Y496062D01*
Y451358D02*
X974090D01*
X951230Y496062D02*
X974090D01*
X962660Y471678D02*
Y475742D01*
X960628Y473710D02*
X964692D01*
X920750Y451358D02*
Y496062D01*
X897890Y451358D02*
Y496062D01*
Y451358D02*
X920750D01*
X897890Y496062D02*
X920750D01*
X909320Y471678D02*
Y475742D01*
X907288Y473710D02*
X911352D01*
X693037Y529440D02*
Y533504D01*
X691005Y531472D02*
X695069D01*
X722247Y490832D02*
Y572112D01*
X663827Y490832D02*
Y572112D01*
Y490832D02*
X722247D01*
X663827Y572112D02*
X722247D01*
X850138Y598170D02*
X894842D01*
X850138Y575310D02*
X894842D01*
Y598170D01*
X850138Y575310D02*
Y598170D01*
X870458Y586740D02*
X874522D01*
X872490Y584708D02*
Y588772D01*
X854964Y479298D02*
Y496062D01*
X846836Y479298D02*
Y496062D01*
Y479298D02*
X854964D01*
X846836Y496062D02*
X854964D01*
X850900Y485648D02*
Y489712D01*
X848868Y487680D02*
X852932D01*
X872490Y523748D02*
Y568452D01*
X895350Y523748D02*
Y568452D01*
X872490D02*
X895350D01*
X872490Y523748D02*
X895350D01*
X883920Y544068D02*
Y548132D01*
X881888Y546100D02*
X885952D01*
X871728Y521970D02*
X916432D01*
X871728Y499110D02*
X916432D01*
Y521970D01*
X871728Y499110D02*
Y521970D01*
X892048Y510540D02*
X896112D01*
X894080Y508508D02*
Y512572D01*
X874776Y479298D02*
Y496062D01*
X882904Y479298D02*
Y496062D01*
X874776D02*
X882904D01*
X874776Y479298D02*
X882904D01*
X878840Y485648D02*
Y489712D01*
X876808Y487680D02*
X880872D01*
X873760Y464820D02*
Y497840D01*
X855980Y464820D02*
Y497840D01*
Y464820D02*
X873760D01*
X855980Y497840D02*
X873760D01*
X864870Y479298D02*
Y483362D01*
X862838Y481330D02*
X866902D01*
X286258Y416814D02*
X303022D01*
X286258Y408686D02*
X303022D01*
Y416814D01*
X286258Y408686D02*
Y416814D01*
X292608Y412750D02*
X296672D01*
X294640Y410718D02*
Y414782D01*
X221028Y387258D02*
X265028D01*
X221028Y439258D02*
X265028D01*
X221028Y387258D02*
Y439258D01*
X265028Y387258D02*
Y439258D01*
X646176Y309372D02*
Y325628D01*
X654304Y309372D02*
Y325628D01*
X646176D02*
X654304D01*
X646176Y309372D02*
X654304D01*
X648208Y317500D02*
X652272D01*
X650240Y315468D02*
Y319532D01*
X734684Y309367D02*
Y338323D01*
X757544Y309367D02*
Y338323D01*
X734684D02*
X757544D01*
X734684Y309367D02*
X757544D01*
X745860Y321559D02*
Y325623D01*
X743828Y323591D02*
X747892D01*
X737108Y298196D02*
X753872D01*
X737108Y306324D02*
X753872D01*
X737108Y298196D02*
Y306324D01*
X753872Y298196D02*
Y306324D01*
X743458Y302260D02*
X747522D01*
X745490Y300228D02*
Y304292D01*
X730250Y340360D02*
X760730D01*
X730250Y355600D02*
X760730D01*
X730250Y340360D02*
Y355600D01*
X760730Y340360D02*
Y355600D01*
X743458Y347980D02*
X747522D01*
X745490Y345948D02*
Y350012D01*
X720924Y325209D02*
Y341973D01*
X712796Y325209D02*
Y341973D01*
Y325209D02*
X720924D01*
X712796Y341973D02*
X720924D01*
X716860Y331559D02*
Y335623D01*
X714828Y333591D02*
X718892D01*
X656336Y318262D02*
Y334518D01*
X664464Y318262D02*
Y334518D01*
X656336D02*
X664464D01*
X656336Y318262D02*
X664464D01*
X658368Y326390D02*
X662432D01*
X660400Y324358D02*
Y328422D01*
X646176Y327152D02*
Y343408D01*
X654304Y327152D02*
Y343408D01*
X646176D02*
X654304D01*
X646176Y327152D02*
X654304D01*
X648208Y335280D02*
X652272D01*
X650240Y333248D02*
Y337312D01*
X656336Y336042D02*
Y352298D01*
X664464Y336042D02*
Y352298D01*
X656336D02*
X664464D01*
X656336Y336042D02*
X664464D01*
X658368Y344170D02*
X662432D01*
X660400Y342138D02*
Y346202D01*
X666620Y331239D02*
Y375943D01*
X689480Y331239D02*
Y375943D01*
X666620D02*
X689480D01*
X666620Y331239D02*
X689480D01*
X678050Y351559D02*
Y355623D01*
X676018Y353591D02*
X680082D01*
X116970Y42190D02*
Y77190D01*
X164970Y42190D02*
Y77190D01*
X116970Y42190D02*
X164970D01*
X116970Y77190D02*
X164970D01*
X140970Y57658D02*
Y61722D01*
X138938Y59690D02*
X143002D01*
X1503550Y981990D02*
Y1016990D01*
X1455550Y981990D02*
Y1016990D01*
X1503550D01*
X1455550Y981990D02*
X1503550D01*
X1479550Y997458D02*
Y1001522D01*
X1477518Y999490D02*
X1481582D01*
X42190Y586870D02*
X77190D01*
X42190Y634870D02*
X77190D01*
Y586870D02*
Y634870D01*
X42190Y586870D02*
Y634870D01*
X57658Y610870D02*
X61722D01*
X59690Y608838D02*
Y612902D01*
X1240028Y399034D02*
X1256792D01*
X1240028Y390906D02*
X1256792D01*
Y399034D01*
X1240028Y390906D02*
Y399034D01*
X1246378Y394970D02*
X1250442D01*
X1248410Y392938D02*
Y397002D01*
X1240028Y388660D02*
X1256792D01*
X1240028Y380532D02*
X1256792D01*
Y388660D01*
X1240028Y380532D02*
Y388660D01*
X1246378Y384596D02*
X1250442D01*
X1248410Y382564D02*
Y386628D01*
X1914300Y28540D02*
Y63540D01*
X1866300Y28540D02*
Y63540D01*
X1914300D01*
X1866300Y28540D02*
X1914300D01*
X1890300Y44008D02*
Y48072D01*
X1888268Y46040D02*
X1892332D01*
X1741580Y28540D02*
Y63540D01*
X1693580Y28540D02*
Y63540D01*
X1741580D01*
X1693580Y28540D02*
X1741580D01*
X1717580Y44008D02*
Y48072D01*
X1715548Y46040D02*
X1719612D01*
X2061464Y31242D02*
Y47498D01*
X2053336Y31242D02*
Y47498D01*
Y31242D02*
X2061464D01*
X2053336Y47498D02*
X2061464D01*
X2055368Y39370D02*
X2059432D01*
X2057400Y37338D02*
Y41402D01*
X1997456Y197612D02*
Y213868D01*
X2005584Y197612D02*
Y213868D01*
X1997456D02*
X2005584D01*
X1997456Y197612D02*
X2005584D01*
X1999488Y205740D02*
X2003552D01*
X2001520Y203708D02*
Y207772D01*
X2005584Y224282D02*
Y240538D01*
X1997456Y224282D02*
Y240538D01*
Y224282D02*
X2005584D01*
X1997456Y240538D02*
X2005584D01*
X1999488Y232410D02*
X2003552D01*
X2001520Y230378D02*
Y234442D01*
X2060956Y206248D02*
Y223012D01*
X2069084Y206248D02*
Y223012D01*
X2060956D02*
X2069084D01*
X2060956Y206248D02*
X2069084D01*
X2065020Y212598D02*
Y216662D01*
X2062988Y214630D02*
X2067052D01*
X2050611Y206248D02*
Y223012D01*
X2058739Y206248D02*
Y223012D01*
X2050611D02*
X2058739D01*
X2050611Y206248D02*
X2058739D01*
X2054675Y212598D02*
Y216662D01*
X2052643Y214630D02*
X2056707D01*
X1999370Y277622D02*
Y306324D01*
X2022992Y277622D02*
Y306324D01*
X1999370D02*
X2022992D01*
X1999370Y277622D02*
X2022992D01*
X2009022Y291846D02*
X2013086D01*
X2011054Y289814D02*
Y293878D01*
X1999370Y328422D02*
Y357124D01*
X2022992Y328422D02*
Y357124D01*
X1999370D02*
X2022992D01*
X1999370Y328422D02*
X2022992D01*
X2009022Y342646D02*
X2013086D01*
X2011054Y340614D02*
Y344678D01*
X1999370Y379222D02*
Y407924D01*
X2022992Y379222D02*
Y407924D01*
X1999370D02*
X2022992D01*
X1999370Y379222D02*
X2022992D01*
X2009022Y393446D02*
X2013086D01*
X2011054Y391414D02*
Y395478D01*
X1999370Y531622D02*
Y560324D01*
X2022992Y531622D02*
Y560324D01*
X1999370D02*
X2022992D01*
X1999370Y531622D02*
X2022992D01*
X2009022Y545846D02*
X2013086D01*
X2011054Y543814D02*
Y547878D01*
X1999370Y430022D02*
Y458724D01*
X2022992Y430022D02*
Y458724D01*
X1999370D02*
X2022992D01*
X1999370Y430022D02*
X2022992D01*
X2009022Y444246D02*
X2013086D01*
X2011054Y442214D02*
Y446278D01*
X1999370Y480822D02*
Y509524D01*
X2022992Y480822D02*
Y509524D01*
X1999370D02*
X2022992D01*
X1999370Y480822D02*
X2022992D01*
X2009022Y495046D02*
X2013086D01*
X2011054Y493014D02*
Y497078D01*
X1999370Y582422D02*
Y611124D01*
X2022992Y582422D02*
Y611124D01*
X1999370D02*
X2022992D01*
X1999370Y582422D02*
X2022992D01*
X2009022Y596646D02*
X2013086D01*
X2011054Y594614D02*
Y598678D01*
X1999370Y633222D02*
Y661924D01*
X2022992Y633222D02*
Y661924D01*
X1999370D02*
X2022992D01*
X1999370Y633222D02*
X2022992D01*
X2009022Y647446D02*
X2013086D01*
X2011054Y645414D02*
Y649478D01*
X1718818Y1040130D02*
X1763522D01*
X1718818Y1017270D02*
X1763522D01*
Y1040130D01*
X1718818Y1017270D02*
Y1040130D01*
X1739138Y1028700D02*
X1743202D01*
X1741170Y1026668D02*
Y1030732D01*
X1732788Y1012444D02*
X1749552D01*
X1732788Y1004316D02*
X1749552D01*
Y1012444D01*
X1732788Y1004316D02*
Y1012444D01*
X1739138Y1008380D02*
X1743202D01*
X1741170Y1006348D02*
Y1010412D01*
X1732788Y1002399D02*
X1749552D01*
X1732788Y994271D02*
X1749552D01*
Y1002399D01*
X1732788Y994271D02*
Y1002399D01*
X1739138Y998335D02*
X1743202D01*
X1741170Y996303D02*
Y1000367D01*
X1732788Y992124D02*
X1749552D01*
X1732788Y983996D02*
X1749552D01*
Y992124D01*
X1732788Y983996D02*
Y992124D01*
X1739138Y988060D02*
X1743202D01*
X1741170Y986028D02*
Y990092D01*
X1907540Y973328D02*
Y977392D01*
X1905508Y975360D02*
X1909572D01*
X1929892Y963930D02*
Y986790D01*
X1885188Y963930D02*
Y986790D01*
X1929892D01*
X1885188Y963930D02*
X1929892D01*
X1845818Y970280D02*
X1849882D01*
X1847850Y968248D02*
Y972312D01*
X1823850Y987780D02*
X1871850D01*
X1823850Y952780D02*
X1871850D01*
Y987780D01*
X1823850Y952780D02*
Y987780D01*
X1845818Y1007110D02*
X1849882D01*
X1847850Y1005078D02*
Y1009142D01*
X1862074Y995426D02*
Y1019048D01*
X1833372Y995426D02*
Y1019048D01*
X1862074D01*
X1833372Y995426D02*
X1862074D01*
X1145286Y925322D02*
Y941578D01*
X1153414Y925322D02*
Y941578D01*
X1145286D02*
X1153414D01*
X1145286Y925322D02*
X1153414D01*
X1147318Y933450D02*
X1151382D01*
X1149350Y931418D02*
Y935482D01*
X1143254Y925322D02*
Y941578D01*
X1135126Y925322D02*
Y941578D01*
Y925322D02*
X1143254D01*
X1135126Y941578D02*
X1143254D01*
X1137158Y933450D02*
X1141222D01*
X1139190Y931418D02*
Y935482D01*
X912368Y1005840D02*
X916432D01*
X914400Y1003808D02*
Y1007872D01*
X910336Y997458D02*
X918464D01*
X910336Y1014222D02*
X918464D01*
Y997458D02*
Y1014222D01*
X910336Y997458D02*
Y1014222D01*
X504317Y744982D02*
X533019D01*
X504317Y768604D02*
X533019D01*
X504317Y744982D02*
Y768604D01*
X533019Y744982D02*
Y768604D01*
X518795Y754634D02*
Y758698D01*
X516763Y756666D02*
X520827D01*
X493776Y748538D02*
Y765302D01*
X501904Y748538D02*
Y765302D01*
X493776D02*
X501904D01*
X493776Y748538D02*
X501904D01*
X497840Y754888D02*
Y758952D01*
X495808Y756920D02*
X499872D01*
X511302Y736854D02*
X527558D01*
X511302Y728726D02*
X527558D01*
Y736854D01*
X511302Y728726D02*
Y736854D01*
X519430Y730758D02*
Y734822D01*
X517398Y732790D02*
X521462D01*
X776224Y717042D02*
Y733298D01*
X768096Y717042D02*
Y733298D01*
Y717042D02*
X776224D01*
X768096Y733298D02*
X776224D01*
X770128Y725170D02*
X774192D01*
X772160Y723138D02*
Y727202D01*
X645030Y729260D02*
Y764260D01*
X597030Y729260D02*
Y764260D01*
X645030D01*
X597030Y729260D02*
X645030D01*
X621030Y744728D02*
Y748792D01*
X618998Y746760D02*
X623062D01*
X628396Y771398D02*
Y788162D01*
X636524Y771398D02*
Y788162D01*
X628396D02*
X636524D01*
X628396Y771398D02*
X636524D01*
X632460Y777748D02*
Y781812D01*
X630428Y779780D02*
X634492D01*
X646684Y771652D02*
Y787908D01*
X638556Y771652D02*
Y787908D01*
Y771652D02*
X646684D01*
X638556Y787908D02*
X646684D01*
X640588Y779780D02*
X644652D01*
X642620Y777748D02*
Y781812D01*
X657041Y771652D02*
Y787908D01*
X648913Y771652D02*
Y787908D01*
Y771652D02*
X657041D01*
X648913Y787908D02*
X657041D01*
X650945Y779780D02*
X655009D01*
X652977Y777748D02*
Y781812D01*
X271272Y868426D02*
X287528D01*
X271272Y876554D02*
X287528D01*
X271272Y868426D02*
Y876554D01*
X287528Y868426D02*
Y876554D01*
X279400Y870458D02*
Y874522D01*
X277368Y872490D02*
X281432D01*
X959358Y768350D02*
X1004062D01*
X959358Y745490D02*
X1004062D01*
Y768350D01*
X959358Y745490D02*
Y768350D01*
X979678Y756920D02*
X983742D01*
X981710Y754888D02*
Y758952D01*
X923290Y753110D02*
X953770D01*
X923290Y765810D02*
X953770D01*
X923290Y753110D02*
Y765810D01*
X953770Y753110D02*
Y765810D01*
X936498Y759460D02*
X940562D01*
X938530Y757428D02*
Y761492D01*
X920496Y771398D02*
Y788162D01*
X928624Y771398D02*
Y788162D01*
X920496D02*
X928624D01*
X920496Y771398D02*
X928624D01*
X924560Y777748D02*
Y781812D01*
X922528Y779780D02*
X926592D01*
X751078Y991108D02*
Y1030732D01*
X828802Y991108D02*
Y1030732D01*
X751078Y991108D02*
X828802D01*
X751078Y1030732D02*
X828802D01*
X788670Y1008888D02*
Y1012952D01*
X786638Y1010920D02*
X790702D01*
X794258Y991362D02*
X833882D01*
X794258Y913638D02*
X833882D01*
X794258D02*
Y991362D01*
X833882Y913638D02*
Y991362D01*
X812038Y953770D02*
X816102D01*
X814070Y951738D02*
Y955802D01*
X724916Y1005332D02*
Y1021588D01*
X733044Y1005332D02*
Y1021588D01*
X724916D02*
X733044D01*
X724916Y1005332D02*
X733044D01*
X726948Y1013460D02*
X731012D01*
X728980Y1011428D02*
Y1015492D01*
X743204Y1005332D02*
Y1021588D01*
X735076Y1005332D02*
Y1021588D01*
Y1005332D02*
X743204D01*
X735076Y1021588D02*
X743204D01*
X737108Y1013460D02*
X741172D01*
X739140Y1011428D02*
Y1015492D01*
X751078Y961390D02*
X755142D01*
X753110Y959358D02*
Y963422D01*
X712470Y932180D02*
X793750D01*
X712470Y990600D02*
X793750D01*
X712470Y932180D02*
Y990600D01*
X793750Y932180D02*
Y990600D01*
X700786Y935228D02*
Y951992D01*
X708914Y935228D02*
Y951992D01*
X700786D02*
X708914D01*
X700786Y935228D02*
X708914D01*
X704850Y941578D02*
Y945642D01*
X702818Y943610D02*
X706882D01*
X683260Y939800D02*
Y970280D01*
X695960Y939800D02*
Y970280D01*
X683260D02*
X695960D01*
X683260Y939800D02*
X695960D01*
X689610Y953008D02*
Y957072D01*
X687578Y955040D02*
X691642D01*
X708914Y954278D02*
Y971042D01*
X700786Y954278D02*
Y971042D01*
Y954278D02*
X708914D01*
X700786Y971042D02*
X708914D01*
X704850Y960628D02*
Y964692D01*
X702818Y962660D02*
X706882D01*
X502666Y785613D02*
Y802377D01*
X510794Y785613D02*
Y802377D01*
X502666D02*
X510794D01*
X502666Y785613D02*
X510794D01*
X506730Y791963D02*
Y796027D01*
X504698Y793995D02*
X508762D01*
X566166Y785613D02*
Y802377D01*
X574294Y785613D02*
Y802377D01*
X566166D02*
X574294D01*
X566166Y785613D02*
X574294D01*
X570230Y791963D02*
Y796027D01*
X568198Y793995D02*
X572262D01*
X544576Y992632D02*
Y1008888D01*
X552704Y992632D02*
Y1008888D01*
X544576D02*
X552704D01*
X544576Y992632D02*
X552704D01*
X546608Y1000760D02*
X550672D01*
X548640Y998728D02*
Y1002792D01*
X534416Y992632D02*
Y1008888D01*
X542544Y992632D02*
Y1008888D01*
X534416D02*
X542544D01*
X534416Y992632D02*
X542544D01*
X536448Y1000760D02*
X540512D01*
X538480Y998728D02*
Y1002792D01*
X559562Y931926D02*
X575818D01*
X559562Y940054D02*
X575818D01*
X559562Y931926D02*
Y940054D01*
X575818Y931926D02*
Y940054D01*
X567690Y933958D02*
Y938022D01*
X565658Y935990D02*
X569722D01*
X562740Y865150D02*
Y900150D01*
X610740Y865150D02*
Y900150D01*
X562740Y865150D02*
X610740D01*
X562740Y900150D02*
X610740D01*
X586740Y880618D02*
Y884682D01*
X584708Y882650D02*
X588772D01*
X611000Y948970D02*
Y983970D01*
X659000Y948970D02*
Y983970D01*
X611000Y948970D02*
X659000D01*
X611000Y983970D02*
X659000D01*
X635000Y964438D02*
Y968502D01*
X632968Y966470D02*
X637032D01*
X525650Y865150D02*
Y900150D01*
X477650Y865150D02*
Y900150D01*
X525650D01*
X477650Y865150D02*
X525650D01*
X501650Y880618D02*
Y884682D01*
X499618Y882650D02*
X503682D01*
X386080Y334010D02*
X416560D01*
X386080Y318770D02*
X416560D01*
Y334010D01*
X386080Y318770D02*
Y334010D01*
X399288Y326390D02*
X403352D01*
X401320Y324358D02*
Y328422D01*
X418338Y321564D02*
X435102D01*
X418338Y313436D02*
X435102D01*
Y321564D01*
X418338Y313436D02*
Y321564D01*
X424688Y317500D02*
X428752D01*
X426720Y315468D02*
Y319532D01*
X386080Y317500D02*
X416560D01*
X386080Y302260D02*
X416560D01*
Y317500D01*
X386080Y302260D02*
Y317500D01*
X399288Y309880D02*
X403352D01*
X401320Y307848D02*
Y311912D01*
X386080Y300990D02*
X416560D01*
X386080Y285750D02*
X416560D01*
Y300990D01*
X386080Y285750D02*
Y300990D01*
X399288Y293370D02*
X403352D01*
X401320Y291338D02*
Y295402D01*
X386080Y284480D02*
X416560D01*
X386080Y269240D02*
X416560D01*
Y284480D01*
X386080Y269240D02*
Y284480D01*
X399288Y276860D02*
X403352D01*
X401320Y274828D02*
Y278892D01*
X416814Y249428D02*
Y266192D01*
X408686Y249428D02*
Y266192D01*
Y249428D02*
X416814D01*
X408686Y266192D02*
X416814D01*
X412750Y255778D02*
Y259842D01*
X410718Y257810D02*
X414782D01*
X386080Y367030D02*
X416560D01*
X386080Y351790D02*
X416560D01*
Y367030D01*
X386080Y351790D02*
Y367030D01*
X399288Y359410D02*
X403352D01*
X401320Y357378D02*
Y361442D01*
X418338Y354584D02*
X435102Y354584D01*
X418338Y346456D02*
X435102Y346456D01*
X435102Y354584D02*
X435102Y346456D01*
X418338Y346456D02*
Y354584D01*
X424688Y350520D02*
X428752Y350520D01*
X426720Y348488D02*
Y352552D01*
X386080Y350520D02*
X416560D01*
X386080Y335280D02*
X416560D01*
X416560Y350520D02*
X416560Y335280D01*
X386080D02*
X386080Y350520D01*
X399288Y342900D02*
X403352D01*
X401320Y340868D02*
Y344932D01*
X345948Y365506D02*
X362712D01*
X345948Y373634D02*
X362712D01*
X345948Y365506D02*
Y373634D01*
X362712Y365506D02*
Y373634D01*
X352298Y369570D02*
X356362D01*
X354330Y367538D02*
Y371602D01*
X336550Y332740D02*
Y363220D01*
X351790Y332740D02*
Y363220D01*
X336550D02*
X351790D01*
X336550Y332740D02*
X351790D01*
X344170Y345948D02*
Y350012D01*
X342138Y347980D02*
X346202D01*
X356870Y332740D02*
Y363220D01*
X372110Y332740D02*
Y363220D01*
X356870D02*
X372110D01*
X356870Y332740D02*
X372110D01*
X364490Y345948D02*
Y350012D01*
X362458Y347980D02*
X366522D01*
X388620Y231140D02*
Y261620D01*
X373380Y231140D02*
Y261620D01*
Y231140D02*
X388620D01*
X373380Y261620D02*
X388620D01*
X381000Y244348D02*
Y248412D01*
X378968Y246380D02*
X383032D01*
X406400Y231140D02*
Y261620D01*
X391160Y231140D02*
Y261620D01*
Y231140D02*
X406400D01*
X391160Y261620D02*
X406400D01*
X398780Y244348D02*
Y248412D01*
X396748Y246380D02*
X400812D01*
X393954Y211328D02*
Y228092D01*
X385826Y211328D02*
Y228092D01*
Y211328D02*
X393954D01*
X385826Y228092D02*
X393954D01*
X389890Y217678D02*
Y221742D01*
X387858Y219710D02*
X391922D01*
X370840Y231140D02*
Y261620D01*
X355600Y231140D02*
Y261620D01*
Y231140D02*
X370840D01*
X355600Y261620D02*
X370840D01*
X363220Y244348D02*
Y248412D01*
X361188Y246380D02*
X365252D01*
X353060Y231140D02*
Y261620D01*
X337820Y231140D02*
Y261620D01*
Y231140D02*
X353060D01*
X337820Y261620D02*
X353060D01*
X345440Y244348D02*
Y248412D01*
X343408Y246380D02*
X347472D01*
X358394Y211328D02*
Y228092D01*
X350266Y211328D02*
Y228092D01*
Y211328D02*
X358394D01*
X350266Y228092D02*
X358394D01*
X354330Y217678D02*
Y221742D01*
X352298Y219710D02*
X356362D01*
X413637Y376532D02*
Y434952D01*
X332357Y376532D02*
Y434952D01*
X413637D01*
X332357Y376532D02*
X413637D01*
X372997Y403710D02*
Y407775D01*
X370965Y405742D02*
X375029D01*
X295148Y365506D02*
X311912D01*
X295148Y373634D02*
X311912D01*
X295148Y365506D02*
Y373634D01*
X311912Y365506D02*
Y373634D01*
X301498Y369570D02*
X305562D01*
X303530Y367538D02*
Y371602D01*
X295148Y355346D02*
X311912D01*
X295148Y363474D02*
X311912D01*
X295148Y355346D02*
Y363474D01*
X311912Y355346D02*
Y363474D01*
X301498Y359410D02*
X305562D01*
X303530Y357378D02*
Y361442D01*
X295148Y345186D02*
X311912D01*
X295148Y353314D02*
X311912D01*
X295148Y345186D02*
Y353314D01*
X311912Y345186D02*
Y353314D01*
X301498Y349250D02*
X305562D01*
X303530Y347218D02*
Y351282D01*
X314198Y258064D02*
X330962D01*
X314198Y249936D02*
X330962D01*
Y258064D01*
X314198Y249936D02*
Y258064D01*
X320548Y254000D02*
X324612D01*
X322580Y251968D02*
Y256032D01*
X314198Y247904D02*
X330962D01*
X314198Y239776D02*
X330962D01*
Y247904D01*
X314198Y239776D02*
Y247904D01*
X320548Y243840D02*
X324612D01*
X322580Y241808D02*
Y245872D01*
X295148Y249936D02*
X311912D01*
X295148Y258064D02*
X311912D01*
X295148Y249936D02*
Y258064D01*
X311912Y249936D02*
Y258064D01*
X301498Y254000D02*
X305562D01*
X303530Y251968D02*
Y256032D01*
X295148Y239776D02*
X311912D01*
X295148Y247904D02*
X311912D01*
X295148Y239776D02*
Y247904D01*
X311912Y239776D02*
Y247904D01*
X301498Y243840D02*
X305562D01*
X303530Y241808D02*
Y245872D01*
X267208Y214630D02*
X311912D01*
X267208Y237490D02*
X311912D01*
X267208Y214630D02*
Y237490D01*
X311912Y214630D02*
Y237490D01*
X287528Y226060D02*
X291592D01*
X289560Y224028D02*
Y228092D01*
X139573Y265430D02*
X143637D01*
X141605Y263398D02*
Y267462D01*
X133477Y261366D02*
Y269494D01*
X149733Y261366D02*
Y269494D01*
X133477Y261366D02*
X149733D01*
X133477Y269494D02*
X149733D01*
X156210Y259588D02*
Y263652D01*
X154178Y261620D02*
X158242D01*
X152146Y269748D02*
X160274D01*
X152146Y253492D02*
X160274D01*
X152146D02*
Y269748D01*
X160274Y253492D02*
Y269748D01*
X157988Y347980D02*
X162052D01*
X160020Y345948D02*
Y350012D01*
X151892Y343916D02*
Y352044D01*
X168148Y343916D02*
Y352044D01*
X151892Y343916D02*
X168148D01*
X151892Y352044D02*
X168148D01*
X175260Y349758D02*
Y353822D01*
X173228Y351790D02*
X177292Y351790D01*
X171196Y343662D02*
X179324D01*
X171196Y359918D02*
X179324D01*
Y343662D02*
Y359918D01*
X171196D02*
X171196Y343662D01*
X132588Y271780D02*
X177292D01*
X132588Y294640D02*
X177292D01*
X132588Y271780D02*
Y294640D01*
X177292Y271780D02*
Y294640D01*
X152908Y283210D02*
X156972D01*
X154940Y281178D02*
Y285242D01*
X136398Y337820D02*
X181102D01*
X136398Y314960D02*
X181102D01*
Y337820D01*
X136398Y314960D02*
Y337820D01*
X156718Y326390D02*
X160782D01*
X158750Y328422D02*
X158750Y324358D01*
X255270Y816610D02*
Y875030D01*
X173990Y816610D02*
Y875030D01*
X255270D01*
X173990Y816610D02*
X255270D01*
X214630Y843788D02*
Y847852D01*
X212598Y845820D02*
X216662D01*
X261620Y690880D02*
Y721360D01*
X246380Y690880D02*
Y721360D01*
Y690880D02*
X261620D01*
X246380Y721360D02*
X261620D01*
X254000Y704088D02*
Y708152D01*
X251968Y706120D02*
X256032D01*
X246380Y744220D02*
Y774700D01*
X261620Y744220D02*
Y774700D01*
X246380D02*
X261620D01*
X246380Y744220D02*
X261620D01*
X254000Y757428D02*
Y761492D01*
X251968Y759460D02*
X256032D01*
X241808Y740664D02*
X258572D01*
X241808Y732536D02*
X258572D01*
Y740664D01*
X241808Y732536D02*
Y740664D01*
X248158Y736600D02*
X252222D01*
X250190Y734568D02*
Y738632D01*
X241808Y730504D02*
X258572D01*
X241808Y722376D02*
X258572D01*
Y730504D01*
X241808Y722376D02*
Y730504D01*
X248158Y726440D02*
X252222D01*
X250190Y724408D02*
Y728472D01*
X194310Y763778D02*
Y808482D01*
X217170Y763778D02*
Y808482D01*
X194310D02*
X217170D01*
X194310Y763778D02*
X217170D01*
X205740Y784098D02*
Y788162D01*
X203708Y786130D02*
X207772D01*
X310388Y737870D02*
X314452D01*
X312420Y735838D02*
Y739902D01*
X271780Y708660D02*
X353060D01*
X271780Y767080D02*
X353060D01*
X271780Y708660D02*
Y767080D01*
X353060Y708660D02*
Y767080D01*
X1112557Y81856D02*
Y85920D01*
X1110525Y83888D02*
X1114589D01*
X1108493Y92016D02*
X1116621D01*
X1108493Y75760D02*
X1116621D01*
X1108493D02*
Y92016D01*
X1116621Y75760D02*
Y92016D01*
X908050Y72898D02*
Y76962D01*
X906018Y74930D02*
X910082D01*
X916432Y70866D02*
Y78994D01*
X899668Y70866D02*
Y78994D01*
X916432D01*
X899668Y70866D02*
X916432D01*
X311658Y819150D02*
X356362D01*
X311658Y796290D02*
X356362D01*
Y819150D01*
X311658Y796290D02*
Y819150D01*
X331978Y807720D02*
X336042D01*
X334010Y805688D02*
Y809752D01*
X260350Y791718D02*
Y836422D01*
X283210Y791718D02*
Y836422D01*
X260350D02*
X283210D01*
X260350Y791718D02*
X283210D01*
X271780Y812038D02*
Y816102D01*
X269748Y814070D02*
X273812D01*
X131318Y961390D02*
X135382D01*
X133350Y959358D02*
Y963422D01*
X125222Y957326D02*
Y965454D01*
X141478Y957326D02*
Y965454D01*
X125222Y957326D02*
X141478D01*
X125222Y965454D02*
X141478D01*
X454660Y403098D02*
Y407162D01*
X452628Y405130D02*
X456692D01*
X450596Y413258D02*
X458724D01*
X450596Y397002D02*
X458724D01*
X450596D02*
Y413258D01*
X458724Y397002D02*
Y413258D01*
X464820Y403098D02*
Y407162D01*
X462788Y405130D02*
X466852D01*
X460756Y413258D02*
X468884D01*
X460756Y397002D02*
X468884D01*
X460756D02*
Y413258D01*
X468884Y397002D02*
Y413258D01*
X340868Y476250D02*
X344932D01*
X342900Y474218D02*
Y478282D01*
X351028Y472186D02*
Y480314D01*
X334772Y472186D02*
Y480314D01*
X351028D01*
X334772Y472186D02*
X351028D01*
X340868Y455930D02*
X344932D01*
X342900Y453898D02*
Y457962D01*
X351028Y451866D02*
Y459994D01*
X334772Y451866D02*
Y459994D01*
X351028D01*
X334772Y451866D02*
X351028D01*
X340868Y496570D02*
X344932D01*
X342900Y494538D02*
Y498602D01*
X351028Y492506D02*
Y500634D01*
X334772Y492506D02*
Y500634D01*
X351028D01*
X334772Y492506D02*
X351028D01*
X340868Y445919D02*
X344932D01*
X342900Y443887D02*
Y447952D01*
X351028Y441856D02*
Y449983D01*
X334772Y441856D02*
Y449983D01*
X351028D01*
X334772Y441856D02*
X351028D01*
X340868Y486410D02*
X344932D01*
X342900Y484378D02*
Y488442D01*
X351028Y482346D02*
Y490474D01*
X334772Y482346D02*
Y490474D01*
X351028D01*
X334772Y482346D02*
X351028D01*
X340868Y466090D02*
X344932D01*
X342900Y464058D02*
Y468122D01*
X351028Y462026D02*
Y470154D01*
X334772Y462026D02*
Y470154D01*
X351028D01*
X334772Y462026D02*
X351028D01*
X340868Y506880D02*
X344932D01*
X342900Y504847D02*
Y508912D01*
X351028Y502816D02*
Y510943D01*
X334772Y502816D02*
Y510943D01*
X351028D01*
X334772Y502816D02*
X351028D01*
X340868Y517039D02*
X344932D01*
X342900Y515008D02*
Y519072D01*
X351028Y512976D02*
Y521104D01*
X334772Y512976D02*
Y521104D01*
X351028D01*
X334772Y512976D02*
X351028D01*
X420370Y514858D02*
Y518922D01*
X418338Y516890D02*
X422402D01*
X442722Y505460D02*
Y528320D01*
X398018Y505460D02*
Y528320D01*
X442722D01*
X398018Y505460D02*
X442722D01*
X474980Y403098D02*
Y407162D01*
X472948Y405130D02*
X477012D01*
X470916Y413258D02*
X479044D01*
X470916Y397002D02*
X479044D01*
X470916D02*
Y413258D01*
X479044Y397002D02*
Y413258D01*
X485140Y403098D02*
Y407162D01*
X483108Y405130D02*
X487172D01*
X481076Y413258D02*
X489204D01*
X481076Y397002D02*
X489204D01*
X481076D02*
Y413258D01*
X489204Y397002D02*
Y413258D01*
X495300Y403098D02*
Y407162D01*
X493268Y405130D02*
X497332D01*
X491236Y413258D02*
X499364D01*
X491236Y397002D02*
X499364D01*
X491236D02*
Y413258D01*
X499364Y397002D02*
Y413258D01*
X505460Y403098D02*
Y407162D01*
X503428Y405130D02*
X507492D01*
X501396Y413258D02*
X509524D01*
X501396Y397002D02*
X509524D01*
X501396D02*
Y413258D01*
X509524Y397002D02*
Y413258D01*
X515620Y403098D02*
Y407162D01*
X513588Y405130D02*
X517652D01*
X511556Y413258D02*
X519684D01*
X511556Y397002D02*
X519684D01*
X511556D02*
Y413258D01*
X519684Y397002D02*
Y413258D01*
X538097Y465432D02*
X596517D01*
X538097Y384152D02*
X596517D01*
X538097D02*
Y465432D01*
X596517Y384152D02*
Y465432D01*
X565275Y424792D02*
X569339D01*
X567307Y422760D02*
Y426824D01*
X525780Y403098D02*
Y407162D01*
X523748Y405130D02*
X527812D01*
X521716Y413258D02*
X529844D01*
X521716Y397002D02*
X529844D01*
X521716D02*
Y413258D01*
X529844Y397002D02*
Y413258D01*
X618615Y488292D02*
X622679D01*
X620647Y486260D02*
Y490325D01*
X612519Y484228D02*
Y492356D01*
X628775Y484228D02*
Y492356D01*
X612519Y484228D02*
X628775D01*
X612519Y492356D02*
X628775D01*
X577975Y495912D02*
X582039D01*
X580007Y493880D02*
Y497944D01*
X571879Y491848D02*
Y499976D01*
X588135Y491848D02*
Y499976D01*
X571879Y491848D02*
X588135D01*
X571879Y499976D02*
X588135D01*
X486027Y514200D02*
Y518265D01*
X483995Y516232D02*
X488059D01*
X463675Y504802D02*
Y527662D01*
X508379Y504802D02*
Y527662D01*
X463675Y504802D02*
X508379D01*
X463675Y527662D02*
X508379D01*
X477137Y531980D02*
Y536045D01*
X475105Y534012D02*
X479169D01*
X468755Y529948D02*
Y538076D01*
X485519Y529948D02*
Y538076D01*
X468755Y529948D02*
X485519D01*
X468755Y538076D02*
X485519D01*
X508887Y558650D02*
Y562715D01*
X506855Y560682D02*
X510919D01*
X468247Y540362D02*
Y581256D01*
X549527Y540362D02*
Y581256D01*
X468247Y540362D02*
X549527D01*
X468247Y581256D02*
X549527D01*
X625727Y501500D02*
Y505564D01*
X623695Y503532D02*
X627759D01*
X621663Y511660D02*
X629791D01*
X621663Y495404D02*
X629791D01*
X621663D02*
Y511660D01*
X629791Y495404D02*
Y511660D01*
X615567Y501500D02*
Y505564D01*
X613535Y503532D02*
X617599D01*
X611503Y511660D02*
X619631D01*
X611503Y495404D02*
X619631D01*
X611503D02*
Y511660D01*
X619631Y495404D02*
Y511660D01*
X641475Y512930D02*
X645539D01*
X643507Y510898D02*
Y514963D01*
X632077Y535282D02*
X654937D01*
X632077Y490578D02*
X654937D01*
X632077D02*
Y535282D01*
X654937Y490578D02*
Y535282D01*
X595247Y514200D02*
Y518265D01*
X593215Y516232D02*
X597279D01*
X591183Y524360D02*
X599311D01*
X591183Y508104D02*
X599311D01*
X591183D02*
Y524360D01*
X599311Y508104D02*
Y524360D01*
X597025Y531218D02*
X601089D01*
X599057Y529186D02*
Y533251D01*
X590929Y527154D02*
Y535282D01*
X607185Y527154D02*
Y535282D01*
X590929Y527154D02*
X607185D01*
X590929Y535282D02*
X607185D01*
X465707Y586082D02*
Y644502D01*
X546987Y586082D02*
Y644502D01*
X465707Y586082D02*
X546987D01*
X465707Y644502D02*
X546987D01*
X506347Y613260D02*
Y617324D01*
X504315Y615292D02*
X508379D01*
X465707Y653392D02*
Y711812D01*
X546987Y653392D02*
Y711812D01*
X465707Y653392D02*
X546987D01*
X465707Y711812D02*
X546987D01*
X506347Y680570D02*
Y684634D01*
X504315Y682602D02*
X508379D01*
X130810Y695198D02*
Y739902D01*
X107950Y695198D02*
Y739902D01*
Y695198D02*
X130810D01*
X107950Y739902D02*
X130810D01*
X119380Y715518D02*
Y719582D01*
X117348Y717550D02*
X121412D01*
X153416Y726948D02*
Y743712D01*
X161544Y726948D02*
Y743712D01*
X153416D02*
X161544D01*
X153416Y726948D02*
X161544D01*
X157480Y733298D02*
Y737362D01*
X155448Y735330D02*
X159512D01*
X171704Y702818D02*
Y719582D01*
X163576Y702818D02*
Y719582D01*
Y702818D02*
X171704D01*
X163576Y719582D02*
X171704D01*
X167640Y709168D02*
Y713232D01*
X165608Y711200D02*
X169672D01*
X161544Y702818D02*
Y719582D01*
X153416Y702818D02*
Y719582D01*
Y702818D02*
X161544D01*
X153416Y719582D02*
X161544D01*
X157480Y709168D02*
Y713232D01*
X155448Y711200D02*
X159512D01*
X173228Y743966D02*
X189992D01*
X173228Y752094D02*
X189992D01*
X173228Y743966D02*
Y752094D01*
X189992Y743966D02*
Y752094D01*
X179578Y748030D02*
X183642D01*
X181610Y745998D02*
Y750062D01*
X171704Y763778D02*
Y780542D01*
X163576Y763778D02*
Y780542D01*
Y763778D02*
X171704D01*
X163576Y780542D02*
X171704D01*
X167640Y770128D02*
Y774192D01*
X165608Y772160D02*
X169672D01*
X173228Y754126D02*
X189992D01*
X173228Y762254D02*
X189992D01*
X173228Y754126D02*
Y762254D01*
X189992Y754126D02*
Y762254D01*
X179578Y758190D02*
X183642D01*
X181610Y756158D02*
Y760222D01*
X197358Y762254D02*
X214122D01*
X197358Y754126D02*
X214122D01*
Y762254D01*
X197358Y754126D02*
Y762254D01*
X203708Y758190D02*
X207772D01*
X205740Y756158D02*
Y760222D01*
X197358Y752094D02*
X214122D01*
X197358Y743966D02*
X214122D01*
Y752094D01*
X197358Y743966D02*
Y752094D01*
X203708Y748030D02*
X207772D01*
X205740Y745998D02*
Y750062D01*
X217170Y695198D02*
Y739902D01*
X194310Y695198D02*
Y739902D01*
Y695198D02*
X217170D01*
X194310Y739902D02*
X217170D01*
X205740Y715518D02*
Y719582D01*
X203708Y717550D02*
X207772D01*
X163576Y726948D02*
Y743712D01*
X171704Y726948D02*
Y743712D01*
X163576D02*
X171704D01*
X163576Y726948D02*
X171704D01*
X167640Y733298D02*
Y737362D01*
X165608Y735330D02*
X169672D01*
X161544Y763778D02*
Y780542D01*
X153416Y763778D02*
Y780542D01*
Y763778D02*
X161544D01*
X153416Y780542D02*
X161544D01*
X157480Y770128D02*
Y774192D01*
X155448Y772160D02*
X159512D01*
X163576Y787908D02*
Y804672D01*
X171704Y787908D02*
Y804672D01*
X163576D02*
X171704D01*
X163576Y787908D02*
X171704D01*
X167640Y794258D02*
Y798322D01*
X165608Y796290D02*
X169672D01*
X153416Y787908D02*
Y804672D01*
X161544Y787908D02*
Y804672D01*
X153416D02*
X161544D01*
X153416Y787908D02*
X161544D01*
X157480Y794258D02*
Y798322D01*
X155448Y796290D02*
X159512D01*
X135128Y762254D02*
X151892D01*
X135128Y754126D02*
X151892D01*
Y762254D01*
X135128Y754126D02*
Y762254D01*
X141478Y758190D02*
X145542D01*
X143510Y756158D02*
Y760222D01*
X135128Y752094D02*
X151892D01*
X135128Y743966D02*
X151892D01*
Y752094D01*
X135128Y743966D02*
Y752094D01*
X141478Y748030D02*
X145542D01*
X143510Y745998D02*
Y750062D01*
X110998Y754126D02*
X127762D01*
X110998Y762254D02*
X127762D01*
X110998Y754126D02*
Y762254D01*
X127762Y754126D02*
Y762254D01*
X117348Y758190D02*
X121412D01*
X119380Y756158D02*
Y760222D01*
X110998Y743966D02*
X127762D01*
X110998Y752094D02*
X127762D01*
X110998Y743966D02*
Y752094D01*
X127762Y743966D02*
Y752094D01*
X117348Y748030D02*
X121412D01*
X119380Y745998D02*
Y750062D01*
X107950Y765048D02*
Y809752D01*
X130810Y765048D02*
Y809752D01*
X107950D02*
X130810D01*
X107950Y765048D02*
X130810D01*
X119380Y785368D02*
Y789432D01*
X117348Y787400D02*
X121412D01*
X1044448Y66040D02*
X1048512D01*
X1046480Y64008D02*
Y68072D01*
X1042416Y74422D02*
X1050544D01*
X1042416Y57658D02*
X1050544D01*
X1042416D02*
Y74422D01*
X1050544Y57658D02*
Y74422D01*
X1044448Y83820D02*
X1048512D01*
X1046480Y81788D02*
Y85852D01*
X1042416Y92202D02*
X1050544D01*
X1042416Y75438D02*
X1050544D01*
X1042416D02*
Y92202D01*
X1050544Y75438D02*
Y92202D01*
X1274586Y267524D02*
X1291350D01*
X1274586Y259396D02*
X1291350D01*
Y267524D01*
X1274586Y259396D02*
Y267524D01*
X1280936Y263460D02*
X1285000D01*
X1282968Y261428D02*
Y265492D01*
X1306954Y260158D02*
Y276922D01*
X1298826Y260158D02*
Y276922D01*
Y260158D02*
X1306954D01*
X1298826Y276922D02*
X1306954D01*
X1302890Y266508D02*
Y270572D01*
X1300858Y268540D02*
X1304922D01*
X1283018Y291146D02*
X1299782D01*
X1283018Y299274D02*
X1299782D01*
X1283018Y291146D02*
Y299274D01*
X1299782Y291146D02*
Y299274D01*
X1289368Y295210D02*
X1293432D01*
X1291400Y293178D02*
Y297242D01*
X1298954Y314095D02*
X1298954Y330859D01*
X1290826D02*
X1290826Y314095D01*
X1290826Y330859D02*
X1298954D01*
X1290826Y314095D02*
X1298954D01*
X1294890Y320445D02*
Y324509D01*
X1292858Y322477D02*
X1296922D01*
X1270508Y311404D02*
X1287272D01*
X1270508Y303276D02*
X1287272D01*
Y311404D01*
X1270508Y303276D02*
Y311404D01*
X1276858Y307340D02*
X1280922D01*
X1278890Y305308D02*
Y309372D01*
X1249998Y301306D02*
X1266762D01*
X1249998Y309434D02*
X1266762D01*
X1249998Y301306D02*
Y309434D01*
X1266762Y301306D02*
Y309434D01*
X1256348Y305370D02*
X1260412D01*
X1258380Y303338D02*
Y307402D01*
X1242378Y269556D02*
X1259142D01*
X1242378Y277684D02*
X1259142D01*
X1242378Y269556D02*
Y277684D01*
X1259142Y269556D02*
Y277684D01*
X1248728Y273620D02*
X1252792D01*
X1250760Y271588D02*
Y275652D01*
X1242378Y259396D02*
X1259142D01*
X1242378Y267524D02*
X1259142D01*
X1242378Y259396D02*
Y267524D01*
X1259142Y259396D02*
Y267524D01*
X1248728Y263460D02*
X1252792D01*
X1250760Y261428D02*
Y265492D01*
X397510Y822198D02*
Y826262D01*
X395478Y824230D02*
X399542D01*
X419862Y812800D02*
Y835660D01*
X375158Y812800D02*
Y835660D01*
X419862D01*
X375158Y812800D02*
X419862D01*
X2493919Y348926D02*
X2563221D01*
X2493919Y228926D02*
Y348926D01*
Y228926D02*
X2563221D01*
Y348926D01*
X2561270Y243976D02*
Y304926D01*
X2495870Y243976D02*
Y304926D01*
Y243976D02*
X2561270D01*
X2495870Y304926D02*
X2561270D01*
X2528570Y280670D02*
Y287274D01*
X2525268Y283972D02*
X2531872D01*
X2575814Y296418D02*
Y313182D01*
X2567686Y296418D02*
Y313182D01*
Y296418D02*
X2575814D01*
X2567686Y313182D02*
X2575814D01*
X2571750Y302768D02*
Y306832D01*
X2569718Y304800D02*
X2573782D01*
X2111168Y502920D02*
X2115232D01*
X2113200Y500888D02*
Y504952D01*
X2109136Y494538D02*
X2117264D01*
X2109136Y511302D02*
X2117264D01*
Y494538D02*
Y511302D01*
X2109136Y494538D02*
Y511302D01*
X2361184Y501142D02*
Y517398D01*
X2353056Y501142D02*
Y517398D01*
Y501142D02*
X2361184D01*
X2353056Y517398D02*
X2361184D01*
X2355088Y509270D02*
X2359152D01*
X2357120Y507238D02*
Y511302D01*
X2371344Y512572D02*
Y528828D01*
X2363216Y512572D02*
Y528828D01*
Y512572D02*
X2371344D01*
X2363216Y528828D02*
X2371344D01*
X2365248Y520700D02*
X2369312D01*
X2367280Y518668D02*
Y522732D01*
X2406142Y524256D02*
X2422398D01*
X2406142Y532384D02*
X2422398D01*
X2406142Y524256D02*
Y532384D01*
X2422398Y524256D02*
Y532384D01*
X2414270Y526288D02*
Y530352D01*
X2412238Y528320D02*
X2416302D01*
X2195830Y435864D02*
X2277110D01*
X2195830Y394970D02*
X2277110D01*
Y435864D01*
X2195830Y394970D02*
Y435864D01*
X2234438Y415290D02*
X2238502D01*
X2236470Y413258D02*
Y417322D01*
X2210562Y489966D02*
X2226818D01*
X2210562Y498094D02*
X2226818D01*
X2210562Y489966D02*
Y498094D01*
X2226818Y489966D02*
Y498094D01*
X2218690Y491998D02*
Y496062D01*
X2216658Y494030D02*
X2220722D01*
X2140458Y403860D02*
X2185162D01*
X2140458Y426720D02*
X2185162D01*
X2140458Y403860D02*
Y426720D01*
X2185162Y403860D02*
Y426720D01*
X2160778Y415290D02*
X2164842D01*
X2162810Y413258D02*
Y417322D01*
X2134362Y967486D02*
X2150618D01*
X2134362Y975614D02*
X2150618D01*
X2134362Y967486D02*
Y975614D01*
X2150618Y967486D02*
Y975614D01*
X2142490Y969518D02*
Y973582D01*
X2140458Y971550D02*
X2144522D01*
X2210562Y967486D02*
X2226818D01*
X2210562Y975614D02*
X2226818D01*
X2210562Y967486D02*
Y975614D01*
X2226818Y967486D02*
Y975614D01*
X2218690Y969518D02*
Y973582D01*
X2216658Y971550D02*
X2220722D01*
X337820Y878395D02*
Y919035D01*
X375920D01*
X356870Y895413D02*
Y902017D01*
X353568Y898715D02*
X360172D01*
X337820Y878395D02*
X375920D01*
Y919035D01*
X297180Y937260D02*
X327660D01*
X297180Y922020D02*
X327660D01*
Y937260D01*
X297180Y922020D02*
Y937260D01*
X310388Y929640D02*
X314452D01*
X312420Y927608D02*
Y931672D01*
X129820Y923160D02*
X164820D01*
X129820Y875160D02*
X164820D01*
X129820D02*
Y923160D01*
X164820Y875160D02*
Y923160D01*
X145288Y899160D02*
X149352D01*
X147320Y897128D02*
Y901192D01*
X220138Y925576D02*
Y954278D01*
X243760Y925576D02*
Y954278D01*
X220138D02*
X243760D01*
X220138Y925576D02*
X243760D01*
X229790Y939800D02*
X233854D01*
X231822Y937768D02*
Y941832D01*
X216662Y965454D02*
X232918D01*
X216662Y957326D02*
X232918D01*
Y965454D01*
X216662Y957326D02*
Y965454D01*
X224790Y959358D02*
Y963422D01*
X222758Y961390D02*
X226822D01*
X100076Y925576D02*
Y954278D01*
X123698Y925576D02*
Y954278D01*
X100076D02*
X123698D01*
X100076Y925576D02*
X123698D01*
X109728Y939800D02*
X113792D01*
X111760Y937768D02*
Y941832D01*
X638810Y189738D02*
Y193802D01*
X636778Y191770D02*
X640842D01*
X647192Y187706D02*
Y195834D01*
X630428Y187706D02*
Y195834D01*
X647192D01*
X630428Y187706D02*
X647192D01*
X837692Y171704D02*
X853948D01*
X837692Y163576D02*
X853948D01*
Y171704D01*
X837692Y163576D02*
Y171704D01*
X845820Y165608D02*
Y169672D01*
X843788Y167640D02*
X847852D01*
X837692Y173736D02*
X853948D01*
X837692Y181864D02*
X853948D01*
X837692Y173736D02*
Y181864D01*
X853948Y173736D02*
Y181864D01*
X845820Y175768D02*
Y179832D01*
X843788Y177800D02*
X847852D01*
X828548Y203200D02*
X832612D01*
X830580Y201168D02*
Y205232D01*
X826516Y194818D02*
X834644D01*
X826516Y211582D02*
X834644D01*
Y194818D02*
Y211582D01*
X826516Y194818D02*
Y211582D01*
X828548Y156210D02*
X832612D01*
X830580Y154178D02*
Y158242D01*
X826516Y147828D02*
X834644D01*
X826516Y164592D02*
X834644D01*
Y147828D02*
Y164592D01*
X826516Y147828D02*
Y164592D01*
X818388Y203200D02*
X822452D01*
X820420Y201168D02*
Y205232D01*
X816356Y194818D02*
X824484D01*
X816356Y211582D02*
X824484D01*
Y194818D02*
Y211582D01*
X816356Y194818D02*
Y211582D01*
X818388Y156210D02*
X822452D01*
X820420Y154178D02*
Y158242D01*
X816356Y147828D02*
X824484D01*
X816356Y164592D02*
X824484D01*
Y147828D02*
Y164592D01*
X816356Y147828D02*
Y164592D01*
X808228Y203200D02*
X812292D01*
X810260Y201168D02*
Y205232D01*
X806196Y194818D02*
X814324D01*
X806196Y211582D02*
X814324D01*
Y194818D02*
Y211582D01*
X806196Y194818D02*
Y211582D01*
X737460Y137160D02*
Y208280D01*
X781460Y137160D02*
Y208280D01*
X737460Y137160D02*
X781460Y137160D01*
X737460Y208280D02*
X781460Y208280D01*
X759460Y170688D02*
X759460Y174752D01*
X757428Y172720D02*
X761492Y172720D01*
X686308Y210820D02*
X690372D01*
X688340Y208788D02*
Y212852D01*
X684276Y202438D02*
X692404D01*
X684276Y219202D02*
X692404D01*
Y202438D02*
Y219202D01*
X684276Y202438D02*
Y219202D01*
X846328Y137160D02*
X850392D01*
X848360Y135128D02*
Y139192D01*
X836930Y159512D02*
X859790D01*
X836930Y114808D02*
X859790D01*
X836930D02*
Y159512D01*
X859790Y114808D02*
Y159512D01*
X808228Y156210D02*
X812292D01*
X810260Y154178D02*
Y158242D01*
X806196Y147828D02*
X814324D01*
X806196Y164592D02*
X814324D01*
Y147828D02*
Y164592D01*
X806196Y147828D02*
Y164592D01*
X665988Y196850D02*
X670052D01*
X668020Y194818D02*
Y198882D01*
X656590Y219202D02*
X679450D01*
X656590Y174498D02*
X679450D01*
X656590D02*
Y219202D01*
X679450Y174498D02*
Y219202D01*
X706628Y210820D02*
X710692D01*
X708660Y208788D02*
Y212852D01*
X704596Y202438D02*
X712724D01*
X704596Y219202D02*
X712724D01*
Y202438D02*
Y219202D01*
X704596Y202438D02*
Y219202D01*
X696468Y210820D02*
X700532D01*
X698500Y208788D02*
Y212852D01*
X694436Y202438D02*
X702564D01*
X694436Y219202D02*
X702564D01*
Y202438D02*
Y219202D01*
X694436Y202438D02*
Y219202D01*
X686308Y160934D02*
X690372D01*
X688340Y158902D02*
Y162966D01*
X684276Y152552D02*
X692404D01*
X684276Y169316D02*
X692404D01*
Y152552D02*
Y169316D01*
X684276Y152552D02*
Y169316D01*
X706628Y160934D02*
X710692D01*
X708660Y158902D02*
Y162966D01*
X704596Y152552D02*
X712724D01*
X704596Y169316D02*
X712724D01*
Y152552D02*
Y169316D01*
X704596Y152552D02*
Y169316D01*
X696468Y160934D02*
X700532D01*
X698500Y158902D02*
Y162966D01*
X694436Y152552D02*
X702564D01*
X694436Y169316D02*
X702564D01*
Y152552D02*
Y169316D01*
X694436Y152552D02*
Y169316D01*
X828548Y134620D02*
X832612D01*
X830580Y132588D02*
Y136652D01*
X826516Y143002D02*
X834644D01*
X826516Y126238D02*
X834644D01*
X826516D02*
Y143002D01*
X834644Y126238D02*
Y143002D01*
X818388Y134620D02*
X822452D01*
X820420Y132588D02*
Y136652D01*
X816356Y143002D02*
X824484D01*
X816356Y126238D02*
X824484D01*
X816356D02*
Y143002D01*
X824484Y126238D02*
Y143002D01*
X808228Y134620D02*
X812292D01*
X810260Y132588D02*
Y136652D01*
X806196Y143002D02*
X814324D01*
X806196Y126238D02*
X814324D01*
X806196D02*
Y143002D01*
X814324Y126238D02*
Y143002D01*
X790448Y110490D02*
X794512D01*
X792480Y108458D02*
Y112522D01*
X781050Y132842D02*
X803910D01*
X781050Y88138D02*
X803910D01*
X781050D02*
Y132842D01*
X803910Y88138D02*
Y132842D01*
X706628Y141884D02*
X710692D01*
X708660Y139852D02*
Y143916D01*
X704596Y133502D02*
X712724D01*
X704596Y150266D02*
X712724D01*
Y133502D02*
Y150266D01*
X704596Y133502D02*
Y150266D01*
X724408Y110490D02*
X728472D01*
X726440Y108458D02*
Y112522D01*
X715010Y132842D02*
X737870D01*
X715010Y88138D02*
X737870D01*
X715010D02*
Y132842D01*
X737870Y88138D02*
Y132842D01*
X686308Y141884D02*
X690372D01*
X688340Y139852D02*
Y143916D01*
X684276Y133502D02*
X692404D01*
X684276Y150266D02*
X692404D01*
Y133502D02*
Y150266D01*
X684276Y133502D02*
Y150266D01*
X696468Y141884D02*
X700532D01*
X698500Y139852D02*
Y143916D01*
X694436Y133502D02*
X702564D01*
X694436Y150266D02*
X702564D01*
Y133502D02*
Y150266D01*
X694436Y133502D02*
Y150266D01*
X2061464Y50038D02*
X2061464Y66802D01*
X2053336Y50038D02*
Y66802D01*
Y50038D02*
X2061464D01*
X2053336Y66802D02*
X2061464D01*
X2057400Y56388D02*
Y60452D01*
X2055368Y58420D02*
X2059432Y58420D01*
X2071624Y50038D02*
Y66802D01*
X2063496D02*
X2063496Y50038D01*
X2071624D01*
X2063496Y66802D02*
X2071624D01*
X2067560Y56388D02*
Y60452D01*
X2065528Y58420D02*
X2069592D01*
X2235708Y96520D02*
X2239772D01*
X2237740Y94488D02*
Y98552D01*
X2233676Y88138D02*
X2241804Y88138D01*
X2233676Y104902D02*
X2241804D01*
X2241804Y88138D02*
X2241804Y104902D01*
X2233676Y88138D02*
X2233676Y104902D01*
X2249170Y30480D02*
Y60960D01*
X2233930Y30480D02*
Y60960D01*
Y30480D02*
X2249170D01*
X2233930Y60960D02*
X2249170D01*
X2241550Y43688D02*
Y47752D01*
X2239518Y45720D02*
X2243582D01*
X2277110Y23368D02*
Y68072D01*
X2254250Y23368D02*
Y68072D01*
Y23368D02*
X2277110D01*
X2254250Y68072D02*
X2277110D01*
X2265680Y43688D02*
Y47752D01*
X2263648Y45720D02*
X2267712D01*
X2199402Y29210D02*
Y163830D01*
X2125234D02*
X2199402D01*
X2125234Y29210D02*
X2199402D01*
X2162318Y93218D02*
Y99822D01*
X2159016Y96520D02*
X2165620D01*
X2125234Y29210D02*
Y163830D01*
X2051050Y36068D02*
Y80772D01*
X2028190Y80772D02*
X2028190Y36068D01*
X2051050D01*
X2028190Y80772D02*
X2051050Y80772D01*
X2039620Y56388D02*
Y60452D01*
X2037588Y58420D02*
X2041652D01*
X2253996Y88138D02*
Y104902D01*
X2262124D02*
X2262124Y88138D01*
X2253996Y104902D02*
X2262124D01*
X2253996Y88138D02*
X2262124Y88138D01*
X2258060Y94488D02*
Y98552D01*
X2256028Y96520D02*
X2260092D01*
X2245868D02*
X2249932D01*
X2247900Y94488D02*
Y98552D01*
X2243836Y88138D02*
X2251964D01*
X2243836Y104902D02*
X2251964D01*
X2251964Y88138D02*
X2251964Y104902D01*
X2243836D02*
X2243836Y88138D01*
X2233676Y139192D02*
Y155448D01*
X2241804D02*
X2241804Y139192D01*
X2233676Y155448D02*
X2241804D01*
X2233676Y139192D02*
X2241804D01*
X2235708Y147320D02*
X2239772Y147320D01*
X2237740Y145288D02*
Y149352D01*
X2279650Y67310D02*
X2312670D01*
X2279650Y49530D02*
X2312670D01*
Y67310D01*
X2279650Y49530D02*
Y67310D01*
X2294128Y58420D02*
X2298192D01*
X2296160Y56388D02*
Y60452D01*
X2279650Y40640D02*
X2312670D01*
X2279650Y22860D02*
X2312670Y22860D01*
X2312670Y40640D01*
X2279650Y22860D02*
Y40640D01*
X2294128Y31750D02*
X2298192D01*
X2296160Y29718D02*
Y33782D01*
X2075688Y58420D02*
X2079752D01*
X2077720Y56388D02*
Y60452D01*
X2073656Y66802D02*
X2081784D01*
X2073656Y50038D02*
X2081784Y50038D01*
X2073656Y50038D02*
Y66802D01*
X2081784D02*
X2081784Y50038D01*
X2085848Y58420D02*
X2089912D01*
X2087880Y56388D02*
Y60452D01*
X2083816Y66802D02*
X2091944Y66802D01*
X2083816Y50038D02*
X2091944D01*
X2083816D02*
Y66802D01*
X2091944Y50038D02*
Y66802D01*
X713610Y19330D02*
Y54330D01*
X665610Y19330D02*
Y54330D01*
X713610D01*
X665610Y19330D02*
X713610D01*
X689610Y34798D02*
Y38862D01*
X687578Y36830D02*
X691642D01*
X318008Y51083D02*
X322072D01*
X320040Y49051D02*
Y53115D01*
X279400Y80293D02*
X360680D01*
X279400Y21873D02*
X360680D01*
Y80293D01*
X279400Y21873D02*
Y80293D01*
X482880Y210950D02*
X517880D01*
X482880Y258950D02*
X517880D01*
Y210950D02*
Y258950D01*
X482880Y210950D02*
Y258950D01*
X498348Y234950D02*
X502412D01*
X500380Y232918D02*
Y236982D01*
X591566Y42164D02*
X620268D01*
X591566Y18542D02*
X620268D01*
Y42164D01*
X591566Y18542D02*
Y42164D01*
X605790Y28448D02*
Y32512D01*
X603758Y30480D02*
X607822D01*
X468910Y140840D02*
X503910D01*
X468910Y92840D02*
X503910D01*
X468910D02*
Y140840D01*
X503910Y92840D02*
Y140840D01*
X484378Y116840D02*
X488442D01*
X486410Y114808D02*
Y118872D01*
X530606Y42164D02*
X559308D01*
X530606Y18542D02*
X559308D01*
Y42164D01*
X530606Y18542D02*
Y42164D01*
X544830Y28448D02*
Y32512D01*
X542798Y30480D02*
X546862D01*
X560832Y18796D02*
X589534D01*
X560832Y42418D02*
X589534D01*
X560832Y18796D02*
Y42418D01*
X589534Y18796D02*
Y42418D01*
X575310Y28448D02*
Y32512D01*
X573278Y30480D02*
X577342D01*
X499872Y18796D02*
X528574D01*
X499872Y42418D02*
X528574D01*
X499872Y18796D02*
Y42418D01*
X528574Y18796D02*
Y42418D01*
X514350Y28448D02*
Y32512D01*
X512318Y30480D02*
X516382D01*
X415798Y79248D02*
X455422D01*
X415798Y156972D02*
X455422D01*
Y79248D02*
Y156972D01*
X415798Y79248D02*
Y156972D01*
X433578Y116840D02*
X437642D01*
X435610Y114808D02*
Y118872D01*
X469646Y42164D02*
X498348D01*
X469646Y18542D02*
X498348D01*
Y42164D01*
X469646Y18542D02*
Y42164D01*
X483870Y28448D02*
Y32512D01*
X481838Y30480D02*
X485902D01*
X2882138Y257302D02*
X2921762D01*
X2882138Y179578D02*
X2921762D01*
X2882138D02*
Y257302D01*
X2921762Y179578D02*
Y257302D01*
X2899918Y219710D02*
X2903982D01*
X2901950Y217678D02*
Y221742D01*
X2930398Y182118D02*
X2970022D01*
X2930398Y259842D02*
X2970022D01*
Y182118D02*
Y259842D01*
X2930398Y182118D02*
Y259842D01*
X2948178Y219710D02*
X2952242D01*
X2950210Y217678D02*
Y221742D01*
X2882138Y518992D02*
X2921762D01*
X2882138Y441268D02*
X2921762D01*
X2882138D02*
Y518992D01*
X2921762Y441268D02*
Y518992D01*
X2899918Y481400D02*
X2903982D01*
X2901950Y479368D02*
Y483432D01*
X2611374Y330708D02*
Y347472D01*
X2603246Y330708D02*
Y347472D01*
Y330708D02*
X2611374D01*
X2603246Y347472D02*
X2611374D01*
X2607310Y337058D02*
Y341122D01*
X2605278Y339090D02*
X2609342D01*
X2601214Y330962D02*
Y347218D01*
X2593086Y330962D02*
Y347218D01*
Y330962D02*
X2601214D01*
X2593086Y347218D02*
X2601214D01*
X2595118Y339090D02*
X2599182D01*
X2597150Y337058D02*
Y341122D01*
X2600960Y351282D02*
Y367538D01*
X2592832Y351282D02*
X2592832Y367538D01*
X2592832Y351282D02*
X2600960D01*
X2592832Y367538D02*
X2600960D01*
X2594864Y359410D02*
X2598928D01*
X2596896Y357378D02*
Y361442D01*
X2611374Y367837D02*
X2611374Y351073D01*
X2603246D02*
Y367837D01*
Y351073D02*
X2611374D01*
X2603246Y367837D02*
X2611374D01*
X2607310Y357424D02*
Y361488D01*
X2605278Y359455D02*
X2609342D01*
X2603246Y371394D02*
Y388158D01*
X2611374Y371394D02*
Y388158D01*
X2603246D02*
X2611374D01*
X2603246Y371394D02*
X2611374D01*
X2607310Y377743D02*
Y381808D01*
X2605278Y379776D02*
X2609342D01*
X2592832Y371647D02*
Y387904D01*
X2600960Y371647D02*
Y387904D01*
X2592832D02*
X2600960D01*
X2592832Y371647D02*
X2600960D01*
X2594864Y379776D02*
X2598928D01*
X2596896Y377743D02*
Y381808D01*
X2582926Y371647D02*
Y387904D01*
X2591054Y371647D02*
Y387904D01*
X2582926D02*
X2591054D01*
X2582926Y371647D02*
X2591054D01*
X2584958Y379776D02*
X2589022D01*
X2586990Y377743D02*
Y381808D01*
X2710180Y354330D02*
X2740660D01*
X2710180Y339090D02*
X2740660D01*
Y354330D01*
X2710180Y339090D02*
Y354330D01*
X2723388Y346710D02*
X2727452D01*
X2725420Y344678D02*
Y348742D01*
X2710180Y370840D02*
X2740660D01*
X2710180Y355600D02*
X2740660D01*
Y370840D01*
X2710180Y355600D02*
Y370840D01*
X2723388Y363220D02*
X2727452D01*
X2725420Y361188D02*
Y365252D01*
X2454910Y684530D02*
Y938530D01*
X1845310Y684530D02*
X2454910D01*
X1845310D02*
Y938530D01*
X2146808Y811530D02*
X2153412D01*
X2150110Y808228D02*
Y814832D01*
X1845310Y938530D02*
X2454910D01*
X2758594Y726694D02*
Y742950D01*
X2750466Y726694D02*
Y742950D01*
Y726694D02*
X2758594D01*
X2750466Y742950D02*
X2758594D01*
X2752498Y734822D02*
X2756562D01*
X2754530Y732790D02*
Y736854D01*
X2797048Y689102D02*
X2803652D01*
X2800350Y685800D02*
Y692404D01*
X2767650Y710056D02*
X2833050D01*
X2767650Y649106D02*
X2833050D01*
X2767650D02*
Y710056D01*
X2833050Y649106D02*
Y710056D01*
X2835001Y634056D02*
Y754056D01*
X2765699Y634056D02*
X2835001D01*
X2765699D02*
Y754056D01*
X2835001D01*
X1715262Y189435D02*
X1731518D01*
X1715262Y181307D02*
X1731518D01*
Y189435D01*
X1715262Y181307D02*
Y189435D01*
X1723390Y183339D02*
Y187404D01*
X1721358Y185371D02*
X1725422D01*
X1714500Y226265D02*
X1759204D01*
X1714500Y203405D02*
X1759204D01*
Y226265D01*
X1714500Y203405D02*
Y226265D01*
X1734820Y214835D02*
X1738884D01*
X1736852Y212803D02*
Y216867D01*
X1543812Y175041D02*
X1560068D01*
X1543812Y183169D02*
X1560068D01*
X1543812Y175041D02*
Y183169D01*
X1560068Y175041D02*
Y183169D01*
X1551940Y177073D02*
Y181137D01*
X1549908Y179105D02*
X1553972D01*
X1543812Y164881D02*
X1560068D01*
X1543812Y173009D02*
X1560068D01*
X1543812Y164881D02*
Y173009D01*
X1560068Y164881D02*
Y173009D01*
X1551940Y166913D02*
Y170977D01*
X1549908Y168945D02*
X1553972D01*
X1528064Y202727D02*
Y218983D01*
X1519936Y202727D02*
Y218983D01*
Y202727D02*
X1528064D01*
X1519936Y218983D02*
X1528064D01*
X1521968Y210855D02*
X1526032D01*
X1524000Y208823D02*
Y212887D01*
X1699514Y210517D02*
Y226773D01*
X1691386Y210517D02*
Y226773D01*
Y210517D02*
X1699514D01*
X1691386Y226773D02*
X1699514D01*
X1693418Y218645D02*
X1697482D01*
X1695450Y216613D02*
Y220677D01*
X1712214Y226773D02*
X1712214Y210517D01*
X1704086D02*
X1704086Y226773D01*
X1704086Y210517D02*
X1712214D01*
X1704086Y226773D02*
X1712214D01*
X1706118Y218645D02*
X1710182D01*
X1708150Y216613D02*
Y220677D01*
X1575943Y237949D02*
X1592707Y237949D01*
X1575943Y229821D02*
X1592707Y229821D01*
Y237949D01*
X1575943Y229821D02*
Y237949D01*
X1582293Y233885D02*
X1586357D01*
X1584325Y231853D02*
Y235917D01*
X1537716Y146847D02*
Y163103D01*
X1545844Y146847D02*
Y163103D01*
X1537716D02*
X1545844D01*
X1537716Y146847D02*
X1545844D01*
X1539748Y154975D02*
X1543812D01*
X1541780Y152943D02*
Y157007D01*
X1507236Y146847D02*
X1507236Y163103D01*
X1515364D02*
X1515364Y146847D01*
X1507236Y163103D02*
X1515364D01*
X1507236Y146847D02*
X1515364D01*
X1509268Y154975D02*
X1513332D01*
X1511300Y152943D02*
Y157007D01*
X1517396Y146847D02*
Y163103D01*
X1525524Y146847D02*
Y163103D01*
X1517396D02*
X1525524D01*
X1517396Y146847D02*
X1525524D01*
X1519428Y154975D02*
X1523492D01*
X1521460Y152943D02*
Y157007D01*
X1527556Y146847D02*
Y163103D01*
X1535684Y146847D02*
Y163103D01*
X1527556D02*
X1535684D01*
X1527556Y146847D02*
X1535684D01*
X1529588Y154975D02*
X1533652D01*
X1531620Y152943D02*
Y157007D01*
X1668272Y197104D02*
X1684528Y197104D01*
X1668272Y188976D02*
X1684528Y188976D01*
Y197104D01*
X1668272Y188976D02*
Y197104D01*
X1676400Y191008D02*
Y195072D01*
X1674368Y193040D02*
X1678432D01*
X1595866Y173009D02*
X1612122D01*
X1595866Y164881D02*
X1612122D01*
Y173009D01*
X1595866Y164881D02*
Y173009D01*
X1603994Y166913D02*
Y170977D01*
X1601962Y168945D02*
X1606026D01*
X1488567Y181899D02*
X1504823D01*
X1488567Y173771D02*
X1504823D01*
Y181899D01*
X1488567Y173771D02*
Y181899D01*
X1496695Y175803D02*
Y179867D01*
X1494663Y177835D02*
X1498727D01*
X1488567Y171739D02*
X1504823Y171739D01*
X1488567Y163611D02*
X1504823Y163611D01*
Y171739D01*
X1488567Y163611D02*
Y171739D01*
X1496695Y165643D02*
Y169707D01*
X1494663Y167675D02*
X1498727D01*
X1402080Y187995D02*
X1406144D01*
X1404112Y185963D02*
Y190027D01*
X1363472Y158785D02*
X1444752D01*
X1363472Y217205D02*
X1444752D01*
X1363472Y158785D02*
Y217205D01*
X1444752Y158785D02*
Y217205D01*
X1362740Y108653D02*
Y153357D01*
X1385600Y108653D02*
Y153357D01*
X1362740D02*
X1385600D01*
X1362740Y108653D02*
X1385600D01*
X1374170Y128973D02*
Y133037D01*
X1372138Y131005D02*
X1376202D01*
X1430050Y104843D02*
Y149547D01*
X1407190Y104843D02*
Y149547D01*
Y104843D02*
X1430050D01*
X1407190Y149547D02*
X1430050D01*
X1418620Y125163D02*
Y129227D01*
X1416588Y127195D02*
X1420652D01*
X1455450Y104763D02*
Y149467D01*
X1432590Y104763D02*
Y149467D01*
Y104763D02*
X1455450D01*
X1432590Y149467D02*
X1455450D01*
X1444020Y125083D02*
Y129147D01*
X1441988Y127115D02*
X1446052D01*
X1391950Y52773D02*
Y97477D01*
X1369090Y52773D02*
Y97477D01*
Y52773D02*
X1391950D01*
X1369090Y97477D02*
X1391950D01*
X1380520Y73093D02*
Y77157D01*
X1378488Y75125D02*
X1382552D01*
X1593850Y282653D02*
Y286717D01*
X1591818Y284685D02*
X1595882D01*
X1564640Y244045D02*
Y325325D01*
X1623060Y244045D02*
Y325325D01*
X1564640D02*
X1623060D01*
X1564640Y244045D02*
X1623060D01*
X1477010Y258353D02*
Y262417D01*
X1474978Y260385D02*
X1479042D01*
X1447800Y219745D02*
Y301025D01*
X1506220Y219745D02*
Y301025D01*
X1447800D02*
X1506220D01*
X1447800Y219745D02*
X1506220D01*
X1771650Y271223D02*
Y275287D01*
X1769618Y273255D02*
X1773682D01*
X1742440Y232615D02*
Y313895D01*
X1800860Y232615D02*
Y313895D01*
X1742440D02*
X1800860D01*
X1742440Y232615D02*
X1800860D01*
X1020567Y227241D02*
X1032421Y215387D01*
X1014819Y221493D02*
X1026673Y209639D01*
X1032421Y215387D01*
X1014819Y221493D02*
X1020567Y227241D01*
X1022183Y219877D02*
X1025057Y217003D01*
X1022183D02*
X1025057Y219877D01*
X996696Y230378D02*
Y247142D01*
X1004824Y230378D02*
Y247142D01*
X996696D02*
X1004824D01*
X996696Y230378D02*
X1004824D01*
X1000760Y236728D02*
Y240792D01*
X998728Y238760D02*
X1002792D01*
X1107948Y160020D02*
X1152652D01*
X1107948Y182880D02*
X1152652D01*
X1107948Y160020D02*
Y182880D01*
X1152652Y160020D02*
Y182880D01*
X1128268Y171450D02*
X1132332D01*
X1130300Y169418D02*
Y173482D01*
X1087628Y227584D02*
X1104392D01*
X1087628Y219456D02*
X1104392D01*
Y227584D01*
X1087628Y219456D02*
Y227584D01*
X1093978Y223520D02*
X1098042D01*
X1096010Y221488D02*
Y225552D01*
X1087628Y217424D02*
X1104392D01*
X1087628Y209296D02*
X1104392D01*
Y217424D01*
X1087628Y209296D02*
Y217424D01*
X1093978Y213360D02*
X1098042D01*
X1096010Y211328D02*
Y215392D01*
X1106678Y219456D02*
X1123442D01*
X1106678Y227584D02*
X1123442D01*
X1106678Y219456D02*
Y227584D01*
X1123442Y219456D02*
Y227584D01*
X1113028Y223520D02*
X1117092D01*
X1115060Y221488D02*
Y225552D01*
X1031329Y231653D02*
X1043183Y219799D01*
X1037077Y237401D02*
X1048931Y225547D01*
X1031329Y231653D02*
X1037077Y237401D01*
X1043183Y219799D02*
X1048931Y225547D01*
X1038693Y230037D02*
X1041567Y227163D01*
X1038693D02*
X1041567Y230037D01*
X1138428Y292100D02*
X1183132D01*
X1138428Y269240D02*
X1183132D01*
Y292100D01*
X1138428Y269240D02*
Y292100D01*
X1158748Y280670D02*
X1162812D01*
X1160780Y278638D02*
Y282702D01*
X1130554Y249428D02*
Y266192D01*
X1122426Y249428D02*
Y266192D01*
Y249428D02*
X1130554D01*
X1122426Y266192D02*
X1130554D01*
X1126490Y255778D02*
Y259842D01*
X1124458Y257810D02*
X1128522D01*
X1120394Y249428D02*
Y266192D01*
X1112266Y249428D02*
Y266192D01*
Y249428D02*
X1120394D01*
X1112266Y266192D02*
X1120394D01*
X1116330Y255778D02*
Y259842D01*
X1114298Y257810D02*
X1118362D01*
X1110234Y249428D02*
Y266192D01*
X1102106Y249428D02*
Y266192D01*
Y249428D02*
X1110234D01*
X1102106Y266192D02*
X1110234D01*
X1106170Y255778D02*
Y259842D01*
X1104138Y257810D02*
X1108202D01*
X1100074Y249428D02*
Y266192D01*
X1091946Y249428D02*
Y266192D01*
Y249428D02*
X1100074D01*
X1091946Y266192D02*
X1100074D01*
X1096010Y255778D02*
Y259842D01*
X1093978Y257810D02*
X1098042D01*
X985266Y230378D02*
Y247142D01*
X993394Y230378D02*
Y247142D01*
X985266D02*
X993394D01*
X985266Y230378D02*
X993394D01*
X989330Y236728D02*
Y240792D01*
X987298Y238760D02*
X991362D01*
X985266Y268478D02*
Y285242D01*
X993394Y268478D02*
Y285242D01*
X985266D02*
X993394D01*
X985266Y268478D02*
X993394D01*
X989330Y274828D02*
Y278892D01*
X987298Y276860D02*
X991362D01*
X1005078Y326644D02*
X1021842D01*
X1005078Y318516D02*
X1021842D01*
Y326644D01*
X1005078Y318516D02*
Y326644D01*
X1011428Y322580D02*
X1015492D01*
X1013460Y320548D02*
Y324612D01*
X1005078Y316484D02*
X1021842D01*
X1005078Y308356D02*
X1021842D01*
Y316484D01*
X1005078Y308356D02*
Y316484D01*
X1011428Y312420D02*
X1015492D01*
X1013460Y310388D02*
Y314452D01*
X1005078Y306324D02*
X1021842D01*
X1005078Y298196D02*
X1021842D01*
Y306324D01*
X1005078Y298196D02*
Y306324D01*
X1011428Y302260D02*
X1015492D01*
X1013460Y300228D02*
Y304292D01*
X993394Y249428D02*
Y266192D01*
X985266Y249428D02*
Y266192D01*
Y249428D02*
X993394D01*
X985266Y266192D02*
X993394D01*
X989330Y255778D02*
Y259842D01*
X987298Y257810D02*
X991362D01*
X1005078Y296164D02*
X1021842D01*
X1005078Y288036D02*
X1021842D01*
Y296164D01*
X1005078Y288036D02*
Y296164D01*
X1011428Y292100D02*
X1015492D01*
X1013460Y290068D02*
Y294132D01*
X969264Y57658D02*
Y74422D01*
X961136Y57658D02*
Y74422D01*
Y57658D02*
X969264D01*
X961136Y74422D02*
X969264D01*
X965200Y64008D02*
Y68072D01*
X963168Y66040D02*
X967232D01*
X969264Y75692D02*
Y91948D01*
X961136Y75692D02*
Y91948D01*
Y75692D02*
X969264D01*
X961136Y91948D02*
X969264D01*
X963168Y83820D02*
X967232D01*
X965200Y81788D02*
Y85852D01*
X959104Y57658D02*
Y74422D01*
X950976Y57658D02*
Y74422D01*
Y57658D02*
X959104D01*
X950976Y74422D02*
X959104D01*
X955040Y64008D02*
Y68072D01*
X953008Y66040D02*
X957072D01*
X959104Y75692D02*
Y91948D01*
X950976Y75692D02*
Y91948D01*
Y75692D02*
X959104D01*
X950976Y91948D02*
X959104D01*
X953008Y83820D02*
X957072D01*
X955040Y81788D02*
Y85852D01*
X1136904Y75692D02*
Y91948D01*
X1128776Y75692D02*
Y91948D01*
Y75692D02*
X1136904D01*
X1128776Y91948D02*
X1136904D01*
X1130808Y83820D02*
X1134872D01*
X1132840Y81788D02*
Y85852D01*
X1126744Y75692D02*
Y91948D01*
X1118616Y75692D02*
Y91948D01*
Y75692D02*
X1126744D01*
X1118616Y91948D02*
X1126744D01*
X1120648Y83820D02*
X1124712D01*
X1122680Y81788D02*
Y85852D01*
X1136904Y57658D02*
Y74422D01*
X1128776Y57658D02*
Y74422D01*
Y57658D02*
X1136904D01*
X1128776Y74422D02*
X1136904D01*
X1132840Y64008D02*
Y68072D01*
X1130808Y66040D02*
X1134872D01*
X1126744Y57658D02*
Y74422D01*
X1118616Y57658D02*
Y74422D01*
Y57658D02*
X1126744D01*
X1118616Y74422D02*
X1126744D01*
X1122680Y64008D02*
Y68072D01*
X1120648Y66040D02*
X1124712D01*
X1116621Y57726D02*
Y74490D01*
X1108493Y57726D02*
Y74490D01*
Y57726D02*
X1116621D01*
X1108493Y74490D02*
X1116621D01*
X1112557Y64076D02*
Y68140D01*
X1110525Y66108D02*
X1114589D01*
X1106424Y57658D02*
Y74422D01*
X1098296Y57658D02*
Y74422D01*
Y57658D02*
X1106424D01*
X1098296Y74422D02*
X1106424D01*
X1102360Y64008D02*
Y68072D01*
X1100328Y66040D02*
X1104392D01*
X1096264Y57658D02*
Y74422D01*
X1088136Y57658D02*
Y74422D01*
Y57658D02*
X1096264D01*
X1088136Y74422D02*
X1096264D01*
X1092200Y64008D02*
Y68072D01*
X1090168Y66040D02*
X1094232D01*
X1106424Y75692D02*
Y91948D01*
X1098296Y75692D02*
Y91948D01*
Y75692D02*
X1106424D01*
X1098296Y91948D02*
X1106424D01*
X1100328Y83820D02*
X1104392D01*
X1102360Y81788D02*
Y85852D01*
X1096264Y75692D02*
Y91948D01*
X1088136Y75692D02*
Y91948D01*
Y75692D02*
X1096264D01*
X1088136Y91948D02*
X1096264D01*
X1090168Y83820D02*
X1094232D01*
X1092200Y81788D02*
Y85852D01*
X1065784Y75692D02*
Y91948D01*
X1057656Y75692D02*
Y91948D01*
Y75692D02*
X1065784D01*
X1057656Y91948D02*
X1065784D01*
X1059688Y83820D02*
X1063752D01*
X1061720Y81788D02*
Y85852D01*
X1075944Y75692D02*
Y91948D01*
X1067816Y75692D02*
Y91948D01*
Y75692D02*
X1075944D01*
X1067816Y91948D02*
X1075944D01*
X1069848Y83820D02*
X1073912D01*
X1071880Y81788D02*
Y85852D01*
X1065784Y57658D02*
Y74422D01*
X1057656Y57658D02*
Y74422D01*
Y57658D02*
X1065784D01*
X1057656Y74422D02*
X1065784D01*
X1061720Y64008D02*
Y68072D01*
X1059688Y66040D02*
X1063752D01*
X1075944Y57658D02*
Y74422D01*
X1067816Y57658D02*
Y74422D01*
Y57658D02*
X1075944D01*
X1067816Y74422D02*
X1075944D01*
X1071880Y64008D02*
Y68072D01*
X1069848Y66040D02*
X1073912D01*
X1086104Y57658D02*
Y74422D01*
X1077976Y57658D02*
Y74422D01*
Y57658D02*
X1086104D01*
X1077976Y74422D02*
X1086104D01*
X1082040Y64008D02*
Y68072D01*
X1080008Y66040D02*
X1084072D01*
X1086104Y75692D02*
Y91948D01*
X1077976Y75692D02*
Y91948D01*
Y75692D02*
X1086104D01*
X1077976Y91948D02*
X1086104D01*
X1080008Y83820D02*
X1084072D01*
X1082040Y81788D02*
Y85852D01*
X928624Y75692D02*
Y91948D01*
X920496Y75692D02*
Y91948D01*
Y75692D02*
X928624D01*
X920496Y91948D02*
X928624D01*
X922528Y83820D02*
X926592D01*
X924560Y81788D02*
Y85852D01*
X938784Y75692D02*
Y91948D01*
X930656Y75692D02*
Y91948D01*
Y75692D02*
X938784D01*
X930656Y91948D02*
X938784D01*
X932688Y83820D02*
X936752D01*
X934720Y81788D02*
Y85852D01*
X948944Y75692D02*
Y91948D01*
X940816Y75692D02*
Y91948D01*
Y75692D02*
X948944D01*
X940816Y91948D02*
X948944D01*
X942848Y83820D02*
X946912D01*
X944880Y81788D02*
Y85852D01*
X979424Y75692D02*
Y91948D01*
X971296Y75692D02*
Y91948D01*
Y75692D02*
X979424D01*
X971296Y91948D02*
X979424D01*
X973328Y83820D02*
X977392D01*
X975360Y81788D02*
Y85852D01*
X989584Y75692D02*
Y91948D01*
X981456Y75692D02*
Y91948D01*
Y75692D02*
X989584D01*
X981456Y91948D02*
X989584D01*
X983488Y83820D02*
X987552D01*
X985520Y81788D02*
Y85852D01*
X928624Y57658D02*
Y74422D01*
X920496Y57658D02*
Y74422D01*
Y57658D02*
X928624D01*
X920496Y74422D02*
X928624D01*
X924560Y64008D02*
Y68072D01*
X922528Y66040D02*
X926592D01*
X938784Y57658D02*
Y74422D01*
X930656Y57658D02*
Y74422D01*
Y57658D02*
X938784D01*
X930656Y74422D02*
X938784D01*
X934720Y64008D02*
Y68072D01*
X932688Y66040D02*
X936752D01*
X948944Y57658D02*
Y74422D01*
X940816Y57658D02*
Y74422D01*
Y57658D02*
X948944D01*
X940816Y74422D02*
X948944D01*
X944880Y64008D02*
Y68072D01*
X942848Y66040D02*
X946912D01*
X989584Y57658D02*
Y74422D01*
X981456Y57658D02*
Y74422D01*
Y57658D02*
X989584D01*
X981456Y74422D02*
X989584D01*
X985520Y64008D02*
Y68072D01*
X983488Y66040D02*
X987552D01*
X1020064Y57658D02*
Y74422D01*
X1011936Y57658D02*
Y74422D01*
Y57658D02*
X1020064D01*
X1011936Y74422D02*
X1020064D01*
X1016000Y64008D02*
Y68072D01*
X1013968Y66040D02*
X1018032D01*
X999744Y57658D02*
Y74422D01*
X991616Y57658D02*
Y74422D01*
Y57658D02*
X999744D01*
X991616Y74422D02*
X999744D01*
X995680Y64008D02*
Y68072D01*
X993648Y66040D02*
X997712D01*
X1009904Y57658D02*
Y74422D01*
X1001776Y57658D02*
Y74422D01*
Y57658D02*
X1009904D01*
X1001776Y74422D02*
X1009904D01*
X1005840Y64008D02*
Y68072D01*
X1003808Y66040D02*
X1007872D01*
X999744Y75692D02*
Y91948D01*
X991616Y75692D02*
Y91948D01*
Y75692D02*
X999744D01*
X991616Y91948D02*
X999744D01*
X993648Y83820D02*
X997712D01*
X995680Y81788D02*
Y85852D01*
X1009904Y75692D02*
Y91948D01*
X1001776Y75692D02*
Y91948D01*
Y75692D02*
X1009904D01*
X1001776Y91948D02*
X1009904D01*
X1003808Y83820D02*
X1007872D01*
X1005840Y81788D02*
Y85852D01*
X1020064Y75692D02*
Y91948D01*
X1011936Y75692D02*
Y91948D01*
Y75692D02*
X1020064D01*
X1011936Y91948D02*
X1020064D01*
X1013968Y83820D02*
X1018032D01*
X1016000Y81788D02*
Y85852D01*
X1055624Y93472D02*
Y109728D01*
X1047496Y93472D02*
Y109728D01*
Y93472D02*
X1055624D01*
X1047496Y109728D02*
X1055624D01*
X1049528Y101600D02*
X1053592D01*
X1051560Y99568D02*
Y103632D01*
X1045464Y93472D02*
Y109728D01*
X1037336Y93472D02*
Y109728D01*
Y93472D02*
X1045464D01*
X1037336Y109728D02*
X1045464D01*
X1039368Y101600D02*
X1043432D01*
X1041400Y99568D02*
Y103632D01*
X1106170Y190500D02*
X1136650D01*
X1106170Y205740D02*
X1136650D01*
X1106170Y190500D02*
Y205740D01*
X1136650Y190500D02*
Y205740D01*
X1119378Y198120D02*
X1123442D01*
X1121410Y196088D02*
Y200152D01*
X25490Y935111D02*
X58510D01*
X42000Y918601D02*
Y951621D01*
Y108490D02*
Y141510D01*
X25490Y125000D02*
X58510D01*
X3051980Y125000D02*
X3085000D01*
X3068490Y108490D02*
Y141510D01*
D12*
X433705Y52070D02*
G03*
X433705Y52070I-635J0D01*
G01*
X2950845Y459810D02*
G03*
X2950845Y459810I-635J0D01*
G01*
X272663Y432758D02*
G03*
X272663Y432758I-635J0D01*
G01*
X733541Y314193D02*
G03*
X733541Y314193I-635J0D01*
G01*
X2000005Y282448D02*
G03*
X2000005Y282448I-635J0D01*
G01*
Y333248D02*
G03*
X2000005Y333248I-635J0D01*
G01*
Y384048D02*
G03*
X2000005Y384048I-635J0D01*
G01*
Y536448D02*
G03*
X2000005Y536448I-635J0D01*
G01*
Y434848D02*
G03*
X2000005Y434848I-635J0D01*
G01*
Y485648D02*
G03*
X2000005Y485648I-635J0D01*
G01*
Y587248D02*
G03*
X2000005Y587248I-635J0D01*
G01*
Y638048D02*
G03*
X2000005Y638048I-635J0D01*
G01*
X1857883Y995426D02*
G03*
X1857883Y995426I-635J0D01*
G01*
X528828Y744982D02*
G03*
X528828Y744982I-635J0D01*
G01*
X767715Y1010920D02*
G03*
X767715Y1010920I-635J0D01*
G01*
X814705Y975360D02*
G03*
X814705Y975360I-635J0D01*
G01*
X2506345Y332994D02*
G03*
X2506345Y332994I-635J0D01*
G01*
X344805Y929830D02*
G03*
X344805Y929830I-635J0D01*
G01*
X220773Y930402D02*
G03*
X220773Y930402I-635J0D01*
G01*
X100711D02*
G03*
X100711Y930402I-635J0D01*
G01*
X731095Y143470D02*
G03*
X731095Y143470I-635J0D01*
G01*
X2108343Y39370D02*
G03*
X2108343Y39370I-635J0D01*
G01*
X597027Y42164D02*
G03*
X597027Y42164I-635J0D01*
G01*
X536067D02*
G03*
X536067Y42164I-635J0D01*
G01*
X585343Y18796D02*
G03*
X585343Y18796I-635J0D01*
G01*
X524383D02*
G03*
X524383Y18796I-635J0D01*
G01*
X436245Y95250D02*
G03*
X436245Y95250I-635J0D01*
G01*
X475107Y42164D02*
G03*
X475107Y42164I-635J0D01*
G01*
X2902585Y241300D02*
G03*
X2902585Y241300I-635J0D01*
G01*
X2950845Y198120D02*
G03*
X2950845Y198120I-635J0D01*
G01*
X2902585Y502990D02*
G03*
X2902585Y502990I-635J0D01*
G01*
X2404745Y887730D02*
G03*
X2404745Y887730I-635J0D01*
G01*
X2778125Y738124D02*
G03*
X2778125Y738124I-635J0D01*
G01*
M02*
