G04*
G04 #@! TF.GenerationSoftware,Altium Limited,Altium Designer,24.1.2 (44)*
G04*
G04 Layer_Color=16711935*
%FSLAX44Y44*%
%MOMM*%
G71*
G04*
G04 #@! TF.SameCoordinates,140FFB89-E29E-458A-976C-A302E020C20F*
G04*
G04*
G04 #@! TF.FilePolarity,Positive*
G04*
G01*
G75*
%ADD10C,0.1270*%
%ADD12C,0.2540*%
%ADD16C,0.1524*%
%ADD17C,0.1000*%
%ADD383C,0.1905*%
%ADD384C,0.0500*%
D10*
X1006400Y824000D02*
G03*
X1006400Y824000I-25400J0D01*
G01*
X998145D02*
G03*
X998145Y824000I-17145J0D01*
G01*
X1406400Y424000D02*
G03*
X1406400Y424000I-25400J0D01*
G01*
X1398145D02*
G03*
X1398145Y424000I-17145J0D01*
G01*
X709778Y39332D02*
G03*
X706082Y43028I-4928J-1232D01*
G01*
Y33172D02*
G03*
X709778Y36868I-1232J4928D01*
G01*
X703618Y43028D02*
G03*
X699922Y39332I1232J-4928D01*
G01*
Y36868D02*
G03*
X703618Y33172I4928J1232D01*
G01*
X680568Y48222D02*
G03*
X676872Y51918I-4928J-1232D01*
G01*
Y42062D02*
G03*
X680568Y45758I-1232J4928D01*
G01*
X674408Y51918D02*
G03*
X670712Y48222I1232J-4928D01*
G01*
Y45758D02*
G03*
X674408Y42062I4928J1232D01*
G01*
X998372Y565188D02*
G03*
X1002068Y561492I4928J1232D01*
G01*
Y571348D02*
G03*
X998372Y567652I1232J-4928D01*
G01*
X1004532Y561492D02*
G03*
X1008228Y565188I-1232J4928D01*
G01*
Y567652D02*
G03*
X1004532Y571348I-4928J-1232D01*
G01*
X998372Y586778D02*
G03*
X1002068Y583082I4928J1232D01*
G01*
Y592938D02*
G03*
X998372Y589242I1232J-4928D01*
G01*
X1004532Y583082D02*
G03*
X1008228Y586778I-1232J4928D01*
G01*
Y589242D02*
G03*
X1004532Y592938I-4928J-1232D01*
G01*
X2542400Y509410D02*
G03*
X2542400Y509410I-25400J0D01*
G01*
X2534145D02*
G03*
X2534145Y509410I-17145J0D01*
G01*
X2842400Y209410D02*
G03*
X2842400Y209410I-25400J0D01*
G01*
X2834145D02*
G03*
X2834145Y209410I-17145J0D01*
G01*
X1211145Y68000D02*
G03*
X1211145Y68000I-17145J0D01*
G01*
X1219400D02*
G03*
X1219400Y68000I-25400J0D01*
G01*
X911145Y368000D02*
G03*
X911145Y368000I-17145J0D01*
G01*
X919400D02*
G03*
X919400Y368000I-25400J0D01*
G01*
X949311Y943610D02*
G03*
X955661Y949960I0J6350D01*
G01*
X915021D02*
G03*
X921371Y943610I6350J0D01*
G01*
X941437Y1042924D02*
G03*
X929245Y1042924I-6096J-4572D01*
G01*
X955661Y1019810D02*
G03*
X954391Y1023620I-6350J0D01*
G01*
X916291D02*
G03*
X915021Y1019810I5080J-3810D01*
G01*
X697382Y894118D02*
G03*
X701078Y890422I4928J1232D01*
G01*
Y900278D02*
G03*
X697382Y896582I1232J-4928D01*
G01*
X703542Y890422D02*
G03*
X707238Y894118I-1232J4928D01*
G01*
Y896582D02*
G03*
X703542Y900278I-4928J-1232D01*
G01*
X674012Y894118D02*
G03*
X677708Y890422I4928J1232D01*
G01*
Y900278D02*
G03*
X674012Y896582I1232J-4928D01*
G01*
X680172Y890422D02*
G03*
X683868Y894118I-1232J4928D01*
G01*
Y896582D02*
G03*
X680172Y900278I-4928J-1232D01*
G01*
X355752Y224828D02*
G03*
X359448Y221132I4928J1232D01*
G01*
Y230988D02*
G03*
X355752Y227292I1232J-4928D01*
G01*
X361912Y221132D02*
G03*
X365608Y224828I-1232J4928D01*
G01*
Y227292D02*
G03*
X361912Y230988I-4928J-1232D01*
G01*
X355752Y209588D02*
G03*
X359448Y205892I4928J1232D01*
G01*
Y215748D02*
G03*
X355752Y212052I1232J-4928D01*
G01*
X361912Y205892D02*
G03*
X365608Y209588I-1232J4928D01*
G01*
Y212052D02*
G03*
X361912Y215748I-4928J-1232D01*
G01*
X397662Y744258D02*
G03*
X401358Y740562I4928J1232D01*
G01*
Y750418D02*
G03*
X397662Y746722I1232J-4928D01*
G01*
X403822Y740562D02*
G03*
X407518Y744258I-1232J4928D01*
G01*
Y746722D02*
G03*
X403822Y750418I-4928J-1232D01*
G01*
X397662Y758228D02*
G03*
X401358Y754532I4928J1232D01*
G01*
Y764388D02*
G03*
X397662Y760692I1232J-4928D01*
G01*
X403822Y754532D02*
G03*
X407518Y758228I-1232J4928D01*
G01*
Y760692D02*
G03*
X403822Y764388I-4928J-1232D01*
G01*
X256730Y942226D02*
G03*
X260426Y938530I4928J1232D01*
G01*
Y948387D02*
G03*
X256730Y944690I1232J-4928D01*
G01*
X262890Y938530D02*
G03*
X266586Y942226I-1232J4928D01*
G01*
Y944690D02*
G03*
X262890Y948387I-4928J-1232D01*
G01*
X256730Y928256D02*
G03*
X260426Y924560I4928J1232D01*
G01*
Y934417D02*
G03*
X256730Y930720I1232J-4928D01*
G01*
X262890Y924560D02*
G03*
X266586Y928256I-1232J4928D01*
G01*
Y930720D02*
G03*
X262890Y934417I-4928J-1232D01*
G01*
X589432Y72428D02*
G03*
X593128Y68732I4928J1232D01*
G01*
Y78588D02*
G03*
X589432Y74892I1232J-4928D01*
G01*
X595592Y68732D02*
G03*
X599288Y72428I-1232J4928D01*
G01*
Y74892D02*
G03*
X595592Y78588I-4928J-1232D01*
G01*
X619912Y72428D02*
G03*
X623608Y68732I4928J1232D01*
G01*
Y78588D02*
G03*
X619912Y74892I1232J-4928D01*
G01*
X626072Y68732D02*
G03*
X629768Y72428I-1232J4928D01*
G01*
Y74892D02*
G03*
X626072Y78588I-4928J-1232D01*
G01*
X603402Y72428D02*
G03*
X607098Y68732I4928J1232D01*
G01*
Y78588D02*
G03*
X603402Y74892I1232J-4928D01*
G01*
X609562Y68732D02*
G03*
X613258Y72428I-1232J4928D01*
G01*
Y74892D02*
G03*
X609562Y78588I-4928J-1232D01*
G01*
X631342Y110528D02*
G03*
X635038Y106832I4928J1232D01*
G01*
Y116688D02*
G03*
X631342Y112992I1232J-4928D01*
G01*
X637502Y106832D02*
G03*
X641198Y110528I-1232J4928D01*
G01*
Y112992D02*
G03*
X637502Y116688I-4928J-1232D01*
G01*
X85400Y1000000D02*
G03*
X85400Y1000000I-25400J0D01*
G01*
X77145D02*
G03*
X77145Y1000000I-17145J0D01*
G01*
Y530000D02*
G03*
X77145Y530000I-17145J0D01*
G01*
X85400D02*
G03*
X85400Y530000I-25400J0D01*
G01*
X1585400Y1000000D02*
G03*
X1585400Y1000000I-25400J0D01*
G01*
X1577145D02*
G03*
X1577145Y1000000I-17145J0D01*
G01*
Y60000D02*
G03*
X1577145Y60000I-17145J0D01*
G01*
X1585400D02*
G03*
X1585400Y60000I-25400J0D01*
G01*
X85400D02*
G03*
X85400Y60000I-25400J0D01*
G01*
X77145D02*
G03*
X77145Y60000I-17145J0D01*
G01*
X3067145Y530000D02*
G03*
X3067145Y530000I-17145J0D01*
G01*
X3075400D02*
G03*
X3075400Y530000I-25400J0D01*
G01*
Y60000D02*
G03*
X3075400Y60000I-25400J0D01*
G01*
X3067145D02*
G03*
X3067145Y60000I-17145J0D01*
G01*
Y1000000D02*
G03*
X3067145Y1000000I-17145J0D01*
G01*
X3075400D02*
G03*
X3075400Y1000000I-25400J0D01*
G01*
X58510Y935111D02*
G03*
X58510Y935111I-16510J0D01*
G01*
Y125000D02*
G03*
X58510Y125000I-16510J0D01*
G01*
X3085000Y125000D02*
G03*
X3085000Y125000I-16510J0D01*
G01*
X827278Y466090D02*
X831342D01*
X829310Y464058D02*
Y468122D01*
X821182Y462026D02*
Y470154D01*
X837438Y462026D02*
Y470154D01*
X821182D02*
X837438D01*
X821182Y462026D02*
X837438D01*
X827278Y476250D02*
X831342D01*
X829310Y474218D02*
Y478282D01*
X821182Y472186D02*
Y480314D01*
X837438Y472186D02*
Y480314D01*
X821182D02*
X837438D01*
X821182Y472186D02*
X837438D01*
X827278Y486410D02*
X831342D01*
X829310Y484378D02*
Y488442D01*
X837438Y482346D02*
Y490474D01*
X821182Y482346D02*
Y490474D01*
Y482346D02*
X837438D01*
X821182Y490474D02*
X837438D01*
X819150Y707263D02*
Y711327D01*
X817118Y709295D02*
X821182D01*
X815086Y701167D02*
X823214D01*
X815086Y717423D02*
X823214D01*
X815086Y701167D02*
Y717423D01*
X823214Y701167D02*
Y717423D01*
X808990Y707263D02*
Y711327D01*
X806958Y709295D02*
X811022D01*
X804926Y717423D02*
X813054D01*
X804926Y701167D02*
X813054D01*
Y717423D01*
X804926Y701167D02*
Y717423D01*
X1558290Y226603D02*
Y230667D01*
X1556258Y228635D02*
X1560322D01*
X1535938Y217205D02*
Y240065D01*
X1580642Y217205D02*
Y240065D01*
X1535938D02*
X1580642D01*
X1535938Y217205D02*
X1580642D01*
X1807210Y322580D02*
Y381000D01*
X1888490Y322580D02*
Y381000D01*
X1807210D02*
X1888490D01*
X1807210Y322580D02*
X1888490D01*
X1847850Y349758D02*
Y353822D01*
X1845818Y351790D02*
X1849882D01*
X1948180Y127000D02*
Y130810D01*
X1944370D02*
X1948180D01*
X1944370Y118110D02*
X1948180D01*
Y121920D01*
X1935480Y118110D02*
Y121920D01*
Y118110D02*
X1939290D01*
X1935480Y130810D02*
X1939290D01*
X1935480Y127000D02*
Y130810D01*
X1974585Y147770D02*
Y151580D01*
X1970775D02*
X1974585D01*
X1970775Y138880D02*
X1974585D01*
Y142690D01*
X1961885Y138880D02*
Y142690D01*
Y138880D02*
X1965695D01*
X1961885Y151580D02*
X1965695D01*
X1961885Y147770D02*
Y151580D01*
X2024094Y44774D02*
X2093395D01*
X2024094D02*
Y164774D01*
X2093395D01*
Y44774D02*
Y164774D01*
X2091444Y88774D02*
Y149724D01*
X2026044Y88774D02*
Y149724D01*
X2091444D01*
X2026044Y88774D02*
X2091444D01*
X2058744Y106426D02*
Y113030D01*
X2055442Y109728D02*
X2062046D01*
X737460Y137160D02*
Y208280D01*
X781460Y137160D02*
Y208280D01*
X737460D02*
X781460D01*
X737460Y137160D02*
X781460D01*
X759460Y170688D02*
Y174752D01*
X757428Y172720D02*
X761492D01*
X388080Y18590D02*
X391890D01*
X388080D02*
Y22400D01*
X400780Y18590D02*
Y22400D01*
X396970Y18590D02*
X400780D01*
X396970Y31290D02*
X400780D01*
Y27480D02*
Y31290D01*
X388080Y27480D02*
Y31290D01*
X391890D01*
X582930Y181610D02*
X589280D01*
X582930Y175260D02*
Y181610D01*
Y163830D02*
Y170180D01*
Y163830D02*
X589280D01*
X594360D02*
X600710D01*
Y170180D01*
Y175260D02*
Y181610D01*
X594360D02*
X600710D01*
X561340Y76200D02*
Y82550D01*
X567690D01*
X572770D02*
X579120D01*
Y76200D02*
Y82550D01*
Y64770D02*
Y71120D01*
X572770Y64770D02*
X579120D01*
X561340D02*
X567690D01*
X561340D02*
Y71120D01*
X518160Y76200D02*
Y82550D01*
X524510D01*
X529590D02*
X535940D01*
Y76200D02*
Y82550D01*
Y64770D02*
Y71120D01*
X529590Y64770D02*
X535940D01*
X518160D02*
X524510D01*
X518160D02*
Y71120D01*
X474980Y64770D02*
Y71120D01*
Y64770D02*
X481330D01*
X486410D02*
X492760D01*
Y71120D01*
Y76200D02*
Y82550D01*
X486410D02*
X492760D01*
X474980D02*
X481330D01*
X474980Y76200D02*
Y82550D01*
X431800Y64770D02*
Y71120D01*
Y64770D02*
X438150D01*
X443230D02*
X449580D01*
Y71120D01*
Y76200D02*
Y82550D01*
X443230D02*
X449580D01*
X431800D02*
X438150D01*
X431800Y76200D02*
Y82550D01*
X3006598Y628650D02*
X3010662D01*
X3008630Y626618D02*
Y630682D01*
X2971038Y608838D02*
X3048762D01*
X2971038Y648462D02*
X3048762D01*
Y608838D02*
Y648462D01*
X2971038Y608838D02*
Y648462D01*
X2997200Y327660D02*
Y335280D01*
X2989580D02*
X2997200D01*
X2989580Y312420D02*
X2997200D01*
Y320040D01*
X2974340Y312420D02*
Y320040D01*
Y312420D02*
X2981960D01*
X2974340Y335280D02*
X2981960D01*
X2974340Y327660D02*
Y335280D01*
X2053590Y1022350D02*
X2307590D01*
X2053590Y412750D02*
Y1022350D01*
Y412750D02*
X2307590D01*
X2180590Y714248D02*
Y720852D01*
X2177288Y717550D02*
X2183892D01*
X2307590Y412750D02*
Y1022350D01*
X1615273Y115403D02*
X1618147Y118277D01*
X1615273D02*
X1618147Y115403D01*
X1612114Y87495D02*
X1646055Y121436D01*
X1587365Y112244D02*
X1621306Y146185D01*
X1646055Y121436D01*
X1587365Y112244D02*
X1612114Y87495D01*
X1540510Y923290D02*
Y929640D01*
Y923290D02*
X1546860D01*
X1551940D02*
X1558290D01*
Y929640D01*
Y934720D02*
Y941070D01*
X1551940D02*
X1558290D01*
X1540510D02*
X1546860D01*
X1540510Y934720D02*
Y941070D01*
X1554850Y912368D02*
Y916432D01*
X1552818Y914400D02*
X1556882D01*
X1546468Y910336D02*
Y918464D01*
X1563232Y910336D02*
Y918464D01*
X1546468D02*
X1563232D01*
X1546468Y910336D02*
X1563232D01*
X1552818Y894080D02*
X1556882D01*
X1554850Y892048D02*
Y896112D01*
X1546722Y890016D02*
Y898144D01*
X1562978Y890016D02*
Y898144D01*
X1546722D02*
X1562978D01*
X1546722Y890016D02*
X1562978D01*
X1552818Y904240D02*
X1556882D01*
X1554850Y902208D02*
Y906272D01*
X1546722Y900176D02*
Y908304D01*
X1562978Y900176D02*
Y908304D01*
X1546722D02*
X1562978D01*
X1546722Y900176D02*
X1562978D01*
X1990090Y262890D02*
Y669290D01*
X1964690D02*
X1990090D01*
X1964690Y262890D02*
Y669290D01*
Y262890D02*
X1990090D01*
X1977390Y462788D02*
Y469392D01*
X1974088Y466090D02*
X1980692D01*
X2019554Y494538D02*
Y511302D01*
X2011426Y494538D02*
Y511302D01*
X2019554D01*
X2011426Y494538D02*
X2019554D01*
X2015490Y500888D02*
Y504952D01*
X2013458Y502920D02*
X2017522D01*
X2601214Y351282D02*
Y367538D01*
X2593086Y351282D02*
Y367538D01*
X2601214D01*
X2593086Y351282D02*
X2601214D01*
X2595118Y359410D02*
X2599182D01*
X2597150Y357378D02*
Y361442D01*
X2750312Y388874D02*
X2766568D01*
X2750312Y380746D02*
X2766568D01*
X2750312D02*
Y388874D01*
X2766568Y380746D02*
Y388874D01*
X2758440Y382778D02*
Y386842D01*
X2756408Y384810D02*
X2760472D01*
X2602992Y351236D02*
Y367492D01*
X2611120Y351236D02*
Y367492D01*
X2602992Y351236D02*
X2611120D01*
X2602992Y367492D02*
X2611120D01*
X2605024Y359365D02*
X2609088D01*
X2607056Y357332D02*
Y361396D01*
X704342Y763524D02*
X720598D01*
X704342Y755396D02*
X720598D01*
X704342D02*
Y763524D01*
X720598Y755396D02*
Y763524D01*
X712470Y757428D02*
Y761492D01*
X710438Y759460D02*
X714502D01*
X704342Y745236D02*
X720598D01*
X704342Y753364D02*
X720598D01*
Y745236D02*
Y753364D01*
X704342Y745236D02*
Y753364D01*
X712470Y747268D02*
Y751332D01*
X710438Y749300D02*
X714502D01*
X665988Y915924D02*
X682752D01*
X665988Y907796D02*
X682752D01*
X665988D02*
Y915924D01*
X682752Y907796D02*
Y915924D01*
X672338Y911860D02*
X676402D01*
X674370Y909828D02*
Y913892D01*
X679196Y515112D02*
Y531368D01*
X687324Y515112D02*
Y531368D01*
X679196Y515112D02*
X687324D01*
X679196Y531368D02*
X687324D01*
X681228Y523240D02*
X685292D01*
X683260Y521208D02*
Y525272D01*
X677164Y515112D02*
Y531368D01*
X669036Y515112D02*
Y531368D01*
X677164D01*
X669036Y515112D02*
X677164D01*
X671068Y523240D02*
X675132D01*
X673100Y521208D02*
Y525272D01*
X2750312Y390906D02*
X2766568D01*
X2750312Y399034D02*
X2766568D01*
Y390906D02*
Y399034D01*
X2750312Y390906D02*
Y399034D01*
X2758440Y392938D02*
Y397002D01*
X2756408Y394970D02*
X2760472D01*
X931926Y430022D02*
Y446278D01*
X940054Y430022D02*
Y446278D01*
X931926Y430022D02*
X940054D01*
X931926Y446278D02*
X940054D01*
X933958Y438150D02*
X938022D01*
X935990Y436118D02*
Y440182D01*
X980186Y653542D02*
Y669798D01*
X988314Y653542D02*
Y669798D01*
X980186Y653542D02*
X988314D01*
X980186Y669798D02*
X988314D01*
X982218Y661670D02*
X986282D01*
X984250Y659638D02*
Y663702D01*
X990600Y653542D02*
Y669798D01*
X998728Y653542D02*
Y669798D01*
X990600Y653542D02*
X998728D01*
X990600Y669798D02*
X998728D01*
X992632Y661670D02*
X996696D01*
X994664Y659638D02*
Y663702D01*
X1042670Y626618D02*
Y671322D01*
X1019810Y626618D02*
Y671322D01*
X1042670D01*
X1019810Y626618D02*
X1042670D01*
X1031240Y646938D02*
Y651002D01*
X1029208Y648970D02*
X1033272D01*
X366268Y424434D02*
X383032D01*
X366268Y416306D02*
X383032D01*
X366268D02*
Y424434D01*
X383032Y416306D02*
Y424434D01*
X372618Y420370D02*
X376682D01*
X374650Y418338D02*
Y422402D01*
X400050Y383540D02*
Y414020D01*
X384810Y383540D02*
Y414020D01*
X400050D01*
X384810Y383540D02*
X400050D01*
X392430Y396748D02*
Y400812D01*
X390398Y398780D02*
X394462D01*
X382270Y383540D02*
Y414020D01*
X367030Y383540D02*
Y414020D01*
X382270D01*
X367030Y383540D02*
X382270D01*
X374650Y396748D02*
Y400812D01*
X372618Y398780D02*
X376682D01*
X1282700Y232212D02*
Y236276D01*
X1280668Y234244D02*
X1284732D01*
X1274318Y230180D02*
Y238308D01*
X1291082Y230180D02*
Y238308D01*
X1274318D02*
X1291082D01*
X1274318Y230180D02*
X1291082D01*
X2151126Y278638D02*
Y295402D01*
X2159254Y278638D02*
Y295402D01*
X2151126Y278638D02*
X2159254D01*
X2151126Y295402D02*
X2159254D01*
X2155190Y284988D02*
Y289052D01*
X2153158Y287020D02*
X2157222D01*
X2151126Y211328D02*
Y228092D01*
X2159254Y211328D02*
Y228092D01*
X2151126Y211328D02*
X2159254D01*
X2151126Y228092D02*
X2159254D01*
X2155190Y217678D02*
Y221742D01*
X2153158Y219710D02*
X2157222D01*
X2004314Y577088D02*
Y593852D01*
X1996186Y577088D02*
Y593852D01*
X2004314D01*
X1996186Y577088D02*
X2004314D01*
X2000250Y583438D02*
Y587502D01*
X1998218Y585470D02*
X2002282D01*
X771652Y393954D02*
X787908D01*
X771652Y385826D02*
X787908D01*
X771652D02*
Y393954D01*
X787908Y385826D02*
Y393954D01*
X779780Y387858D02*
Y391922D01*
X777748Y389890D02*
X781812D01*
X1294892Y826516D02*
X1311148D01*
X1294892Y834644D02*
X1311148D01*
Y826516D02*
Y834644D01*
X1294892Y826516D02*
Y834644D01*
X1303020Y828548D02*
Y832612D01*
X1300988Y830580D02*
X1305052D01*
X1299210Y816610D02*
Y822960D01*
X1305560D01*
X1310640D02*
X1316990D01*
Y816610D02*
Y822960D01*
Y805180D02*
Y811530D01*
X1310640Y805180D02*
X1316990D01*
X1299210D02*
X1305560D01*
X1299210D02*
Y811530D01*
X1217930Y1037590D02*
Y1043940D01*
X1224280D01*
X1229360D02*
X1235710D01*
Y1037590D02*
Y1043940D01*
Y1026160D02*
Y1032510D01*
X1229360Y1026160D02*
X1235710D01*
X1217930D02*
X1224280D01*
X1217930D02*
Y1032510D01*
X2588260Y933450D02*
Y939800D01*
X2594610D01*
X2599690D02*
X2606040D01*
Y933450D02*
Y939800D01*
Y922020D02*
Y928370D01*
X2599690Y922020D02*
X2606040D01*
X2588260D02*
X2594610D01*
X2588260D02*
Y928370D01*
X2604770Y648970D02*
Y655320D01*
X2611120D01*
X2616200D02*
X2622550D01*
Y648970D02*
Y655320D01*
Y637540D02*
Y643890D01*
X2616200Y637540D02*
X2622550D01*
X2604770D02*
X2611120D01*
X2604770D02*
Y643890D01*
X935990Y734060D02*
Y740410D01*
X942340D01*
X947420D02*
X953770D01*
Y734060D02*
Y740410D01*
Y722630D02*
Y728980D01*
X947420Y722630D02*
X953770D01*
X935990D02*
X942340D01*
X935990D02*
Y728980D01*
X974090Y591820D02*
Y598170D01*
X980440D01*
X985520D02*
X991870D01*
Y591820D02*
Y598170D01*
Y580390D02*
Y586740D01*
X985520Y580390D02*
X991870D01*
X974090D02*
X980440D01*
X974090D02*
Y586740D01*
X867410Y680720D02*
X871220D01*
X867410Y676910D02*
Y680720D01*
X880110Y676910D02*
Y680720D01*
X876300D02*
X880110D01*
X876300Y668020D02*
X880110D01*
Y671830D01*
X867410Y668020D02*
Y671830D01*
Y668020D02*
X871220D01*
X779780Y506730D02*
X783590D01*
X779780Y502920D02*
Y506730D01*
X792480Y502920D02*
Y506730D01*
X788670D02*
X792480D01*
X788670Y494030D02*
X792480D01*
Y497840D01*
X779780Y494030D02*
Y497840D01*
Y494030D02*
X783590D01*
X782320Y557530D02*
X786130D01*
X782320Y553720D02*
Y557530D01*
X795020Y553720D02*
Y557530D01*
X791210D02*
X795020D01*
X791210Y544830D02*
X795020D01*
Y548640D01*
X782320Y544830D02*
Y548640D01*
Y544830D02*
X786130D01*
X782320Y576580D02*
X786130D01*
X782320Y572770D02*
Y576580D01*
X795020Y572770D02*
Y576580D01*
X791210D02*
X795020D01*
X791210Y563880D02*
X795020D01*
Y567690D01*
X782320Y563880D02*
Y567690D01*
Y563880D02*
X786130D01*
X782320Y595630D02*
X786130D01*
X782320Y591820D02*
Y595630D01*
X795020Y591820D02*
Y595630D01*
X791210D02*
X795020D01*
X791210Y582930D02*
X795020D01*
Y586740D01*
X782320Y582930D02*
Y586740D01*
Y582930D02*
X786130D01*
X756920Y457200D02*
X760730D01*
X756920Y453390D02*
Y457200D01*
X769620Y453390D02*
Y457200D01*
X765810D02*
X769620D01*
X765810Y444500D02*
X769620D01*
Y448310D01*
X756920Y444500D02*
Y448310D01*
Y444500D02*
X760730D01*
X2766060Y492760D02*
X2773680D01*
X2766060D02*
Y500380D01*
X2788920Y492760D02*
Y500380D01*
X2781300Y492760D02*
X2788920D01*
X2781300Y515620D02*
X2788920D01*
Y508000D02*
Y515620D01*
X2766060Y508000D02*
Y515620D01*
X2773680D01*
X1320292Y663194D02*
X1336548D01*
X1320292Y655066D02*
X1336548D01*
X1320292D02*
Y663194D01*
X1336548Y655066D02*
Y663194D01*
X1328420Y657098D02*
Y661162D01*
X1326388Y659130D02*
X1330452D01*
X1320292Y644906D02*
X1336548D01*
X1320292Y653034D02*
X1336548D01*
Y644906D02*
Y653034D01*
X1320292Y644906D02*
Y653034D01*
X1328420Y646938D02*
Y651002D01*
X1326388Y648970D02*
X1330452D01*
X1320800Y732790D02*
X1351280D01*
X1320800Y717550D02*
X1351280D01*
X1320800D02*
Y732790D01*
X1351280Y717550D02*
Y732790D01*
X1334008Y725170D02*
X1338072D01*
X1336040Y723138D02*
Y727202D01*
X1320292Y707136D02*
X1336548D01*
X1320292Y715264D02*
X1336548D01*
Y707136D02*
Y715264D01*
X1320292Y707136D02*
Y715264D01*
X1328420Y709168D02*
Y713232D01*
X1326388Y711200D02*
X1330452D01*
X1320292Y705104D02*
X1336548D01*
X1320292Y696976D02*
X1336548D01*
X1320292D02*
Y705104D01*
X1336548Y696976D02*
Y705104D01*
X1328420Y699008D02*
Y703072D01*
X1326388Y701040D02*
X1330452D01*
X1320292Y527304D02*
X1336548D01*
X1320292Y519176D02*
X1336548D01*
X1320292D02*
Y527304D01*
X1336548Y519176D02*
Y527304D01*
X1328420Y521208D02*
Y525272D01*
X1326388Y523240D02*
X1330452D01*
X953770Y905510D02*
Y930910D01*
X902970Y905510D02*
X953770D01*
X902970D02*
Y930910D01*
X953770D01*
X925068Y918210D02*
X931672D01*
X928370Y914908D02*
Y921512D01*
X548640Y288290D02*
X574040D01*
X548640D02*
Y339090D01*
X574040D01*
Y288290D02*
Y339090D01*
X561340Y310388D02*
Y316992D01*
X558038Y313690D02*
X564642D01*
X1557274Y833882D02*
Y850138D01*
X1549146Y833882D02*
Y850138D01*
X1557274D01*
X1549146Y833882D02*
X1557274D01*
X1551178Y842010D02*
X1555242D01*
X1553210Y839978D02*
Y844042D01*
X1551178Y822960D02*
X1555242D01*
X1553210Y820928D02*
Y824992D01*
X1549146Y831342D02*
X1557274D01*
X1549146Y814578D02*
X1557274D01*
Y831342D01*
X1549146Y814578D02*
Y831342D01*
X1527175Y830580D02*
Y836930D01*
X1533525D01*
X1538605D02*
X1544955D01*
Y830580D02*
Y836930D01*
Y819150D02*
Y825500D01*
X1538605Y819150D02*
X1544955D01*
X1527175D02*
X1533525D01*
X1527175D02*
Y825500D01*
X1557020Y370840D02*
X1560830D01*
X1557020Y367030D02*
Y370840D01*
X1569720Y367030D02*
Y370840D01*
X1565910D02*
X1569720D01*
X1565910Y358140D02*
X1569720D01*
Y361950D01*
X1557020Y358140D02*
Y361950D01*
Y358140D02*
X1560830D01*
X1557020Y332740D02*
X1560830D01*
X1557020Y328930D02*
Y332740D01*
X1569720Y328930D02*
Y332740D01*
X1565910D02*
X1569720D01*
X1565910Y320040D02*
X1569720D01*
Y323850D01*
X1557020Y320040D02*
Y323850D01*
Y320040D02*
X1560830D01*
X245110Y462280D02*
X248920D01*
X245110Y458470D02*
Y462280D01*
X257810Y458470D02*
Y462280D01*
X254000D02*
X257810D01*
X254000Y449580D02*
X257810D01*
Y453390D01*
X245110Y449580D02*
Y453390D01*
Y449580D02*
X248920D01*
X1720596Y369062D02*
Y385318D01*
X1728724Y369062D02*
Y385318D01*
X1720596Y369062D02*
X1728724D01*
X1720596Y385318D02*
X1728724D01*
X1722628Y377190D02*
X1726692D01*
X1724660Y375158D02*
Y379222D01*
X1728724Y328422D02*
Y344678D01*
X1720596Y328422D02*
Y344678D01*
X1728724D01*
X1720596Y328422D02*
X1728724D01*
X1722628Y336550D02*
X1726692D01*
X1724660Y334518D02*
Y338582D01*
X1718310Y364490D02*
X1722120D01*
X1718310Y360680D02*
Y364490D01*
X1731010Y360680D02*
Y364490D01*
X1727200D02*
X1731010D01*
X1727200Y351790D02*
X1731010D01*
Y355600D01*
X1718310Y351790D02*
Y355600D01*
Y351790D02*
X1722120D01*
X1426210Y332740D02*
X1430020D01*
X1426210Y328930D02*
Y332740D01*
X1438910Y328930D02*
Y332740D01*
X1435100D02*
X1438910D01*
X1435100Y320040D02*
X1438910D01*
Y323850D01*
X1426210Y320040D02*
Y323850D01*
Y320040D02*
X1430020D01*
X1426210Y365760D02*
X1430020D01*
X1426210Y361950D02*
Y365760D01*
X1438910Y361950D02*
Y365760D01*
X1435100D02*
X1438910D01*
X1435100Y353060D02*
X1438910D01*
Y356870D01*
X1426210Y353060D02*
Y356870D01*
Y353060D02*
X1430020D01*
X1289050Y116840D02*
X1292860D01*
X1289050Y113030D02*
Y116840D01*
X1301750Y113030D02*
Y116840D01*
X1297940D02*
X1301750D01*
X1297940Y104140D02*
X1301750D01*
Y107950D01*
X1289050Y104140D02*
Y107950D01*
Y104140D02*
X1292860D01*
X983488Y66040D02*
X987552D01*
X985520Y64008D02*
Y68072D01*
X981456Y74422D02*
X989584D01*
X981456Y57658D02*
X989584D01*
Y74422D01*
X981456Y57658D02*
Y74422D01*
X1545590Y262890D02*
X1576070D01*
X1545590Y278130D02*
X1576070D01*
Y262890D02*
Y278130D01*
X1545590Y262890D02*
Y278130D01*
X1558798Y270510D02*
X1562862D01*
X1560830Y268478D02*
Y272542D01*
X1554480Y281940D02*
X1587500D01*
X1554480Y299720D02*
X1587500D01*
Y281940D02*
Y299720D01*
X1554480Y281940D02*
Y299720D01*
X1570990Y288798D02*
Y292862D01*
X1568958Y290830D02*
X1573022D01*
X1629156Y371602D02*
Y387858D01*
X1637284Y371602D02*
Y387858D01*
X1629156Y371602D02*
X1637284D01*
X1629156Y387858D02*
X1637284D01*
X1631188Y379730D02*
X1635252D01*
X1633220Y377698D02*
Y381762D01*
X1645920Y370840D02*
X1678940D01*
X1645920Y388620D02*
X1678940D01*
Y370840D02*
Y388620D01*
X1645920Y370840D02*
Y388620D01*
X1662430Y377698D02*
Y381762D01*
X1660398Y379730D02*
X1664462D01*
X1550162Y778764D02*
X1566418D01*
X1550162Y770636D02*
X1566418D01*
X1550162D02*
Y778764D01*
X1566418Y770636D02*
Y778764D01*
X1558290Y772668D02*
Y776732D01*
X1556258Y774700D02*
X1560322D01*
X1543812Y763524D02*
X1572514D01*
X1543812Y739902D02*
X1572514D01*
X1543812D02*
Y763524D01*
X1572514Y739902D02*
Y763524D01*
X1558290Y749808D02*
Y753872D01*
X1556258Y751840D02*
X1560322D01*
X1531366Y734822D02*
Y751078D01*
X1539494Y734822D02*
Y751078D01*
X1531366Y734822D02*
X1539494D01*
X1531366Y751078D02*
X1539494D01*
X1533398Y742950D02*
X1537462D01*
X1535430Y740918D02*
Y744982D01*
X1526540Y715010D02*
X1559560D01*
X1526540Y732790D02*
X1559560D01*
Y715010D02*
Y732790D01*
X1526540Y715010D02*
Y732790D01*
X1543050Y721868D02*
Y725932D01*
X1541018Y723900D02*
X1545082D01*
X1557020Y459740D02*
X1590040D01*
X1557020Y441960D02*
X1590040D01*
X1557020D02*
Y459740D01*
X1590040Y441960D02*
Y459740D01*
X1573530Y448818D02*
Y452882D01*
X1571498Y450850D02*
X1575562D01*
X1512062Y605536D02*
X1528318D01*
X1512062Y613664D02*
X1528318D01*
Y605536D02*
Y613664D01*
X1512062Y605536D02*
Y613664D01*
X1520190Y607568D02*
Y611632D01*
X1518158Y609600D02*
X1522222D01*
X1477772Y481584D02*
X1506474D01*
X1477772Y457962D02*
X1506474D01*
X1477772D02*
Y481584D01*
X1506474Y457962D02*
Y481584D01*
X1492250Y467868D02*
Y471932D01*
X1490218Y469900D02*
X1494282D01*
X1485490Y319440D02*
X1529490D01*
X1485490Y371440D02*
X1529490D01*
Y319440D02*
Y371440D01*
X1485490Y319440D02*
Y371440D01*
X1448308Y349504D02*
X1465072D01*
X1448308Y341376D02*
X1465072D01*
X1448308D02*
Y349504D01*
X1465072Y341376D02*
Y349504D01*
X1454658Y345440D02*
X1458722D01*
X1456690Y343408D02*
Y347472D01*
X1297432Y33274D02*
X1313688D01*
X1297432Y25146D02*
X1313688D01*
X1297432D02*
Y33274D01*
X1313688Y25146D02*
Y33274D01*
X1305560Y27178D02*
Y31242D01*
X1303528Y29210D02*
X1307592D01*
X1238762Y25146D02*
X1255018D01*
X1238762Y33274D02*
X1255018D01*
Y25146D02*
Y33274D01*
X1238762Y25146D02*
Y33274D01*
X1246890Y27178D02*
Y31242D01*
X1244858Y29210D02*
X1248922D01*
X1282700Y35560D02*
X1286510D01*
X1282700Y31750D02*
Y35560D01*
X1295400Y31750D02*
Y35560D01*
X1291590D02*
X1295400D01*
X1291590Y22860D02*
X1295400D01*
Y26670D01*
X1282700Y22860D02*
Y26670D01*
Y22860D02*
X1286510D01*
X1257300Y35560D02*
X1261110D01*
X1257300Y31750D02*
Y35560D01*
X1270000Y31750D02*
Y35560D01*
X1266190D02*
X1270000D01*
X1266190Y22860D02*
X1270000D01*
Y26670D01*
X1257300Y22860D02*
Y26670D01*
Y22860D02*
X1261110D01*
X1513840Y478790D02*
Y486410D01*
X1521460D01*
X1513840Y463550D02*
X1521460D01*
X1513840D02*
Y471170D01*
X1536700Y463550D02*
Y471170D01*
X1529080Y463550D02*
X1536700D01*
X1529080Y486410D02*
X1536700D01*
Y478790D02*
Y486410D01*
X1621790Y391160D02*
X1629410D01*
X1621790D02*
Y398780D01*
X1644650Y391160D02*
Y398780D01*
X1637030Y391160D02*
X1644650D01*
X1637030Y414020D02*
X1644650D01*
Y406400D02*
Y414020D01*
X1621790Y406400D02*
Y414020D01*
X1629410D01*
X1806194Y442722D02*
Y458978D01*
X1798066Y442722D02*
Y458978D01*
X1806194D01*
X1798066Y442722D02*
X1806194D01*
X1800098Y450850D02*
X1804162D01*
X1802130Y448818D02*
Y452882D01*
X1750568Y422910D02*
X1754632D01*
X1752600Y420878D02*
Y424942D01*
X1711960Y393700D02*
X1793240D01*
X1711960Y452120D02*
X1793240D01*
Y393700D02*
Y452120D01*
X1711960Y393700D02*
Y452120D01*
X1749298Y532130D02*
X1753362D01*
X1751330Y530098D02*
Y534162D01*
X1710690Y502920D02*
X1791970D01*
X1710690Y561340D02*
X1791970D01*
Y502920D02*
Y561340D01*
X1710690Y502920D02*
Y561340D01*
X1709420Y456946D02*
X1790700D01*
X1709420Y497840D02*
X1790700D01*
Y456946D02*
Y497840D01*
X1709420Y456946D02*
Y497840D01*
X1748028Y477520D02*
X1752092D01*
X1750060Y475488D02*
Y479552D01*
X1523492Y711454D02*
X1539748D01*
X1523492Y703326D02*
X1539748D01*
X1523492D02*
Y711454D01*
X1539748Y703326D02*
Y711454D01*
X1531620Y705358D02*
Y709422D01*
X1529588Y707390D02*
X1533652D01*
X1456182Y667004D02*
X1472438D01*
X1456182Y658876D02*
X1472438D01*
X1456182D02*
Y667004D01*
X1472438Y658876D02*
Y667004D01*
X1464310Y660908D02*
Y664972D01*
X1462278Y662940D02*
X1466342D01*
X1456182Y669036D02*
X1472438D01*
X1456182Y677164D02*
X1472438D01*
Y669036D02*
Y677164D01*
X1456182Y669036D02*
Y677164D01*
X1464310Y671068D02*
Y675132D01*
X1462278Y673100D02*
X1466342D01*
X1475232Y677164D02*
X1491488D01*
X1475232Y669036D02*
X1491488D01*
X1475232D02*
Y677164D01*
X1491488Y669036D02*
Y677164D01*
X1483360Y671068D02*
Y675132D01*
X1481328Y673100D02*
X1485392D01*
X1494282Y651256D02*
X1510538D01*
X1494282Y659384D02*
X1510538D01*
Y651256D02*
Y659384D01*
X1494282Y651256D02*
Y659384D01*
X1502410Y653288D02*
Y657352D01*
X1500378Y655320D02*
X1504442D01*
X1513332Y659384D02*
X1529588D01*
X1513332Y651256D02*
X1529588D01*
X1513332D02*
Y659384D01*
X1529588Y651256D02*
Y659384D01*
X1521460Y653288D02*
Y657352D01*
X1519428Y655320D02*
X1523492D01*
X1523492Y649224D02*
X1539748D01*
X1523492Y641096D02*
X1539748D01*
X1523492D02*
Y649224D01*
X1539748Y641096D02*
Y649224D01*
X1531620Y643128D02*
Y647192D01*
X1529588Y645160D02*
X1533652D01*
X1539494Y651002D02*
Y667258D01*
X1531366Y651002D02*
Y667258D01*
X1539494D01*
X1531366Y651002D02*
X1539494D01*
X1533398Y659130D02*
X1537462D01*
X1535430Y657098D02*
Y661162D01*
X1531620Y632968D02*
Y637032D01*
X1529588Y635000D02*
X1533652D01*
X1540002Y630936D02*
Y639064D01*
X1523238Y630936D02*
Y639064D01*
Y630936D02*
X1540002D01*
X1523238Y639064D02*
X1540002D01*
X1498600Y760730D02*
X1506220D01*
X1498600D02*
Y768350D01*
X1521460Y760730D02*
Y768350D01*
X1513840Y760730D02*
X1521460D01*
X1513840Y783590D02*
X1521460D01*
Y775970D02*
Y783590D01*
X1498600Y775970D02*
Y783590D01*
X1506220D01*
X1404112Y678180D02*
X1408176D01*
X1406144Y676148D02*
Y680212D01*
X1365504Y648970D02*
X1446784D01*
X1365504Y707390D02*
X1446784D01*
Y648970D02*
Y707390D01*
X1365504Y648970D02*
Y707390D01*
X1362964Y602996D02*
X1444244D01*
X1362964Y643890D02*
X1444244D01*
Y602996D02*
Y643890D01*
X1362964Y602996D02*
Y643890D01*
X1401572Y623570D02*
X1405636D01*
X1403604Y621538D02*
Y625602D01*
X1404112Y568960D02*
X1408176D01*
X1406144Y566928D02*
Y570992D01*
X1365504Y539750D02*
X1446784D01*
X1365504Y598170D02*
X1446784D01*
Y539750D02*
Y598170D01*
X1365504Y539750D02*
Y598170D01*
X1445260Y732790D02*
Y740410D01*
X1452880D01*
X1445260Y717550D02*
X1452880D01*
X1445260D02*
Y725170D01*
X1468120Y717550D02*
Y725170D01*
X1460500Y717550D02*
X1468120D01*
X1460500Y740410D02*
X1468120D01*
Y732790D02*
Y740410D01*
X1344168Y641604D02*
X1360932D01*
X1344168Y633476D02*
X1360932D01*
X1344168D02*
Y641604D01*
X1360932Y633476D02*
Y641604D01*
X1350518Y637540D02*
X1354582D01*
X1352550Y635508D02*
Y639572D01*
X1256030Y472948D02*
Y477012D01*
X1253998Y474980D02*
X1258062D01*
X1233678Y463550D02*
Y486410D01*
X1278382Y463550D02*
Y486410D01*
X1233678D02*
X1278382D01*
X1233678Y463550D02*
X1278382D01*
X1327658Y618490D02*
X1331722D01*
X1329690Y616458D02*
Y620522D01*
X1318260Y596138D02*
X1341120D01*
X1318260Y640842D02*
X1341120D01*
X1318260Y596138D02*
Y640842D01*
X1341120Y596138D02*
Y640842D01*
X1008380Y491490D02*
Y521970D01*
X1023620Y491490D02*
Y521970D01*
X1008380Y491490D02*
X1023620D01*
X1008380Y521970D02*
X1023620D01*
X1016000Y504698D02*
Y508762D01*
X1013968Y506730D02*
X1018032D01*
X1096010Y771398D02*
Y775462D01*
X1093978Y773430D02*
X1098042D01*
X1073658Y762000D02*
Y784860D01*
X1118362Y762000D02*
Y784860D01*
X1073658D02*
X1118362D01*
X1073658Y762000D02*
X1118362D01*
X1256030Y771398D02*
Y775462D01*
X1253998Y773430D02*
X1258062D01*
X1233678Y762000D02*
Y784860D01*
X1278382Y762000D02*
Y784860D01*
X1233678D02*
X1278382D01*
X1233678Y762000D02*
X1278382D01*
X376428Y1000760D02*
X380492D01*
X378460Y998728D02*
Y1002792D01*
X374396Y992378D02*
X382524D01*
X374396Y1009142D02*
X382524D01*
X374396Y992378D02*
Y1009142D01*
X382524Y992378D02*
Y1009142D01*
X1466850Y203743D02*
Y207807D01*
X1464818Y205775D02*
X1468882D01*
X1475232Y201711D02*
Y209839D01*
X1458468Y201711D02*
Y209839D01*
Y201711D02*
X1475232D01*
X1458468Y209839D02*
X1475232D01*
X517398Y537210D02*
X521462D01*
X519430Y535178D02*
Y539242D01*
X515366Y545592D02*
X523494D01*
X515366Y528828D02*
X523494D01*
Y545592D01*
X515366Y528828D02*
Y545592D01*
X264160Y817118D02*
Y821182D01*
X262128Y819150D02*
X266192D01*
X272542Y815086D02*
Y823214D01*
X255778Y815086D02*
Y823214D01*
Y815086D02*
X272542D01*
X255778Y823214D02*
X272542D01*
X270510Y654558D02*
Y658622D01*
X268478Y656590D02*
X272542D01*
X278892Y652526D02*
Y660654D01*
X262128Y652526D02*
Y660654D01*
Y652526D02*
X278892D01*
X262128Y660654D02*
X278892D01*
X1186688Y281940D02*
X1190752D01*
X1188720Y279908D02*
Y283972D01*
X1184656Y290322D02*
X1192784D01*
X1184656Y273558D02*
X1192784D01*
Y290322D01*
X1184656Y273558D02*
Y290322D01*
X940308Y262890D02*
X944372D01*
X942340Y260858D02*
Y264922D01*
X938276Y254508D02*
X946404D01*
X938276Y271272D02*
X946404D01*
X938276Y254508D02*
Y271272D01*
X946404Y254508D02*
Y271272D01*
X1138428Y283210D02*
X1142492D01*
X1140460Y281178D02*
Y285242D01*
X1136396Y291592D02*
X1144524D01*
X1136396Y274828D02*
X1144524D01*
Y291592D01*
X1136396Y274828D02*
Y291592D01*
X1154430Y217678D02*
Y221742D01*
X1152398Y219710D02*
X1156462D01*
X1146048Y215646D02*
Y223774D01*
X1162812Y215646D02*
Y223774D01*
X1146048D02*
X1162812D01*
X1146048Y215646D02*
X1162812D01*
X1022858Y312420D02*
X1026922D01*
X1024890Y310388D02*
Y314452D01*
X1020826Y304038D02*
X1028954D01*
X1020826Y320802D02*
X1028954D01*
X1020826Y304038D02*
Y320802D01*
X1028954Y304038D02*
Y320802D01*
X1125728Y147320D02*
X1129792D01*
X1127760Y145288D02*
Y149352D01*
X1123696Y155702D02*
X1131824D01*
X1123696Y138938D02*
X1131824D01*
Y155702D01*
X1123696Y138938D02*
Y155702D01*
X940308Y215900D02*
X944372D01*
X942340Y213868D02*
Y217932D01*
X938276Y224282D02*
X946404D01*
X938276Y207518D02*
X946404D01*
Y224282D01*
X938276Y207518D02*
Y224282D01*
X943610Y157988D02*
Y162052D01*
X941578Y160020D02*
X945642D01*
X951992Y155956D02*
Y164084D01*
X935228Y155956D02*
Y164084D01*
Y155956D02*
X951992D01*
X935228Y164084D02*
X951992D01*
X1158240Y171958D02*
Y176022D01*
X1156208Y173990D02*
X1160272D01*
X1149858Y169926D02*
Y178054D01*
X1166622Y169926D02*
Y178054D01*
X1149858D02*
X1166622D01*
X1149858Y169926D02*
X1166622D01*
X1113790Y198628D02*
Y202692D01*
X1111758Y200660D02*
X1115822D01*
X1122172Y196596D02*
Y204724D01*
X1105408Y196596D02*
Y204724D01*
Y196596D02*
X1122172D01*
X1105408Y204724D02*
X1122172D01*
X943610Y177038D02*
Y181102D01*
X941578Y179070D02*
X945642D01*
X951992Y175006D02*
Y183134D01*
X935228Y175006D02*
Y183134D01*
Y175006D02*
X951992D01*
X935228Y183134D02*
X951992D01*
X994715Y312110D02*
X998779D01*
X996747Y310078D02*
Y314142D01*
X992682Y303728D02*
X1000810D01*
X992682Y320492D02*
X1000810D01*
X992682Y303728D02*
Y320492D01*
X1000810Y303728D02*
Y320492D01*
X1092260Y145102D02*
Y290898D01*
X1041968Y218000D02*
X1046032D01*
X1044000Y215968D02*
Y220032D01*
X995740Y290898D02*
X1092260D01*
X995740Y280898D02*
X1005740Y290898D01*
X995740Y145102D02*
Y290898D01*
Y145102D02*
X1092260D01*
X817880Y321310D02*
Y327660D01*
X824230D01*
X829310D02*
X835660D01*
Y321310D02*
Y327660D01*
Y309880D02*
Y316230D01*
X829310Y309880D02*
X835660D01*
X817880D02*
X824230D01*
X817880D02*
Y316230D01*
X812800Y439420D02*
X816610D01*
X812800Y435610D02*
Y439420D01*
X825500Y435610D02*
Y439420D01*
X821690D02*
X825500D01*
X821690Y426720D02*
X825500D01*
Y430530D01*
X812800Y426720D02*
Y430530D01*
Y426720D02*
X816610D01*
X812890Y400050D02*
X816700D01*
X812890Y396240D02*
Y400050D01*
X825590Y396240D02*
Y400050D01*
X821780D02*
X825590D01*
X821780Y387350D02*
X825590D01*
Y391160D01*
X812890Y387350D02*
Y391160D01*
Y387350D02*
X816700D01*
X706755Y461325D02*
Y467675D01*
X713105D01*
X718185D02*
X724535D01*
Y461325D02*
Y467675D01*
Y449895D02*
Y456245D01*
X718185Y449895D02*
X724535D01*
X706755D02*
X713105D01*
X706755D02*
Y456245D01*
X867664Y555498D02*
Y572262D01*
X859536Y555498D02*
Y572262D01*
X867664D01*
X859536Y555498D02*
X867664D01*
X863600Y561848D02*
Y565912D01*
X861568Y563880D02*
X865632D01*
X857504Y555498D02*
Y572262D01*
X849376Y555498D02*
Y572262D01*
X857504D01*
X849376Y555498D02*
X857504D01*
X853440Y561848D02*
Y565912D01*
X851408Y563880D02*
X855472D01*
X857504Y536448D02*
Y553212D01*
X849376Y536448D02*
Y553212D01*
X857504D01*
X849376Y536448D02*
X857504D01*
X853440Y542798D02*
Y546862D01*
X851408Y544830D02*
X855472D01*
X867664Y536448D02*
Y553212D01*
X859536Y536448D02*
Y553212D01*
X867664D01*
X859536Y536448D02*
X867664D01*
X863600Y542798D02*
Y546862D01*
X861568Y544830D02*
X865632D01*
X857504Y517398D02*
Y534162D01*
X849376Y517398D02*
Y534162D01*
X857504D01*
X849376Y517398D02*
X857504D01*
X853440Y523748D02*
Y527812D01*
X851408Y525780D02*
X855472D01*
X916940Y632968D02*
Y677672D01*
X894080Y632968D02*
Y677672D01*
X916940D01*
X894080Y632968D02*
X916940D01*
X905510Y653288D02*
Y657352D01*
X903478Y655320D02*
X907542D01*
X893318Y630174D02*
X910082D01*
X893318Y622046D02*
X910082D01*
X893318D02*
Y630174D01*
X910082Y622046D02*
Y630174D01*
X899668Y626110D02*
X903732D01*
X901700Y624078D02*
Y628142D01*
X893318Y620014D02*
X910082D01*
X893318Y611886D02*
X910082D01*
X893318D02*
Y620014D01*
X910082Y611886D02*
Y620014D01*
X899668Y615950D02*
X903732D01*
X901700Y613918D02*
Y617982D01*
X893318Y609854D02*
X910082D01*
X893318Y601726D02*
X910082D01*
X893318D02*
Y609854D01*
X910082Y601726D02*
Y609854D01*
X899668Y605790D02*
X903732D01*
X901700Y603758D02*
Y607822D01*
X912368Y609854D02*
X929132D01*
X912368Y601726D02*
X929132D01*
X912368D02*
Y609854D01*
X929132Y601726D02*
Y609854D01*
X918718Y605790D02*
X922782D01*
X920750Y603758D02*
Y607822D01*
X912368Y620014D02*
X929132D01*
X912368Y611886D02*
X929132D01*
X912368D02*
Y620014D01*
X929132Y611886D02*
Y620014D01*
X918718Y615950D02*
X922782D01*
X920750Y613918D02*
Y617982D01*
X867664Y517398D02*
Y534162D01*
X859536Y517398D02*
Y534162D01*
X867664D01*
X859536Y517398D02*
X867664D01*
X863600Y523748D02*
Y527812D01*
X861568Y525780D02*
X865632D01*
X849376Y498348D02*
Y515112D01*
X857504Y498348D02*
Y515112D01*
X849376Y498348D02*
X857504D01*
X849376Y515112D02*
X857504D01*
X853440Y504698D02*
Y508762D01*
X851408Y506730D02*
X855472D01*
X859536Y498348D02*
Y515112D01*
X867664Y498348D02*
Y515112D01*
X859536Y498348D02*
X867664D01*
X859536Y515112D02*
X867664D01*
X863600Y504698D02*
Y508762D01*
X861568Y506730D02*
X865632D01*
X857504Y579628D02*
Y596392D01*
X849376Y579628D02*
Y596392D01*
X857504D01*
X849376Y579628D02*
X857504D01*
X853440Y585978D02*
Y590042D01*
X851408Y588010D02*
X855472D01*
X867664Y579628D02*
Y596392D01*
X859536Y579628D02*
Y596392D01*
X867664D01*
X859536Y579628D02*
X867664D01*
X863600Y585978D02*
Y590042D01*
X861568Y588010D02*
X865632D01*
X922528Y487426D02*
X939292D01*
X922528Y495554D02*
X939292D01*
Y487426D02*
Y495554D01*
X922528Y487426D02*
Y495554D01*
X928878Y491490D02*
X932942D01*
X930910Y489458D02*
Y493522D01*
X922528Y477266D02*
X939292D01*
X922528Y485394D02*
X939292D01*
Y477266D02*
Y485394D01*
X922528Y477266D02*
Y485394D01*
X928878Y481330D02*
X932942D01*
X930910Y479298D02*
Y483362D01*
X897128Y495554D02*
X913892D01*
X897128Y487426D02*
X913892D01*
X897128D02*
Y495554D01*
X913892Y487426D02*
Y495554D01*
X903478Y491490D02*
X907542D01*
X905510Y489458D02*
Y493522D01*
X897128Y485394D02*
X913892D01*
X897128Y477266D02*
X913892D01*
X897128D02*
Y485394D01*
X913892Y477266D02*
Y485394D01*
X903478Y481330D02*
X907542D01*
X905510Y479298D02*
Y483362D01*
X906780Y430276D02*
Y474980D01*
X929640Y430276D02*
Y474980D01*
X906780Y430276D02*
X929640D01*
X906780Y474980D02*
X929640D01*
X918210Y450596D02*
Y454660D01*
X916178Y452628D02*
X920242D01*
X949198Y487426D02*
X965962D01*
X949198Y495554D02*
X965962D01*
Y487426D02*
Y495554D01*
X949198Y487426D02*
Y495554D01*
X955548Y491490D02*
X959612D01*
X957580Y489458D02*
Y493522D01*
X949198Y477266D02*
X965962D01*
X949198Y485394D02*
X965962D01*
Y477266D02*
Y485394D01*
X949198Y477266D02*
Y485394D01*
X955548Y481330D02*
X959612D01*
X957580Y479298D02*
Y483362D01*
X874268Y495554D02*
X891032D01*
X874268Y487426D02*
X891032D01*
X874268D02*
Y495554D01*
X891032Y487426D02*
Y495554D01*
X880618Y491490D02*
X884682D01*
X882650Y489458D02*
Y493522D01*
X874268Y485394D02*
X891032D01*
X874268Y477266D02*
X891032D01*
X874268D02*
Y485394D01*
X891032Y477266D02*
Y485394D01*
X880618Y481330D02*
X884682D01*
X882650Y479298D02*
Y483362D01*
X874268Y475234D02*
X891032D01*
X874268Y467106D02*
X891032D01*
X874268D02*
Y475234D01*
X891032Y467106D02*
Y475234D01*
X880618Y471170D02*
X884682D01*
X882650Y469138D02*
Y473202D01*
X943483Y601726D02*
X960247D01*
X943483Y609854D02*
X960247D01*
Y601726D02*
Y609854D01*
X943483Y601726D02*
Y609854D01*
X949833Y605790D02*
X953897D01*
X951865Y603758D02*
Y607822D01*
X963803Y601726D02*
X980567D01*
X963803Y609854D02*
X980567D01*
Y601726D02*
Y609854D01*
X963803Y601726D02*
Y609854D01*
X970153Y605790D02*
X974217D01*
X972185Y603758D02*
Y607822D01*
X963803Y611886D02*
X980567D01*
X963803Y620014D02*
X980567D01*
Y611886D02*
Y620014D01*
X963803Y611886D02*
Y620014D01*
X970153Y615950D02*
X974217D01*
X972185Y613918D02*
Y617982D01*
X943483Y611886D02*
X960247D01*
X943483Y620014D02*
X960247D01*
Y611886D02*
Y620014D01*
X943483Y611886D02*
Y620014D01*
X949833Y615950D02*
X953897D01*
X951865Y613918D02*
Y617982D01*
X943483Y622300D02*
X988187D01*
X943483Y645160D02*
X988187D01*
Y622300D02*
Y645160D01*
X943483Y622300D02*
Y645160D01*
X963803Y633730D02*
X967867D01*
X965835Y631698D02*
Y635762D01*
X862838Y630174D02*
X879602D01*
X862838Y622046D02*
X879602D01*
X862838D02*
Y630174D01*
X879602Y622046D02*
Y630174D01*
X869188Y626110D02*
X873252D01*
X871220Y624078D02*
Y628142D01*
X862838Y620014D02*
X879602D01*
X862838Y611886D02*
X879602D01*
X862838D02*
Y620014D01*
X879602Y611886D02*
Y620014D01*
X869188Y615950D02*
X873252D01*
X871220Y613918D02*
Y617982D01*
X862838Y609854D02*
X879602D01*
X862838Y601726D02*
X879602D01*
X862838D02*
Y609854D01*
X879602Y601726D02*
Y609854D01*
X869188Y605790D02*
X873252D01*
X871220Y603758D02*
Y607822D01*
X838200Y744220D02*
X842010D01*
Y748030D01*
X829310Y744220D02*
Y748030D01*
Y744220D02*
X833120D01*
X829310Y756920D02*
X833120D01*
X829310Y753110D02*
Y756920D01*
X842010Y753110D02*
Y756920D01*
X838200D02*
X842010D01*
X817626Y329692D02*
Y345948D01*
X825754Y329692D02*
Y345948D01*
X817626Y329692D02*
X825754D01*
X817626Y345948D02*
X825754D01*
X819658Y337820D02*
X823722D01*
X821690Y335788D02*
Y339852D01*
X706490Y372719D02*
X785230D01*
Y274061D02*
Y372719D01*
X745860Y321559D02*
Y325623D01*
X743828Y323591D02*
X747892D01*
X706490Y274061D02*
X785230D01*
X706490D02*
Y372719D01*
X1958340Y878840D02*
X1991360D01*
X1958340Y896620D02*
X1991360D01*
Y878840D02*
Y896620D01*
X1958340Y878840D02*
Y896620D01*
X1974850Y885698D02*
Y889762D01*
X1972818Y887730D02*
X1976882D01*
X1926082Y883666D02*
X1942338D01*
X1926082Y891794D02*
X1942338D01*
Y883666D02*
Y891794D01*
X1926082Y883666D02*
Y891794D01*
X1934210Y885698D02*
Y889762D01*
X1932178Y887730D02*
X1936242D01*
X204470Y534670D02*
X208280D01*
X204470Y530860D02*
Y534670D01*
X217170Y530860D02*
Y534670D01*
X213360D02*
X217170D01*
X213360Y521970D02*
X217170D01*
Y525780D01*
X204470Y521970D02*
Y525780D01*
Y521970D02*
X208280D01*
X230124Y524002D02*
Y540258D01*
X221996Y524002D02*
Y540258D01*
X230124D01*
X221996Y524002D02*
X230124D01*
X224028Y532130D02*
X228092D01*
X226060Y530098D02*
Y534162D01*
X232156Y524002D02*
Y540258D01*
X240284Y524002D02*
Y540258D01*
X232156Y524002D02*
X240284D01*
X232156Y540258D02*
X240284D01*
X234188Y532130D02*
X238252D01*
X236220Y530098D02*
Y534162D01*
X295910Y457200D02*
X299720D01*
X295910Y453390D02*
Y457200D01*
X308610Y453390D02*
Y457200D01*
X304800D02*
X308610D01*
X304800Y444500D02*
X308610D01*
Y448310D01*
X295910Y444500D02*
Y448310D01*
Y444500D02*
X299720D01*
X734568Y393700D02*
X767588D01*
X734568Y411480D02*
X767588D01*
Y393700D02*
Y411480D01*
X734568Y393700D02*
Y411480D01*
X751078Y400558D02*
Y404622D01*
X749046Y402590D02*
X753110D01*
X715772Y398526D02*
X732028D01*
X715772Y406654D02*
X732028D01*
Y398526D02*
Y406654D01*
X715772Y398526D02*
Y406654D01*
X723900Y400558D02*
Y404622D01*
X721868Y402590D02*
X725932D01*
X735076Y424180D02*
X768096D01*
X735076Y441960D02*
X768096D01*
Y424180D02*
Y441960D01*
X735076Y424180D02*
Y441960D01*
X751586Y431038D02*
Y435102D01*
X749554Y433070D02*
X753618D01*
X716915Y437134D02*
X733171D01*
X716915Y429006D02*
X733171D01*
X716915D02*
Y437134D01*
X733171Y429006D02*
Y437134D01*
X725043Y431038D02*
Y435102D01*
X723011Y433070D02*
X727075D01*
X295910Y480060D02*
X299720D01*
X295910Y476250D02*
Y480060D01*
X308610Y476250D02*
Y480060D01*
X304800D02*
X308610D01*
X304800Y467360D02*
X308610D01*
Y471170D01*
X295910Y467360D02*
Y471170D01*
Y467360D02*
X299720D01*
X796290Y346710D02*
Y353060D01*
X802640D01*
X807720D02*
X814070D01*
Y346710D02*
Y353060D01*
Y335280D02*
Y341630D01*
X807720Y335280D02*
X814070D01*
X796290D02*
X802640D01*
X796290D02*
Y341630D01*
Y326390D02*
Y332740D01*
X802640D01*
X807720D02*
X814070D01*
Y326390D02*
Y332740D01*
Y314960D02*
Y321310D01*
X807720Y314960D02*
X814070D01*
X796290D02*
X802640D01*
X796290D02*
Y321310D01*
X778510Y228600D02*
Y234950D01*
X784860D01*
X789940D02*
X796290D01*
Y228600D02*
Y234950D01*
Y217170D02*
Y223520D01*
X789940Y217170D02*
X796290D01*
X778510D02*
X784860D01*
X778510D02*
Y223520D01*
X635000Y369570D02*
Y375920D01*
X641350D01*
X646430D02*
X652780D01*
Y369570D02*
Y375920D01*
Y358140D02*
Y364490D01*
X646430Y358140D02*
X652780D01*
X635000D02*
X641350D01*
X635000D02*
Y364490D01*
X649478Y301244D02*
X666242D01*
X649478Y293116D02*
X666242D01*
X649478D02*
Y301244D01*
X666242Y293116D02*
Y301244D01*
X655828Y297180D02*
X659892D01*
X657860Y295148D02*
Y299212D01*
X645668Y289560D02*
X690372D01*
X645668Y266700D02*
X690372D01*
X645668D02*
Y289560D01*
X690372Y266700D02*
Y289560D01*
X665988Y278130D02*
X670052D01*
X668020Y276098D02*
Y280162D01*
X684530Y295910D02*
Y326390D01*
X671830Y295910D02*
Y326390D01*
X684530D01*
X671830Y295910D02*
X684530D01*
X678180Y309118D02*
Y313182D01*
X676148Y311150D02*
X680212D01*
X689480Y331239D02*
Y375943D01*
X666620Y331239D02*
Y375943D01*
X689480D01*
X666620Y331239D02*
X689480D01*
X678050Y351559D02*
Y355623D01*
X676018Y353591D02*
X680082D01*
X701294Y345948D02*
Y362712D01*
X693166Y345948D02*
Y362712D01*
X701294D01*
X693166Y345948D02*
X701294D01*
X697230Y352298D02*
Y356362D01*
X695198Y354330D02*
X699262D01*
X112522Y45466D02*
X128778D01*
X112522Y53594D02*
X128778D01*
Y45466D02*
Y53594D01*
X112522Y45466D02*
Y53594D01*
X120650Y47498D02*
Y51562D01*
X118618Y49530D02*
X122682D01*
X112522Y55626D02*
X128778D01*
X112522Y63754D02*
X128778D01*
Y55626D02*
Y63754D01*
X112522Y55626D02*
Y63754D01*
X120650Y57658D02*
Y61722D01*
X118618Y59690D02*
X122682D01*
X112522Y65786D02*
X128778D01*
X112522Y73914D02*
X128778D01*
Y65786D02*
Y73914D01*
X112522Y65786D02*
Y73914D01*
X120650Y67818D02*
Y71882D01*
X118618Y69850D02*
X122682D01*
X1491742Y53594D02*
X1507998D01*
X1491742Y45466D02*
X1507998D01*
X1491742D02*
Y53594D01*
X1507998Y45466D02*
Y53594D01*
X1499870Y47498D02*
Y51562D01*
X1497838Y49530D02*
X1501902D01*
X1491742Y63754D02*
X1507998D01*
X1491742Y55626D02*
X1507998D01*
X1491742D02*
Y63754D01*
X1507998Y55626D02*
Y63754D01*
X1499870Y57658D02*
Y61722D01*
X1497838Y59690D02*
X1501902D01*
X1491742Y73914D02*
X1507998D01*
X1491742Y65786D02*
X1507998D01*
X1491742D02*
Y73914D01*
X1507998Y65786D02*
Y73914D01*
X1499870Y67818D02*
Y71882D01*
X1497838Y69850D02*
X1501902D01*
X53565Y582422D02*
Y598678D01*
X45437Y582422D02*
Y598678D01*
X53565D01*
X45437Y582422D02*
X53565D01*
X47469Y590550D02*
X51533D01*
X49501Y588518D02*
Y592582D01*
X73885Y582422D02*
Y598678D01*
X65757Y582422D02*
Y598678D01*
X73885D01*
X65757Y582422D02*
X73885D01*
X67789Y590550D02*
X71853D01*
X69821Y588518D02*
Y592582D01*
X63754Y582422D02*
Y598678D01*
X55626Y582422D02*
Y598678D01*
X63754D01*
X55626Y582422D02*
X63754D01*
X57658Y590550D02*
X61722D01*
X59690Y588518D02*
Y592582D01*
X1516213Y947522D02*
X1527708Y959017D01*
X1521960Y941775D02*
X1533455Y953270D01*
X1516213Y947522D02*
X1521960Y941775D01*
X1527708Y959017D02*
X1533455Y953270D01*
X1523397Y951833D02*
X1526271Y948959D01*
X1523397D02*
X1526271Y951833D01*
X1509029Y954706D02*
X1520524Y966201D01*
X1514776Y948959D02*
X1526271Y960454D01*
X1509029Y954706D02*
X1514776Y948959D01*
X1520524Y966201D02*
X1526271Y960454D01*
X1516213Y959017D02*
X1519087Y956143D01*
X1516213D02*
X1519087Y959017D01*
X1501580Y962155D02*
X1513075Y973650D01*
X1507328Y956408D02*
X1518822Y967902D01*
X1501580Y962155D02*
X1507328Y956408D01*
X1513075Y973650D02*
X1518822Y967902D01*
X1508764Y966466D02*
X1511638Y963592D01*
X1508764D02*
X1511638Y966466D01*
X932039Y994410D02*
X938643D01*
X935341Y991108D02*
Y997712D01*
X955661Y949960D02*
Y1019810D01*
X915021Y949960D02*
Y1019810D01*
X941691Y1042670D02*
X954391Y1023620D01*
X916291D02*
X928991Y1042670D01*
X921371Y943610D02*
X949311D01*
X1222756Y405892D02*
Y422148D01*
X1230884Y405892D02*
Y422148D01*
X1222756Y405892D02*
X1230884D01*
X1222756Y422148D02*
X1230884D01*
X1224788Y414020D02*
X1228852D01*
X1226820Y411988D02*
Y416052D01*
X1274826Y405892D02*
Y422148D01*
X1282954Y405892D02*
Y422148D01*
X1274826Y405892D02*
X1282954D01*
X1274826Y422148D02*
X1282954D01*
X1276858Y414020D02*
X1280922D01*
X1278890Y411988D02*
Y416052D01*
X1258570Y416560D02*
X1262380D01*
X1258570Y412750D02*
Y416560D01*
X1271270Y412750D02*
Y416560D01*
X1267460D02*
X1271270D01*
X1267460Y403860D02*
X1271270D01*
Y407670D01*
X1258570Y403860D02*
Y407670D01*
Y403860D02*
X1262380D01*
X1234440Y416560D02*
X1238250D01*
X1234440Y412750D02*
Y416560D01*
X1247140Y412750D02*
Y416560D01*
X1243330D02*
X1247140D01*
X1243330Y403860D02*
X1247140D01*
Y407670D01*
X1234440Y403860D02*
Y407670D01*
Y403860D02*
X1238250D01*
X1897126Y219202D02*
Y235458D01*
X1905254Y219202D02*
Y235458D01*
X1897126Y219202D02*
X1905254D01*
X1897126Y235458D02*
X1905254D01*
X1899158Y227330D02*
X1903222D01*
X1901190Y225298D02*
Y229362D01*
X1935226Y219202D02*
Y235458D01*
X1943354Y219202D02*
Y235458D01*
X1935226Y219202D02*
X1943354D01*
X1935226Y235458D02*
X1943354D01*
X1937258Y227330D02*
X1941322D01*
X1939290Y225298D02*
Y229362D01*
X1930400Y184150D02*
Y217170D01*
X1948180Y184150D02*
Y217170D01*
X1930400Y184150D02*
X1948180D01*
X1930400Y217170D02*
X1948180D01*
X1937258Y200660D02*
X1941322D01*
X1939290Y198628D02*
Y202692D01*
X1892300Y184150D02*
Y217170D01*
X1910080Y184150D02*
Y217170D01*
X1892300Y184150D02*
X1910080D01*
X1892300Y217170D02*
X1910080D01*
X1899158Y200660D02*
X1903222D01*
X1901190Y198628D02*
Y202692D01*
X1816100Y184150D02*
Y217170D01*
X1833880Y184150D02*
Y217170D01*
X1816100Y184150D02*
X1833880D01*
X1816100Y217170D02*
X1833880D01*
X1822958Y200660D02*
X1827022D01*
X1824990Y198628D02*
Y202692D01*
X1854200Y184150D02*
Y217170D01*
X1871980Y184150D02*
Y217170D01*
X1854200Y184150D02*
X1871980D01*
X1854200Y217170D02*
X1871980D01*
X1861058Y200660D02*
X1865122D01*
X1863090Y198628D02*
Y202692D01*
X1859026Y219202D02*
Y235458D01*
X1867154Y219202D02*
Y235458D01*
X1859026Y219202D02*
X1867154D01*
X1859026Y235458D02*
X1867154D01*
X1861058Y227330D02*
X1865122D01*
X1863090Y225298D02*
Y229362D01*
X1820926Y219202D02*
Y235458D01*
X1829054Y219202D02*
Y235458D01*
X1820926Y219202D02*
X1829054D01*
X1820926Y235458D02*
X1829054D01*
X1822958Y227330D02*
X1827022D01*
X1824990Y225298D02*
Y229362D01*
X1781302Y101346D02*
X1797558D01*
X1781302Y109474D02*
X1797558D01*
Y101346D02*
Y109474D01*
X1781302Y101346D02*
Y109474D01*
X1789430Y103378D02*
Y107442D01*
X1787398Y105410D02*
X1791462D01*
X1954022Y101346D02*
X1970278D01*
X1954022Y109474D02*
X1970278D01*
Y101346D02*
Y109474D01*
X1954022Y101346D02*
Y109474D01*
X1962150Y103378D02*
Y107442D01*
X1960118Y105410D02*
X1964182D01*
X1844802Y59436D02*
X1861058D01*
X1844802Y67564D02*
X1861058D01*
Y59436D02*
Y67564D01*
X1844802Y59436D02*
Y67564D01*
X1852930Y61468D02*
Y65532D01*
X1850898Y63500D02*
X1854962D01*
X1844548Y77724D02*
X1861312D01*
X1844548Y69596D02*
X1861312D01*
X1844548D02*
Y77724D01*
X1861312Y69596D02*
Y77724D01*
X1850898Y73660D02*
X1854962D01*
X1852930Y71628D02*
Y75692D01*
X1873250Y114300D02*
Y120650D01*
X1879600D01*
X1884680D02*
X1891030D01*
Y114300D02*
Y120650D01*
Y102870D02*
Y109220D01*
X1884680Y102870D02*
X1891030D01*
X1873250D02*
X1879600D01*
X1873250D02*
Y109220D01*
X1838706Y86106D02*
X1867408D01*
X1838706Y109728D02*
X1867408D01*
Y86106D02*
Y109728D01*
X1838706Y86106D02*
Y109728D01*
X1852930Y95758D02*
Y99822D01*
X1850898Y97790D02*
X1854962D01*
X1672082Y59266D02*
X1688338D01*
X1672082Y67394D02*
X1688338D01*
Y59266D02*
Y67394D01*
X1672082Y59266D02*
Y67394D01*
X1680210Y61298D02*
Y65362D01*
X1678178Y63330D02*
X1682242D01*
X1671828Y77724D02*
X1688592D01*
X1671828Y69596D02*
X1688592D01*
X1671828D02*
Y77724D01*
X1688592Y69596D02*
Y77724D01*
X1678178Y73660D02*
X1682242D01*
X1680210Y71628D02*
Y75692D01*
X1665986Y86106D02*
X1694688D01*
X1665986Y109728D02*
X1694688D01*
Y86106D02*
Y109728D01*
X1665986Y86106D02*
Y109728D01*
X1680210Y95758D02*
Y99822D01*
X1678178Y97790D02*
X1682242D01*
X1700530Y114300D02*
Y120650D01*
X1706880D01*
X1711960D02*
X1718310D01*
Y114300D02*
Y120650D01*
Y102870D02*
Y109220D01*
X1711960Y102870D02*
X1718310D01*
X1700530D02*
X1706880D01*
X1700530D02*
Y109220D01*
X2011680Y261620D02*
X2015490D01*
X2011680Y257810D02*
Y261620D01*
X2024380Y257810D02*
Y261620D01*
X2020570D02*
X2024380D01*
X2020570Y248920D02*
X2024380D01*
Y252730D01*
X2011680Y248920D02*
Y252730D01*
Y248920D02*
X2015490D01*
X2011680Y234950D02*
X2015490D01*
X2011680Y231140D02*
Y234950D01*
X2024380Y231140D02*
Y234950D01*
X2020570D02*
X2024380D01*
X2020570Y222250D02*
X2024380D01*
Y226060D01*
X2011680Y222250D02*
Y226060D01*
Y222250D02*
X2015490D01*
X2000530Y324990D02*
X2035530D01*
X2000530Y276990D02*
X2035530D01*
Y324990D01*
X2000530Y276990D02*
Y324990D01*
X2015998Y300990D02*
X2020062D01*
X2018030Y298958D02*
Y303022D01*
X1653660Y899280D02*
X1795660D01*
X1653660Y1075670D02*
X1795660D01*
Y899280D02*
Y1075670D01*
X1653660Y899280D02*
Y1075670D01*
X1721358Y979170D02*
X1727962D01*
X1724660Y975868D02*
Y982472D01*
X1653780Y1059180D02*
X1795780D01*
X1811274Y940562D02*
Y956818D01*
X1803146Y940562D02*
Y956818D01*
X1811274D01*
X1803146Y940562D02*
X1811274D01*
X1805178Y948690D02*
X1809242D01*
X1807210Y946658D02*
Y950722D01*
X1215390Y930910D02*
Y937260D01*
X1221740D01*
X1226820D02*
X1233170D01*
Y930910D02*
Y937260D01*
Y919480D02*
Y925830D01*
X1226820Y919480D02*
X1233170D01*
X1215390D02*
X1221740D01*
X1215390D02*
Y925830D01*
X1330960Y839470D02*
Y845820D01*
X1337310D01*
X1342390D02*
X1348740D01*
Y839470D02*
Y845820D01*
Y828040D02*
Y834390D01*
X1342390Y828040D02*
X1348740D01*
X1330960D02*
X1337310D01*
X1330960D02*
Y834390D01*
X1377950Y849630D02*
Y875030D01*
X1301750Y849630D02*
X1377950D01*
X1301750D02*
Y875030D01*
X1377950D01*
X1336548Y862330D02*
X1343152D01*
X1339850Y859028D02*
Y865632D01*
X1328420Y927100D02*
Y934720D01*
X1336040D01*
X1328420Y911860D02*
X1336040D01*
X1328420D02*
Y919480D01*
X1351280Y911860D02*
Y919480D01*
X1343660Y911860D02*
X1351280D01*
X1343660Y934720D02*
X1351280D01*
Y927100D02*
Y934720D01*
X1377950Y882650D02*
Y908050D01*
X1301750Y882650D02*
X1377950D01*
X1301750D02*
Y908050D01*
X1377950D01*
X1336548Y895350D02*
X1343152D01*
X1339850Y892048D02*
Y898652D01*
X1158240Y915670D02*
Y941070D01*
X1209040D01*
Y915670D02*
Y941070D01*
X1158240Y915670D02*
X1209040D01*
X1180338Y928370D02*
X1186942D01*
X1183640Y925068D02*
Y931672D01*
X1328420Y1038860D02*
Y1046480D01*
X1336040D01*
X1328420Y1023620D02*
X1336040D01*
X1328420D02*
Y1031240D01*
X1351280Y1023620D02*
Y1031240D01*
X1343660Y1023620D02*
X1351280D01*
X1343660Y1046480D02*
X1351280D01*
Y1038860D02*
Y1046480D01*
X1384300Y976630D02*
Y982980D01*
X1390650D01*
X1395730D02*
X1402080D01*
Y976630D02*
Y982980D01*
Y965200D02*
Y971550D01*
X1395730Y965200D02*
X1402080D01*
X1384300D02*
X1390650D01*
X1384300D02*
Y971550D01*
X1377950Y961390D02*
Y986790D01*
X1301750Y961390D02*
X1377950D01*
X1301750D02*
Y986790D01*
X1377950D01*
X1336548Y974090D02*
X1343152D01*
X1339850Y970788D02*
Y977392D01*
X1377950Y994410D02*
Y1019810D01*
X1301750Y994410D02*
X1377950D01*
X1301750D02*
Y1019810D01*
X1377950D01*
X1336548Y1007110D02*
X1343152D01*
X1339850Y1003808D02*
Y1010412D01*
X1070610Y839470D02*
Y845820D01*
X1076960D01*
X1082040D02*
X1088390D01*
Y839470D02*
Y845820D01*
Y828040D02*
Y834390D01*
X1082040Y828040D02*
X1088390D01*
X1070610D02*
X1076960D01*
X1070610D02*
Y834390D01*
X1117600Y849630D02*
Y875030D01*
X1041400Y849630D02*
X1117600D01*
X1041400D02*
Y875030D01*
X1117600D01*
X1076198Y862330D02*
X1082802D01*
X1079500Y859028D02*
Y865632D01*
X542290Y759460D02*
X546100D01*
X542290Y755650D02*
Y759460D01*
X554990Y755650D02*
Y759460D01*
X551180D02*
X554990D01*
X551180Y746760D02*
X554990D01*
Y750570D01*
X542290Y746760D02*
Y750570D01*
Y746760D02*
X546100D01*
X1117600Y882650D02*
Y908050D01*
X1041400Y882650D02*
X1117600D01*
X1041400D02*
Y908050D01*
X1117600D01*
X1076198Y895350D02*
X1082802D01*
X1079500Y892048D02*
Y898652D01*
X1068070Y927100D02*
Y934720D01*
X1075690D01*
X1068070Y911860D02*
X1075690D01*
X1068070D02*
Y919480D01*
X1090930Y911860D02*
Y919480D01*
X1083310Y911860D02*
X1090930D01*
X1083310Y934720D02*
X1090930D01*
Y927100D02*
Y934720D01*
X1070610Y951230D02*
Y957580D01*
X1076960D01*
X1082040D02*
X1088390D01*
Y951230D02*
Y957580D01*
Y939800D02*
Y946150D01*
X1082040Y939800D02*
X1088390D01*
X1070610D02*
X1076960D01*
X1070610D02*
Y946150D01*
X1117600Y961390D02*
Y986790D01*
X1041400Y961390D02*
X1117600D01*
X1041400D02*
Y986790D01*
X1117600D01*
X1076198Y974090D02*
X1082802D01*
X1079500Y970788D02*
Y977392D01*
X1068070Y1038860D02*
Y1046480D01*
X1075690D01*
X1068070Y1023620D02*
X1075690D01*
X1068070D02*
Y1031240D01*
X1090930Y1023620D02*
Y1031240D01*
X1083310Y1023620D02*
X1090930D01*
X1083310Y1046480D02*
X1090930D01*
Y1038860D02*
Y1046480D01*
X1117600Y994410D02*
Y1019810D01*
X1041400Y994410D02*
X1117600D01*
X1041400D02*
Y1019810D01*
X1117600D01*
X1076198Y1007110D02*
X1082802D01*
X1079500Y1003808D02*
Y1010412D01*
X961390Y953770D02*
Y960120D01*
X967740D01*
X972820D02*
X979170D01*
Y953770D02*
Y960120D01*
Y942340D02*
Y948690D01*
X972820Y942340D02*
X979170D01*
X961390D02*
X967740D01*
X961390D02*
Y948690D01*
Y1040130D02*
Y1046480D01*
X967740D01*
X972820D02*
X979170D01*
Y1040130D02*
Y1046480D01*
Y1028700D02*
Y1035050D01*
X972820Y1028700D02*
X979170D01*
X961390D02*
X967740D01*
X961390D02*
Y1035050D01*
X827786Y897382D02*
Y913638D01*
X835914Y897382D02*
Y913638D01*
X827786Y897382D02*
X835914D01*
X827786Y913638D02*
X835914D01*
X829818Y905510D02*
X833882D01*
X831850Y903478D02*
Y907542D01*
X839470Y876300D02*
X864870D01*
X839470D02*
Y927100D01*
X864870D01*
Y876300D02*
Y927100D01*
X852170Y898398D02*
Y905002D01*
X848868Y901700D02*
X855472D01*
X744220Y698500D02*
Y704850D01*
X750570D01*
X755650D02*
X762000D01*
Y698500D02*
Y704850D01*
Y687070D02*
Y693420D01*
X755650Y687070D02*
X762000D01*
X744220D02*
X750570D01*
X744220D02*
Y693420D01*
X739648Y725170D02*
X743712D01*
X741680Y723138D02*
Y727202D01*
X737616Y716788D02*
X745744D01*
X737616Y733552D02*
X745744D01*
X737616Y716788D02*
Y733552D01*
X745744Y716788D02*
Y733552D01*
X747776Y713994D02*
X776732D01*
X747776Y736854D02*
X776732D01*
Y713994D02*
Y736854D01*
X747776Y713994D02*
Y736854D01*
X759968Y725170D02*
X764032D01*
X762000Y723138D02*
Y727202D01*
X688594Y808482D02*
Y824738D01*
X680466Y808482D02*
Y824738D01*
X688594D01*
X680466Y808482D02*
X688594D01*
X682498Y816610D02*
X686562D01*
X684530Y814578D02*
Y818642D01*
X663702Y801624D02*
X679958D01*
X663702Y793496D02*
X679958D01*
X663702D02*
Y801624D01*
X679958Y793496D02*
Y801624D01*
X671830Y795528D02*
Y799592D01*
X669798Y797560D02*
X673862D01*
X675640Y805180D02*
Y838200D01*
X657860Y805180D02*
Y838200D01*
X675640D01*
X657860Y805180D02*
X675640D01*
X664718Y821690D02*
X668782D01*
X666750Y819658D02*
Y823722D01*
X652272Y786384D02*
X680974D01*
X652272Y762762D02*
X680974D01*
X652272D02*
Y786384D01*
X680974Y762762D02*
Y786384D01*
X666750Y772668D02*
Y776732D01*
X664718Y774700D02*
X668782D01*
X772160Y840740D02*
X779780D01*
X772160D02*
Y848360D01*
X795020Y840740D02*
Y848360D01*
X787400Y840740D02*
X795020D01*
X787400Y863600D02*
X795020D01*
Y855980D02*
Y863600D01*
X772160Y855980D02*
Y863600D01*
X779780D01*
X436880Y793750D02*
X440690D01*
X436880Y789940D02*
Y793750D01*
X449580Y789940D02*
Y793750D01*
X445770D02*
X449580D01*
X445770Y781050D02*
X449580D01*
Y784860D01*
X436880Y781050D02*
Y784860D01*
Y781050D02*
X440690D01*
X839724Y726440D02*
X854456D01*
Y713740D02*
Y726440D01*
X839724Y713740D02*
X854456D01*
X839724D02*
Y726440D01*
X845058Y720090D02*
X849122D01*
X847090Y718058D02*
Y722122D01*
X866420Y796420D02*
X901420D01*
X866420Y844420D02*
X901420D01*
X866420Y796420D02*
Y844420D01*
X901420Y796420D02*
Y844420D01*
X881888Y820420D02*
X885952D01*
X883920Y818388D02*
Y822452D01*
X866420Y777110D02*
X901420D01*
X866420Y729110D02*
X901420D01*
Y777110D01*
X866420Y729110D02*
Y777110D01*
X881888Y753110D02*
X885952D01*
X883920Y751078D02*
Y755142D01*
X654558Y712470D02*
X699262D01*
X654558Y735330D02*
X699262D01*
Y712470D02*
Y735330D01*
X654558Y712470D02*
Y735330D01*
X674878Y723900D02*
X678942D01*
X676910Y721868D02*
Y725932D01*
X654285Y749182D02*
Y755532D01*
X660635D01*
X665715D02*
X672065D01*
Y749182D02*
Y755532D01*
Y737752D02*
Y744102D01*
X665715Y737752D02*
X672065D01*
X654285D02*
X660635D01*
X654285D02*
Y744102D01*
X805688Y1021080D02*
X850392D01*
X805688Y1043940D02*
X850392D01*
Y1021080D02*
Y1043940D01*
X805688Y1021080D02*
Y1043940D01*
X826008Y1032510D02*
X830072D01*
X828040Y1030478D02*
Y1034542D01*
X805942Y1018794D02*
X822198D01*
X805942Y1010666D02*
X822198D01*
X805942D02*
Y1018794D01*
X822198Y1010666D02*
Y1018794D01*
X814070Y1012698D02*
Y1016762D01*
X812038Y1014730D02*
X816102D01*
X713740D02*
Y1021080D01*
X720090D01*
X725170D02*
X731520D01*
Y1014730D02*
Y1021080D01*
Y1003300D02*
Y1009650D01*
X725170Y1003300D02*
X731520D01*
X713740D02*
X720090D01*
X713740D02*
Y1009650D01*
X805942Y985774D02*
X822198D01*
X805942Y977646D02*
X822198D01*
X805942D02*
Y985774D01*
X822198Y977646D02*
Y985774D01*
X814070Y979678D02*
Y983742D01*
X812038Y981710D02*
X816102D01*
X726694Y897382D02*
Y913638D01*
X718566Y897382D02*
Y913638D01*
X726694D01*
X718566Y897382D02*
X726694D01*
X720598Y905510D02*
X724662D01*
X722630Y903478D02*
Y907542D01*
X812038Y971550D02*
X816102D01*
X814070Y969518D02*
Y973582D01*
X805942Y967486D02*
Y975614D01*
X822198Y967486D02*
Y975614D01*
X805942D02*
X822198D01*
X805942Y967486D02*
X822198D01*
X812038Y961390D02*
X816102D01*
X814070Y959358D02*
Y963422D01*
X805942Y957326D02*
Y965454D01*
X822198Y957326D02*
Y965454D01*
X805942D02*
X822198D01*
X805942Y957326D02*
X822198D01*
X732790Y903478D02*
Y907542D01*
X730758Y905510D02*
X734822D01*
X728726Y913638D02*
X736854D01*
X728726Y897382D02*
X736854D01*
Y913638D01*
X728726Y897382D02*
Y913638D01*
X742950Y903478D02*
Y907542D01*
X740918Y905510D02*
X744982D01*
X738886Y913638D02*
X747014D01*
X738886Y897382D02*
X747014D01*
Y913638D01*
X738886Y897382D02*
Y913638D01*
X753110Y903478D02*
Y907542D01*
X751078Y905510D02*
X755142D01*
X749046Y913638D02*
X757174D01*
X749046Y897382D02*
X757174D01*
Y913638D01*
X749046Y897382D02*
Y913638D01*
X763270Y903478D02*
Y907542D01*
X761238Y905510D02*
X765302D01*
X759206Y913638D02*
X767334D01*
X759206Y897382D02*
X767334D01*
Y913638D01*
X759206Y897382D02*
Y913638D01*
X812038Y951230D02*
X816102D01*
X814070Y949198D02*
Y953262D01*
X805942Y947166D02*
Y955294D01*
X822198Y947166D02*
Y955294D01*
X805942D02*
X822198D01*
X805942Y947166D02*
X822198D01*
X782574Y909828D02*
Y926592D01*
X774446Y909828D02*
Y926592D01*
X782574D01*
X774446Y909828D02*
X782574D01*
X778510Y916178D02*
Y920242D01*
X776478Y918210D02*
X780542D01*
X792734Y909828D02*
Y926592D01*
X784606Y909828D02*
Y926592D01*
X792734D01*
X784606Y909828D02*
X792734D01*
X788670Y916178D02*
Y920242D01*
X786638Y918210D02*
X790702D01*
X802894Y909828D02*
Y926592D01*
X794766Y909828D02*
Y926592D01*
X802894D01*
X794766Y909828D02*
X802894D01*
X798830Y916178D02*
Y920242D01*
X796798Y918210D02*
X800862D01*
X805180Y1000760D02*
Y1007110D01*
X811530D01*
X816610D02*
X822960D01*
Y1000760D02*
Y1007110D01*
Y989330D02*
Y995680D01*
X816610Y989330D02*
X822960D01*
X805180D02*
X811530D01*
X805180D02*
Y995680D01*
X820420Y911860D02*
Y942340D01*
X807720Y911860D02*
Y942340D01*
X820420D01*
X807720Y911860D02*
X820420D01*
X814070Y925068D02*
Y929132D01*
X812038Y927100D02*
X816102D01*
X794766Y928878D02*
Y945642D01*
X802894Y928878D02*
Y945642D01*
X794766Y928878D02*
X802894D01*
X794766Y945642D02*
X802894D01*
X798830Y935228D02*
Y939292D01*
X796798Y937260D02*
X800862D01*
X784606Y928878D02*
Y945642D01*
X792734Y928878D02*
Y945642D01*
X784606Y928878D02*
X792734D01*
X784606Y945642D02*
X792734D01*
X788670Y935228D02*
Y939292D01*
X786638Y937260D02*
X790702D01*
X774446Y928878D02*
Y945642D01*
X782574Y928878D02*
Y945642D01*
X774446Y928878D02*
X782574D01*
X774446Y945642D02*
X782574D01*
X778510Y935228D02*
Y939292D01*
X776478Y937260D02*
X780542D01*
X656590Y949960D02*
Y956310D01*
X662940D01*
X668020D02*
X674370D01*
Y949960D02*
Y956310D01*
Y938530D02*
Y944880D01*
X668020Y938530D02*
X674370D01*
X656590D02*
X662940D01*
X656590D02*
Y944880D01*
X681736Y954278D02*
Y971042D01*
X689864Y954278D02*
Y971042D01*
X681736Y954278D02*
X689864D01*
X681736Y971042D02*
X689864D01*
X685800Y960628D02*
Y964692D01*
X683768Y962660D02*
X687832D01*
X691896Y954278D02*
Y971042D01*
X700024Y954278D02*
Y971042D01*
X691896Y954278D02*
X700024D01*
X691896Y971042D02*
X700024D01*
X695960Y960628D02*
Y964692D01*
X693928Y962660D02*
X697992D01*
X656590Y980440D02*
Y986790D01*
X662940D01*
X668020D02*
X674370D01*
Y980440D02*
Y986790D01*
Y969010D02*
Y975360D01*
X668020Y969010D02*
X674370D01*
X656590D02*
X662940D01*
X656590D02*
Y975360D01*
X687070Y1037590D02*
Y1043940D01*
X693420D01*
X698500D02*
X704850D01*
Y1037590D02*
Y1043940D01*
Y1026160D02*
Y1032510D01*
X698500Y1026160D02*
X704850D01*
X687070D02*
X693420D01*
X687070D02*
Y1032510D01*
X676910Y991108D02*
Y1035812D01*
X654050Y991108D02*
Y1035812D01*
X676910D01*
X654050Y991108D02*
X676910D01*
X665480Y1011428D02*
Y1015492D01*
X663448Y1013460D02*
X667512D01*
X689864Y973328D02*
Y990092D01*
X681736Y973328D02*
Y990092D01*
X689864D01*
X681736Y973328D02*
X689864D01*
X685800Y979678D02*
Y983742D01*
X683768Y981710D02*
X687832D01*
X700024Y973328D02*
Y990092D01*
X691896Y973328D02*
Y990092D01*
X700024D01*
X691896Y973328D02*
X700024D01*
X695960Y979678D02*
Y983742D01*
X693928Y981710D02*
X697992D01*
X710184Y973328D02*
Y990092D01*
X702056Y973328D02*
Y990092D01*
X710184D01*
X702056Y973328D02*
X710184D01*
X706120Y979678D02*
Y983742D01*
X704088Y981710D02*
X708152D01*
X419608Y335026D02*
X436372D01*
X419608Y343154D02*
X436372D01*
Y335026D02*
Y343154D01*
X419608Y335026D02*
Y343154D01*
X425958Y339090D02*
X430022D01*
X427990Y337058D02*
Y341122D01*
X386080Y285750D02*
X416560D01*
X386080Y300990D02*
X416560D01*
Y285750D02*
Y300990D01*
X386080Y285750D02*
Y300990D01*
X399288Y293370D02*
X403352D01*
X401320Y291338D02*
Y295402D01*
X386080Y302260D02*
X416560D01*
X386080Y317500D02*
X416560D01*
Y302260D02*
Y317500D01*
X386080Y302260D02*
Y317500D01*
X399288Y309880D02*
X403352D01*
X401320Y307848D02*
Y311912D01*
X418338Y303276D02*
X435102D01*
X418338Y311404D02*
X435102D01*
Y303276D02*
Y311404D01*
X418338Y303276D02*
Y311404D01*
X424688Y307340D02*
X428752D01*
X426720Y305308D02*
Y309372D01*
X386080Y318770D02*
X416560D01*
X386080Y334010D02*
X416560D01*
Y318770D02*
Y334010D01*
X386080Y318770D02*
Y334010D01*
X399288Y326390D02*
X403352D01*
X401320Y324358D02*
Y328422D01*
X386080Y335280D02*
X416560D01*
X386080Y350520D02*
X416560D01*
Y335280D02*
Y350520D01*
X386080Y335280D02*
Y350520D01*
X399288Y342900D02*
X403352D01*
X401320Y340868D02*
Y344932D01*
X458724Y260858D02*
Y277622D01*
X450596Y260858D02*
Y277622D01*
X458724D01*
X450596Y260858D02*
X458724D01*
X454660Y267208D02*
Y271272D01*
X452628Y269240D02*
X456692D01*
X417830Y256540D02*
X448310D01*
X417830Y271780D02*
X448310D01*
Y256540D02*
Y271780D01*
X417830Y256540D02*
Y271780D01*
X431038Y264160D02*
X435102D01*
X433070Y262128D02*
Y266192D01*
X400050Y231140D02*
Y261620D01*
X415290Y231140D02*
Y261620D01*
X400050Y231140D02*
X415290D01*
X400050Y261620D02*
X415290D01*
X407670Y244348D02*
Y248412D01*
X405638Y246380D02*
X409702D01*
X273812Y380746D02*
X290068D01*
X273812Y388874D02*
X290068D01*
Y380746D02*
Y388874D01*
X273812Y380746D02*
Y388874D01*
X281940Y382778D02*
Y386842D01*
X279908Y384810D02*
X283972D01*
X260350Y427990D02*
Y434340D01*
X266700D01*
X271780D02*
X278130D01*
Y427990D02*
Y434340D01*
Y416560D02*
Y422910D01*
X271780Y416560D02*
X278130D01*
X260350D02*
X266700D01*
X260350D02*
Y422910D01*
Y402590D02*
Y408940D01*
X266700D01*
X271780D02*
X278130D01*
Y402590D02*
Y408940D01*
Y391160D02*
Y397510D01*
X271780Y391160D02*
X278130D01*
X260350D02*
X266700D01*
X260350D02*
Y397510D01*
X163830Y427990D02*
Y434340D01*
X170180D01*
X175260D02*
X181610D01*
Y427990D02*
Y434340D01*
Y416560D02*
Y422910D01*
X175260Y416560D02*
X181610D01*
X163830D02*
X170180D01*
X163830D02*
Y422910D01*
Y402590D02*
Y408940D01*
X170180D01*
X175260D02*
X181610D01*
Y402590D02*
Y408940D01*
Y391160D02*
Y397510D01*
X175260Y391160D02*
X181610D01*
X163830D02*
X170180D01*
X163830D02*
Y397510D01*
X332740Y200660D02*
Y231140D01*
X347980Y200660D02*
Y231140D01*
X332740Y200660D02*
X347980D01*
X332740Y231140D02*
X347980D01*
X340360Y213868D02*
Y217932D01*
X338328Y215900D02*
X342392D01*
X314960Y200660D02*
Y231140D01*
X330200Y200660D02*
Y231140D01*
X314960Y200660D02*
X330200D01*
X314960Y231140D02*
X330200D01*
X322580Y213868D02*
Y217932D01*
X320548Y215900D02*
X324612D01*
X344678Y365506D02*
X361442D01*
X344678Y373634D02*
X361442D01*
Y365506D02*
Y373634D01*
X344678Y365506D02*
Y373634D01*
X351028Y369570D02*
X355092D01*
X353060Y367538D02*
Y371602D01*
X344678Y355346D02*
X361442D01*
X344678Y363474D02*
X361442D01*
Y355346D02*
Y363474D01*
X344678Y355346D02*
Y363474D01*
X351028Y359410D02*
X355092D01*
X353060Y357378D02*
Y361442D01*
X344678Y249936D02*
X361442D01*
X344678Y258064D02*
X361442D01*
Y249936D02*
Y258064D01*
X344678Y249936D02*
Y258064D01*
X351028Y254000D02*
X355092D01*
X353060Y251968D02*
Y256032D01*
X344678Y239776D02*
X361442D01*
X344678Y247904D02*
X361442D01*
Y239776D02*
Y247904D01*
X344678Y239776D02*
Y247904D01*
X351028Y243840D02*
X355092D01*
X353060Y241808D02*
Y245872D01*
X295148Y375666D02*
X311912D01*
X295148Y383794D02*
X311912D01*
Y375666D02*
Y383794D01*
X295148Y375666D02*
Y383794D01*
X301498Y379730D02*
X305562D01*
X303530Y377698D02*
Y381762D01*
X295148Y219456D02*
X311912D01*
X295148Y227584D02*
X311912D01*
Y219456D02*
Y227584D01*
X295148Y219456D02*
Y227584D01*
X301498Y223520D02*
X305562D01*
X303530Y221488D02*
Y225552D01*
X295148Y229616D02*
X311912D01*
X295148Y237744D02*
X311912D01*
Y229616D02*
Y237744D01*
X295148Y229616D02*
Y237744D01*
X301498Y233680D02*
X305562D01*
X303530Y231648D02*
Y235712D01*
X295148Y239776D02*
X311912D01*
X295148Y247904D02*
X311912D01*
Y239776D02*
Y247904D01*
X295148Y239776D02*
Y247904D01*
X301498Y243840D02*
X305562D01*
X303530Y241808D02*
Y245872D01*
X295148Y249936D02*
X311912D01*
X295148Y258064D02*
X311912D01*
Y249936D02*
Y258064D01*
X295148Y249936D02*
Y258064D01*
X301498Y254000D02*
X305562D01*
X303530Y251968D02*
Y256032D01*
X293624Y284988D02*
Y301752D01*
X285496Y284988D02*
Y301752D01*
X293624D01*
X285496Y284988D02*
X293624D01*
X289560Y291338D02*
Y295402D01*
X287528Y293370D02*
X291592D01*
X283464Y284988D02*
Y301752D01*
X275336Y284988D02*
Y301752D01*
X283464D01*
X275336Y284988D02*
X283464D01*
X279400Y291338D02*
Y295402D01*
X277368Y293370D02*
X281432D01*
X273304Y284988D02*
Y301752D01*
X265176Y284988D02*
Y301752D01*
X273304D01*
X265176Y284988D02*
X273304D01*
X269240Y291338D02*
Y295402D01*
X267208Y293370D02*
X271272D01*
X295148Y365506D02*
X311912D01*
X295148Y373634D02*
X311912D01*
Y365506D02*
Y373634D01*
X295148Y365506D02*
Y373634D01*
X301498Y369570D02*
X305562D01*
X303530Y367538D02*
Y371602D01*
X265176Y304038D02*
Y320802D01*
X273304Y304038D02*
Y320802D01*
X265176Y304038D02*
X273304D01*
X265176Y320802D02*
X273304D01*
X269240Y310388D02*
Y314452D01*
X267208Y312420D02*
X271272D01*
X275336Y304038D02*
Y320802D01*
X283464Y304038D02*
Y320802D01*
X275336Y304038D02*
X283464D01*
X275336Y320802D02*
X283464D01*
X279400Y310388D02*
Y314452D01*
X277368Y312420D02*
X281432D01*
X295148Y355346D02*
X311912D01*
X295148Y363474D02*
X311912D01*
Y355346D02*
Y363474D01*
X295148Y355346D02*
Y363474D01*
X301498Y359410D02*
X305562D01*
X303530Y357378D02*
Y361442D01*
X295148Y345186D02*
X311912D01*
X295148Y353314D02*
X311912D01*
Y345186D02*
Y353314D01*
X295148Y345186D02*
Y353314D01*
X301498Y349250D02*
X305562D01*
X303530Y347218D02*
Y351282D01*
X285496Y304038D02*
Y320802D01*
X293624Y304038D02*
Y320802D01*
X285496Y304038D02*
X293624D01*
X285496Y320802D02*
X293624D01*
X289560Y310388D02*
Y314452D01*
X287528Y312420D02*
X291592D01*
X243078Y311404D02*
X259842D01*
X243078Y303276D02*
X259842D01*
X243078D02*
Y311404D01*
X259842Y303276D02*
Y311404D01*
X249428Y307340D02*
X253492D01*
X251460Y305308D02*
Y309372D01*
X243332Y301244D02*
X259588D01*
X243332Y293116D02*
X259588D01*
X243332D02*
Y301244D01*
X259588Y293116D02*
Y301244D01*
X251460Y295148D02*
Y299212D01*
X249428Y297180D02*
X253492D01*
X208280Y238760D02*
Y242570D01*
X212090D01*
X208280Y229870D02*
X212090D01*
X208280D02*
Y233680D01*
X220980Y229870D02*
Y233680D01*
X217170Y229870D02*
X220980D01*
X217170Y242570D02*
X220980D01*
Y238760D02*
Y242570D01*
X189738Y342900D02*
X193802D01*
X191770Y340868D02*
Y344932D01*
X199898Y338836D02*
Y346964D01*
X183642Y338836D02*
Y346964D01*
Y338836D02*
X199898D01*
X183642Y346964D02*
X199898D01*
X203708Y347980D02*
X207772D01*
X205740Y345948D02*
Y350012D01*
X201676Y356362D02*
X209804D01*
X201676Y339598D02*
X209804D01*
Y356362D01*
X201676Y339598D02*
Y356362D01*
X189738Y353060D02*
X193802D01*
X191770Y351028D02*
Y355092D01*
X199898Y348996D02*
Y357124D01*
X183642Y348996D02*
Y357124D01*
Y348996D02*
X199898D01*
X183642Y357124D02*
X199898D01*
X219710Y351028D02*
Y355092D01*
X217678Y353060D02*
X221742D01*
X227330Y349250D02*
Y356870D01*
X212090Y349250D02*
Y356870D01*
Y349250D02*
X227330D01*
X212090Y356870D02*
X227330D01*
X203708Y255270D02*
X207772D01*
X205740Y253238D02*
Y257302D01*
X201676Y246888D02*
X209804D01*
X201676Y263652D02*
X209804D01*
X201676Y246888D02*
Y263652D01*
X209804Y246888D02*
Y263652D01*
X189738Y260350D02*
X193802D01*
X191770Y258318D02*
Y262382D01*
X199898Y256286D02*
Y264414D01*
X183642Y256286D02*
Y264414D01*
Y256286D02*
X199898D01*
X183642Y264414D02*
X199898D01*
X189738Y250190D02*
X193802D01*
X191770Y248158D02*
Y252222D01*
X199898Y246126D02*
Y254254D01*
X183642Y246126D02*
Y254254D01*
Y246126D02*
X199898D01*
X183642Y254254D02*
X199898D01*
X219710Y248158D02*
Y252222D01*
X217678Y250190D02*
X221742D01*
X227330Y246380D02*
Y254000D01*
X212090Y246380D02*
Y254000D01*
Y246380D02*
X227330D01*
X212090Y254000D02*
X227330D01*
X219710Y258318D02*
Y262382D01*
X217678Y260350D02*
X221742D01*
X227330Y256540D02*
Y264160D01*
X212090Y256540D02*
Y264160D01*
Y256540D02*
X227330D01*
X212090Y264160D02*
X227330D01*
X219710Y340868D02*
Y344932D01*
X217678Y342900D02*
X221742D01*
X227330Y339090D02*
Y346710D01*
X212090Y339090D02*
Y346710D01*
Y339090D02*
X227330D01*
X212090Y346710D02*
X227330D01*
X127508Y331470D02*
X131572D01*
X129540Y329438D02*
Y333502D01*
X125476Y323088D02*
X133604D01*
X125476Y339852D02*
X133604D01*
X125476Y323088D02*
Y339852D01*
X133604Y323088D02*
Y339852D01*
X117348Y331470D02*
X121412D01*
X119380Y329438D02*
Y333502D01*
X115316Y323088D02*
X123444D01*
X115316Y339852D02*
X123444D01*
X115316Y323088D02*
Y339852D01*
X123444Y323088D02*
Y339852D01*
X106680Y367230D02*
Y371294D01*
X104648Y369262D02*
X108712D01*
X102616Y361134D02*
X110744D01*
X102616Y377390D02*
X110744D01*
X102616Y361134D02*
Y377390D01*
X110744Y361134D02*
Y377390D01*
X106950Y226568D02*
Y230632D01*
X104918Y228600D02*
X108982D01*
X102886Y220472D02*
X111014D01*
X102886Y236728D02*
X111014D01*
X102886Y220472D02*
Y236728D01*
X111014Y220472D02*
Y236728D01*
X48260Y302260D02*
X55880D01*
X48260Y294640D02*
Y302260D01*
X71120Y294640D02*
Y302260D01*
X63500D02*
X71120D01*
X63500Y279400D02*
X71120D01*
Y287020D01*
X48260Y279400D02*
Y287020D01*
Y279400D02*
X55880D01*
X48260Y441960D02*
X55880D01*
X48260Y434340D02*
Y441960D01*
X71120Y434340D02*
Y441960D01*
X63500D02*
X71120D01*
X63500Y419100D02*
X71120D01*
Y426720D01*
X48260Y419100D02*
Y426720D01*
Y419100D02*
X55880D01*
X492755Y471482D02*
X496819D01*
X494787Y469450D02*
Y473515D01*
X454147Y500692D02*
X535427D01*
X454147Y442272D02*
X535427D01*
X454147D02*
Y500692D01*
X535427Y442272D02*
Y500692D01*
X220980Y331470D02*
Y335280D01*
X217170D02*
X220980D01*
X217170Y322580D02*
X220980D01*
Y326390D01*
X208280Y322580D02*
Y326390D01*
Y322580D02*
X212090D01*
X208280Y335280D02*
X212090D01*
X208280Y331470D02*
Y335280D01*
X226060Y369570D02*
Y373380D01*
X222250D02*
X226060D01*
X222250Y360680D02*
X226060D01*
Y364490D01*
X213360Y360680D02*
Y364490D01*
Y360680D02*
X217170D01*
X213360Y373380D02*
X217170D01*
X213360Y369570D02*
Y373380D01*
X208280Y280670D02*
X212090D01*
X208280Y276860D02*
Y280670D01*
X220980Y276860D02*
Y280670D01*
X217170D02*
X220980D01*
X217170Y267970D02*
X220980D01*
Y271780D01*
X208280Y267970D02*
Y271780D01*
Y267970D02*
X212090D01*
X197104Y287528D02*
Y304292D01*
X188976Y287528D02*
Y304292D01*
X197104D01*
X188976Y287528D02*
X197104D01*
X193040Y293878D02*
Y297942D01*
X191008Y295910D02*
X195072D01*
X186944Y287528D02*
Y304292D01*
X178816Y287528D02*
Y304292D01*
X186944D01*
X178816Y287528D02*
X186944D01*
X182880Y293878D02*
Y297942D01*
X180848Y295910D02*
X184912D01*
X150114Y339468D02*
Y356232D01*
X141986D02*
X141986Y339468D01*
X141986Y356232D02*
X150114D01*
X141986Y339468D02*
X150114D01*
X146050Y345818D02*
Y349882D01*
X144018Y347850D02*
X148082Y347850D01*
X178308Y276606D02*
X195072D01*
X178308Y284734D02*
X195072D01*
Y276606D02*
Y284734D01*
X178308Y276606D02*
Y284734D01*
X184658Y280670D02*
X188722D01*
X186690Y278638D02*
Y282702D01*
X12700Y462280D02*
X20320D01*
X12700D02*
Y469900D01*
X35560Y462280D02*
Y469900D01*
X27940Y462280D02*
X35560D01*
X27940Y485140D02*
X35560D01*
Y477520D02*
Y485140D01*
X12700Y477520D02*
Y485140D01*
X20320D01*
X242570Y840740D02*
Y847090D01*
X248920D01*
X254000D02*
X260350D01*
Y840740D02*
Y847090D01*
Y829310D02*
Y835660D01*
X254000Y829310D02*
X260350D01*
X242570D02*
X248920D01*
X242570D02*
Y835660D01*
X191770Y859790D02*
Y866140D01*
X198120D01*
X203200D02*
X209550D01*
Y859790D02*
Y866140D01*
Y848360D02*
Y854710D01*
X203200Y848360D02*
X209550D01*
X191770D02*
X198120D01*
X191770D02*
Y854710D01*
X259080Y873760D02*
Y880110D01*
X265430D01*
X270510D02*
X276860D01*
Y873760D02*
Y880110D01*
Y862330D02*
Y868680D01*
X270510Y862330D02*
X276860D01*
X259080D02*
X265430D01*
X259080D02*
Y868680D01*
X279400Y873760D02*
Y880110D01*
X285750D01*
X290830D02*
X297180D01*
Y873760D02*
Y880110D01*
Y862330D02*
Y868680D01*
X290830Y862330D02*
X297180D01*
X279400D02*
X285750D01*
X279400D02*
Y868680D01*
X378460Y829310D02*
Y835660D01*
X384810D01*
X389890D02*
X396240D01*
Y829310D02*
Y835660D01*
Y817880D02*
Y824230D01*
X389890Y817880D02*
X396240D01*
X378460D02*
X384810D01*
X378460D02*
Y824230D01*
X266700Y562610D02*
X270510D01*
X266700Y558800D02*
Y562610D01*
X279400Y558800D02*
Y562610D01*
X275590D02*
X279400D01*
X275590Y549910D02*
X279400D01*
Y553720D01*
X266700Y549910D02*
Y553720D01*
Y549910D02*
X270510D01*
X266700Y584200D02*
X270510D01*
X266700Y580390D02*
Y584200D01*
X279400Y580390D02*
Y584200D01*
X275590D02*
X279400D01*
X275590Y571500D02*
X279400D01*
Y575310D01*
X266700Y571500D02*
Y575310D01*
Y571500D02*
X270510D01*
X266700Y605790D02*
X270510D01*
X266700Y601980D02*
Y605790D01*
X279400Y601980D02*
Y605790D01*
X275590D02*
X279400D01*
X275590Y593090D02*
X279400D01*
Y596900D01*
X266700Y593090D02*
Y596900D01*
Y593090D02*
X270510D01*
X258064Y744728D02*
Y761492D01*
X249936Y744728D02*
Y761492D01*
X258064D01*
X249936Y744728D02*
X258064D01*
X254000Y751078D02*
Y755142D01*
X251968Y753110D02*
X256032D01*
X187960Y641350D02*
X195580D01*
X187960D02*
Y648970D01*
X210820Y641350D02*
Y648970D01*
X203200Y641350D02*
X210820D01*
X203200Y664210D02*
X210820D01*
Y656590D02*
Y664210D01*
X187960Y656590D02*
Y664210D01*
X195580D01*
X232156Y794893D02*
Y811657D01*
X240284Y794893D02*
Y811657D01*
X232156Y794893D02*
X240284D01*
X232156Y811657D02*
X240284D01*
X236220Y801243D02*
Y805307D01*
X234188Y803275D02*
X238252D01*
X215900Y787400D02*
X219710D01*
X215900Y783590D02*
Y787400D01*
X228600Y783590D02*
Y787400D01*
X224790D02*
X228600D01*
X224790Y774700D02*
X228600D01*
Y778510D01*
X215900Y774700D02*
Y778510D01*
Y774700D02*
X219710D01*
X191262Y788416D02*
X207518D01*
X191262Y796544D02*
X207518D01*
Y788416D02*
Y796544D01*
X191262Y788416D02*
Y796544D01*
X199390Y790448D02*
Y794512D01*
X197358Y792480D02*
X201422D01*
X232156Y775208D02*
Y791972D01*
X240284Y775208D02*
Y791972D01*
X232156Y775208D02*
X240284D01*
X232156Y791972D02*
X240284D01*
X236220Y781558D02*
Y785622D01*
X234188Y783590D02*
X238252D01*
X215900Y831850D02*
X219710D01*
X215900Y828040D02*
Y831850D01*
X228600Y828040D02*
Y831850D01*
X224790D02*
X228600D01*
X224790Y819150D02*
X228600D01*
Y822960D01*
X215900Y819150D02*
Y822960D01*
Y819150D02*
X219710D01*
X216662Y764286D02*
X232918D01*
X216662Y772414D02*
X232918D01*
Y764286D02*
Y772414D01*
X216662Y764286D02*
Y772414D01*
X224790Y766318D02*
Y770382D01*
X222758Y768350D02*
X226822D01*
X191262Y710946D02*
X207518D01*
X191262Y719074D02*
X207518D01*
Y710946D02*
Y719074D01*
X191262Y710946D02*
Y719074D01*
X199390Y712978D02*
Y717042D01*
X197358Y715010D02*
X201422D01*
X216662Y733806D02*
X232918D01*
X216662Y741934D02*
X232918D01*
Y733806D02*
Y741934D01*
X216662Y733806D02*
Y741934D01*
X224790Y735838D02*
Y739902D01*
X222758Y737870D02*
X226822D01*
X215900Y683260D02*
X219710D01*
X215900Y679450D02*
Y683260D01*
X228600Y679450D02*
Y683260D01*
X224790D02*
X228600D01*
X224790Y670560D02*
X228600D01*
Y674370D01*
X215900Y670560D02*
Y674370D01*
Y670560D02*
X219710D01*
X215900Y730250D02*
X219710D01*
X215900Y726440D02*
Y730250D01*
X228600Y726440D02*
Y730250D01*
X224790D02*
X228600D01*
X224790Y717550D02*
X228600D01*
Y721360D01*
X215900Y717550D02*
Y721360D01*
Y717550D02*
X219710D01*
X232156Y707898D02*
Y724662D01*
X240284Y707898D02*
Y724662D01*
X232156Y707898D02*
X240284D01*
X232156Y724662D02*
X240284D01*
X236220Y714248D02*
Y718312D01*
X234188Y716280D02*
X238252D01*
X232076Y688848D02*
Y705612D01*
X240204Y688848D02*
Y705612D01*
X232076Y688848D02*
X240204D01*
X232076Y705612D02*
X240204D01*
X236140Y695198D02*
Y699262D01*
X234108Y697230D02*
X238172D01*
X173990Y711200D02*
X189230D01*
X173990Y718820D02*
X189230D01*
Y711200D02*
Y718820D01*
X173990Y711200D02*
Y718820D01*
X179578Y715010D02*
X183642D01*
X181610Y712978D02*
Y717042D01*
X198120Y734060D02*
X213360D01*
X198120Y741680D02*
X213360D01*
Y734060D02*
Y741680D01*
X198120Y734060D02*
Y741680D01*
X203708Y737870D02*
X207772D01*
X205740Y735838D02*
Y739902D01*
X383794Y739648D02*
Y756412D01*
X375666Y739648D02*
Y756412D01*
X383794D01*
X375666Y739648D02*
X383794D01*
X379730Y745998D02*
Y750062D01*
X377698Y748030D02*
X381762D01*
X373634Y739648D02*
Y756412D01*
X365506Y739648D02*
Y756412D01*
X373634D01*
X365506Y739648D02*
X373634D01*
X369570Y745998D02*
Y750062D01*
X367538Y748030D02*
X371602D01*
X1125728Y55880D02*
X1129792D01*
X1127760Y53848D02*
Y57912D01*
X1123696Y64262D02*
X1131824D01*
X1123696Y47498D02*
X1131824D01*
Y64262D01*
X1123696Y47498D02*
Y64262D01*
X1112520Y64008D02*
Y68072D01*
X1110488Y66040D02*
X1114552D01*
X1108456Y74168D02*
X1116584D01*
X1108456Y57912D02*
X1116584D01*
Y74168D01*
X1108456Y57912D02*
Y74168D01*
X1029208Y66040D02*
X1033272D01*
X1031240Y64008D02*
Y68072D01*
X1027176Y74422D02*
X1035304D01*
X1027176Y57658D02*
X1035304D01*
Y74422D01*
X1027176Y57658D02*
Y74422D01*
X369824Y791718D02*
Y808482D01*
X361696Y791718D02*
Y808482D01*
X369824D01*
X361696Y791718D02*
X369824D01*
X365760Y798068D02*
Y802132D01*
X363728Y800100D02*
X367792D01*
X354584Y791718D02*
Y808482D01*
X346456Y791718D02*
Y808482D01*
X354584D01*
X346456Y791718D02*
X354584D01*
X350520Y798068D02*
Y802132D01*
X348488Y800100D02*
X352552D01*
X342138Y646430D02*
X386842D01*
X342138Y623570D02*
X386842D01*
X342138D02*
Y646430D01*
X386842Y623570D02*
Y646430D01*
X362458Y635000D02*
X366522D01*
X364490Y632968D02*
Y637032D01*
X347218Y666496D02*
X363982D01*
X347218Y674624D02*
X363982D01*
Y666496D02*
Y674624D01*
X347218Y666496D02*
Y674624D01*
X353568Y670560D02*
X357632D01*
X355600Y668528D02*
Y672592D01*
X347218Y676656D02*
X363982D01*
X347218Y684784D02*
X363982D01*
Y676656D02*
Y684784D01*
X347218Y676656D02*
Y684784D01*
X353568Y680720D02*
X357632D01*
X355600Y678688D02*
Y682752D01*
X293878Y676656D02*
X310642D01*
X293878Y684784D02*
X310642D01*
Y676656D02*
Y684784D01*
X293878Y676656D02*
Y684784D01*
X300228Y680720D02*
X304292D01*
X302260Y678688D02*
Y682752D01*
X293878Y666496D02*
X310642D01*
X293878Y674624D02*
X310642D01*
Y666496D02*
Y674624D01*
X293878Y666496D02*
Y674624D01*
X300228Y670560D02*
X304292D01*
X302260Y668528D02*
Y672592D01*
X295148Y623570D02*
X339852D01*
X295148Y646430D02*
X339852D01*
Y623570D02*
Y646430D01*
X295148Y623570D02*
Y646430D01*
X315468Y635000D02*
X319532D01*
X317500Y632968D02*
Y637032D01*
X248158Y646430D02*
X292862D01*
X248158Y623570D02*
X292862D01*
X248158D02*
Y646430D01*
X292862Y623570D02*
Y646430D01*
X268478Y635000D02*
X272542D01*
X270510Y632968D02*
Y637032D01*
X262128Y684784D02*
X278892D01*
X262128Y676656D02*
X278892D01*
X262128D02*
Y684784D01*
X278892Y676656D02*
Y684784D01*
X268478Y680720D02*
X272542D01*
X270510Y678688D02*
Y682752D01*
X262128Y674624D02*
X278892D01*
X262128Y666496D02*
X278892D01*
X262128D02*
Y674624D01*
X278892Y666496D02*
Y674624D01*
X268478Y670560D02*
X272542D01*
X270510Y668528D02*
Y672592D01*
X262128Y809244D02*
X278892D01*
X262128Y801116D02*
X278892D01*
X262128D02*
Y809244D01*
X278892Y801116D02*
Y809244D01*
X268478Y805180D02*
X272542D01*
X270510Y803148D02*
Y807212D01*
X262128Y799084D02*
X278892D01*
X262128Y790956D02*
X278892D01*
X262128D02*
Y799084D01*
X278892Y790956D02*
Y799084D01*
X268478Y795020D02*
X272542D01*
X270510Y792988D02*
Y797052D01*
X173990Y788670D02*
X189230D01*
X173990Y796290D02*
X189230D01*
Y788670D02*
Y796290D01*
X173990Y788670D02*
Y796290D01*
X179578Y792480D02*
X183642D01*
X181610Y790448D02*
Y794512D01*
X198120Y764540D02*
X213360D01*
X198120Y772160D02*
X213360D01*
Y764540D02*
Y772160D01*
X198120Y764540D02*
Y772160D01*
X203708Y768350D02*
X207772D01*
X205740Y766318D02*
Y770382D01*
X539750Y377190D02*
X547370D01*
X539750Y369570D02*
Y377190D01*
X562610Y369570D02*
Y377190D01*
X554990D02*
X562610D01*
X554990Y354330D02*
X562610D01*
Y361950D01*
X539750Y354330D02*
Y361950D01*
Y354330D02*
X547370D01*
X539750Y64770D02*
Y71120D01*
Y64770D02*
X546100D01*
X551180D02*
X557530D01*
Y71120D01*
Y76200D02*
Y82550D01*
X551180D02*
X557530D01*
X539750D02*
X546100D01*
X539750Y76200D02*
Y82550D01*
X496570Y64770D02*
Y71120D01*
Y64770D02*
X502920D01*
X508000D02*
X514350D01*
Y71120D01*
Y76200D02*
Y82550D01*
X508000D02*
X514350D01*
X496570D02*
X502920D01*
X496570Y76200D02*
Y82550D01*
X419100Y407670D02*
X426720D01*
X419100Y400050D02*
Y407670D01*
X441960Y400050D02*
Y407670D01*
X434340D02*
X441960D01*
X434340Y384810D02*
X441960D01*
Y392430D01*
X419100Y384810D02*
Y392430D01*
Y384810D02*
X426720D01*
X506730Y438150D02*
X514350D01*
X506730Y430530D02*
Y438150D01*
X529590Y430530D02*
Y438150D01*
X521970D02*
X529590D01*
X521970Y415290D02*
X529590D01*
Y422910D01*
X506730Y415290D02*
Y422910D01*
Y415290D02*
X514350D01*
X615950Y412750D02*
X623570D01*
X615950Y405130D02*
Y412750D01*
X638810Y405130D02*
Y412750D01*
X631190D02*
X638810D01*
X631190Y389890D02*
X638810D01*
Y397510D01*
X615950Y389890D02*
Y397510D01*
Y389890D02*
X623570D01*
X364490Y441960D02*
Y500380D01*
X445770Y441960D02*
Y500380D01*
X364490D02*
X445770D01*
X364490Y441960D02*
X445770D01*
X405130Y469138D02*
Y473202D01*
X403098Y471170D02*
X407162D01*
X406525Y514883D02*
Y518947D01*
X404493Y516915D02*
X408557D01*
X402461Y508787D02*
X410589D01*
X402461Y525043D02*
X410589D01*
X402461Y508787D02*
Y525043D01*
X410589Y508787D02*
Y525043D01*
X417068Y516890D02*
X421132D01*
X419100Y514858D02*
Y518922D01*
X415036Y508508D02*
X423164D01*
X415036Y525272D02*
X423164D01*
X415036Y508508D02*
Y525272D01*
X423164Y508508D02*
Y525272D01*
X434848Y530860D02*
X438912D01*
X436880Y528828D02*
Y532892D01*
X425450Y508508D02*
X448310D01*
X425450Y553212D02*
X448310D01*
X425450Y508508D02*
Y553212D01*
X448310Y508508D02*
Y553212D01*
X428498Y427981D02*
X432562D01*
X430530Y425949D02*
Y430013D01*
X438658Y423917D02*
Y432045D01*
X422402Y423917D02*
Y432045D01*
Y423917D02*
X438658D01*
X422402Y432045D02*
X438658D01*
X460248Y530860D02*
X464312D01*
X462280Y528828D02*
Y532892D01*
X450850Y508508D02*
X473710D01*
X450850Y553212D02*
X473710D01*
X450850Y508508D02*
Y553212D01*
X473710Y508508D02*
Y553212D01*
X482600Y586740D02*
Y645160D01*
X401320Y586740D02*
Y645160D01*
Y586740D02*
X482600D01*
X401320Y645160D02*
X482600D01*
X441960Y613918D02*
Y617982D01*
X439928Y615950D02*
X443992D01*
X538097Y465432D02*
X596517D01*
X538097Y384152D02*
X596517D01*
Y465432D01*
X538097Y384152D02*
Y465432D01*
X565275Y424792D02*
X569339D01*
X567307Y422760D02*
Y426824D01*
X608838Y466090D02*
X612902D01*
X610870Y464058D02*
Y468122D01*
X599440Y443738D02*
X622300D01*
X599440Y488442D02*
X622300D01*
X599440Y443738D02*
Y488442D01*
X622300Y443738D02*
Y488442D01*
X626618Y461010D02*
X630682D01*
X628650Y458978D02*
Y463042D01*
X624586Y452628D02*
X632714D01*
X624586Y469392D02*
X632714D01*
X624586Y452628D02*
Y469392D01*
X632714Y452628D02*
Y469392D01*
X626618Y480060D02*
X630682D01*
X628650Y478028D02*
Y482092D01*
X624586Y488442D02*
X632714D01*
X624586Y471678D02*
X632714D01*
Y488442D01*
X624586Y471678D02*
Y488442D01*
X661670Y419608D02*
Y423672D01*
X659638Y421640D02*
X663702D01*
X653288Y417576D02*
Y425704D01*
X670052Y417576D02*
Y425704D01*
X653288D02*
X670052D01*
X653288Y417576D02*
X670052D01*
X661670Y429768D02*
Y433832D01*
X659638Y431800D02*
X663702D01*
X653288Y427736D02*
Y435864D01*
X670052Y427736D02*
Y435864D01*
X653288D02*
X670052D01*
X653288Y427736D02*
X670052D01*
X478028Y516890D02*
X482092D01*
X480060Y514858D02*
Y518922D01*
X475996Y508508D02*
X484124D01*
X475996Y525272D02*
X484124D01*
X475996Y508508D02*
X475996Y525272D01*
X484124D02*
X484124Y508508D01*
X490220Y514858D02*
Y518922D01*
X488188Y516890D02*
X492252D01*
X486156Y508762D02*
X494284D01*
X486156Y525018D02*
X494284D01*
X486156Y508762D02*
Y525018D01*
X494284Y508762D02*
Y525018D01*
X500380Y514858D02*
Y518922D01*
X498348Y516890D02*
X502412D01*
X496316Y508762D02*
X504444D01*
X496316Y525018D02*
X504444D01*
X496316Y508762D02*
Y525018D01*
X504444Y508762D02*
Y525018D01*
X518795Y556768D02*
Y560832D01*
X516763Y558800D02*
X520827D01*
X510413Y554736D02*
Y562864D01*
X527177Y554736D02*
Y562864D01*
X510413D02*
X527177D01*
X510413Y554736D02*
X527177D01*
X538097Y479402D02*
X596517D01*
X538097Y560682D02*
X596517D01*
X538097Y479402D02*
Y560682D01*
X596517Y479402D02*
Y560682D01*
X565275Y520042D02*
X569339D01*
X567307Y518010D02*
Y522075D01*
X618998Y514350D02*
X623062D01*
X621030Y512318D02*
Y516382D01*
X609600Y491998D02*
X632460D01*
X609600Y536702D02*
X632460D01*
X609600Y491998D02*
Y536702D01*
X632460Y491998D02*
Y536702D01*
X648970Y507238D02*
Y511302D01*
X646938Y509270D02*
X651002D01*
X657352Y505206D02*
Y513334D01*
X640588Y505206D02*
Y513334D01*
Y505206D02*
X657352D01*
X640588Y513334D02*
X657352D01*
X660908Y523240D02*
X664972D01*
X662940Y521208D02*
Y525272D01*
X658876Y514858D02*
X667004D01*
X658876Y531622D02*
X667004D01*
X658876Y514858D02*
Y531622D01*
X667004Y514858D02*
Y531622D01*
X762000Y612648D02*
Y616712D01*
X759968Y614680D02*
X764032D01*
X784352Y603250D02*
Y626110D01*
X739648Y603250D02*
Y626110D01*
Y603250D02*
X784352D01*
X739648Y626110D02*
X784352D01*
X716280Y557530D02*
X774700D01*
X716280Y476250D02*
X774700D01*
Y557530D01*
X716280Y476250D02*
Y557530D01*
X743458Y516890D02*
X747522D01*
X745490Y514858D02*
Y518922D01*
X463010Y736854D02*
X470630D01*
X463010Y729234D02*
Y736854D01*
X485870Y729234D02*
Y736854D01*
X478250D02*
X485870D01*
X478250Y713994D02*
X485870D01*
Y721614D01*
X463010Y713994D02*
Y721614D01*
Y713994D02*
X470630D01*
X557530Y734060D02*
X563880D01*
X557530Y727710D02*
Y734060D01*
Y716280D02*
Y722630D01*
Y716280D02*
X563880D01*
X568960D02*
X575310D01*
Y722630D01*
Y727710D02*
Y734060D01*
X568960D02*
X575310D01*
X482600Y647700D02*
Y706120D01*
X401320Y647700D02*
Y706120D01*
Y647700D02*
X482600D01*
X401320Y706120D02*
X482600D01*
X441960Y674878D02*
Y678942D01*
X439928Y676910D02*
X443992D01*
X535178Y721360D02*
X539242D01*
X537210Y719328D02*
Y723392D01*
X529082Y717296D02*
Y725424D01*
X545338Y717296D02*
Y725424D01*
X529082D02*
X545338D01*
X529082Y717296D02*
X545338D01*
X770890Y649478D02*
Y653542D01*
X768858Y651510D02*
X772922D01*
X811530Y631190D02*
Y672084D01*
X730250Y631190D02*
Y672084D01*
Y631190D02*
X811530D01*
X730250Y672084D02*
X811530D01*
X197358Y754126D02*
X214122D01*
X197358Y762254D02*
X214122D01*
Y754126D02*
Y762254D01*
X197358Y754126D02*
Y762254D01*
X203708Y758190D02*
X207772D01*
X205740Y756158D02*
Y760222D01*
X197358Y743966D02*
X214122D01*
X197358Y752094D02*
X214122D01*
Y743966D02*
Y752094D01*
X197358Y743966D02*
Y752094D01*
X203708Y748030D02*
X207772D01*
X205740Y745998D02*
Y750062D01*
X153416Y702818D02*
Y719582D01*
X161544Y702818D02*
Y719582D01*
X153416Y702818D02*
X161544D01*
X153416Y719582D02*
X161544D01*
X157480Y709168D02*
Y713232D01*
X155448Y711200D02*
X159512D01*
X163576Y702818D02*
Y719582D01*
X171704Y702818D02*
Y719582D01*
X163576Y702818D02*
X171704D01*
X163576Y719582D02*
X171704D01*
X167640Y709168D02*
Y713232D01*
X165608Y711200D02*
X169672D01*
X122936Y725932D02*
Y742188D01*
X131064Y725932D02*
Y742188D01*
X122936Y725932D02*
X131064D01*
X122936Y742188D02*
X131064D01*
X124968Y734060D02*
X129032D01*
X127000Y732028D02*
Y736092D01*
X171704Y787908D02*
Y804672D01*
X163576Y787908D02*
Y804672D01*
X171704D01*
X163576Y787908D02*
X171704D01*
X167640Y794258D02*
Y798322D01*
X165608Y796290D02*
X169672D01*
X161544Y787908D02*
Y804672D01*
X153416Y787908D02*
Y804672D01*
X161544D01*
X153416Y787908D02*
X161544D01*
X157480Y794258D02*
Y798322D01*
X155448Y796290D02*
X159512D01*
X110998Y762254D02*
X127762D01*
X110998Y754126D02*
X127762D01*
X110998D02*
Y762254D01*
X127762Y754126D02*
Y762254D01*
X117348Y758190D02*
X121412D01*
X119380Y756158D02*
Y760222D01*
X110998Y752094D02*
X127762D01*
X110998Y743966D02*
X127762D01*
X110998D02*
Y752094D01*
X127762Y743966D02*
Y752094D01*
X117348Y748030D02*
X121412D01*
X119380Y745998D02*
Y750062D01*
X68580Y767080D02*
X99060D01*
X68580Y782320D02*
X99060D01*
Y767080D02*
Y782320D01*
X68580Y767080D02*
Y782320D01*
X81788Y774700D02*
X85852D01*
X83820Y772668D02*
Y776732D01*
X111760Y717550D02*
X142240D01*
X111760Y702310D02*
X142240D01*
X111760D02*
Y717550D01*
X142240Y702310D02*
Y717550D01*
X124968Y709930D02*
X129032D01*
X127000Y707898D02*
Y711962D01*
X112776Y725932D02*
Y742188D01*
X120904Y725932D02*
Y742188D01*
X112776Y725932D02*
X120904D01*
X112776Y742188D02*
X120904D01*
X114808Y734060D02*
X118872D01*
X116840Y732028D02*
Y736092D01*
X154940Y666496D02*
X185420D01*
X154940Y651256D02*
X185420D01*
X154940D02*
Y666496D01*
X185420Y651256D02*
Y666496D01*
X168148Y658876D02*
X172212D01*
X170180Y656844D02*
Y660908D01*
X154432Y669036D02*
X170688D01*
X154432Y677164D02*
X170688D01*
Y669036D02*
Y677164D01*
X154432Y669036D02*
Y677164D01*
X162560Y671068D02*
Y675132D01*
X160528Y673100D02*
X164592D01*
X154432Y679196D02*
X170688D01*
X154432Y687324D02*
X170688D01*
Y679196D02*
Y687324D01*
X154432Y679196D02*
Y687324D01*
X162560Y681228D02*
Y685292D01*
X160528Y683260D02*
X164592D01*
X112776Y764032D02*
Y780288D01*
X120904Y764032D02*
Y780288D01*
X112776Y764032D02*
X120904D01*
X112776Y780288D02*
X120904D01*
X114808Y772160D02*
X118872D01*
X116840Y770128D02*
Y774192D01*
X122936Y764032D02*
Y780288D01*
X131064Y764032D02*
Y780288D01*
X122936Y764032D02*
X131064D01*
X122936Y780288D02*
X131064D01*
X124968Y772160D02*
X129032D01*
X127000Y770128D02*
Y774192D01*
X135382Y802894D02*
X151638D01*
X135382Y794766D02*
X151638D01*
X135382D02*
Y802894D01*
X151638Y794766D02*
Y802894D01*
X143510Y796798D02*
Y800862D01*
X141478Y798830D02*
X145542D01*
X135382Y792734D02*
X151638D01*
X135382Y784606D02*
X151638D01*
X135382D02*
Y792734D01*
X151638Y784606D02*
Y792734D01*
X143510Y786638D02*
Y790702D01*
X141478Y788670D02*
X145542D01*
X140970Y834390D02*
Y864870D01*
X156210Y834390D02*
Y864870D01*
X140970Y834390D02*
X156210D01*
X140970Y864870D02*
X156210D01*
X148590Y847598D02*
Y851662D01*
X146558Y849630D02*
X150622D01*
X102616Y654812D02*
Y671068D01*
X110744Y654812D02*
Y671068D01*
X102616Y654812D02*
X110744D01*
X102616Y671068D02*
X110744D01*
X104648Y662940D02*
X108712D01*
X106680Y660908D02*
Y664972D01*
X102616Y805942D02*
Y822198D01*
X110744Y805942D02*
Y822198D01*
X102616Y805942D02*
X110744D01*
X102616Y822198D02*
X110744D01*
X104648Y814070D02*
X108712D01*
X106680Y812038D02*
Y816102D01*
X115570Y829310D02*
X123190D01*
X115570D02*
Y836930D01*
X138430Y829310D02*
Y836930D01*
X130810Y829310D02*
X138430D01*
X130810Y852170D02*
X138430D01*
Y844550D02*
Y852170D01*
X115570Y844550D02*
Y852170D01*
X123190D01*
X115570Y666750D02*
X123190D01*
X115570D02*
Y674370D01*
X138430Y666750D02*
Y674370D01*
X130810Y666750D02*
X138430D01*
X130810Y689610D02*
X138430D01*
Y681990D02*
Y689610D01*
X115570Y681990D02*
Y689610D01*
X123190D01*
X22860Y741680D02*
X30480D01*
X22860D02*
Y749300D01*
X45720Y741680D02*
Y749300D01*
X38100Y741680D02*
X45720D01*
X38100Y764540D02*
X45720D01*
Y756920D02*
Y764540D01*
X22860Y756920D02*
Y764540D01*
X30480D01*
X1865376Y998982D02*
Y1015238D01*
X1873504Y998982D02*
Y1015238D01*
X1865376Y998982D02*
X1873504D01*
X1865376Y1015238D02*
X1873504D01*
X1867408Y1007110D02*
X1871472D01*
X1869440Y1005078D02*
Y1009142D01*
X1833626Y995426D02*
X1862328D01*
X1833626Y1019048D02*
X1862328D01*
Y995426D02*
Y1019048D01*
X1833626Y995426D02*
Y1019048D01*
X1847850Y1005078D02*
Y1009142D01*
X1845818Y1007110D02*
X1849882D01*
X1853692Y975106D02*
X1869948D01*
X1853692Y983234D02*
X1869948D01*
Y975106D02*
Y983234D01*
X1853692Y975106D02*
Y983234D01*
X1861820Y977138D02*
Y981202D01*
X1859788Y979170D02*
X1863852D01*
X1853692Y964946D02*
X1869948D01*
X1853692Y973074D02*
X1869948D01*
Y964946D02*
Y973074D01*
X1853692Y964946D02*
Y973074D01*
X1861820Y966978D02*
Y971042D01*
X1859788Y969010D02*
X1863852D01*
X1362012Y254316D02*
X1378268D01*
X1362012Y262444D02*
X1378268D01*
Y254316D02*
Y262444D01*
X1362012Y254316D02*
Y262444D01*
X1370140Y256348D02*
Y260412D01*
X1368108Y258380D02*
X1372172D01*
X1362012Y244156D02*
X1378268D01*
X1362012Y252284D02*
X1378268D01*
Y244156D02*
Y252284D01*
X1362012Y244156D02*
Y252284D01*
X1370140Y246188D02*
Y250252D01*
X1368108Y248220D02*
X1372172D01*
X1252792Y214184D02*
X1269048D01*
X1252792Y206056D02*
X1269048D01*
X1252792D02*
Y214184D01*
X1269048Y206056D02*
Y214184D01*
X1260920Y208088D02*
Y212152D01*
X1258888Y210120D02*
X1262952D01*
X1252538Y238314D02*
X1269302D01*
X1252538Y230186D02*
X1269302D01*
X1252538D02*
Y238314D01*
X1269302Y230186D02*
Y238314D01*
X1258888Y234250D02*
X1262952D01*
X1260920Y232218D02*
Y236282D01*
X1326706Y260158D02*
Y276922D01*
X1334834Y260158D02*
Y276922D01*
X1326706Y260158D02*
X1334834D01*
X1326706Y276922D02*
X1334834D01*
X1330770Y266508D02*
Y270572D01*
X1328738Y268540D02*
X1332802D01*
X1337628Y273620D02*
X1382332D01*
X1337628Y296480D02*
X1382332D01*
Y273620D02*
Y296480D01*
X1337628Y273620D02*
Y296480D01*
X1357948Y285050D02*
X1362012D01*
X1359980Y283018D02*
Y287082D01*
X1334834Y293178D02*
Y309942D01*
X1326706Y293178D02*
Y309942D01*
X1334834D01*
X1326706Y293178D02*
X1334834D01*
X1330770Y299528D02*
Y303592D01*
X1328738Y301560D02*
X1332802D01*
X1326960Y342708D02*
Y387412D01*
X1304100Y342708D02*
Y387412D01*
X1326960D01*
X1304100Y342708D02*
X1326960D01*
X1315530Y363028D02*
Y367092D01*
X1313498Y365060D02*
X1317562D01*
X1289368Y339914D02*
X1306132D01*
X1289368Y331786D02*
X1306132D01*
X1289368D02*
Y339914D01*
X1306132Y331786D02*
Y339914D01*
X1295718Y335850D02*
X1299782D01*
X1297750Y333818D02*
Y337882D01*
X1270318Y331786D02*
X1287082D01*
X1270318Y339914D02*
X1287082D01*
Y331786D02*
Y339914D01*
X1270318Y331786D02*
Y339914D01*
X1276668Y335850D02*
X1280732D01*
X1278700Y333818D02*
Y337882D01*
X1249998Y339914D02*
X1266762D01*
X1249998Y331786D02*
X1266762D01*
X1249998D02*
Y339914D01*
X1266762Y331786D02*
Y339914D01*
X1256348Y335850D02*
X1260412D01*
X1258380Y333818D02*
Y337882D01*
X1274890Y283018D02*
Y287082D01*
X1272858Y285050D02*
X1276922D01*
X1229424Y244537D02*
X1320356D01*
X1229424D02*
Y325563D01*
X1320356D01*
Y244537D02*
Y325563D01*
X1229424Y248537D02*
X1233424Y244537D01*
X1223074Y269048D02*
Y285812D01*
X1214946Y269048D02*
Y285812D01*
X1223074D01*
X1214946Y269048D02*
X1223074D01*
X1219010Y275398D02*
Y279462D01*
X1216978Y277430D02*
X1221042D01*
X256417Y509905D02*
X264037D01*
X256417D02*
Y517525D01*
X279277Y509905D02*
Y517525D01*
X271657Y509905D02*
X279277D01*
X271657Y532765D02*
X279277D01*
Y525145D02*
Y532765D01*
X256417Y525145D02*
Y532765D01*
X264037D01*
X448310Y866140D02*
X455930D01*
X448310D02*
Y873760D01*
X471170Y866140D02*
Y873760D01*
X463550Y866140D02*
X471170D01*
X463550Y889000D02*
X471170D01*
Y881380D02*
Y889000D01*
X448310Y881380D02*
Y889000D01*
X455930D01*
X605790Y779780D02*
Y810260D01*
X621030Y779780D02*
Y810260D01*
X605790Y779780D02*
X621030D01*
X605790Y810260D02*
X621030D01*
X613410Y792988D02*
Y797052D01*
X611378Y795020D02*
X615442D01*
X605790Y869950D02*
Y900430D01*
X621030Y869950D02*
Y900430D01*
X605790Y869950D02*
X621030D01*
X605790Y900430D02*
X621030D01*
X613410Y883158D02*
Y887222D01*
X611378Y885190D02*
X615442D01*
X2805684Y489712D02*
Y505968D01*
X2797556Y489712D02*
Y505968D01*
X2805684D01*
X2797556Y489712D02*
X2805684D01*
X2799588Y497840D02*
X2803652D01*
X2801620Y495808D02*
Y499872D01*
X2810510Y516890D02*
Y549910D01*
X2792730Y516890D02*
Y549910D01*
X2810510D01*
X2792730Y516890D02*
X2810510D01*
X2799588Y533400D02*
X2803652D01*
X2801620Y531368D02*
Y535432D01*
X2554986Y296418D02*
Y313182D01*
X2563114Y296418D02*
Y313182D01*
X2554986Y296418D02*
X2563114D01*
X2554986Y313182D02*
X2563114D01*
X2559050Y302768D02*
Y306832D01*
X2557018Y304800D02*
X2561082D01*
X2501646Y296418D02*
Y313182D01*
X2509774Y296418D02*
Y313182D01*
X2501646Y296418D02*
X2509774D01*
X2501646Y313182D02*
X2509774D01*
X2505710Y302768D02*
Y306832D01*
X2503678Y304800D02*
X2507742D01*
X2850821Y489782D02*
Y506038D01*
X2842693Y489782D02*
Y506038D01*
X2850821D01*
X2842693Y489782D02*
X2850821D01*
X2844725Y497910D02*
X2848788D01*
X2846757Y495878D02*
Y499942D01*
X2855647Y517260D02*
Y550280D01*
X2837867Y517260D02*
Y550280D01*
X2855647D01*
X2837867Y517260D02*
X2855647D01*
X2844725Y533770D02*
X2848788D01*
X2846757Y531738D02*
Y535802D01*
X2354580Y497840D02*
Y504190D01*
X2360930D01*
X2366010D02*
X2372360D01*
Y497840D02*
Y504190D01*
Y486410D02*
Y492760D01*
X2366010Y486410D02*
X2372360D01*
X2354580D02*
X2360930D01*
X2354580D02*
Y492760D01*
X2455418Y497840D02*
X2459482D01*
X2457450Y495808D02*
Y499872D01*
X2453386Y506222D02*
X2461514D01*
X2453386Y489458D02*
X2461514D01*
Y506222D01*
X2453386Y489458D02*
Y506222D01*
X2334768Y463550D02*
X2338832D01*
X2336800Y461518D02*
Y465582D01*
X2332736Y455168D02*
X2340864D01*
X2332736Y471932D02*
X2340864D01*
X2332736Y455168D02*
Y471932D01*
X2340864Y455168D02*
Y471932D01*
X2393646Y484010D02*
X2434286D01*
Y534810D01*
X2413966Y506108D02*
Y512712D01*
X2410664Y509410D02*
X2417268D01*
X2393646Y484010D02*
Y534810D01*
X2434286D01*
X2581910Y508000D02*
X2589530D01*
X2581910D02*
Y515620D01*
X2604770Y508000D02*
Y515620D01*
X2597150Y508000D02*
X2604770D01*
X2597150Y530860D02*
X2604770D01*
Y523240D02*
Y530860D01*
X2581910Y523240D02*
Y530860D01*
X2589530D01*
X2342642Y470154D02*
X2358898D01*
X2342642Y462026D02*
X2358898D01*
X2342642D02*
Y470154D01*
X2358898Y462026D02*
Y470154D01*
X2350770Y464058D02*
Y468122D01*
X2348738Y466090D02*
X2352802D01*
X2342642Y472186D02*
X2358898D01*
X2342642Y480314D02*
X2358898D01*
Y472186D02*
Y480314D01*
X2342642Y472186D02*
Y480314D01*
X2350770Y474218D02*
Y478282D01*
X2348738Y476250D02*
X2352802D01*
X2359038Y429514D02*
Y442214D01*
X2338718D02*
X2359038D01*
X2338718Y429514D02*
X2359038D01*
X2338718D02*
Y442214D01*
X2707920Y594230D02*
X2742920D01*
X2707920Y546230D02*
X2742920D01*
Y594230D01*
X2707920Y546230D02*
Y594230D01*
X2723388Y570230D02*
X2727452D01*
X2725420Y568198D02*
Y572262D01*
X2167890Y353060D02*
X2175510D01*
X2167890D02*
Y360680D01*
X2190750Y353060D02*
Y360680D01*
X2183130Y353060D02*
X2190750D01*
X2183130Y375920D02*
X2190750D01*
Y368300D02*
Y375920D01*
X2167890Y368300D02*
Y375920D01*
X2175510D01*
X2404110Y1005078D02*
Y1011682D01*
X2400808Y1008380D02*
X2407412D01*
X2340610Y1042924D02*
X2467610D01*
Y973836D02*
Y1042924D01*
X2340610Y973836D02*
X2467610D01*
X2340610D02*
Y1042924D01*
X2514160Y985128D02*
Y989192D01*
X2512128Y987160D02*
X2516192D01*
X2505270Y970650D02*
X2523050D01*
X2505270Y1003670D02*
X2523050D01*
X2505270Y970650D02*
Y1003670D01*
X2523050Y970650D02*
Y1003670D01*
X2518664Y943102D02*
Y959358D01*
X2510536Y943102D02*
Y959358D01*
X2518664D01*
X2510536Y943102D02*
X2518664D01*
X2512568Y951230D02*
X2516632D01*
X2514600Y949198D02*
Y953262D01*
X398018Y817626D02*
X414782D01*
X398018Y825754D02*
X414782D01*
Y817626D02*
Y825754D01*
X398018Y817626D02*
Y825754D01*
X404368Y821690D02*
X408432D01*
X406400Y819658D02*
Y823722D01*
X398018Y827786D02*
X414782D01*
X398018Y835914D02*
X414782D01*
Y827786D02*
Y835914D01*
X398018Y827786D02*
Y835914D01*
X404368Y831850D02*
X408432D01*
X406400Y829818D02*
Y833882D01*
X355092Y815086D02*
X371348D01*
X355092Y823214D02*
X371348D01*
Y815086D02*
Y823214D01*
X355092Y815086D02*
Y823214D01*
X363220Y817118D02*
Y821182D01*
X361188Y819150D02*
X365252D01*
X355092Y827786D02*
X371348D01*
X355092Y835914D02*
X371348D01*
Y827786D02*
Y835914D01*
X355092Y827786D02*
Y835914D01*
X363220Y829818D02*
Y833882D01*
X361188Y831850D02*
X365252D01*
X337820Y1021080D02*
Y1027430D01*
X344170D01*
X349250D02*
X355600D01*
Y1021080D02*
Y1027430D01*
Y1009650D02*
Y1016000D01*
X349250Y1009650D02*
X355600D01*
X337820D02*
X344170D01*
X337820D02*
Y1016000D01*
X359156Y961130D02*
Y977386D01*
X367284Y961130D02*
Y977386D01*
X359156Y961130D02*
X367284D01*
X359156Y977386D02*
X367284D01*
X361188Y969258D02*
X365252D01*
X363220Y967226D02*
Y971290D01*
X346456Y960882D02*
Y977138D01*
X354584Y960882D02*
Y977138D01*
X346456Y960882D02*
X354584D01*
X346456Y977138D02*
X354584D01*
X348488Y969010D02*
X352552D01*
X350520Y966978D02*
Y971042D01*
X414020Y982979D02*
Y1027683D01*
X391160Y982979D02*
Y1027683D01*
X414020D01*
X391160Y982979D02*
X414020D01*
X402590Y1003299D02*
Y1007363D01*
X400558Y1005331D02*
X404622D01*
X386588Y979424D02*
X403352D01*
X386588Y971296D02*
X403352D01*
X386588D02*
Y979424D01*
X403352Y971296D02*
Y979424D01*
X392938Y975360D02*
X397002D01*
X394970Y973328D02*
Y977392D01*
X386588Y969264D02*
X403352D01*
X386588Y961136D02*
X403352D01*
X386588D02*
Y969264D01*
X403352Y961136D02*
Y969264D01*
X392938Y965200D02*
X397002D01*
X394970Y963168D02*
Y967232D01*
X158750Y935990D02*
X165100D01*
Y929640D02*
Y935990D01*
Y918210D02*
Y924560D01*
X158750Y918210D02*
X165100D01*
X147320D02*
X153670D01*
X147320D02*
Y924560D01*
Y929640D02*
Y935990D01*
X153670D01*
X108966Y929132D02*
Y945388D01*
X117094Y929132D02*
Y945388D01*
X108966Y929132D02*
X117094D01*
X108966Y945388D02*
X117094D01*
X110998Y937260D02*
X115062D01*
X113030Y935228D02*
Y939292D01*
X71774Y941910D02*
X104794D01*
X71774Y924130D02*
X104794D01*
X71774D02*
Y941910D01*
X104794Y924130D02*
Y941910D01*
X88284Y930988D02*
Y935052D01*
X86251Y933020D02*
X90316D01*
X115570Y1012190D02*
X123190D01*
X115570D02*
Y1019810D01*
X138430Y1012190D02*
Y1019810D01*
X130810Y1012190D02*
X138430D01*
X130810Y1035050D02*
X138430D01*
Y1027430D02*
Y1035050D01*
X115570Y1027430D02*
Y1035050D01*
X123190D01*
X278130Y975868D02*
Y1020572D01*
X255270Y975868D02*
Y1020572D01*
X278130D01*
X255270Y975868D02*
X278130D01*
X266700Y996188D02*
Y1000252D01*
X264668Y998220D02*
X268732D01*
X205740Y937514D02*
Y952246D01*
X193040Y937514D02*
X205740D01*
X193040D02*
Y952246D01*
X205740D01*
X199390Y942848D02*
Y946912D01*
X197358Y944880D02*
X201422D01*
X199390Y1006348D02*
Y1012952D01*
X196088Y1009650D02*
X202692D01*
X151072Y959784D02*
X247572D01*
X151072D02*
Y979784D01*
X153322D01*
Y1059784D01*
X245322D01*
Y979784D02*
Y1059784D01*
Y979784D02*
X247572D01*
Y959784D02*
Y979784D01*
X2593086Y775462D02*
Y791718D01*
X2601214Y775462D02*
Y791718D01*
X2593086Y775462D02*
X2601214D01*
X2593086Y791718D02*
X2601214D01*
X2595118Y783590D02*
X2599182D01*
X2597150Y781558D02*
Y785622D01*
X2593086Y794512D02*
Y810768D01*
X2601214Y794512D02*
Y810768D01*
X2593086Y794512D02*
X2601214D01*
X2593086Y810768D02*
X2601214D01*
X2595118Y802640D02*
X2599182D01*
X2597150Y800608D02*
Y804672D01*
X2609342Y770890D02*
Y815594D01*
X2632202Y770890D02*
Y815594D01*
X2609342Y770890D02*
X2632202D01*
X2609342Y815594D02*
X2632202D01*
X2620772Y791210D02*
Y795274D01*
X2618740Y793242D02*
X2622804D01*
X632460Y308610D02*
X636270D01*
X632460Y304800D02*
Y308610D01*
X645160Y304800D02*
Y308610D01*
X641350D02*
X645160D01*
X641350Y295910D02*
X645160D01*
Y299720D01*
X632460Y295910D02*
Y299720D01*
Y295910D02*
X636270D01*
X605790Y308610D02*
X609600D01*
X605790Y304800D02*
Y308610D01*
X618490Y304800D02*
Y308610D01*
X614680D02*
X618490D01*
X614680Y295910D02*
X618490D01*
Y299720D01*
X605790Y295910D02*
Y299720D01*
Y295910D02*
X609600D01*
X579120Y308610D02*
X582930D01*
X579120Y304800D02*
Y308610D01*
X591820Y304800D02*
Y308610D01*
X588010D02*
X591820D01*
X588010Y295910D02*
X591820D01*
Y299720D01*
X579120Y295910D02*
Y299720D01*
Y295910D02*
X582930D01*
X505460Y284988D02*
Y289052D01*
X503428Y287020D02*
X507492D01*
X513842Y282956D02*
Y291084D01*
X497078Y282956D02*
Y291084D01*
Y282956D02*
X513842D01*
X497078Y291084D02*
X513842D01*
X481584Y303022D02*
Y319278D01*
X473456Y303022D02*
Y319278D01*
X481584D01*
X473456Y303022D02*
X481584D01*
X475488Y311150D02*
X479552D01*
X477520Y309118D02*
Y313182D01*
X465582Y293116D02*
X481838D01*
X465582Y301244D02*
X481838D01*
Y293116D02*
Y301244D01*
X465582Y293116D02*
Y301244D01*
X473710Y295148D02*
Y299212D01*
X471678Y297180D02*
X475742D01*
X523240Y304800D02*
Y311150D01*
X529590D01*
X534670D02*
X541020D01*
Y304800D02*
Y311150D01*
Y293370D02*
Y299720D01*
X534670Y293370D02*
X541020D01*
X523240D02*
X529590D01*
X523240D02*
Y299720D01*
X499110Y304800D02*
Y311150D01*
X505460D01*
X510540D02*
X516890D01*
Y304800D02*
Y311150D01*
Y293370D02*
Y299720D01*
X510540Y293370D02*
X516890D01*
X499110D02*
X505460D01*
X499110D02*
Y299720D01*
X500380Y232918D02*
X500380Y236982D01*
X498348Y234950D02*
X502412Y234950D01*
X464820Y256950D02*
X464820Y212950D01*
X535940D02*
X535940Y256950D01*
X464820Y212950D02*
X535940D01*
X464820Y256950D02*
X535940D01*
X406654Y150622D02*
Y166878D01*
X398526Y150622D02*
Y166878D01*
X406654D01*
X398526Y150622D02*
X406654D01*
X400558Y158750D02*
X404622D01*
X402590Y156718D02*
Y160782D01*
X408686Y150622D02*
Y166878D01*
X416814Y150622D02*
Y166878D01*
X408686Y150622D02*
X416814D01*
X408686Y166878D02*
X416814D01*
X410718Y158750D02*
X414782D01*
X412750Y156718D02*
Y160782D01*
X593090Y189738D02*
Y193802D01*
X591058Y191770D02*
X595122D01*
X584708Y187706D02*
Y195834D01*
X601472Y187706D02*
Y195834D01*
X584708D02*
X601472D01*
X584708Y187706D02*
X601472D01*
X593090Y276098D02*
Y280162D01*
X591058Y278130D02*
X595122D01*
X584708Y274066D02*
Y282194D01*
X601472Y274066D02*
Y282194D01*
X584708D02*
X601472D01*
X584708Y274066D02*
X601472D01*
X506730Y180848D02*
Y184912D01*
X504698Y182880D02*
X508762D01*
X515112Y178816D02*
Y186944D01*
X498348Y178816D02*
Y186944D01*
Y178816D02*
X515112D01*
X498348Y186944D02*
X515112D01*
X473710Y284988D02*
Y289052D01*
X471678Y287020D02*
X475742D01*
X482092Y282956D02*
Y291084D01*
X465328Y282956D02*
Y291084D01*
Y282956D02*
X482092D01*
X465328Y291084D02*
X482092D01*
X849630Y171958D02*
Y216662D01*
X872490Y171958D02*
Y216662D01*
X849630Y171958D02*
X872490D01*
X849630Y216662D02*
X872490D01*
X861060Y192278D02*
Y196342D01*
X859028Y194310D02*
X863092D01*
X806196Y126238D02*
Y143002D01*
X814324Y126238D02*
Y143002D01*
X806196Y126238D02*
X814324D01*
X806196Y143002D02*
X814324D01*
X810260Y132588D02*
Y136652D01*
X808228Y134620D02*
X812292D01*
X816356Y126238D02*
Y143002D01*
X824484Y126238D02*
Y143002D01*
X816356Y126238D02*
X824484D01*
X816356Y143002D02*
X824484D01*
X820420Y132588D02*
Y136652D01*
X818388Y134620D02*
X822452D01*
X826516Y126238D02*
Y143002D01*
X834644Y126238D02*
Y143002D01*
X826516Y126238D02*
X834644D01*
X826516Y143002D02*
X834644D01*
X830580Y132588D02*
Y136652D01*
X828548Y134620D02*
X832612D01*
X806196Y194818D02*
Y211582D01*
X814324Y194818D02*
Y211582D01*
X806196Y194818D02*
X814324D01*
X806196Y211582D02*
X814324D01*
X810260Y201168D02*
Y205232D01*
X808228Y203200D02*
X812292D01*
X816356Y194818D02*
Y211582D01*
X824484Y194818D02*
Y211582D01*
X816356Y194818D02*
X824484D01*
X816356Y211582D02*
X824484D01*
X820420Y201168D02*
Y205232D01*
X818388Y203200D02*
X822452D01*
X816356Y175768D02*
Y192532D01*
X824484Y175768D02*
Y192532D01*
X816356Y175768D02*
X824484D01*
X816356Y192532D02*
X824484D01*
X820420Y182118D02*
Y186182D01*
X818388Y184150D02*
X822452D01*
X826516Y194818D02*
Y211582D01*
X834644Y194818D02*
Y211582D01*
X826516Y194818D02*
X834644D01*
X826516Y211582D02*
X834644D01*
X830580Y201168D02*
Y205232D01*
X828548Y203200D02*
X832612D01*
X826516Y175768D02*
Y192532D01*
X834644Y175768D02*
Y192532D01*
X826516Y175768D02*
X834644D01*
X826516Y192532D02*
X834644D01*
X830580Y182118D02*
Y186182D01*
X828548Y184150D02*
X832612D01*
X837946Y161696D02*
Y177952D01*
X846074Y161696D02*
Y177952D01*
X837946Y161696D02*
X846074D01*
X837946Y177952D02*
X846074D01*
X839978Y169824D02*
X844042D01*
X842010Y167792D02*
Y171856D01*
X806196Y175768D02*
Y192532D01*
X814324Y175768D02*
Y192532D01*
X806196Y175768D02*
X814324D01*
X806196Y192532D02*
X814324D01*
X810260Y182118D02*
Y186182D01*
X808228Y184150D02*
X812292D01*
X781050Y88138D02*
Y132842D01*
X803910Y88138D02*
Y132842D01*
X781050Y88138D02*
X803910D01*
X781050Y132842D02*
X803910D01*
X792480Y108458D02*
Y112522D01*
X790448Y110490D02*
X794512D01*
X704596Y126238D02*
Y143002D01*
X712724Y126238D02*
Y143002D01*
X704596Y126238D02*
X712724D01*
X704596Y143002D02*
X712724D01*
X708660Y132588D02*
Y136652D01*
X706628Y134620D02*
X710692D01*
X694436Y175768D02*
Y192532D01*
X702564Y175768D02*
Y192532D01*
X694436Y175768D02*
X702564D01*
X694436Y192532D02*
X702564D01*
X698500Y182118D02*
Y186182D01*
X696468Y184150D02*
X700532D01*
X704596Y175768D02*
Y192532D01*
X712724Y175768D02*
Y192532D01*
X704596Y175768D02*
X712724D01*
X704596Y192532D02*
X712724D01*
X708660Y182118D02*
Y186182D01*
X706628Y184150D02*
X710692D01*
X684276Y175768D02*
Y192532D01*
X692404Y175768D02*
Y192532D01*
X684276Y175768D02*
X692404D01*
X684276Y192532D02*
X692404D01*
X688340Y182118D02*
Y186182D01*
X686308Y184150D02*
X690372D01*
X715010Y88138D02*
Y132842D01*
X737870Y88138D02*
Y132842D01*
X715010Y88138D02*
X737870D01*
X715010Y132842D02*
X737870D01*
X726440Y108458D02*
Y112522D01*
X724408Y110490D02*
X728472D01*
X684276Y126238D02*
Y143002D01*
X692404Y126238D02*
Y143002D01*
X684276Y126238D02*
X692404D01*
X684276Y143002D02*
X692404D01*
X688340Y132588D02*
Y136652D01*
X686308Y134620D02*
X690372D01*
X694436Y126238D02*
Y143002D01*
X702564Y126238D02*
Y143002D01*
X694436Y126238D02*
X702564D01*
X694436Y143002D02*
X702564D01*
X698500Y132588D02*
Y136652D01*
X696468Y134620D02*
X700532D01*
X656590Y174498D02*
Y219202D01*
X679450Y174498D02*
Y219202D01*
X656590Y174498D02*
X679450D01*
X656590Y219202D02*
X679450D01*
X668020Y194818D02*
Y198882D01*
X665988Y196850D02*
X670052D01*
X704596Y194818D02*
Y211582D01*
X712724Y194818D02*
Y211582D01*
X704596Y194818D02*
X712724D01*
X704596Y211582D02*
X712724D01*
X708660Y201168D02*
Y205232D01*
X706628Y203200D02*
X710692D01*
X694436Y194818D02*
Y211582D01*
X702564Y194818D02*
Y211582D01*
X694436Y194818D02*
X702564D01*
X694436Y211582D02*
X702564D01*
X698500Y201168D02*
Y205232D01*
X696468Y203200D02*
X700532D01*
X684276Y194818D02*
Y211582D01*
X692404Y194818D02*
Y211582D01*
X684276Y194818D02*
X692404D01*
X684276Y211582D02*
X692404D01*
X688340Y201168D02*
Y205232D01*
X686308Y203200D02*
X690372D01*
X783590Y55880D02*
Y62230D01*
X789940D01*
X795020D02*
X801370D01*
Y55880D02*
Y62230D01*
Y44450D02*
Y50800D01*
X795020Y44450D02*
X801370D01*
X783590D02*
X789940D01*
X783590D02*
Y50800D01*
X717550Y55880D02*
Y62230D01*
X723900D01*
X728980D02*
X735330D01*
Y55880D02*
Y62230D01*
Y44450D02*
Y50800D01*
X728980Y44450D02*
X735330D01*
X717550D02*
X723900D01*
X717550D02*
Y50800D01*
X887730Y283430D02*
X895350D01*
X887730D02*
Y291050D01*
X910590Y283430D02*
Y291050D01*
X902970Y283430D02*
X910590D01*
X902970Y306290D02*
X910590D01*
Y298670D02*
Y306290D01*
X887730Y298670D02*
Y306290D01*
X895350D01*
X2090420Y337820D02*
X2131060D01*
Y375920D01*
X2107438Y356870D02*
X2114042D01*
X2110740Y353568D02*
Y360172D01*
X2090420Y337820D02*
Y375920D01*
X2131060D01*
X600202Y52324D02*
X616458D01*
X600202Y60452D02*
X616458D01*
Y52324D02*
Y60452D01*
X600202Y52324D02*
Y60452D01*
X608330Y54356D02*
Y58420D01*
X606298Y56388D02*
X610362D01*
X386810Y113542D02*
X394430D01*
Y105922D02*
Y113542D01*
X371570Y105922D02*
Y113542D01*
X379190D01*
X371570Y90682D02*
X379190D01*
X371570D02*
Y98302D01*
X394430Y90682D02*
Y98302D01*
X386810Y90682D02*
X394430D01*
X324866Y80518D02*
Y97282D01*
X332994Y80518D02*
Y97282D01*
X324866Y80518D02*
X332994D01*
X324866Y97282D02*
X332994D01*
X328930Y86868D02*
Y90932D01*
X326898Y88900D02*
X330962D01*
X332994Y58928D02*
Y75692D01*
X324866Y58928D02*
Y75692D01*
X332994D01*
X324866Y58928D02*
X332994D01*
X328930Y65278D02*
Y69342D01*
X326898Y67310D02*
X330962D01*
X419608Y48514D02*
X436372D01*
X419608Y40386D02*
X436372D01*
X419608D02*
Y48514D01*
X436372Y40386D02*
Y48514D01*
X425958Y44450D02*
X430022D01*
X427990Y42418D02*
Y46482D01*
X359410Y30988D02*
Y75692D01*
X336550Y30988D02*
Y75692D01*
X359410D01*
X336550Y30988D02*
X359410D01*
X347980Y51308D02*
Y55372D01*
X345948Y53340D02*
X350012D01*
X336570Y79756D02*
Y124460D01*
X359430Y79756D02*
Y124460D01*
X336570Y79756D02*
X359430D01*
X336570Y124460D02*
X359430D01*
X348000Y100076D02*
Y104140D01*
X345968Y102108D02*
X350032D01*
X406654Y91948D02*
Y108712D01*
X398526Y91948D02*
Y108712D01*
X406654D01*
X398526Y91948D02*
X406654D01*
X402590Y98298D02*
Y102362D01*
X400558Y100330D02*
X404622D01*
X640334Y121158D02*
Y137922D01*
X632206Y121158D02*
Y137922D01*
X640334D01*
X632206Y121158D02*
X640334D01*
X636270Y127508D02*
Y131572D01*
X634238Y129540D02*
X638302D01*
X631444Y84328D02*
Y101092D01*
X623316Y84328D02*
Y101092D01*
X631444D01*
X623316Y84328D02*
X631444D01*
X627380Y90678D02*
Y94742D01*
X625348Y92710D02*
X629412D01*
X236220Y106680D02*
X243840D01*
X236220D02*
Y114300D01*
X259080Y106680D02*
Y114300D01*
X251460Y106680D02*
X259080D01*
X251460Y129540D02*
X259080D01*
Y121920D02*
Y129540D01*
X236220Y121920D02*
Y129540D01*
X243840D01*
X235077Y102108D02*
X251333D01*
X235077Y93980D02*
X251333D01*
X235077D02*
Y102108D01*
X251333Y93980D02*
Y102108D01*
X243205Y96012D02*
Y100076D01*
X241173Y98044D02*
X245237D01*
X235077Y62738D02*
X251333D01*
X235077Y54610D02*
X251333D01*
X235077D02*
Y62738D01*
X251333Y54610D02*
Y62738D01*
X243205Y56642D02*
Y60706D01*
X241173Y58674D02*
X245237D01*
X236220Y26670D02*
X243840D01*
X236220D02*
Y34290D01*
X259080Y26670D02*
Y34290D01*
X251460Y26670D02*
X259080D01*
X251460Y49530D02*
X259080D01*
Y41910D02*
Y49530D01*
X236220Y41910D02*
Y49530D01*
X243840D01*
X196215Y106934D02*
X229235D01*
X196215Y89154D02*
X229235D01*
X196215D02*
Y106934D01*
X229235Y89154D02*
Y106934D01*
X212725Y96012D02*
Y100076D01*
X210693Y98044D02*
X214757D01*
X196215Y67593D02*
X229235D01*
X196215Y49813D02*
X229235D01*
X196215D02*
Y67593D01*
X229235Y49813D02*
Y67593D01*
X212725Y56671D02*
Y60735D01*
X210693Y58703D02*
X214757D01*
X469392Y42164D02*
X498094D01*
X469392Y18542D02*
X498094D01*
X469392D02*
Y42164D01*
X498094Y18542D02*
Y42164D01*
X483870Y28448D02*
Y32512D01*
X481838Y30480D02*
X485902D01*
X410210Y76200D02*
Y82550D01*
X416560D01*
X421640D02*
X427990D01*
Y76200D02*
Y82550D01*
Y64770D02*
Y71120D01*
X421640Y64770D02*
X427990D01*
X410210D02*
X416560D01*
X410210D02*
Y71120D01*
X561086Y18796D02*
X589788D01*
X561086Y42418D02*
X589788D01*
Y18796D02*
Y42418D01*
X561086Y18796D02*
Y42418D01*
X575310Y28448D02*
Y32512D01*
X573278Y30480D02*
X577342D01*
X530352Y42164D02*
X559054D01*
X530352Y18542D02*
X559054D01*
X530352D02*
Y42164D01*
X559054Y18542D02*
Y42164D01*
X544830Y28448D02*
Y32512D01*
X542798Y30480D02*
X546862D01*
X500126Y18796D02*
X528828D01*
X500126Y42418D02*
X528828D01*
Y18796D02*
Y42418D01*
X500126Y18796D02*
Y42418D01*
X514350Y28448D02*
Y32512D01*
X512318Y30480D02*
X516382D01*
X453390Y76200D02*
Y82550D01*
X459740D01*
X464820D02*
X471170D01*
Y76200D02*
Y82550D01*
Y64770D02*
Y71120D01*
X464820Y64770D02*
X471170D01*
X453390D02*
X459740D01*
X453390D02*
Y71120D01*
X2523396Y367157D02*
Y383413D01*
X2531524Y367157D02*
Y383413D01*
X2523396Y367157D02*
X2531524D01*
X2523396Y383413D02*
X2531524D01*
X2525428Y375285D02*
X2529492D01*
X2527460Y373253D02*
Y377317D01*
X2533396Y367157D02*
Y383413D01*
X2541524Y367157D02*
Y383413D01*
X2533396Y367157D02*
X2541524D01*
X2533396Y383413D02*
X2541524D01*
X2535428Y375285D02*
X2539492D01*
X2537460Y373253D02*
Y377317D01*
X2551524Y367157D02*
Y383413D01*
X2543396Y367157D02*
Y383413D01*
X2551524D01*
X2543396Y367157D02*
X2551524D01*
X2545428Y375285D02*
X2549492D01*
X2547460Y373253D02*
Y377317D01*
X2927350Y60960D02*
Y86360D01*
X2876550Y60960D02*
X2927350D01*
X2876550D02*
Y86360D01*
X2927350D01*
X2898648Y73660D02*
X2905252D01*
X2901950Y70358D02*
Y76962D01*
X2930398Y182118D02*
X2970022D01*
X2930398Y259842D02*
X2970022D01*
X2930398Y182118D02*
Y259842D01*
X2970022Y182118D02*
Y259842D01*
X2948178Y219710D02*
X2952242D01*
X2950210Y217678D02*
Y221742D01*
X2882138Y257302D02*
X2921762D01*
X2882138Y179578D02*
X2921762D01*
Y257302D01*
X2882138Y179578D02*
Y257302D01*
X2899918Y219710D02*
X2903982D01*
X2901950Y217678D02*
Y221742D01*
X2930398Y443808D02*
X2970022D01*
X2930398Y521532D02*
X2970022D01*
X2930398Y443808D02*
Y521532D01*
X2970022Y443808D02*
Y521532D01*
X2948178Y481400D02*
X2952242D01*
X2950210Y479368D02*
Y483432D01*
X2882138Y518992D02*
X2921762D01*
X2882138Y441268D02*
X2921762D01*
Y518992D01*
X2882138Y441268D02*
Y518992D01*
X2899918Y481400D02*
X2903982D01*
X2901950Y479368D02*
Y483432D01*
X2974340Y262890D02*
X2981960D01*
X2974340D02*
Y270510D01*
X2997200Y262890D02*
Y270510D01*
X2989580Y262890D02*
X2997200D01*
X2989580Y285750D02*
X2997200D01*
Y278130D02*
Y285750D01*
X2974340Y278130D02*
Y285750D01*
X2981960D01*
X2569210Y297434D02*
X2650490D01*
X2569210Y256540D02*
X2650490D01*
X2569210D02*
Y297434D01*
X2650490Y256540D02*
Y297434D01*
X2607818Y276860D02*
X2611882D01*
X2609850Y274828D02*
Y278892D01*
X2569210Y462534D02*
X2650490D01*
X2569210Y421640D02*
X2650490D01*
X2569210D02*
Y462534D01*
X2650490Y421640D02*
Y462534D01*
X2607818Y441960D02*
X2611882D01*
X2609850Y439928D02*
Y443992D01*
X2744470Y398018D02*
Y442722D01*
X2721610Y398018D02*
Y442722D01*
X2744470D01*
X2721610Y398018D02*
X2744470D01*
X2733040Y418338D02*
Y422402D01*
X2731008Y420370D02*
X2735072D01*
X2718054Y398018D02*
Y414782D01*
X2709926Y398018D02*
Y414782D01*
X2718054D01*
X2709926Y398018D02*
X2718054D01*
X2713990Y404368D02*
Y408432D01*
X2711958Y406400D02*
X2716022D01*
X2709926Y304038D02*
Y320802D01*
X2718054Y304038D02*
Y320802D01*
X2709926Y304038D02*
X2718054D01*
X2709926Y320802D02*
X2718054D01*
X2713990Y310388D02*
Y314452D01*
X2711958Y312420D02*
X2716022D01*
X2603246Y330708D02*
Y347472D01*
X2611374Y330708D02*
Y347472D01*
X2603246Y330708D02*
X2611374D01*
X2603246Y347472D02*
X2611374D01*
X2607310Y337058D02*
Y341122D01*
X2605278Y339090D02*
X2609342D01*
X2593086Y330708D02*
Y347472D01*
X2601214Y330708D02*
Y347472D01*
X2593086Y330708D02*
X2601214D01*
X2593086Y347472D02*
X2601214D01*
X2597150Y337058D02*
Y341122D01*
X2595118Y339090D02*
X2599182D01*
X2566670Y302768D02*
Y347472D01*
X2589530Y302768D02*
Y347472D01*
X2566670Y302768D02*
X2589530D01*
X2566670Y347472D02*
X2589530D01*
X2578100Y323088D02*
Y327152D01*
X2576068Y325120D02*
X2580132D01*
X58730Y128810D02*
Y136430D01*
X66350D01*
X58730Y113570D02*
X66350D01*
X58730D02*
Y121190D01*
X81590Y113570D02*
Y121190D01*
X73970Y113570D02*
X81590D01*
X73970Y136430D02*
X81590D01*
Y128810D02*
Y136430D01*
X2725420Y346710D02*
Y377190D01*
X2710180Y346710D02*
Y377190D01*
X2725420D01*
X2710180Y346710D02*
X2725420D01*
X2717800Y359918D02*
Y363982D01*
X2715768Y361950D02*
X2719832D01*
X2615438Y359410D02*
X2619502D01*
X2617470Y357378D02*
Y361442D01*
X2613406Y351028D02*
X2621534D01*
X2613406Y367792D02*
X2621534D01*
X2613406Y351028D02*
Y367792D01*
X2621534Y351028D02*
Y367792D01*
X2974340Y200660D02*
X2981960D01*
X2974340D02*
Y208280D01*
X2997200Y200660D02*
Y208280D01*
X2989580Y200660D02*
X2997200D01*
X2989580Y223520D02*
X2997200D01*
Y215900D02*
Y223520D01*
X2974340Y215900D02*
Y223520D01*
X2981960D01*
X2974340Y415430D02*
X2981960D01*
X2974340D02*
Y423050D01*
X2997200Y415430D02*
Y423050D01*
X2989580Y415430D02*
X2997200D01*
X2989580Y438290D02*
X2997200D01*
Y430670D02*
Y438290D01*
X2974340Y430670D02*
Y438290D01*
X2981960D01*
X2974340Y365430D02*
X2981960D01*
X2974340D02*
Y373050D01*
X2997200Y365430D02*
Y373050D01*
X2989580Y365430D02*
X2997200D01*
X2989580Y388290D02*
X2997200D01*
Y380670D02*
Y388290D01*
X2974340Y380670D02*
Y388290D01*
X2981960D01*
X2463800Y767588D02*
Y812292D01*
X2486660Y767588D02*
Y812292D01*
X2463800Y767588D02*
X2486660D01*
X2463800Y812292D02*
X2486660D01*
X2475230Y787908D02*
Y791972D01*
X2473198Y789940D02*
X2477262D01*
X1910080Y698500D02*
X1917700D01*
X1910080D02*
Y706120D01*
X1932940Y698500D02*
Y706120D01*
X1925320Y698500D02*
X1932940D01*
X1925320Y721360D02*
X1932940D01*
Y713740D02*
Y721360D01*
X1910080Y713740D02*
Y721360D01*
X1917700D01*
X1910080Y901700D02*
X1917700D01*
X1910080D02*
Y909320D01*
X1932940Y901700D02*
Y909320D01*
X1925320Y901700D02*
X1932940D01*
X1925320Y924560D02*
X1932940D01*
Y916940D02*
Y924560D01*
X1910080Y916940D02*
Y924560D01*
X1917700D01*
X1828800Y765048D02*
Y809752D01*
X1851660Y765048D02*
Y809752D01*
X1828800Y765048D02*
X1851660D01*
X1828800Y809752D02*
X1851660D01*
X1840230Y785368D02*
Y789432D01*
X1838198Y787400D02*
X1842262D01*
X1838198Y868680D02*
X1842262D01*
X1840230Y866648D02*
Y870712D01*
X1819656Y909320D02*
X1860550D01*
X1819656Y828040D02*
X1860550D01*
Y909320D01*
X1819656Y828040D02*
Y909320D01*
X1929892Y815594D02*
X1946148D01*
X1929892Y807466D02*
X1946148D01*
X1929892D02*
Y815594D01*
X1946148Y807466D02*
Y815594D01*
X1938020Y809498D02*
Y813562D01*
X1935988Y811530D02*
X1940052D01*
X2400046Y765302D02*
Y781558D01*
X2408174Y765302D02*
Y781558D01*
X2400046Y765302D02*
X2408174D01*
X2400046Y781558D02*
X2408174D01*
X2402078Y773430D02*
X2406142D01*
X2404110Y771398D02*
Y775462D01*
X2400046Y840902D02*
Y857158D01*
X2408174Y840902D02*
Y857158D01*
X2400046Y840902D02*
X2408174D01*
X2400046Y857158D02*
X2408174D01*
X2402078Y849030D02*
X2406142D01*
X2404110Y846998D02*
Y851062D01*
X2631948Y708660D02*
X2636012D01*
X2633980Y706628D02*
Y710692D01*
X2598420Y673100D02*
X2670810D01*
X2598420Y744220D02*
X2670810D01*
Y673100D02*
Y744220D01*
X2598420Y673100D02*
Y744220D01*
X2652776Y793242D02*
X2656840D01*
X2654808Y791210D02*
Y795274D01*
X2643378Y815594D02*
X2666238D01*
X2643378Y770890D02*
X2666238D01*
Y815594D01*
X2643378Y770890D02*
Y815594D01*
X2669540Y839470D02*
Y910590D01*
X2597150Y839470D02*
Y910590D01*
Y839470D02*
X2669540D01*
X2597150Y910590D02*
X2669540D01*
X2633980Y872998D02*
Y877062D01*
X2631948Y875030D02*
X2636012D01*
X2488946Y781558D02*
Y798322D01*
X2497074Y781558D02*
Y798322D01*
X2488946Y781558D02*
X2497074D01*
X2488946Y798322D02*
X2497074D01*
X2493010Y787908D02*
Y791972D01*
X2490978Y789940D02*
X2495042D01*
X2504440Y883920D02*
X2512060D01*
X2504440D02*
Y891540D01*
X2527300Y883920D02*
Y891540D01*
X2519680Y883920D02*
X2527300D01*
X2519680Y906780D02*
X2527300D01*
Y899160D02*
Y906780D01*
X2504440Y899160D02*
Y906780D01*
X2512060D01*
X2504440Y673100D02*
X2512060D01*
X2504440D02*
Y680720D01*
X2527300Y673100D02*
Y680720D01*
X2519680Y673100D02*
X2527300D01*
X2519680Y695960D02*
X2527300D01*
Y688340D02*
Y695960D01*
X2504440Y688340D02*
Y695960D01*
X2512060D01*
X2679700Y681990D02*
Y688340D01*
X2686050D01*
X2691130D02*
X2697480D01*
Y681990D02*
Y688340D01*
Y670560D02*
Y676910D01*
X2691130Y670560D02*
X2697480D01*
X2679700D02*
X2686050D01*
X2679700D02*
Y676910D01*
X2677160Y891540D02*
Y897890D01*
Y891540D02*
X2683510D01*
X2688590D02*
X2694940D01*
Y897890D01*
Y902970D02*
Y909320D01*
X2688590D02*
X2694940D01*
X2677160D02*
X2683510D01*
X2677160Y902970D02*
Y909320D01*
X2788920Y706628D02*
Y751332D01*
X2811780Y706628D02*
Y751332D01*
X2788920Y706628D02*
X2811780D01*
X2788920Y751332D02*
X2811780D01*
X2800350Y726948D02*
Y731012D01*
X2798318Y728980D02*
X2802382D01*
X3051810Y674370D02*
Y680720D01*
X3058160D01*
X3063240D02*
X3069590D01*
Y674370D02*
Y680720D01*
Y662940D02*
Y669290D01*
X3063240Y662940D02*
X3069590D01*
X3051810D02*
X3058160D01*
X3051810D02*
Y669290D01*
X2980341Y654330D02*
Y689330D01*
X3028341Y654330D02*
Y689330D01*
X2980341D02*
X3028341D01*
X2980341Y654330D02*
X3028341D01*
X3004341Y669798D02*
Y673862D01*
X3002309Y671830D02*
X3006373D01*
X2990088Y741349D02*
Y926592D01*
Y741349D02*
X3011784Y716788D01*
X2990088Y926592D02*
X3090672D01*
Y741608D02*
Y926592D01*
X3068748Y716788D02*
X3090672Y741608D01*
X3011784Y716788D02*
X3068748D01*
X3038348Y821690D02*
X3042412D01*
X3040380Y819658D02*
Y823722D01*
X2693670Y966470D02*
X2701290D01*
X2693670Y958850D02*
Y966470D01*
X2716530Y958850D02*
Y966470D01*
X2708910D02*
X2716530D01*
X2708910Y943610D02*
X2716530D01*
Y951230D01*
X2693670Y943610D02*
Y951230D01*
Y943610D02*
X2701290D01*
X1465580Y137195D02*
X1473200D01*
X1465580D02*
Y144815D01*
X1488440Y137195D02*
Y144815D01*
X1480820Y137195D02*
X1488440D01*
X1480820Y160055D02*
X1488440D01*
Y152435D02*
Y160055D01*
X1465580Y152435D02*
Y160055D01*
X1473200D01*
X1419860Y222285D02*
X1427480D01*
X1419860D02*
Y229905D01*
X1442720Y222285D02*
Y229905D01*
X1435100Y222285D02*
X1442720D01*
X1435100Y245145D02*
X1442720D01*
Y237525D02*
Y245145D01*
X1419860Y237525D02*
Y245145D01*
X1427480D01*
X1738630Y317535D02*
X1746250D01*
X1738630D02*
Y325155D01*
X1761490Y317535D02*
Y325155D01*
X1753870Y317535D02*
X1761490D01*
X1753870Y340395D02*
X1761490D01*
Y332775D02*
Y340395D01*
X1738630Y332775D02*
Y340395D01*
X1746250D01*
X1518870Y258825D02*
X1526490D01*
X1518870D02*
Y266445D01*
X1541730Y258825D02*
Y266445D01*
X1534110Y258825D02*
X1541730D01*
X1534110Y281685D02*
X1541730D01*
Y274065D02*
Y281685D01*
X1518870Y274065D02*
Y281685D01*
X1526490D01*
X1405890Y48295D02*
X1413510D01*
X1405890D02*
Y55915D01*
X1428750Y48295D02*
Y55915D01*
X1421130Y48295D02*
X1428750D01*
X1421130Y71155D02*
X1428750D01*
Y63535D02*
Y71155D01*
X1405890Y63535D02*
Y71155D01*
X1413510D01*
X1337310Y67310D02*
X1344930D01*
X1337310D02*
Y74930D01*
X1360170Y67310D02*
Y74930D01*
X1352550Y67310D02*
X1360170D01*
X1352550Y90170D02*
X1360170D01*
Y82550D02*
Y90170D01*
X1337310Y82550D02*
Y90170D01*
X1344930D01*
X1626870Y268683D02*
Y272747D01*
X1624838Y270715D02*
X1628902D01*
X1656080Y230075D02*
Y311355D01*
X1597660Y230075D02*
Y311355D01*
X1656080D01*
X1597660Y230075D02*
X1656080D01*
X1369090Y52773D02*
Y97477D01*
X1391950Y52773D02*
Y97477D01*
X1369090Y52773D02*
X1391950D01*
X1369090Y97477D02*
X1391950D01*
X1380520Y73093D02*
Y77157D01*
X1378488Y75125D02*
X1382552D01*
X1354358Y107129D02*
X1371122Y107129D01*
X1354358Y99001D02*
X1371122Y99001D01*
X1354358Y99001D02*
Y107129D01*
X1371122Y99001D02*
Y107129D01*
X1360708Y103065D02*
X1364772D01*
X1362740Y101033D02*
Y105097D01*
X1394998Y102049D02*
X1411762D01*
X1394998Y93921D02*
X1411762Y93921D01*
X1394998Y93921D02*
X1394998Y102049D01*
X1411762Y93921D02*
Y102049D01*
X1401348Y97985D02*
X1405412D01*
X1403380Y95953D02*
Y100017D01*
X1394998Y91889D02*
X1411762Y91889D01*
X1394998Y83761D02*
X1411762D01*
X1394998D02*
Y91889D01*
X1411762Y83761D02*
Y91889D01*
X1401348Y87825D02*
X1405412D01*
X1403380Y85793D02*
Y89857D01*
X1447957Y102049D02*
X1464213Y102049D01*
X1447957Y93921D02*
X1464213Y93921D01*
X1447957Y93921D02*
Y102049D01*
X1464213Y93921D02*
Y102049D01*
X1456085Y95953D02*
Y100017D01*
X1454053Y97985D02*
X1458117D01*
X1416080Y104843D02*
Y149547D01*
X1438940Y104843D02*
Y149547D01*
X1416080Y104843D02*
X1438940D01*
X1416080Y149547D02*
X1438940D01*
X1427510Y125163D02*
Y129227D01*
X1425478Y127195D02*
X1429542D01*
X1443766Y140403D02*
X1443766Y124147D01*
X1451894D02*
X1451894Y140403D01*
X1443766Y124147D02*
X1451894D01*
X1443766Y140403D02*
X1451894D01*
X1445798Y132275D02*
X1449862D01*
X1447830Y130243D02*
Y134307D01*
X1362486Y126052D02*
X1362486Y109288D01*
X1370614D02*
X1370614Y126052D01*
X1362486Y109288D02*
X1370614D01*
X1362486Y126052D02*
X1370614D01*
X1366550Y115638D02*
Y119703D01*
X1364518Y117670D02*
X1368582D01*
X1370614Y128338D02*
Y145102D01*
X1362486Y128338D02*
Y145102D01*
X1370614D01*
X1362486Y128338D02*
X1370614D01*
X1366550Y134688D02*
Y138752D01*
X1364518Y136720D02*
X1368582D01*
X1314988Y146245D02*
X1359692D01*
X1314988Y123385D02*
X1359692D01*
X1314988D02*
Y146245D01*
X1359692Y123385D02*
Y146245D01*
X1335308Y134815D02*
X1339372D01*
X1337340Y132783D02*
Y136847D01*
X1477010Y258353D02*
Y262417D01*
X1474978Y260385D02*
X1479042D01*
X1506220Y219745D02*
Y301025D01*
X1447800Y219745D02*
Y301025D01*
X1506220D01*
X1447800Y219745D02*
X1506220D01*
X1359184Y167327D02*
Y183583D01*
X1351056Y167327D02*
Y183583D01*
X1359184D01*
X1351056Y167327D02*
X1359184D01*
X1353088Y175455D02*
X1357152D01*
X1355120Y173423D02*
Y177487D01*
X1359184Y148277D02*
Y164533D01*
X1351056Y148277D02*
Y164533D01*
X1359184D01*
X1351056Y148277D02*
X1359184D01*
X1353088Y156405D02*
X1357152D01*
X1355120Y154373D02*
Y158437D01*
X1390934Y141673D02*
Y158437D01*
X1382806Y141673D02*
Y158437D01*
X1390934D01*
X1382806Y141673D02*
X1390934D01*
X1386870Y148023D02*
Y152087D01*
X1384838Y150055D02*
X1388902D01*
X1380774Y141673D02*
Y158437D01*
X1372646Y141673D02*
Y158437D01*
X1380774D01*
X1372646Y141673D02*
X1380774D01*
X1376710Y148023D02*
Y152087D01*
X1374678Y150055D02*
X1378742D01*
X1398300Y153865D02*
Y157675D01*
Y153865D02*
X1402110D01*
X1398300Y166565D02*
X1402110D01*
X1398300Y162755D02*
Y166565D01*
X1411000Y162755D02*
Y166565D01*
X1407190D02*
X1411000D01*
X1407190Y153865D02*
X1411000D01*
Y157675D01*
X1558798Y180121D02*
X1575562D01*
X1558798Y188249D02*
X1575562D01*
Y180121D02*
Y188249D01*
X1558798Y180121D02*
Y188249D01*
X1565148Y184185D02*
X1569212D01*
X1567180Y182153D02*
Y186217D01*
X1558798Y190535D02*
X1603502D01*
X1558798Y213395D02*
X1603502D01*
Y190535D02*
Y213395D01*
X1558798Y190535D02*
Y213395D01*
X1579118Y201965D02*
X1583182D01*
X1581150Y199933D02*
Y203997D01*
X1559560Y169707D02*
X1575816D01*
X1559560Y177835D02*
X1575816D01*
Y169707D02*
Y177835D01*
X1559560Y169707D02*
Y177835D01*
X1567688Y171739D02*
Y175803D01*
X1565656Y173771D02*
X1569720D01*
X882650Y198129D02*
Y242833D01*
X905510Y198129D02*
Y242833D01*
X882650Y198129D02*
X905510D01*
X882650Y242833D02*
X905510D01*
X894080Y218449D02*
Y222513D01*
X892048Y220481D02*
X896112D01*
X971296Y57912D02*
Y74168D01*
X979424Y57912D02*
Y74168D01*
X971296Y57912D02*
X979424D01*
X971296Y74168D02*
X979424D01*
X973328Y66040D02*
X977392D01*
X975360Y64008D02*
Y68072D01*
X908050Y198129D02*
Y242833D01*
X930910Y198129D02*
Y242833D01*
X908050Y198129D02*
X930910D01*
X908050Y242833D02*
X930910D01*
X919480Y218449D02*
Y222513D01*
X917448Y220481D02*
X921512D01*
X983996Y198628D02*
Y215392D01*
X992124Y198628D02*
Y215392D01*
X983996Y198628D02*
X992124D01*
X983996Y215392D02*
X992124D01*
X988060Y204978D02*
Y209042D01*
X986028Y207010D02*
X990092D01*
X973836Y198628D02*
Y215392D01*
X981964Y198628D02*
Y215392D01*
X973836Y198628D02*
X981964D01*
X973836Y215392D02*
X981964D01*
X977900Y204978D02*
Y209042D01*
X975868Y207010D02*
X979932D01*
X983996Y171958D02*
Y188722D01*
X992124Y171958D02*
Y188722D01*
X983996Y171958D02*
X992124D01*
X983996Y188722D02*
X992124D01*
X988060Y178308D02*
Y182372D01*
X986028Y180340D02*
X990092D01*
X973836Y171958D02*
Y188722D01*
X981964Y171958D02*
Y188722D01*
X973836Y171958D02*
X981964D01*
X973836Y188722D02*
X981964D01*
X977900Y178308D02*
Y182372D01*
X975868Y180340D02*
X979932D01*
X983996Y152908D02*
Y169672D01*
X992124Y152908D02*
Y169672D01*
X983996Y152908D02*
X992124D01*
X983996Y169672D02*
X992124D01*
X988060Y159258D02*
Y163322D01*
X986028Y161290D02*
X990092D01*
X973836Y152908D02*
Y169672D01*
X981964Y152908D02*
Y169672D01*
X973836Y152908D02*
X981964D01*
X973836Y169672D02*
X981964D01*
X977900Y159258D02*
Y163322D01*
X975868Y161290D02*
X979932D01*
X1095756Y159258D02*
Y176022D01*
X1103884Y159258D02*
Y176022D01*
X1095756Y159258D02*
X1103884D01*
X1095756Y176022D02*
X1103884D01*
X1099820Y165608D02*
Y169672D01*
X1097788Y167640D02*
X1101852D01*
X1105769Y159258D02*
Y176022D01*
X1113897Y159258D02*
Y176022D01*
X1105769Y159258D02*
X1113897D01*
X1105769Y176022D02*
X1113897D01*
X1109833Y165608D02*
Y169672D01*
X1107801Y167640D02*
X1111865D01*
X1095756Y140208D02*
Y156972D01*
X1103884Y140208D02*
Y156972D01*
X1095756Y140208D02*
X1103884D01*
X1095756Y156972D02*
X1103884D01*
X1099820Y146558D02*
Y150622D01*
X1097788Y148590D02*
X1101852D01*
X1106078Y140575D02*
Y157339D01*
X1114206Y140575D02*
Y157339D01*
X1106078Y140575D02*
X1114206D01*
X1106078Y157339D02*
X1114206D01*
X1110142Y146925D02*
Y150989D01*
X1108110Y148957D02*
X1112174D01*
X1140968Y139700D02*
X1185672D01*
X1140968Y162560D02*
X1185672D01*
Y139700D02*
Y162560D01*
X1140968Y139700D02*
Y162560D01*
X1161288Y151130D02*
X1165352D01*
X1163320Y149098D02*
Y153162D01*
X1133348Y185420D02*
X1178052D01*
X1133348Y208280D02*
X1178052D01*
Y185420D02*
Y208280D01*
X1133348Y185420D02*
Y208280D01*
X1153668Y196850D02*
X1157732D01*
X1155700Y194818D02*
Y198882D01*
X1134364Y213868D02*
Y230632D01*
X1126236Y213868D02*
Y230632D01*
X1134364D01*
X1126236Y213868D02*
X1134364D01*
X1130300Y220218D02*
Y224282D01*
X1128268Y222250D02*
X1132332D01*
X1124204Y213868D02*
Y230632D01*
X1116076Y213868D02*
Y230632D01*
X1124204D01*
X1116076Y213868D02*
X1124204D01*
X1120140Y220218D02*
Y224282D01*
X1118108Y222250D02*
X1122172D01*
X1103884Y213868D02*
Y230632D01*
X1095756Y213868D02*
Y230632D01*
X1103884D01*
X1095756Y213868D02*
X1103884D01*
X1099820Y220218D02*
Y224282D01*
X1097788Y222250D02*
X1101852D01*
X1114044Y213868D02*
Y230632D01*
X1105916Y213868D02*
Y230632D01*
X1114044D01*
X1105916Y213868D02*
X1114044D01*
X1109980Y220218D02*
Y224282D01*
X1107948Y222250D02*
X1112012D01*
X1137158Y232410D02*
X1181862D01*
X1137158Y255270D02*
X1181862D01*
Y232410D02*
Y255270D01*
X1137158Y232410D02*
Y255270D01*
X1157478Y243840D02*
X1161542D01*
X1159510Y241808D02*
Y245872D01*
X1153160Y257048D02*
Y301752D01*
X1176020Y257048D02*
Y301752D01*
X1153160Y257048D02*
X1176020D01*
X1153160Y301752D02*
X1176020D01*
X1164590Y277368D02*
Y281432D01*
X1162558Y279400D02*
X1166622D01*
X1086104Y295148D02*
Y311912D01*
X1077976Y295148D02*
Y311912D01*
X1086104D01*
X1077976Y295148D02*
X1086104D01*
X1082040Y301498D02*
Y305562D01*
X1080008Y303530D02*
X1084072D01*
X1075944Y295148D02*
Y311912D01*
X1067816Y295148D02*
Y311912D01*
X1075944D01*
X1067816Y295148D02*
X1075944D01*
X1071880Y301498D02*
Y305562D01*
X1069848Y303530D02*
X1073912D01*
X1014984Y309118D02*
Y325882D01*
X1006856Y309118D02*
Y325882D01*
X1014984D01*
X1006856Y309118D02*
X1014984D01*
X1010920Y315468D02*
Y319532D01*
X1008888Y317500D02*
X1012952D01*
X985266Y249428D02*
Y266192D01*
X993394Y249428D02*
Y266192D01*
X985266Y249428D02*
X993394D01*
X985266Y266192D02*
X993394D01*
X989330Y255778D02*
Y259842D01*
X987298Y257810D02*
X991362D01*
X976636Y240551D02*
X993400D01*
X976636Y232423D02*
X993400D01*
X976636D02*
Y240551D01*
X993400Y232423D02*
Y240551D01*
X982986Y236487D02*
X987050D01*
X985018Y234455D02*
Y238519D01*
X1098296Y57658D02*
Y74422D01*
X1106424Y57658D02*
Y74422D01*
X1098296Y57658D02*
X1106424D01*
X1098296Y74422D02*
X1106424D01*
X1102360Y64008D02*
Y68072D01*
X1100328Y66040D02*
X1104392D01*
X1088136Y57658D02*
Y74422D01*
X1096264Y57658D02*
Y74422D01*
X1088136Y57658D02*
X1096264D01*
X1088136Y74422D02*
X1096264D01*
X1092200Y64008D02*
Y68072D01*
X1090168Y66040D02*
X1094232D01*
X1077976Y57658D02*
Y74422D01*
X1086104Y57658D02*
Y74422D01*
X1077976Y57658D02*
X1086104D01*
X1077976Y74422D02*
X1086104D01*
X1082040Y64008D02*
Y68072D01*
X1080008Y66040D02*
X1084072D01*
X1067816Y57658D02*
Y74422D01*
X1075944Y57658D02*
Y74422D01*
X1067816Y57658D02*
X1075944D01*
X1067816Y74422D02*
X1075944D01*
X1071880Y64008D02*
Y68072D01*
X1069848Y66040D02*
X1073912D01*
X1057656Y57658D02*
Y74422D01*
X1065784Y57658D02*
Y74422D01*
X1057656Y57658D02*
X1065784D01*
X1057656Y74422D02*
X1065784D01*
X1061720Y64008D02*
Y68072D01*
X1059688Y66040D02*
X1063752D01*
X1011936Y57658D02*
Y74422D01*
X1020064Y57658D02*
Y74422D01*
X1011936Y57658D02*
X1020064D01*
X1011936Y74422D02*
X1020064D01*
X1016000Y64008D02*
Y68072D01*
X1013968Y66040D02*
X1018032D01*
X991616Y57658D02*
Y74422D01*
X999744Y57658D02*
Y74422D01*
X991616Y57658D02*
X999744D01*
X991616Y74422D02*
X999744D01*
X995680Y64008D02*
Y68072D01*
X993648Y66040D02*
X997712D01*
X1098296Y75692D02*
Y91948D01*
X1106424Y75692D02*
Y91948D01*
X1098296Y75692D02*
X1106424D01*
X1098296Y91948D02*
X1106424D01*
X1100328Y83820D02*
X1104392D01*
X1102360Y81788D02*
Y85852D01*
X1088136Y75692D02*
Y91948D01*
X1096264Y75692D02*
Y91948D01*
X1088136Y75692D02*
X1096264D01*
X1088136Y91948D02*
X1096264D01*
X1090168Y83820D02*
X1094232D01*
X1092200Y81788D02*
Y85852D01*
X1077976Y75692D02*
Y91948D01*
X1086104Y75692D02*
Y91948D01*
X1077976Y75692D02*
X1086104D01*
X1077976Y91948D02*
X1086104D01*
X1080008Y83820D02*
X1084072D01*
X1082040Y81788D02*
Y85852D01*
X1067816Y75692D02*
Y91948D01*
X1075944Y75692D02*
Y91948D01*
X1067816Y75692D02*
X1075944D01*
X1067816Y91948D02*
X1075944D01*
X1069848Y83820D02*
X1073912D01*
X1071880Y81788D02*
Y85852D01*
X1057656Y75692D02*
Y91948D01*
X1065784Y75692D02*
Y91948D01*
X1057656Y75692D02*
X1065784D01*
X1057656Y91948D02*
X1065784D01*
X1059688Y83820D02*
X1063752D01*
X1061720Y81788D02*
Y85852D01*
X1011936Y75692D02*
Y91948D01*
X1020064Y75692D02*
Y91948D01*
X1011936Y75692D02*
X1020064D01*
X1011936Y91948D02*
X1020064D01*
X1013968Y83820D02*
X1018032D01*
X1016000Y81788D02*
Y85852D01*
X991616Y75692D02*
Y91948D01*
X999744Y75692D02*
Y91948D01*
X991616Y75692D02*
X999744D01*
X991616Y91948D02*
X999744D01*
X993648Y83820D02*
X997712D01*
X995680Y81788D02*
Y85852D01*
X981456Y75692D02*
Y91948D01*
X989584Y75692D02*
Y91948D01*
X981456Y75692D02*
X989584D01*
X981456Y91948D02*
X989584D01*
X983488Y83820D02*
X987552D01*
X985520Y81788D02*
Y85852D01*
X1633430Y63810D02*
Y71430D01*
X1625810D02*
X1633430D01*
X1625810Y48570D02*
X1633430D01*
Y56190D01*
X1610570Y48570D02*
Y56190D01*
Y48570D02*
X1618190D01*
X1610570Y71430D02*
X1618190D01*
X1610570Y63810D02*
Y71430D01*
X1001776Y75692D02*
Y91948D01*
X1009904Y75692D02*
Y91948D01*
X1001776Y75692D02*
X1009904D01*
X1001776Y91948D02*
X1009904D01*
X1003808Y83820D02*
X1007872D01*
X1005840Y81788D02*
Y85852D01*
X1001776Y57658D02*
Y74422D01*
X1009904Y57658D02*
Y74422D01*
X1001776Y57658D02*
X1009904D01*
X1001776Y74422D02*
X1009904D01*
X1005840Y64008D02*
Y68072D01*
X1003808Y66040D02*
X1007872D01*
X42000Y918601D02*
Y951621D01*
X25490Y935111D02*
X58510D01*
X25490Y125000D02*
X58510D01*
X42000Y108490D02*
Y141510D01*
X3068490Y108490D02*
Y141510D01*
X3051980Y125000D02*
X3085000D01*
X2781806Y980560D02*
X2788410D01*
X2785108Y977258D02*
Y983862D01*
X2819652Y917060D02*
Y1044060D01*
X2750564Y917060D02*
X2819652D01*
X2750564D02*
Y1044060D01*
X2819652D01*
X2899918Y725170D02*
X2903982D01*
X2901950Y723138D02*
Y727202D01*
X2865120Y807720D02*
X2938780D01*
Y642620D02*
Y807720D01*
X2865120Y642620D02*
X2938780D01*
X2865120D02*
Y807720D01*
X2765699Y761054D02*
X2835001D01*
X2765699D02*
Y881054D01*
X2835001D01*
Y761054D02*
Y881054D01*
X2833050Y805054D02*
Y866004D01*
X2767650Y805054D02*
Y866004D01*
X2833050D01*
X2767650Y805054D02*
X2833050D01*
X2800350Y822706D02*
Y829310D01*
X2797048Y826008D02*
X2803652D01*
X2716530Y994410D02*
Y1002030D01*
X2708910Y994410D02*
X2716530D01*
X2708910Y1017270D02*
X2716530D01*
Y1009650D02*
Y1017270D01*
X2693670Y1009650D02*
Y1017270D01*
X2701290D01*
X2693670Y994410D02*
X2701290D01*
X2693670D02*
Y1002030D01*
X2773426Y734822D02*
Y751078D01*
X2781554Y734822D02*
Y751078D01*
X2773426Y734822D02*
X2781554D01*
X2773426Y751078D02*
X2781554D01*
X2775458Y742950D02*
X2779522D01*
X2777490Y740918D02*
Y744982D01*
X2819146Y734822D02*
Y751078D01*
X2827274Y734822D02*
Y751078D01*
X2819146Y734822D02*
X2827274D01*
X2819146Y751078D02*
X2827274D01*
X2821178Y742950D02*
X2825242D01*
X2823210Y740918D02*
Y744982D01*
X1610570Y1003810D02*
Y1011430D01*
X1618190D01*
X1610570Y988570D02*
X1618190D01*
X1610570D02*
Y996190D01*
X1633430Y988570D02*
Y996190D01*
X1625810Y988570D02*
X1633430D01*
X1625810Y1011430D02*
X1633430D01*
Y1003810D02*
Y1011430D01*
X2091690Y29210D02*
Y36830D01*
X2084070D02*
X2091690D01*
X2084070Y13970D02*
X2091690D01*
Y21590D01*
X2068830Y13970D02*
Y21590D01*
Y13970D02*
X2076450D01*
X2068830Y36830D02*
X2076450D01*
X2068830Y29210D02*
Y36830D01*
X2017268Y85090D02*
X2021332D01*
X2019300Y83058D02*
Y87122D01*
X2015236Y76708D02*
X2023364D01*
X2015236Y93472D02*
X2023364D01*
X2015236Y76708D02*
Y93472D01*
X2023364Y76708D02*
Y93472D01*
X1999488Y71120D02*
X2003552D01*
X2001520Y69088D02*
Y73152D01*
X1990090Y48768D02*
X2012950D01*
X1990090Y93472D02*
X2012950D01*
X1990090Y48768D02*
Y93472D01*
X2012950Y48768D02*
Y93472D01*
X2106168Y85090D02*
X2110232D01*
X2108200Y83058D02*
Y87122D01*
X2104136Y76708D02*
X2112264D01*
X2104136Y93472D02*
X2112264D01*
X2104136Y76708D02*
Y93472D01*
X2112264Y76708D02*
Y93472D01*
X2096008Y85090D02*
X2100072D01*
X2098040Y83058D02*
Y87122D01*
X2093976Y76708D02*
X2102104D01*
X2093976Y93472D02*
X2102104D01*
X2093976Y76708D02*
Y93472D01*
X2102104Y76708D02*
Y93472D01*
X2043938Y26670D02*
X2048002D01*
X2045970Y24638D02*
Y28702D01*
X2062480Y17780D02*
Y35560D01*
X2029460Y17780D02*
Y35560D01*
Y17780D02*
X2062480D01*
X2029460Y35560D02*
X2062480D01*
X2794000Y82550D02*
X2800350D01*
Y76200D02*
Y82550D01*
Y64770D02*
Y71120D01*
X2794000Y64770D02*
X2800350D01*
X2782570D02*
X2788920D01*
X2782570D02*
Y71120D01*
Y76200D02*
Y82550D01*
X2788920D01*
X2778760Y43688D02*
Y50292D01*
X2775458Y46990D02*
X2782062D01*
X2829560Y34290D02*
Y59690D01*
X2727960Y34290D02*
X2829560D01*
X2727960D02*
Y59690D01*
X2829560D01*
X2828290Y80010D02*
Y87630D01*
X2820670D02*
X2828290D01*
X2820670Y64770D02*
X2828290D01*
Y72390D01*
X2805430Y64770D02*
Y72390D01*
Y64770D02*
X2813050D01*
X2805430Y87630D02*
X2813050D01*
X2805430Y80010D02*
Y87630D01*
X2661793Y120062D02*
X2665857D01*
X2663825Y118030D02*
Y122094D01*
X2655697Y115998D02*
Y124126D01*
X2671953Y115998D02*
Y124126D01*
X2655697D02*
X2671953D01*
X2655697Y115998D02*
X2671953D01*
X2752090Y80010D02*
Y87630D01*
X2744470D02*
X2752090D01*
X2744470Y64770D02*
X2752090D01*
Y72390D01*
X2729230Y64770D02*
Y72390D01*
Y64770D02*
X2736850D01*
X2729230Y87630D02*
X2736850D01*
X2729230Y80010D02*
Y87630D01*
X2659380Y79168D02*
Y83232D01*
X2657348Y81200D02*
X2661412D01*
X2655316Y89328D02*
X2663444D01*
X2655316Y73072D02*
X2663444D01*
Y89328D01*
X2655316Y73072D02*
Y89328D01*
X2692893Y120062D02*
X2696957D01*
X2694925Y118030D02*
Y122094D01*
X2678415Y111172D02*
Y128952D01*
X2711435Y111172D02*
Y128952D01*
X2678415D02*
X2711435D01*
X2678415Y111172D02*
X2711435D01*
X2768600Y82550D02*
X2774950D01*
Y76200D02*
Y82550D01*
Y64770D02*
Y71120D01*
X2768600Y64770D02*
X2774950D01*
X2757170D02*
X2763520D01*
X2757170D02*
Y71120D01*
Y76200D02*
Y82550D01*
X2763520D01*
X2899283Y52070D02*
X2903347D01*
X2901315Y50038D02*
Y54102D01*
X2909443Y48006D02*
Y56134D01*
X2893187Y48006D02*
Y56134D01*
Y48006D02*
X2909443Y48006D01*
X2893187Y56134D02*
X2909443Y56134D01*
X1932940Y999998D02*
Y1006602D01*
X1929638Y1003300D02*
X1936242D01*
X1882140Y990600D02*
Y1016000D01*
X1983740Y1016000D01*
Y990600D02*
Y1016000D01*
X1882140Y990600D02*
X1983740Y990600D01*
X568273Y3150D02*
X574877D01*
X571575Y-152D02*
Y6452D01*
D12*
X2036519Y60706D02*
G03*
X2036519Y60706I-635J0D01*
G01*
X731095Y201970D02*
G03*
X731095Y201970I-635J0D01*
G01*
X2987675Y628650D02*
G03*
X2987675Y628650I-635J0D01*
G01*
X2257425Y971550D02*
G03*
X2257425Y971550I-635J0D01*
G01*
X1978025Y275590D02*
G03*
X1978025Y275590I-635J0D01*
G01*
X941705Y918210D02*
G03*
X941705Y918210I-635J0D01*
G01*
X561975Y300990D02*
G03*
X561975Y300990I-635J0D01*
G01*
X1564375Y290830D02*
G03*
X1564375Y290830I-635J0D01*
G01*
X1655815Y379730D02*
G03*
X1655815Y379730I-635J0D01*
G01*
X1568323Y763524D02*
G03*
X1568323Y763524I-635J0D01*
G01*
X1536435Y723900D02*
G03*
X1536435Y723900I-635J0D01*
G01*
X1581415Y450850D02*
G03*
X1581415Y450850I-635J0D01*
G01*
X1502283Y481584D02*
G03*
X1502283Y481584I-635J0D01*
G01*
X1479125Y364940D02*
G03*
X1479125Y364940I-635J0D01*
G01*
X1012635Y278000D02*
G03*
X1012635Y278000I-635J0D01*
G01*
X717495Y368591D02*
G03*
X717495Y368591I-635J0D01*
G01*
X1968235Y887730D02*
G03*
X1968235Y887730I-635J0D01*
G01*
X744463Y402590D02*
G03*
X744463Y402590I-635J0D01*
G01*
X744971Y433070D02*
G03*
X744971Y433070I-635J0D01*
G01*
X929626Y1019810D02*
G03*
X929626Y1019810I-635J0D01*
G01*
X1939925Y207910D02*
G03*
X1939925Y207910I-635J0D01*
G01*
X1901825D02*
G03*
X1901825Y207910I-635J0D01*
G01*
X1825625D02*
G03*
X1825625Y207910I-635J0D01*
G01*
X1863725D02*
G03*
X1863725Y207910I-635J0D01*
G01*
X1844167Y86106D02*
G03*
X1844167Y86106I-635J0D01*
G01*
X1671447D02*
G03*
X1671447Y86106I-635J0D01*
G01*
X1698295Y1021170D02*
G03*
X1698295Y1021170I-635J0D01*
G01*
X1365885Y862330D02*
G03*
X1365885Y862330I-635J0D01*
G01*
Y895350D02*
G03*
X1365885Y895350I-635J0D01*
G01*
X1171575Y928370D02*
G03*
X1171575Y928370I-635J0D01*
G01*
X1365885Y974090D02*
G03*
X1365885Y974090I-635J0D01*
G01*
Y1007110D02*
G03*
X1365885Y1007110I-635J0D01*
G01*
X1105535Y862330D02*
G03*
X1105535Y862330I-635J0D01*
G01*
Y895350D02*
G03*
X1105535Y895350I-635J0D01*
G01*
Y974090D02*
G03*
X1105535Y974090I-635J0D01*
G01*
Y1007110D02*
G03*
X1105535Y1007110I-635J0D01*
G01*
X852805Y889000D02*
G03*
X852805Y889000I-635J0D01*
G01*
X753237Y712216D02*
G03*
X753237Y712216I-635J0D01*
G01*
X667385Y814440D02*
G03*
X667385Y814440I-635J0D01*
G01*
X676783Y786384D02*
G03*
X676783Y786384I-635J0D01*
G01*
X1839087Y995426D02*
G03*
X1839087Y995426I-635J0D01*
G01*
X1247525Y265050D02*
G03*
X1247525Y265050I-635J0D01*
G01*
X2802255Y526150D02*
G03*
X2802255Y526150I-635J0D01*
G01*
X2847392Y526520D02*
G03*
X2847392Y526520I-635J0D01*
G01*
X2389836Y528460D02*
G03*
X2389836Y528460I-635J0D01*
G01*
X2356013Y445464D02*
G03*
X2356013Y445464I-635J0D01*
G01*
X2514795Y979910D02*
G03*
X2514795Y979910I-635J0D01*
G01*
X96168Y933020D02*
G03*
X96168Y933020I-635J0D01*
G01*
X530265Y263950D02*
G03*
X530265Y263950I-635J0D01*
G01*
X2142490Y344170D02*
G03*
X2142490Y344170I-635J0D01*
G01*
X220610Y98044D02*
G03*
X220610Y98044I-635J0D01*
G01*
Y58703D02*
G03*
X220610Y58703I-635J0D01*
G01*
X493903Y42164D02*
G03*
X493903Y42164I-635J0D01*
G01*
X566547Y18796D02*
G03*
X566547Y18796I-635J0D01*
G01*
X554863Y42164D02*
G03*
X554863Y42164I-635J0D01*
G01*
X505587Y18796D02*
G03*
X505587Y18796I-635J0D01*
G01*
X2915285Y73660D02*
G03*
X2915285Y73660I-635J0D01*
G01*
X2950845Y198120D02*
G03*
X2950845Y198120I-635J0D01*
G01*
X2902585Y241300D02*
G03*
X2902585Y241300I-635J0D01*
G01*
X2950845Y459810D02*
G03*
X2950845Y459810I-635J0D01*
G01*
X2902585Y502990D02*
G03*
X2902585Y502990I-635J0D01*
G01*
X3041015Y876690D02*
G03*
X3041015Y876690I-635J0D01*
G01*
X2778125Y776986D02*
G03*
X2778125Y776986I-635J0D01*
G01*
X2053855Y26670D02*
G03*
X2053855Y26670I-635J0D01*
G01*
X2817495Y46990D02*
G03*
X2817495Y46990I-635J0D01*
G01*
X2688310Y120062D02*
G03*
X2688310Y120062I-635J0D01*
G01*
X1895475Y1003300D02*
G03*
X1895475Y1003300I-635J0D01*
G01*
X457135Y-41000D02*
G03*
X457135Y-41000I-635J0D01*
G01*
X1356000Y449000D02*
Y799000D01*
X1006000Y449000D02*
X1356000D01*
X1006000D02*
Y799000D01*
X1356000D01*
X2792000Y234410D02*
Y484410D01*
X2542000Y234410D02*
Y484410D01*
X2792000D01*
X2542000Y234410D02*
X2792000D01*
X919000Y93000D02*
X1169000D01*
X919000Y343000D02*
X1169000D01*
X919000Y93000D02*
Y343000D01*
X1169000Y93000D02*
Y343000D01*
D16*
X972618Y857782D02*
Y867939D01*
X976004Y864553D01*
X979389Y867939D01*
Y857782D01*
X982775Y866246D02*
X984467Y867939D01*
X987853D01*
X989546Y866246D01*
Y864553D01*
X987853Y862860D01*
X986160D01*
X987853D01*
X989546Y861168D01*
Y859475D01*
X987853Y857782D01*
X984467D01*
X982775Y859475D01*
X1372618Y457782D02*
Y467939D01*
X1376004Y464553D01*
X1379389Y467939D01*
Y457782D01*
X1382775Y466246D02*
X1384467Y467939D01*
X1387853D01*
X1389546Y466246D01*
Y464553D01*
X1387853Y462860D01*
X1386160D01*
X1387853D01*
X1389546Y461168D01*
Y459475D01*
X1387853Y457782D01*
X1384467D01*
X1382775Y459475D01*
X2508618Y543192D02*
Y553349D01*
X2512003Y549963D01*
X2515389Y553349D01*
Y543192D01*
X2518775Y551656D02*
X2520468Y553349D01*
X2523853D01*
X2525546Y551656D01*
Y549963D01*
X2523853Y548270D01*
X2522160D01*
X2523853D01*
X2525546Y546578D01*
Y544885D01*
X2523853Y543192D01*
X2520468D01*
X2518775Y544885D01*
X2808618Y243192D02*
Y253349D01*
X2812003Y249963D01*
X2815389Y253349D01*
Y243192D01*
X2818775Y251656D02*
X2820468Y253349D01*
X2823853D01*
X2825546Y251656D01*
Y249963D01*
X2823853Y248270D01*
X2822160D01*
X2823853D01*
X2825546Y246578D01*
Y244885D01*
X2823853Y243192D01*
X2820468D01*
X2818775Y244885D01*
X1185618Y101782D02*
Y111939D01*
X1189004Y108553D01*
X1192389Y111939D01*
Y101782D01*
X1195775Y110246D02*
X1197468Y111939D01*
X1200853D01*
X1202546Y110246D01*
Y108553D01*
X1200853Y106860D01*
X1199160D01*
X1200853D01*
X1202546Y105168D01*
Y103475D01*
X1200853Y101782D01*
X1197468D01*
X1195775Y103475D01*
X885618Y401782D02*
Y411939D01*
X889004Y408553D01*
X892389Y411939D01*
Y401782D01*
X895775Y410246D02*
X897467Y411939D01*
X900853D01*
X902546Y410246D01*
Y408553D01*
X900853Y406860D01*
X899160D01*
X900853D01*
X902546Y405168D01*
Y403475D01*
X900853Y401782D01*
X897467D01*
X895775Y403475D01*
X51618Y1033782D02*
Y1043939D01*
X55004Y1040553D01*
X58389Y1043939D01*
Y1033782D01*
X61775Y1042246D02*
X63467Y1043939D01*
X66853D01*
X68546Y1042246D01*
Y1040553D01*
X66853Y1038860D01*
X65160D01*
X66853D01*
X68546Y1037168D01*
Y1035475D01*
X66853Y1033782D01*
X63467D01*
X61775Y1035475D01*
X51618Y563782D02*
Y573939D01*
X55004Y570553D01*
X58389Y573939D01*
Y563782D01*
X61775Y572246D02*
X63467Y573939D01*
X66853D01*
X68546Y572246D01*
Y570553D01*
X66853Y568860D01*
X65160D01*
X66853D01*
X68546Y567168D01*
Y565475D01*
X66853Y563782D01*
X63467D01*
X61775Y565475D01*
X1551618Y1033782D02*
Y1043939D01*
X1555004Y1040553D01*
X1558389Y1043939D01*
Y1033782D01*
X1561775Y1042246D02*
X1563468Y1043939D01*
X1566853D01*
X1568546Y1042246D01*
Y1040553D01*
X1566853Y1038860D01*
X1565160D01*
X1566853D01*
X1568546Y1037168D01*
Y1035475D01*
X1566853Y1033782D01*
X1563468D01*
X1561775Y1035475D01*
X1551618Y93782D02*
Y103939D01*
X1555004Y100553D01*
X1558389Y103939D01*
Y93782D01*
X1561775Y102246D02*
X1563468Y103939D01*
X1566853D01*
X1568546Y102246D01*
Y100553D01*
X1566853Y98860D01*
X1565160D01*
X1566853D01*
X1568546Y97168D01*
Y95475D01*
X1566853Y93782D01*
X1563468D01*
X1561775Y95475D01*
X51618Y93782D02*
Y103939D01*
X55004Y100553D01*
X58389Y103939D01*
Y93782D01*
X61775Y102246D02*
X63467Y103939D01*
X66853D01*
X68546Y102246D01*
Y100553D01*
X66853Y98860D01*
X65160D01*
X66853D01*
X68546Y97168D01*
Y95475D01*
X66853Y93782D01*
X63467D01*
X61775Y95475D01*
X3041618Y563782D02*
Y573939D01*
X3045004Y570553D01*
X3048389Y573939D01*
Y563782D01*
X3051775Y572246D02*
X3053467Y573939D01*
X3056853D01*
X3058546Y572246D01*
Y570553D01*
X3056853Y568860D01*
X3055160D01*
X3056853D01*
X3058546Y567168D01*
Y565475D01*
X3056853Y563782D01*
X3053467D01*
X3051775Y565475D01*
X3041618Y93782D02*
Y103939D01*
X3045004Y100553D01*
X3048389Y103939D01*
Y93782D01*
X3051775Y102246D02*
X3053467Y103939D01*
X3056853D01*
X3058546Y102246D01*
Y100553D01*
X3056853Y98860D01*
X3055160D01*
X3056853D01*
X3058546Y97168D01*
Y95475D01*
X3056853Y93782D01*
X3053467D01*
X3051775Y95475D01*
X3041618Y1033782D02*
Y1043939D01*
X3045004Y1040553D01*
X3048389Y1043939D01*
Y1033782D01*
X3051775Y1042246D02*
X3053467Y1043939D01*
X3056853D01*
X3058546Y1042246D01*
Y1040553D01*
X3056853Y1038860D01*
X3055160D01*
X3056853D01*
X3058546Y1037168D01*
Y1035475D01*
X3056853Y1033782D01*
X3053467D01*
X3051775Y1035475D01*
D17*
X354170Y774620D02*
G03*
X354170Y774620I-5000J0D01*
G01*
X962500Y585390D02*
G03*
X962500Y585390I-5000J0D01*
G01*
X317590Y275760D02*
G03*
X317590Y275760I-5000J0D01*
G01*
X154210Y297800D02*
G03*
X154210Y297800I-5000J0D01*
G01*
X156560Y764110D02*
G03*
X156560Y764110I-5000J0D01*
G01*
X499980Y816215D02*
G03*
X499980Y816215I-5000J0D01*
G01*
X2658500Y399410D02*
G03*
X2658500Y399410I-5000J0D01*
G01*
X90749Y380000D02*
G03*
X90749Y380000I-30749J0D01*
G01*
X66350D02*
G03*
X66350Y380000I-6350J0D01*
G01*
X31004Y411749D02*
G03*
X28252Y408998I28996J-31749D01*
G01*
X28251Y351004D02*
G03*
X31002Y348252I31749J28996D01*
G01*
X88996Y348251D02*
G03*
X91748Y351002I-28996J31749D01*
G01*
X91749Y408996D02*
G03*
X88998Y411748I-31749J-28996D01*
G01*
X89499Y380000D02*
G03*
X89499Y380000I-29499J0D01*
G01*
X80500D02*
G03*
X80500Y380000I-20500J0D01*
G01*
X90749Y240000D02*
G03*
X90749Y240000I-30749J0D01*
G01*
X66350D02*
G03*
X66350Y240000I-6350J0D01*
G01*
X31004Y271749D02*
G03*
X28252Y268998I28996J-31749D01*
G01*
X28251Y211004D02*
G03*
X31002Y208252I31749J28996D01*
G01*
X88996Y208251D02*
G03*
X91748Y211002I-28996J31749D01*
G01*
X91749Y268996D02*
G03*
X88998Y271748I-31749J-28996D01*
G01*
X89499Y240000D02*
G03*
X89499Y240000I-29499J0D01*
G01*
X80500D02*
G03*
X80500Y240000I-20500J0D01*
G01*
X90749Y680000D02*
G03*
X90749Y680000I-30749J0D01*
G01*
X66350D02*
G03*
X66350Y680000I-6350J0D01*
G01*
X31004Y711749D02*
G03*
X28252Y708998I28996J-31749D01*
G01*
X28251Y651004D02*
G03*
X31002Y648252I31749J28996D01*
G01*
X88996Y648251D02*
G03*
X91748Y651002I-28996J31749D01*
G01*
X91749Y708996D02*
G03*
X88998Y711748I-31749J-28996D01*
G01*
X89499Y680000D02*
G03*
X89499Y680000I-29499J0D01*
G01*
X80500D02*
G03*
X80500Y680000I-20500J0D01*
G01*
X90749Y830000D02*
G03*
X90749Y830000I-30749J0D01*
G01*
X66350D02*
G03*
X66350Y830000I-6350J0D01*
G01*
X31004Y861749D02*
G03*
X28252Y858998I28996J-31749D01*
G01*
X28251Y801004D02*
G03*
X31002Y798252I31749J28996D01*
G01*
X88996Y798251D02*
G03*
X91748Y801002I-28996J31749D01*
G01*
X91749Y858996D02*
G03*
X88998Y861748I-31749J-28996D01*
G01*
X89499Y830000D02*
G03*
X89499Y830000I-29499J0D01*
G01*
X80500D02*
G03*
X80500Y830000I-20500J0D01*
G01*
X266670Y692120D02*
Y783620D01*
X358170Y692120D02*
Y783620D01*
X266670Y692120D02*
X358170D01*
X266670Y783620D02*
X358170D01*
X617220Y1056640D02*
X617220Y904240D01*
X448310D02*
Y1056640D01*
X617220D01*
X448310Y904240D02*
X617220D01*
X875000Y502890D02*
Y594390D01*
X966500Y502890D02*
Y594390D01*
X875000Y502890D02*
X966500D01*
X875000Y594390D02*
X966500D01*
X374590Y266760D02*
Y337760D01*
X303590Y266760D02*
Y337760D01*
X374590D01*
X303590Y266760D02*
X374590D01*
X140210Y288800D02*
X172210D01*
X140210Y320800D02*
X172210D01*
X140210Y288800D02*
Y320800D01*
X172210Y288800D02*
Y320800D01*
X142560Y733110D02*
X182560D01*
X142560Y773110D02*
X182560D01*
Y733110D02*
Y773110D01*
X142560Y733110D02*
Y773110D01*
X601480Y803715D02*
Y875715D01*
X475480Y803715D02*
Y875715D01*
X601480D01*
X475480Y803715D02*
X601480D01*
X3001665Y243250D02*
Y455250D01*
X3091665Y243250D02*
Y455250D01*
X3001665D02*
X3091665D01*
X3001665Y243250D02*
X3091665D01*
X2644500Y310410D02*
Y408410D01*
X2689500Y310410D02*
Y408410D01*
X2644500D02*
X2689500D01*
X2644500Y310410D02*
X2689500D01*
X80400Y349600D02*
X90400D01*
Y359600D01*
X80400D02*
X90400D01*
X80400Y349600D02*
Y359600D01*
Y400400D02*
X90400D01*
X80400D02*
Y410400D01*
X90400D01*
Y400400D02*
Y410400D01*
X39600Y400400D02*
Y410400D01*
X29600Y400400D02*
X39600D01*
X29600D02*
Y410400D01*
X39600D01*
X29600Y359600D02*
X39600D01*
Y349600D02*
Y359600D01*
X29600Y349600D02*
X39600D01*
X29600D02*
Y359600D01*
X28250Y350950D02*
Y408995D01*
X30950Y348250D02*
X88995D01*
X31005Y411750D02*
X88995D01*
X91750Y351005D02*
Y408995D01*
X27253Y408999D02*
X28250Y408995D01*
X24753Y406499D02*
X27253Y408999D01*
X-10247Y406499D02*
X24753Y406499D01*
X-15497Y411750D02*
X-10247Y406499D01*
X-42996Y411750D02*
X-15497D01*
X-48247Y406499D02*
X-42996Y411750D01*
X-55747Y406499D02*
X-48247Y406499D01*
X-56247Y405999D02*
X-55747Y406499D01*
X-56247Y403749D02*
X-56247Y405999D01*
X-56247Y356251D02*
X-56247Y354001D01*
X-55747Y353501D01*
X-48247Y353501D01*
X-42996Y348250D01*
X-15497Y348250D01*
X-10247Y353501D01*
X24753Y353501D01*
X27253Y351001D01*
X28250Y351005D01*
X-56247Y356251D02*
Y403749D01*
X-48247Y353501D02*
Y406499D01*
X-42996Y348250D02*
X-42996Y411750D01*
X-15497Y348250D02*
Y411750D01*
X-10247Y353501D02*
Y406499D01*
X24753Y353501D02*
Y406499D01*
X80400Y209600D02*
X90400D01*
Y219600D01*
X80400D02*
X90400D01*
X80400Y209600D02*
Y219600D01*
Y260400D02*
X90400D01*
X80400D02*
Y270400D01*
X90400D01*
Y260400D02*
Y270400D01*
X39600Y260400D02*
Y270400D01*
X29600Y260400D02*
X39600D01*
X29600D02*
Y270400D01*
X39600D01*
X29600Y219600D02*
X39600D01*
Y209600D02*
Y219600D01*
X29600Y209600D02*
X39600D01*
X29600D02*
Y219600D01*
X28250Y210950D02*
Y268995D01*
X30950Y208250D02*
X88995D01*
X31005Y271750D02*
X88995D01*
X91750Y211005D02*
Y268995D01*
X27253Y268999D02*
X28250Y268995D01*
X24753Y266499D02*
X27253Y268999D01*
X-10247Y266499D02*
X24753Y266499D01*
X-15497Y271750D02*
X-10247Y266499D01*
X-42996Y271750D02*
X-15497D01*
X-48247Y266499D02*
X-42996Y271750D01*
X-55747Y266499D02*
X-48247Y266499D01*
X-56247Y265999D02*
X-55747Y266499D01*
X-56247Y263749D02*
X-56247Y265999D01*
X-56247Y216251D02*
X-56247Y214001D01*
X-55747Y213501D01*
X-48247Y213501D01*
X-42996Y208250D01*
X-15497Y208250D01*
X-10247Y213501D01*
X24753Y213501D01*
X27253Y211001D01*
X28250Y211005D01*
X-56247Y216251D02*
Y263749D01*
X-48247Y213501D02*
Y266499D01*
X-42996Y208250D02*
X-42996Y271750D01*
X-15497Y208250D02*
Y271750D01*
X-10247Y213501D02*
Y266499D01*
X24753Y213501D02*
Y266499D01*
X80400Y649600D02*
X90400D01*
Y659600D01*
X80400D02*
X90400D01*
X80400Y649600D02*
Y659600D01*
Y700400D02*
X90400D01*
X80400D02*
Y710400D01*
X90400D01*
Y700400D02*
Y710400D01*
X39600Y700400D02*
Y710400D01*
X29600Y700400D02*
X39600D01*
X29600D02*
Y710400D01*
X39600D01*
X29600Y659600D02*
X39600D01*
Y649600D02*
Y659600D01*
X29600Y649600D02*
X39600D01*
X29600D02*
Y659600D01*
X28250Y650950D02*
Y708995D01*
X30950Y648250D02*
X88995D01*
X31005Y711750D02*
X88995D01*
X91750Y651005D02*
Y708995D01*
X27253Y708999D02*
X28250Y708995D01*
X24753Y706499D02*
X27253Y708999D01*
X-10247Y706499D02*
X24753Y706499D01*
X-15497Y711750D02*
X-10247Y706499D01*
X-42996Y711750D02*
X-15497Y711750D01*
X-48247Y706499D02*
X-42996Y711750D01*
X-55747Y706499D02*
X-48247Y706499D01*
X-56247Y705999D02*
X-55747Y706499D01*
X-56247Y703749D02*
X-56247Y705999D01*
X-56247Y656251D02*
X-56247Y654001D01*
X-55747Y653501D01*
X-48247Y653501D01*
X-42996Y648250D01*
X-15497D01*
X-10247Y653501D01*
X24753Y653501D01*
X27253Y651001D01*
X28250Y651005D01*
X-56247Y656251D02*
Y703749D01*
X-48247Y653501D02*
Y706499D01*
X-42996Y711750D02*
X-42996Y648250D01*
X-15497D02*
Y711750D01*
X-10247Y653501D02*
Y706499D01*
X24753Y653501D02*
Y706499D01*
X80400Y799600D02*
X90400D01*
Y809600D01*
X80400D02*
X90400D01*
X80400Y799600D02*
Y809600D01*
Y850400D02*
X90400D01*
X80400D02*
Y860400D01*
X90400D01*
Y850400D02*
Y860400D01*
X39600Y850400D02*
Y860400D01*
X29600Y850400D02*
X39600D01*
X29600D02*
Y860400D01*
X39600D01*
X29600Y809600D02*
X39600D01*
Y799600D02*
Y809600D01*
X29600Y799600D02*
X39600D01*
X29600D02*
Y809600D01*
X28250Y800950D02*
Y858995D01*
X30950Y798250D02*
X88995D01*
X31005Y861750D02*
X88995D01*
X91750Y801005D02*
Y858995D01*
X27253Y858999D02*
X28250Y858995D01*
X24753Y856499D02*
X27253Y858999D01*
X-10247Y856499D02*
X24753Y856499D01*
X-15497Y861750D02*
X-10247Y856499D01*
X-42996Y861750D02*
X-15497D01*
X-48247Y856499D02*
X-42996Y861750D01*
X-55747Y856499D02*
X-48247Y856499D01*
X-56247Y855999D02*
X-55747Y856499D01*
X-56247Y853749D02*
X-56247Y855999D01*
X-56247Y806251D02*
X-56247Y804001D01*
X-55747Y803501D01*
X-48247Y803501D01*
X-42996Y798250D01*
X-15497Y798250D01*
X-10247Y803501D01*
X24753Y803501D01*
X27253Y801001D01*
X28250Y801005D01*
X-56247Y806251D02*
Y853749D01*
X-48247Y803501D02*
Y856499D01*
X-42996Y798250D02*
X-42996Y861750D01*
X-15497Y798250D02*
Y861750D01*
X-10247Y803501D02*
Y856499D01*
X24753Y803501D02*
Y856499D01*
D383*
X840840Y722840D02*
D03*
X202140Y951130D02*
D03*
X226822Y964184D02*
D03*
X2918968Y774700D02*
D03*
D384*
X27253Y351001D02*
Y408999D01*
Y211001D02*
Y268999D01*
Y651001D02*
Y708999D01*
Y801001D02*
Y858999D01*
M02*
