G04*
G04 #@! TF.GenerationSoftware,Altium Limited,Altium Designer,24.1.2 (44)*
G04*
G04 Layer_Color=16711935*
%FSLAX44Y44*%
%MOMM*%
G71*
G04*
G04 #@! TF.SameCoordinates,140FFB89-E29E-458A-976C-A302E020C20F*
G04*
G04*
G04 #@! TF.FilePolarity,Positive*
G04*
G01*
G75*
%ADD10C,0.1270*%
%ADD12C,0.2540*%
%ADD13C,0.2500*%
%ADD17C,0.1000*%
%ADD21C,0.1750*%
%ADD387C,0.0650*%
%ADD388C,0.1016*%
D10*
X787483Y367700D02*
G03*
X787483Y367700I-4243J0D01*
G01*
X878750Y625010D02*
G03*
X878750Y625010I-5000J0D01*
G01*
X426734Y453670D02*
G03*
X426734Y453670I-4854J0D01*
G01*
X517141Y488232D02*
G03*
X517141Y488232I-4854J0D01*
G01*
X404876Y926965D02*
G03*
X404876Y926965I-5006J0D01*
G01*
X228400Y933196D02*
G03*
X228400Y933196I-1832J0D01*
G01*
X637448Y23448D02*
G03*
X637448Y23448I-1832J0D01*
G01*
X1511654Y199795D02*
G03*
X1511654Y199795I-4854J0D01*
G01*
X3050000Y0D02*
G03*
X3110000Y60000I-0J60000D01*
G01*
X3110000Y1000000D02*
G03*
X3050000Y1060000I-60000J0D01*
G01*
X60000D02*
G03*
X-0Y1000000I-0J-60000D01*
G01*
X0Y60000D02*
G03*
X60000Y-0I60000J-0D01*
G01*
X581000Y-6350D02*
G03*
X562000Y-6350I-9500J0D01*
G01*
X772840Y358140D02*
Y429260D01*
X823640Y358140D02*
Y429260D01*
X772840D02*
X823640D01*
X772840Y358140D02*
X823640D01*
X255890Y970270D02*
Y1026170D01*
X295290Y970270D02*
Y1026170D01*
X255890D02*
X295290D01*
X255890Y970270D02*
X295290D01*
X838750Y670010D02*
Y760010D01*
X748750Y670010D02*
X838750D01*
X748750D02*
Y760010D01*
X838750D01*
X679950Y607510D02*
X892550Y607510D01*
Y607510D02*
X907550Y622510D01*
Y822510D01*
X679950Y607510D02*
Y822510D01*
X907550D01*
X1894050Y36040D02*
X1954050D01*
X1894050Y96040D02*
X1954050D01*
X1894050Y36040D02*
Y96040D01*
X1954050Y36040D02*
Y96040D01*
X1721330Y36040D02*
X1781330D01*
X1721330Y96040D02*
X1781330D01*
X1721330Y36040D02*
Y96040D01*
X1781330Y36040D02*
Y96040D01*
X723110Y831370D02*
X783110D01*
X723110Y771370D02*
X783110D01*
Y831370D01*
X723110Y771370D02*
Y831370D01*
X717050Y936350D02*
X767050Y936350D01*
Y986350D01*
X717050Y986350D02*
X767050Y986350D01*
X717050Y980100D02*
Y986350D01*
Y980100D02*
X719550Y978850D01*
X717050Y977600D02*
X719550Y978850D01*
X717050Y936350D02*
Y977600D01*
X378880Y497422D02*
X431381D01*
X431381Y444921D01*
X378880D02*
Y497422D01*
Y444921D02*
X431381D01*
X468535Y445233D02*
Y497733D01*
X521035D01*
X468535Y445233D02*
X521035D01*
Y497733D01*
X643925Y446035D02*
Y497535D01*
Y446035D02*
X695425D01*
Y497535D01*
X643925D02*
X695425D01*
X525480Y916520D02*
Y927520D01*
X551480Y916520D02*
Y927520D01*
X525480Y916520D02*
X551480D01*
X525480Y927520D02*
X551480D01*
X409370Y860715D02*
Y936715D01*
X304370Y860715D02*
X409370D01*
X304370D02*
Y936715D01*
X409370D01*
X222640Y929490D02*
X239640D01*
X222640Y942490D02*
X239640D01*
X222640Y929490D02*
Y942490D01*
X239640Y929490D02*
Y942490D01*
X631910Y36520D02*
X631910Y19520D01*
X644910Y36520D02*
X644910Y19520D01*
X631910D02*
X644910D01*
X631910Y36520D02*
X644910D01*
X603030Y24940D02*
Y35940D01*
X629030Y24940D02*
Y35940D01*
X603030D02*
X629030D01*
X603030Y24940D02*
X629030D01*
X2516160Y855440D02*
X2584160D01*
Y724440D02*
Y855440D01*
X2516160Y724440D02*
X2584160D01*
X2516160D02*
Y855440D01*
X2690150D02*
X2758150D01*
Y724440D02*
Y855440D01*
X2690150Y724440D02*
X2758150D01*
X2690150D02*
Y855440D01*
X1498051Y156796D02*
Y209296D01*
Y156796D02*
X1550552D01*
X1498051Y209296D02*
X1550552D01*
Y156796D02*
Y209296D01*
X673100Y0D02*
X3050000D01*
X3110000Y1000000D02*
X3110000Y60000D01*
X60000Y1060000D02*
X3050000D01*
X-0Y1000000D02*
X0Y60000D01*
X60000Y-0D02*
X431800Y-0D01*
X450500D01*
Y-81350D02*
Y-0D01*
Y-81350D02*
X455500Y-86350D01*
X557000D01*
X562000Y-81350D01*
Y-6350D01*
X581000Y-81350D02*
Y-6350D01*
Y-81350D02*
X586000Y-86350D01*
X648000D01*
X653000Y-81350D01*
Y-0D01*
X673100D01*
D12*
X713490Y586994D02*
G03*
X713490Y586994I-8132J0D01*
G01*
X648278Y449034D02*
G03*
X648278Y449034I-353J0D01*
G01*
X2530266Y822940D02*
G03*
X2530266Y822940I-3606J0D01*
G01*
X2704256D02*
G03*
X2704256Y822940I-3606J0D01*
G01*
X488950Y568833D02*
Y704723D01*
X720090D01*
X488950Y568833D02*
X720090D01*
Y704723D01*
D13*
X320965Y858774D02*
G03*
X320965Y858774I-417J0D01*
G01*
X2692309Y82724D02*
G03*
X2692309Y82724I-417J0D01*
G01*
X2541433Y394462D02*
G03*
X2541433Y394462I-417J0D01*
G01*
D17*
X1386220Y132115D02*
G03*
X1386220Y132115I-3000J0D01*
G01*
X2062830Y505970D02*
G03*
X2062830Y505970I-5000J0D01*
G01*
X529820Y924560D02*
G03*
X529820Y924560I-1500J0D01*
G01*
X636450Y224450D02*
G03*
X636450Y224450I-5000J0D01*
G01*
X604950Y223950D02*
G03*
X604950Y223950I-5000J0D01*
G01*
X607370Y27900D02*
G03*
X607370Y27900I-1500J0D01*
G01*
X2104740Y271020D02*
G03*
X2104740Y271020I-5000J0D01*
G01*
X2104740Y338330D02*
G03*
X2104740Y338330I-5000J0D01*
G01*
X2104740Y235630D02*
G03*
X2104740Y235630I-5000J0D01*
G01*
Y302940D02*
G03*
X2104740Y302940I-5000J0D01*
G01*
X1377720Y106615D02*
Y137615D01*
X1408720Y106615D02*
Y137615D01*
X1377720D02*
X1408720D01*
X1377720Y106615D02*
X1408720D01*
X2048830Y496970D02*
Y546970D01*
X2088830Y496970D02*
Y546970D01*
X2048830Y496970D02*
X2088830D01*
X2048830Y546970D02*
X2088830D01*
X294680Y855330D02*
X325080D01*
X294680Y869330D02*
X325080D01*
Y855330D02*
Y869330D01*
X294680Y855330D02*
Y869330D01*
X591450Y215450D02*
Y254450D01*
X640450Y215450D02*
Y254450D01*
X591450D02*
X640450D01*
X591450Y215450D02*
X640450D01*
X590950Y214950D02*
X640950D01*
X590950Y254950D02*
X640950D01*
X590950Y214950D02*
Y254950D01*
X640950Y214950D02*
Y254950D01*
X2687360Y79280D02*
X2717760D01*
X2687360Y93280D02*
X2717760D01*
X2687360Y79280D02*
Y93280D01*
X2717760Y79280D02*
Y93280D01*
X2090740Y312020D02*
X2130740D01*
X2090740Y262020D02*
X2130740D01*
Y312020D01*
X2090740D02*
X2090740Y262020D01*
Y379330D02*
X2130740D01*
X2090740Y329330D02*
X2130740D01*
Y379330D01*
X2090740Y329330D02*
Y379330D01*
X2544460Y389930D02*
Y420330D01*
X2530460Y389930D02*
Y420330D01*
Y389930D02*
X2544460D01*
X2530460Y420330D02*
X2544460D01*
X2090740Y194630D02*
X2130740D01*
X2090740Y244630D02*
X2130740D01*
Y194630D02*
Y244630D01*
X2090740Y194630D02*
Y244630D01*
Y261940D02*
X2130740D01*
X2090740Y311940D02*
X2130740D01*
Y261940D02*
Y311940D01*
X2090740Y261940D02*
Y311940D01*
X2971850Y933174D02*
Y1060174D01*
X2828340D02*
X2971850D01*
X2828340Y933174D02*
X2971850D01*
X2828340D02*
Y1060174D01*
D21*
X1731010Y284685D02*
G03*
X1731010Y284685I-7620J0D01*
G01*
X1814830Y372110D02*
G03*
X1814830Y372110I-7620J0D01*
G01*
X1606550Y543560D02*
G03*
X1606550Y543560I-7620J0D01*
G01*
Y701040D02*
G03*
X1606550Y701040I-7620J0D01*
G01*
X653667Y593702D02*
G03*
X653667Y593702I-7620J0D01*
G01*
X1733550Y274525D02*
Y376125D01*
X1631950Y274525D02*
X1733550D01*
X1631950D02*
Y376125D01*
X1733550D01*
X1898650Y361950D02*
Y463550D01*
X1797050D02*
X1898650D01*
X1797050Y361950D02*
Y463550D01*
Y361950D02*
X1898650D01*
X1690370Y533400D02*
Y635000D01*
X1588770D02*
X1690370D01*
X1588770Y533400D02*
Y635000D01*
Y533400D02*
X1690370D01*
Y609600D02*
Y711200D01*
X1588770Y609600D02*
X1690370D01*
X1588770D02*
Y711200D01*
X1690370D01*
X656207Y583542D02*
Y685142D01*
X554607Y583542D02*
X656207D01*
X554607D02*
Y685142D01*
X656207D01*
D387*
X103180Y395082D02*
X110180D01*
X103180Y384082D02*
X110180D01*
Y395082D01*
X103180Y384082D02*
Y395082D01*
X103450Y254420D02*
X110450D01*
X103450Y243420D02*
X110450D01*
Y254420D01*
X103450Y243420D02*
Y254420D01*
X103180Y676490D02*
Y687490D01*
X110180Y676490D02*
Y687490D01*
X103180Y676490D02*
X110180D01*
X103180Y687490D02*
X110180D01*
X103180Y827620D02*
Y838620D01*
X110180Y827620D02*
Y838620D01*
X103180Y827620D02*
X110180D01*
X103180Y838620D02*
X110180D01*
D388*
X3095667Y251250D02*
Y253916D01*
Y252583D01*
X3103665D01*
Y251250D01*
Y253916D01*
Y257915D02*
X3095667D01*
X3103665Y263246D01*
X3095667D01*
X3097000Y271244D02*
X3095667Y269911D01*
Y267245D01*
X3097000Y265912D01*
X3098333D01*
X3099666Y267245D01*
Y269911D01*
X3100999Y271244D01*
X3102332D01*
X3103665Y269911D01*
Y267245D01*
X3102332Y265912D01*
X3095667Y279241D02*
Y273909D01*
X3103665D01*
Y279241D01*
X3099666Y273909D02*
Y276575D01*
X3103665Y281907D02*
X3095667D01*
Y285905D01*
X3097000Y287238D01*
X3099666D01*
X3100999Y285905D01*
Y281907D01*
Y284573D02*
X3103665Y287238D01*
X3095667Y289904D02*
Y295236D01*
Y292570D01*
X3103665D01*
X3095667Y305899D02*
X3103665D01*
X3100999Y308565D01*
X3103665Y311231D01*
X3095667D01*
Y313897D02*
Y316562D01*
Y315229D01*
X3103665D01*
Y313897D01*
Y316562D01*
Y320561D02*
X3095667D01*
Y324560D01*
X3097000Y325893D01*
X3099666D01*
X3100999Y324560D01*
Y320561D01*
Y323227D02*
X3103665Y325893D01*
X3095667Y333890D02*
Y328558D01*
X3103665D01*
Y333890D01*
X3099666Y328558D02*
Y331224D01*
X3097000Y341887D02*
X3095667Y340555D01*
Y337889D01*
X3097000Y336556D01*
X3098333D01*
X3099666Y337889D01*
Y340555D01*
X3100999Y341887D01*
X3102332D01*
X3103665Y340555D01*
Y337889D01*
X3102332Y336556D01*
X3095667Y356549D02*
Y353884D01*
X3097000Y352551D01*
X3102332D01*
X3103665Y353884D01*
Y356549D01*
X3102332Y357882D01*
X3097000D01*
X3095667Y356549D01*
X3103665Y360548D02*
X3095667D01*
X3103665Y365880D01*
X3095667D01*
Y376543D02*
Y381875D01*
Y379209D01*
X3103665D01*
X3095667Y384540D02*
X3103665D01*
X3099666D01*
Y389872D01*
X3095667D01*
X3103665D01*
X3095667Y392538D02*
Y395204D01*
Y393871D01*
X3103665D01*
Y392538D01*
Y395204D01*
X3097000Y404534D02*
X3095667Y403201D01*
Y400535D01*
X3097000Y399202D01*
X3098333D01*
X3099666Y400535D01*
Y403201D01*
X3100999Y404534D01*
X3102332D01*
X3103665Y403201D01*
Y400535D01*
X3102332Y399202D01*
X3097000Y420529D02*
X3095667Y419196D01*
Y416530D01*
X3097000Y415197D01*
X3098333D01*
X3099666Y416530D01*
Y419196D01*
X3100999Y420529D01*
X3102332D01*
X3103665Y419196D01*
Y416530D01*
X3102332Y415197D01*
X3095667Y423195D02*
Y425860D01*
Y424527D01*
X3103665D01*
Y423195D01*
Y425860D01*
X3095667Y429859D02*
X3103665D01*
Y433858D01*
X3102332Y435191D01*
X3097000D01*
X3095667Y433858D01*
Y429859D01*
Y443188D02*
Y437856D01*
X3103665D01*
Y443188D01*
X3099666Y437856D02*
Y440522D01*
M02*
