G04*
G04 #@! TF.GenerationSoftware,Altium Limited,Altium Designer,24.1.2 (44)*
G04*
G04 Layer_Color=8242323*
%FSLAX44Y44*%
%MOMM*%
G71*
G04*
G04 #@! TF.SameCoordinates,140FFB89-E29E-458A-976C-A302E020C20F*
G04*
G04*
G04 #@! TF.FilePolarity,Positive*
G04*
G01*
G75*
%ADD11C,0.5080*%
%ADD12C,0.2540*%
%ADD16C,0.1524*%
%ADD293C,0.2032*%
D11*
X-1170522Y2418194D02*
X-1187450D01*
Y2405498D01*
X-1178986D01*
X-1187450D01*
Y2392802D01*
X-1162058D02*
Y2409730D01*
X-1153594Y2418194D01*
X-1145130Y2409730D01*
Y2392802D01*
Y2405498D01*
X-1162058D01*
X-1136666Y2418194D02*
Y2392802D01*
X-1123970D01*
X-1119739Y2397034D01*
Y2401266D01*
X-1123970Y2405498D01*
X-1136666D01*
X-1123970D01*
X-1119739Y2409730D01*
Y2413962D01*
X-1123970Y2418194D01*
X-1136666D01*
X-1111275Y2392802D02*
Y2418194D01*
X-1098579D01*
X-1094347Y2413962D01*
Y2405498D01*
X-1098579Y2401266D01*
X-1111275D01*
X-1102811D02*
X-1094347Y2392802D01*
X-1085883Y2418194D02*
X-1077419D01*
X-1081651D01*
Y2392802D01*
X-1085883D01*
X-1077419D01*
X-1047795Y2413962D02*
X-1052027Y2418194D01*
X-1060491D01*
X-1064723Y2413962D01*
Y2397034D01*
X-1060491Y2392802D01*
X-1052027D01*
X-1047795Y2397034D01*
X-1039331Y2392802D02*
Y2409730D01*
X-1030867Y2418194D01*
X-1022403Y2409730D01*
Y2392802D01*
Y2405498D01*
X-1039331D01*
X-1013939Y2418194D02*
X-997011D01*
X-1005475D01*
Y2392802D01*
X-988548Y2418194D02*
X-980084D01*
X-984316D01*
Y2392802D01*
X-988548D01*
X-980084D01*
X-954692Y2418194D02*
X-963156D01*
X-967388Y2413962D01*
Y2397034D01*
X-963156Y2392802D01*
X-954692D01*
X-950460Y2397034D01*
Y2413962D01*
X-954692Y2418194D01*
X-941996Y2392802D02*
Y2418194D01*
X-925068Y2392802D01*
Y2418194D01*
X-891212Y2392802D02*
Y2418194D01*
X-874285Y2392802D01*
Y2418194D01*
X-853125D02*
X-861589D01*
X-865821Y2413962D01*
Y2397034D01*
X-861589Y2392802D01*
X-853125D01*
X-848893Y2397034D01*
Y2413962D01*
X-853125Y2418194D01*
X-840429D02*
X-823501D01*
X-831965D01*
Y2392802D01*
X-798109Y2418194D02*
X-815037D01*
Y2392802D01*
X-798109D01*
X-815037Y2405498D02*
X-806573D01*
X-772717Y2413962D02*
X-776949Y2418194D01*
X-785413D01*
X-789645Y2413962D01*
Y2409730D01*
X-785413Y2405498D01*
X-776949D01*
X-772717Y2401266D01*
Y2397034D01*
X-776949Y2392802D01*
X-785413D01*
X-789645Y2397034D01*
X-764253Y2409730D02*
X-760021D01*
Y2405498D01*
X-764253D01*
Y2409730D01*
Y2397034D02*
X-760021D01*
Y2392802D01*
X-764253D01*
Y2397034D01*
X-1178986Y2350140D02*
X-1187450D01*
Y2375532D01*
X-1178986D01*
X-1166290Y2350140D02*
X-1157826D01*
X-1162058D01*
Y2375532D01*
X-1166290Y2371300D01*
X-1145130Y2350140D02*
X-1136666D01*
Y2375532D01*
X-1145130D01*
X-980084D02*
X-997011D01*
Y2362836D01*
X-988548D01*
X-997011D01*
Y2350140D01*
X-971620D02*
Y2367068D01*
X-963156Y2375532D01*
X-954692Y2367068D01*
Y2350140D01*
Y2362836D01*
X-971620D01*
X-946228Y2375532D02*
Y2350140D01*
X-933532D01*
X-929300Y2354372D01*
Y2358604D01*
X-933532Y2362836D01*
X-946228D01*
X-933532D01*
X-929300Y2367068D01*
Y2371300D01*
X-933532Y2375532D01*
X-946228D01*
X-920836Y2350140D02*
Y2375532D01*
X-908140D01*
X-903908Y2371300D01*
Y2362836D01*
X-908140Y2358604D01*
X-920836D01*
X-912372D02*
X-903908Y2350140D01*
X-895444Y2375532D02*
X-886980D01*
X-891212D01*
Y2350140D01*
X-895444D01*
X-886980D01*
X-857357Y2371300D02*
X-861589Y2375532D01*
X-870053D01*
X-874285Y2371300D01*
Y2354372D01*
X-870053Y2350140D01*
X-861589D01*
X-857357Y2354372D01*
X-848893Y2350140D02*
Y2367068D01*
X-840429Y2375532D01*
X-831965Y2367068D01*
Y2350140D01*
Y2362836D01*
X-848893D01*
X-823501Y2375532D02*
X-806573D01*
X-815037D01*
Y2350140D01*
X-781181Y2375532D02*
X-798109D01*
Y2350140D01*
X-781181D01*
X-798109Y2362836D02*
X-789645D01*
X-747326Y2375532D02*
X-730398D01*
X-738862D01*
Y2350140D01*
X-709238Y2375532D02*
X-717702D01*
X-721934Y2371300D01*
Y2354372D01*
X-717702Y2350140D01*
X-709238D01*
X-705006Y2354372D01*
Y2371300D01*
X-709238Y2375532D01*
X-671150D02*
X-662686D01*
X-666918D01*
Y2350140D01*
X-671150D01*
X-662686D01*
X-649990D02*
Y2375532D01*
X-637295D01*
X-633063Y2371300D01*
Y2362836D01*
X-637295Y2358604D01*
X-649990D01*
X-607671Y2371300D02*
X-611903Y2375532D01*
X-620367D01*
X-624599Y2371300D01*
Y2354372D01*
X-620367Y2350140D01*
X-611903D01*
X-607671Y2354372D01*
X-556887Y2371300D02*
X-561119Y2375532D01*
X-569583D01*
X-573815Y2371300D01*
Y2354372D01*
X-569583Y2350140D01*
X-561119D01*
X-556887Y2354372D01*
X-548423Y2375532D02*
Y2350140D01*
X-531495D01*
X-523031D02*
Y2367068D01*
X-514567Y2375532D01*
X-506104Y2367068D01*
Y2350140D01*
Y2362836D01*
X-523031D01*
X-480712Y2371300D02*
X-484944Y2375532D01*
X-493408D01*
X-497640Y2371300D01*
Y2367068D01*
X-493408Y2362836D01*
X-484944D01*
X-480712Y2358604D01*
Y2354372D01*
X-484944Y2350140D01*
X-493408D01*
X-497640Y2354372D01*
X-455320Y2371300D02*
X-459552Y2375532D01*
X-468016D01*
X-472248Y2371300D01*
Y2367068D01*
X-468016Y2362836D01*
X-459552D01*
X-455320Y2358604D01*
Y2354372D01*
X-459552Y2350140D01*
X-468016D01*
X-472248Y2354372D01*
X-421464Y2371300D02*
X-417232Y2375532D01*
X-408768D01*
X-404536Y2371300D01*
Y2367068D01*
X-408768Y2362836D01*
X-413000D01*
X-408768D01*
X-404536Y2358604D01*
Y2354372D01*
X-408768Y2350140D01*
X-417232D01*
X-421464Y2354372D01*
X-353753Y2371300D02*
X-357985Y2375532D01*
X-366449D01*
X-370681Y2371300D01*
Y2367068D01*
X-366449Y2362836D01*
X-357985D01*
X-353753Y2358604D01*
Y2354372D01*
X-357985Y2350140D01*
X-366449D01*
X-370681Y2354372D01*
X-345289Y2375532D02*
X-328361D01*
X-336825D01*
Y2350140D01*
X-319897D02*
Y2367068D01*
X-311433Y2375532D01*
X-302969Y2367068D01*
Y2350140D01*
Y2362836D01*
X-319897D01*
X-294505Y2350140D02*
Y2375532D01*
X-277577Y2350140D01*
Y2375532D01*
X-269113D02*
Y2350140D01*
X-256418D01*
X-252186Y2354372D01*
Y2371300D01*
X-256418Y2375532D01*
X-269113D01*
X-243722Y2350140D02*
Y2367068D01*
X-235258Y2375532D01*
X-226794Y2367068D01*
Y2350140D01*
Y2362836D01*
X-243722D01*
X-218330Y2350140D02*
Y2375532D01*
X-205634D01*
X-201402Y2371300D01*
Y2362836D01*
X-205634Y2358604D01*
X-218330D01*
X-209866D02*
X-201402Y2350140D01*
X-192938Y2375532D02*
Y2350140D01*
X-180242D01*
X-176010Y2354372D01*
Y2371300D01*
X-180242Y2375532D01*
X-192938D01*
X-167546Y2350140D02*
Y2354372D01*
X-163314D01*
Y2350140D01*
X-167546D01*
X-1178986Y2307478D02*
X-1187450D01*
Y2332870D01*
X-1178986D01*
X-1149362Y2307478D02*
X-1166290D01*
X-1149362Y2324406D01*
Y2328638D01*
X-1153594Y2332870D01*
X-1162058D01*
X-1166290Y2328638D01*
X-1140898Y2307478D02*
X-1132434D01*
Y2332870D01*
X-1140898D01*
X-975852D02*
X-992780D01*
Y2320174D01*
X-984316D01*
X-992780D01*
Y2307478D01*
X-967388D02*
Y2324406D01*
X-958924Y2332870D01*
X-950460Y2324406D01*
Y2307478D01*
Y2320174D01*
X-967388D01*
X-941996Y2332870D02*
Y2307478D01*
X-929300D01*
X-925068Y2311710D01*
Y2315942D01*
X-929300Y2320174D01*
X-941996D01*
X-929300D01*
X-925068Y2324406D01*
Y2328638D01*
X-929300Y2332870D01*
X-941996D01*
X-916604Y2307478D02*
Y2332870D01*
X-903908D01*
X-899676Y2328638D01*
Y2320174D01*
X-903908Y2315942D01*
X-916604D01*
X-908140D02*
X-899676Y2307478D01*
X-891212Y2332870D02*
X-882748D01*
X-886980D01*
Y2307478D01*
X-891212D01*
X-882748D01*
X-853125Y2328638D02*
X-857357Y2332870D01*
X-865821D01*
X-870053Y2328638D01*
Y2311710D01*
X-865821Y2307478D01*
X-857357D01*
X-853125Y2311710D01*
X-844661Y2307478D02*
Y2324406D01*
X-836197Y2332870D01*
X-827733Y2324406D01*
Y2307478D01*
Y2320174D01*
X-844661D01*
X-819269Y2332870D02*
X-802341D01*
X-810805D01*
Y2307478D01*
X-776949Y2332870D02*
X-793877D01*
Y2307478D01*
X-776949D01*
X-793877Y2320174D02*
X-785413D01*
X-743094Y2307478D02*
Y2332870D01*
X-730398D01*
X-726166Y2328638D01*
Y2320174D01*
X-730398Y2315942D01*
X-743094D01*
X-700774Y2328638D02*
X-705006Y2332870D01*
X-713470D01*
X-717702Y2328638D01*
Y2311710D01*
X-713470Y2307478D01*
X-705006D01*
X-700774Y2311710D01*
X-692310Y2332870D02*
Y2307478D01*
X-679614D01*
X-675382Y2311710D01*
Y2315942D01*
X-679614Y2320174D01*
X-692310D01*
X-679614D01*
X-675382Y2324406D01*
Y2328638D01*
X-679614Y2332870D01*
X-692310D01*
X-641526D02*
Y2311710D01*
X-637294Y2307478D01*
X-628830D01*
X-624599Y2311710D01*
Y2332870D01*
X-599207Y2328638D02*
X-603439Y2332870D01*
X-611903D01*
X-616135Y2328638D01*
Y2324406D01*
X-611903Y2320174D01*
X-603439D01*
X-599207Y2315942D01*
Y2311710D01*
X-603439Y2307478D01*
X-611903D01*
X-616135Y2311710D01*
X-590743Y2332870D02*
X-582279D01*
X-586511D01*
Y2307478D01*
X-590743D01*
X-582279D01*
X-569583D02*
Y2332870D01*
X-552655Y2307478D01*
Y2332870D01*
X-527263Y2328638D02*
X-531495Y2332870D01*
X-539959D01*
X-544191Y2328638D01*
Y2311710D01*
X-539959Y2307478D01*
X-531495D01*
X-527263Y2311710D01*
Y2320174D01*
X-535727D01*
X-480712Y2332870D02*
X-489176D01*
X-493408Y2328638D01*
Y2311710D01*
X-489176Y2307478D01*
X-480712D01*
X-476480Y2311710D01*
Y2328638D01*
X-480712Y2332870D01*
X-468016Y2307478D02*
Y2332870D01*
X-451088Y2307478D01*
Y2332870D01*
X-442624D02*
Y2307478D01*
X-425696D01*
X-417232Y2332870D02*
Y2328638D01*
X-408768Y2320174D01*
X-400304Y2328638D01*
Y2332870D01*
X-408768Y2320174D02*
Y2307478D01*
X-366449D02*
Y2332870D01*
X-353753D01*
X-349521Y2328638D01*
Y2320174D01*
X-353753Y2315942D01*
X-366449D01*
X-357985D02*
X-349521Y2307478D01*
X-336825D02*
X-328361D01*
X-324129Y2311710D01*
Y2320174D01*
X-328361Y2324406D01*
X-336825D01*
X-341057Y2320174D01*
Y2311710D01*
X-336825Y2307478D01*
X-315665Y2332870D02*
Y2307478D01*
Y2320174D01*
X-298737D01*
Y2332870D01*
Y2307478D01*
X-273345Y2328638D02*
X-277577Y2332870D01*
X-286041D01*
X-290273Y2328638D01*
Y2324406D01*
X-286041Y2320174D01*
X-277577D01*
X-273345Y2315942D01*
Y2311710D01*
X-277577Y2307478D01*
X-286041D01*
X-290273Y2311710D01*
X-222562Y2328638D02*
X-226794Y2332870D01*
X-235258D01*
X-239490Y2328638D01*
Y2311710D01*
X-235258Y2307478D01*
X-226794D01*
X-222562Y2311710D01*
X-201402Y2332870D02*
X-209866D01*
X-214098Y2328638D01*
Y2311710D01*
X-209866Y2307478D01*
X-201402D01*
X-197170Y2311710D01*
Y2328638D01*
X-201402Y2332870D01*
X-188706Y2307478D02*
Y2332870D01*
X-180242Y2324406D01*
X-171778Y2332870D01*
Y2307478D01*
X-163314D02*
Y2332870D01*
X-150618D01*
X-146386Y2328638D01*
Y2320174D01*
X-150618Y2315942D01*
X-163314D01*
X-137922Y2332870D02*
Y2307478D01*
X-120995D01*
X-112531Y2332870D02*
X-104067D01*
X-108299D01*
Y2307478D01*
X-112531D01*
X-104067D01*
X-91371D02*
Y2324406D01*
X-82907Y2332870D01*
X-74443Y2324406D01*
Y2307478D01*
Y2320174D01*
X-91371D01*
X-65979Y2307478D02*
Y2332870D01*
X-49051Y2307478D01*
Y2332870D01*
X-40587D02*
X-23659D01*
X-32123D01*
Y2307478D01*
X10196D02*
Y2332870D01*
X18660Y2324406D01*
X27124Y2332870D01*
Y2307478D01*
X35588D02*
Y2324406D01*
X44052Y2332870D01*
X52516Y2324406D01*
Y2307478D01*
Y2320174D01*
X35588D01*
X60980Y2332870D02*
X77908D01*
X69444D01*
Y2307478D01*
X103300Y2332870D02*
X86372D01*
Y2307478D01*
X103300D01*
X86372Y2320174D02*
X94836D01*
X111763Y2307478D02*
Y2332870D01*
X124459D01*
X128691Y2328638D01*
Y2320174D01*
X124459Y2315942D01*
X111763D01*
X120227D02*
X128691Y2307478D01*
X137155Y2332870D02*
X145619D01*
X141387D01*
Y2307478D01*
X137155D01*
X145619D01*
X158315D02*
Y2324406D01*
X166779Y2332870D01*
X175243Y2324406D01*
Y2307478D01*
Y2320174D01*
X158315D01*
X183707Y2332870D02*
Y2307478D01*
X200635D01*
X226027Y2328638D02*
X221795Y2332870D01*
X213331D01*
X209099Y2328638D01*
Y2324406D01*
X213331Y2320174D01*
X221795D01*
X226027Y2315942D01*
Y2311710D01*
X221795Y2307478D01*
X213331D01*
X209099Y2311710D01*
X234491Y2307478D02*
Y2311710D01*
X238722D01*
Y2307478D01*
X234491D01*
X-891212Y2290208D02*
X-908140D01*
Y2277512D01*
X-899676D01*
X-908140D01*
Y2264816D01*
X-882748Y2290208D02*
X-874285D01*
X-878516D01*
Y2264816D01*
X-882748D01*
X-874285D01*
X-861589D02*
Y2290208D01*
X-844661Y2264816D01*
Y2290208D01*
X-836197Y2264816D02*
Y2281744D01*
X-827733Y2290208D01*
X-819269Y2281744D01*
Y2264816D01*
Y2277512D01*
X-836197D01*
X-810805Y2290208D02*
Y2264816D01*
X-793877D01*
X-760021D02*
Y2290208D01*
X-747326D01*
X-743094Y2285976D01*
Y2277512D01*
X-747326Y2273280D01*
X-760021D01*
X-734630Y2264816D02*
Y2290208D01*
X-721934D01*
X-717702Y2285976D01*
Y2277512D01*
X-721934Y2273280D01*
X-734630D01*
X-726166D02*
X-717702Y2264816D01*
X-696542Y2290208D02*
X-705006D01*
X-709238Y2285976D01*
Y2269048D01*
X-705006Y2264816D01*
X-696542D01*
X-692310Y2269048D01*
Y2285976D01*
X-696542Y2290208D01*
X-683846D02*
Y2264816D01*
X-671150D01*
X-666918Y2269048D01*
Y2285976D01*
X-671150Y2290208D01*
X-683846D01*
X-658454D02*
Y2269048D01*
X-654222Y2264816D01*
X-645758D01*
X-641526Y2269048D01*
Y2290208D01*
X-616135Y2285976D02*
X-620367Y2290208D01*
X-628830D01*
X-633063Y2285976D01*
Y2269048D01*
X-628830Y2264816D01*
X-620367D01*
X-616135Y2269048D01*
X-607671Y2290208D02*
X-590743D01*
X-599207D01*
Y2264816D01*
X-539959Y2285976D02*
X-544191Y2290208D01*
X-552655D01*
X-556887Y2285976D01*
Y2281744D01*
X-552655Y2277512D01*
X-544191D01*
X-539959Y2273280D01*
Y2269048D01*
X-544191Y2264816D01*
X-552655D01*
X-556887Y2269048D01*
X-531495Y2290208D02*
Y2264816D01*
Y2277512D01*
X-514567D01*
Y2290208D01*
Y2264816D01*
X-506104D02*
Y2281744D01*
X-497640Y2290208D01*
X-489176Y2281744D01*
Y2264816D01*
Y2277512D01*
X-506104D01*
X-480712Y2290208D02*
Y2264816D01*
X-463784D01*
X-455320Y2290208D02*
Y2264816D01*
X-438392D01*
X-404536Y2290208D02*
Y2264816D01*
X-391840D01*
X-387608Y2269048D01*
Y2273280D01*
X-391840Y2277512D01*
X-404536D01*
X-391840D01*
X-387608Y2281744D01*
Y2285976D01*
X-391840Y2290208D01*
X-404536D01*
X-362217D02*
X-379145D01*
Y2264816D01*
X-362217D01*
X-379145Y2277512D02*
X-370681D01*
X-328361Y2264816D02*
Y2281744D01*
X-319897Y2290208D01*
X-311433Y2281744D01*
Y2264816D01*
Y2277512D01*
X-328361D01*
X-286041Y2285976D02*
X-290273Y2290208D01*
X-298737D01*
X-302969Y2285976D01*
Y2269048D01*
X-298737Y2264816D01*
X-290273D01*
X-286041Y2269048D01*
X-260650Y2285976D02*
X-264881Y2290208D01*
X-273345D01*
X-277577Y2285976D01*
Y2269048D01*
X-273345Y2264816D01*
X-264881D01*
X-260650Y2269048D01*
X-235258Y2290208D02*
X-252185D01*
Y2264816D01*
X-235258D01*
X-252185Y2277512D02*
X-243722D01*
X-226794Y2264816D02*
Y2290208D01*
X-214098D01*
X-209866Y2285976D01*
Y2277512D01*
X-214098Y2273280D01*
X-226794D01*
X-201402Y2290208D02*
X-184474D01*
X-192938D01*
Y2264816D01*
X-176010D02*
Y2281744D01*
X-167546Y2290208D01*
X-159082Y2281744D01*
Y2264816D01*
Y2277512D01*
X-176010D01*
X-150618Y2290208D02*
Y2264816D01*
X-137922D01*
X-133691Y2269048D01*
Y2273280D01*
X-137922Y2277512D01*
X-150618D01*
X-137922D01*
X-133691Y2281744D01*
Y2285976D01*
X-137922Y2290208D01*
X-150618D01*
X-125226D02*
Y2264816D01*
X-108299D01*
X-82907Y2290208D02*
X-99835D01*
Y2264816D01*
X-82907D01*
X-99835Y2277512D02*
X-91371D01*
X-49051Y2290208D02*
X-32123D01*
X-40587D01*
Y2264816D01*
X-10963Y2290208D02*
X-19427D01*
X-23659Y2285976D01*
Y2269048D01*
X-19427Y2264816D01*
X-10963D01*
X-6732Y2269048D01*
Y2285976D01*
X-10963Y2290208D01*
X27124D02*
Y2269048D01*
X31356Y2264816D01*
X39820D01*
X44052Y2269048D01*
Y2290208D01*
X69444Y2285976D02*
X65212Y2290208D01*
X56748D01*
X52516Y2285976D01*
Y2281744D01*
X56748Y2277512D01*
X65212D01*
X69444Y2273280D01*
Y2269048D01*
X65212Y2264816D01*
X56748D01*
X52516Y2269048D01*
X94836Y2290208D02*
X77908D01*
Y2264816D01*
X94836D01*
X77908Y2277512D02*
X86372D01*
X128691Y2290208D02*
X137155D01*
X132923D01*
Y2264816D01*
X128691D01*
X137155D01*
X149851D02*
Y2290208D01*
X166779Y2264816D01*
Y2290208D01*
X200635Y2264816D02*
Y2290208D01*
X213331D01*
X217563Y2285976D01*
Y2277512D01*
X213331Y2273280D01*
X200635D01*
X209099D02*
X217563Y2264816D01*
X230259D02*
X238722D01*
X242955Y2269048D01*
Y2277512D01*
X238722Y2281744D01*
X230259D01*
X226027Y2277512D01*
Y2269048D01*
X230259Y2264816D01*
X251418Y2290208D02*
Y2264816D01*
Y2277512D01*
X268346D01*
Y2290208D01*
Y2264816D01*
X293738Y2285976D02*
X289506Y2290208D01*
X281042D01*
X276810Y2285976D01*
Y2281744D01*
X281042Y2277512D01*
X289506D01*
X293738Y2273280D01*
Y2269048D01*
X289506Y2264816D01*
X281042D01*
X276810Y2269048D01*
X327594Y2264816D02*
Y2281744D01*
X336058Y2290208D01*
X344522Y2281744D01*
Y2264816D01*
Y2277512D01*
X327594D01*
X369913Y2285976D02*
X365681Y2290208D01*
X357218D01*
X352986Y2285976D01*
Y2281744D01*
X357218Y2277512D01*
X365681D01*
X369913Y2273280D01*
Y2269048D01*
X365681Y2264816D01*
X357218D01*
X352986Y2269048D01*
X395305Y2285976D02*
X391073Y2290208D01*
X382609D01*
X378377Y2285976D01*
Y2281744D01*
X382609Y2277512D01*
X391073D01*
X395305Y2273280D01*
Y2269048D01*
X391073Y2264816D01*
X382609D01*
X378377Y2269048D01*
X420697Y2290208D02*
X403769D01*
Y2264816D01*
X420697D01*
X403769Y2277512D02*
X412233D01*
X429161Y2264816D02*
Y2290208D01*
X437625Y2281744D01*
X446089Y2290208D01*
Y2264816D01*
X454553Y2290208D02*
Y2264816D01*
X467249D01*
X471481Y2269048D01*
Y2273280D01*
X467249Y2277512D01*
X454553D01*
X467249D01*
X471481Y2281744D01*
Y2285976D01*
X467249Y2290208D01*
X454553D01*
X479945D02*
Y2264816D01*
X496872D01*
X505336Y2290208D02*
Y2285976D01*
X513800Y2277512D01*
X522264Y2285976D01*
Y2290208D01*
X513800Y2277512D02*
Y2264816D01*
X530728D02*
Y2269048D01*
X534960D01*
Y2264816D01*
X530728D01*
X-1178986Y2222154D02*
X-1187450D01*
Y2247545D01*
X-1178986D01*
X-1166290Y2243313D02*
X-1162058Y2247545D01*
X-1153594D01*
X-1149362Y2243313D01*
Y2239082D01*
X-1153594Y2234850D01*
X-1157826D01*
X-1153594D01*
X-1149362Y2230618D01*
Y2226386D01*
X-1153594Y2222154D01*
X-1162058D01*
X-1166290Y2226386D01*
X-1140898Y2222154D02*
X-1132434D01*
Y2247545D01*
X-1140898D01*
X-992780Y2222154D02*
Y2239082D01*
X-984316Y2247545D01*
X-975852Y2239082D01*
Y2222154D01*
Y2234850D01*
X-992780D01*
X-967388Y2247545D02*
Y2222154D01*
X-954692D01*
X-950460Y2226386D01*
Y2243313D01*
X-954692Y2247545D01*
X-967388D01*
X-941996D02*
Y2222154D01*
X-929300D01*
X-925068Y2226386D01*
Y2243313D01*
X-929300Y2247545D01*
X-941996D01*
X-891212Y2222154D02*
Y2247545D01*
X-882748Y2239082D01*
X-874285Y2247545D01*
Y2222154D01*
X-865821D02*
Y2239082D01*
X-857357Y2247545D01*
X-848893Y2239082D01*
Y2222154D01*
Y2234850D01*
X-865821D01*
X-840429Y2222154D02*
Y2247545D01*
X-823501Y2222154D01*
Y2247545D01*
X-815037D02*
Y2226386D01*
X-810805Y2222154D01*
X-802341D01*
X-798109Y2226386D01*
Y2247545D01*
X-772717D02*
X-789645D01*
Y2234850D01*
X-781181D01*
X-789645D01*
Y2222154D01*
X-764253D02*
Y2239082D01*
X-755789Y2247545D01*
X-747326Y2239082D01*
Y2222154D01*
Y2234850D01*
X-764253D01*
X-721934Y2243313D02*
X-726166Y2247545D01*
X-734630D01*
X-738862Y2243313D01*
Y2226386D01*
X-734630Y2222154D01*
X-726166D01*
X-721934Y2226386D01*
X-713470Y2247545D02*
X-696542D01*
X-705006D01*
Y2222154D01*
X-688078Y2247545D02*
Y2226386D01*
X-683846Y2222154D01*
X-675382D01*
X-671150Y2226386D01*
Y2247545D01*
X-662686Y2222154D02*
Y2247545D01*
X-649990D01*
X-645758Y2243313D01*
Y2234850D01*
X-649990Y2230618D01*
X-662686D01*
X-654222D02*
X-645758Y2222154D01*
X-637294Y2247545D02*
X-628830D01*
X-633063D01*
Y2222154D01*
X-637294D01*
X-628830D01*
X-616135D02*
Y2247545D01*
X-599207Y2222154D01*
Y2247545D01*
X-573815Y2243313D02*
X-578047Y2247545D01*
X-586511D01*
X-590743Y2243313D01*
Y2226386D01*
X-586511Y2222154D01*
X-578047D01*
X-573815Y2226386D01*
Y2234850D01*
X-582279D01*
X-539959Y2222154D02*
Y2247545D01*
X-531495Y2239082D01*
X-523031Y2247545D01*
Y2222154D01*
X-514567D02*
Y2239082D01*
X-506104Y2247545D01*
X-497640Y2239082D01*
Y2222154D01*
Y2234850D01*
X-514567D01*
X-489176Y2222154D02*
Y2247545D01*
X-476480D01*
X-472248Y2243313D01*
Y2234850D01*
X-476480Y2230618D01*
X-489176D01*
X-480712D02*
X-472248Y2222154D01*
X-463784Y2247545D02*
Y2222154D01*
Y2230618D01*
X-446856Y2247545D01*
X-459552Y2234850D01*
X-446856Y2222154D01*
X-438392Y2247545D02*
X-429928D01*
X-434160D01*
Y2222154D01*
X-438392D01*
X-429928D01*
X-417232D02*
Y2247545D01*
X-400304Y2222154D01*
Y2247545D01*
X-374913Y2243313D02*
X-379145Y2247545D01*
X-387608D01*
X-391840Y2243313D01*
Y2226386D01*
X-387608Y2222154D01*
X-379145D01*
X-374913Y2226386D01*
Y2234850D01*
X-383377D01*
X-332593Y2222154D02*
X-341057Y2230618D01*
Y2239082D01*
X-332593Y2247545D01*
X-319897D02*
Y2222154D01*
X-302969D01*
X-281809Y2247545D02*
X-290273D01*
X-294505Y2243313D01*
Y2226386D01*
X-290273Y2222154D01*
X-281809D01*
X-277577Y2226386D01*
Y2243313D01*
X-281809Y2247545D01*
X-252186Y2243313D02*
X-256418Y2247545D01*
X-264881D01*
X-269113Y2243313D01*
Y2226386D01*
X-264881Y2222154D01*
X-256418D01*
X-252186Y2226386D01*
Y2234850D01*
X-260650D01*
X-231026Y2247545D02*
X-239490D01*
X-243722Y2243313D01*
Y2226386D01*
X-239490Y2222154D01*
X-231026D01*
X-226794Y2226386D01*
Y2243313D01*
X-231026Y2247545D01*
X-192938Y2222154D02*
X-176010Y2239082D01*
X-142154Y2247545D02*
Y2222154D01*
X-129459D01*
X-125227Y2226386D01*
Y2243313D01*
X-129459Y2247545D01*
X-142154D01*
X-116763Y2222154D02*
Y2239082D01*
X-108299Y2247545D01*
X-99835Y2239082D01*
Y2222154D01*
Y2234850D01*
X-116763D01*
X-91371Y2247545D02*
X-74443D01*
X-82907D01*
Y2222154D01*
X-49051Y2247545D02*
X-65979D01*
Y2222154D01*
X-49051D01*
X-65979Y2234850D02*
X-57515D01*
X-15195Y2222154D02*
X1732Y2239082D01*
X35588Y2247545D02*
Y2226386D01*
X39820Y2222154D01*
X48284D01*
X52516Y2226386D01*
Y2247545D01*
X60980D02*
Y2222154D01*
X77908D01*
X111763D02*
Y2247545D01*
X120227Y2239082D01*
X128691Y2247545D01*
Y2222154D01*
X137155D02*
Y2239082D01*
X145619Y2247545D01*
X154083Y2239082D01*
Y2222154D01*
Y2234850D01*
X137155D01*
X162547Y2222154D02*
Y2247545D01*
X175243D01*
X179475Y2243313D01*
Y2234850D01*
X175243Y2230618D01*
X162547D01*
X171011D02*
X179475Y2222154D01*
X187939Y2247545D02*
Y2222154D01*
Y2230618D01*
X204867Y2247545D01*
X192171Y2234850D01*
X204867Y2222154D01*
X213331Y2247545D02*
X221795D01*
X217563D01*
Y2222154D01*
X213331D01*
X221795D01*
X234491D02*
Y2247545D01*
X251418Y2222154D01*
Y2247545D01*
X276810Y2243313D02*
X272578Y2247545D01*
X264114D01*
X259882Y2243313D01*
Y2226386D01*
X264114Y2222154D01*
X272578D01*
X276810Y2226386D01*
Y2234850D01*
X268346D01*
X310666Y2222154D02*
X327594Y2239082D01*
X361450Y2222154D02*
Y2247545D01*
X374145D01*
X378377Y2243313D01*
Y2234850D01*
X374145Y2230618D01*
X361450D01*
X369913D02*
X378377Y2222154D01*
X391073D02*
X399537D01*
X403769Y2226386D01*
Y2234850D01*
X399537Y2239082D01*
X391073D01*
X386841Y2234850D01*
Y2226386D01*
X391073Y2222154D01*
X412233Y2247545D02*
Y2222154D01*
Y2234850D01*
X429161D01*
Y2247545D01*
Y2222154D01*
X454553Y2243313D02*
X450321Y2247545D01*
X441857D01*
X437625Y2243313D01*
Y2239082D01*
X441857Y2234850D01*
X450321D01*
X454553Y2230618D01*
Y2226386D01*
X450321Y2222154D01*
X441857D01*
X437625Y2226386D01*
X463017Y2222154D02*
X471481Y2230618D01*
Y2239082D01*
X463017Y2247545D01*
X522264D02*
X513800D01*
X509568Y2243313D01*
Y2226386D01*
X513800Y2222154D01*
X522264D01*
X526496Y2226386D01*
Y2243313D01*
X522264Y2247545D01*
X534960Y2222154D02*
Y2247545D01*
X551888Y2222154D01*
Y2247545D01*
X602672Y2243313D02*
X598440Y2247545D01*
X589976D01*
X585744Y2243313D01*
Y2239082D01*
X589976Y2234850D01*
X598440D01*
X602672Y2230618D01*
Y2226386D01*
X598440Y2222154D01*
X589976D01*
X585744Y2226386D01*
X611135Y2247545D02*
X619599D01*
X615368D01*
Y2222154D01*
X611135D01*
X619599D01*
X632295Y2247545D02*
Y2222154D01*
X649223D01*
X657687Y2247545D02*
Y2222154D01*
Y2230618D01*
X674615Y2247545D01*
X661919Y2234850D01*
X674615Y2222154D01*
X700007Y2243313D02*
X695775Y2247545D01*
X687311D01*
X683079Y2243313D01*
Y2239082D01*
X687311Y2234850D01*
X695775D01*
X700007Y2230618D01*
Y2226386D01*
X695775Y2222154D01*
X687311D01*
X683079Y2226386D01*
X725399Y2243313D02*
X721167Y2247545D01*
X712703D01*
X708471Y2243313D01*
Y2226386D01*
X712703Y2222154D01*
X721167D01*
X725399Y2226386D01*
X733863Y2222154D02*
Y2247545D01*
X746558D01*
X750790Y2243313D01*
Y2234850D01*
X746558Y2230618D01*
X733863D01*
X742327D02*
X750790Y2222154D01*
X776182Y2247545D02*
X759254D01*
Y2222154D01*
X776182D01*
X759254Y2234850D02*
X767718D01*
X801574Y2247545D02*
X784646D01*
Y2222154D01*
X801574D01*
X784646Y2234850D02*
X793110D01*
X810038Y2222154D02*
Y2247545D01*
X826966Y2222154D01*
Y2247545D01*
X860822D02*
Y2222154D01*
X873517D01*
X877749Y2226386D01*
Y2230618D01*
X873517Y2234850D01*
X860822D01*
X873517D01*
X877749Y2239082D01*
Y2243313D01*
X873517Y2247545D01*
X860822D01*
X898909D02*
X890445D01*
X886213Y2243313D01*
Y2226386D01*
X890445Y2222154D01*
X898909D01*
X903141Y2226386D01*
Y2243313D01*
X898909Y2247545D01*
X911605D02*
X928533D01*
X920069D01*
Y2222154D01*
X936997Y2247545D02*
X953925D01*
X945461D01*
Y2222154D01*
X975085Y2247545D02*
X966621D01*
X962389Y2243313D01*
Y2226386D01*
X966621Y2222154D01*
X975085D01*
X979316Y2226386D01*
Y2243313D01*
X975085Y2247545D01*
X987781Y2222154D02*
Y2247545D01*
X996244Y2239082D01*
X1004708Y2247545D01*
Y2222154D01*
X1055492Y2243313D02*
X1051260Y2247545D01*
X1042796D01*
X1038564Y2243313D01*
Y2239082D01*
X1042796Y2234850D01*
X1051260D01*
X1055492Y2230618D01*
Y2226386D01*
X1051260Y2222154D01*
X1042796D01*
X1038564Y2226386D01*
X1063956Y2247545D02*
X1072420D01*
X1068188D01*
Y2222154D01*
X1063956D01*
X1072420D01*
X1085116Y2247545D02*
Y2222154D01*
X1097812D01*
X1102044Y2226386D01*
Y2243313D01*
X1097812Y2247545D01*
X1085116D01*
X1127435D02*
X1110508D01*
Y2222154D01*
X1127435D01*
X1110508Y2234850D02*
X1118971D01*
X1173987Y2247545D02*
X1165523D01*
X1161291Y2243313D01*
Y2226386D01*
X1165523Y2222154D01*
X1173987D01*
X1178219Y2226386D01*
Y2243313D01*
X1173987Y2247545D01*
X1203611D02*
X1186683D01*
Y2234850D01*
X1195147D01*
X1186683D01*
Y2222154D01*
X1237467D02*
Y2247545D01*
X1250162D01*
X1254394Y2243313D01*
Y2234850D01*
X1250162Y2230618D01*
X1237467D01*
X1279786Y2243313D02*
X1275554Y2247545D01*
X1267090D01*
X1262858Y2243313D01*
Y2226386D01*
X1267090Y2222154D01*
X1275554D01*
X1279786Y2226386D01*
X1288250Y2247545D02*
Y2222154D01*
X1300946D01*
X1305178Y2226386D01*
Y2230618D01*
X1300946Y2234850D01*
X1288250D01*
X1300946D01*
X1305178Y2239082D01*
Y2243313D01*
X1300946Y2247545D01*
X1288250D01*
X1313642Y2222154D02*
Y2226386D01*
X1317874D01*
Y2222154D01*
X1313642D01*
X-899676Y2179491D02*
X-908140Y2187955D01*
Y2196419D01*
X-899676Y2204883D01*
X-878516Y2179491D02*
X-886980D01*
Y2204883D01*
X-878516D01*
X-865821Y2179491D02*
Y2183723D01*
X-861589D01*
Y2179491D01*
X-865821D01*
X-836197Y2171028D02*
X-831965D01*
X-827733Y2175260D01*
Y2196419D01*
X-840429D01*
X-844661Y2192187D01*
Y2183723D01*
X-840429Y2179491D01*
X-827733D01*
X-819269Y2204883D02*
Y2179491D01*
X-806573D01*
X-802341Y2183723D01*
Y2187955D01*
Y2192187D01*
X-806573Y2196419D01*
X-819269D01*
X-789645Y2179491D02*
X-781181D01*
X-776949Y2183723D01*
Y2192187D01*
X-781181Y2196419D01*
X-789645D01*
X-793877Y2192187D01*
Y2183723D01*
X-789645Y2179491D01*
X-768485D02*
X-760021D01*
Y2204883D01*
X-768485D01*
X-743094Y2175260D02*
X-738862Y2179491D01*
Y2183723D01*
X-743094D01*
Y2179491D01*
X-738862D01*
X-743094Y2175260D01*
X-747326Y2171028D01*
X-696542Y2204883D02*
X-688078D01*
X-692310D01*
Y2179491D01*
X-696542D01*
X-688078D01*
X-675382D02*
Y2204883D01*
X-658454Y2179491D01*
Y2204883D01*
X-624599Y2179491D02*
Y2196419D01*
X-616135Y2204883D01*
X-607671Y2196419D01*
Y2179491D01*
Y2192187D01*
X-624599D01*
X-599207Y2179491D02*
Y2204883D01*
X-586511D01*
X-582279Y2200651D01*
Y2192187D01*
X-586511Y2187955D01*
X-599207D01*
X-590743D02*
X-582279Y2179491D01*
X-556887Y2204883D02*
X-573815D01*
Y2179491D01*
X-556887D01*
X-573815Y2192187D02*
X-565351D01*
X-548423Y2179491D02*
Y2196419D01*
X-539959Y2204883D01*
X-531495Y2196419D01*
Y2179491D01*
Y2192187D01*
X-548423D01*
X-497640Y2179491D02*
Y2204883D01*
X-489176Y2196419D01*
X-480712Y2204883D01*
Y2179491D01*
X-472248D02*
Y2196419D01*
X-463784Y2204883D01*
X-455320Y2196419D01*
Y2179491D01*
Y2192187D01*
X-472248D01*
X-446856Y2179491D02*
Y2204883D01*
X-434160D01*
X-429928Y2200651D01*
Y2192187D01*
X-434160Y2187955D01*
X-446856D01*
X-438392D02*
X-429928Y2179491D01*
X-421464Y2204883D02*
Y2179491D01*
Y2187955D01*
X-404536Y2204883D01*
X-417232Y2192187D01*
X-404536Y2179491D01*
X-379145Y2204883D02*
X-396072D01*
Y2179491D01*
X-379145D01*
X-396072Y2192187D02*
X-387608D01*
X-370681Y2204883D02*
Y2179491D01*
X-357985D01*
X-353753Y2183723D01*
Y2200651D01*
X-357985Y2204883D01*
X-370681D01*
X-315665Y2179491D02*
Y2204883D01*
X-307201D02*
Y2179491D01*
X-319897Y2196419D02*
X-307201D01*
X-302969D01*
X-319897Y2187955D02*
X-302969D01*
X-294505Y2200651D02*
X-290273Y2204883D01*
X-281809D01*
X-277577Y2200651D01*
Y2196419D01*
X-281809Y2192187D01*
X-286041D01*
X-281809D01*
X-277577Y2187955D01*
Y2183723D01*
X-281809Y2179491D01*
X-290273D01*
X-294505Y2183723D01*
X-243722Y2204883D02*
X-235258D01*
X-239490D01*
Y2179491D01*
X-243722D01*
X-235258D01*
X-222562D02*
Y2204883D01*
X-205634Y2179491D01*
Y2204883D01*
X-171778Y2179491D02*
Y2204883D01*
X-163314Y2196419D01*
X-154850Y2204883D01*
Y2179491D01*
X-146386D02*
Y2196419D01*
X-137922Y2204883D01*
X-129459Y2196419D01*
Y2179491D01*
Y2192187D01*
X-146386D01*
X-120995Y2179491D02*
Y2204883D01*
X-104067Y2179491D01*
Y2204883D01*
X-95603D02*
Y2183723D01*
X-91371Y2179491D01*
X-82907D01*
X-78675Y2183723D01*
Y2204883D01*
X-53283D02*
X-70211D01*
Y2192187D01*
X-61747D01*
X-70211D01*
Y2179491D01*
X-44819D02*
Y2196419D01*
X-36355Y2204883D01*
X-27891Y2196419D01*
Y2179491D01*
Y2192187D01*
X-44819D01*
X-2500Y2200651D02*
X-6732Y2204883D01*
X-15195D01*
X-19427Y2200651D01*
Y2183723D01*
X-15195Y2179491D01*
X-6732D01*
X-2500Y2183723D01*
X5964Y2204883D02*
X22892D01*
X14428D01*
Y2179491D01*
X31356Y2204883D02*
Y2183723D01*
X35588Y2179491D01*
X44052D01*
X48284Y2183723D01*
Y2204883D01*
X56748Y2179491D02*
Y2204883D01*
X69444D01*
X73676Y2200651D01*
Y2192187D01*
X69444Y2187955D01*
X56748D01*
X65212D02*
X73676Y2179491D01*
X82140Y2204883D02*
X90604D01*
X86372D01*
Y2179491D01*
X82140D01*
X90604D01*
X103300D02*
Y2204883D01*
X120227Y2179491D01*
Y2204883D01*
X145619Y2200651D02*
X141387Y2204883D01*
X132923D01*
X128691Y2200651D01*
Y2183723D01*
X132923Y2179491D01*
X141387D01*
X145619Y2183723D01*
Y2192187D01*
X137155D01*
X179475Y2179491D02*
Y2204883D01*
X196403Y2179491D01*
Y2204883D01*
X217563D02*
X209099D01*
X204867Y2200651D01*
Y2183723D01*
X209099Y2179491D01*
X217563D01*
X221795Y2183723D01*
Y2200651D01*
X217563Y2204883D01*
X230259D02*
X247186D01*
X238722D01*
Y2179491D01*
X272578Y2204883D02*
X255650D01*
Y2179491D01*
X272578D01*
X255650Y2192187D02*
X264114D01*
X297970Y2200651D02*
X293738Y2204883D01*
X285274D01*
X281042Y2200651D01*
Y2196419D01*
X285274Y2192187D01*
X293738D01*
X297970Y2187955D01*
Y2183723D01*
X293738Y2179491D01*
X285274D01*
X281042Y2183723D01*
X331826Y2204883D02*
Y2179491D01*
X348754D01*
X357217D02*
Y2196419D01*
X365681Y2204883D01*
X374145Y2196419D01*
Y2179491D01*
Y2192187D01*
X357217D01*
X382609Y2204883D02*
Y2200651D01*
X391073Y2192187D01*
X399537Y2200651D01*
Y2204883D01*
X391073Y2192187D02*
Y2179491D01*
X424929Y2204883D02*
X408001D01*
Y2179491D01*
X424929D01*
X408001Y2192187D02*
X416465D01*
X433393Y2179491D02*
Y2204883D01*
X446089D01*
X450321Y2200651D01*
Y2192187D01*
X446089Y2187955D01*
X433393D01*
X441857D02*
X450321Y2179491D01*
X492640D02*
X484176D01*
Y2204883D01*
X492640D01*
X505336Y2179491D02*
Y2204883D01*
X513800Y2196419D01*
X522264Y2204883D01*
Y2179491D01*
X530728Y2200651D02*
X534960Y2204883D01*
X543424D01*
X547656Y2200651D01*
Y2196419D01*
X543424Y2192187D01*
X547656Y2187955D01*
Y2183723D01*
X543424Y2179491D01*
X534960D01*
X530728Y2183723D01*
Y2187955D01*
X534960Y2192187D01*
X530728Y2196419D01*
Y2200651D01*
X534960Y2192187D02*
X543424D01*
X556120Y2179491D02*
X564584D01*
Y2204883D01*
X556120D01*
X577280Y2179491D02*
X585744Y2187955D01*
Y2196419D01*
X577280Y2204883D01*
X-1178986Y2128365D02*
X-1187450D01*
Y2153757D01*
X-1178986D01*
X-1153594Y2128365D02*
Y2153757D01*
X-1166290Y2141061D01*
X-1149362D01*
X-1140898Y2128365D02*
X-1132434D01*
Y2153757D01*
X-1140898D01*
X-992780Y2128365D02*
Y2153757D01*
X-984316Y2145293D01*
X-975852Y2153757D01*
Y2128365D01*
X-967388D02*
Y2145293D01*
X-958924Y2153757D01*
X-950460Y2145293D01*
Y2128365D01*
Y2141061D01*
X-967388D01*
X-941996Y2153757D02*
X-925068D01*
X-933532D01*
Y2128365D01*
X-899676Y2153757D02*
X-916604D01*
Y2128365D01*
X-899676D01*
X-916604Y2141061D02*
X-908140D01*
X-891212Y2128365D02*
Y2153757D01*
X-878516D01*
X-874285Y2149525D01*
Y2141061D01*
X-878516Y2136829D01*
X-891212D01*
X-882748D02*
X-874285Y2128365D01*
X-865821Y2153757D02*
X-857357D01*
X-861589D01*
Y2128365D01*
X-865821D01*
X-857357D01*
X-844661D02*
Y2145293D01*
X-836197Y2153757D01*
X-827733Y2145293D01*
Y2128365D01*
Y2141061D01*
X-844661D01*
X-819269Y2153757D02*
Y2128365D01*
X-802341D01*
X-751557Y2149525D02*
X-755789Y2153757D01*
X-764253D01*
X-768485Y2149525D01*
Y2145293D01*
X-764253Y2141061D01*
X-755789D01*
X-751557Y2136829D01*
Y2132597D01*
X-755789Y2128365D01*
X-764253D01*
X-768485Y2132597D01*
X-743094Y2153757D02*
Y2128365D01*
Y2141061D01*
X-726166D01*
Y2153757D01*
Y2128365D01*
X-717702D02*
Y2145293D01*
X-709238Y2153757D01*
X-700774Y2145293D01*
Y2128365D01*
Y2141061D01*
X-717702D01*
X-692310Y2153757D02*
Y2128365D01*
X-675382D01*
X-666918Y2153757D02*
Y2128365D01*
X-649990D01*
X-616135D02*
Y2153757D01*
X-607671Y2145293D01*
X-599207Y2153757D01*
Y2128365D01*
X-573815Y2153757D02*
X-590743D01*
Y2128365D01*
X-573815D01*
X-590743Y2141061D02*
X-582279D01*
X-548423Y2153757D02*
X-565351D01*
Y2128365D01*
X-548423D01*
X-565351Y2141061D02*
X-556887D01*
X-539959Y2153757D02*
X-523031D01*
X-531495D01*
Y2128365D01*
X-489176Y2153757D02*
Y2132597D01*
X-484944Y2128365D01*
X-476480D01*
X-472248Y2132597D01*
Y2153757D01*
X-463784D02*
Y2128365D01*
X-446856D01*
X-413000Y2132597D02*
X-408768Y2128365D01*
X-400304D01*
X-396072Y2132597D01*
Y2149525D01*
X-400304Y2153757D01*
X-408768D01*
X-413000Y2149525D01*
Y2145293D01*
X-408768Y2141061D01*
X-396072D01*
X-374913Y2128365D02*
Y2153757D01*
X-387608Y2141061D01*
X-370681D01*
X-362217Y2153757D02*
Y2136829D01*
X-353753Y2128365D01*
X-345289Y2136829D01*
Y2153757D01*
X-336825Y2141061D02*
X-319897D01*
X-311433Y2149525D02*
X-307201Y2153757D01*
X-298737D01*
X-294505Y2149525D01*
Y2132597D01*
X-298737Y2128365D01*
X-307201D01*
X-311433Y2132597D01*
Y2149525D01*
X-243722Y2153757D02*
X-260650D01*
Y2141061D01*
X-252185D01*
X-260650D01*
Y2128365D01*
X-235258D02*
Y2145293D01*
X-226794Y2153757D01*
X-218330Y2145293D01*
Y2128365D01*
Y2141061D01*
X-235258D01*
X-209866Y2128365D02*
Y2153757D01*
X-201402Y2145293D01*
X-192938Y2153757D01*
Y2128365D01*
X-184474D02*
Y2153757D01*
X-176010Y2145293D01*
X-167546Y2153757D01*
Y2128365D01*
X-159082D02*
Y2145293D01*
X-150618Y2153757D01*
X-142154Y2145293D01*
Y2128365D01*
Y2141061D01*
X-159082D01*
X-133691Y2153757D02*
Y2128365D01*
X-120995D01*
X-116763Y2132597D01*
Y2136829D01*
X-120995Y2141061D01*
X-133691D01*
X-120995D01*
X-116763Y2145293D01*
Y2149525D01*
X-120995Y2153757D01*
X-133691D01*
X-108299D02*
X-99835D01*
X-104067D01*
Y2128365D01*
X-108299D01*
X-99835D01*
X-87139Y2153757D02*
Y2128365D01*
X-70211D01*
X-61747Y2153757D02*
X-53283D01*
X-57515D01*
Y2128365D01*
X-61747D01*
X-53283D01*
X-40587Y2153757D02*
X-23659D01*
X-32123D01*
Y2128365D01*
X-15195Y2153757D02*
Y2149525D01*
X-6732Y2141061D01*
X1732Y2149525D01*
Y2153757D01*
X-6732Y2141061D02*
Y2128365D01*
X35588D02*
Y2153757D01*
X48284D01*
X52516Y2149525D01*
Y2141061D01*
X48284Y2136829D01*
X35588D01*
X44052D02*
X52516Y2128365D01*
X60980D02*
Y2145293D01*
X69444Y2153757D01*
X77908Y2145293D01*
Y2128365D01*
Y2141061D01*
X60980D01*
X86372Y2153757D02*
X103300D01*
X94836D01*
Y2128365D01*
X111763Y2153757D02*
X120227D01*
X115996D01*
Y2128365D01*
X111763D01*
X120227D01*
X132923D02*
Y2153757D01*
X149851Y2128365D01*
Y2153757D01*
X175243Y2149525D02*
X171011Y2153757D01*
X162547D01*
X158315Y2149525D01*
Y2132597D01*
X162547Y2128365D01*
X171011D01*
X175243Y2132597D01*
Y2141061D01*
X166779D01*
X183707Y2128365D02*
Y2132597D01*
X187939D01*
Y2128365D01*
X183707D01*
X-1178986Y2085703D02*
X-1187450D01*
Y2111095D01*
X-1178986D01*
X-1149362D02*
X-1166290D01*
Y2098399D01*
X-1157826Y2102631D01*
X-1153594D01*
X-1149362Y2098399D01*
Y2089935D01*
X-1153594Y2085703D01*
X-1162058D01*
X-1166290Y2089935D01*
X-1140898Y2085703D02*
X-1132434D01*
Y2111095D01*
X-1140898D01*
X-992780D02*
Y2085703D01*
X-980084D01*
X-975852Y2089935D01*
Y2106863D01*
X-980084Y2111095D01*
X-992780D01*
X-954692D02*
X-963156D01*
X-967388Y2106863D01*
Y2089935D01*
X-963156Y2085703D01*
X-954692D01*
X-950460Y2089935D01*
Y2106863D01*
X-954692Y2111095D01*
X-916604Y2085703D02*
Y2111095D01*
X-899676Y2085703D01*
Y2111095D01*
X-878516D02*
X-886980D01*
X-891212Y2106863D01*
Y2089935D01*
X-886980Y2085703D01*
X-878516D01*
X-874285Y2089935D01*
Y2106863D01*
X-878516Y2111095D01*
X-865821D02*
X-848893D01*
X-857357D01*
Y2085703D01*
X-815037D02*
Y2102631D01*
X-806573Y2111095D01*
X-798109Y2102631D01*
Y2085703D01*
Y2098399D01*
X-815037D01*
X-789645Y2085703D02*
Y2111095D01*
X-776949D01*
X-772717Y2106863D01*
Y2098399D01*
X-776949Y2094167D01*
X-789645D01*
X-764253Y2085703D02*
Y2111095D01*
X-751557D01*
X-747326Y2106863D01*
Y2098399D01*
X-751557Y2094167D01*
X-764253D01*
X-738862Y2111095D02*
Y2085703D01*
X-721934D01*
X-713470Y2111095D02*
Y2106863D01*
X-705006Y2098399D01*
X-696542Y2106863D01*
Y2111095D01*
X-705006Y2098399D02*
Y2085703D01*
X-645758Y2106863D02*
X-649990Y2111095D01*
X-658454D01*
X-662686Y2106863D01*
Y2102631D01*
X-658454Y2098399D01*
X-649990D01*
X-645758Y2094167D01*
Y2089935D01*
X-649990Y2085703D01*
X-658454D01*
X-662686Y2089935D01*
X-637294Y2111095D02*
X-628830D01*
X-633063D01*
Y2085703D01*
X-637294D01*
X-628830D01*
X-616135Y2111095D02*
Y2085703D01*
X-599207D01*
X-590743Y2111095D02*
Y2085703D01*
Y2094167D01*
X-573815Y2111095D01*
X-586511Y2098399D01*
X-573815Y2085703D01*
X-548423Y2106863D02*
X-552655Y2111095D01*
X-561119D01*
X-565351Y2106863D01*
Y2102631D01*
X-561119Y2098399D01*
X-552655D01*
X-548423Y2094167D01*
Y2089935D01*
X-552655Y2085703D01*
X-561119D01*
X-565351Y2089935D01*
X-523031Y2106863D02*
X-527263Y2111095D01*
X-535727D01*
X-539959Y2106863D01*
Y2089935D01*
X-535727Y2085703D01*
X-527263D01*
X-523031Y2089935D01*
X-514567Y2085703D02*
Y2111095D01*
X-501871D01*
X-497640Y2106863D01*
Y2098399D01*
X-501871Y2094167D01*
X-514567D01*
X-506104D02*
X-497640Y2085703D01*
X-472248Y2111095D02*
X-489176D01*
Y2085703D01*
X-472248D01*
X-489176Y2098399D02*
X-480712D01*
X-446856Y2111095D02*
X-463784D01*
Y2085703D01*
X-446856D01*
X-463784Y2098399D02*
X-455320D01*
X-438392Y2085703D02*
Y2111095D01*
X-421464Y2085703D01*
Y2111095D01*
X-374913D02*
X-383377D01*
X-387608Y2106863D01*
Y2089935D01*
X-383377Y2085703D01*
X-374913D01*
X-370681Y2089935D01*
Y2106863D01*
X-374913Y2111095D01*
X-362217D02*
Y2094167D01*
X-353753Y2085703D01*
X-345289Y2094167D01*
Y2111095D01*
X-319897D02*
X-336825D01*
Y2085703D01*
X-319897D01*
X-336825Y2098399D02*
X-328361D01*
X-311433Y2085703D02*
Y2111095D01*
X-298737D01*
X-294505Y2106863D01*
Y2098399D01*
X-298737Y2094167D01*
X-311433D01*
X-302969D02*
X-294505Y2085703D01*
X-243722Y2111095D02*
X-260650D01*
Y2085703D01*
X-243722D01*
X-260650Y2098399D02*
X-252185D01*
X-235258Y2111095D02*
X-218330Y2085703D01*
Y2111095D02*
X-235258Y2085703D01*
X-209866D02*
Y2111095D01*
X-197170D01*
X-192938Y2106863D01*
Y2098399D01*
X-197170Y2094167D01*
X-209866D01*
X-171778Y2111095D02*
X-180242D01*
X-184474Y2106863D01*
Y2089935D01*
X-180242Y2085703D01*
X-171778D01*
X-167546Y2089935D01*
Y2106863D01*
X-171778Y2111095D01*
X-142154Y2106863D02*
X-146386Y2111095D01*
X-154850D01*
X-159082Y2106863D01*
Y2102631D01*
X-154850Y2098399D01*
X-146386D01*
X-142154Y2094167D01*
Y2089935D01*
X-146386Y2085703D01*
X-154850D01*
X-159082Y2089935D01*
X-116763Y2111095D02*
X-133691D01*
Y2085703D01*
X-116763D01*
X-133691Y2098399D02*
X-125226D01*
X-108299Y2111095D02*
Y2085703D01*
X-95603D01*
X-91371Y2089935D01*
Y2106863D01*
X-95603Y2111095D01*
X-108299D01*
X-40587Y2106863D02*
X-44819Y2111095D01*
X-53283D01*
X-57515Y2106863D01*
Y2089935D01*
X-53283Y2085703D01*
X-44819D01*
X-40587Y2089935D01*
X-19427Y2111095D02*
X-27891D01*
X-32123Y2106863D01*
Y2089935D01*
X-27891Y2085703D01*
X-19427D01*
X-15195Y2089935D01*
Y2106863D01*
X-19427Y2111095D01*
X-6732Y2085703D02*
Y2111095D01*
X5964D01*
X10196Y2106863D01*
Y2098399D01*
X5964Y2094167D01*
X-6732D01*
X18660Y2085703D02*
Y2111095D01*
X31356D01*
X35588Y2106863D01*
Y2098399D01*
X31356Y2094167D01*
X18660D01*
X60980Y2111095D02*
X44052D01*
Y2085703D01*
X60980D01*
X44052Y2098399D02*
X52516D01*
X69444Y2085703D02*
Y2111095D01*
X82140D01*
X86372Y2106863D01*
Y2098399D01*
X82140Y2094167D01*
X69444D01*
X77908D02*
X86372Y2085703D01*
X132923Y2111095D02*
X124459D01*
X120227Y2106863D01*
Y2089935D01*
X124459Y2085703D01*
X132923D01*
X137155Y2089935D01*
Y2106863D01*
X132923Y2111095D01*
X145619Y2085703D02*
Y2111095D01*
X158315D01*
X162547Y2106863D01*
Y2098399D01*
X158315Y2094167D01*
X145619D01*
X154083D02*
X162547Y2085703D01*
X213331Y2106863D02*
X209099Y2111095D01*
X200635D01*
X196403Y2106863D01*
Y2102631D01*
X200635Y2098399D01*
X209099D01*
X213331Y2094167D01*
Y2089935D01*
X209099Y2085703D01*
X200635D01*
X196403Y2089935D01*
X234491Y2111095D02*
X226027D01*
X221795Y2106863D01*
Y2089935D01*
X226027Y2085703D01*
X234491D01*
X238722Y2089935D01*
Y2106863D01*
X234491Y2111095D01*
X247186D02*
Y2085703D01*
X264114D01*
X272578Y2111095D02*
Y2085703D01*
X285274D01*
X289506Y2089935D01*
Y2106863D01*
X285274Y2111095D01*
X272578D01*
X314898D02*
X297970D01*
Y2085703D01*
X314898D01*
X297970Y2098399D02*
X306434D01*
X323362Y2085703D02*
Y2111095D01*
X336058D01*
X340290Y2106863D01*
Y2098399D01*
X336058Y2094167D01*
X323362D01*
X331826D02*
X340290Y2085703D01*
X348754D02*
Y2111095D01*
X357218Y2102631D01*
X365681Y2111095D01*
Y2085703D01*
X374145D02*
Y2102631D01*
X382609Y2111095D01*
X391073Y2102631D01*
Y2085703D01*
Y2098399D01*
X374145D01*
X416465Y2106863D02*
X412233Y2111095D01*
X403769D01*
X399537Y2106863D01*
Y2102631D01*
X403769Y2098399D01*
X412233D01*
X416465Y2094167D01*
Y2089935D01*
X412233Y2085703D01*
X403769D01*
X399537Y2089935D01*
X424929Y2111095D02*
Y2085703D01*
Y2094167D01*
X441857Y2111095D01*
X429161Y2098399D01*
X441857Y2085703D01*
X492640Y2111095D02*
X475713D01*
Y2085703D01*
X492640D01*
X475713Y2098399D02*
X484177D01*
X501104Y2111095D02*
X518032Y2085703D01*
Y2111095D02*
X501104Y2085703D01*
X526496D02*
Y2111095D01*
X539192D01*
X543424Y2106863D01*
Y2098399D01*
X539192Y2094167D01*
X526496D01*
X551888Y2085703D02*
Y2102631D01*
X560352Y2111095D01*
X568816Y2102631D01*
Y2085703D01*
Y2098399D01*
X551888D01*
X577280Y2085703D02*
Y2111095D01*
X594208Y2085703D01*
Y2111095D01*
X619599Y2106863D02*
X615368Y2111095D01*
X606904D01*
X602672Y2106863D01*
Y2102631D01*
X606904Y2098399D01*
X615368D01*
X619599Y2094167D01*
Y2089935D01*
X615368Y2085703D01*
X606904D01*
X602672Y2089935D01*
X628063Y2111095D02*
X636527D01*
X632295D01*
Y2085703D01*
X628063D01*
X636527D01*
X661919Y2111095D02*
X653455D01*
X649223Y2106863D01*
Y2089935D01*
X653455Y2085703D01*
X661919D01*
X666151Y2089935D01*
Y2106863D01*
X661919Y2111095D01*
X674615Y2085703D02*
Y2111095D01*
X691543Y2085703D01*
Y2111095D01*
X700007Y2085703D02*
Y2089935D01*
X704239D01*
Y2085703D01*
X700007D01*
X-891212Y2064201D02*
X-895444Y2068433D01*
X-903908D01*
X-908140Y2064201D01*
Y2047273D01*
X-903908Y2043041D01*
X-895444D01*
X-891212Y2047273D01*
X-882748Y2068433D02*
Y2043041D01*
X-865821D01*
X-857357Y2068433D02*
X-848893D01*
X-853125D01*
Y2043041D01*
X-857357D01*
X-848893D01*
X-836197D02*
Y2068433D01*
X-823501D01*
X-819269Y2064201D01*
Y2055737D01*
X-823501Y2051505D01*
X-836197D01*
X-768485Y2064201D02*
X-772717Y2068433D01*
X-781181D01*
X-785413Y2064201D01*
Y2059969D01*
X-781181Y2055737D01*
X-772717D01*
X-768485Y2051505D01*
Y2047273D01*
X-772717Y2043041D01*
X-781181D01*
X-785413Y2047273D01*
X-760021Y2068433D02*
X-751557D01*
X-755789D01*
Y2043041D01*
X-760021D01*
X-751557D01*
X-738862Y2068433D02*
Y2043041D01*
X-721934D01*
X-713470Y2068433D02*
Y2043041D01*
Y2051505D01*
X-696542Y2068433D01*
X-709238Y2055737D01*
X-696542Y2043041D01*
X-671150Y2064201D02*
X-675382Y2068433D01*
X-683846D01*
X-688078Y2064201D01*
Y2059969D01*
X-683846Y2055737D01*
X-675382D01*
X-671150Y2051505D01*
Y2047273D01*
X-675382Y2043041D01*
X-683846D01*
X-688078Y2047273D01*
X-645758Y2064201D02*
X-649990Y2068433D01*
X-658454D01*
X-662686Y2064201D01*
Y2047273D01*
X-658454Y2043041D01*
X-649990D01*
X-645758Y2047273D01*
X-637294Y2043041D02*
Y2068433D01*
X-624599D01*
X-620367Y2064201D01*
Y2055737D01*
X-624599Y2051505D01*
X-637294D01*
X-628830D02*
X-620367Y2043041D01*
X-594975Y2068433D02*
X-611903D01*
Y2043041D01*
X-594975D01*
X-611903Y2055737D02*
X-603439D01*
X-569583Y2068433D02*
X-586511D01*
Y2043041D01*
X-569583D01*
X-586511Y2055737D02*
X-578047D01*
X-561119Y2043041D02*
Y2068433D01*
X-544191Y2043041D01*
Y2068433D01*
X-510336Y2043041D02*
Y2059969D01*
X-501871Y2068433D01*
X-493408Y2059969D01*
Y2043041D01*
Y2055737D01*
X-510336D01*
X-484944Y2043041D02*
Y2068433D01*
X-472248D01*
X-468016Y2064201D01*
Y2055737D01*
X-472248Y2051505D01*
X-484944D01*
X-476480D02*
X-468016Y2043041D01*
X-446856Y2068433D02*
X-455320D01*
X-459552Y2064201D01*
Y2047273D01*
X-455320Y2043041D01*
X-446856D01*
X-442624Y2047273D01*
Y2064201D01*
X-446856Y2068433D01*
X-434160D02*
Y2047273D01*
X-429928Y2043041D01*
X-421464D01*
X-417232Y2047273D01*
Y2068433D01*
X-408768Y2043041D02*
Y2068433D01*
X-391840Y2043041D01*
Y2068433D01*
X-383377D02*
Y2043041D01*
X-370681D01*
X-366449Y2047273D01*
Y2064201D01*
X-370681Y2068433D01*
X-383377D01*
X-315665D02*
X-332593D01*
Y2043041D01*
X-315665D01*
X-332593Y2055737D02*
X-324129D01*
X-307201Y2068433D02*
X-290273Y2043041D01*
Y2068433D02*
X-307201Y2043041D01*
X-281809D02*
Y2068433D01*
X-269113D01*
X-264881Y2064201D01*
Y2055737D01*
X-269113Y2051505D01*
X-281809D01*
X-243722Y2068433D02*
X-252185D01*
X-256418Y2064201D01*
Y2047273D01*
X-252185Y2043041D01*
X-243722D01*
X-239490Y2047273D01*
Y2064201D01*
X-243722Y2068433D01*
X-214098Y2064201D02*
X-218330Y2068433D01*
X-226794D01*
X-231026Y2064201D01*
Y2059969D01*
X-226794Y2055737D01*
X-218330D01*
X-214098Y2051505D01*
Y2047273D01*
X-218330Y2043041D01*
X-226794D01*
X-231026Y2047273D01*
X-188706Y2068433D02*
X-205634D01*
Y2043041D01*
X-188706D01*
X-205634Y2055737D02*
X-197170D01*
X-180242Y2068433D02*
Y2043041D01*
X-167546D01*
X-163314Y2047273D01*
Y2064201D01*
X-167546Y2068433D01*
X-180242D01*
X-112531Y2064201D02*
X-116763Y2068433D01*
X-125226D01*
X-129459Y2064201D01*
Y2047273D01*
X-125226Y2043041D01*
X-116763D01*
X-112531Y2047273D01*
X-91371Y2068433D02*
X-99835D01*
X-104067Y2064201D01*
Y2047273D01*
X-99835Y2043041D01*
X-91371D01*
X-87139Y2047273D01*
Y2064201D01*
X-91371Y2068433D01*
X-78675Y2043041D02*
Y2068433D01*
X-65979D01*
X-61747Y2064201D01*
Y2055737D01*
X-65979Y2051505D01*
X-78675D01*
X-53283Y2043041D02*
Y2068433D01*
X-40587D01*
X-36355Y2064201D01*
Y2055737D01*
X-40587Y2051505D01*
X-53283D01*
X-10963Y2068433D02*
X-27891D01*
Y2043041D01*
X-10963D01*
X-27891Y2055737D02*
X-19427D01*
X-2500Y2043041D02*
Y2068433D01*
X10196D01*
X14428Y2064201D01*
Y2055737D01*
X10196Y2051505D01*
X-2500D01*
X5964D02*
X14428Y2043041D01*
X22892D02*
Y2047273D01*
X27124D01*
Y2043041D01*
X22892D01*
X-891212Y2021539D02*
X-895444Y2025771D01*
X-903908D01*
X-908140Y2021539D01*
Y2004611D01*
X-903908Y2000379D01*
X-895444D01*
X-891212Y2004611D01*
X-882748Y2025771D02*
Y2000379D01*
X-865821D01*
X-857357Y2025771D02*
X-848893D01*
X-853125D01*
Y2000379D01*
X-857357D01*
X-848893D01*
X-836197D02*
Y2025771D01*
X-823501D01*
X-819269Y2021539D01*
Y2013075D01*
X-823501Y2008843D01*
X-836197D01*
X-768485Y2021539D02*
X-772717Y2025771D01*
X-781181D01*
X-785413Y2021539D01*
Y2017307D01*
X-781181Y2013075D01*
X-772717D01*
X-768485Y2008843D01*
Y2004611D01*
X-772717Y2000379D01*
X-781181D01*
X-785413Y2004611D01*
X-760021Y2025771D02*
X-751557D01*
X-755789D01*
Y2000379D01*
X-760021D01*
X-751557D01*
X-738862Y2025771D02*
Y2000379D01*
X-721934D01*
X-713470Y2025771D02*
Y2000379D01*
Y2008843D01*
X-696542Y2025771D01*
X-709238Y2013075D01*
X-696542Y2000379D01*
X-671150Y2021539D02*
X-675382Y2025771D01*
X-683846D01*
X-688078Y2021539D01*
Y2017307D01*
X-683846Y2013075D01*
X-675382D01*
X-671150Y2008843D01*
Y2004611D01*
X-675382Y2000379D01*
X-683846D01*
X-688078Y2004611D01*
X-645758Y2021539D02*
X-649990Y2025771D01*
X-658454D01*
X-662686Y2021539D01*
Y2004611D01*
X-658454Y2000379D01*
X-649990D01*
X-645758Y2004611D01*
X-637294Y2000379D02*
Y2025771D01*
X-624599D01*
X-620367Y2021539D01*
Y2013075D01*
X-624599Y2008843D01*
X-637294D01*
X-628830D02*
X-620367Y2000379D01*
X-594975Y2025771D02*
X-611903D01*
Y2000379D01*
X-594975D01*
X-611903Y2013075D02*
X-603439D01*
X-569583Y2025771D02*
X-586511D01*
Y2000379D01*
X-569583D01*
X-586511Y2013075D02*
X-578047D01*
X-561119Y2000379D02*
Y2025771D01*
X-544191Y2000379D01*
Y2025771D01*
X-510336Y2000379D02*
Y2017307D01*
X-501871Y2025771D01*
X-493408Y2017307D01*
Y2000379D01*
Y2013075D01*
X-510336D01*
X-484944Y2000379D02*
Y2025771D01*
X-472248D01*
X-468016Y2021539D01*
Y2013075D01*
X-472248Y2008843D01*
X-484944D01*
X-476480D02*
X-468016Y2000379D01*
X-446856Y2025771D02*
X-455320D01*
X-459552Y2021539D01*
Y2004611D01*
X-455320Y2000379D01*
X-446856D01*
X-442624Y2004611D01*
Y2021539D01*
X-446856Y2025771D01*
X-434160D02*
Y2004611D01*
X-429928Y2000379D01*
X-421464D01*
X-417232Y2004611D01*
Y2025771D01*
X-408768Y2000379D02*
Y2025771D01*
X-391840Y2000379D01*
Y2025771D01*
X-383377D02*
Y2000379D01*
X-370681D01*
X-366449Y2004611D01*
Y2021539D01*
X-370681Y2025771D01*
X-383377D01*
X-315665Y2021539D02*
X-319897Y2025771D01*
X-328361D01*
X-332593Y2021539D01*
Y2017307D01*
X-328361Y2013075D01*
X-319897D01*
X-315665Y2008843D01*
Y2004611D01*
X-319897Y2000379D01*
X-328361D01*
X-332593Y2004611D01*
X-294505Y2025771D02*
X-302969D01*
X-307201Y2021539D01*
Y2004611D01*
X-302969Y2000379D01*
X-294505D01*
X-290273Y2004611D01*
Y2021539D01*
X-294505Y2025771D01*
X-281809D02*
Y2000379D01*
X-264881D01*
X-256418Y2025771D02*
Y2000379D01*
X-243722D01*
X-239490Y2004611D01*
Y2021539D01*
X-243722Y2025771D01*
X-256418D01*
X-214098D02*
X-231026D01*
Y2000379D01*
X-214098D01*
X-231026Y2013075D02*
X-222562D01*
X-205634Y2000379D02*
Y2025771D01*
X-192938D01*
X-188706Y2021539D01*
Y2013075D01*
X-192938Y2008843D01*
X-205634D01*
X-197170D02*
X-188706Y2000379D01*
X-180242D02*
Y2025771D01*
X-171778Y2017307D01*
X-163314Y2025771D01*
Y2000379D01*
X-154850D02*
Y2017307D01*
X-146386Y2025771D01*
X-137922Y2017307D01*
Y2000379D01*
Y2013075D01*
X-154850D01*
X-112531Y2021539D02*
X-116763Y2025771D01*
X-125226D01*
X-129459Y2021539D01*
Y2017307D01*
X-125226Y2013075D01*
X-116763D01*
X-112531Y2008843D01*
Y2004611D01*
X-116763Y2000379D01*
X-125226D01*
X-129459Y2004611D01*
X-104067Y2025771D02*
Y2000379D01*
Y2008843D01*
X-87139Y2025771D01*
X-99835Y2013075D01*
X-87139Y2000379D01*
X-36355Y2025771D02*
X-53283D01*
Y2000379D01*
X-36355D01*
X-53283Y2013075D02*
X-44819D01*
X-27891Y2025771D02*
X-10963Y2000379D01*
Y2025771D02*
X-27891Y2000379D01*
X-2500D02*
Y2025771D01*
X10196D01*
X14428Y2021539D01*
Y2013075D01*
X10196Y2008843D01*
X-2500D01*
X22892Y2000379D02*
Y2017307D01*
X31356Y2025771D01*
X39820Y2017307D01*
Y2000379D01*
Y2013075D01*
X22892D01*
X48284Y2000379D02*
Y2025771D01*
X65212Y2000379D01*
Y2025771D01*
X90604Y2021539D02*
X86372Y2025771D01*
X77908D01*
X73676Y2021539D01*
Y2017307D01*
X77908Y2013075D01*
X86372D01*
X90604Y2008843D01*
Y2004611D01*
X86372Y2000379D01*
X77908D01*
X73676Y2004611D01*
X99068Y2025771D02*
X107532D01*
X103300D01*
Y2000379D01*
X99068D01*
X107532D01*
X132923Y2025771D02*
X124459D01*
X120227Y2021539D01*
Y2004611D01*
X124459Y2000379D01*
X132923D01*
X137155Y2004611D01*
Y2021539D01*
X132923Y2025771D01*
X145619Y2000379D02*
Y2025771D01*
X162547Y2000379D01*
Y2025771D01*
X171011Y2000379D02*
Y2004611D01*
X175243D01*
Y2000379D01*
X171011D01*
X-1178986Y1957717D02*
X-1187450D01*
Y1983109D01*
X-1178986D01*
X-1149362D02*
X-1157826Y1978877D01*
X-1166290Y1970413D01*
Y1961949D01*
X-1162058Y1957717D01*
X-1153594D01*
X-1149362Y1961949D01*
Y1966181D01*
X-1153594Y1970413D01*
X-1166290D01*
X-1140898Y1957717D02*
X-1132434D01*
Y1983109D01*
X-1140898D01*
X-992780D02*
Y1957717D01*
X-980084D01*
X-975852Y1961949D01*
Y1978877D01*
X-980084Y1983109D01*
X-992780D01*
X-954692D02*
X-963156D01*
X-967388Y1978877D01*
Y1961949D01*
X-963156Y1957717D01*
X-954692D01*
X-950460Y1961949D01*
Y1978877D01*
X-954692Y1983109D01*
X-916604Y1957717D02*
Y1983109D01*
X-899676Y1957717D01*
Y1983109D01*
X-878516D02*
X-886980D01*
X-891212Y1978877D01*
Y1961949D01*
X-886980Y1957717D01*
X-878516D01*
X-874285Y1961949D01*
Y1978877D01*
X-878516Y1983109D01*
X-865821D02*
X-848893D01*
X-857357D01*
Y1957717D01*
X-798109Y1983109D02*
X-815037D01*
Y1970413D01*
X-806573D01*
X-815037D01*
Y1957717D01*
X-789645Y1983109D02*
X-781181D01*
X-785413D01*
Y1957717D01*
X-789645D01*
X-781181D01*
X-768485Y1983109D02*
Y1957717D01*
X-751557D01*
X-743094Y1983109D02*
Y1957717D01*
X-726166D01*
X-692310Y1983109D02*
Y1966181D01*
X-683846Y1957717D01*
X-675382Y1966181D01*
Y1983109D01*
X-666918D02*
X-658454D01*
X-662686D01*
Y1957717D01*
X-666918D01*
X-658454D01*
X-645758D02*
Y1974645D01*
X-637294Y1983109D01*
X-628830Y1974645D01*
Y1957717D01*
Y1970413D01*
X-645758D01*
X-603439Y1978877D02*
X-607671Y1983109D01*
X-616135D01*
X-620367Y1978877D01*
Y1974645D01*
X-616135Y1970413D01*
X-607671D01*
X-603439Y1966181D01*
Y1961949D01*
X-607671Y1957717D01*
X-616135D01*
X-620367Y1961949D01*
X-556887Y1983109D02*
X-565351D01*
X-569583Y1978877D01*
Y1961949D01*
X-565351Y1957717D01*
X-556887D01*
X-552655Y1961949D01*
Y1978877D01*
X-556887Y1983109D01*
X-544191Y1957717D02*
Y1983109D01*
X-531495D01*
X-527263Y1978877D01*
Y1970413D01*
X-531495Y1966181D01*
X-544191D01*
X-535727D02*
X-527263Y1957717D01*
X-493408D02*
Y1983109D01*
X-480712D01*
X-476480Y1978877D01*
Y1970413D01*
X-480712Y1966181D01*
X-493408D01*
X-468016Y1983109D02*
Y1957717D01*
X-451088D01*
X-442624D02*
Y1974645D01*
X-434160Y1983109D01*
X-425696Y1974645D01*
Y1957717D01*
Y1970413D01*
X-442624D01*
X-417232Y1983109D02*
X-400304D01*
X-408768D01*
Y1957717D01*
X-374913Y1983109D02*
X-391840D01*
Y1957717D01*
X-374913D01*
X-391840Y1970413D02*
X-383377D01*
X-328361Y1983109D02*
X-336825D01*
X-341057Y1978877D01*
Y1961949D01*
X-336825Y1957717D01*
X-328361D01*
X-324129Y1961949D01*
Y1978877D01*
X-328361Y1983109D01*
X-315665D02*
Y1966181D01*
X-307201Y1957717D01*
X-298737Y1966181D01*
Y1983109D01*
X-273345D02*
X-290273D01*
Y1957717D01*
X-273345D01*
X-290273Y1970413D02*
X-281809D01*
X-264881Y1957717D02*
Y1983109D01*
X-252186D01*
X-247954Y1978877D01*
Y1970413D01*
X-252186Y1966181D01*
X-264881D01*
X-256418D02*
X-247954Y1957717D01*
X-239490D02*
Y1961949D01*
X-235258D01*
Y1957717D01*
X-239490D01*
X-908140Y1940446D02*
X-891212D01*
X-899676D01*
Y1915055D01*
X-882748D02*
Y1940446D01*
X-870053D01*
X-865821Y1936214D01*
Y1927751D01*
X-870053Y1923519D01*
X-882748D01*
X-874285D02*
X-865821Y1915055D01*
X-840429Y1940446D02*
X-857357D01*
Y1915055D01*
X-840429D01*
X-857357Y1927751D02*
X-848893D01*
X-831965Y1915055D02*
Y1931983D01*
X-823501Y1940446D01*
X-815037Y1931983D01*
Y1915055D01*
Y1927751D01*
X-831965D01*
X-806573Y1940446D02*
X-789645D01*
X-798109D01*
Y1915055D01*
X-755789Y1940446D02*
Y1923519D01*
X-747326Y1915055D01*
X-738862Y1923519D01*
Y1940446D01*
X-730398D02*
X-721934D01*
X-726166D01*
Y1915055D01*
X-730398D01*
X-721934D01*
X-709238D02*
Y1931983D01*
X-700774Y1940446D01*
X-692310Y1931983D01*
Y1915055D01*
Y1927751D01*
X-709238D01*
X-683846D02*
X-666918D01*
X-658454Y1940446D02*
X-649990D01*
X-654222D01*
Y1915055D01*
X-658454D01*
X-649990D01*
X-637294D02*
Y1940446D01*
X-620367Y1915055D01*
Y1940446D01*
X-611903Y1927751D02*
X-594975D01*
X-586511Y1915055D02*
Y1940446D01*
X-573815D01*
X-569583Y1936214D01*
Y1927751D01*
X-573815Y1923519D01*
X-586511D01*
X-561119Y1915055D02*
Y1931983D01*
X-552655Y1940446D01*
X-544191Y1931983D01*
Y1915055D01*
Y1927751D01*
X-561119D01*
X-535727Y1940446D02*
Y1915055D01*
X-523031D01*
X-518799Y1919287D01*
Y1936214D01*
X-523031Y1940446D01*
X-535727D01*
X-484944Y1915055D02*
Y1931983D01*
X-476480Y1940446D01*
X-468016Y1931983D01*
Y1915055D01*
Y1927751D01*
X-484944D01*
X-442624Y1936214D02*
X-446856Y1940446D01*
X-455320D01*
X-459552Y1936214D01*
Y1931983D01*
X-455320Y1927751D01*
X-446856D01*
X-442624Y1923519D01*
Y1919287D01*
X-446856Y1915055D01*
X-455320D01*
X-459552Y1919287D01*
X-408768Y1915055D02*
Y1940446D01*
X-391840Y1915055D01*
Y1940446D01*
X-370681D02*
X-379145D01*
X-383377Y1936214D01*
Y1919287D01*
X-379145Y1915055D01*
X-370681D01*
X-366449Y1919287D01*
Y1936214D01*
X-370681Y1940446D01*
X-357985Y1915055D02*
Y1940446D01*
X-345289D01*
X-341057Y1936214D01*
Y1927751D01*
X-345289Y1923519D01*
X-357985D01*
X-349521D02*
X-341057Y1915055D01*
X-332593D02*
Y1940446D01*
X-324129Y1931983D01*
X-315665Y1940446D01*
Y1915055D01*
X-307201D02*
Y1931983D01*
X-298737Y1940446D01*
X-290273Y1931983D01*
Y1915055D01*
Y1927751D01*
X-307201D01*
X-281809Y1940446D02*
Y1915055D01*
X-264881D01*
X-231026D02*
Y1940446D01*
X-218330D01*
X-214098Y1936214D01*
Y1927751D01*
X-218330Y1923519D01*
X-231026D01*
X-205634Y1940446D02*
X-188706D01*
X-197170D01*
Y1915055D01*
X-180242Y1940446D02*
Y1915055D01*
Y1927751D01*
X-163314D01*
Y1940446D01*
Y1915055D01*
X-129459Y1940446D02*
Y1923519D01*
X-120995Y1915055D01*
X-112531Y1923519D01*
Y1940446D01*
X-104067D02*
X-95603D01*
X-99835D01*
Y1915055D01*
X-104067D01*
X-95603D01*
X-82907D02*
Y1931983D01*
X-74443Y1940446D01*
X-65979Y1931983D01*
Y1915055D01*
Y1927751D01*
X-82907D01*
X-40587Y1936214D02*
X-44819Y1940446D01*
X-53283D01*
X-57515Y1936214D01*
Y1931983D01*
X-53283Y1927751D01*
X-44819D01*
X-40587Y1923519D01*
Y1919287D01*
X-44819Y1915055D01*
X-53283D01*
X-57515Y1919287D01*
X-32123Y1915055D02*
Y1919287D01*
X-27891D01*
Y1915055D01*
X-32123D01*
X-1178986Y1872392D02*
X-1187450D01*
Y1897784D01*
X-1178986D01*
X-1166290D02*
X-1149362D01*
Y1893552D01*
X-1166290Y1876624D01*
Y1872392D01*
X-1140898D02*
X-1132434D01*
Y1897784D01*
X-1140898D01*
X-992780D02*
X-975852D01*
X-984316D01*
Y1872392D01*
X-950460Y1897784D02*
X-967388D01*
Y1872392D01*
X-950460D01*
X-967388Y1885088D02*
X-958924D01*
X-941996Y1872392D02*
Y1897784D01*
X-925068Y1872392D01*
Y1897784D01*
X-916604D02*
X-899676D01*
X-908140D01*
Y1872392D01*
X-865821Y1897784D02*
Y1880856D01*
X-857357Y1872392D01*
X-848893Y1880856D01*
Y1897784D01*
X-840429D02*
X-831965D01*
X-836197D01*
Y1872392D01*
X-840429D01*
X-831965D01*
X-819269D02*
Y1889320D01*
X-810805Y1897784D01*
X-802341Y1889320D01*
Y1872392D01*
Y1885088D01*
X-819269D01*
X-776949Y1893552D02*
X-781181Y1897784D01*
X-789645D01*
X-793877Y1893552D01*
Y1889320D01*
X-789645Y1885088D01*
X-781181D01*
X-776949Y1880856D01*
Y1876624D01*
X-781181Y1872392D01*
X-789645D01*
X-793877Y1876624D01*
X-743094Y1897784D02*
Y1872392D01*
X-734630Y1880856D01*
X-726166Y1872392D01*
Y1897784D01*
X-717702D02*
X-709238D01*
X-713470D01*
Y1872392D01*
X-717702D01*
X-709238D01*
X-696542Y1897784D02*
X-679614D01*
X-688078D01*
Y1872392D01*
X-671150Y1897784D02*
Y1872392D01*
Y1885088D01*
X-654222D01*
Y1897784D01*
Y1872392D01*
X-603439Y1893552D02*
X-607671Y1897784D01*
X-616135D01*
X-620367Y1893552D01*
Y1889320D01*
X-616135Y1885088D01*
X-607671D01*
X-603439Y1880856D01*
Y1876624D01*
X-607671Y1872392D01*
X-616135D01*
X-620367Y1876624D01*
X-582279Y1897784D02*
X-590743D01*
X-594975Y1893552D01*
Y1876624D01*
X-590743Y1872392D01*
X-582279D01*
X-578047Y1876624D01*
Y1893552D01*
X-582279Y1897784D01*
X-569583D02*
Y1872392D01*
X-552655D01*
X-544191Y1897784D02*
Y1872392D01*
X-531495D01*
X-527263Y1876624D01*
Y1893552D01*
X-531495Y1897784D01*
X-544191D01*
X-501871D02*
X-518799D01*
Y1872392D01*
X-501871D01*
X-518799Y1885088D02*
X-510336D01*
X-493408Y1872392D02*
Y1897784D01*
X-480712D01*
X-476480Y1893552D01*
Y1885088D01*
X-480712Y1880856D01*
X-493408D01*
X-484944D02*
X-476480Y1872392D01*
X-468016D02*
Y1897784D01*
X-459552Y1889320D01*
X-451088Y1897784D01*
Y1872392D01*
X-442624D02*
Y1889320D01*
X-434160Y1897784D01*
X-425696Y1889320D01*
Y1872392D01*
Y1885088D01*
X-442624D01*
X-400304Y1893552D02*
X-404536Y1897784D01*
X-413000D01*
X-417232Y1893552D01*
Y1889320D01*
X-413000Y1885088D01*
X-404536D01*
X-400304Y1880856D01*
Y1876624D01*
X-404536Y1872392D01*
X-413000D01*
X-417232Y1876624D01*
X-391840Y1897784D02*
Y1872392D01*
Y1880856D01*
X-374913Y1897784D01*
X-387608Y1885088D01*
X-374913Y1872392D01*
X-341057D02*
Y1889320D01*
X-332593Y1897784D01*
X-324129Y1889320D01*
Y1872392D01*
Y1885088D01*
X-341057D01*
X-298737Y1893552D02*
X-302969Y1897784D01*
X-311433D01*
X-315665Y1893552D01*
Y1876624D01*
X-311433Y1872392D01*
X-302969D01*
X-298737Y1876624D01*
X-273345Y1893552D02*
X-277577Y1897784D01*
X-286041D01*
X-290273Y1893552D01*
Y1876624D01*
X-286041Y1872392D01*
X-277577D01*
X-273345Y1876624D01*
X-252186Y1897784D02*
X-260650D01*
X-264881Y1893552D01*
Y1876624D01*
X-260650Y1872392D01*
X-252186D01*
X-247954Y1876624D01*
Y1893552D01*
X-252186Y1897784D01*
X-239490Y1872392D02*
Y1897784D01*
X-226794D01*
X-222562Y1893552D01*
Y1885088D01*
X-226794Y1880856D01*
X-239490D01*
X-231026D02*
X-222562Y1872392D01*
X-214098Y1897784D02*
Y1872392D01*
X-201402D01*
X-197170Y1876624D01*
Y1893552D01*
X-201402Y1897784D01*
X-214098D01*
X-188706D02*
X-180242D01*
X-184474D01*
Y1872392D01*
X-188706D01*
X-180242D01*
X-167546D02*
Y1897784D01*
X-150618Y1872392D01*
Y1897784D01*
X-125227Y1893552D02*
X-129459Y1897784D01*
X-137922D01*
X-142154Y1893552D01*
Y1876624D01*
X-137922Y1872392D01*
X-129459D01*
X-125227Y1876624D01*
Y1885088D01*
X-133691D01*
X-91371Y1897784D02*
X-74443D01*
X-82907D01*
Y1872392D01*
X-53283Y1897784D02*
X-61747D01*
X-65979Y1893552D01*
Y1876624D01*
X-61747Y1872392D01*
X-53283D01*
X-49051Y1876624D01*
Y1893552D01*
X-53283Y1897784D01*
X1732Y1893552D02*
X-2500Y1897784D01*
X-10963D01*
X-15195Y1893552D01*
Y1889320D01*
X-10963Y1885088D01*
X-2500D01*
X1732Y1880856D01*
Y1876624D01*
X-2500Y1872392D01*
X-10963D01*
X-15195Y1876624D01*
X22892Y1897784D02*
X14428D01*
X10196Y1893552D01*
Y1876624D01*
X14428Y1872392D01*
X22892D01*
X27124Y1876624D01*
Y1893552D01*
X22892Y1897784D01*
X35588D02*
Y1872392D01*
X52516D01*
X60980Y1897784D02*
Y1872392D01*
X73676D01*
X77908Y1876624D01*
Y1893552D01*
X73676Y1897784D01*
X60980D01*
X103300D02*
X86372D01*
Y1872392D01*
X103300D01*
X86372Y1885088D02*
X94836D01*
X111763Y1872392D02*
Y1897784D01*
X124459D01*
X128691Y1893552D01*
Y1885088D01*
X124459Y1880856D01*
X111763D01*
X120227D02*
X128691Y1872392D01*
X137155D02*
Y1897784D01*
X145619Y1889320D01*
X154083Y1897784D01*
Y1872392D01*
X162547D02*
Y1889320D01*
X171011Y1897784D01*
X179475Y1889320D01*
Y1872392D01*
Y1885088D01*
X162547D01*
X204867Y1893552D02*
X200635Y1897784D01*
X192171D01*
X187939Y1893552D01*
Y1889320D01*
X192171Y1885088D01*
X200635D01*
X204867Y1880856D01*
Y1876624D01*
X200635Y1872392D01*
X192171D01*
X187939Y1876624D01*
X213331Y1897784D02*
Y1872392D01*
Y1880856D01*
X230259Y1897784D01*
X217563Y1885088D01*
X230259Y1872392D01*
X264114Y1897784D02*
Y1872392D01*
X281042D01*
X289506D02*
Y1889320D01*
X297970Y1897784D01*
X306434Y1889320D01*
Y1872392D01*
Y1885088D01*
X289506D01*
X314898Y1897784D02*
Y1893552D01*
X323362Y1885088D01*
X331826Y1893552D01*
Y1897784D01*
X323362Y1885088D02*
Y1872392D01*
X357217Y1897784D02*
X340290D01*
Y1872392D01*
X357217D01*
X340290Y1885088D02*
X348754D01*
X365681Y1872392D02*
Y1897784D01*
X378377D01*
X382609Y1893552D01*
Y1885088D01*
X378377Y1880856D01*
X365681D01*
X374145D02*
X382609Y1872392D01*
X408001Y1893552D02*
X403769Y1897784D01*
X395305D01*
X391073Y1893552D01*
Y1889320D01*
X395305Y1885088D01*
X403769D01*
X408001Y1880856D01*
Y1876624D01*
X403769Y1872392D01*
X395305D01*
X391073Y1876624D01*
X416465Y1872392D02*
Y1876624D01*
X420697D01*
Y1872392D01*
X416465D01*
X-1178986Y1829730D02*
X-1187450D01*
Y1855122D01*
X-1178986D01*
X-1166290Y1850890D02*
X-1162058Y1855122D01*
X-1153594D01*
X-1149362Y1850890D01*
Y1846658D01*
X-1153594Y1842426D01*
X-1149362Y1838194D01*
Y1833962D01*
X-1153594Y1829730D01*
X-1162058D01*
X-1166290Y1833962D01*
Y1838194D01*
X-1162058Y1842426D01*
X-1166290Y1846658D01*
Y1850890D01*
X-1162058Y1842426D02*
X-1153594D01*
X-1140898Y1829730D02*
X-1132434D01*
Y1855122D01*
X-1140898D01*
X-992780D02*
Y1829730D01*
X-980084D01*
X-975852Y1833962D01*
Y1850890D01*
X-980084Y1855122D01*
X-992780D01*
X-967388D02*
X-958924D01*
X-963156D01*
Y1829730D01*
X-967388D01*
X-958924D01*
X-946228D02*
Y1846658D01*
X-937764Y1855122D01*
X-929300Y1846658D01*
Y1829730D01*
Y1842426D01*
X-946228D01*
X-920836Y1829730D02*
Y1855122D01*
X-912372Y1846658D01*
X-903908Y1855122D01*
Y1829730D01*
X-878516Y1855122D02*
X-895444D01*
Y1829730D01*
X-878516D01*
X-895444Y1842426D02*
X-886980D01*
X-870053Y1855122D02*
X-853125D01*
X-861589D01*
Y1829730D01*
X-827733Y1855122D02*
X-844661D01*
Y1829730D01*
X-827733D01*
X-844661Y1842426D02*
X-836197D01*
X-819269Y1829730D02*
Y1855122D01*
X-806573D01*
X-802341Y1850890D01*
Y1842426D01*
X-806573Y1838194D01*
X-819269D01*
X-810805D02*
X-802341Y1829730D01*
X-776949Y1850890D02*
X-781181Y1855122D01*
X-789645D01*
X-793877Y1850890D01*
Y1846658D01*
X-789645Y1842426D01*
X-781181D01*
X-776949Y1838194D01*
Y1833962D01*
X-781181Y1829730D01*
X-789645D01*
X-793877Y1833962D01*
X-743094Y1855122D02*
X-734630D01*
X-738862D01*
Y1829730D01*
X-743094D01*
X-734630D01*
X-721934D02*
Y1855122D01*
X-705006Y1829730D01*
Y1855122D01*
X-671150D02*
Y1829730D01*
X-658454D01*
X-654222Y1833962D01*
Y1850890D01*
X-658454Y1855122D01*
X-671150D01*
X-645758Y1829730D02*
Y1855122D01*
X-633063D01*
X-628830Y1850890D01*
Y1842426D01*
X-633063Y1838194D01*
X-645758D01*
X-637294D02*
X-628830Y1829730D01*
X-620367Y1855122D02*
X-611903D01*
X-616135D01*
Y1829730D01*
X-620367D01*
X-611903D01*
X-599207Y1855122D02*
Y1829730D01*
X-582279D01*
X-573815Y1855122D02*
Y1829730D01*
X-556887D01*
X-523031Y1855122D02*
Y1829730D01*
Y1842426D01*
X-506104D01*
Y1855122D01*
Y1829730D01*
X-484944Y1855122D02*
X-493408D01*
X-497640Y1850890D01*
Y1833962D01*
X-493408Y1829730D01*
X-484944D01*
X-480712Y1833962D01*
Y1850890D01*
X-484944Y1855122D01*
X-472248D02*
Y1829730D01*
X-455320D01*
X-429928Y1855122D02*
X-446856D01*
Y1829730D01*
X-429928D01*
X-446856Y1842426D02*
X-438392D01*
X-396072Y1855122D02*
X-379145D01*
X-387608D01*
Y1829730D01*
X-370681D02*
Y1846658D01*
X-362217Y1855122D01*
X-353753Y1846658D01*
Y1829730D01*
Y1842426D01*
X-370681D01*
X-345289Y1855122D02*
Y1829730D01*
X-332593D01*
X-328361Y1833962D01*
Y1838194D01*
X-332593Y1842426D01*
X-345289D01*
X-332593D01*
X-328361Y1846658D01*
Y1850890D01*
X-332593Y1855122D01*
X-345289D01*
X-319897D02*
Y1829730D01*
X-302969D01*
X-277577Y1855122D02*
X-294505D01*
Y1829730D01*
X-277577D01*
X-294505Y1842426D02*
X-286041D01*
X-243722Y1829730D02*
Y1846658D01*
X-235258Y1855122D01*
X-226794Y1846658D01*
Y1829730D01*
Y1842426D01*
X-243722D01*
X-218330Y1829730D02*
Y1855122D01*
X-205634D01*
X-201402Y1850890D01*
Y1842426D01*
X-205634Y1838194D01*
X-218330D01*
X-209866D02*
X-201402Y1829730D01*
X-176010Y1855122D02*
X-192938D01*
Y1829730D01*
X-176010D01*
X-192938Y1842426D02*
X-184474D01*
X-125227Y1855122D02*
X-142154D01*
Y1842426D01*
X-133691D01*
X-142154D01*
Y1829730D01*
X-116763Y1855122D02*
X-108299D01*
X-112531D01*
Y1829730D01*
X-116763D01*
X-108299D01*
X-95603D02*
Y1855122D01*
X-78675Y1829730D01*
Y1855122D01*
X-70211D02*
X-61747D01*
X-65979D01*
Y1829730D01*
X-70211D01*
X-61747D01*
X-32123Y1850890D02*
X-36355Y1855122D01*
X-44819D01*
X-49051Y1850890D01*
Y1846658D01*
X-44819Y1842426D01*
X-36355D01*
X-32123Y1838194D01*
Y1833962D01*
X-36355Y1829730D01*
X-44819D01*
X-49051Y1833962D01*
X-23659Y1855122D02*
Y1829730D01*
Y1842426D01*
X-6732D01*
Y1855122D01*
Y1829730D01*
X18660Y1855122D02*
X1732D01*
Y1829730D01*
X18660D01*
X1732Y1842426D02*
X10196D01*
X27124Y1855122D02*
Y1829730D01*
X39820D01*
X44052Y1833962D01*
Y1850890D01*
X39820Y1855122D01*
X27124D01*
X94836Y1850890D02*
X90604Y1855122D01*
X82140D01*
X77908Y1850890D01*
Y1846658D01*
X82140Y1842426D01*
X90604D01*
X94836Y1838194D01*
Y1833962D01*
X90604Y1829730D01*
X82140D01*
X77908Y1833962D01*
X103300Y1855122D02*
X111763D01*
X107532D01*
Y1829730D01*
X103300D01*
X111763D01*
X124459Y1855122D02*
X141387D01*
Y1850890D01*
X124459Y1833962D01*
Y1829730D01*
X141387D01*
X166779Y1855122D02*
X149851D01*
Y1829730D01*
X166779D01*
X149851Y1842426D02*
X158315D01*
X192171Y1850890D02*
X187939Y1855122D01*
X179475D01*
X175243Y1850890D01*
Y1846658D01*
X179475Y1842426D01*
X187939D01*
X192171Y1838194D01*
Y1833962D01*
X187939Y1829730D01*
X179475D01*
X175243Y1833962D01*
X200635Y1829730D02*
Y1833962D01*
X204867D01*
Y1829730D01*
X200635D01*
X-1178986Y1787068D02*
X-1187450D01*
Y1812460D01*
X-1178986D01*
X-1166290Y1791300D02*
X-1162058Y1787068D01*
X-1153594D01*
X-1149362Y1791300D01*
Y1808228D01*
X-1153594Y1812460D01*
X-1162058D01*
X-1166290Y1808228D01*
Y1803996D01*
X-1162058Y1799764D01*
X-1149362D01*
X-1140898Y1787068D02*
X-1132434D01*
Y1812460D01*
X-1140898D01*
X-992780Y1787068D02*
Y1803996D01*
X-984316Y1812460D01*
X-975852Y1803996D01*
Y1787068D01*
Y1799764D01*
X-992780D01*
X-967388Y1787068D02*
Y1812460D01*
X-954692D01*
X-950460Y1808228D01*
Y1799764D01*
X-954692Y1795532D01*
X-967388D01*
X-941996Y1787068D02*
Y1812460D01*
X-929300D01*
X-925068Y1808228D01*
Y1799764D01*
X-929300Y1795532D01*
X-941996D01*
X-916604Y1812460D02*
Y1787068D01*
X-899676D01*
X-891212Y1812460D02*
Y1808228D01*
X-882748Y1799764D01*
X-874285Y1808228D01*
Y1812460D01*
X-882748Y1799764D02*
Y1787068D01*
X-823501Y1808228D02*
X-827733Y1812460D01*
X-836197D01*
X-840429Y1808228D01*
Y1791300D01*
X-836197Y1787068D01*
X-827733D01*
X-823501Y1791300D01*
Y1799764D01*
X-831965D01*
X-815037Y1787068D02*
Y1812460D01*
X-802341D01*
X-798109Y1808228D01*
Y1799764D01*
X-802341Y1795532D01*
X-815037D01*
X-806573D02*
X-798109Y1787068D01*
X-772717Y1812460D02*
X-789645D01*
Y1787068D01*
X-772717D01*
X-789645Y1799764D02*
X-781181D01*
X-747326Y1812460D02*
X-764253D01*
Y1787068D01*
X-747326D01*
X-764253Y1799764D02*
X-755789D01*
X-738862Y1787068D02*
Y1812460D01*
X-721934Y1787068D01*
Y1812460D01*
X-688078D02*
X-671150D01*
X-679614D01*
Y1787068D01*
X-662686D02*
Y1812460D01*
X-649990D01*
X-645758Y1808228D01*
Y1799764D01*
X-649990Y1795532D01*
X-662686D01*
X-654222D02*
X-645758Y1787068D01*
X-637294D02*
Y1803996D01*
X-628830Y1812460D01*
X-620367Y1803996D01*
Y1787068D01*
Y1799764D01*
X-637294D01*
X-611903Y1787068D02*
Y1812460D01*
X-594975Y1787068D01*
Y1812460D01*
X-569583Y1808228D02*
X-573815Y1812460D01*
X-582279D01*
X-586511Y1808228D01*
Y1803996D01*
X-582279Y1799764D01*
X-573815D01*
X-569583Y1795532D01*
Y1791300D01*
X-573815Y1787068D01*
X-582279D01*
X-586511Y1791300D01*
X-561119Y1787068D02*
Y1812460D01*
X-548423D01*
X-544191Y1808228D01*
Y1799764D01*
X-548423Y1795532D01*
X-561119D01*
X-535727Y1787068D02*
Y1803996D01*
X-527263Y1812460D01*
X-518799Y1803996D01*
Y1787068D01*
Y1799764D01*
X-535727D01*
X-510336Y1787068D02*
Y1812460D01*
X-497640D01*
X-493408Y1808228D01*
Y1799764D01*
X-497640Y1795532D01*
X-510336D01*
X-501871D02*
X-493408Y1787068D01*
X-468016Y1812460D02*
X-484944D01*
Y1787068D01*
X-468016D01*
X-484944Y1799764D02*
X-476480D01*
X-459552Y1787068D02*
Y1812460D01*
X-442624Y1787068D01*
Y1812460D01*
X-434160D02*
X-417232D01*
X-425696D01*
Y1787068D01*
X-366449Y1808228D02*
X-370681Y1812460D01*
X-379145D01*
X-383377Y1808228D01*
Y1803996D01*
X-379145Y1799764D01*
X-370681D01*
X-366449Y1795532D01*
Y1791300D01*
X-370681Y1787068D01*
X-379145D01*
X-383377Y1791300D01*
X-345289Y1812460D02*
X-353753D01*
X-357985Y1808228D01*
Y1791300D01*
X-353753Y1787068D01*
X-345289D01*
X-341057Y1791300D01*
Y1808228D01*
X-345289Y1812460D01*
X-332593D02*
Y1787068D01*
X-315665D01*
X-307201Y1812460D02*
Y1787068D01*
X-294505D01*
X-290273Y1791300D01*
Y1808228D01*
X-294505Y1812460D01*
X-307201D01*
X-264881D02*
X-281809D01*
Y1787068D01*
X-264881D01*
X-281809Y1799764D02*
X-273345D01*
X-256418Y1787068D02*
Y1812460D01*
X-243722D01*
X-239490Y1808228D01*
Y1799764D01*
X-243722Y1795532D01*
X-256418D01*
X-247954D02*
X-239490Y1787068D01*
X-231026D02*
Y1812460D01*
X-222562Y1803996D01*
X-214098Y1812460D01*
Y1787068D01*
X-205634D02*
Y1803996D01*
X-197170Y1812460D01*
X-188706Y1803996D01*
Y1787068D01*
Y1799764D01*
X-205634D01*
X-163314Y1808228D02*
X-167546Y1812460D01*
X-176010D01*
X-180242Y1808228D01*
Y1803996D01*
X-176010Y1799764D01*
X-167546D01*
X-163314Y1795532D01*
Y1791300D01*
X-167546Y1787068D01*
X-176010D01*
X-180242Y1791300D01*
X-154850Y1812460D02*
Y1787068D01*
Y1795532D01*
X-137922Y1812460D01*
X-150618Y1799764D01*
X-137922Y1787068D01*
X-91371Y1812460D02*
X-99835D01*
X-104067Y1808228D01*
Y1791300D01*
X-99835Y1787068D01*
X-91371D01*
X-87139Y1791300D01*
Y1808228D01*
X-91371Y1812460D01*
X-78675D02*
Y1795532D01*
X-70211Y1787068D01*
X-61747Y1795532D01*
Y1812460D01*
X-36355D02*
X-53283D01*
Y1787068D01*
X-36355D01*
X-53283Y1799764D02*
X-44819D01*
X-27891Y1787068D02*
Y1812460D01*
X-15195D01*
X-10963Y1808228D01*
Y1799764D01*
X-15195Y1795532D01*
X-27891D01*
X-19427D02*
X-10963Y1787068D01*
X22892Y1812460D02*
Y1787068D01*
X35588D01*
X39820Y1791300D01*
Y1795532D01*
X35588Y1799764D01*
X22892D01*
X35588D01*
X39820Y1803996D01*
Y1808228D01*
X35588Y1812460D01*
X22892D01*
X48284Y1787068D02*
Y1803996D01*
X56748Y1812460D01*
X65212Y1803996D01*
Y1787068D01*
Y1799764D01*
X48284D01*
X73676Y1787068D02*
Y1812460D01*
X86372D01*
X90604Y1808228D01*
Y1799764D01*
X86372Y1795532D01*
X73676D01*
X82140D02*
X90604Y1787068D01*
X115996Y1812460D02*
X99068D01*
Y1787068D01*
X115996D01*
X99068Y1799764D02*
X107532D01*
X166779Y1808228D02*
X162547Y1812460D01*
X154083D01*
X149851Y1808228D01*
Y1791300D01*
X154083Y1787068D01*
X162547D01*
X166779Y1791300D01*
X187939Y1812460D02*
X179475D01*
X175243Y1808228D01*
Y1791300D01*
X179475Y1787068D01*
X187939D01*
X192171Y1791300D01*
Y1808228D01*
X187939Y1812460D01*
X200635Y1787068D02*
Y1812460D01*
X213331D01*
X217563Y1808228D01*
Y1799764D01*
X213331Y1795532D01*
X200635D01*
X226027Y1787068D02*
Y1812460D01*
X238722D01*
X242955Y1808228D01*
Y1799764D01*
X238722Y1795532D01*
X226027D01*
X268346Y1812460D02*
X251418D01*
Y1787068D01*
X268346D01*
X251418Y1799764D02*
X259882D01*
X276810Y1787068D02*
Y1812460D01*
X289506D01*
X293738Y1808228D01*
Y1799764D01*
X289506Y1795532D01*
X276810D01*
X285274D02*
X293738Y1787068D01*
X327594D02*
Y1803996D01*
X336058Y1812460D01*
X344522Y1803996D01*
Y1787068D01*
Y1799764D01*
X327594D01*
X369913Y1808228D02*
X365681Y1812460D01*
X357218D01*
X352986Y1808228D01*
Y1791300D01*
X357218Y1787068D01*
X365681D01*
X369913Y1791300D01*
X395305Y1808228D02*
X391073Y1812460D01*
X382609D01*
X378377Y1808228D01*
Y1791300D01*
X382609Y1787068D01*
X391073D01*
X395305Y1791300D01*
X416465Y1812460D02*
X408001D01*
X403769Y1808228D01*
Y1791300D01*
X408001Y1787068D01*
X416465D01*
X420697Y1791300D01*
Y1808228D01*
X416465Y1812460D01*
X429161Y1787068D02*
Y1812460D01*
X441857D01*
X446089Y1808228D01*
Y1799764D01*
X441857Y1795532D01*
X429161D01*
X437625D02*
X446089Y1787068D01*
X454553Y1812460D02*
Y1787068D01*
X467249D01*
X471481Y1791300D01*
Y1808228D01*
X467249Y1812460D01*
X454553D01*
X479945D02*
X488409D01*
X484177D01*
Y1787068D01*
X479945D01*
X488409D01*
X501104D02*
Y1812460D01*
X518032Y1787068D01*
Y1812460D01*
X543424Y1808228D02*
X539192Y1812460D01*
X530728D01*
X526496Y1808228D01*
Y1791300D01*
X530728Y1787068D01*
X539192D01*
X543424Y1791300D01*
Y1799764D01*
X534960D01*
X577280Y1812460D02*
X594208D01*
X585744D01*
Y1787068D01*
X615368Y1812460D02*
X606904D01*
X602672Y1808228D01*
Y1791300D01*
X606904Y1787068D01*
X615368D01*
X619599Y1791300D01*
Y1808228D01*
X615368Y1812460D01*
X670383Y1808228D02*
X666151Y1812460D01*
X657687D01*
X653455Y1808228D01*
Y1803996D01*
X657687Y1799764D01*
X666151D01*
X670383Y1795532D01*
Y1791300D01*
X666151Y1787068D01*
X657687D01*
X653455Y1791300D01*
X691543Y1812460D02*
X683079D01*
X678847Y1808228D01*
Y1791300D01*
X683079Y1787068D01*
X691543D01*
X695775Y1791300D01*
Y1808228D01*
X691543Y1812460D01*
X704239D02*
Y1787068D01*
X721167D01*
X729631Y1812460D02*
Y1787068D01*
X742327D01*
X746558Y1791300D01*
Y1808228D01*
X742327Y1812460D01*
X729631D01*
X771950D02*
X755022D01*
Y1787068D01*
X771950D01*
X755022Y1799764D02*
X763486D01*
X780414Y1787068D02*
Y1812460D01*
X793110D01*
X797342Y1808228D01*
Y1799764D01*
X793110Y1795532D01*
X780414D01*
X788878D02*
X797342Y1787068D01*
X805806D02*
Y1812460D01*
X814270Y1803996D01*
X822734Y1812460D01*
Y1787068D01*
X831198D02*
Y1803996D01*
X839662Y1812460D01*
X848126Y1803996D01*
Y1787068D01*
Y1799764D01*
X831198D01*
X873517Y1808228D02*
X869285Y1812460D01*
X860822D01*
X856590Y1808228D01*
Y1803996D01*
X860822Y1799764D01*
X869285D01*
X873517Y1795532D01*
Y1791300D01*
X869285Y1787068D01*
X860822D01*
X856590Y1791300D01*
X881981Y1812460D02*
Y1787068D01*
Y1795532D01*
X898909Y1812460D01*
X886213Y1799764D01*
X898909Y1787068D01*
X924301Y1808228D02*
X920069Y1812460D01*
X911605D01*
X907373Y1808228D01*
Y1803996D01*
X911605Y1799764D01*
X920069D01*
X924301Y1795532D01*
Y1791300D01*
X920069Y1787068D01*
X911605D01*
X907373Y1791300D01*
X958157Y1812460D02*
Y1787068D01*
X975085D01*
X983549D02*
Y1803996D01*
X992012Y1812460D01*
X1000476Y1803996D01*
Y1787068D01*
Y1799764D01*
X983549D01*
X1008940Y1812460D02*
Y1808228D01*
X1017404Y1799764D01*
X1025868Y1808228D01*
Y1812460D01*
X1017404Y1799764D02*
Y1787068D01*
X1051260Y1812460D02*
X1034332D01*
Y1787068D01*
X1051260D01*
X1034332Y1799764D02*
X1042796D01*
X1059724Y1787068D02*
Y1812460D01*
X1072420D01*
X1076652Y1808228D01*
Y1799764D01*
X1072420Y1795532D01*
X1059724D01*
X1068188D02*
X1076652Y1787068D01*
X1102044Y1808228D02*
X1097812Y1812460D01*
X1089348D01*
X1085116Y1808228D01*
Y1803996D01*
X1089348Y1799764D01*
X1097812D01*
X1102044Y1795532D01*
Y1791300D01*
X1097812Y1787068D01*
X1089348D01*
X1085116Y1791300D01*
X1110508Y1787068D02*
Y1791300D01*
X1114740D01*
Y1787068D01*
X1110508D01*
X-1178986Y1744406D02*
X-1187450D01*
Y1769798D01*
X-1178986D01*
X-1166290Y1744406D02*
X-1157826D01*
X-1162058D01*
Y1769798D01*
X-1166290Y1765566D01*
X-1145130D02*
X-1140898Y1769798D01*
X-1132434D01*
X-1128203Y1765566D01*
Y1748638D01*
X-1132434Y1744406D01*
X-1140898D01*
X-1145130Y1748638D01*
Y1765566D01*
X-1119739Y1744406D02*
X-1111275D01*
Y1769798D01*
X-1119739D01*
X-997011Y1744406D02*
Y1761334D01*
X-988548Y1769798D01*
X-980084Y1761334D01*
Y1744406D01*
Y1757102D01*
X-997011D01*
X-971620Y1744406D02*
Y1769798D01*
X-958924D01*
X-954692Y1765566D01*
Y1757102D01*
X-958924Y1752870D01*
X-971620D01*
X-946228Y1744406D02*
Y1769798D01*
X-933532D01*
X-929300Y1765566D01*
Y1757102D01*
X-933532Y1752870D01*
X-946228D01*
X-920836Y1769798D02*
Y1744406D01*
X-903908D01*
X-895444Y1769798D02*
Y1765566D01*
X-886980Y1757102D01*
X-878516Y1765566D01*
Y1769798D01*
X-886980Y1757102D02*
Y1744406D01*
X-844661D02*
Y1769798D01*
X-827733Y1744406D01*
Y1769798D01*
X-806573D02*
X-815037D01*
X-819269Y1765566D01*
Y1748638D01*
X-815037Y1744406D01*
X-806573D01*
X-802341Y1748638D01*
Y1765566D01*
X-806573Y1769798D01*
X-793877Y1744406D02*
Y1769798D01*
X-776949Y1744406D01*
Y1769798D01*
X-768485Y1757102D02*
X-751557D01*
X-726166Y1765566D02*
X-730398Y1769798D01*
X-738862D01*
X-743094Y1765566D01*
Y1748638D01*
X-738862Y1744406D01*
X-730398D01*
X-726166Y1748638D01*
X-705006Y1769798D02*
X-713470D01*
X-717702Y1765566D01*
Y1748638D01*
X-713470Y1744406D01*
X-705006D01*
X-700774Y1748638D01*
Y1765566D01*
X-705006Y1769798D01*
X-692310Y1744406D02*
Y1769798D01*
X-675382Y1744406D01*
Y1769798D01*
X-666918D02*
Y1744406D01*
X-654222D01*
X-649990Y1748638D01*
Y1765566D01*
X-654222Y1769798D01*
X-666918D01*
X-641526D02*
Y1748638D01*
X-637294Y1744406D01*
X-628830D01*
X-624599Y1748638D01*
Y1769798D01*
X-599207Y1765566D02*
X-603439Y1769798D01*
X-611903D01*
X-616135Y1765566D01*
Y1748638D01*
X-611903Y1744406D01*
X-603439D01*
X-599207Y1748638D01*
X-590743Y1769798D02*
X-573815D01*
X-582279D01*
Y1744406D01*
X-565351Y1769798D02*
X-556887D01*
X-561119D01*
Y1744406D01*
X-565351D01*
X-556887D01*
X-544191Y1769798D02*
Y1752870D01*
X-535727Y1744406D01*
X-527263Y1752870D01*
Y1769798D01*
X-501871D02*
X-518799D01*
Y1744406D01*
X-501871D01*
X-518799Y1757102D02*
X-510336D01*
X-468016Y1769798D02*
Y1744406D01*
X-459552Y1752870D01*
X-451088Y1744406D01*
Y1769798D01*
X-442624D02*
Y1744406D01*
Y1757102D01*
X-425696D01*
Y1769798D01*
Y1744406D01*
X-417232Y1769798D02*
X-408768D01*
X-413000D01*
Y1744406D01*
X-417232D01*
X-408768D01*
X-396072Y1769798D02*
X-379145D01*
X-387608D01*
Y1744406D01*
X-353753Y1769798D02*
X-370681D01*
Y1744406D01*
X-353753D01*
X-370681Y1757102D02*
X-362217D01*
X-319897Y1769798D02*
X-311433D01*
X-315665D01*
Y1744406D01*
X-319897D01*
X-311433D01*
X-298737D02*
Y1769798D01*
X-281809Y1744406D01*
Y1769798D01*
X-273345D02*
Y1744406D01*
Y1752870D01*
X-256418Y1769798D01*
X-269113Y1757102D01*
X-256418Y1744406D01*
X-222562D02*
Y1761334D01*
X-214098Y1769798D01*
X-205634Y1761334D01*
Y1744406D01*
Y1757102D01*
X-222562D01*
X-180242Y1769798D02*
X-197170D01*
Y1757102D01*
X-188706D01*
X-197170D01*
Y1744406D01*
X-171778Y1769798D02*
X-154850D01*
X-163314D01*
Y1744406D01*
X-129459Y1769798D02*
X-146386D01*
Y1744406D01*
X-129459D01*
X-146386Y1757102D02*
X-137922D01*
X-120995Y1744406D02*
Y1769798D01*
X-108299D01*
X-104067Y1765566D01*
Y1757102D01*
X-108299Y1752870D01*
X-120995D01*
X-112531D02*
X-104067Y1744406D01*
X-53283Y1765566D02*
X-57515Y1769798D01*
X-65979D01*
X-70211Y1765566D01*
Y1761334D01*
X-65979Y1757102D01*
X-57515D01*
X-53283Y1752870D01*
Y1748638D01*
X-57515Y1744406D01*
X-65979D01*
X-70211Y1748638D01*
X-32123Y1769798D02*
X-40587D01*
X-44819Y1765566D01*
Y1748638D01*
X-40587Y1744406D01*
X-32123D01*
X-27891Y1748638D01*
Y1765566D01*
X-32123Y1769798D01*
X-19427D02*
Y1744406D01*
X-2500D01*
X5964Y1769798D02*
Y1744406D01*
X18660D01*
X22892Y1748638D01*
Y1765566D01*
X18660Y1769798D01*
X5964D01*
X48284D02*
X31356D01*
Y1744406D01*
X48284D01*
X31356Y1757102D02*
X39820D01*
X56748Y1744406D02*
Y1769798D01*
X69444D01*
X73676Y1765566D01*
Y1757102D01*
X69444Y1752870D01*
X56748D01*
X65212D02*
X73676Y1744406D01*
X82140D02*
Y1769798D01*
X90604Y1761334D01*
X99068Y1769798D01*
Y1744406D01*
X107532D02*
Y1761334D01*
X115996Y1769798D01*
X124459Y1761334D01*
Y1744406D01*
Y1757102D01*
X107532D01*
X149851Y1765566D02*
X145619Y1769798D01*
X137155D01*
X132923Y1765566D01*
Y1761334D01*
X137155Y1757102D01*
X145619D01*
X149851Y1752870D01*
Y1748638D01*
X145619Y1744406D01*
X137155D01*
X132923Y1748638D01*
X158315Y1769798D02*
Y1744406D01*
Y1752870D01*
X175243Y1769798D01*
X162547Y1757102D01*
X175243Y1744406D01*
X209099D02*
Y1761334D01*
X217563Y1769798D01*
X226027Y1761334D01*
Y1744406D01*
Y1757102D01*
X209099D01*
X251418Y1765566D02*
X247186Y1769798D01*
X238722D01*
X234491Y1765566D01*
Y1748638D01*
X238722Y1744406D01*
X247186D01*
X251418Y1748638D01*
X276810Y1765566D02*
X272578Y1769798D01*
X264114D01*
X259882Y1765566D01*
Y1748638D01*
X264114Y1744406D01*
X272578D01*
X276810Y1748638D01*
X297970Y1769798D02*
X289506D01*
X285274Y1765566D01*
Y1748638D01*
X289506Y1744406D01*
X297970D01*
X302202Y1748638D01*
Y1765566D01*
X297970Y1769798D01*
X310666Y1744406D02*
Y1769798D01*
X323362D01*
X327594Y1765566D01*
Y1757102D01*
X323362Y1752870D01*
X310666D01*
X319130D02*
X327594Y1744406D01*
X336058Y1769798D02*
Y1744406D01*
X348754D01*
X352986Y1748638D01*
Y1765566D01*
X348754Y1769798D01*
X336058D01*
X361450D02*
X369913D01*
X365681D01*
Y1744406D01*
X361450D01*
X369913D01*
X382609D02*
Y1769798D01*
X399537Y1744406D01*
Y1769798D01*
X424929Y1765566D02*
X420697Y1769798D01*
X412233D01*
X408001Y1765566D01*
Y1748638D01*
X412233Y1744406D01*
X420697D01*
X424929Y1748638D01*
Y1757102D01*
X416465D01*
X458785Y1769798D02*
X475713D01*
X467249D01*
Y1744406D01*
X496872Y1769798D02*
X488409D01*
X484176Y1765566D01*
Y1748638D01*
X488409Y1744406D01*
X496872D01*
X501104Y1748638D01*
Y1765566D01*
X496872Y1769798D01*
X551888Y1765566D02*
X547656Y1769798D01*
X539192D01*
X534960Y1765566D01*
Y1761334D01*
X539192Y1757102D01*
X547656D01*
X551888Y1752870D01*
Y1748638D01*
X547656Y1744406D01*
X539192D01*
X534960Y1748638D01*
X560352Y1769798D02*
X568816D01*
X564584D01*
Y1744406D01*
X560352D01*
X568816D01*
X581512Y1769798D02*
Y1744406D01*
X598440D01*
X606903Y1769798D02*
Y1744406D01*
Y1752870D01*
X623831Y1769798D01*
X611135Y1757102D01*
X623831Y1744406D01*
X649223Y1765566D02*
X644991Y1769798D01*
X636527D01*
X632295Y1765566D01*
Y1761334D01*
X636527Y1757102D01*
X644991D01*
X649223Y1752870D01*
Y1748638D01*
X644991Y1744406D01*
X636527D01*
X632295Y1748638D01*
X674615Y1765566D02*
X670383Y1769798D01*
X661919D01*
X657687Y1765566D01*
Y1748638D01*
X661919Y1744406D01*
X670383D01*
X674615Y1748638D01*
X683079Y1744406D02*
Y1769798D01*
X695775D01*
X700007Y1765566D01*
Y1757102D01*
X695775Y1752870D01*
X683079D01*
X691543D02*
X700007Y1744406D01*
X725399Y1769798D02*
X708471D01*
Y1744406D01*
X725399D01*
X708471Y1757102D02*
X716935D01*
X750790Y1769798D02*
X733863D01*
Y1744406D01*
X750790D01*
X733863Y1757102D02*
X742327D01*
X759254Y1744406D02*
Y1769798D01*
X776182Y1744406D01*
Y1769798D01*
X810038D02*
Y1744406D01*
X826966D01*
X835430D02*
Y1761334D01*
X843894Y1769798D01*
X852358Y1761334D01*
Y1744406D01*
Y1757102D01*
X835430D01*
X860822Y1769798D02*
Y1765566D01*
X869285Y1757102D01*
X877749Y1765566D01*
Y1769798D01*
X869285Y1757102D02*
Y1744406D01*
X903141Y1769798D02*
X886213D01*
Y1744406D01*
X903141D01*
X886213Y1757102D02*
X894677D01*
X911605Y1744406D02*
Y1769798D01*
X924301D01*
X928533Y1765566D01*
Y1757102D01*
X924301Y1752870D01*
X911605D01*
X920069D02*
X928533Y1744406D01*
X953925Y1765566D02*
X949693Y1769798D01*
X941229D01*
X936997Y1765566D01*
Y1761334D01*
X941229Y1757102D01*
X949693D01*
X953925Y1752870D01*
Y1748638D01*
X949693Y1744406D01*
X941229D01*
X936997Y1748638D01*
X962389Y1744406D02*
Y1748638D01*
X966621D01*
Y1744406D01*
X962389D01*
X-1178986Y1701744D02*
X-1187450D01*
Y1727136D01*
X-1178986D01*
X-1166290Y1701744D02*
X-1157826D01*
X-1162058D01*
Y1727136D01*
X-1166290Y1722904D01*
X-1145130Y1701744D02*
X-1136666D01*
X-1140898D01*
Y1727136D01*
X-1145130Y1722904D01*
X-1123970Y1701744D02*
X-1115507D01*
Y1727136D01*
X-1123970D01*
X-1001244Y1701744D02*
Y1718672D01*
X-992780Y1727136D01*
X-984316Y1718672D01*
Y1701744D01*
Y1714440D01*
X-1001244D01*
X-975852Y1701744D02*
Y1727136D01*
X-963156D01*
X-958924Y1722904D01*
Y1714440D01*
X-963156Y1710208D01*
X-975852D01*
X-950460Y1701744D02*
Y1727136D01*
X-937764D01*
X-933532Y1722904D01*
Y1714440D01*
X-937764Y1710208D01*
X-950460D01*
X-925068Y1727136D02*
Y1701744D01*
X-908140D01*
X-899676Y1727136D02*
Y1722904D01*
X-891212Y1714440D01*
X-882748Y1722904D01*
Y1727136D01*
X-891212Y1714440D02*
Y1701744D01*
X-831965Y1727136D02*
X-848893D01*
Y1701744D01*
X-831965D01*
X-848893Y1714440D02*
X-840429D01*
X-823501Y1701744D02*
Y1727136D01*
X-806573Y1701744D01*
Y1727136D01*
X-798109D02*
X-789645D01*
X-793877D01*
Y1701744D01*
X-798109D01*
X-789645D01*
X-760022Y1722904D02*
X-764253Y1727136D01*
X-772717D01*
X-776949Y1722904D01*
Y1705976D01*
X-772717Y1701744D01*
X-764253D01*
X-760022Y1705976D01*
Y1714440D01*
X-768485D01*
X-709238Y1722904D02*
X-713470Y1727136D01*
X-721934D01*
X-726166Y1722904D01*
Y1718672D01*
X-721934Y1714440D01*
X-713470D01*
X-709238Y1710208D01*
Y1705976D01*
X-713470Y1701744D01*
X-721934D01*
X-726166Y1705976D01*
X-700774Y1727136D02*
Y1705976D01*
X-696542Y1701744D01*
X-688078D01*
X-683846Y1705976D01*
Y1727136D01*
X-675382Y1701744D02*
Y1727136D01*
X-662686D01*
X-658454Y1722904D01*
Y1714440D01*
X-662686Y1710208D01*
X-675382D01*
X-666918D02*
X-658454Y1701744D01*
X-633063Y1727136D02*
X-649990D01*
Y1714440D01*
X-641526D01*
X-649990D01*
Y1701744D01*
X-624599D02*
Y1718672D01*
X-616135Y1727136D01*
X-607671Y1718672D01*
Y1701744D01*
Y1714440D01*
X-624599D01*
X-582279Y1722904D02*
X-586511Y1727136D01*
X-594975D01*
X-599207Y1722904D01*
Y1705976D01*
X-594975Y1701744D01*
X-586511D01*
X-582279Y1705976D01*
X-556887Y1727136D02*
X-573815D01*
Y1701744D01*
X-556887D01*
X-573815Y1714440D02*
X-565351D01*
X-506104Y1727136D02*
X-523031D01*
Y1714440D01*
X-514567D01*
X-523031D01*
Y1701744D01*
X-497640Y1727136D02*
X-489176D01*
X-493408D01*
Y1701744D01*
X-497640D01*
X-489176D01*
X-476480D02*
Y1727136D01*
X-459552Y1701744D01*
Y1727136D01*
X-451088D02*
X-442624D01*
X-446856D01*
Y1701744D01*
X-451088D01*
X-442624D01*
X-413000Y1722904D02*
X-417232Y1727136D01*
X-425696D01*
X-429928Y1722904D01*
Y1718672D01*
X-425696Y1714440D01*
X-417232D01*
X-413000Y1710208D01*
Y1705976D01*
X-417232Y1701744D01*
X-425696D01*
X-429928Y1705976D01*
X-404536Y1727136D02*
Y1701744D01*
Y1714440D01*
X-387608D01*
Y1727136D01*
Y1701744D01*
X-341057Y1727136D02*
X-349521D01*
X-353753Y1722904D01*
Y1705976D01*
X-349521Y1701744D01*
X-341057D01*
X-336825Y1705976D01*
Y1722904D01*
X-341057Y1727136D01*
X-328361Y1701744D02*
Y1727136D01*
X-311433Y1701744D01*
Y1727136D01*
X-277577Y1701744D02*
Y1718672D01*
X-269113Y1727136D01*
X-260650Y1718672D01*
Y1701744D01*
Y1714440D01*
X-277577D01*
X-252186Y1727136D02*
Y1701744D01*
X-235258D01*
X-226794Y1727136D02*
Y1701744D01*
X-209866D01*
X-159082Y1727136D02*
X-176010D01*
Y1701744D01*
X-159082D01*
X-176010Y1714440D02*
X-167546D01*
X-150618Y1727136D02*
X-133691Y1701744D01*
Y1727136D02*
X-150618Y1701744D01*
X-125227D02*
Y1727136D01*
X-112531D01*
X-108299Y1722904D01*
Y1714440D01*
X-112531Y1710208D01*
X-125227D01*
X-87139Y1727136D02*
X-95603D01*
X-99835Y1722904D01*
Y1705976D01*
X-95603Y1701744D01*
X-87139D01*
X-82907Y1705976D01*
Y1722904D01*
X-87139Y1727136D01*
X-57515Y1722904D02*
X-61747Y1727136D01*
X-70211D01*
X-74443Y1722904D01*
Y1718672D01*
X-70211Y1714440D01*
X-61747D01*
X-57515Y1710208D01*
Y1705976D01*
X-61747Y1701744D01*
X-70211D01*
X-74443Y1705976D01*
X-32123Y1727136D02*
X-49051D01*
Y1701744D01*
X-32123D01*
X-49051Y1714440D02*
X-40587D01*
X-23659Y1727136D02*
Y1701744D01*
X-10963D01*
X-6732Y1705976D01*
Y1722904D01*
X-10963Y1727136D01*
X-23659D01*
X44052Y1722904D02*
X39820Y1727136D01*
X31356D01*
X27124Y1722904D01*
Y1705976D01*
X31356Y1701744D01*
X39820D01*
X44052Y1705976D01*
X65212Y1727136D02*
X56748D01*
X52516Y1722904D01*
Y1705976D01*
X56748Y1701744D01*
X65212D01*
X69444Y1705976D01*
Y1722904D01*
X65212Y1727136D01*
X77908Y1701744D02*
Y1727136D01*
X90604D01*
X94836Y1722904D01*
Y1714440D01*
X90604Y1710208D01*
X77908D01*
X103300Y1701744D02*
Y1727136D01*
X115996D01*
X120227Y1722904D01*
Y1714440D01*
X115996Y1710208D01*
X103300D01*
X145619Y1727136D02*
X128691D01*
Y1701744D01*
X145619D01*
X128691Y1714440D02*
X137155D01*
X154083Y1701744D02*
Y1727136D01*
X166779D01*
X171011Y1722904D01*
Y1714440D01*
X166779Y1710208D01*
X154083D01*
X162547D02*
X171011Y1701744D01*
X-1178986Y1659082D02*
X-1187450D01*
Y1684474D01*
X-1178986D01*
X-1166290Y1659082D02*
X-1157826D01*
X-1162058D01*
Y1684474D01*
X-1166290Y1680242D01*
X-1128203Y1659082D02*
X-1145130D01*
X-1128203Y1676010D01*
Y1680242D01*
X-1132434Y1684474D01*
X-1140898D01*
X-1145130Y1680242D01*
X-1119739Y1659082D02*
X-1111275D01*
Y1684474D01*
X-1119739D01*
X-997011D02*
Y1659082D01*
X-984316D01*
X-980084Y1663314D01*
Y1667546D01*
X-984316Y1671778D01*
X-997011D01*
X-984316D01*
X-980084Y1676010D01*
Y1680242D01*
X-984316Y1684474D01*
X-997011D01*
X-958924D02*
X-967388D01*
X-971620Y1680242D01*
Y1663314D01*
X-967388Y1659082D01*
X-958924D01*
X-954692Y1663314D01*
Y1680242D01*
X-958924Y1684474D01*
X-946228D02*
Y1659082D01*
X-937764Y1667546D01*
X-929300Y1659082D01*
Y1684474D01*
X-895444Y1659082D02*
Y1676010D01*
X-886980Y1684474D01*
X-878516Y1676010D01*
Y1659082D01*
Y1671778D01*
X-895444D01*
X-870053Y1659082D02*
Y1684474D01*
X-853125Y1659082D01*
Y1684474D01*
X-844661D02*
Y1659082D01*
X-831965D01*
X-827733Y1663314D01*
Y1680242D01*
X-831965Y1684474D01*
X-844661D01*
X-793877D02*
X-776949D01*
X-785413D01*
Y1659082D01*
X-768485Y1684474D02*
Y1659082D01*
X-760021Y1667546D01*
X-751557Y1659082D01*
Y1684474D01*
X-743094D02*
X-734630D01*
X-738862D01*
Y1659082D01*
X-743094D01*
X-734630D01*
X-705006Y1680242D02*
X-709238Y1684474D01*
X-717702D01*
X-721934Y1680242D01*
Y1676010D01*
X-717702Y1671778D01*
X-709238D01*
X-705006Y1667546D01*
Y1663314D01*
X-709238Y1659082D01*
X-717702D01*
X-721934Y1663314D01*
X-696542Y1684474D02*
X-679614D01*
X-688078D01*
Y1659082D01*
X-628830Y1680242D02*
X-633063Y1684474D01*
X-641526D01*
X-645758Y1680242D01*
Y1676010D01*
X-641526Y1671778D01*
X-633063D01*
X-628830Y1667546D01*
Y1663314D01*
X-633063Y1659082D01*
X-641526D01*
X-645758Y1663314D01*
X-620367Y1684474D02*
Y1659082D01*
Y1671778D01*
X-603439D01*
Y1684474D01*
Y1659082D01*
X-594975D02*
Y1676010D01*
X-586511Y1684474D01*
X-578047Y1676010D01*
Y1659082D01*
Y1671778D01*
X-594975D01*
X-569583Y1684474D02*
Y1659082D01*
X-552655D01*
X-544191Y1684474D02*
Y1659082D01*
X-527263D01*
X-493408D02*
Y1684474D01*
X-476480Y1659082D01*
Y1684474D01*
X-455320D02*
X-463784D01*
X-468016Y1680242D01*
Y1663314D01*
X-463784Y1659082D01*
X-455320D01*
X-451088Y1663314D01*
Y1680242D01*
X-455320Y1684474D01*
X-442624D02*
X-425696D01*
X-434160D01*
Y1659082D01*
X-374913Y1684474D02*
X-391840D01*
Y1659082D01*
X-374913D01*
X-391840Y1671778D02*
X-383377D01*
X-366449Y1684474D02*
X-349521Y1659082D01*
Y1684474D02*
X-366449Y1659082D01*
X-324129Y1680242D02*
X-328361Y1684474D01*
X-336825D01*
X-341057Y1680242D01*
Y1663314D01*
X-336825Y1659082D01*
X-328361D01*
X-324129Y1663314D01*
X-298737Y1684474D02*
X-315665D01*
Y1659082D01*
X-298737D01*
X-315665Y1671778D02*
X-307201D01*
X-273345Y1684474D02*
X-290273D01*
Y1659082D01*
X-273345D01*
X-290273Y1671778D02*
X-281809D01*
X-264881Y1684474D02*
Y1659082D01*
X-252186D01*
X-247954Y1663314D01*
Y1680242D01*
X-252186Y1684474D01*
X-264881D01*
X-214098Y1680242D02*
X-209866Y1684474D01*
X-201402D01*
X-197170Y1680242D01*
Y1663314D01*
X-201402Y1659082D01*
X-209866D01*
X-214098Y1663314D01*
Y1680242D01*
X-188706Y1659082D02*
Y1663314D01*
X-184474D01*
Y1659082D01*
X-188706D01*
X-167546Y1680242D02*
X-163314Y1684474D01*
X-154850D01*
X-150618Y1680242D01*
Y1663314D01*
X-154850Y1659082D01*
X-163314D01*
X-167546Y1663314D01*
Y1680242D01*
X-142154D02*
X-137922Y1684474D01*
X-129459D01*
X-125227Y1680242D01*
Y1663314D01*
X-129459Y1659082D01*
X-137922D01*
X-142154Y1663314D01*
Y1680242D01*
X-116763Y1684474D02*
X-99835D01*
Y1680242D01*
X-116763Y1663314D01*
Y1659082D01*
X-74443Y1684474D02*
X-91371D01*
Y1671778D01*
X-82907Y1676010D01*
X-78675D01*
X-74443Y1671778D01*
Y1663314D01*
X-78675Y1659082D01*
X-87139D01*
X-91371Y1663314D01*
X-40587Y1684474D02*
X-32123D01*
X-36355D01*
Y1659082D01*
X-40587D01*
X-32123D01*
X-19427D02*
Y1684474D01*
X-2500Y1659082D01*
Y1684474D01*
X22892Y1680242D02*
X18660Y1684474D01*
X10196D01*
X5964Y1680242D01*
Y1663314D01*
X10196Y1659082D01*
X18660D01*
X22892Y1663314D01*
X31356Y1684474D02*
Y1659082D01*
Y1671778D01*
X48284D01*
Y1684474D01*
Y1659082D01*
X82140D02*
Y1684474D01*
X94836D01*
X99068Y1680242D01*
Y1671778D01*
X94836Y1667546D01*
X82140D01*
X124459Y1684474D02*
X107532D01*
Y1659082D01*
X124459D01*
X107532Y1671778D02*
X115996D01*
X132923Y1659082D02*
Y1684474D01*
X145619D01*
X149851Y1680242D01*
Y1671778D01*
X145619Y1667546D01*
X132923D01*
X141387D02*
X149851Y1659082D01*
X183707Y1684474D02*
X192171D01*
X187939D01*
Y1659082D01*
X183707D01*
X192171D01*
X204867D02*
Y1684474D01*
X221795Y1659082D01*
Y1684474D01*
X247186Y1680242D02*
X242955Y1684474D01*
X234491D01*
X230259Y1680242D01*
Y1663314D01*
X234491Y1659082D01*
X242955D01*
X247186Y1663314D01*
X255650Y1684474D02*
Y1659082D01*
Y1671778D01*
X272578D01*
Y1684474D01*
Y1659082D01*
X281042D02*
Y1663314D01*
X285274D01*
Y1659082D01*
X281042D01*
X-1178986Y1616420D02*
X-1187450D01*
Y1641812D01*
X-1178986D01*
X-1166290Y1616420D02*
X-1157826D01*
X-1162058D01*
Y1641812D01*
X-1166290Y1637579D01*
X-1145130D02*
X-1140898Y1641812D01*
X-1132434D01*
X-1128203Y1637579D01*
Y1633347D01*
X-1132434Y1629116D01*
X-1136666D01*
X-1132434D01*
X-1128203Y1624884D01*
Y1620652D01*
X-1132434Y1616420D01*
X-1140898D01*
X-1145130Y1620652D01*
X-1119739Y1616420D02*
X-1111275D01*
Y1641812D01*
X-1119739D01*
X-997011Y1616420D02*
Y1633347D01*
X-988548Y1641812D01*
X-980084Y1633347D01*
Y1616420D01*
Y1629116D01*
X-997011D01*
X-971620Y1641812D02*
Y1616420D01*
X-954692D01*
X-946228Y1641812D02*
Y1616420D01*
X-929300D01*
X-878516Y1637579D02*
X-882748Y1641812D01*
X-891212D01*
X-895444Y1637579D01*
Y1633347D01*
X-891212Y1629116D01*
X-882748D01*
X-878516Y1624884D01*
Y1620652D01*
X-882748Y1616420D01*
X-891212D01*
X-895444Y1620652D01*
X-870053Y1616420D02*
Y1641812D01*
X-857357D01*
X-853125Y1637579D01*
Y1629116D01*
X-857357Y1624884D01*
X-870053D01*
X-827733Y1641812D02*
X-844661D01*
Y1616420D01*
X-827733D01*
X-844661Y1629116D02*
X-836197D01*
X-802341Y1637579D02*
X-806573Y1641812D01*
X-815037D01*
X-819269Y1637579D01*
Y1620652D01*
X-815037Y1616420D01*
X-806573D01*
X-802341Y1620652D01*
X-793877Y1641812D02*
X-785413D01*
X-789645D01*
Y1616420D01*
X-793877D01*
X-785413D01*
X-755789Y1641812D02*
X-772717D01*
Y1629116D01*
X-764253D01*
X-772717D01*
Y1616420D01*
X-747326Y1641812D02*
X-738862D01*
X-743094D01*
Y1616420D01*
X-747326D01*
X-738862D01*
X-709238Y1637579D02*
X-713470Y1641812D01*
X-721934D01*
X-726166Y1637579D01*
Y1620652D01*
X-721934Y1616420D01*
X-713470D01*
X-709238Y1620652D01*
X-700774Y1616420D02*
Y1633347D01*
X-692310Y1641812D01*
X-683846Y1633347D01*
Y1616420D01*
Y1629116D01*
X-700774D01*
X-675382Y1641812D02*
X-658454D01*
X-666918D01*
Y1616420D01*
X-649990Y1641812D02*
X-641526D01*
X-645758D01*
Y1616420D01*
X-649990D01*
X-641526D01*
X-616135Y1641812D02*
X-624599D01*
X-628830Y1637579D01*
Y1620652D01*
X-624599Y1616420D01*
X-616135D01*
X-611903Y1620652D01*
Y1637579D01*
X-616135Y1641812D01*
X-603439Y1616420D02*
Y1641812D01*
X-586511Y1616420D01*
Y1641812D01*
X-561119Y1637579D02*
X-565351Y1641812D01*
X-573815D01*
X-578047Y1637579D01*
Y1633347D01*
X-573815Y1629116D01*
X-565351D01*
X-561119Y1624884D01*
Y1620652D01*
X-565351Y1616420D01*
X-573815D01*
X-578047Y1620652D01*
X-527263Y1616420D02*
Y1641812D01*
X-514567D01*
X-510336Y1637579D01*
Y1629116D01*
X-514567Y1624884D01*
X-527263D01*
X-518799D02*
X-510336Y1616420D01*
X-484944Y1641812D02*
X-501871D01*
Y1616420D01*
X-484944D01*
X-501871Y1629116D02*
X-493408D01*
X-459552Y1641812D02*
X-476480D01*
Y1629116D01*
X-468016D01*
X-476480D01*
Y1616420D01*
X-434160Y1641812D02*
X-451088D01*
Y1616420D01*
X-434160D01*
X-451088Y1629116D02*
X-442624D01*
X-425696Y1616420D02*
Y1641812D01*
X-413000D01*
X-408768Y1637579D01*
Y1629116D01*
X-413000Y1624884D01*
X-425696D01*
X-417232D02*
X-408768Y1616420D01*
X-383377Y1641812D02*
X-400304D01*
Y1616420D01*
X-383377D01*
X-400304Y1629116D02*
X-391840D01*
X-374913Y1616420D02*
Y1641812D01*
X-357985Y1616420D01*
Y1641812D01*
X-332593Y1637579D02*
X-336825Y1641812D01*
X-345289D01*
X-349521Y1637579D01*
Y1620652D01*
X-345289Y1616420D01*
X-336825D01*
X-332593Y1620652D01*
X-307201Y1641812D02*
X-324129D01*
Y1616420D01*
X-307201D01*
X-324129Y1629116D02*
X-315665D01*
X-298737Y1641812D02*
Y1616420D01*
X-286041D01*
X-281809Y1620652D01*
Y1637579D01*
X-286041Y1641812D01*
X-298737D01*
X-231026Y1637579D02*
X-235258Y1641812D01*
X-243722D01*
X-247954Y1637579D01*
Y1633347D01*
X-243722Y1629116D01*
X-235258D01*
X-231026Y1624884D01*
Y1620652D01*
X-235258Y1616420D01*
X-243722D01*
X-247954Y1620652D01*
X-222562Y1641812D02*
Y1616420D01*
Y1629116D01*
X-205634D01*
Y1641812D01*
Y1616420D01*
X-197170D02*
Y1633347D01*
X-188706Y1641812D01*
X-180242Y1633347D01*
Y1616420D01*
Y1629116D01*
X-197170D01*
X-171778Y1641812D02*
Y1616420D01*
X-154850D01*
X-146386Y1641812D02*
Y1616420D01*
X-129459D01*
X-95603Y1641812D02*
Y1616420D01*
X-82907D01*
X-78675Y1620652D01*
Y1624884D01*
X-82907Y1629116D01*
X-95603D01*
X-82907D01*
X-78675Y1633347D01*
Y1637579D01*
X-82907Y1641812D01*
X-95603D01*
X-53283D02*
X-70211D01*
Y1616420D01*
X-53283D01*
X-70211Y1629116D02*
X-61747D01*
X-6732Y1641812D02*
X-15195D01*
X-19427Y1637579D01*
Y1620652D01*
X-15195Y1616420D01*
X-6732D01*
X-2500Y1620652D01*
Y1637579D01*
X-6732Y1641812D01*
X22892D02*
X5964D01*
Y1629116D01*
X14428D01*
X5964D01*
Y1616420D01*
X56748Y1641812D02*
X73676D01*
X65212D01*
Y1616420D01*
X82140Y1641812D02*
Y1616420D01*
Y1629116D01*
X99068D01*
Y1641812D01*
Y1616420D01*
X124459Y1641812D02*
X107532D01*
Y1616420D01*
X124459D01*
X107532Y1629116D02*
X115996D01*
X158315Y1641812D02*
Y1616420D01*
X175243D01*
X183707D02*
Y1633347D01*
X192171Y1641812D01*
X200635Y1633347D01*
Y1616420D01*
Y1629116D01*
X183707D01*
X209099Y1641812D02*
X226027D01*
X217563D01*
Y1616420D01*
X251418Y1641812D02*
X234491D01*
Y1616420D01*
X251418D01*
X234491Y1629116D02*
X242955D01*
X276810Y1637579D02*
X272578Y1641812D01*
X264114D01*
X259882Y1637579D01*
Y1633347D01*
X264114Y1629116D01*
X272578D01*
X276810Y1624884D01*
Y1620652D01*
X272578Y1616420D01*
X264114D01*
X259882Y1620652D01*
X285274Y1641812D02*
X302202D01*
X293738D01*
Y1616420D01*
X336058D02*
Y1641812D01*
X348754D01*
X352986Y1637579D01*
Y1629116D01*
X348754Y1624884D01*
X336058D01*
X344522D02*
X352986Y1616420D01*
X378377Y1641812D02*
X361450D01*
Y1616420D01*
X378377D01*
X361450Y1629116D02*
X369913D01*
X386841Y1641812D02*
Y1624884D01*
X395305Y1616420D01*
X403769Y1624884D01*
Y1641812D01*
X412233D02*
X420697D01*
X416465D01*
Y1616420D01*
X412233D01*
X420697D01*
X450321Y1637579D02*
X446089Y1641812D01*
X437625D01*
X433393Y1637579D01*
Y1633347D01*
X437625Y1629116D01*
X446089D01*
X450321Y1624884D01*
Y1620652D01*
X446089Y1616420D01*
X437625D01*
X433393Y1620652D01*
X458785Y1641812D02*
X467249D01*
X463017D01*
Y1616420D01*
X458785D01*
X467249D01*
X492640Y1641812D02*
X484176D01*
X479945Y1637579D01*
Y1620652D01*
X484176Y1616420D01*
X492640D01*
X496872Y1620652D01*
Y1637579D01*
X492640Y1641812D01*
X505336Y1616420D02*
Y1641812D01*
X522264Y1616420D01*
Y1641812D01*
X530728Y1616420D02*
Y1620652D01*
X534960D01*
Y1616420D01*
X530728D01*
X-908140Y1573757D02*
Y1590685D01*
X-899676Y1599149D01*
X-891212Y1590685D01*
Y1573757D01*
Y1586453D01*
X-908140D01*
X-882748Y1599149D02*
Y1573757D01*
X-865821D01*
X-857357Y1599149D02*
Y1573757D01*
X-840429D01*
X-806573Y1599149D02*
Y1573757D01*
X-793877D01*
X-789645Y1577990D01*
Y1594917D01*
X-793877Y1599149D01*
X-806573D01*
X-764253D02*
X-781181D01*
Y1573757D01*
X-764253D01*
X-781181Y1586453D02*
X-772717D01*
X-738862Y1594917D02*
X-743094Y1599149D01*
X-751557D01*
X-755789Y1594917D01*
Y1590685D01*
X-751557Y1586453D01*
X-743094D01*
X-738862Y1582222D01*
Y1577990D01*
X-743094Y1573757D01*
X-751557D01*
X-755789Y1577990D01*
X-730398Y1599149D02*
X-721934D01*
X-726166D01*
Y1573757D01*
X-730398D01*
X-721934D01*
X-692310Y1594917D02*
X-696542Y1599149D01*
X-705006D01*
X-709238Y1594917D01*
Y1577990D01*
X-705006Y1573757D01*
X-696542D01*
X-692310Y1577990D01*
Y1586453D01*
X-700774D01*
X-683846Y1573757D02*
Y1599149D01*
X-666918Y1573757D01*
Y1599149D01*
X-633063Y1573757D02*
Y1599149D01*
X-624599Y1590685D01*
X-616135Y1599149D01*
Y1573757D01*
X-594975Y1599149D02*
X-603439D01*
X-607671Y1594917D01*
Y1577990D01*
X-603439Y1573757D01*
X-594975D01*
X-590743Y1577990D01*
Y1594917D01*
X-594975Y1599149D01*
X-582279D02*
Y1573757D01*
X-569583D01*
X-565351Y1577990D01*
Y1594917D01*
X-569583Y1599149D01*
X-582279D01*
X-556887D02*
X-548423D01*
X-552655D01*
Y1573757D01*
X-556887D01*
X-548423D01*
X-518799Y1599149D02*
X-535727D01*
Y1586453D01*
X-527263D01*
X-535727D01*
Y1573757D01*
X-510336Y1599149D02*
X-501871D01*
X-506104D01*
Y1573757D01*
X-510336D01*
X-501871D01*
X-472248Y1594917D02*
X-476480Y1599149D01*
X-484944D01*
X-489176Y1594917D01*
Y1577990D01*
X-484944Y1573757D01*
X-476480D01*
X-472248Y1577990D01*
X-463784Y1573757D02*
Y1590685D01*
X-455320Y1599149D01*
X-446856Y1590685D01*
Y1573757D01*
Y1586453D01*
X-463784D01*
X-438392Y1599149D02*
X-421464D01*
X-429928D01*
Y1573757D01*
X-413000Y1599149D02*
X-404536D01*
X-408768D01*
Y1573757D01*
X-413000D01*
X-404536D01*
X-379145Y1599149D02*
X-387608D01*
X-391840Y1594917D01*
Y1577990D01*
X-387608Y1573757D01*
X-379145D01*
X-374913Y1577990D01*
Y1594917D01*
X-379145Y1599149D01*
X-366449Y1573757D02*
Y1599149D01*
X-349521Y1573757D01*
Y1599149D01*
X-324129Y1594917D02*
X-328361Y1599149D01*
X-336825D01*
X-341057Y1594917D01*
Y1590685D01*
X-336825Y1586453D01*
X-328361D01*
X-324129Y1582222D01*
Y1577990D01*
X-328361Y1573757D01*
X-336825D01*
X-341057Y1577990D01*
X-290273Y1573757D02*
Y1599149D01*
X-281809Y1590685D01*
X-273345Y1599149D01*
Y1573757D01*
X-264881Y1599149D02*
Y1577990D01*
X-260650Y1573757D01*
X-252186D01*
X-247954Y1577990D01*
Y1599149D01*
X-222562Y1594917D02*
X-226794Y1599149D01*
X-235258D01*
X-239490Y1594917D01*
Y1590685D01*
X-235258Y1586453D01*
X-226794D01*
X-222562Y1582222D01*
Y1577990D01*
X-226794Y1573757D01*
X-235258D01*
X-239490Y1577990D01*
X-214098Y1599149D02*
X-197170D01*
X-205634D01*
Y1573757D01*
X-163314Y1599149D02*
Y1573757D01*
X-150618D01*
X-146386Y1577990D01*
Y1582222D01*
X-150618Y1586453D01*
X-163314D01*
X-150618D01*
X-146386Y1590685D01*
Y1594917D01*
X-150618Y1599149D01*
X-163314D01*
X-120995D02*
X-137922D01*
Y1573757D01*
X-120995D01*
X-137922Y1586453D02*
X-129459D01*
X-87139Y1573757D02*
Y1590685D01*
X-78675Y1599149D01*
X-70211Y1590685D01*
Y1573757D01*
Y1586453D01*
X-87139D01*
X-61747Y1573757D02*
Y1599149D01*
X-49051D01*
X-44819Y1594917D01*
Y1586453D01*
X-49051Y1582222D01*
X-61747D01*
X-36355Y1573757D02*
Y1599149D01*
X-23659D01*
X-19427Y1594917D01*
Y1586453D01*
X-23659Y1582222D01*
X-36355D01*
X-10963Y1573757D02*
Y1599149D01*
X1732D01*
X5964Y1594917D01*
Y1586453D01*
X1732Y1582222D01*
X-10963D01*
X-2500D02*
X5964Y1573757D01*
X27124Y1599149D02*
X18660D01*
X14428Y1594917D01*
Y1577990D01*
X18660Y1573757D01*
X27124D01*
X31356Y1577990D01*
Y1594917D01*
X27124Y1599149D01*
X39820D02*
Y1582222D01*
X48284Y1573757D01*
X56748Y1582222D01*
Y1599149D01*
X82140D02*
X65212D01*
Y1573757D01*
X82140D01*
X65212Y1586453D02*
X73676D01*
X90604Y1599149D02*
Y1573757D01*
X103300D01*
X107532Y1577990D01*
Y1594917D01*
X103300Y1599149D01*
X90604D01*
X141387D02*
Y1573757D01*
X154083D01*
X158315Y1577990D01*
Y1582222D01*
X154083Y1586453D01*
X141387D01*
X154083D01*
X158315Y1590685D01*
Y1594917D01*
X154083Y1599149D01*
X141387D01*
X166779D02*
Y1594917D01*
X175243Y1586453D01*
X183707Y1594917D01*
Y1599149D01*
X175243Y1586453D02*
Y1573757D01*
X234491Y1594917D02*
X230259Y1599149D01*
X221795D01*
X217563Y1594917D01*
Y1577990D01*
X221795Y1573757D01*
X230259D01*
X234491Y1577990D01*
X242955Y1599149D02*
Y1577990D01*
X247186Y1573757D01*
X255650D01*
X259882Y1577990D01*
Y1599149D01*
X285274Y1594917D02*
X281042Y1599149D01*
X272578D01*
X268346Y1594917D01*
Y1590685D01*
X272578Y1586453D01*
X281042D01*
X285274Y1582222D01*
Y1577990D01*
X281042Y1573757D01*
X272578D01*
X268346Y1577990D01*
X293738Y1599149D02*
X310666D01*
X302202D01*
Y1573757D01*
X331826Y1599149D02*
X323362D01*
X319130Y1594917D01*
Y1577990D01*
X323362Y1573757D01*
X331826D01*
X336058Y1577990D01*
Y1594917D01*
X331826Y1599149D01*
X344522Y1573757D02*
Y1599149D01*
X352986Y1590685D01*
X361450Y1599149D01*
Y1573757D01*
X386841Y1599149D02*
X369913D01*
Y1573757D01*
X386841D01*
X369913Y1586453D02*
X378377D01*
X395305Y1573757D02*
Y1599149D01*
X408001D01*
X412233Y1594917D01*
Y1586453D01*
X408001Y1582222D01*
X395305D01*
X403769D02*
X412233Y1573757D01*
X420697D02*
Y1577990D01*
X424929D01*
Y1573757D01*
X420697D01*
X-1178986Y1531095D02*
X-1187450D01*
Y1556487D01*
X-1178986D01*
X-1166290Y1531095D02*
X-1157826D01*
X-1162058D01*
Y1556487D01*
X-1166290Y1552255D01*
X-1132434Y1531095D02*
Y1556487D01*
X-1145130Y1543791D01*
X-1128203D01*
X-1119739Y1531095D02*
X-1111275D01*
Y1556487D01*
X-1119739D01*
X-997011D02*
Y1531095D01*
X-984316D01*
X-980084Y1535327D01*
Y1539559D01*
X-984316Y1543791D01*
X-997011D01*
X-984316D01*
X-980084Y1548023D01*
Y1552255D01*
X-984316Y1556487D01*
X-997011D01*
X-958924D02*
X-967388D01*
X-971620Y1552255D01*
Y1535327D01*
X-967388Y1531095D01*
X-958924D01*
X-954692Y1535327D01*
Y1552255D01*
X-958924Y1556487D01*
X-946228Y1531095D02*
Y1548023D01*
X-937764Y1556487D01*
X-929300Y1548023D01*
Y1531095D01*
Y1543791D01*
X-946228D01*
X-920836Y1531095D02*
Y1556487D01*
X-908140D01*
X-903908Y1552255D01*
Y1543791D01*
X-908140Y1539559D01*
X-920836D01*
X-912372D02*
X-903908Y1531095D01*
X-895444Y1556487D02*
Y1531095D01*
X-882748D01*
X-878516Y1535327D01*
Y1552255D01*
X-882748Y1556487D01*
X-895444D01*
X-844661D02*
X-836197D01*
X-840429D01*
Y1531095D01*
X-844661D01*
X-836197D01*
X-806573Y1552255D02*
X-810805Y1556487D01*
X-819269D01*
X-823501Y1552255D01*
Y1548023D01*
X-819269Y1543791D01*
X-810805D01*
X-806573Y1539559D01*
Y1535327D01*
X-810805Y1531095D01*
X-819269D01*
X-823501Y1535327D01*
X-772717Y1556487D02*
Y1539559D01*
X-764253Y1531095D01*
X-755789Y1539559D01*
Y1556487D01*
X-747326D02*
X-738862D01*
X-743094D01*
Y1531095D01*
X-747326D01*
X-738862D01*
X-709238Y1556487D02*
X-726166D01*
Y1531095D01*
X-709238D01*
X-726166Y1543791D02*
X-717702D01*
X-700774Y1556487D02*
Y1531095D01*
X-692310Y1539559D01*
X-683846Y1531095D01*
Y1556487D01*
X-658454D02*
X-675382D01*
Y1531095D01*
X-658454D01*
X-675382Y1543791D02*
X-666918D01*
X-649990Y1556487D02*
Y1531095D01*
X-637295D01*
X-633063Y1535327D01*
Y1552255D01*
X-637295Y1556487D01*
X-649990D01*
X-582279D02*
X-599207D01*
Y1543791D01*
X-590743D01*
X-599207D01*
Y1531095D01*
X-573815D02*
Y1556487D01*
X-561119D01*
X-556887Y1552255D01*
Y1543791D01*
X-561119Y1539559D01*
X-573815D01*
X-565351D02*
X-556887Y1531095D01*
X-535727Y1556487D02*
X-544191D01*
X-548423Y1552255D01*
Y1535327D01*
X-544191Y1531095D01*
X-535727D01*
X-531495Y1535327D01*
Y1552255D01*
X-535727Y1556487D01*
X-523031Y1531095D02*
Y1556487D01*
X-514567Y1548023D01*
X-506104Y1556487D01*
Y1531095D01*
X-472248D02*
Y1556487D01*
X-459552D01*
X-455320Y1552255D01*
Y1543791D01*
X-459552Y1539559D01*
X-472248D01*
X-446856Y1531095D02*
Y1556487D01*
X-434160D01*
X-429928Y1552255D01*
Y1543791D01*
X-434160Y1539559D01*
X-446856D01*
X-438392D02*
X-429928Y1531095D01*
X-421464Y1556487D02*
X-413000D01*
X-417232D01*
Y1531095D01*
X-421464D01*
X-413000D01*
X-400304D02*
Y1556487D01*
X-391840Y1548023D01*
X-383377Y1556487D01*
Y1531095D01*
X-374913D02*
Y1548023D01*
X-366449Y1556487D01*
X-357985Y1548023D01*
Y1531095D01*
Y1543791D01*
X-374913D01*
X-349521Y1531095D02*
Y1556487D01*
X-336825D01*
X-332593Y1552255D01*
Y1543791D01*
X-336825Y1539559D01*
X-349521D01*
X-341057D02*
X-332593Y1531095D01*
X-324129Y1556487D02*
Y1552255D01*
X-315665Y1543791D01*
X-307201Y1552255D01*
Y1556487D01*
X-315665Y1543791D02*
Y1531095D01*
X-256418Y1552255D02*
X-260650Y1556487D01*
X-269113D01*
X-273345Y1552255D01*
Y1548023D01*
X-269113Y1543791D01*
X-260650D01*
X-256418Y1539559D01*
Y1535327D01*
X-260650Y1531095D01*
X-269113D01*
X-273345Y1535327D01*
X-247954Y1556487D02*
X-239490D01*
X-243722D01*
Y1531095D01*
X-247954D01*
X-239490D01*
X-226794Y1556487D02*
Y1531095D01*
X-214098D01*
X-209866Y1535327D01*
Y1552255D01*
X-214098Y1556487D01*
X-226794D01*
X-184474D02*
X-201402D01*
Y1531095D01*
X-184474D01*
X-201402Y1543791D02*
X-192938D01*
X-142154Y1531095D02*
X-150618Y1539559D01*
Y1548023D01*
X-142154Y1556487D01*
X-129459D02*
Y1531095D01*
X-112531D01*
X-104067D02*
Y1548023D01*
X-95603Y1556487D01*
X-87139Y1548023D01*
Y1531095D01*
Y1543791D01*
X-104067D01*
X-78675Y1556487D02*
Y1552255D01*
X-70211Y1543791D01*
X-61747Y1552255D01*
Y1556487D01*
X-70211Y1543791D02*
Y1531095D01*
X-36355Y1556487D02*
X-53283D01*
Y1531095D01*
X-36355D01*
X-53283Y1543791D02*
X-44819D01*
X-27891Y1531095D02*
Y1556487D01*
X-15195D01*
X-10963Y1552255D01*
Y1543791D01*
X-15195Y1539559D01*
X-27891D01*
X-19427D02*
X-10963Y1531095D01*
X22892D02*
X31356D01*
X27124D01*
Y1556487D01*
X22892Y1552255D01*
X69444Y1543791D02*
X86372D01*
X120227Y1556487D02*
X137155D01*
X128691D01*
Y1531095D01*
X158315Y1556487D02*
X149851D01*
X145619Y1552255D01*
Y1535327D01*
X149851Y1531095D01*
X158315D01*
X162547Y1535327D01*
Y1552255D01*
X158315Y1556487D01*
X171011Y1531095D02*
Y1556487D01*
X183707D01*
X187939Y1552255D01*
Y1543791D01*
X183707Y1539559D01*
X171011D01*
X196403Y1531095D02*
X204867Y1539559D01*
Y1548023D01*
X196403Y1556487D01*
X217563Y1531095D02*
Y1535327D01*
X221795D01*
Y1531095D01*
X217563D01*
X-908140Y1513825D02*
X-891212D01*
X-899676D01*
Y1488433D01*
X-882748Y1513825D02*
Y1488433D01*
Y1501129D01*
X-865821D01*
Y1513825D01*
Y1488433D01*
X-840429Y1513825D02*
X-857357D01*
Y1488433D01*
X-840429D01*
X-857357Y1501129D02*
X-848893D01*
X-789645Y1509593D02*
X-793877Y1513825D01*
X-802341D01*
X-806573Y1509593D01*
Y1505361D01*
X-802341Y1501129D01*
X-793877D01*
X-789645Y1496897D01*
Y1492665D01*
X-793877Y1488433D01*
X-802341D01*
X-806573Y1492665D01*
X-781181Y1513825D02*
X-764253D01*
X-772717D01*
Y1488433D01*
X-755789D02*
Y1505361D01*
X-747326Y1513825D01*
X-738862Y1505361D01*
Y1488433D01*
Y1501129D01*
X-755789D01*
X-713470Y1509593D02*
X-717702Y1513825D01*
X-726166D01*
X-730398Y1509593D01*
Y1492665D01*
X-726166Y1488433D01*
X-717702D01*
X-713470Y1492665D01*
X-705006Y1513825D02*
Y1488433D01*
Y1496897D01*
X-688078Y1513825D01*
X-700774Y1501129D01*
X-688078Y1488433D01*
X-679614Y1513825D02*
Y1492665D01*
X-675382Y1488433D01*
X-666918D01*
X-662686Y1492665D01*
Y1513825D01*
X-654222Y1488433D02*
Y1513825D01*
X-641526D01*
X-637294Y1509593D01*
Y1501129D01*
X-641526Y1496897D01*
X-654222D01*
X-603439Y1513825D02*
Y1488433D01*
Y1501129D01*
X-586511D01*
Y1513825D01*
Y1488433D01*
X-578047D02*
Y1505361D01*
X-569583Y1513825D01*
X-561119Y1505361D01*
Y1488433D01*
Y1501129D01*
X-578047D01*
X-535727Y1509593D02*
X-539959Y1513825D01*
X-548423D01*
X-552655Y1509593D01*
Y1505361D01*
X-548423Y1501129D01*
X-539959D01*
X-535727Y1496897D01*
Y1492665D01*
X-539959Y1488433D01*
X-548423D01*
X-552655Y1492665D01*
X-501871Y1488433D02*
X-493408D01*
X-497640D01*
Y1513825D01*
X-501871Y1509593D01*
X-463784Y1488433D02*
X-480712D01*
X-463784Y1505361D01*
Y1509593D01*
X-468016Y1513825D01*
X-476480D01*
X-480712Y1509593D01*
X-413000D02*
X-417232Y1513825D01*
X-425696D01*
X-429928Y1509593D01*
Y1492665D01*
X-425696Y1488433D01*
X-417232D01*
X-413000Y1492665D01*
X-391840Y1513825D02*
X-400304D01*
X-404536Y1509593D01*
Y1492665D01*
X-400304Y1488433D01*
X-391840D01*
X-387608Y1492665D01*
Y1509593D01*
X-391840Y1513825D01*
X-379145Y1488433D02*
Y1513825D01*
X-362217Y1488433D01*
Y1513825D01*
X-353753D02*
Y1488433D01*
X-341057D01*
X-336825Y1492665D01*
Y1509593D01*
X-341057Y1513825D01*
X-353753D01*
X-328361D02*
Y1492665D01*
X-324129Y1488433D01*
X-315665D01*
X-311433Y1492665D01*
Y1513825D01*
X-286041Y1509593D02*
X-290273Y1513825D01*
X-298737D01*
X-302969Y1509593D01*
Y1492665D01*
X-298737Y1488433D01*
X-290273D01*
X-286041Y1492665D01*
X-277577Y1513825D02*
X-260650D01*
X-269113D01*
Y1488433D01*
X-252185Y1513825D02*
X-243722D01*
X-247954D01*
Y1488433D01*
X-252185D01*
X-243722D01*
X-231026Y1513825D02*
Y1496897D01*
X-222562Y1488433D01*
X-214098Y1496897D01*
Y1513825D01*
X-188706D02*
X-205634D01*
Y1488433D01*
X-188706D01*
X-205634Y1501129D02*
X-197170D01*
X-154850Y1513825D02*
Y1488433D01*
X-137922D01*
X-129459D02*
Y1505361D01*
X-120995Y1513825D01*
X-112531Y1505361D01*
Y1488433D01*
Y1501129D01*
X-129459D01*
X-104067Y1513825D02*
Y1509593D01*
X-95603Y1501129D01*
X-87139Y1509593D01*
Y1513825D01*
X-95603Y1501129D02*
Y1488433D01*
X-61747Y1513825D02*
X-78675D01*
Y1488433D01*
X-61747D01*
X-78675Y1501129D02*
X-70211D01*
X-53283Y1488433D02*
Y1513825D01*
X-40587D01*
X-36355Y1509593D01*
Y1501129D01*
X-40587Y1496897D01*
X-53283D01*
X-44819D02*
X-36355Y1488433D01*
X-10963Y1509593D02*
X-15195Y1513825D01*
X-23659D01*
X-27891Y1509593D01*
Y1505361D01*
X-23659Y1501129D01*
X-15195D01*
X-10963Y1496897D01*
Y1492665D01*
X-15195Y1488433D01*
X-23659D01*
X-27891Y1492665D01*
X-2500Y1488433D02*
Y1492665D01*
X1732D01*
Y1488433D01*
X-2500D01*
X-908140Y1441539D02*
Y1458467D01*
X-899676Y1466931D01*
X-891212Y1458467D01*
Y1441539D01*
Y1454235D01*
X-908140D01*
X-882748Y1466931D02*
Y1441539D01*
X-865821D01*
X-857357Y1466931D02*
Y1441539D01*
X-840429D01*
X-806573Y1466931D02*
X-798109D01*
X-802341D01*
Y1441539D01*
X-806573D01*
X-798109D01*
X-785413D02*
Y1466931D01*
X-768485Y1441539D01*
Y1466931D01*
X-760021Y1441539D02*
Y1466931D01*
X-743094Y1441539D01*
Y1466931D01*
X-717702D02*
X-734630D01*
Y1441539D01*
X-717702D01*
X-734630Y1454235D02*
X-726166D01*
X-709238Y1441539D02*
Y1466931D01*
X-696542D01*
X-692310Y1462699D01*
Y1454235D01*
X-696542Y1450003D01*
X-709238D01*
X-700774D02*
X-692310Y1441539D01*
X-641526Y1462699D02*
X-645758Y1466931D01*
X-654222D01*
X-658454Y1462699D01*
Y1445771D01*
X-654222Y1441539D01*
X-645758D01*
X-641526Y1445771D01*
X-620367Y1466931D02*
X-628830D01*
X-633063Y1462699D01*
Y1445771D01*
X-628830Y1441539D01*
X-620367D01*
X-616135Y1445771D01*
Y1462699D01*
X-620367Y1466931D01*
X-607671Y1441539D02*
Y1466931D01*
X-590743Y1441539D01*
Y1466931D01*
X-582279D02*
Y1441539D01*
X-569583D01*
X-565351Y1445771D01*
Y1462699D01*
X-569583Y1466931D01*
X-582279D01*
X-556887D02*
Y1445771D01*
X-552655Y1441539D01*
X-544191D01*
X-539959Y1445771D01*
Y1466931D01*
X-514567Y1462699D02*
X-518799Y1466931D01*
X-527263D01*
X-531495Y1462699D01*
Y1445771D01*
X-527263Y1441539D01*
X-518799D01*
X-514567Y1445771D01*
X-506104Y1466931D02*
X-489176D01*
X-497640D01*
Y1441539D01*
X-480712Y1466931D02*
X-472248D01*
X-476480D01*
Y1441539D01*
X-480712D01*
X-472248D01*
X-459552Y1466931D02*
Y1450003D01*
X-451088Y1441539D01*
X-442624Y1450003D01*
Y1466931D01*
X-417232D02*
X-434160D01*
Y1441539D01*
X-417232D01*
X-434160Y1454235D02*
X-425696D01*
X-383377Y1466931D02*
Y1441539D01*
X-366449D01*
X-357985D02*
Y1458467D01*
X-349521Y1466931D01*
X-341057Y1458467D01*
Y1441539D01*
Y1454235D01*
X-357985D01*
X-332593Y1466931D02*
Y1462699D01*
X-324129Y1454235D01*
X-315665Y1462699D01*
Y1466931D01*
X-324129Y1454235D02*
Y1441539D01*
X-290273Y1466931D02*
X-307201D01*
Y1441539D01*
X-290273D01*
X-307201Y1454235D02*
X-298737D01*
X-281809Y1441539D02*
Y1466931D01*
X-269113D01*
X-264881Y1462699D01*
Y1454235D01*
X-269113Y1450003D01*
X-281809D01*
X-273345D02*
X-264881Y1441539D01*
X-239490Y1462699D02*
X-243722Y1466931D01*
X-252185D01*
X-256418Y1462699D01*
Y1458467D01*
X-252185Y1454235D01*
X-243722D01*
X-239490Y1450003D01*
Y1445771D01*
X-243722Y1441539D01*
X-252185D01*
X-256418Y1445771D01*
X-205634Y1441539D02*
Y1458467D01*
X-197170Y1466931D01*
X-188706Y1458467D01*
Y1441539D01*
Y1454235D01*
X-205634D01*
X-180242Y1441539D02*
Y1466931D01*
X-167546D01*
X-163314Y1462699D01*
Y1454235D01*
X-167546Y1450003D01*
X-180242D01*
X-171778D02*
X-163314Y1441539D01*
X-137922Y1466931D02*
X-154850D01*
Y1441539D01*
X-137922D01*
X-154850Y1454235D02*
X-146386D01*
X-104067Y1466931D02*
Y1441539D01*
Y1454235D01*
X-87139D01*
Y1466931D01*
Y1441539D01*
X-78675D02*
Y1458467D01*
X-70211Y1466931D01*
X-61747Y1458467D01*
Y1441539D01*
Y1454235D01*
X-78675D01*
X-53283Y1466931D02*
Y1441539D01*
X-36355D01*
X-10963Y1466931D02*
X-27891D01*
Y1454235D01*
X-19427D01*
X-27891D01*
Y1441539D01*
X35588Y1466931D02*
X27124D01*
X22892Y1462699D01*
Y1445771D01*
X27124Y1441539D01*
X35588D01*
X39820Y1445771D01*
Y1462699D01*
X35588Y1466931D01*
X48284D02*
X65212D01*
Y1462699D01*
X48284Y1445771D01*
Y1441539D01*
X65212D01*
X73676D02*
X90604Y1458467D01*
X99068Y1466931D02*
X107532D01*
X103300D01*
Y1441539D01*
X99068D01*
X107532D01*
X120227D02*
Y1466931D01*
X137155Y1441539D01*
Y1466931D01*
X171011D02*
X187939D01*
X179475D01*
Y1441539D01*
X196403Y1466931D02*
Y1441539D01*
Y1454235D01*
X213331D01*
Y1466931D01*
Y1441539D01*
X221795Y1466931D02*
X230259D01*
X226027D01*
Y1441539D01*
X221795D01*
X230259D01*
X259882Y1462699D02*
X255650Y1466931D01*
X247186D01*
X242955Y1462699D01*
Y1445771D01*
X247186Y1441539D01*
X255650D01*
X259882Y1445771D01*
X268346Y1466931D02*
Y1441539D01*
Y1450003D01*
X285274Y1466931D01*
X272578Y1454235D01*
X285274Y1441539D01*
X319130Y1454235D02*
X336058D01*
X327594Y1462699D02*
Y1445771D01*
X344522Y1441539D02*
X361450Y1458467D01*
X369913Y1454235D02*
X386841D01*
X420697Y1441539D02*
X429161D01*
X424929D01*
Y1466931D01*
X420697Y1462699D01*
X441857D02*
X446089Y1466931D01*
X454553D01*
X458785Y1462699D01*
Y1445771D01*
X454553Y1441539D01*
X446089D01*
X441857Y1445771D01*
Y1462699D01*
X467249Y1445771D02*
X488409Y1466931D01*
X467249D02*
Y1471163D01*
X471481D01*
Y1466931D01*
X467249D01*
X484176Y1441539D02*
Y1445771D01*
X488409D01*
Y1441539D01*
X484176D01*
X-908140Y1420037D02*
X-891212D01*
X-899676D01*
Y1394645D01*
X-870053Y1420037D02*
X-878516D01*
X-882748Y1415805D01*
Y1398877D01*
X-878516Y1394645D01*
X-870053D01*
X-865821Y1398877D01*
Y1415805D01*
X-870053Y1420037D01*
X-857357Y1394645D02*
Y1420037D01*
X-844661D01*
X-840429Y1415805D01*
Y1407341D01*
X-844661Y1403109D01*
X-857357D01*
X-806573Y1394645D02*
Y1411573D01*
X-798109Y1420037D01*
X-789645Y1411573D01*
Y1394645D01*
Y1407341D01*
X-806573D01*
X-781181Y1394645D02*
Y1420037D01*
X-764253Y1394645D01*
Y1420037D01*
X-755789D02*
Y1394645D01*
X-743094D01*
X-738862Y1398877D01*
Y1415805D01*
X-743094Y1420037D01*
X-755789D01*
X-705006D02*
Y1394645D01*
X-692310D01*
X-688078Y1398877D01*
Y1403109D01*
X-692310Y1407341D01*
X-705006D01*
X-692310D01*
X-688078Y1411573D01*
Y1415805D01*
X-692310Y1420037D01*
X-705006D01*
X-666918D02*
X-675382D01*
X-679614Y1415805D01*
Y1398877D01*
X-675382Y1394645D01*
X-666918D01*
X-662686Y1398877D01*
Y1415805D01*
X-666918Y1420037D01*
X-654222D02*
X-637294D01*
X-645758D01*
Y1394645D01*
X-628830Y1420037D02*
X-611903D01*
X-620367D01*
Y1394645D01*
X-590743Y1420037D02*
X-599207D01*
X-603439Y1415805D01*
Y1398877D01*
X-599207Y1394645D01*
X-590743D01*
X-586511Y1398877D01*
Y1415805D01*
X-590743Y1420037D01*
X-578047Y1394645D02*
Y1420037D01*
X-569583Y1411573D01*
X-561119Y1420037D01*
Y1394645D01*
X-527263Y1420037D02*
Y1394645D01*
X-510336D01*
X-501871D02*
Y1411573D01*
X-493408Y1420037D01*
X-484944Y1411573D01*
Y1394645D01*
Y1407341D01*
X-501871D01*
X-476480Y1420037D02*
Y1415805D01*
X-468016Y1407341D01*
X-459552Y1415805D01*
Y1420037D01*
X-468016Y1407341D02*
Y1394645D01*
X-434160Y1420037D02*
X-451088D01*
Y1394645D01*
X-434160D01*
X-451088Y1407341D02*
X-442624D01*
X-425696Y1394645D02*
Y1420037D01*
X-413000D01*
X-408768Y1415805D01*
Y1407341D01*
X-413000Y1403109D01*
X-425696D01*
X-417232D02*
X-408768Y1394645D01*
X-383377Y1415805D02*
X-387608Y1420037D01*
X-396072D01*
X-400304Y1415805D01*
Y1411573D01*
X-396072Y1407341D01*
X-387608D01*
X-383377Y1403109D01*
Y1398877D01*
X-387608Y1394645D01*
X-396072D01*
X-400304Y1398877D01*
X-349521Y1394645D02*
Y1411573D01*
X-341057Y1420037D01*
X-332593Y1411573D01*
Y1394645D01*
Y1407341D01*
X-349521D01*
X-324129Y1394645D02*
Y1420037D01*
X-311433D01*
X-307201Y1415805D01*
Y1407341D01*
X-311433Y1403109D01*
X-324129D01*
X-315665D02*
X-307201Y1394645D01*
X-281809Y1420037D02*
X-298737D01*
Y1394645D01*
X-281809D01*
X-298737Y1407341D02*
X-290273D01*
X-247954Y1394645D02*
X-239490D01*
X-243722D01*
Y1420037D01*
X-247954Y1415805D01*
X-188706Y1420037D02*
X-197170D01*
X-201402Y1415805D01*
Y1398877D01*
X-197170Y1394645D01*
X-188706D01*
X-184474Y1398877D01*
Y1415805D01*
X-188706Y1420037D01*
X-176010D02*
X-159082D01*
Y1415805D01*
X-176010Y1398877D01*
Y1394645D01*
X-159082D01*
X-150618D02*
X-133691Y1411573D01*
X-125226Y1420037D02*
X-116763D01*
X-120995D01*
Y1394645D01*
X-125226D01*
X-116763D01*
X-104067D02*
Y1420037D01*
X-87139Y1394645D01*
Y1420037D01*
X-53283D02*
X-36355D01*
X-44819D01*
Y1394645D01*
X-27891Y1420037D02*
Y1394645D01*
Y1407341D01*
X-10963D01*
Y1420037D01*
Y1394645D01*
X-2500Y1420037D02*
X5964D01*
X1732D01*
Y1394645D01*
X-2500D01*
X5964D01*
X35588Y1415805D02*
X31356Y1420037D01*
X22892D01*
X18660Y1415805D01*
Y1398877D01*
X22892Y1394645D01*
X31356D01*
X35588Y1398877D01*
X44052Y1420037D02*
Y1394645D01*
Y1403109D01*
X60980Y1420037D01*
X48284Y1407341D01*
X60980Y1394645D01*
X94836Y1407341D02*
X111763D01*
X103300Y1415805D02*
Y1398877D01*
X120227Y1394645D02*
X137155Y1411573D01*
X145619Y1407341D02*
X162547D01*
X196403Y1394645D02*
X204867D01*
X200635D01*
Y1420037D01*
X196403Y1415805D01*
X217563D02*
X221795Y1420037D01*
X230259D01*
X234491Y1415805D01*
Y1398877D01*
X230259Y1394645D01*
X221795D01*
X217563Y1398877D01*
Y1415805D01*
X242955Y1398877D02*
X264114Y1420037D01*
X242955D02*
Y1424269D01*
X247186D01*
Y1420037D01*
X242955D01*
X259882Y1394645D02*
Y1398877D01*
X264114D01*
Y1394645D01*
X259882D01*
X-1178986Y1351983D02*
X-1187450D01*
Y1377375D01*
X-1178986D01*
X-1166290Y1351983D02*
X-1157826D01*
X-1162058D01*
Y1377375D01*
X-1166290Y1373143D01*
X-1128203Y1377375D02*
X-1145130D01*
Y1364679D01*
X-1136666Y1368911D01*
X-1132434D01*
X-1128203Y1364679D01*
Y1356215D01*
X-1132434Y1351983D01*
X-1140898D01*
X-1145130Y1356215D01*
X-1119739Y1351983D02*
X-1111275D01*
Y1377375D01*
X-1119739D01*
X-997011Y1351983D02*
Y1377375D01*
X-988548Y1368911D01*
X-980084Y1377375D01*
Y1351983D01*
X-971620Y1377375D02*
X-963156D01*
X-967388D01*
Y1351983D01*
X-971620D01*
X-963156D01*
X-950460D02*
Y1377375D01*
X-933532Y1351983D01*
Y1377375D01*
X-925068D02*
X-916604D01*
X-920836D01*
Y1351983D01*
X-925068D01*
X-916604D01*
X-903908D02*
Y1377375D01*
X-895444Y1368911D01*
X-886980Y1377375D01*
Y1351983D01*
X-878516Y1377375D02*
Y1356215D01*
X-874285Y1351983D01*
X-865821D01*
X-861589Y1356215D01*
Y1377375D01*
X-853125Y1351983D02*
Y1377375D01*
X-844661Y1368911D01*
X-836197Y1377375D01*
Y1351983D01*
X-802341Y1377375D02*
X-785413D01*
X-793877D01*
Y1351983D01*
X-776949D02*
Y1377375D01*
X-764253D01*
X-760022Y1373143D01*
Y1364679D01*
X-764253Y1360447D01*
X-776949D01*
X-768485D02*
X-760022Y1351983D01*
X-751557D02*
Y1368911D01*
X-743094Y1377375D01*
X-734630Y1368911D01*
Y1351983D01*
Y1364679D01*
X-751557D01*
X-709238Y1373143D02*
X-713470Y1377375D01*
X-721934D01*
X-726166Y1373143D01*
Y1356215D01*
X-721934Y1351983D01*
X-713470D01*
X-709238Y1356215D01*
X-683846Y1377375D02*
X-700774D01*
Y1351983D01*
X-683846D01*
X-700774Y1364679D02*
X-692310D01*
X-649990Y1377375D02*
Y1351983D01*
X-641526Y1360447D01*
X-633063Y1351983D01*
Y1377375D01*
X-624599D02*
X-616135D01*
X-620367D01*
Y1351983D01*
X-624599D01*
X-616135D01*
X-603439Y1377375D02*
Y1351983D01*
X-590743D01*
X-586511Y1356215D01*
Y1373143D01*
X-590743Y1377375D01*
X-603439D01*
X-578047D02*
X-561119D01*
X-569583D01*
Y1351983D01*
X-552655Y1377375D02*
Y1351983D01*
Y1364679D01*
X-535727D01*
Y1377375D01*
Y1351983D01*
X-501871D02*
Y1368911D01*
X-493408Y1377375D01*
X-484944Y1368911D01*
Y1351983D01*
Y1364679D01*
X-501871D01*
X-476480Y1351983D02*
Y1377375D01*
X-459552Y1351983D01*
Y1377375D01*
X-451088D02*
Y1351983D01*
X-438392D01*
X-434160Y1356215D01*
Y1373143D01*
X-438392Y1377375D01*
X-451088D01*
X-383377Y1373143D02*
X-387608Y1377375D01*
X-396072D01*
X-400304Y1373143D01*
Y1356215D01*
X-396072Y1351983D01*
X-387608D01*
X-383377Y1356215D01*
X-374913Y1377375D02*
Y1351983D01*
X-357985D01*
X-332593Y1377375D02*
X-349521D01*
Y1351983D01*
X-332593D01*
X-349521Y1364679D02*
X-341057D01*
X-324129Y1351983D02*
Y1368911D01*
X-315665Y1377375D01*
X-307201Y1368911D01*
Y1351983D01*
Y1364679D01*
X-324129D01*
X-298737Y1351983D02*
Y1377375D01*
X-286041D01*
X-281809Y1373143D01*
Y1364679D01*
X-286041Y1360447D01*
X-298737D01*
X-290273D02*
X-281809Y1351983D01*
X-273345D02*
Y1368911D01*
X-264881Y1377375D01*
X-256418Y1368911D01*
Y1351983D01*
Y1364679D01*
X-273345D01*
X-247954Y1351983D02*
Y1377375D01*
X-231026Y1351983D01*
Y1377375D01*
X-205634Y1373143D02*
X-209866Y1377375D01*
X-218330D01*
X-222562Y1373143D01*
Y1356215D01*
X-218330Y1351983D01*
X-209866D01*
X-205634Y1356215D01*
X-180242Y1377375D02*
X-197170D01*
Y1351983D01*
X-180242D01*
X-197170Y1364679D02*
X-188706D01*
X-146386Y1351983D02*
Y1368911D01*
X-137922Y1377375D01*
X-129459Y1368911D01*
Y1351983D01*
Y1364679D01*
X-146386D01*
X-120995Y1351983D02*
Y1377375D01*
X-108299D01*
X-104067Y1373143D01*
Y1364679D01*
X-108299Y1360447D01*
X-120995D01*
X-112531D02*
X-104067Y1351983D01*
X-78675Y1377375D02*
X-95603D01*
Y1351983D01*
X-78675D01*
X-95603Y1364679D02*
X-87139D01*
X-44819Y1373143D02*
X-40587Y1377375D01*
X-32123D01*
X-27891Y1373143D01*
Y1368911D01*
X-32123Y1364679D01*
X-36355D01*
X-32123D01*
X-27891Y1360447D01*
Y1356215D01*
X-32123Y1351983D01*
X-40587D01*
X-44819Y1356215D01*
X-19427Y1351983D02*
Y1377375D01*
X-10963Y1368911D01*
X-2500Y1377375D01*
Y1351983D01*
X5964Y1377375D02*
X14428D01*
X10196D01*
Y1351983D01*
X5964D01*
X14428D01*
X27124Y1377375D02*
Y1351983D01*
X44052D01*
X69444Y1373143D02*
X65212Y1377375D01*
X56748D01*
X52516Y1373143D01*
Y1368911D01*
X56748Y1364679D01*
X65212D01*
X69444Y1360447D01*
Y1356215D01*
X65212Y1351983D01*
X56748D01*
X52516Y1356215D01*
X103300Y1351983D02*
X120227Y1368911D01*
X154083Y1373143D02*
X158315Y1377375D01*
X166779D01*
X171011Y1373143D01*
Y1368911D01*
X166779Y1364679D01*
X162547D01*
X166779D01*
X171011Y1360447D01*
Y1356215D01*
X166779Y1351983D01*
X158315D01*
X154083Y1356215D01*
X179475Y1351983D02*
Y1377375D01*
X187939Y1368911D01*
X196403Y1377375D01*
Y1351983D01*
X204867Y1377375D02*
X213331D01*
X209099D01*
Y1351983D01*
X204867D01*
X213331D01*
X226027Y1377375D02*
Y1351983D01*
X242955D01*
X268346Y1373143D02*
X264114Y1377375D01*
X255650D01*
X251418Y1373143D01*
Y1368911D01*
X255650Y1364679D01*
X264114D01*
X268346Y1360447D01*
Y1356215D01*
X264114Y1351983D01*
X255650D01*
X251418Y1356215D01*
X-1178986Y1309321D02*
X-1187450D01*
Y1334713D01*
X-1178986D01*
X-1166290Y1309321D02*
X-1157826D01*
X-1162058D01*
Y1334713D01*
X-1166290Y1330480D01*
X-1128203Y1334713D02*
X-1136666Y1330480D01*
X-1145130Y1322017D01*
Y1313553D01*
X-1140898Y1309321D01*
X-1132434D01*
X-1128203Y1313553D01*
Y1317785D01*
X-1132434Y1322017D01*
X-1145130D01*
X-1119739Y1309321D02*
X-1111275D01*
Y1334713D01*
X-1119739D01*
X-997011Y1309321D02*
Y1334713D01*
X-988548Y1326249D01*
X-980084Y1334713D01*
Y1309321D01*
X-971620Y1334713D02*
X-963156D01*
X-967388D01*
Y1309321D01*
X-971620D01*
X-963156D01*
X-950460D02*
Y1334713D01*
X-933532Y1309321D01*
Y1334713D01*
X-925068D02*
X-916604D01*
X-920836D01*
Y1309321D01*
X-925068D01*
X-916604D01*
X-903908D02*
Y1334713D01*
X-895444Y1326249D01*
X-886980Y1334713D01*
Y1309321D01*
X-878516Y1334713D02*
Y1313553D01*
X-874285Y1309321D01*
X-865821D01*
X-861589Y1313553D01*
Y1334713D01*
X-853125Y1309321D02*
Y1334713D01*
X-844661Y1326249D01*
X-836197Y1334713D01*
Y1309321D01*
X-802341Y1334713D02*
Y1309321D01*
Y1322017D01*
X-785413D01*
Y1334713D01*
Y1309321D01*
X-764253Y1334713D02*
X-772717D01*
X-776949Y1330480D01*
Y1313553D01*
X-772717Y1309321D01*
X-764253D01*
X-760022Y1313553D01*
Y1330480D01*
X-764253Y1334713D01*
X-751557D02*
Y1309321D01*
X-734630D01*
X-709238Y1334713D02*
X-726166D01*
Y1309321D01*
X-709238D01*
X-726166Y1322017D02*
X-717702D01*
X-658454Y1330480D02*
X-662686Y1334713D01*
X-671150D01*
X-675382Y1330480D01*
Y1326249D01*
X-671150Y1322017D01*
X-662686D01*
X-658454Y1317785D01*
Y1313553D01*
X-662686Y1309321D01*
X-671150D01*
X-675382Y1313553D01*
X-649990Y1334713D02*
X-641526D01*
X-645758D01*
Y1309321D01*
X-649990D01*
X-641526D01*
X-628830Y1334713D02*
X-611903D01*
Y1330480D01*
X-628830Y1313553D01*
Y1309321D01*
X-611903D01*
X-586511Y1334713D02*
X-603439D01*
Y1309321D01*
X-586511D01*
X-603439Y1322017D02*
X-594975D01*
X-552655Y1309321D02*
Y1326249D01*
X-544191Y1334713D01*
X-535727Y1326249D01*
Y1309321D01*
Y1322017D01*
X-552655D01*
X-510336Y1334713D02*
X-527263D01*
Y1322017D01*
X-518799D01*
X-527263D01*
Y1309321D01*
X-501871Y1334713D02*
X-484944D01*
X-493408D01*
Y1309321D01*
X-459552Y1334713D02*
X-476480D01*
Y1309321D01*
X-459552D01*
X-476480Y1322017D02*
X-468016D01*
X-451088Y1309321D02*
Y1334713D01*
X-438392D01*
X-434160Y1330480D01*
Y1322017D01*
X-438392Y1317785D01*
X-451088D01*
X-442624D02*
X-434160Y1309321D01*
X-400304D02*
Y1334713D01*
X-387608D01*
X-383377Y1330480D01*
Y1322017D01*
X-387608Y1317785D01*
X-400304D01*
X-374913Y1334713D02*
Y1309321D01*
X-357985D01*
X-349521D02*
Y1326249D01*
X-341057Y1334713D01*
X-332593Y1326249D01*
Y1309321D01*
Y1322017D01*
X-349521D01*
X-324129Y1334713D02*
X-307201D01*
X-315665D01*
Y1309321D01*
X-298737Y1334713D02*
X-290273D01*
X-294505D01*
Y1309321D01*
X-298737D01*
X-290273D01*
X-277577D02*
Y1334713D01*
X-260650Y1309321D01*
Y1334713D01*
X-235258Y1330480D02*
X-239490Y1334713D01*
X-247954D01*
X-252186Y1330480D01*
Y1313553D01*
X-247954Y1309321D01*
X-239490D01*
X-235258Y1313553D01*
Y1322017D01*
X-243722D01*
X-201402Y1334713D02*
X-192938D01*
X-197170D01*
Y1309321D01*
X-201402D01*
X-192938D01*
X-163314Y1330480D02*
X-167546Y1334713D01*
X-176010D01*
X-180242Y1330480D01*
Y1326249D01*
X-176010Y1322017D01*
X-167546D01*
X-163314Y1317785D01*
Y1313553D01*
X-167546Y1309321D01*
X-176010D01*
X-180242Y1313553D01*
X-112531Y1334713D02*
X-120995Y1330480D01*
X-129459Y1322017D01*
Y1313553D01*
X-125227Y1309321D01*
X-116763D01*
X-112531Y1313553D01*
Y1317785D01*
X-116763Y1322017D01*
X-129459D01*
X-104067Y1309321D02*
Y1334713D01*
X-95603Y1326249D01*
X-87139Y1334713D01*
Y1309321D01*
X-78675Y1334713D02*
X-70211D01*
X-74443D01*
Y1309321D01*
X-78675D01*
X-70211D01*
X-57515Y1334713D02*
Y1309321D01*
X-40587D01*
X-15195Y1330480D02*
X-19427Y1334713D01*
X-27891D01*
X-32123Y1330480D01*
Y1326249D01*
X-27891Y1322017D01*
X-19427D01*
X-15195Y1317785D01*
Y1313553D01*
X-19427Y1309321D01*
X-27891D01*
X-32123Y1313553D01*
X-6732Y1309321D02*
Y1313553D01*
X-2500D01*
Y1309321D01*
X-6732D01*
X39820D02*
Y1334713D01*
X52516D01*
X56748Y1330480D01*
Y1322017D01*
X52516Y1317785D01*
X39820D01*
X48284D02*
X56748Y1309321D01*
X82140Y1334713D02*
X65212D01*
Y1309321D01*
X82140D01*
X65212Y1322017D02*
X73676D01*
X107531Y1334713D02*
X90604D01*
Y1322017D01*
X99068D01*
X90604D01*
Y1309321D01*
X132923Y1334713D02*
X115996D01*
Y1309321D01*
X132923D01*
X115996Y1322017D02*
X124459D01*
X141387Y1309321D02*
Y1334713D01*
X154083D01*
X158315Y1330480D01*
Y1322017D01*
X154083Y1317785D01*
X141387D01*
X149851D02*
X158315Y1309321D01*
X192171Y1334713D02*
X209099D01*
X200635D01*
Y1309321D01*
X230259Y1334713D02*
X221795D01*
X217563Y1330480D01*
Y1313553D01*
X221795Y1309321D01*
X230259D01*
X234491Y1313553D01*
Y1330480D01*
X230259Y1334713D01*
X268346D02*
Y1309321D01*
X281042D01*
X285274Y1313553D01*
Y1330480D01*
X281042Y1334713D01*
X268346D01*
X293738Y1309321D02*
Y1334713D01*
X306434D01*
X310666Y1330480D01*
Y1322017D01*
X306434Y1317785D01*
X293738D01*
X302202D02*
X310666Y1309321D01*
X319130Y1334713D02*
X327594D01*
X323362D01*
Y1309321D01*
X319130D01*
X327594D01*
X340290Y1334713D02*
Y1309321D01*
X357217D01*
X365681Y1334713D02*
Y1309321D01*
X382609D01*
X416465Y1334713D02*
X433393D01*
X424929D01*
Y1309321D01*
X441857D02*
Y1326249D01*
X450321Y1334713D01*
X458785Y1326249D01*
Y1309321D01*
Y1322017D01*
X441857D01*
X467249Y1334713D02*
Y1309321D01*
X479944D01*
X484176Y1313553D01*
Y1317785D01*
X479944Y1322017D01*
X467249D01*
X479944D01*
X484176Y1326249D01*
Y1330480D01*
X479944Y1334713D01*
X467249D01*
X492640D02*
Y1309321D01*
X509568D01*
X534960Y1334713D02*
X518032D01*
Y1309321D01*
X534960D01*
X518032Y1322017D02*
X526496D01*
X585744Y1334713D02*
X568816D01*
Y1322017D01*
X577280D01*
X568816D01*
Y1309321D01*
X606903Y1334713D02*
X598440D01*
X594208Y1330480D01*
Y1313553D01*
X598440Y1309321D01*
X606903D01*
X611135Y1313553D01*
Y1330480D01*
X606903Y1334713D01*
X619599Y1309321D02*
Y1334713D01*
X632295D01*
X636527Y1330480D01*
Y1322017D01*
X632295Y1317785D01*
X619599D01*
X628063D02*
X636527Y1309321D01*
X670383Y1334713D02*
X687311D01*
X678847D01*
Y1309321D01*
X708471Y1334713D02*
X700007D01*
X695775Y1330480D01*
Y1313553D01*
X700007Y1309321D01*
X708471D01*
X712703Y1313553D01*
Y1330480D01*
X708471Y1334713D01*
X721167D02*
Y1309321D01*
X738094D01*
X763486Y1334713D02*
X746558D01*
Y1309321D01*
X763486D01*
X746558Y1322017D02*
X755022D01*
X771950Y1309321D02*
Y1334713D01*
X784646D01*
X788878Y1330480D01*
Y1322017D01*
X784646Y1317785D01*
X771950D01*
X780414D02*
X788878Y1309321D01*
X797342D02*
Y1326249D01*
X805806Y1334713D01*
X814270Y1326249D01*
Y1309321D01*
Y1322017D01*
X797342D01*
X822734Y1309321D02*
Y1334713D01*
X839662Y1309321D01*
Y1334713D01*
X865053Y1330480D02*
X860822Y1334713D01*
X852358D01*
X848126Y1330480D01*
Y1313553D01*
X852358Y1309321D01*
X860822D01*
X865053Y1313553D01*
X890445Y1334713D02*
X873517D01*
Y1309321D01*
X890445D01*
X873517Y1322017D02*
X881981D01*
X915837Y1330480D02*
X911605Y1334713D01*
X903141D01*
X898909Y1330480D01*
Y1326249D01*
X903141Y1322017D01*
X911605D01*
X915837Y1317785D01*
Y1313553D01*
X911605Y1309321D01*
X903141D01*
X898909Y1313553D01*
X924301Y1309321D02*
Y1313553D01*
X928533D01*
Y1309321D01*
X924301D01*
X-1178986Y1266659D02*
X-1187450D01*
Y1292050D01*
X-1178986D01*
X-1166290Y1266659D02*
X-1157826D01*
X-1162058D01*
Y1292050D01*
X-1166290Y1287818D01*
X-1145130Y1292050D02*
X-1128203D01*
Y1287818D01*
X-1145130Y1270891D01*
Y1266659D01*
X-1119739D02*
X-1111275D01*
Y1292050D01*
X-1119739D01*
X-997011Y1266659D02*
Y1283586D01*
X-988548Y1292050D01*
X-980084Y1283586D01*
Y1266659D01*
Y1279354D01*
X-997011D01*
X-971620Y1266659D02*
Y1292050D01*
X-958924D01*
X-954692Y1287818D01*
Y1279354D01*
X-958924Y1275123D01*
X-971620D01*
X-946228Y1266659D02*
Y1292050D01*
X-933532D01*
X-929300Y1287818D01*
Y1279354D01*
X-933532Y1275123D01*
X-946228D01*
X-920836Y1292050D02*
Y1266659D01*
X-903908D01*
X-895444Y1292050D02*
Y1287818D01*
X-886980Y1279354D01*
X-878516Y1287818D01*
Y1292050D01*
X-886980Y1279354D02*
Y1266659D01*
X-827733Y1287818D02*
X-831965Y1292050D01*
X-840429D01*
X-844661Y1287818D01*
Y1283586D01*
X-840429Y1279354D01*
X-831965D01*
X-827733Y1275123D01*
Y1270891D01*
X-831965Y1266659D01*
X-840429D01*
X-844661Y1270891D01*
X-806573Y1292050D02*
X-815037D01*
X-819269Y1287818D01*
Y1270891D01*
X-815037Y1266659D01*
X-806573D01*
X-802341Y1270891D01*
Y1287818D01*
X-806573Y1292050D01*
X-793877D02*
Y1266659D01*
X-776949D01*
X-768485Y1292050D02*
Y1266659D01*
X-755789D01*
X-751557Y1270891D01*
Y1287818D01*
X-755789Y1292050D01*
X-768485D01*
X-726166D02*
X-743094D01*
Y1266659D01*
X-726166D01*
X-743094Y1279354D02*
X-734630D01*
X-717702Y1266659D02*
Y1292050D01*
X-705006D01*
X-700774Y1287818D01*
Y1279354D01*
X-705006Y1275123D01*
X-717702D01*
X-709238D02*
X-700774Y1266659D01*
X-666918D02*
Y1292050D01*
X-654222D01*
X-649990Y1287818D01*
Y1279354D01*
X-654222Y1275123D01*
X-666918D01*
X-658454D02*
X-649990Y1266659D01*
X-624599Y1292050D02*
X-641526D01*
Y1266659D01*
X-624599D01*
X-641526Y1279354D02*
X-633063D01*
X-599207Y1287818D02*
X-603439Y1292050D01*
X-611903D01*
X-616135Y1287818D01*
Y1283586D01*
X-611903Y1279354D01*
X-603439D01*
X-599207Y1275123D01*
Y1270891D01*
X-603439Y1266659D01*
X-611903D01*
X-616135Y1270891D01*
X-590743Y1292050D02*
X-582279D01*
X-586511D01*
Y1266659D01*
X-590743D01*
X-582279D01*
X-552655Y1287818D02*
X-556887Y1292050D01*
X-565351D01*
X-569583Y1287818D01*
Y1283586D01*
X-565351Y1279354D01*
X-556887D01*
X-552655Y1275123D01*
Y1270891D01*
X-556887Y1266659D01*
X-565351D01*
X-569583Y1270891D01*
X-544191Y1292050D02*
X-527263D01*
X-535727D01*
Y1266659D01*
X-493408Y1292050D02*
Y1266659D01*
X-480712D01*
X-476480Y1270891D01*
Y1275123D01*
X-480712Y1279354D01*
X-493408D01*
X-480712D01*
X-476480Y1283586D01*
Y1287818D01*
X-480712Y1292050D01*
X-493408D01*
X-451088D02*
X-468016D01*
Y1266659D01*
X-451088D01*
X-468016Y1279354D02*
X-459552D01*
X-442624Y1292050D02*
X-425696D01*
X-434160D01*
Y1266659D01*
X-417232Y1292050D02*
Y1266659D01*
X-408768Y1275123D01*
X-400304Y1266659D01*
Y1292050D01*
X-374913D02*
X-391840D01*
Y1266659D01*
X-374913D01*
X-391840Y1279354D02*
X-383377D01*
X-349521Y1292050D02*
X-366449D01*
Y1266659D01*
X-349521D01*
X-366449Y1279354D02*
X-357985D01*
X-341057Y1266659D02*
Y1292050D01*
X-324129Y1266659D01*
Y1292050D01*
X-290273Y1266659D02*
Y1283586D01*
X-281809Y1292050D01*
X-273345Y1283586D01*
Y1266659D01*
Y1279354D01*
X-290273D01*
X-264881Y1292050D02*
Y1266659D01*
X-247954D01*
X-239490Y1292050D02*
Y1266659D01*
X-222562D01*
X-171778Y1287818D02*
X-176010Y1292050D01*
X-184474D01*
X-188706Y1287818D01*
Y1283586D01*
X-184474Y1279354D01*
X-176010D01*
X-171778Y1275123D01*
Y1270891D01*
X-176010Y1266659D01*
X-184474D01*
X-188706Y1270891D01*
X-163314Y1266659D02*
Y1292050D01*
X-154850Y1283586D01*
X-146386Y1292050D01*
Y1266659D01*
X-137922Y1292050D02*
X-120995D01*
X-129459D01*
Y1266659D01*
X-87139D02*
Y1292050D01*
X-74443D01*
X-70211Y1287818D01*
Y1279354D01*
X-74443Y1275123D01*
X-87139D01*
X-61747Y1266659D02*
Y1283586D01*
X-53283Y1292050D01*
X-44819Y1283586D01*
Y1266659D01*
Y1279354D01*
X-61747D01*
X-36355Y1292050D02*
Y1266659D01*
X-23659D01*
X-19427Y1270891D01*
Y1287818D01*
X-23659Y1292050D01*
X-36355D01*
X5964Y1287818D02*
X1732Y1292050D01*
X-6732D01*
X-10963Y1287818D01*
Y1283586D01*
X-6732Y1279354D01*
X1732D01*
X5964Y1275123D01*
Y1270891D01*
X1732Y1266659D01*
X-6732D01*
X-10963Y1270891D01*
X14428Y1266659D02*
Y1270891D01*
X18660D01*
Y1266659D01*
X14428D01*
X-891212Y1249388D02*
X-908140D01*
Y1236692D01*
X-899676D01*
X-908140D01*
Y1223996D01*
X-882748Y1249388D02*
X-874285D01*
X-878516D01*
Y1223996D01*
X-882748D01*
X-874285D01*
X-861589D02*
Y1249388D01*
X-844661Y1223996D01*
Y1249388D01*
X-819269D02*
X-836197D01*
Y1223996D01*
X-819269D01*
X-836197Y1236692D02*
X-827733D01*
X-793877Y1245156D02*
X-798109Y1249388D01*
X-806573D01*
X-810805Y1245156D01*
Y1240924D01*
X-806573Y1236692D01*
X-798109D01*
X-793877Y1232460D01*
Y1228228D01*
X-798109Y1223996D01*
X-806573D01*
X-810805Y1228228D01*
X-785413Y1249388D02*
X-768485D01*
X-776949D01*
Y1223996D01*
X-717702Y1245156D02*
X-721934Y1249388D01*
X-730398D01*
X-734630Y1245156D01*
Y1240924D01*
X-730398Y1236692D01*
X-721934D01*
X-717702Y1232460D01*
Y1228228D01*
X-721934Y1223996D01*
X-730398D01*
X-734630Y1228228D01*
X-696542Y1249388D02*
X-705006D01*
X-709238Y1245156D01*
Y1228228D01*
X-705006Y1223996D01*
X-696542D01*
X-692310Y1228228D01*
Y1245156D01*
X-696542Y1249388D01*
X-683846D02*
Y1223996D01*
X-666918D01*
X-658454Y1249388D02*
Y1223996D01*
X-645758D01*
X-641526Y1228228D01*
Y1245156D01*
X-645758Y1249388D01*
X-658454D01*
X-616135D02*
X-633063D01*
Y1223996D01*
X-616135D01*
X-633063Y1236692D02*
X-624599D01*
X-607671Y1223996D02*
Y1249388D01*
X-594975D01*
X-590743Y1245156D01*
Y1236692D01*
X-594975Y1232460D01*
X-607671D01*
X-599207D02*
X-590743Y1223996D01*
X-582279D02*
Y1249388D01*
X-573815Y1240924D01*
X-565351Y1249388D01*
Y1223996D01*
X-556887D02*
Y1240924D01*
X-548423Y1249388D01*
X-539959Y1240924D01*
Y1223996D01*
Y1236692D01*
X-556887D01*
X-514567Y1245156D02*
X-518799Y1249388D01*
X-527263D01*
X-531495Y1245156D01*
Y1240924D01*
X-527263Y1236692D01*
X-518799D01*
X-514567Y1232460D01*
Y1228228D01*
X-518799Y1223996D01*
X-527263D01*
X-531495Y1228228D01*
X-506104Y1249388D02*
Y1223996D01*
Y1232460D01*
X-489176Y1249388D01*
X-501871Y1236692D01*
X-489176Y1223996D01*
X-455320D02*
Y1249388D01*
X-438392Y1223996D01*
Y1249388D01*
X-413000D02*
X-429928D01*
Y1223996D01*
X-413000D01*
X-429928Y1236692D02*
X-421464D01*
X-387608Y1245156D02*
X-391840Y1249388D01*
X-400304D01*
X-404536Y1245156D01*
Y1228228D01*
X-400304Y1223996D01*
X-391840D01*
X-387608Y1228228D01*
X-379145Y1249388D02*
Y1223996D01*
Y1232460D01*
X-362217Y1249388D01*
X-374912Y1236692D01*
X-362217Y1223996D01*
X-328361Y1249388D02*
X-319897D01*
X-324129D01*
Y1223996D01*
X-328361D01*
X-319897D01*
X-290273Y1245156D02*
X-294505Y1249388D01*
X-302969D01*
X-307201Y1245156D01*
Y1240924D01*
X-302969Y1236692D01*
X-294505D01*
X-290273Y1232460D01*
Y1228228D01*
X-294505Y1223996D01*
X-302969D01*
X-307201Y1228228D01*
X-256418Y1245156D02*
X-252185Y1249388D01*
X-243722D01*
X-239490Y1245156D01*
Y1240924D01*
X-243722Y1236692D01*
X-247954D01*
X-243722D01*
X-239490Y1232460D01*
Y1228228D01*
X-243722Y1223996D01*
X-252185D01*
X-256418Y1228228D01*
X-231026Y1223996D02*
Y1249388D01*
X-222562Y1240924D01*
X-214098Y1249388D01*
Y1223996D01*
X-205634Y1249388D02*
X-197170D01*
X-201402D01*
Y1223996D01*
X-205634D01*
X-197170D01*
X-184474Y1249388D02*
Y1223996D01*
X-167546D01*
X-133691Y1249388D02*
Y1223996D01*
X-120995D01*
X-116763Y1228228D01*
Y1232460D01*
X-120995Y1236692D01*
X-133691D01*
X-120995D01*
X-116763Y1240924D01*
Y1245156D01*
X-120995Y1249388D01*
X-133691D01*
X-91371D02*
X-108299D01*
Y1223996D01*
X-91371D01*
X-108299Y1236692D02*
X-99835D01*
X-82907Y1249388D02*
X-65979D01*
X-74443D01*
Y1223996D01*
X-57515Y1249388D02*
Y1223996D01*
X-49051Y1232460D01*
X-40587Y1223996D01*
Y1249388D01*
X-15195D02*
X-32123D01*
Y1223996D01*
X-15195D01*
X-32123Y1236692D02*
X-23659D01*
X10196Y1249388D02*
X-6732D01*
Y1223996D01*
X10196D01*
X-6732Y1236692D02*
X1732D01*
X18660Y1223996D02*
Y1249388D01*
X35588Y1223996D01*
Y1249388D01*
X69444Y1223996D02*
Y1249388D01*
X82140D01*
X86372Y1245156D01*
Y1236692D01*
X82140Y1232460D01*
X69444D01*
X94836Y1223996D02*
Y1240924D01*
X103300Y1249388D01*
X111763Y1240924D01*
Y1223996D01*
Y1236692D01*
X94836D01*
X120227Y1249388D02*
Y1223996D01*
X132923D01*
X137155Y1228228D01*
Y1245156D01*
X132923Y1249388D01*
X120227D01*
X162547Y1245156D02*
X158315Y1249388D01*
X149851D01*
X145619Y1245156D01*
Y1240924D01*
X149851Y1236692D01*
X158315D01*
X162547Y1232460D01*
Y1228228D01*
X158315Y1223996D01*
X149851D01*
X145619Y1228228D01*
X171011Y1223996D02*
Y1228228D01*
X175243D01*
Y1223996D01*
X171011D01*
X-891212Y1202494D02*
X-895444Y1206726D01*
X-903908D01*
X-908140Y1202494D01*
Y1198262D01*
X-903908Y1194030D01*
X-895444D01*
X-891212Y1189798D01*
Y1185566D01*
X-895444Y1181334D01*
X-903908D01*
X-908140Y1185566D01*
X-870053Y1206726D02*
X-878516D01*
X-882748Y1202494D01*
Y1185566D01*
X-878516Y1181334D01*
X-870053D01*
X-865821Y1185566D01*
Y1202494D01*
X-870053Y1206726D01*
X-857357D02*
Y1181334D01*
X-840429D01*
X-831965Y1206726D02*
Y1181334D01*
X-819269D01*
X-815037Y1185566D01*
Y1202494D01*
X-819269Y1206726D01*
X-831965D01*
X-789645D02*
X-806573D01*
Y1181334D01*
X-789645D01*
X-806573Y1194030D02*
X-798109D01*
X-781181Y1181334D02*
Y1206726D01*
X-768485D01*
X-764253Y1202494D01*
Y1194030D01*
X-768485Y1189798D01*
X-781181D01*
X-772717D02*
X-764253Y1181334D01*
X-755789D02*
Y1206726D01*
X-747326Y1198262D01*
X-738862Y1206726D01*
Y1181334D01*
X-730398D02*
Y1198262D01*
X-721934Y1206726D01*
X-713470Y1198262D01*
Y1181334D01*
Y1194030D01*
X-730398D01*
X-688078Y1202494D02*
X-692310Y1206726D01*
X-700774D01*
X-705006Y1202494D01*
Y1198262D01*
X-700774Y1194030D01*
X-692310D01*
X-688078Y1189798D01*
Y1185566D01*
X-692310Y1181334D01*
X-700774D01*
X-705006Y1185566D01*
X-679614Y1206726D02*
Y1181334D01*
Y1189798D01*
X-662686Y1206726D01*
X-675382Y1194030D01*
X-662686Y1181334D01*
X-611903Y1206726D02*
X-628830D01*
Y1181334D01*
X-611903D01*
X-628830Y1194030D02*
X-620367D01*
X-603439Y1206726D02*
X-586511Y1181334D01*
Y1206726D02*
X-603439Y1181334D01*
X-578047D02*
Y1206726D01*
X-565351D01*
X-561119Y1202494D01*
Y1194030D01*
X-565351Y1189798D01*
X-578047D01*
X-552655Y1181334D02*
Y1198262D01*
X-544191Y1206726D01*
X-535727Y1198262D01*
Y1181334D01*
Y1194030D01*
X-552655D01*
X-527263Y1181334D02*
Y1206726D01*
X-510336Y1181334D01*
Y1206726D01*
X-484944Y1202494D02*
X-489176Y1206726D01*
X-497640D01*
X-501871Y1202494D01*
Y1198262D01*
X-497640Y1194030D01*
X-489176D01*
X-484944Y1189798D01*
Y1185566D01*
X-489176Y1181334D01*
X-497640D01*
X-501871Y1185566D01*
X-476480Y1206726D02*
X-468016D01*
X-472248D01*
Y1181334D01*
X-476480D01*
X-468016D01*
X-442624Y1206726D02*
X-451088D01*
X-455320Y1202494D01*
Y1185566D01*
X-451088Y1181334D01*
X-442624D01*
X-438392Y1185566D01*
Y1202494D01*
X-442624Y1206726D01*
X-429928Y1181334D02*
Y1206726D01*
X-413000Y1181334D01*
Y1206726D01*
X-379145D02*
X-370681D01*
X-374912D01*
Y1181334D01*
X-379145D01*
X-370681D01*
X-341057Y1202494D02*
X-345289Y1206726D01*
X-353753D01*
X-357985Y1202494D01*
Y1198262D01*
X-353753Y1194030D01*
X-345289D01*
X-341057Y1189798D01*
Y1185566D01*
X-345289Y1181334D01*
X-353753D01*
X-357985Y1185566D01*
X-290273Y1202494D02*
X-294505Y1206726D01*
X-302969D01*
X-307201Y1202494D01*
Y1198262D01*
X-302969Y1194030D01*
X-294505D01*
X-290273Y1189798D01*
Y1185566D01*
X-294505Y1181334D01*
X-302969D01*
X-307201Y1185566D01*
X-264881Y1206726D02*
X-281809D01*
Y1181334D01*
X-264881D01*
X-281809Y1194030D02*
X-273345D01*
X-256418Y1206726D02*
X-239490D01*
X-247954D01*
Y1181334D01*
X-205634Y1206726D02*
X-188706D01*
X-197170D01*
Y1181334D01*
X-167546Y1206726D02*
X-176010D01*
X-180242Y1202494D01*
Y1185566D01*
X-176010Y1181334D01*
X-167546D01*
X-163314Y1185566D01*
Y1202494D01*
X-167546Y1206726D01*
X-129459Y1202494D02*
X-125226Y1206726D01*
X-116763D01*
X-112531Y1202494D01*
Y1198262D01*
X-116763Y1194030D01*
X-120995D01*
X-116763D01*
X-112531Y1189798D01*
Y1185566D01*
X-116763Y1181334D01*
X-125226D01*
X-129459Y1185566D01*
X-104067Y1181334D02*
Y1206726D01*
X-95603Y1198262D01*
X-87139Y1206726D01*
Y1181334D01*
X-78675Y1206726D02*
X-70211D01*
X-74443D01*
Y1181334D01*
X-78675D01*
X-70211D01*
X-57515Y1206726D02*
Y1181334D01*
X-40587D01*
X5964Y1206726D02*
X-2500D01*
X-6732Y1202494D01*
Y1185566D01*
X-2500Y1181334D01*
X5964D01*
X10196Y1185566D01*
Y1202494D01*
X5964Y1206726D01*
X18660Y1181334D02*
Y1206726D01*
X35588Y1181334D01*
Y1206726D01*
X69444Y1181334D02*
Y1198262D01*
X77908Y1206726D01*
X86372Y1198262D01*
Y1181334D01*
Y1194030D01*
X69444D01*
X94836Y1206726D02*
Y1181334D01*
X111763D01*
X120227Y1206726D02*
Y1181334D01*
X137155D01*
X171011D02*
Y1206726D01*
X183707D01*
X187939Y1202494D01*
Y1194030D01*
X183707Y1189798D01*
X171011D01*
X196403Y1181334D02*
Y1198262D01*
X204867Y1206726D01*
X213331Y1198262D01*
Y1181334D01*
Y1194030D01*
X196403D01*
X221795Y1206726D02*
Y1181334D01*
X234491D01*
X238722Y1185566D01*
Y1202494D01*
X234491Y1206726D01*
X221795D01*
X264114Y1202494D02*
X259882Y1206726D01*
X251418D01*
X247186Y1202494D01*
Y1198262D01*
X251418Y1194030D01*
X259882D01*
X264114Y1189798D01*
Y1185566D01*
X259882Y1181334D01*
X251418D01*
X247186Y1185566D01*
X272578Y1181334D02*
Y1185566D01*
X276810D01*
Y1181334D01*
X272578D01*
X-1178986Y1138672D02*
X-1187450D01*
Y1164064D01*
X-1178986D01*
X-1166290Y1138672D02*
X-1157826D01*
X-1162058D01*
Y1164064D01*
X-1166290Y1159832D01*
X-1145130D02*
X-1140898Y1164064D01*
X-1132434D01*
X-1128203Y1159832D01*
Y1155600D01*
X-1132434Y1151368D01*
X-1128203Y1147136D01*
Y1142904D01*
X-1132434Y1138672D01*
X-1140898D01*
X-1145130Y1142904D01*
Y1147136D01*
X-1140898Y1151368D01*
X-1145130Y1155600D01*
Y1159832D01*
X-1140898Y1151368D02*
X-1132434D01*
X-1119739Y1138672D02*
X-1111275D01*
Y1164064D01*
X-1119739D01*
X-980084Y1159832D02*
X-984316Y1164064D01*
X-992780D01*
X-997011Y1159832D01*
Y1142904D01*
X-992780Y1138672D01*
X-984316D01*
X-980084Y1142904D01*
X-971620Y1164064D02*
Y1138672D01*
Y1151368D01*
X-954692D01*
Y1164064D01*
Y1138672D01*
X-946228D02*
Y1155600D01*
X-937764Y1164064D01*
X-929300Y1155600D01*
Y1138672D01*
Y1151368D01*
X-946228D01*
X-920836Y1138672D02*
Y1164064D01*
X-912372Y1155600D01*
X-903908Y1164064D01*
Y1138672D01*
X-878516Y1164064D02*
X-895444D01*
Y1151368D01*
X-886980D01*
X-895444D01*
Y1138672D01*
X-853125Y1164064D02*
X-870053D01*
Y1138672D01*
X-853125D01*
X-870053Y1151368D02*
X-861589D01*
X-844661Y1138672D02*
Y1164064D01*
X-831965D01*
X-827733Y1159832D01*
Y1151368D01*
X-831965Y1147136D01*
X-844661D01*
X-836197D02*
X-827733Y1138672D01*
X-793877Y1164064D02*
Y1138672D01*
X-781181D01*
X-776949Y1142904D01*
Y1147136D01*
X-781181Y1151368D01*
X-793877D01*
X-781181D01*
X-776949Y1155600D01*
Y1159832D01*
X-781181Y1164064D01*
X-793877D01*
X-755789D02*
X-764253D01*
X-768485Y1159832D01*
Y1142904D01*
X-764253Y1138672D01*
X-755789D01*
X-751557Y1142904D01*
Y1159832D01*
X-755789Y1164064D01*
X-743094Y1138672D02*
Y1155600D01*
X-734630Y1164064D01*
X-726166Y1155600D01*
Y1138672D01*
Y1151368D01*
X-743094D01*
X-717702Y1138672D02*
Y1164064D01*
X-705006D01*
X-700774Y1159832D01*
Y1151368D01*
X-705006Y1147136D01*
X-717702D01*
X-709238D02*
X-700774Y1138672D01*
X-692310Y1164064D02*
Y1138672D01*
X-679614D01*
X-675382Y1142904D01*
Y1159832D01*
X-679614Y1164064D01*
X-692310D01*
X-624599D02*
X-641526D01*
Y1138672D01*
X-624599D01*
X-641526Y1151368D02*
X-633063D01*
X-616135Y1164064D02*
Y1138672D01*
X-603439D01*
X-599207Y1142904D01*
Y1159832D01*
X-603439Y1164064D01*
X-616135D01*
X-573815Y1159832D02*
X-578047Y1164064D01*
X-586511D01*
X-590743Y1159832D01*
Y1142904D01*
X-586511Y1138672D01*
X-578047D01*
X-573815Y1142904D01*
Y1151368D01*
X-582279D01*
X-548423Y1164064D02*
X-565351D01*
Y1138672D01*
X-548423D01*
X-565351Y1151368D02*
X-556887D01*
X-514567Y1138672D02*
Y1155600D01*
X-506104Y1164064D01*
X-497640Y1155600D01*
Y1138672D01*
Y1151368D01*
X-514567D01*
X-472248Y1159832D02*
X-476480Y1164064D01*
X-484944D01*
X-489176Y1159832D01*
Y1155600D01*
X-484944Y1151368D01*
X-476480D01*
X-472248Y1147136D01*
Y1142904D01*
X-476480Y1138672D01*
X-484944D01*
X-489176Y1142904D01*
X-438392Y1138672D02*
Y1164064D01*
X-425696D01*
X-421464Y1159832D01*
Y1151368D01*
X-425696Y1147136D01*
X-438392D01*
X-396072Y1164064D02*
X-413000D01*
Y1138672D01*
X-396072D01*
X-413000Y1151368D02*
X-404536D01*
X-387608Y1138672D02*
Y1164064D01*
X-374913D01*
X-370681Y1159832D01*
Y1151368D01*
X-374913Y1147136D01*
X-387608D01*
X-379145D02*
X-370681Y1138672D01*
X-336825Y1164064D02*
Y1138672D01*
X-324129D01*
X-319897Y1142904D01*
Y1159832D01*
X-324129Y1164064D01*
X-336825D01*
X-294505D02*
X-311433D01*
Y1138672D01*
X-294505D01*
X-311433Y1151368D02*
X-302969D01*
X-286041Y1164064D02*
X-269113D01*
X-277577D01*
Y1138672D01*
X-260650D02*
Y1155600D01*
X-252185Y1164064D01*
X-243722Y1155600D01*
Y1138672D01*
Y1151368D01*
X-260650D01*
X-235258Y1164064D02*
X-226794D01*
X-231026D01*
Y1138672D01*
X-235258D01*
X-226794D01*
X-214098Y1164064D02*
Y1138672D01*
X-197170D01*
X-154850D02*
X-163314D01*
Y1164064D01*
X-154850D01*
X-142154Y1138672D02*
Y1155600D01*
X-133691Y1164064D01*
X-125227Y1155600D01*
Y1138672D01*
Y1151368D01*
X-142154D01*
X-116763Y1138672D02*
X-108299D01*
Y1164064D01*
X-116763D01*
X-1178986Y1096010D02*
X-1187450D01*
Y1121402D01*
X-1178986D01*
X-1166290Y1096010D02*
X-1157826D01*
X-1162058D01*
Y1121402D01*
X-1166290Y1117170D01*
X-1145130Y1100242D02*
X-1140898Y1096010D01*
X-1132434D01*
X-1128203Y1100242D01*
Y1117170D01*
X-1132434Y1121402D01*
X-1140898D01*
X-1145130Y1117170D01*
Y1112938D01*
X-1140898Y1108706D01*
X-1128203D01*
X-1119739Y1096010D02*
X-1111275D01*
Y1121402D01*
X-1119739D01*
X-997011Y1096010D02*
Y1112938D01*
X-988548Y1121402D01*
X-980084Y1112938D01*
Y1096010D01*
Y1108706D01*
X-997011D01*
X-971620Y1096010D02*
Y1121402D01*
X-958924D01*
X-954692Y1117170D01*
Y1108706D01*
X-958924Y1104474D01*
X-971620D01*
X-946228Y1096010D02*
Y1121402D01*
X-933532D01*
X-929300Y1117170D01*
Y1108706D01*
X-933532Y1104474D01*
X-946228D01*
X-920836Y1121402D02*
Y1096010D01*
X-903908D01*
X-895444Y1121402D02*
Y1117170D01*
X-886980Y1108706D01*
X-878516Y1117170D01*
Y1121402D01*
X-886980Y1108706D02*
Y1096010D01*
X-844661Y1121402D02*
Y1096010D01*
Y1108706D01*
X-827733D01*
Y1121402D01*
Y1096010D01*
X-819269Y1121402D02*
Y1100242D01*
X-815037Y1096010D01*
X-806573D01*
X-802341Y1100242D01*
Y1121402D01*
X-793877Y1096010D02*
Y1121402D01*
X-785413Y1112938D01*
X-776949Y1121402D01*
Y1096010D01*
X-768485Y1121402D02*
X-760021D01*
X-764253D01*
Y1096010D01*
X-768485D01*
X-760021D01*
X-730398Y1117170D02*
X-734630Y1121402D01*
X-743094D01*
X-747326Y1117170D01*
Y1112938D01*
X-743094Y1108706D01*
X-734630D01*
X-730398Y1104474D01*
Y1100242D01*
X-734630Y1096010D01*
X-743094D01*
X-747326Y1100242D01*
X-705006Y1121402D02*
X-721934D01*
Y1096010D01*
X-705006D01*
X-721934Y1108706D02*
X-713470D01*
X-696542Y1096010D02*
Y1112938D01*
X-688078Y1121402D01*
X-679614Y1112938D01*
Y1096010D01*
Y1108706D01*
X-696542D01*
X-671150Y1121402D02*
Y1096010D01*
X-654222D01*
X-620367D02*
X-611903D01*
X-616135D01*
Y1121402D01*
X-620367Y1117170D01*
X-599207Y1096010D02*
Y1112938D01*
X-590743Y1121402D01*
X-582279Y1112938D01*
Y1096010D01*
Y1108706D01*
X-599207D01*
X-573815Y1117170D02*
X-569583Y1121402D01*
X-561119D01*
X-556887Y1117170D01*
Y1112938D01*
X-561119Y1108706D01*
X-565351D01*
X-561119D01*
X-556887Y1104474D01*
Y1100242D01*
X-561119Y1096010D01*
X-569583D01*
X-573815Y1100242D01*
X-548423Y1117170D02*
X-544191Y1121402D01*
X-535727D01*
X-531495Y1117170D01*
Y1112938D01*
X-535727Y1108706D01*
X-539959D01*
X-535727D01*
X-531495Y1104474D01*
Y1100242D01*
X-535727Y1096010D01*
X-544191D01*
X-548423Y1100242D01*
X-480712Y1117170D02*
X-484944Y1121402D01*
X-493408D01*
X-497640Y1117170D01*
Y1100242D01*
X-493408Y1096010D01*
X-484944D01*
X-480712Y1100242D01*
X-459552Y1121402D02*
X-468016D01*
X-472248Y1117170D01*
Y1100242D01*
X-468016Y1096010D01*
X-459552D01*
X-455320Y1100242D01*
Y1117170D01*
X-459552Y1121402D01*
X-446856Y1096010D02*
Y1121402D01*
X-429928Y1096010D01*
Y1121402D01*
X-404536D02*
X-421464D01*
Y1108706D01*
X-413000D01*
X-421464D01*
Y1096010D01*
X-383377Y1121402D02*
X-391840D01*
X-396072Y1117170D01*
Y1100242D01*
X-391840Y1096010D01*
X-383377D01*
X-379145Y1100242D01*
Y1117170D01*
X-383377Y1121402D01*
X-370681Y1096010D02*
Y1121402D01*
X-357985D01*
X-353753Y1117170D01*
Y1108706D01*
X-357985Y1104474D01*
X-370681D01*
X-362217D02*
X-353753Y1096010D01*
X-345289D02*
Y1121402D01*
X-336825Y1112938D01*
X-328361Y1121402D01*
Y1096010D01*
X-319897D02*
Y1112938D01*
X-311433Y1121402D01*
X-302969Y1112938D01*
Y1096010D01*
Y1108706D01*
X-319897D01*
X-294505Y1121402D02*
Y1096010D01*
X-277577D01*
X-226794Y1117170D02*
X-231026Y1121402D01*
X-239490D01*
X-243722Y1117170D01*
Y1100242D01*
X-239490Y1096010D01*
X-231026D01*
X-226794Y1100242D01*
X-205634Y1121402D02*
X-214098D01*
X-218330Y1117170D01*
Y1100242D01*
X-214098Y1096010D01*
X-205634D01*
X-201402Y1100242D01*
Y1117170D01*
X-205634Y1121402D01*
X-192938Y1096010D02*
Y1112938D01*
X-184474Y1121402D01*
X-176010Y1112938D01*
Y1096010D01*
Y1108706D01*
X-192938D01*
X-167546Y1121402D02*
X-150618D01*
X-159082D01*
Y1096010D01*
X-142154Y1121402D02*
X-133691D01*
X-137922D01*
Y1096010D01*
X-142154D01*
X-133691D01*
X-120995D02*
Y1121402D01*
X-104067Y1096010D01*
Y1121402D01*
X-78675Y1117170D02*
X-82907Y1121402D01*
X-91371D01*
X-95603Y1117170D01*
Y1100242D01*
X-91371Y1096010D01*
X-82907D01*
X-78675Y1100242D01*
Y1108706D01*
X-87139D01*
X-44819Y1096010D02*
Y1112938D01*
X-36355Y1121402D01*
X-27891Y1112938D01*
Y1096010D01*
Y1108706D01*
X-44819D01*
X-2500Y1117170D02*
X-6732Y1121402D01*
X-15195D01*
X-19427Y1117170D01*
Y1112938D01*
X-15195Y1108706D01*
X-6732D01*
X-2500Y1104474D01*
Y1100242D01*
X-6732Y1096010D01*
X-15195D01*
X-19427Y1100242D01*
X48284Y1117170D02*
X44052Y1121402D01*
X35588D01*
X31356Y1117170D01*
Y1112938D01*
X35588Y1108706D01*
X44052D01*
X48284Y1104474D01*
Y1100242D01*
X44052Y1096010D01*
X35588D01*
X31356Y1100242D01*
X56748Y1096010D02*
Y1121402D01*
X69444D01*
X73676Y1117170D01*
Y1108706D01*
X69444Y1104474D01*
X56748D01*
X99068Y1121402D02*
X82140D01*
Y1096010D01*
X99068D01*
X82140Y1108706D02*
X90604D01*
X124459Y1117170D02*
X120227Y1121402D01*
X111763D01*
X107532Y1117170D01*
Y1100242D01*
X111763Y1096010D01*
X120227D01*
X124459Y1100242D01*
X132923Y1121402D02*
X141387D01*
X137155D01*
Y1096010D01*
X132923D01*
X141387D01*
X171011Y1121402D02*
X154083D01*
Y1108706D01*
X162547D01*
X154083D01*
Y1096010D01*
X179475Y1121402D02*
X187939D01*
X183707D01*
Y1096010D01*
X179475D01*
X187939D01*
X217563Y1121402D02*
X200635D01*
Y1096010D01*
X217563D01*
X200635Y1108706D02*
X209099D01*
X226027Y1121402D02*
Y1096010D01*
X238722D01*
X242955Y1100242D01*
Y1117170D01*
X238722Y1121402D01*
X226027D01*
X276810D02*
Y1096010D01*
X289506D01*
X293738Y1100242D01*
Y1104474D01*
X289506Y1108706D01*
X276810D01*
X289506D01*
X293738Y1112938D01*
Y1117170D01*
X289506Y1121402D01*
X276810D01*
X302202D02*
Y1117170D01*
X310666Y1108706D01*
X319130Y1117170D01*
Y1121402D01*
X310666Y1108706D02*
Y1096010D01*
X352986D02*
Y1121402D01*
X361450Y1112938D01*
X369913Y1121402D01*
Y1096010D01*
X378377D02*
X386841D01*
X382609D01*
Y1121402D01*
X378377Y1117170D01*
X399537Y1121402D02*
X416465D01*
Y1117170D01*
X399537Y1100242D01*
Y1096010D01*
X424929Y1108706D02*
X441857D01*
X450321Y1096010D02*
Y1121402D01*
X458785Y1112938D01*
X467249Y1121402D01*
Y1096010D01*
X475713D02*
X484176D01*
X479945D01*
Y1121402D01*
X475713Y1117170D01*
X496872D02*
X501104Y1121402D01*
X509568D01*
X513800Y1117170D01*
Y1112938D01*
X509568Y1108706D01*
X513800Y1104474D01*
Y1100242D01*
X509568Y1096010D01*
X501104D01*
X496872Y1100242D01*
Y1104474D01*
X501104Y1108706D01*
X496872Y1112938D01*
Y1117170D01*
X501104Y1108706D02*
X509568D01*
X547656Y1121402D02*
Y1096010D01*
X564584D01*
X573048D02*
Y1112938D01*
X581512Y1121402D01*
X589976Y1112938D01*
Y1096010D01*
Y1108706D01*
X573048D01*
X598440Y1121402D02*
Y1117170D01*
X606903Y1108706D01*
X615368Y1117170D01*
Y1121402D01*
X606903Y1108706D02*
Y1096010D01*
X640759Y1121402D02*
X623831D01*
Y1096010D01*
X640759D01*
X623831Y1108706D02*
X632295D01*
X649223Y1096010D02*
Y1121402D01*
X661919D01*
X666151Y1117170D01*
Y1108706D01*
X661919Y1104474D01*
X649223D01*
X657687D02*
X666151Y1096010D01*
X691543Y1117170D02*
X687311Y1121402D01*
X678847D01*
X674615Y1117170D01*
Y1112938D01*
X678847Y1108706D01*
X687311D01*
X691543Y1104474D01*
Y1100242D01*
X687311Y1096010D01*
X678847D01*
X674615Y1100242D01*
D12*
X345870Y-404995D02*
G03*
X356131Y-404995I5130J5130D01*
G01*
X813239Y-192500D02*
G03*
X813239Y-192500I-25739J0D01*
G01*
X664300Y-42500D02*
G03*
X664300Y-42500I-114300J0D01*
G01*
X405732Y-338388D02*
G03*
X384797Y-326237I-44471J-52512D01*
G01*
X361261Y-322087D02*
G03*
X337433Y-326345I0J-68813D01*
G01*
X273240Y-470900D02*
X720740D01*
X273240Y-300900D02*
X720740D01*
Y-470900D02*
Y-300900D01*
X273240Y-470900D02*
Y-300900D01*
Y-248400D02*
X325740D01*
X273240Y-300900D02*
X325740D01*
X273240D02*
Y-248400D01*
X325740Y-300900D02*
Y-248400D01*
X340740Y-390900D02*
X345784Y-404757D01*
X356217D02*
X361261Y-390900D01*
X382111Y-333616D02*
X383848Y-328843D01*
X378636Y-343164D02*
X380373Y-338390D01*
X375161Y-352711D02*
X376898Y-347937D01*
X371686Y-362258D02*
X373424Y-357485D01*
X368211Y-371805D02*
X369949Y-367032D01*
X364736Y-381353D02*
X366474Y-376579D01*
X361261Y-390900D02*
X362999Y-386126D01*
X361261Y-390900D02*
Y-315900D01*
X340740Y-390900D02*
Y-336223D01*
X692500Y-192500D02*
X760000D01*
X627425Y-127425D02*
X692500Y-192500D01*
X626500Y-127425D02*
X627425D01*
X384797Y-326237D02*
X400855Y-326676D01*
X384797Y-326237D02*
X397380Y-336223D01*
X346021Y-327167D02*
X361261Y-322087D01*
X346021Y-317007D02*
X361261Y-322087D01*
X383928Y-328624D02*
X385151Y-325263D01*
X361261Y-387090D02*
Y-319547D01*
X289776Y-288596D02*
Y-271668D01*
X298240Y-263204D01*
X306704Y-271668D01*
Y-288596D01*
Y-275900D01*
X289776D01*
X779036Y-205196D02*
Y-188268D01*
X787500Y-179804D01*
X795964Y-188268D01*
Y-205196D01*
Y-192500D01*
X779036D01*
D16*
X2417690Y54864D02*
X2414304Y58250D01*
Y61635D01*
X2417690Y65021D01*
X2427847D02*
X2424461D01*
X2422768Y63328D01*
Y56557D01*
X2424461Y54864D01*
X2427847D01*
X2429539Y56557D01*
Y63328D01*
X2427847Y65021D01*
X2432925Y54864D02*
Y65021D01*
X2439696Y54864D01*
Y65021D01*
X2453239D02*
Y54864D01*
X2458317D01*
X2460010Y56557D01*
Y58250D01*
X2458317Y59942D01*
X2453239D01*
X2458317D01*
X2460010Y61635D01*
Y63328D01*
X2458317Y65021D01*
X2453239D01*
X2468474D02*
X2465088D01*
X2463395Y63328D01*
Y56557D01*
X2465088Y54864D01*
X2468474D01*
X2470166Y56557D01*
Y63328D01*
X2468474Y65021D01*
X2473552D02*
X2480323D01*
X2476938D01*
Y54864D01*
X2483709Y65021D02*
X2490480D01*
X2487094D01*
Y54864D01*
X2498944Y65021D02*
X2495558D01*
X2493865Y63328D01*
Y56557D01*
X2495558Y54864D01*
X2498944D01*
X2500637Y56557D01*
Y63328D01*
X2498944Y65021D01*
X2504022Y54864D02*
Y65021D01*
X2507408Y61635D01*
X2510793Y65021D01*
Y54864D01*
X2531107Y63328D02*
X2529414Y65021D01*
X2526028D01*
X2524336Y63328D01*
Y61635D01*
X2526028Y59942D01*
X2529414D01*
X2531107Y58250D01*
Y56557D01*
X2529414Y54864D01*
X2526028D01*
X2524336Y56557D01*
X2534492Y65021D02*
X2537878D01*
X2536185D01*
Y54864D01*
X2534492D01*
X2537878D01*
X2542956Y65021D02*
Y54864D01*
X2549727D01*
X2553113Y65021D02*
Y54864D01*
Y58250D01*
X2559884Y65021D01*
X2554806Y59942D01*
X2559884Y54864D01*
X2570041Y63328D02*
X2568348Y65021D01*
X2564962D01*
X2563270Y63328D01*
Y61635D01*
X2564962Y59942D01*
X2568348D01*
X2570041Y58250D01*
Y56557D01*
X2568348Y54864D01*
X2564962D01*
X2563270Y56557D01*
X2580197Y63328D02*
X2578505Y65021D01*
X2575119D01*
X2573427Y63328D01*
Y56557D01*
X2575119Y54864D01*
X2578505D01*
X2580197Y56557D01*
X2583583Y54864D02*
Y65021D01*
X2588661D01*
X2590354Y63328D01*
Y59942D01*
X2588661Y58250D01*
X2583583D01*
X2586969D02*
X2590354Y54864D01*
X2600511Y65021D02*
X2593740D01*
Y54864D01*
X2600511D01*
X2593740Y59942D02*
X2597126D01*
X2610668Y65021D02*
X2603896D01*
Y54864D01*
X2610668D01*
X2603896Y59942D02*
X2607282D01*
X2614053Y54864D02*
Y65021D01*
X2620825Y54864D01*
Y65021D01*
X2624210Y54864D02*
X2627596Y58250D01*
Y61635D01*
X2624210Y65021D01*
X2456624Y78994D02*
Y85765D01*
X2460010Y89151D01*
X2463395Y85765D01*
Y78994D01*
Y84072D01*
X2456624D01*
X2466781Y89151D02*
Y78994D01*
X2471859D01*
X2473552Y80687D01*
Y87458D01*
X2471859Y89151D01*
X2466781D01*
X2476938D02*
Y78994D01*
X2482016D01*
X2483709Y80687D01*
Y87458D01*
X2482016Y89151D01*
X2476938D01*
X2497251D02*
X2504022D01*
X2500637D01*
Y78994D01*
X2514179Y89151D02*
X2507408D01*
Y78994D01*
X2514179D01*
X2507408Y84072D02*
X2510793D01*
X2517564Y89151D02*
X2524336Y78994D01*
Y89151D02*
X2517564Y78994D01*
X2527721Y89151D02*
X2534492D01*
X2531107D01*
Y78994D01*
X2548035Y89151D02*
Y78994D01*
Y84072D01*
X2554806D01*
Y89151D01*
Y78994D01*
X2564962Y89151D02*
X2558191D01*
Y78994D01*
X2564962D01*
X2558191Y84072D02*
X2561577D01*
X2568348Y78994D02*
Y89151D01*
X2573427D01*
X2575119Y87458D01*
Y84072D01*
X2573427Y82380D01*
X2568348D01*
X2571734D02*
X2575119Y78994D01*
X2585276Y89151D02*
X2578505D01*
Y78994D01*
X2585276D01*
X2578505Y84072D02*
X2581890D01*
X2514179Y100584D02*
Y110741D01*
X2517564D02*
Y100584D01*
X2512486Y107355D02*
X2517564D01*
X2519257D01*
X2512486Y103970D02*
X2519257D01*
X2522643Y109048D02*
X2524336Y110741D01*
X2527721D01*
X2529414Y109048D01*
Y107355D01*
X2527721Y105662D01*
X2526028D01*
X2527721D01*
X2529414Y103970D01*
Y102277D01*
X2527721Y100584D01*
X2524336D01*
X2522643Y102277D01*
X452342Y-441719D02*
X448957D01*
X447264Y-443412D01*
Y-450183D01*
X448957Y-451876D01*
X452342D01*
X454035Y-450183D01*
Y-443412D01*
X452342Y-441719D01*
X464192D02*
X457421D01*
Y-446798D01*
X460806D01*
X457421D01*
Y-451876D01*
X484505Y-443412D02*
X482812Y-441719D01*
X479427D01*
X477734Y-443412D01*
Y-450183D01*
X479427Y-451876D01*
X482812D01*
X484505Y-450183D01*
X487891Y-441719D02*
Y-450183D01*
X489584Y-451876D01*
X492969D01*
X494662Y-450183D01*
Y-441719D01*
X498048D02*
X504819D01*
X501433D01*
Y-451876D01*
X508204Y-441719D02*
X514976D01*
X511590D01*
Y-451876D01*
X518361Y-441719D02*
X521747D01*
X520054D01*
Y-451876D01*
X518361D01*
X521747D01*
X526825D02*
Y-441719D01*
X533596Y-451876D01*
Y-441719D01*
X543753Y-443412D02*
X542060Y-441719D01*
X538675D01*
X536982Y-443412D01*
Y-450183D01*
X538675Y-451876D01*
X542060D01*
X543753Y-450183D01*
Y-446798D01*
X540367D01*
X557295Y-441719D02*
Y-451876D01*
X562374D01*
X564066Y-450183D01*
Y-448490D01*
X562374Y-446798D01*
X557295D01*
X562374D01*
X564066Y-445105D01*
Y-443412D01*
X562374Y-441719D01*
X557295D01*
X567452D02*
Y-450183D01*
X569145Y-451876D01*
X572530D01*
X574223Y-450183D01*
Y-441719D01*
X577609Y-451876D02*
Y-441719D01*
X582687D01*
X584380Y-443412D01*
Y-446798D01*
X582687Y-448490D01*
X577609D01*
X580994D02*
X584380Y-451876D01*
X587765D02*
Y-441719D01*
X592844D01*
X594537Y-443412D01*
Y-446798D01*
X592844Y-448490D01*
X587765D01*
X591151D02*
X594537Y-451876D01*
X604693Y-443412D02*
X603000Y-441719D01*
X599615D01*
X597922Y-443412D01*
Y-445105D01*
X599615Y-446798D01*
X603000D01*
X604693Y-448490D01*
Y-450183D01*
X603000Y-451876D01*
X599615D01*
X597922Y-450183D01*
X608079Y-451876D02*
Y-450183D01*
X609772D01*
Y-451876D01*
X608079D01*
X454035Y-427525D02*
X452342Y-425833D01*
X448957D01*
X447264Y-427525D01*
Y-434297D01*
X448957Y-435989D01*
X452342D01*
X454035Y-434297D01*
X457421Y-425833D02*
Y-435989D01*
Y-430911D01*
X464192D01*
Y-425833D01*
Y-435989D01*
X467577D02*
Y-429218D01*
X470963Y-425833D01*
X474349Y-429218D01*
Y-435989D01*
Y-430911D01*
X467577D01*
X477734Y-435989D02*
Y-425833D01*
X481120Y-429218D01*
X484505Y-425833D01*
Y-435989D01*
X494662Y-425833D02*
X487891D01*
Y-430911D01*
X491277D01*
X487891D01*
Y-435989D01*
X504819Y-425833D02*
X498048D01*
Y-435989D01*
X504819D01*
X498048Y-430911D02*
X501433D01*
X508204Y-435989D02*
Y-425833D01*
X513283D01*
X514976Y-427525D01*
Y-430911D01*
X513283Y-432604D01*
X508204D01*
X511590D02*
X514976Y-435989D01*
X535289Y-425833D02*
X528518D01*
Y-435989D01*
X535289D01*
X528518Y-430911D02*
X531903D01*
X538675Y-425833D02*
Y-435989D01*
X543753D01*
X545446Y-434297D01*
Y-427525D01*
X543753Y-425833D01*
X538675D01*
X555602Y-427525D02*
X553910Y-425833D01*
X550524D01*
X548831Y-427525D01*
Y-434297D01*
X550524Y-435989D01*
X553910D01*
X555602Y-434297D01*
Y-430911D01*
X552217D01*
X565759Y-425833D02*
X558988D01*
Y-435989D01*
X565759D01*
X558988Y-430911D02*
X562374D01*
X575916Y-427525D02*
X574223Y-425833D01*
X570838D01*
X569145Y-427525D01*
Y-429218D01*
X570838Y-430911D01*
X574223D01*
X575916Y-432604D01*
Y-434297D01*
X574223Y-435989D01*
X570838D01*
X569145Y-434297D01*
X589458Y-435989D02*
Y-425833D01*
X592844Y-429218D01*
X596229Y-425833D01*
Y-435989D01*
X599615Y-425833D02*
Y-434297D01*
X601308Y-435989D01*
X604693D01*
X606386Y-434297D01*
Y-425833D01*
X616543Y-427525D02*
X614850Y-425833D01*
X611464D01*
X609772Y-427525D01*
Y-429218D01*
X611464Y-430911D01*
X614850D01*
X616543Y-432604D01*
Y-434297D01*
X614850Y-435989D01*
X611464D01*
X609772Y-434297D01*
X619928Y-425833D02*
X626699D01*
X623314D01*
Y-435989D01*
X640242Y-425833D02*
Y-435989D01*
X645320D01*
X647013Y-434297D01*
Y-432604D01*
X645320Y-430911D01*
X640242D01*
X645320D01*
X647013Y-429218D01*
Y-427525D01*
X645320Y-425833D01*
X640242D01*
X657170D02*
X650398D01*
Y-435989D01*
X657170D01*
X650398Y-430911D02*
X653784D01*
X677483Y-425833D02*
X670712D01*
Y-430911D01*
X674098D01*
X670712D01*
Y-435989D01*
X680869D02*
Y-425833D01*
X685947D01*
X687640Y-427525D01*
Y-430911D01*
X685947Y-432604D01*
X680869D01*
X684254D02*
X687640Y-435989D01*
X697796Y-425833D02*
X691025D01*
Y-435989D01*
X697796D01*
X691025Y-430911D02*
X694411D01*
X707953Y-425833D02*
X701182D01*
Y-435989D01*
X707953D01*
X701182Y-430911D02*
X704568D01*
X288368Y-456876D02*
X291753D01*
X290060D01*
Y-446719D01*
X288368Y-448412D01*
X296831Y-456876D02*
Y-455183D01*
X298524D01*
Y-456876D01*
X296831D01*
X312066Y-446719D02*
X308681Y-448412D01*
X305295Y-451798D01*
Y-455183D01*
X306988Y-456876D01*
X310374D01*
X312066Y-455183D01*
Y-453490D01*
X310374Y-451798D01*
X305295D01*
X315452Y-456876D02*
Y-450105D01*
X317145D01*
X318838Y-451798D01*
Y-456876D01*
Y-451798D01*
X320531Y-450105D01*
X322223Y-451798D01*
Y-456876D01*
X325609D02*
Y-450105D01*
X327302D01*
X328994Y-451798D01*
Y-456876D01*
Y-451798D01*
X330687Y-450105D01*
X332380Y-451798D01*
Y-456876D01*
X345922Y-451798D02*
X352693D01*
X349308Y-448412D02*
Y-455183D01*
X356079Y-456876D02*
X362850Y-450105D01*
X366236Y-451798D02*
X373007D01*
X386549Y-456876D02*
X389935D01*
X388242D01*
Y-446719D01*
X386549Y-448412D01*
X395013D02*
X396706Y-446719D01*
X400092D01*
X401784Y-448412D01*
Y-455183D01*
X400092Y-456876D01*
X396706D01*
X395013Y-455183D01*
Y-448412D01*
X405170Y-455183D02*
X413634Y-446719D01*
X405170D02*
Y-445027D01*
X406863D01*
Y-446719D01*
X405170D01*
X411941Y-456876D02*
Y-455183D01*
X413634D01*
Y-456876D01*
X411941D01*
X416601Y-350243D02*
X407057Y-346770D01*
X420075Y-340699D01*
X420943Y-338313D01*
X419425Y-335059D01*
X414653Y-333322D01*
X411399Y-334839D01*
X425715Y-340050D02*
X428970Y-338532D01*
X433742Y-340269D01*
X435259Y-343524D01*
X431786Y-353068D01*
X428531Y-354586D01*
X423759Y-352849D01*
X422241Y-349594D01*
X425715Y-340050D01*
X450444Y-346349D02*
X445233Y-360665D01*
X438075Y-358060D01*
X436558Y-354805D01*
X438294Y-350033D01*
X441549Y-348515D01*
X448707Y-351121D01*
X457164Y-365007D02*
X452391Y-363270D01*
X450874Y-360016D01*
X452611Y-355244D01*
X455865Y-353726D01*
X460637Y-355463D01*
X462155Y-358717D01*
X461287Y-361104D01*
X451742Y-357630D01*
X467357Y-374122D02*
X469743Y-374990D01*
X472997Y-373472D01*
X477340Y-361542D01*
X470182Y-358937D01*
X466927Y-360454D01*
X465190Y-365226D01*
X466708Y-368481D01*
X473866Y-371086D01*
X495560Y-370876D02*
X505104Y-374350D01*
X502069Y-367841D02*
X498595Y-377385D01*
X507271Y-383245D02*
X520289Y-377174D01*
X524192Y-381297D02*
X533736Y-384771D01*
X564974Y-388034D02*
X555430Y-384561D01*
X552825Y-391719D01*
X558465Y-391069D01*
X560851Y-391938D01*
X562369Y-395192D01*
X560632Y-399965D01*
X557378Y-401482D01*
X552605Y-399745D01*
X551088Y-396491D01*
D293*
X361261Y-433400D02*
X371421Y-430013D01*
X361261Y-433400D02*
X371421Y-436787D01*
X330580D02*
X340740Y-433400D01*
X330580Y-430013D02*
X340740Y-433400D01*
X361261D02*
X373961D01*
X328040D02*
X340740D01*
Y-435940D02*
Y-394710D01*
X361261Y-435940D02*
Y-394710D01*
M02*
